<svg width="25" height="25" viewBox="0 0 25 25" fill="none" xmlns="http://www.w3.org/2000/svg">
<path d="M19.2171 19.9947L19.5503 21.9942C18.4839 21.1944 15.3291 21.772 13.885 22.3274L12.552 18.9949C13.3518 17.3953 12.6631 14.5515 12.2188 13.3296C12.4409 12.1077 12.8853 9.46389 12.8853 8.66408C12.8853 7.66432 13.2185 6.99781 13.5518 6.66456C13.8184 6.39796 14.4404 6.55348 14.5515 6.66456C14.5515 6.10914 14.6848 4.86499 15.218 4.33179C15.6437 3.90616 16.2392 3.9477 16.2926 4.3208C16.4658 3.87217 16.9273 3.33203 17.5508 3.33203C18.3506 3.33203 18.2173 4.44287 18.2173 4.9983H18.5506C19.3504 4.9983 19.5503 5.6648 19.5503 5.99805V11.9966C19.5503 12.7964 19.7725 14.3294 19.8836 14.9959C20.2168 14.1072 21.1499 12.2632 22.2163 11.9966C23.2827 11.73 23.7715 12.2188 23.8826 12.6631C23.5493 13.3296 21.8164 15.2625 21.5498 16.3289C21.2832 17.3953 19.8836 19.2171 19.2171 19.9947Z" fill="#A79CEE"/>
<path d="M11.8847 20.6622C11.6181 21.462 11.3293 22.995 11.2182 23.6615L5.21948 23.9947L5.88598 21.3287C6.55249 18.6627 4.85125 16.2596 4.55328 15.6634C4.22016 14.9969 0.887334 12.6641 2.5536 12.3309C3.48727 12.0975 4.74786 12.845 5.30488 13.8864C4.84148 11.1582 4.21986 7.33449 4.21986 6.66556C4.21986 5.86576 4.6642 5.66581 4.88637 5.66581C4.88637 5.44364 5.01967 4.93265 5.55287 4.66605C6.08608 4.39944 6.66371 4.9993 6.88588 5.33255H7.21914C8.01894 5.33255 8.66323 6.88773 8.8854 7.66532C9.152 7.39872 9.88516 7.99858 10.2184 8.33183C10.8849 9.99809 12.2846 13.6639 12.5512 14.9969C12.8844 16.6632 12.2179 19.6624 11.8847 20.6622Z" fill="#A79CEE"/>
<path d="M14.9525 0C15.0361 0.327418 15.0772 0.671405 15.0858 1.0075C14.5099 2.07575 13.9482 3.15663 13.3359 4.20515C13.4298 3.82961 13.4787 3.44302 13.6002 3.07536C14.0492 2.04972 14.5052 1.02723 14.9525 0Z" fill="black"/>
<path d="M7.80268 0.369141C8.36915 1.58335 8.89223 2.81886 9.43267 4.0449C9.57073 4.48278 9.63937 4.94037 9.73484 5.38929C9.08079 4.2027 8.44331 3.00663 7.79005 1.82004C7.73009 1.70169 7.64331 1.58256 7.66855 1.44291C7.70169 1.08394 7.75455 0.726539 7.80268 0.369141Z" fill="black"/>
<path d="M12.7952 0.65918C12.9002 0.944783 12.9869 1.23828 13.0564 1.53492C12.9854 1.89232 12.8181 2.22605 12.7029 2.57162C12.6713 2.66661 12.6678 2.64933 12.6374 2.73335C12.4954 3.17675 12.3495 3.62172 12.1641 4.04855C12.1956 3.65328 12.1727 3.25012 12.2682 2.86274C12.4426 2.12822 12.6232 1.39449 12.7952 0.65918Z" fill="black"/>
<path d="M10.353 1.17578C10.5526 1.79827 10.667 2.44522 10.8319 3.07717C10.9139 3.45745 11.0401 3.83063 11.0685 4.22038L11.0666 4.21721C11.0681 4.21441 11.0662 4.19058 11.0772 4.23537C11.0867 4.562 11.0938 4.88941 11.1301 5.21525C10.7514 4.22669 10.4113 3.22313 10.0508 2.22746C10.1573 1.87874 10.2543 1.52687 10.353 1.17578Z" fill="black"/>
<path d="M16.2763 3.79486C16.5288 3.25205 17.2223 2.97749 17.7738 3.19683C17.859 3.28992 17.941 3.38696 18.0239 3.48243C18.0696 3.45955 18.1612 3.413 18.2077 3.38933C18.5596 3.71754 18.618 4.20985 18.5825 4.66508C19.257 4.68165 19.9063 5.2355 19.919 5.92978C19.9087 6.54754 19.9158 7.16608 19.8937 7.78305C19.8819 7.75859 19.8598 7.70888 19.8479 7.68443C19.8369 7.54163 19.8337 7.39882 19.8345 7.25523C19.8361 7.22289 19.8401 7.1574 19.8416 7.12505C19.7225 7.20632 19.6042 7.28758 19.4866 7.37042C19.4614 6.83866 19.5174 6.30533 19.4827 5.77514C19.4322 5.29546 18.887 5.00907 18.4483 5.12504C18.1856 5.27337 18.1193 5.64299 18.0191 5.90335C17.9896 5.9921 17.7402 5.8923 17.6641 5.69624C17.7588 5.39486 17.9047 5.0493 18.143 4.83313C18.1722 4.44259 18.2156 3.99131 17.9071 3.69308C17.7761 3.51399 17.6357 3.32779 17.4203 3.24732C17.4882 3.35383 17.5617 3.41616 17.6232 3.52661C17.422 3.42788 17.3612 3.49963 17.242 3.52661C16.7994 3.62681 16.5714 4.05206 16.4815 4.46153C16.4199 4.45364 16.2961 4.43707 16.2345 4.42839L16.2132 4.33135C16.2069 4.29979 16.1959 4.23746 16.1903 4.20669C15.7935 4.14989 15.3935 4.30926 15.1426 4.61932C14.6558 5.14556 14.6629 5.92504 14.528 6.58382C14.431 6.49073 14.3564 6.44181 14.2617 6.34714C14.3351 5.6497 14.3797 4.80946 14.8633 4.25166C15.201 3.84377 15.7659 3.68835 16.2763 3.79486Z" fill="black"/>
<path d="M6.12512 4.49707C6.16772 4.49944 6.25214 4.50417 6.29474 4.50654C6.60954 4.60279 6.86595 4.83553 7.00402 5.13297C7.41112 5.07696 7.85451 5.19372 8.12513 5.51719C8.5843 6.04501 8.73184 6.7527 8.93065 7.40439C9.27701 7.35153 9.65097 7.41859 9.90975 7.67026C10.462 8.19571 10.6679 8.95627 10.9362 9.64503C10.9788 9.78389 10.978 9.80874 11.0372 9.98625C11.0795 10.1131 11.1157 10.1518 11.1539 10.2738C11.3906 11.0281 11.7086 11.7516 12.0163 12.4782C12.2751 11.1898 12.4415 9.88408 12.5859 8.57836C12.5946 8.46238 12.6052 8.47737 12.6427 8.25488C12.6956 7.74285 12.8384 7.21898 13.1484 6.80004C13.3559 6.52233 13.6762 6.3314 14.0218 6.29432C14.2467 6.22016 14.3761 6.46316 14.537 6.57203C14.5315 6.69274 14.5283 6.85014 14.4987 6.99807C14.4238 6.99807 14.2482 6.99807 14.1733 6.99807C14.1764 6.85053 14.2108 6.82016 14.2029 6.67262C14.1733 6.70221 14.2029 6.67262 14.1338 6.69353C13.8711 6.71326 13.6045 6.81109 13.4451 7.032C13.2257 7.3105 13.154 7.66711 13.0798 8.00478C13.067 8.06316 13.0786 8.00399 13.0435 8.13733C12.922 9.83675 12.619 11.5157 12.3468 13.1953C12.3981 13.5867 12.5969 13.948 12.6593 14.3409C12.5165 14.4277 12.4005 14.5476 12.279 14.6589C12.1133 13.6853 11.6912 12.778 11.296 11.8794C10.8612 10.8656 10.5819 9.79256 10.1425 8.78033C9.99181 8.45765 9.82534 8.10735 9.50344 7.9251C9.21941 7.76336 8.74367 7.86829 8.67109 8.22175C8.63006 8.46869 8.72079 8.71169 8.78943 8.94443C9.135 10.0024 9.42533 11.0794 9.62257 12.1744C9.64703 12.3835 9.59891 12.5918 9.56892 12.7977C9.37168 11.6143 8.94328 10.4876 8.63479 9.3326C8.54485 8.95785 8.34446 8.60124 8.36182 8.20833C8.43895 8.21878 8.55984 8.23516 8.36182 8.20833C8.37346 7.94482 8.47069 7.75311 8.55984 7.63476C8.40205 7.0959 8.28923 6.5318 7.99337 6.04659C7.84189 5.79885 7.60362 5.56532 7.2983 5.54796C7.06082 5.53218 6.75392 5.58347 6.6553 5.83436C6.55589 6.12312 6.6411 6.43475 6.71684 6.71878C6.96615 7.58032 7.15471 8.45686 7.38982 9.32156C7.68489 10.408 7.9129 11.5149 8.02098 12.636C8.04308 12.8285 8.00521 13.021 7.97838 13.2119C7.93657 13.0502 7.90264 12.8861 7.87818 12.7212C7.70382 11.5385 7.39376 10.3811 7.05609 9.23635C6.82492 8.3464 6.62058 7.44857 6.3618 6.56572C6.23084 6.13732 6.18902 5.57952 6.61664 5.30339C6.48725 5.12666 6.31762 4.98701 6.11328 4.90733C6.11723 4.77084 6.12038 4.63356 6.12512 4.49707Z" fill="black"/>
<path d="M16.056 5.13086C16.1522 5.17662 16.2493 5.22317 16.3471 5.26893C16.1443 6.50602 16.1072 7.76125 15.9952 9.00781C15.925 9.72024 15.8106 10.4271 15.7041 11.1341C15.6749 11.3187 15.5439 11.4623 15.4453 11.6145C15.7467 9.46225 15.7443 7.28156 16.056 5.13086Z" fill="black"/>
<path d="M4.68502 10.4736C4.8223 10.5699 4.95879 10.6677 5.09607 10.7655C5.25859 11.8922 5.44952 13.0157 5.5797 14.147C5.58443 14.2867 5.58443 14.4271 5.58443 14.5675C5.50554 14.5336 5.42743 14.4981 5.35011 14.4618C5.28699 14.2677 5.27831 14.0397 5.11027 13.8993C4.51855 13.2886 3.88722 12.6638 3.04161 12.3884C2.9655 12.3637 2.91794 12.3593 2.83806 12.3644C2.63955 12.3772 2.53862 12.4494 2.39861 12.622C2.29551 12.7491 2.23172 12.8337 2.22095 12.9971C2.2009 13.3012 2.50986 13.4401 2.69684 13.6263C3.49369 14.491 4.40651 15.295 4.91066 16.3798L4.89883 16.4516C4.7434 16.3403 4.57851 16.2338 4.37969 16.2346L4.34813 16.2299C3.95444 15.5159 3.33195 14.9746 2.83806 14.3364C2.53905 13.9648 2.19191 13.6239 1.9781 13.1908C2.00966 13.1798 2.0712 13.1577 2.10196 13.1474C2.06252 13.1537 2.01755 13.1845 1.9781 13.1908C1.92839 12.9557 1.82741 12.6622 1.99545 12.4555C2.31735 12.0721 2.87593 11.9222 3.35404 12.0579C4.01598 12.2354 4.53433 12.7214 5.0148 13.1861C4.90119 12.3774 4.78364 11.5687 4.66214 10.7616C4.66766 10.689 4.67949 10.5454 4.68502 10.4736Z" fill="black"/>
<path d="M21.7559 11.8916C22.339 11.5287 23.1216 11.591 23.6857 11.9626C23.9587 12.1425 24.1836 12.4486 24.1583 12.7895C24.1086 13.18 23.8143 13.4695 23.5603 13.7449C22.9062 14.38 22.5062 15.2147 22.1267 16.0297C21.4317 17.5224 20.6427 18.9804 19.6273 20.2822C19.7638 21.0057 19.8853 21.7331 20.0234 22.4566C19.793 22.3374 19.565 22.2128 19.3378 22.0881C19.2526 21.4341 19.1342 20.7848 19.064 20.1307C19.2234 19.8783 19.4167 19.6463 19.6147 19.423C19.7141 19.2629 19.8111 19.098 19.95 18.9678C20.1709 18.7769 20.3784 18.5709 20.5757 18.3548C20.522 18.3706 20.4155 18.4029 20.3626 18.4187C20.3768 18.3761 20.406 18.2917 20.421 18.2498C20.9488 17.412 21.4269 16.541 21.8388 15.6392C22.2033 14.8431 22.6238 14.051 23.2542 13.4309C23.4546 13.2265 23.692 13.0182 23.7433 12.7216C23.696 12.4715 23.4696 12.3113 23.255 12.2096C22.8912 12.0478 22.4502 12.0155 22.0881 12.1977C21.6534 12.4163 21.2826 12.7532 21.0135 13.1571C20.6482 13.7015 20.4139 14.3263 20.0084 14.8455C19.7472 15.1784 19.3275 15.3118 18.9449 15.4498C18.5173 15.5981 18.1141 15.8072 17.7109 16.0116C17.7725 15.92 17.8245 15.8151 17.9255 15.7599C18.4936 15.3922 19.1752 15.2147 19.6825 14.75C19.6194 14.3082 19.5642 13.8656 19.5342 13.4206L19.5291 13.3003C19.5539 13.2756 19.593 13.1445 19.6178 13.182C19.7488 13.0676 19.8052 13.0518 19.9433 12.9453C19.9827 13.2285 19.9106 13.6534 20.0447 13.9177C20.4257 13.1121 20.9528 12.3248 21.7559 11.8916Z" fill="black"/>
<path d="M12.2812 14.6604C12.37 14.4829 12.4883 14.3941 12.6658 14.335C13.0264 15.8237 13.1199 17.4498 12.7696 18.948C13.0994 19.6399 13.4434 20.3263 13.7282 21.0388C13.8915 21.4356 13.9341 21.8664 13.9633 22.2908C13.785 22.5117 13.6083 22.7342 13.4095 22.9378C13.3732 22.3863 13.3219 21.8222 13.0844 21.3149C12.884 20.8778 12.7104 20.4257 12.469 20.0084C12.3688 20.2727 12.2986 20.5535 12.1369 20.7894C12.0162 20.8305 11.9128 20.9259 11.886 21.0545C11.7834 21.0735 11.6438 21.3062 11.5625 21.1745C11.6706 20.8171 11.8505 20.4849 11.9728 20.1322C12.6284 18.4202 12.7073 16.4427 12.2812 14.6604Z" fill="black"/>
<path d="M4.47897 16.3105C4.59652 16.4076 4.70856 16.5102 4.81822 16.6159C4.88607 16.5962 4.95471 16.5772 5.02335 16.5583C5.67266 17.9279 6.03164 19.4356 6.03401 20.9536C5.93302 21.0167 5.82572 21.0956 5.81468 21.2266C5.70896 21.3047 5.60324 21.382 5.49594 21.4577C5.66477 19.7291 5.31053 17.9547 4.47266 16.432L4.47897 16.3105Z" fill="black"/>
<path d="M11.872 20.9745C11.9209 20.8688 12.0267 20.7962 12.1411 20.7852C12.1639 20.8917 12.1048 20.9911 12.0708 21.0881C11.7458 21.9007 11.6353 22.7781 11.5493 23.642C11.3568 23.7572 11.1667 23.8747 10.9766 23.9923C11.0657 23.0621 11.2393 22.0471 11.5683 21.1698C11.5912 21.154 11.6267 21.208 11.6503 21.193C11.7348 21.1307 11.8034 21.0526 11.872 20.9745Z" fill="black"/>
<path d="M5.5068 21.4356C5.68905 21.3164 5.86183 21.0214 6.03934 20.9326C6.04881 21.6419 5.87721 22.5819 5.7139 23.2699C5.61449 23.1902 5.50127 23.1851 5.44763 23.0628L5.38845 23.1812C5.34427 23.1693 5.25512 22.8675 5.21094 22.8557C5.27642 22.3973 5.45315 21.8963 5.5068 21.4356Z" fill="black"/>
<path d="M5.21581 22.8379C5.40832 22.9428 5.56217 23.0943 5.69944 23.2624C5.61739 23.5306 5.51404 23.791 5.41226 24.0521C5.20635 24.0411 5.00122 24.0198 4.79688 23.9921C4.96729 23.6197 5.1093 23.2339 5.21581 22.8379Z" fill="black"/>
<path d="M17.7734 3.19727C17.932 3.22488 18.0788 3.29273 18.2074 3.38977C18.1608 3.41344 18.0693 3.45999 18.0235 3.48287C17.9407 3.38741 17.8586 3.29036 17.7734 3.19727Z" fill="black"/>
<path d="M17.3906 3.2041C17.606 3.28458 17.7464 3.47077 17.8774 3.64986C17.7883 3.62146 17.6991 3.59148 17.6115 3.5615L17.5918 3.526C17.5303 3.41554 17.4585 3.31061 17.3906 3.2041Z" fill="black"/>
<path d="M16.125 4.73974C16.1353 4.5993 16.1566 4.45887 16.2165 4.33105L16.2378 4.4281C16.2994 4.43678 16.4232 4.45334 16.4848 4.46123C16.4674 4.61429 16.4406 4.76656 16.3996 4.91488C16.3072 4.8565 16.2165 4.79812 16.125 4.73974ZM16.3222 4.60561C16.1968 4.84151 16.5826 4.62139 16.3222 4.60561V4.60561Z" fill="black"/>
<path d="M5.03125 4.73873C5.36103 4.42236 5.87228 4.36555 6.29674 4.50599C6.25414 4.50362 6.16972 4.49889 6.12711 4.49652C6.12238 4.63301 6.11922 4.77029 6.11528 4.90678L6.05137 4.88469C5.98431 4.86181 5.91646 4.83893 5.85019 4.81526C5.83678 4.70323 5.82415 4.59198 5.81153 4.47995C5.76104 4.48942 5.65847 4.50914 5.60719 4.51861C5.58589 4.66772 5.56222 4.81763 5.52987 4.96516L5.52593 4.98567C5.44466 5.03775 5.36577 5.09218 5.28924 5.14899C5.27504 4.98015 5.26241 4.81053 5.24979 4.64169C5.17642 4.67325 5.10383 4.70559 5.03125 4.73873Z" fill="black"/>
<path d="M5.60857 4.51913C5.65985 4.50966 5.76242 4.48994 5.81291 4.48047C5.82553 4.5925 5.83816 4.70374 5.85157 4.81578C5.91784 4.83945 5.98569 4.86233 6.05275 4.88521C5.86892 4.84023 5.7064 4.93491 5.53125 4.96568C5.5636 4.81814 5.58727 4.66824 5.60857 4.51913Z" fill="black"/>
<path d="M19.6484 7.47124C19.7123 7.40024 19.7763 7.32923 19.8378 7.25586C19.837 7.39945 19.8402 7.54225 19.8512 7.68505C19.7841 7.61247 19.7163 7.54225 19.6484 7.47124Z" fill="black"/>
<path d="M16.3188 4.60547C16.5792 4.62125 16.1934 4.84137 16.3188 4.60547V4.60547Z" fill="black"/>
<path d="M5.02955 4.73962C5.10213 4.70648 5.17472 4.67414 5.24809 4.64258C5.26071 4.81142 5.27334 4.98104 5.28754 5.14988L5.2331 5.21773C5.03665 5.50333 4.66978 5.70767 4.32422 5.56724C4.46308 5.50176 4.61061 5.45521 4.74789 5.38578C4.82915 5.16566 4.88359 4.92976 5.02955 4.73962Z" fill="black"/>
<path d="M16.1255 4.74023C16.2171 4.79862 16.3078 4.857 16.4001 4.91538C16.3819 5.02584 16.3532 5.17179 16.3366 5.28224C16.2687 5.24595 16.1382 5.17061 16.0703 5.13431C16.0861 5.0136 16.1082 4.86016 16.1255 4.74023Z" fill="black"/>
<path d="M4.32538 5.56728C4.67094 5.70772 5.03781 5.50338 5.23426 5.21777C5.22006 5.38345 5.2169 5.54914 5.23268 5.71482C5.14432 5.77557 5.05595 5.83632 4.96759 5.89786C4.94708 5.87182 4.90605 5.81975 4.88554 5.79371C4.75536 5.84421 4.62755 5.9018 4.51631 5.98701L4.49027 5.98306C4.34195 5.96018 4.19441 5.93415 4.04688 5.9089C4.12893 5.78661 4.22045 5.67143 4.32538 5.56728Z" fill="black"/>
<path d="M4.96875 5.89691C5.05711 5.83537 5.14548 5.77462 5.23384 5.71387C5.83897 8.12414 6.28316 10.5731 6.67842 13.0259C6.72813 13.2216 6.64766 13.4117 6.57034 13.5885C6.15535 11.0015 5.59913 8.43893 4.96875 5.89691Z" fill="black"/>
<path d="M17.676 5.70703C17.7817 5.77883 17.8922 5.8451 18.0089 5.89796C17.5679 7.68495 17.9174 9.55558 17.5229 11.3481C17.4638 11.4033 17.4014 11.4554 17.3359 11.5043C17.4653 10.4416 17.4267 9.36938 17.4574 8.30113C17.4732 7.43406 17.4748 6.55595 17.676 5.70703Z" fill="black"/>
<path d="M4.01677 6.49913C3.97969 6.3011 4.01046 6.10229 4.04754 5.9082C4.19508 5.93345 4.34261 5.95949 4.49093 5.98236C4.45228 6.11649 4.40099 6.25456 4.43334 6.39578C4.60139 7.71571 4.83019 9.02696 5.01954 10.3437C5.02033 10.4171 5.02269 10.5646 5.02427 10.6388C4.87121 10.4944 4.715 10.3532 4.57299 10.1986C4.37969 8.96621 4.18245 7.73543 4.01677 6.49913Z" fill="black"/>
<path d="M14.1819 6.97559C14.2907 6.97874 14.3996 6.98269 14.5093 6.98584C14.2773 8.44542 14.1014 9.91367 13.9318 11.3811C13.8978 11.617 13.7621 11.8206 13.6406 12.0194C13.8071 10.3366 13.9799 8.65449 14.1819 6.97559Z" fill="black"/>
<path d="M19.4872 7.37037C19.6047 7.28753 19.7231 7.20626 19.8422 7.125C19.8406 7.15735 19.8367 7.22283 19.8351 7.25518C19.7736 7.32855 19.7097 7.39956 19.6458 7.47056C19.7136 7.54157 19.7815 7.61179 19.8485 7.68437C19.8604 7.70883 19.8825 7.75853 19.8943 7.78299C19.9692 9.51002 19.8919 11.2434 19.9385 12.972C19.7988 13.0872 19.6694 13.2134 19.5274 13.3246C19.4643 12.0457 19.5235 10.7645 19.5053 9.48478C19.4943 8.78024 19.4777 8.07491 19.4872 7.37037Z" fill="black"/>
<path d="M4.57031 10.1992C4.71233 10.3539 4.86854 10.4951 5.0216 10.6395C5.02002 10.5653 5.01765 10.4178 5.01686 10.3444C5.05631 10.4817 5.07998 10.6229 5.09497 10.7657C4.95769 10.6679 4.8212 10.57 4.68392 10.4738C4.6784 10.5456 4.66657 10.6892 4.66104 10.7617C4.62081 10.5756 4.59004 10.3878 4.57031 10.1992Z" fill="black"/>
<path d="M5.58115 14.1465C5.66399 14.5331 5.6774 14.9299 5.72947 15.3212C5.6845 15.3844 5.63953 15.4467 5.59377 15.509C5.5133 15.1595 5.42336 14.8124 5.35156 14.4613C5.42888 14.4976 5.50699 14.5331 5.58588 14.567C5.58588 14.4266 5.58588 14.2861 5.58115 14.1465Z" fill="black"/>
<path d="M4.38281 16.2344C4.58163 16.2336 4.74652 16.3401 4.90195 16.4513L4.91378 16.3795L4.91931 16.3433C4.9556 16.4143 4.9911 16.4861 5.02581 16.5586C4.95717 16.5776 4.88854 16.5965 4.82069 16.6162C4.71102 16.5105 4.59899 16.4079 4.48143 16.3109L4.47512 16.4324C4.45224 16.3827 4.40569 16.2833 4.38281 16.2344Z" fill="black"/>
<path d="M19.9492 18.967C20.0691 18.7058 20.2443 18.4747 20.4202 18.249C20.4052 18.2908 20.376 18.3753 20.3618 18.4179C20.4147 18.4021 20.5212 18.3697 20.5749 18.354C20.3776 18.5701 20.1701 18.776 19.9492 18.967Z" fill="black"/>
</svg>
