<svg width="25" height="25" viewBox="0 0 25 25" fill="none" xmlns="http://www.w3.org/2000/svg">
<path d="M19.2171 19.9947L19.5503 21.9942C18.4839 21.1944 15.3291 21.772 13.885 22.3274L12.552 18.9949C13.3518 17.3953 12.6631 14.5515 12.2188 13.3296C12.4409 12.1077 12.8853 9.46389 12.8853 8.66408C12.8853 7.66432 13.2185 6.99781 13.5518 6.66456C13.8184 6.39796 14.4404 6.55348 14.5515 6.66456C14.5515 6.10914 14.6848 4.86499 15.218 4.33179C15.6437 3.90616 16.2392 3.9477 16.2926 4.3208C16.4658 3.87217 16.9273 3.33203 17.5508 3.33203C18.3506 3.33203 18.2173 4.44287 18.2173 4.9983H18.5506C19.3504 4.9983 19.5503 5.6648 19.5503 5.99805V11.9966C19.5503 12.7964 19.7725 14.3294 19.8836 14.9959C20.2168 14.1072 21.1499 12.2632 22.2163 11.9966C23.2827 11.73 23.7715 12.2188 23.8826 12.6631C23.5493 13.3296 21.8164 15.2625 21.5498 16.3289C21.2832 17.3953 19.8836 19.2171 19.2171 19.9947Z" fill="white"/>
<path d="M11.8866 20.6622C11.62 21.462 11.3312 22.995 11.2201 23.6615L5.22143 23.9947L5.88794 21.3287C6.55444 18.6627 4.8532 16.2596 4.55523 15.6634C4.22212 14.9969 0.889288 12.6641 2.55555 12.3309C3.48922 12.0975 4.74981 12.845 5.30683 13.8864C4.84344 11.1582 4.22181 7.33449 4.22181 6.66556C4.22181 5.86576 4.66615 5.66581 4.88832 5.66581C4.88832 5.44364 5.02162 4.93265 5.55483 4.66605C6.08803 4.39944 6.66567 4.9993 6.88784 5.33255H7.22109C8.0209 5.33255 8.66519 6.88773 8.88735 7.66532C9.15396 7.39872 9.88711 7.99858 10.2204 8.33183C10.8869 9.99809 12.2865 13.6639 12.5531 14.9969C12.8864 16.6632 12.2199 19.6624 11.8866 20.6622Z" fill="white"/>
<path d="M14.9506 0C15.0342 0.327418 15.0752 0.671405 15.0839 1.0075C14.508 2.07575 13.9462 3.15663 13.334 4.20515C13.4279 3.82961 13.4768 3.44302 13.5983 3.07536C14.0472 2.04972 14.5032 1.02723 14.9506 0Z" fill="white"/>
<path d="M7.80463 0.369141C8.3711 1.58335 8.89418 2.81886 9.43462 4.0449C9.57269 4.48278 9.64133 4.94037 9.73679 5.38929C9.08274 4.2027 8.44526 3.00663 7.79201 1.82004C7.73205 1.70169 7.64526 1.58256 7.67051 1.44291C7.70364 1.08394 7.7565 0.726539 7.80463 0.369141Z" fill="white"/>
<path d="M12.7933 0.65918C12.8982 0.944783 12.985 1.23828 13.0544 1.53492C12.9834 1.89232 12.8162 2.22605 12.701 2.57162C12.6693 2.66661 12.6659 2.64933 12.6355 2.73335C12.4935 3.17675 12.3475 3.62172 12.1621 4.04855C12.1937 3.65328 12.1708 3.25012 12.2663 2.86274C12.4406 2.12822 12.6213 1.39449 12.7933 0.65918Z" fill="white"/>
<path d="M10.3549 1.17554C10.5545 1.79803 10.6689 2.44497 10.8338 3.07693C10.9159 3.45721 11.0421 3.83039 11.0705 4.22013L11.0685 4.21697C11.07 4.21417 11.0681 4.19033 11.0792 4.23512C11.0886 4.56175 11.0957 4.88917 11.132 5.21501C10.7533 4.22644 10.4133 3.22289 10.0527 2.22722C10.1592 1.8785 10.2563 1.52662 10.3549 1.17554Z" fill="white"/>
<path d="M16.2783 3.79486C16.5307 3.25205 17.2242 2.97749 17.7757 3.19683C17.8609 3.28992 17.943 3.38696 18.0258 3.48243C18.0716 3.45955 18.1631 3.413 18.2097 3.38933C18.5615 3.71754 18.6199 4.20985 18.5844 4.66508C19.259 4.68165 19.9083 5.2355 19.9209 5.92978C19.9106 6.54754 19.9178 7.16608 19.8957 7.78305C19.8838 7.75859 19.8617 7.70888 19.8499 7.68443C19.8389 7.54163 19.8357 7.39882 19.8365 7.25523C19.8381 7.22289 19.842 7.1574 19.8436 7.12505C19.7245 7.20632 19.6061 7.28758 19.4886 7.37042C19.4633 6.83866 19.5193 6.30533 19.4846 5.77514C19.4341 5.29546 18.8889 5.00907 18.4503 5.12504C18.1876 5.27337 18.1213 5.64299 18.0211 5.90335C17.9915 5.9921 17.7422 5.8923 17.6661 5.69624C17.7607 5.39486 17.9067 5.0493 18.145 4.83313C18.1742 4.44259 18.2175 3.99131 17.9091 3.69308C17.7781 3.51399 17.6377 3.32779 17.4223 3.24732C17.4901 3.35383 17.5636 3.41616 17.6252 3.52661C17.424 3.42788 17.3632 3.49963 17.244 3.52661C16.8014 3.62681 16.5734 4.05206 16.4834 4.46153C16.4219 4.45364 16.298 4.43707 16.2365 4.42839L16.2152 4.33135C16.2089 4.29979 16.1978 4.23746 16.1923 4.20669C15.7954 4.14989 15.3954 4.30926 15.1445 4.61932C14.6578 5.14556 14.6649 5.92504 14.5299 6.58382C14.4329 6.49073 14.3583 6.44181 14.2637 6.34714C14.337 5.6497 14.3816 4.80946 14.8653 4.25166C15.2029 3.84377 15.7678 3.68835 16.2783 3.79486Z" fill="black"/>
<path d="M6.12707 4.49707C6.16967 4.49944 6.25409 4.50417 6.2967 4.50654C6.61149 4.60279 6.8679 4.83553 7.00597 5.13297C7.41307 5.07696 7.85647 5.19372 8.12708 5.51719C8.58626 6.04501 8.73379 6.7527 8.93261 7.40439C9.27896 7.35153 9.65293 7.41859 9.91171 7.67026C10.464 8.19571 10.6699 8.95627 10.9381 9.64503C10.9807 9.78389 10.98 9.80874 11.0391 9.98625C11.0814 10.1131 11.1176 10.1518 11.1559 10.2738C11.3926 11.0281 11.7105 11.7516 12.0182 12.4782C12.277 11.1898 12.4435 9.88408 12.5879 8.57836C12.5965 8.46238 12.6072 8.47737 12.6447 8.25488C12.6975 7.74285 12.8403 7.21898 13.1504 6.80004C13.3579 6.52233 13.6782 6.3314 14.0238 6.29432C14.2486 6.22016 14.378 6.46316 14.539 6.57203C14.5334 6.69274 14.5303 6.85014 14.5007 6.99807C14.4257 6.99807 14.2502 6.99807 14.1752 6.99807C14.1784 6.85053 14.2127 6.82016 14.2048 6.67262C14.1752 6.70221 14.2048 6.67262 14.1358 6.69353C13.8731 6.71326 13.6064 6.81109 13.447 7.032C13.2277 7.3105 13.1559 7.66711 13.0817 8.00478C13.0689 8.06316 13.0806 8.00399 13.0455 8.13733C12.924 9.83675 12.621 11.5157 12.3488 13.1953C12.4001 13.5867 12.5989 13.948 12.6612 14.3409C12.5184 14.4277 12.4025 14.5476 12.281 14.6589C12.1153 13.6853 11.6932 12.778 11.2979 11.8794C10.8632 10.8656 10.5839 9.79256 10.1445 8.78033C9.99376 8.45765 9.82729 8.10735 9.50539 7.9251C9.22137 7.76336 8.74563 7.86829 8.67304 8.22175C8.63202 8.46869 8.72275 8.71169 8.79139 8.94443C9.13695 10.0024 9.42729 11.0794 9.62453 12.1744C9.64898 12.3835 9.60086 12.5918 9.57088 12.7977C9.37364 11.6143 8.94523 10.4876 8.63675 9.3326C8.54681 8.95785 8.34641 8.60124 8.36377 8.20833C8.44091 8.21878 8.5618 8.23516 8.36377 8.20833C8.37541 7.94482 8.47265 7.75311 8.5618 7.63476C8.40401 7.0959 8.29119 6.5318 7.99533 6.04659C7.84385 5.79885 7.60558 5.56532 7.30025 5.54796C7.06277 5.53218 6.75587 5.58347 6.65725 5.83436C6.55784 6.12312 6.64305 6.43475 6.71879 6.71878C6.9681 7.58032 7.15666 8.45686 7.39177 9.32156C7.68684 10.408 7.91485 11.5149 8.02294 12.636C8.04503 12.8285 8.00716 13.021 7.98034 13.2119C7.93852 13.0502 7.90459 12.8861 7.88014 12.7212C7.70578 11.5385 7.39572 10.3811 7.05804 9.23635C6.82688 8.3464 6.62254 7.44857 6.36376 6.56572C6.23279 6.13732 6.19097 5.57952 6.61859 5.30339C6.4892 5.12666 6.31957 4.98701 6.11523 4.90733C6.11918 4.77084 6.12234 4.63356 6.12707 4.49707Z" fill="black"/>
<path d="M16.056 5.13086C16.1522 5.17662 16.2493 5.22317 16.3471 5.26893C16.1443 6.50602 16.1072 7.76125 15.9952 9.00781C15.925 9.72024 15.8106 10.4271 15.7041 11.1341C15.6749 11.3187 15.5439 11.4623 15.4453 11.6145C15.7467 9.46225 15.7443 7.28156 16.056 5.13086Z" fill="black"/>
<path d="M4.68599 10.4734C4.82327 10.5696 4.95976 10.6675 5.09704 10.7653C5.25957 11.8919 5.4505 13.0154 5.58067 14.1468C5.58541 14.2864 5.58541 14.4269 5.58541 14.5673C5.50651 14.5334 5.42841 14.4979 5.35109 14.4616C5.28797 14.2675 5.27929 14.0395 5.11124 13.8991C4.51952 13.2884 3.88819 12.6636 3.04259 12.3882C2.96648 12.3634 2.91892 12.359 2.83904 12.3642C2.64053 12.3769 2.53959 12.4491 2.39959 12.6217C2.29648 12.7488 2.23269 12.8335 2.22193 12.9968C2.20188 13.301 2.51083 13.4399 2.69782 13.6261C3.49467 14.4908 4.40749 15.2947 4.91164 16.3795L4.8998 16.4513C4.74438 16.3401 4.57948 16.2336 4.38067 16.2344L4.34911 16.2296C3.95542 15.5156 3.33293 14.9744 2.83904 14.3361C2.54002 13.9645 2.19288 13.6237 1.97907 13.1906C2.01063 13.1795 2.07217 13.1574 2.10294 13.1472C2.06349 13.1535 2.01852 13.1843 1.97907 13.1906C1.92937 12.9555 1.82838 12.662 1.99643 12.4553C2.31833 12.0718 2.87691 11.9219 3.35502 12.0576C4.01696 12.2351 4.5353 12.7211 5.01578 13.1858C4.90217 12.3771 4.78461 11.5685 4.66311 10.7614C4.66864 10.6888 4.68047 10.5452 4.68599 10.4734Z" fill="black"/>
<path d="M21.7569 11.8916C22.34 11.5287 23.1226 11.591 23.6867 11.9626C23.9597 12.1425 24.1845 12.4486 24.1593 12.7895C24.1096 13.18 23.8153 13.4695 23.5613 13.7449C22.9072 14.38 22.5072 15.2147 22.1277 16.0297C21.4326 17.5224 20.6437 18.9804 19.6283 20.2822C19.7648 21.0057 19.8863 21.7331 20.0244 22.4566C19.794 22.3374 19.566 22.2128 19.3388 22.0881C19.2535 21.4341 19.1352 20.7848 19.065 20.1307C19.2244 19.8783 19.4176 19.6463 19.6157 19.423C19.7151 19.2629 19.8121 19.098 19.951 18.9678C20.1719 18.7769 20.3794 18.5709 20.5766 18.3548C20.523 18.3706 20.4165 18.4029 20.3636 18.4187C20.3778 18.3761 20.407 18.2917 20.422 18.2498C20.9498 17.412 21.4279 16.541 21.8398 15.6392C22.2043 14.8431 22.6248 14.051 23.2551 13.4309C23.4555 13.2265 23.693 13.0182 23.7443 12.7216C23.697 12.4715 23.4705 12.3113 23.2559 12.2096C22.8922 12.0478 22.4512 12.0155 22.0891 12.1977C21.6543 12.4163 21.2835 12.7532 21.0145 13.1571C20.6492 13.7015 20.4149 14.3263 20.0094 14.8455C19.7482 15.1784 19.3285 15.3118 18.9458 15.4498C18.5182 15.5981 18.1151 15.8072 17.7119 16.0116C17.7735 15.92 17.8255 15.8151 17.9265 15.7599C18.4946 15.3922 19.1762 15.2147 19.6835 14.75C19.6204 14.3082 19.5652 13.8656 19.5352 13.4206L19.5301 13.3003C19.5549 13.2756 19.594 13.1445 19.6188 13.182C19.7498 13.0676 19.8062 13.0518 19.9443 12.9453C19.9837 13.2285 19.9115 13.6534 20.0457 13.9177C20.4267 13.1121 20.9538 12.3248 21.7569 11.8916Z" fill="black"/>
<path d="M12.2812 14.6604C12.37 14.4829 12.4883 14.3941 12.6658 14.335C13.0264 15.8237 13.1199 17.4498 12.7696 18.948C13.0994 19.6399 13.4434 20.3263 13.7282 21.0388C13.8915 21.4356 13.9341 21.8664 13.9633 22.2908C13.785 22.5117 13.6083 22.7342 13.4095 22.9378C13.3732 22.3863 13.3219 21.8222 13.0844 21.3149C12.884 20.8778 12.7104 20.4257 12.469 20.0084C12.3688 20.2727 12.2986 20.5535 12.1369 20.7894C12.0162 20.8305 11.9128 20.9259 11.886 21.0545C11.7834 21.0735 11.6438 21.3062 11.5625 21.1745C11.6706 20.8171 11.8505 20.4849 11.9728 20.1322C12.6284 18.4202 12.7073 16.4427 12.2812 14.6604Z" fill="black"/>
<path d="M4.47994 16.3105C4.5975 16.4076 4.70953 16.5102 4.8192 16.6159C4.88705 16.5962 4.95569 16.5772 5.02433 16.5583C5.67364 17.9279 6.03262 19.4356 6.03498 20.9536C5.934 21.0167 5.8267 21.0956 5.81565 21.2266C5.70993 21.3047 5.60421 21.382 5.49691 21.4577C5.66575 19.7291 5.31151 17.9547 4.47363 16.432L4.47994 16.3105Z" fill="black"/>
<path d="M11.875 20.9745C11.9239 20.8688 12.0296 20.7962 12.144 20.7852C12.1669 20.8917 12.1077 20.9911 12.0738 21.0881C11.7487 21.9007 11.6383 22.7781 11.5523 23.642C11.3598 23.7572 11.1696 23.8747 10.9795 23.9923C11.0686 23.0621 11.2422 22.0471 11.5712 21.1698C11.5941 21.154 11.6296 21.208 11.6533 21.193C11.7377 21.1307 11.8063 21.0526 11.875 20.9745Z" fill="black"/>
<path d="M5.50582 21.4356C5.68807 21.3164 5.86085 21.0214 6.03837 20.9326C6.04784 21.6419 5.87624 22.5819 5.71292 23.2699C5.61351 23.1902 5.5003 23.1851 5.44665 23.0628L5.38748 23.1812C5.3433 23.1693 5.25414 22.8675 5.20996 22.8557C5.27544 22.3973 5.45217 21.8963 5.50582 21.4356Z" fill="black"/>
<path d="M5.21777 22.8379C5.41027 22.9428 5.56412 23.0943 5.7014 23.2624C5.61935 23.5306 5.51599 23.791 5.41422 24.0521C5.2083 24.0411 5.00317 24.0198 4.79883 23.9921C4.96924 23.6197 5.11126 23.2339 5.21777 22.8379Z" fill="black"/>
<path d="M17.7754 3.19727C17.934 3.22488 18.0807 3.29273 18.2093 3.38977C18.1628 3.41344 18.0712 3.45999 18.0255 3.48287C17.9426 3.38741 17.8606 3.29036 17.7754 3.19727Z" fill="black"/>
<path d="M17.3896 3.2041C17.605 3.28458 17.7455 3.47077 17.8764 3.64986C17.7873 3.62146 17.6981 3.59148 17.6106 3.5615L17.5908 3.526C17.5293 3.41554 17.4575 3.31061 17.3896 3.2041Z" fill="black"/>
<path d="M16.124 4.73974C16.1343 4.5993 16.1556 4.45887 16.2155 4.33105L16.2368 4.4281C16.2984 4.43678 16.4222 4.45334 16.4838 4.46123C16.4664 4.61429 16.4396 4.76656 16.3986 4.91488C16.3063 4.8565 16.2155 4.79812 16.124 4.73974ZM16.3213 4.60561C16.1958 4.84151 16.5816 4.62139 16.3213 4.60561V4.60561Z" fill="black"/>
<path d="M5.03125 4.73873C5.36103 4.42236 5.87228 4.36555 6.29674 4.50599C6.25414 4.50362 6.16972 4.49889 6.12711 4.49652C6.12238 4.63301 6.11922 4.77029 6.11528 4.90678L6.05137 4.88469C5.98431 4.86181 5.91646 4.83893 5.85019 4.81526C5.83678 4.70323 5.82415 4.59198 5.81153 4.47995C5.76104 4.48942 5.65847 4.50914 5.60719 4.51861C5.58589 4.66772 5.56222 4.81763 5.52987 4.96516L5.52593 4.98567C5.44466 5.03775 5.36577 5.09218 5.28924 5.14899C5.27504 4.98015 5.26241 4.81053 5.24979 4.64169C5.17642 4.67325 5.10383 4.70559 5.03125 4.73873Z" fill="black"/>
<path d="M5.60661 4.51913C5.6579 4.50966 5.76046 4.48994 5.81096 4.48047C5.82358 4.5925 5.8362 4.70374 5.84961 4.81578C5.91589 4.83945 5.98374 4.86233 6.0508 4.88521C5.86697 4.84023 5.70445 4.93491 5.5293 4.96568C5.56164 4.81814 5.58531 4.66824 5.60661 4.51913Z" fill="black"/>
<path d="M19.6465 7.47124C19.7104 7.40024 19.7743 7.32923 19.8358 7.25586C19.835 7.39945 19.8382 7.54225 19.8492 7.68505C19.7822 7.61247 19.7143 7.54225 19.6465 7.47124Z" fill="black"/>
<path d="M16.3208 4.60547C16.5811 4.62125 16.1953 4.84137 16.3208 4.60547V4.60547Z" fill="black"/>
<path d="M5.0315 4.73962C5.10409 4.70648 5.17667 4.67414 5.25004 4.64258C5.26267 4.81142 5.27529 4.98104 5.28949 5.14988L5.23505 5.21773C5.0386 5.50333 4.67174 5.70767 4.32617 5.56724C4.46503 5.50176 4.61256 5.45521 4.74984 5.38578C4.83111 5.16566 4.88554 4.92976 5.0315 4.73962Z" fill="black"/>
<path d="M16.1236 4.73999C16.2151 4.79837 16.3058 4.85676 16.3981 4.91514C16.38 5.02559 16.3512 5.17155 16.3346 5.282C16.2668 5.24571 16.1362 5.17036 16.0684 5.13407C16.0841 5.01336 16.1062 4.85991 16.1236 4.73999Z" fill="black"/>
<path d="M4.32538 5.56728C4.67094 5.70772 5.03781 5.50338 5.23426 5.21777C5.22006 5.38345 5.2169 5.54914 5.23268 5.71482C5.14432 5.77557 5.05595 5.83632 4.96759 5.89786C4.94708 5.87182 4.90605 5.81975 4.88554 5.79371C4.75536 5.84421 4.62755 5.9018 4.51631 5.98701L4.49027 5.98306C4.34195 5.96018 4.19441 5.93415 4.04688 5.9089C4.12893 5.78661 4.22045 5.67143 4.32538 5.56728Z" fill="black"/>
<path d="M4.96777 5.89715C5.05614 5.83561 5.1445 5.77486 5.23286 5.71411C5.838 8.12438 6.28218 10.5733 6.67745 13.0262C6.72715 13.2218 6.64668 13.412 6.56936 13.5887C6.15437 11.0017 5.59815 8.43918 4.96777 5.89715Z" fill="black"/>
<path d="M17.673 5.70728C17.7788 5.77907 17.8892 5.84534 18.006 5.8982C17.565 7.6852 17.9145 9.55582 17.52 11.3483C17.4608 11.4036 17.3985 11.4556 17.333 11.5045C17.4624 10.4418 17.4237 9.36963 17.4545 8.30137C17.4703 7.43431 17.4719 6.5562 17.673 5.70728Z" fill="black"/>
<path d="M4.01677 6.49938C3.97969 6.30135 4.01046 6.10253 4.04754 5.90845C4.19508 5.93369 4.34261 5.95973 4.49093 5.98261C4.45228 6.11673 4.40099 6.2548 4.43334 6.39602C4.60139 7.71595 4.83019 9.0272 5.01954 10.344C5.02033 10.4174 5.02269 10.5649 5.02427 10.639C4.87121 10.4947 4.715 10.3534 4.57299 10.1988C4.37969 8.96645 4.18245 7.73568 4.01677 6.49938Z" fill="black"/>
<path d="M14.1809 6.97583C14.2898 6.97899 14.3986 6.98293 14.5083 6.98609C14.2763 8.44566 14.1004 9.91391 13.9308 11.3814C13.8968 11.6173 13.7611 11.8208 13.6396 12.0196C13.8061 10.3368 13.9789 8.65474 14.1809 6.97583Z" fill="black"/>
<path d="M19.4891 7.37061C19.6067 7.28777 19.725 7.20651 19.8442 7.12524C19.8426 7.15759 19.8387 7.22308 19.8371 7.25542C19.7755 7.3288 19.7116 7.3998 19.6477 7.47081C19.7156 7.54181 19.7834 7.61203 19.8505 7.68462C19.8623 7.70907 19.8844 7.75878 19.8962 7.78324C19.9712 9.51027 19.8939 11.2436 19.9404 12.9722C19.8008 13.0874 19.6714 13.2136 19.5294 13.3249C19.4663 12.046 19.5254 10.7647 19.5073 9.48502C19.4962 8.78048 19.4797 8.07515 19.4891 7.37061Z" fill="black"/>
<path d="M4.57227 10.1992C4.71428 10.3539 4.87049 10.4951 5.02355 10.6395C5.02197 10.5653 5.01961 10.4178 5.01882 10.3444C5.05826 10.4817 5.08193 10.6229 5.09692 10.7657C4.95965 10.6679 4.82315 10.57 4.68588 10.4738C4.68035 10.5456 4.66852 10.6892 4.663 10.7617C4.62276 10.5756 4.59199 10.3878 4.57227 10.1992Z" fill="black"/>
<path d="M5.58115 14.1465C5.66399 14.5331 5.6774 14.9299 5.72947 15.3212C5.6845 15.3844 5.63953 15.4467 5.59377 15.509C5.5133 15.1595 5.42336 14.8124 5.35156 14.4613C5.42888 14.4976 5.50699 14.5331 5.58588 14.567C5.58588 14.4266 5.58588 14.2861 5.58115 14.1465Z" fill="black"/>
<path d="M4.38086 16.2344C4.57968 16.2336 4.74457 16.3401 4.89999 16.4513L4.91183 16.3795L4.91735 16.3433C4.95364 16.4143 4.98915 16.4861 5.02386 16.5586C4.95522 16.5776 4.88658 16.5965 4.81873 16.6162C4.70907 16.5105 4.59703 16.4079 4.47948 16.3109L4.47317 16.4324C4.45029 16.3827 4.40374 16.2833 4.38086 16.2344Z" fill="black"/>
<path d="M19.9502 18.967C20.0701 18.7058 20.2453 18.4747 20.4212 18.249C20.4062 18.2908 20.377 18.3753 20.3628 18.4179C20.4157 18.4021 20.5222 18.3697 20.5758 18.354C20.3786 18.5701 20.1711 18.776 19.9502 18.967Z" fill="black"/>
</svg>
