<svg width="112" height="30" viewBox="0 0 112 30" fill="none" xmlns="http://www.w3.org/2000/svg">
<g clip-path="url(#clip0_2031_24456)">
<path d="M10.7822 2.7953H13.2357C14.7299 2.57019 16.2558 2.76811 17.6477 3.36757C19.3939 4.44202 20.6605 6.17177 21.1773 8.18782C21.5431 9.24431 21.5431 9.24431 22.4255 8.87014H23.1142V0.506236H0.0212475V1.98092H0.968211C1.37972 1.97801 1.78664 2.06942 2.15908 2.24844C2.53151 2.42745 2.86 2.68953 3.1204 3.01541C4.0028 4.46809 4.15345 6.09685 4.15345 14.5708C4.15345 23.573 3.95976 25.774 3.1204 26.8966C2.91319 27.1851 2.64491 27.4221 2.3356 27.5898C2.02628 27.7575 1.68393 27.8516 1.33408 27.865C0.0212476 28.1071 0.0212475 28.0851 0.0212475 28.6794C-0.0513533 28.8781 -0.0513533 29.097 0.0212475 29.2957H14.5916C14.688 29.1013 14.7382 28.8864 14.7382 28.6684C14.7382 28.4504 14.688 28.2355 14.5916 28.0411C14.2387 27.9407 13.879 27.8671 13.5155 27.821C13.1222 27.7732 12.7335 27.6922 12.3533 27.5789C11.8088 27.1724 11.3775 26.6276 11.102 25.9984C10.8264 25.3692 10.7162 24.6773 10.7822 23.9912C10.567 22.5385 10.4594 19.8753 10.4594 17.6742V15.9354H11.3202C12.3928 15.9019 13.4647 16.0204 14.5055 16.2876C15.0041 16.6027 15.4285 17.0265 15.7484 17.5287C16.0684 18.0309 16.276 18.5992 16.3564 19.193L16.5501 19.8753H17.8629V10.1247H16.6577L16.464 11.0712C16.3825 11.6784 16.1628 12.2575 15.8227 12.7621C15.4825 13.2667 15.0314 13.6827 14.5055 13.9765C13.9962 14.1315 13.4596 14.1691 12.9344 14.0866H10.4594V11.7095C10.4594 9.24431 10.5885 4.04989 10.6746 3.23551L10.7822 2.7953ZM111.505 20.2494C110.487 18.5749 108.901 17.3442 107.05 16.7938C105.631 16.3402 104.319 15.5908 103.197 14.5928C102.945 14.3431 102.756 14.0341 102.647 13.6926C102.538 13.3512 102.513 12.9877 102.573 12.6339C102.575 11.9399 102.846 11.2749 103.326 10.785C103.652 10.4361 104.065 10.1842 104.519 10.0563C104.974 9.92833 105.455 9.92917 105.909 10.0587C106.85 10.3329 107.701 10.8623 108.371 11.5908C109.042 12.3192 109.507 13.2197 109.718 14.1966C110.063 15.1871 110.106 15.1871 110.73 14.923L111.117 14.7689V9.28833L110.838 9.15627C108.719 8.39522 106.471 8.08076 104.23 8.23184C102.301 8.28185 100.459 9.06676 99.065 10.4329C98.433 11.0379 97.938 11.7769 97.6146 12.5981C97.2911 13.4194 97.1471 14.303 97.1926 15.1871C97.2047 16.5388 97.7294 17.8329 98.6561 18.7968C99.6803 19.8269 100.937 20.5828 102.315 20.9978C105.651 22.3404 106.619 23.1988 106.619 24.7616C106.634 25.4206 106.428 26.065 106.037 26.5889C105.646 27.1129 105.092 27.4853 104.467 27.6449C103.716 27.8137 102.937 27.8137 102.186 27.6449C101.202 27.2544 100.323 26.6292 99.6233 25.8214C98.9233 25.0136 98.422 24.0466 98.1611 23.0007L97.8813 22.2964H97.4939C97.3088 22.3105 97.1271 22.3551 96.9559 22.4285H96.7407V28.6794H97.1065C98.5605 29.174 100.061 29.5133 101.583 29.6919H103.735C104.669 29.7619 105.607 29.6726 106.512 29.4277C107.66 29.211 108.733 28.6906 109.624 27.9184C110.515 27.1461 111.193 26.1489 111.591 25.0257C111.848 24.3983 111.979 23.7249 111.978 23.0448C112.063 22.0866 111.9 21.1226 111.505 20.2494ZM91.2311 8.87014C89.9414 8.31638 88.5518 8.04776 87.1535 8.0819C85.7551 8.11604 84.3797 8.45217 83.1173 9.06823C81.9307 9.66181 80.879 10.5033 80.0301 11.5382C79.1812 12.5732 78.5539 13.7788 78.1888 15.077C77.7233 16.4933 77.526 17.9873 77.6077 19.4791C77.5923 20.2907 77.6572 21.1019 77.8014 21.9002C78.149 23.8631 79.0756 25.6702 80.4567 27.0788C81.8379 28.4874 83.6075 29.4299 85.5278 29.7799C86.7783 29.941 88.0436 29.941 89.2941 29.7799C90.5917 29.546 91.8336 29.0604 92.9528 28.3492C93.8786 27.8185 94.6621 27.0625 95.2341 26.1482C95.1974 26.0047 95.1328 25.8704 95.044 25.7531C94.9552 25.6359 94.8442 25.5382 94.7176 25.4659C94.472 25.5568 94.2401 25.6828 94.0289 25.8401C92.9584 26.5616 91.6944 26.9232 90.4132 26.8745C89.5629 26.9333 88.7104 26.7979 87.9175 26.4782C87.1247 26.1584 86.4113 25.6622 85.8291 25.0257C85.3787 24.5979 85.0069 24.0909 84.7315 23.529C84.0627 22.1607 83.7023 20.6564 83.6769 19.1269V18.2685H95.6V17.8283C95.6263 17.3885 95.6263 16.9475 95.6 16.5077C95.5957 14.9536 95.1893 13.4283 94.4219 12.0868C93.6545 10.7454 92.5536 9.63555 91.2311 8.87014ZM85.2265 16.4857H83.7199V15.1871C84.2149 11.8635 85.4417 9.88261 86.9482 9.88261C88.4547 9.88261 89.1004 11.8415 89.3802 15.4292V16.4417H88.0889L85.2265 16.4857ZM54.278 8.1438C53.5343 8.11431 52.795 8.27308 52.1258 8.60602C50.6712 9.32845 49.4963 10.53 48.7899 12.0176L48.5101 12.5459V8.1438H48.4025C48.1442 8.1438 40.1811 9.77256 39.9229 9.88261C39.6646 9.99266 39.7507 10.0147 39.7507 10.4109C39.7507 10.807 39.7507 10.8731 39.9229 10.8951L40.7622 11.0712C40.9973 11.0771 41.228 11.1376 41.4368 11.2482C41.6456 11.3588 41.8271 11.5165 41.9674 11.7095C42.5055 12.4358 42.6131 13.7124 42.6131 19.1489C42.7194 21.5964 42.6186 24.0487 42.3118 26.4784C42.2396 26.8447 42.0579 27.1791 41.7919 27.4354C41.5259 27.6916 41.1887 27.8571 40.8268 27.909L40.095 28.0631H39.8152V28.6794C39.7372 28.8847 39.7372 29.1124 39.8152 29.3177H51.846V28.6794C51.8877 28.4688 51.8877 28.2517 51.846 28.0411C51.1216 28.0122 50.4013 27.9164 49.6938 27.755C49.3085 27.5489 48.9933 27.2282 48.7897 26.8353C48.5861 26.4424 48.5036 25.9957 48.5531 25.5539C48.381 24.2773 48.2949 20.5356 48.3379 17.6742C48.381 14.8129 48.3379 14.6368 48.5747 14.4387C49.2948 13.874 50.186 13.5858 51.0927 13.6244C51.9474 13.6434 52.7865 13.8617 53.5462 14.2627C53.8096 14.4122 54.0921 14.5233 54.3856 14.5928C54.3856 14.5928 56.5378 9.26632 56.5378 9.02421C56.2623 8.69691 55.9115 8.445 55.5169 8.29127C55.1223 8.13755 54.6965 8.08686 54.278 8.1438ZM39.7722 17.3881C39.6971 15.8153 39.2555 14.2836 38.4844 12.9206C37.7132 11.5576 36.6347 10.4028 35.3387 9.55246C33.7986 8.70275 32.0851 8.23423 30.3358 8.18454C28.5866 8.13484 26.8503 8.50536 25.2664 9.26632C23.0271 10.474 21.3363 12.5269 20.5531 14.989C19.7443 17.7456 19.7443 20.6843 20.5531 23.4409C20.9772 24.9475 21.7697 26.3186 22.856 27.4248C24.2088 28.7748 25.9533 29.6398 27.8275 29.8899C29.0307 29.9928 30.2401 29.9928 31.4432 29.8899C31.886 29.8211 32.3243 29.7255 32.7561 29.6038C34.5079 29.1027 36.0839 28.1016 37.2997 26.7179C38.5155 25.3342 39.3209 23.6249 39.6215 21.7902C39.8364 20.3336 39.887 18.8565 39.7722 17.3881ZM30.8191 28.3932C28.6669 29.0536 27.0528 26.9186 26.5147 22.4285C26.3171 20.0777 26.3171 17.7139 26.5147 15.3632C26.9451 11.7535 28.0428 9.92663 29.743 9.92663C30.086 9.90489 30.4291 9.96748 30.7437 10.1092C31.0582 10.2508 31.335 10.4675 31.5508 10.741C32.9928 12.2157 33.703 15.1431 33.703 19.5451C33.8821 22.0364 33.4992 24.5365 32.5839 26.8525C32.1797 27.528 31.5544 28.0349 30.8191 28.2832V28.3932ZM69.5585 8.58401C68.9512 8.50409 68.3364 8.50409 67.7291 8.58401C66.5634 8.58299 65.4111 8.8382 64.3502 9.33236L63.683 9.61849V4.84226C63.7996 3.23038 63.7996 1.61188 63.683 0C63.4248 0 55.2034 1.60675 55.0743 1.67278C55.0108 1.83528 55.0108 2.01651 55.0743 2.17902C55.0743 2.64123 55.0743 2.61922 56.0428 2.83932C56.3147 2.90169 56.5759 3.00557 56.8175 3.14747C57.2376 3.55149 57.5173 4.08475 57.6139 4.66618C57.8589 6.34121 57.9382 8.03724 57.8506 9.72854V29.0536L58.4317 29.1856C59.2926 29.3837 61.7245 29.8019 62.5209 29.8899C64.111 30.0193 65.7086 30.0193 67.2987 29.8899C69.0637 29.7056 70.746 29.0322 72.1644 27.9423C73.5827 26.8524 74.6835 25.3874 75.3479 23.7051C75.744 22.6253 76.0184 21.5029 76.1657 20.3595C76.2938 18.8108 76.2433 17.252 76.0151 15.7153C75.7842 13.9928 75.0408 12.3847 73.8858 11.109C72.7308 9.83325 71.2201 8.95174 69.5585 8.58401ZM63.9198 28.0191C63.9198 27.7329 63.7046 18.0924 63.7476 14.2406V11.2252L64.3717 11.0712C64.7928 11.0095 65.2204 11.0095 65.6415 11.0712C66.1072 11.0227 66.5757 11.1309 66.9759 11.3793C67.7796 11.9466 68.447 12.693 68.9279 13.5622C69.4088 14.4314 69.6907 15.4009 69.7522 16.3977C69.909 18.0004 69.909 19.6152 69.7522 21.2179C69.6234 23.5474 68.7457 25.7681 67.2557 27.5348C66.8327 27.9457 66.3016 28.2211 65.7276 28.3272C65.2933 28.4045 64.8491 28.4045 64.4148 28.3272C64.0059 28.3272 64.0059 28.1952 64.0059 28.0191H63.9198Z" fill="#383737"/>
</g>
<defs>
<clipPath id="clip0_2031_24456">
<rect width="112" height="30" fill="white"/>
</clipPath>
</defs>
</svg>
