<svg width="37" height="36" viewBox="0 0 37 36" fill="none" xmlns="http://www.w3.org/2000/svg">
<path d="M33.3989 28.1053L33.0989 24.3159C33.0664 23.9065 32.4854 24.1453 32.1989 24.3159L29.1989 26.8422L25.5988 26.2106L27.0988 29.6843L25.8988 31.579L25.2988 32.5264C24.8188 33.7895 27.4989 33.2632 28.8989 32.8422L31.5989 35.6843C32.1989 36.3159 32.7989 33.4738 32.7989 32.8422C32.7989 32.3369 32.9989 32.2106 33.0989 32.2106L36.3989 30.6317C37.2983 30.3159 36.6989 30.0001 36.6989 30.0001L33.3989 28.1053Z" fill="#A79CEE"/>
<path d="M32.401 24.0454C32.2713 24.063 32.0206 24.2213 31.8391 24.3883C31.2772 24.9157 30.1447 25.9618 30.041 26.0497C29.9891 26.0937 29.7903 26.2871 29.6001 26.4629C29.2629 26.7794 29.2629 26.7794 28.7875 26.7003C28.5281 26.6563 27.8279 26.4981 27.2314 26.3574C25.5111 25.9355 25.3209 25.9003 25.2777 25.9443C25.2345 25.9794 26.1163 28.0277 26.6868 29.232L26.9029 29.6803L26.6868 30.0671C26.5744 30.2781 26.1422 31.0165 25.7359 31.711C24.9665 33.0032 24.8628 33.3021 25.1394 33.3021C25.2258 33.3021 25.5889 33.3812 25.9434 33.4779L26.5917 33.645L27.8798 33.434L29.1765 33.2142L29.3321 33.4164C29.4272 33.5219 29.6952 33.8471 29.9459 34.1372C30.1966 34.4273 30.6461 34.946 30.9314 35.2976C31.2253 35.6405 31.5019 35.9481 31.5452 35.9833C31.7008 36.08 32.2367 35.7372 32.3664 35.4559C32.4356 35.3064 32.5566 34.8141 32.6344 34.357C32.7036 33.8999 32.8073 33.2582 32.8592 32.9417L32.9629 32.3615L33.5335 32.089C33.8447 31.9483 34.6919 31.5528 35.4007 31.2275C36.8358 30.5682 37 30.4627 37 30.1726C37 29.9792 36.8012 29.6979 36.6542 29.6979C36.611 29.6979 36.3689 29.5748 36.1269 29.4254C35.8762 29.276 35.2192 28.9155 34.6573 28.6254C34.0954 28.3353 33.594 28.0452 33.5507 27.9925C33.5075 27.9398 33.4297 27.2365 33.3778 26.4277C33.2655 24.8278 33.2136 24.2652 33.1531 24.0894C33.1185 23.9839 32.8765 23.9751 32.401 24.0454ZM32.9802 24.5553C32.9975 24.696 33.0321 25.3113 33.058 25.9179C33.0926 26.5244 33.1358 27.2629 33.1704 27.5705L33.2222 28.1156L33.9657 28.5463C34.372 28.7749 35.0204 29.1265 35.3921 29.3111C35.7638 29.5045 36.2306 29.8034 36.4294 29.9792L36.7839 30.2957L36.0923 30.6209C35.7119 30.7968 35.1846 31.0429 34.9253 31.166C34.6659 31.289 34.1386 31.5352 33.7582 31.711C32.7122 32.1945 32.7727 32.1242 32.5912 33.0472C32.5047 33.5043 32.4096 34.0318 32.3837 34.2252C32.3664 34.4185 32.2973 34.6911 32.254 34.8229C32.2022 34.9636 32.1589 35.1658 32.1589 35.28C32.1589 35.4647 32.012 35.5877 31.7959 35.5877C31.744 35.5877 31.7353 35.5174 31.7699 35.4295C31.7959 35.3504 31.9601 34.568 32.133 33.6977C32.4356 32.1154 32.522 31.8077 32.6776 31.8077C32.7814 31.8077 34.0781 31.2627 35.5131 30.6209C36.0664 30.366 36.222 30.1199 35.8848 30.0056C35.7984 29.9792 35.4958 29.8034 35.2105 29.6276C34.9339 29.443 34.6313 29.2672 34.5449 29.232C34.4498 29.188 34.0003 28.9419 33.5507 28.6694C33.0926 28.3969 32.7122 28.1683 32.7036 28.1683C32.6949 28.1595 32.6258 27.4035 32.548 26.4893C32.4701 25.5662 32.3923 24.7575 32.3664 24.6784C32.3145 24.485 32.5652 24.2301 32.79 24.2652C32.911 24.2828 32.9715 24.3707 32.9802 24.5553ZM32.1589 24.8366C32.1676 24.9773 32.2022 25.4959 32.2454 26.0058C32.2973 26.5157 32.3491 27.2277 32.3837 27.5881C32.4183 28.0628 32.4701 28.2826 32.5739 28.3617C32.7468 28.4936 34.1818 29.3463 35.0376 29.821C35.3575 29.9968 35.6168 30.1814 35.6168 30.2166C35.6168 30.2605 35.2797 30.4363 34.8647 30.6121C31.9774 31.8516 32.2022 31.6934 32.0725 32.5461C31.986 33.1351 31.5365 35.3592 31.4933 35.4119C31.4501 35.4559 30.9746 34.9372 30.2139 34.0493C29.9286 33.7065 29.5396 33.2582 29.3494 33.056L29.0036 32.6692L28.2256 32.7307C27.802 32.7659 27.024 32.845 26.5053 32.9153C25.3814 33.0648 25.3296 33.0648 25.3296 32.9505C25.3296 32.9065 25.6235 32.3879 25.9779 31.7989C26.341 31.2099 26.756 30.5067 26.9029 30.2254L27.1796 29.7243L26.9289 29.1617C26.7992 28.854 26.4793 28.1595 26.2373 27.6321C25.6321 26.331 25.6062 26.2519 25.8656 26.3047C25.9779 26.331 26.5312 26.4541 27.1018 26.5772C27.6723 26.7003 28.3985 26.8673 28.7183 26.9464L29.2889 27.0958L29.9286 26.5157C30.2744 26.1992 30.8709 25.6366 31.2512 25.2762C31.6316 24.9069 31.9947 24.6081 32.0552 24.5993C32.1157 24.5993 32.1589 24.7048 32.1589 24.8366Z" fill="black"/>
<path d="M7.7334 2.51143C7.0934 -0.390891 9.06673 0.185853 10.1334 0.837016L15.4667 5.86034L23.2001 4.18592L20.0001 10.8836V11.7208L23.7334 18.1394H22.4001H15.7334C14.6667 19.1627 12.3201 21.5441 11.4667 22.8836C10.6134 24.2231 9.86673 23.4417 9.60006 22.8836L8.5334 17.0231L8.00006 16.465L2.1334 13.6743C-0.426603 12.7813 6.29425e-05 12.1859 0.533398 11.9999L6.40006 8.65104L7.46673 7.53476L7.7334 2.51143Z" fill="#A79CEE"/>
<path d="M9.19802 0.090889C9.45736 0.126053 9.95876 0.44252 10.3218 0.776569C11.4457 1.83146 13.7106 3.92366 13.9181 4.09948C14.0218 4.18739 14.4195 4.57418 14.7998 4.92581C15.4741 5.55875 15.4741 5.55875 16.425 5.40051C16.9437 5.3126 18.3442 4.99614 19.5371 4.71483C22.9778 3.87092 23.3581 3.80059 23.4446 3.8885C23.531 3.95883 21.7675 8.05532 20.6264 10.464L20.1942 11.3607L20.6264 12.1342C20.8512 12.5562 21.7156 14.033 22.5282 15.422C24.067 18.0065 24.2745 18.6042 23.7212 18.6042C23.5483 18.6042 22.8222 18.7625 22.1133 18.9559L20.8166 19.2899L18.2404 18.868L15.647 18.4284L15.3358 18.8328C15.1456 19.0438 14.6096 19.6943 14.1082 20.2745C13.6068 20.8547 12.7078 21.892 12.1372 22.5953C11.5494 23.2809 10.9961 23.8963 10.9097 23.9666C10.5985 24.16 9.52652 23.4743 9.26718 22.9117C9.12886 22.6128 8.88681 21.6283 8.7312 20.714C8.59289 19.7998 8.38541 18.5163 8.28168 17.8834L8.0742 16.723L6.93309 16.178C6.31067 15.8967 4.6163 15.1055 3.19856 14.455C0.328501 13.1364 0 12.9254 0 12.3452C0 11.9584 0.397659 11.3958 0.691582 11.3958C0.778028 11.3958 1.26213 11.1497 1.74624 10.8508C2.24764 10.5519 3.56164 9.83106 4.68546 9.25087C5.80928 8.67068 6.81207 8.09049 6.89852 7.985C6.98496 7.87951 7.14057 6.47299 7.24431 4.85548C7.46907 1.65565 7.57281 0.530428 7.69383 0.178797C7.76299 -0.0321808 8.2471 -0.0497627 9.19802 0.090889ZM8.03962 1.11062C8.00504 1.39192 7.93589 2.62263 7.88402 3.83576C7.81486 5.04888 7.72841 6.52573 7.65925 7.14108L7.55552 8.23114L6.06862 9.09263C5.25601 9.54975 3.9593 10.253 3.21585 10.6222C2.4724 11.009 1.53877 11.6068 1.14111 11.9584L0.432238 12.5914L1.8154 13.2419C2.57614 13.5935 3.6308 14.0858 4.14948 14.3319C4.66817 14.5781 5.72283 15.0704 6.48357 15.422C8.5756 16.389 8.45457 16.2483 8.81765 18.0944C8.99055 19.0086 9.18073 20.0635 9.2326 20.4503C9.26718 20.8371 9.40549 21.3821 9.49194 21.6458C9.59568 21.9272 9.68213 22.3315 9.68213 22.5601C9.68213 22.9293 9.97605 23.1754 10.4083 23.1754C10.512 23.1754 10.5293 23.0348 10.4602 22.859C10.4083 22.7007 10.0798 21.136 9.734 19.3954C9.12886 16.2307 8.95597 15.6154 8.64476 15.6154C8.43728 15.6154 5.84385 14.5253 2.9738 13.2419C1.86727 12.732 1.55606 12.2397 2.23035 12.0112C2.40324 11.9584 3.00838 11.6068 3.57893 11.2552C4.13219 10.886 4.73733 10.5343 4.91022 10.464C5.10041 10.3761 5.99946 9.8838 6.89852 9.33878C7.81486 8.79375 8.5756 8.33663 8.59289 8.33663C8.61018 8.31905 8.74849 6.80704 8.9041 4.97856C9.0597 3.13249 9.21531 1.51499 9.26718 1.35676C9.37092 0.969965 8.86952 0.460102 8.41999 0.530428C8.17794 0.56559 8.05691 0.741405 8.03962 1.11062ZM9.68213 1.67323C9.66484 1.95453 9.59568 2.99184 9.50923 4.01157C9.40549 5.0313 9.30176 6.4554 9.2326 7.17625C9.16344 8.12565 9.0597 8.56519 8.85223 8.72342C8.50644 8.98715 5.63638 10.6926 3.92472 11.642C3.28501 11.9936 2.76632 12.3628 2.76632 12.4331C2.76632 12.521 3.44061 12.8727 4.27051 13.2243C10.0452 15.7033 9.59568 15.3868 9.85502 17.0922C10.0279 18.2702 10.927 22.7183 11.0134 22.8238C11.0999 22.9117 12.0508 21.8744 13.5723 20.0987C14.1428 19.413 14.9208 18.5163 15.3012 18.112L15.9928 17.3384L17.5489 17.4614C18.396 17.5318 19.9521 17.69 20.9895 17.8307C23.2371 18.1295 23.3408 18.1295 23.3408 17.901C23.3408 17.8131 22.753 16.7758 22.0441 15.5978C21.318 14.4198 20.4881 13.0133 20.1942 12.4507L19.6409 11.4486L20.1423 10.3233C20.4016 9.70799 21.0413 8.31905 21.5254 7.26415C22.7357 4.66209 22.7876 4.50385 22.2689 4.60934C22.0441 4.66209 20.9376 4.90823 19.7965 5.15437C18.6554 5.40051 17.2031 5.73456 16.5634 5.8928L15.4222 6.19168L14.1428 5.0313C13.4512 4.39837 12.2583 3.27315 11.4975 2.5523C10.7368 1.81388 10.0106 1.21611 9.8896 1.19853C9.76857 1.19853 9.68213 1.4095 9.68213 1.67323Z" fill="black"/>
</svg>
