<svg width="197" height="28" viewBox="0 0 197 28" fill="none" xmlns="http://www.w3.org/2000/svg">
<g clip-path="url(#clip0_2031_24442)">
<path d="M173.293 3.66667C173.293 1.73333 173.894 1.06667 174.896 1.06667C175.898 1.06667 176.699 1.46667 177.634 3.66667L183.31 16.5333V24.6667C183.31 26.6 182.509 27.1333 180.305 27.4V27.9333H190.79V27.4C188.519 27.1333 187.784 26.5333 187.784 24.6667V16.5333L193.26 4.13333C194.329 1.73333 195.397 1.2 197 0.933333V0.4H189.32V0.933333C191.925 1.2 192.86 1.93333 192.125 3.66667L187.317 14.6667L182.375 3.4C181.707 1.86667 182.108 1.4 184.98 1V0.466667H168.485V1C171.089 1.4 171.891 1.86667 171.891 3.73333V18.8L159.804 0.466667H153.86V1C155.797 1.26667 156.398 1.86667 156.398 3.73333V24.7333C156.398 26.6667 155.864 27.3333 155.196 27.3333C154.595 27.3333 154.261 27.0667 153.393 24.7333L144.444 0.333333H143.91L135.296 23.6667C134.361 26.2667 132.892 27.1333 131.422 27.4667V28H139.302V27.4667C136.564 27.2 135.696 26.1333 136.297 24.4L138.234 19.0667H146.381L148.251 24.0667C149.052 26.3333 148.585 27 146.247 27.4V27.9333H161.206V27.4C158.602 27 157.8 26.5333 157.8 24.6667V5.86667L172.425 28H173.293V3.66667ZM67.8481 14.1333C67.8481 5.6 71.9217 1.13333 76.6631 1.13333C79.4678 1.13333 81.2709 1.73333 82.3393 2.86667C83.1407 3.66667 83.7417 4.8 84.4095 6.6H84.9437V0.866667C82.2058 0.333333 79.7349 0 77.2641 0C70.1186 0 62.7061 4.6 62.7061 14.1333C62.7061 23.6667 70.1186 28.2667 76.7966 28.2667C79.7349 28.2667 82.3393 27.8 84.8102 27.0667L85.6115 21.6667L85.1441 21.5333C84.5431 22.6667 83.8085 23.6667 83.0071 24.5333C81.2709 26.2667 78.9336 27.2 76.5963 27.2C72.0553 27.1333 67.8481 22.8 67.8481 14.1333ZM127.082 14.9333C126.481 14.9333 125.679 14.8667 124.878 14.7333V1.4H127.082C130.755 1.4 132.357 3.33333 132.357 8.13333C132.357 13 130.688 14.9333 127.082 14.9333ZM41.2698 0.4V7H41.8041C42.6054 2.8 44.2749 1.46667 47.0797 1.46667H48.4153V24.6667C48.4153 26.6 47.6139 27.1333 45.4102 27.4V27.9333H55.8946V27.4C53.6241 27.1333 52.8895 26.5333 52.8895 24.6667V1.4H54.2251C57.0298 1.4 58.6993 2.73333 59.5007 6.93333H60.0349V0.333333H41.2698V0.4ZM32.9224 28.2667C37.4634 28.2667 42.2715 25.6667 42.2715 20.3333C42.2715 17.2 40.602 14.6 37.6637 13L32.4549 10.1333C29.717 8.6 28.9156 7.2 28.9156 5.2C28.9156 2.93333 30.5851 1.13333 33.7237 1.13333C35.2597 1.13333 36.3949 1.53333 37.3298 2.4C38.1312 3.2 38.9325 4.53333 39.6671 6.93333H40.1346V0.866667C38.2647 0.333333 36.3281 0 34.0576 0C29.5834 0 26.2444 2.8 26.2444 7.53333C26.2444 10.5333 27.9139 13.2667 30.6519 14.8667L35.46 17.5333C38.198 19.0667 39.0661 20.5333 39.0661 22.7333C39.0661 25.3333 36.3949 27.2 33.4566 27.2C31.52 27.2 29.9173 26.5333 28.782 25.4C28.0475 24.6667 27.2461 23.5333 26.7119 22.0667H29.8505V21.5333C28.9824 21.3333 28.4481 21.2 27.7136 19.4667L21.5698 4.86667H21.0356L15.0254 19.1333C14.2241 21.0667 13.6898 21.4 12.7549 21.5333V22.0667H18.0973V21.5333C16.1607 21.3333 15.6264 20.4 16.0939 19.2L17.0288 16.9333H22.438L23.64 19.7333C24.1742 21 23.3729 21.3333 21.4363 21.4667V22H25.7102V27.2667C27.8471 27.8667 30.5851 28.2667 32.9224 28.2667ZM100.771 28L108.717 5.93333L109.318 24.7333C109.385 26.6 108.651 27.1333 106.38 27.4V27.9333H128.284V27.4C125.679 27 124.878 26.5333 124.878 24.6667V15.8C125.746 15.9333 126.614 16 127.282 16C132.558 16 137.099 14.0667 137.099 8.2C137.099 2.33333 132.558 0.4 127.282 0.4H117.866V0.933333C119.803 1.2 120.404 1.8 120.404 3.66667V24.6667C120.404 26.6 119.602 27.4 117.399 27.4H117.332C114.995 27.4 113.993 26.5333 113.926 24.7333L113.125 3.73333C113.058 1.8 113.726 1.2 115.796 0.933333V0.4H109.318L102.24 20.2L95.161 0.4H88.2159V0.933333C90.2861 1.2 90.9539 1.86667 90.8871 3.73333L90.1525 23.8667C90.0858 25.8667 89.0173 27.0667 87.0807 27.4V27.9333H94.4264V27.4C92.5566 27.1333 91.4881 25.9333 91.5549 23.8667L92.1559 5.53333L100.236 27.9333L100.771 28ZM79.4678 22.2C83.0071 22.2 87.5481 19.0667 87.5481 14.1333C87.5481 9.26667 83.0739 6.06667 79.4678 6.06667C75.9285 6.06667 71.3875 9.2 71.3875 14.1333C71.3875 19 75.8617 22.2 79.4678 22.2ZM79.4678 7.2C81.7383 7.2 83.2742 9.06667 83.2742 14.1333C83.2742 19.2667 81.6715 21.0667 79.4678 21.0667C77.1973 21.0667 75.6614 19.2 75.6614 14.1333C75.6614 9 77.1973 7.2 79.4678 7.2ZM146.047 17.9333H138.635L142.307 7.8L146.047 17.9333ZM22.1041 15.8667H17.5631L19.8336 10.3333L22.1041 15.8667ZM13.4227 17.2667H13.9569V9H13.4227C12.5546 11.9333 11.6864 12.6 10.0837 12.6H7.01186V1.4H11.8868C14.6915 1.4 16.361 2.73333 17.1624 6.93333H17.6966V0.333333H0V0.866667C1.93661 1.13333 2.53763 1.73333 2.53763 3.6V24.6C2.53763 26.5333 1.93661 27.0667 0 27.3333V27.8667H10.4176V27.3333C7.81322 26.9333 7.01186 26.4667 7.01186 24.6V13.6H10.0837C11.6197 13.6667 12.5546 14.3333 13.4227 17.2667Z" fill="#383737"/>
</g>
<defs>
<clipPath id="clip0_2031_24442">
<rect width="197" height="28" fill="white"/>
</clipPath>
</defs>
</svg>
