<svg width="80" height="102" viewBox="0 0 80 102" fill="none" xmlns="http://www.w3.org/2000/svg">
<path fill-rule="evenodd" clip-rule="evenodd" d="M42.1265 2.27778C40.5418 4.16141 38.5076 10.7885 31.8537 35.7441L28.1801 49.5219L28.3592 54.0097C28.458 56.4783 28.8223 61.4539 29.1688 65.0669C29.6397 69.9737 29.6706 71.6021 29.2914 71.5009C28.8675 71.3877 28.697 71.8531 28.2586 74.3226C27.7987 76.9143 27.6642 77.2614 27.1706 77.1296C26.115 76.8478 25.4726 78.4423 23.4812 86.2837L21.5228 93.995L23.5 94.9882C26.645 96.5679 35.2578 99.1208 40.2963 99.9663C45.2457 100.797 50.7388 101.334 55.6954 101.471C58.3361 101.544 58.9475 101.447 58.9276 100.96C58.9138 100.63 59.4183 97.4622 60.0481 93.9214C61.5975 85.2143 61.5471 84.2158 59.4835 82.7022C58.7875 82.1917 57.3746 81.5488 56.3441 81.2737C54.6364 80.8178 54.4709 80.6931 54.4783 79.8646C54.485 79.1172 54.2748 78.8993 53.2956 78.6378C52.4099 78.4014 52.0948 78.13 52.0651 77.5776C52.0137 76.6237 54.1627 74.057 57.3363 71.2827C59.3765 69.4988 60.0243 68.6597 61.284 66.1668C63.557 61.67 65.6373 55.916 67.5832 48.7443L69.3348 42.2881L68.8254 40.1479C67.7651 35.6934 66.6302 34.0957 64.0337 33.4026C62.8901 33.0973 62.3384 32.6738 61.3622 31.3509C60.3319 29.955 59.8155 29.5766 58.184 29.0219C57.1125 28.6579 55.7612 27.9327 55.181 27.4112C52.8705 25.3331 48.922 24.3985 46.705 25.4054C46.0101 25.7209 45.3938 25.8989 45.3355 25.801C45.2771 25.7034 46.036 22.3188 47.0215 18.28C48.9241 10.4827 49.1873 8.27179 48.5124 5.75466C48.0174 3.90872 47.2047 3.14259 44.6906 2.15329C42.8993 1.44805 42.8212 1.452 42.1265 2.27778ZM43.7666 3.78042C43.6174 5.88366 41.9011 10.7433 41.2371 10.9432C39.6885 11.4088 39.6385 11.004 40.8043 7.43211C41.9261 3.99602 42.8727 2.24484 43.5153 2.41639C43.7033 2.46658 43.8164 3.0802 43.7666 3.78042ZM47.1144 4.75211C48.1414 6.22738 48.1223 9.41779 47.0611 13.5664L46.0576 17.4892L44.7138 17.2442C43.066 16.9435 43.1409 17.6216 44.8046 18.0657L46.005 18.3862L45.4287 20.6921C45.1118 21.9605 44.5991 24.2044 44.2899 25.6789C43.7399 28.2991 43.7047 28.3622 42.7383 28.4533C42.1942 28.5048 41.0108 28.3613 40.1084 28.1342C38.0137 27.6078 38.9761 28.4715 41.1832 29.0989C42.1245 29.3666 42.6152 29.6718 42.5376 29.9415C42.2064 31.0881 40.6799 33.469 38.9191 35.5837C37.0938 37.7759 36.895 38.1762 35.9598 41.5353C35.4083 43.5158 34.8825 46.3461 34.7912 47.8249L34.6254 50.5137L36.4798 44.2672C38.2604 38.2692 38.3969 37.9471 39.909 36.1635C40.7747 35.1422 41.551 34.3244 41.6337 34.3464C41.7164 34.3685 42.1591 35.0606 42.6174 35.8845C43.5497 37.5593 44.1512 37.8693 45.1841 37.2074C46.2148 36.5467 47.9169 33.6231 48.4638 31.5746C48.8801 30.0149 48.8327 29.5963 48.0897 28.261C47.2901 26.8242 47.2858 26.7451 48.018 26.9406C48.9261 27.183 50.171 28.6847 50.4728 29.9019C51.021 32.1086 49.718 36.6128 47.6645 39.6111C46.8587 40.7873 46.7016 41.3896 46.2622 44.9871C45.7872 48.8717 45.8051 49.0933 46.6923 50.3851C48.4573 52.9545 48.9413 57.1932 48.3528 64.9284L48.0135 69.3929L48.9122 66.1593C49.4138 64.3546 49.8116 62.0455 49.8127 60.934C49.8136 59.8388 49.8918 58.8991 49.9863 58.846C50.1948 58.7285 51.9496 60.8474 53.1991 62.7253L54.1118 64.0972L53.6423 62.332C53.3255 61.1404 52.6009 59.9404 51.4127 58.6393C50.4445 57.5792 49.6422 56.4631 49.6299 56.1592C49.6176 55.8552 49.569 55.3361 49.5219 55.0058C49.4486 54.4895 49.6968 54.4975 51.2901 55.0638C53.194 55.7408 53.872 55.6077 55.2965 54.2767C55.7157 53.885 56.018 53.9286 57.2106 54.5541C59.517 55.7631 60.2752 55.4244 63.7583 51.6278L66.789 48.3245L66.1264 50.8024C64.8626 55.5266 61.1231 64.9191 59.3124 67.9162C58.9299 68.5498 57.6252 69.8993 56.4134 70.915C55.202 71.9307 53.4951 73.597 52.621 74.6176C51.3033 76.156 51.0507 76.6472 51.1442 77.4896C51.2065 78.0484 51.2397 78.5722 51.218 78.6535C51.1963 78.7348 48.7056 78.1424 45.6834 77.3371C39.3792 75.657 31.6713 72.9426 31.1087 72.2039C30.3715 71.236 29.0973 55.7427 29.3443 50.7437C29.4823 47.9476 34.4409 28.5209 37.6243 18.304L39.6775 11.7148L40.8245 11.688C42.3103 11.6532 42.9546 10.5388 43.9233 6.32646L44.6567 3.13835L45.652 3.60994C46.1994 3.86905 46.8574 4.38325 47.1144 4.75211ZM54.3537 28.0587C57.3382 31.3181 56.8649 38.4945 53.3132 43.8415C52.4089 45.2035 51.7466 45.992 51.842 45.594C51.9867 44.9888 51.6858 44.7048 50.0075 43.8632C48.8382 43.2766 47.9729 42.6203 47.9351 42.2917C47.8999 41.9813 48.4021 40.8152 49.0518 39.7005C52.4326 33.8986 52.7049 29.3718 49.8351 26.6757L48.7385 25.6458L51.1661 26.437C52.6849 26.9325 53.878 27.5393 54.3537 28.0587ZM59.8889 30.8628C60.1485 31.0929 60.8328 32.1523 61.4093 33.2169C62.449 35.1361 62.4517 35.1736 61.7694 37.8007C61.3914 39.2573 60.928 41.5561 60.7399 42.9089C60.4114 45.2704 60.3024 45.4996 57.9963 48.667C56.233 51.0893 55.5518 51.8028 55.4319 51.3531C55.2101 50.5196 53.7125 49.2321 52.6283 48.9426C52.1388 48.8119 51.7722 48.5909 51.8127 48.4516C51.8536 48.3124 52.7988 46.8017 53.913 45.0949C55.5984 42.5137 56.0727 41.476 56.7355 38.9246C57.5353 35.8446 57.68 32.2745 57.0715 30.6428C56.9076 30.204 56.8073 29.7188 56.8484 29.5647C56.9308 29.2562 59.1413 30.1998 59.8889 30.8628ZM47.4244 28.5761C48.0535 29.6325 48.1046 30.1202 47.7321 31.5156C47.2532 33.3092 45.7881 35.8873 44.8981 36.5024C44.1377 37.0283 43.3456 36.2268 42.6482 34.2266C42.1088 32.6786 42.1225 32.563 43.0501 30.7962C44.4033 28.2192 45.4415 26.9816 46.1022 27.158C46.4145 27.2413 47.0095 27.8794 47.4244 28.5761ZM53.2303 30.5185C52.7767 30.6598 52.9609 30.8011 53.9464 31.0686C54.7437 31.2847 55.2239 31.2697 55.149 31.0307C54.9914 30.528 54.0275 30.2707 53.2303 30.5185ZM64.9952 34.7525C65.7892 34.9644 67.0778 37.0682 67.6055 39.014C68.0863 40.7869 68.059 41.0125 66.9803 44.2104C65.9465 47.2753 65.6492 47.787 63.4038 50.3616C60.3496 53.8634 59.8758 54.1713 58.2934 53.6829L58.3852 53.5811L58.5028 53.4655C59.6945 53.6014 60.1312 53.4454 60.9489 52.5902C62.1305 51.3543 62.1297 50.3859 60.9464 50.07C59.0789 49.5715 59.0159 49.3105 60.3259 47.5029C61.4108 46.0065 61.5689 45.5444 61.9999 42.6072C62.2616 40.8233 62.7343 38.1538 63.0507 36.6745C63.5279 34.4446 63.703 34.0406 64.0768 34.3065C64.3245 34.4831 64.7377 34.6837 64.9952 34.7525ZM59.1465 33.5555C58.688 33.698 58.8405 33.8269 59.7562 34.0714C60.6719 34.3159 60.8684 34.2801 60.5419 33.928C60.3025 33.6699 60.0281 33.4378 59.9322 33.4122C59.8363 33.3865 59.4827 33.451 59.1465 33.5555ZM65.1319 38.4331C66.0019 39.1051 67.3757 39.4719 67.225 38.9918C67.1564 38.7731 66.5179 38.4503 65.8063 38.2742C64.7632 38.0165 64.6325 38.0472 65.1319 38.4331ZM52.4717 38.2696C52.3411 38.3433 52.6769 38.7398 53.2184 39.1514C54.2247 39.9164 54.6894 39.9716 54.479 39.301C54.34 38.8587 52.8168 38.076 52.4717 38.2696ZM57.3579 42.494C57.2368 42.606 57.631 43.0049 58.2341 43.3805C58.8375 43.7563 59.3617 43.9487 59.3993 43.8078C59.4953 43.4483 57.6269 42.2462 57.3579 42.494ZM63.2441 45.16C62.9731 45.2386 63.2322 45.573 63.873 45.9722C64.9785 46.6609 65.1892 46.387 64.2298 45.5077C63.9413 45.2434 63.4976 45.0867 63.2441 45.16ZM39.0735 40.1513C38.93 40.6887 39.2858 41.155 40.8037 42.4195C41.3868 42.905 41.1181 41.9222 40.5202 41.3818C40.1477 41.0451 40.0972 40.9194 40.4078 41.1025C41.2833 41.6183 41.1498 41.2197 40.1478 40.3269C39.2986 39.57 39.2316 39.559 39.0735 40.1513ZM48.7685 43.8735C49.2787 44.1937 50.1052 44.6636 50.6041 44.9181L51.5121 45.3806L50.4427 46.5448C49.5538 47.5129 49.1963 47.662 48.3228 47.4288C47.7451 47.2746 47.2627 46.941 47.2512 46.6872C47.223 46.0737 47.6378 43.2374 47.7512 43.2677C47.8004 43.2808 48.2579 43.5535 48.7685 43.8735ZM60.6394 50.7117C61.4398 50.932 61.219 51.6485 60.0986 52.4674C59.397 52.9801 58.9682 53.0296 58.1707 52.6896C57.0731 52.2216 57.0387 51.8258 57.9832 50.5372C58.4581 49.8896 58.7308 49.8061 59.3058 50.1327C59.7043 50.359 60.3041 50.6197 60.6394 50.7117ZM54.4639 50.8567C55.0052 51.3529 55.0093 51.5559 54.4934 52.2592C53.3643 53.7995 52.272 54.0119 50.8163 52.975C50.2548 52.5751 50.5339 51.1056 51.3937 49.9329C51.8852 49.2624 52.0696 49.2366 52.8924 49.7226C53.4086 50.0273 54.1158 50.5379 54.4639 50.8567ZM46.123 75.3405C45.356 75.3536 42.647 74.7175 39.617 73.8128C34.7066 72.3463 34.5225 72.315 36.2204 73.237C39.6877 75.1188 47.2503 76.7175 47.5407 75.6297C47.5886 75.4501 47.5851 75.3063 47.5325 75.3101C47.4799 75.3142 46.8458 75.3279 46.123 75.3405ZM35.5554 75.0283C40.5725 76.8691 50.73 79.6011 52.3433 79.5439L53.5306 79.5019L53.2987 81.4989C53.1706 82.5973 53.0354 83.6413 52.9978 83.8186C52.9606 83.9959 52.0852 84.1547 51.053 84.1714C48.4815 84.213 35.2287 80.7512 31.422 79.0433L28.688 77.8164L28.9766 75.8396C29.1353 74.7524 29.26 73.5642 29.2536 73.1991C29.2437 72.6287 29.3979 72.6054 30.3563 73.0329C30.9692 73.3062 33.3089 74.2041 35.5554 75.0283Z" fill="white"/>
<path fill-rule="evenodd" clip-rule="evenodd" d="M47.1144 4.75211C48.1414 6.22738 48.1223 9.41779 47.0611 13.5664L46.0576 17.4892L44.7138 17.2442C43.066 16.9435 43.1409 17.6216 44.8046 18.0657L46.005 18.3862L45.4287 20.6921C45.1118 21.9605 44.5991 24.2044 44.2899 25.6789C43.7399 28.2991 43.7047 28.3622 42.7383 28.4533C42.1942 28.5048 41.0108 28.3613 40.1084 28.1342C38.0137 27.6078 38.9761 28.4715 41.1832 29.0989C42.1245 29.3666 42.6152 29.6718 42.5376 29.9415C42.2064 31.0881 40.6799 33.469 38.9191 35.5837C37.0938 37.7759 36.895 38.1762 35.9598 41.5353C35.4083 43.5158 34.8825 46.3461 34.7912 47.8249L34.6254 50.5137L36.4798 44.2672C38.2604 38.2692 38.3969 37.9471 39.909 36.1635C40.7747 35.1422 41.551 34.3244 41.6337 34.3464C41.7164 34.3685 42.1591 35.0606 42.6174 35.8845C43.5497 37.5593 44.1512 37.8693 45.1841 37.2074C46.2148 36.5467 47.9169 33.6231 48.4638 31.5746C48.8801 30.0149 48.8327 29.5963 48.0897 28.261C47.2901 26.8242 47.2858 26.7451 48.018 26.9406C48.9261 27.183 50.171 28.6847 50.4728 29.9019C51.021 32.1086 49.718 36.6128 47.6645 39.6111C46.8587 40.7873 46.7016 41.3896 46.2622 44.9871C45.7872 48.8717 45.8051 49.0933 46.6923 50.3851C48.4573 52.9545 48.9413 57.1932 48.3528 64.9284L48.0135 69.3929L48.9122 66.1593C49.4138 64.3546 49.8116 62.0455 49.8127 60.934C49.8136 59.8388 49.8918 58.8991 49.9863 58.846C50.1948 58.7285 51.9496 60.8474 53.1991 62.7253L54.1118 64.0972L53.6423 62.332C53.3255 61.1404 52.6009 59.9404 51.4127 58.6393C50.4445 57.5792 49.6422 56.4631 49.6299 56.1592C49.6176 55.8552 49.569 55.3361 49.5219 55.0058C49.4486 54.4895 49.6968 54.4975 51.2901 55.0638C53.194 55.7408 53.872 55.6077 55.2965 54.2767C55.7157 53.885 56.018 53.9286 57.2106 54.5541C59.517 55.7631 60.2752 55.4244 63.7583 51.6278L66.789 48.3245L66.1264 50.8024C64.8626 55.5266 61.1231 64.9191 59.3124 67.9162C58.9299 68.5498 57.6252 69.8993 56.4134 70.915C55.202 71.9307 53.4951 73.597 52.621 74.6176C51.3033 76.156 51.0507 76.6472 51.1442 77.4896C51.2065 78.0484 51.2397 78.5722 51.218 78.6535C51.1963 78.7348 48.7056 78.1424 45.6834 77.3371C39.3792 75.657 31.6713 72.9426 31.1087 72.2039C30.3715 71.236 29.0973 55.7427 29.3443 50.7437C29.4823 47.9476 34.4409 28.5209 37.6243 18.304L39.6775 11.7148L40.8245 11.688C42.3103 11.6532 42.9546 10.5388 43.9233 6.32646L44.6567 3.13835L45.652 3.60994C46.1994 3.86905 46.8574 4.38325 47.1144 4.75211ZM40.8037 42.4195C39.2858 41.155 38.93 40.6887 39.0735 40.1513C39.2316 39.559 39.2986 39.57 40.1478 40.3269C41.1498 41.2197 41.2833 41.6183 40.4078 41.1025C40.0972 40.9194 40.1477 41.0451 40.5202 41.3818C41.1181 41.9222 41.3868 42.905 40.8037 42.4195ZM39.617 73.8128C42.647 74.7175 45.356 75.3536 46.123 75.3405C46.8458 75.3279 47.4799 75.3142 47.5325 75.3101C47.5851 75.3063 47.5886 75.4501 47.5407 75.6297C47.2503 76.7175 39.6877 75.1188 36.2204 73.237C34.5225 72.315 34.7066 72.3463 39.617 73.8128Z" fill="white"/>
<path fill-rule="evenodd" clip-rule="evenodd" d="M54.3537 28.0587C57.3382 31.3181 56.8649 38.4945 53.3132 43.8415C52.4089 45.2035 51.7466 45.992 51.842 45.594C51.9867 44.9888 51.6858 44.7048 50.0075 43.8632C48.8382 43.2766 47.9729 42.6203 47.9351 42.2917C47.8999 41.9813 48.4021 40.8152 49.0518 39.7005C52.4326 33.8986 52.7049 29.3718 49.8351 26.6757L48.7385 25.6458L51.1661 26.437C52.6849 26.9325 53.878 27.5393 54.3537 28.0587ZM53.9464 31.0686C52.9609 30.8011 52.7767 30.6598 53.2303 30.5185C54.0275 30.2707 54.9914 30.528 55.149 31.0307C55.2239 31.2697 54.7437 31.2847 53.9464 31.0686ZM53.2184 39.1514C52.6769 38.7398 52.3411 38.3433 52.4717 38.2696C52.8168 38.076 54.34 38.8587 54.479 39.301C54.6894 39.9716 54.2247 39.9164 53.2184 39.1514Z" fill="white"/>
<path d="M47.4244 28.5761C48.0535 29.6325 48.1046 30.1202 47.7321 31.5156C47.2532 33.3092 45.7881 35.8873 44.8981 36.5024C44.1377 37.0283 43.3456 36.2268 42.6482 34.2266C42.1088 32.6786 42.1225 32.563 43.0501 30.7962C44.4033 28.2192 45.4415 26.9816 46.1022 27.158C46.4145 27.2413 47.0095 27.8794 47.4244 28.5761Z" fill="white"/>
<path fill-rule="evenodd" clip-rule="evenodd" d="M59.8889 30.8628C60.1485 31.0929 60.8328 32.1523 61.4093 33.2169C62.449 35.1361 62.4517 35.1736 61.7694 37.8007C61.3914 39.2573 60.928 41.5561 60.7399 42.9089C60.4114 45.2704 60.3024 45.4996 57.9963 48.667C56.233 51.0893 55.5518 51.8028 55.4319 51.3531C55.2101 50.5196 53.7125 49.2321 52.6283 48.9426C52.1388 48.8119 51.7722 48.5909 51.8127 48.4516C51.8536 48.3124 52.7988 46.8017 53.913 45.0949C55.5984 42.5137 56.0727 41.476 56.7355 38.9246C57.5353 35.8446 57.68 32.2745 57.0715 30.6428C56.9076 30.204 56.8073 29.7188 56.8484 29.5647C56.9308 29.2562 59.1413 30.1998 59.8889 30.8628ZM59.7562 34.0714C58.8405 33.8269 58.688 33.698 59.1465 33.5555C59.4827 33.451 59.8363 33.3865 59.9322 33.4122C60.0281 33.4378 60.3025 33.6699 60.5419 33.928C60.8684 34.2801 60.6719 34.3159 59.7562 34.0714ZM58.2341 43.3805C57.631 43.0049 57.2368 42.606 57.3579 42.494C57.6269 42.2462 59.4953 43.4483 59.3993 43.8078C59.3617 43.9487 58.8375 43.7563 58.2341 43.3805Z" fill="white"/>
<path d="M48.7685 43.8735C49.2787 44.1937 50.1052 44.6636 50.6041 44.9181L51.5121 45.3806L50.4427 46.5448C49.5538 47.5129 49.1963 47.662 48.3228 47.4288C47.7451 47.2746 47.2627 46.941 47.2512 46.6872C47.223 46.0737 47.6378 43.2374 47.7512 43.2677C47.8004 43.2808 48.2579 43.5535 48.7685 43.8735Z" fill="white"/>
<path d="M35.5554 75.0283C40.5725 76.8691 50.73 79.6011 52.3433 79.5439L53.5306 79.5019L53.2987 81.4989C53.1706 82.5973 53.0354 83.6413 52.9978 83.8186C52.9606 83.9959 52.0852 84.1547 51.053 84.1714C48.4815 84.213 35.2287 80.7512 31.422 79.0433L28.688 77.8164L28.9766 75.8396C29.1353 74.7524 29.26 73.5642 29.2536 73.1991C29.2437 72.6287 29.3979 72.6054 30.3563 73.0329C30.9692 73.3062 33.3089 74.2041 35.5554 75.0283Z" fill="white"/>
<path fill-rule="evenodd" clip-rule="evenodd" d="M64.9952 34.7525C65.7892 34.9644 67.0778 37.0682 67.6055 39.014C68.0863 40.7869 68.059 41.0125 66.9803 44.2104C65.9465 47.2753 65.6492 47.787 63.4038 50.3616C60.3496 53.8634 59.8758 54.1713 58.2934 53.6829L58.3852 53.5811L58.5028 53.4655C59.6945 53.6014 60.1312 53.4454 60.9489 52.5902C62.1305 51.3543 62.1297 50.3859 60.9464 50.07C59.0789 49.5715 59.0159 49.3105 60.3259 47.5029C61.4108 46.0065 61.5689 45.5444 61.9999 42.6072C62.2616 40.8233 62.7343 38.1538 63.0507 36.6745C63.5279 34.4446 63.703 34.0406 64.0768 34.3065C64.3245 34.4831 64.7377 34.6837 64.9952 34.7525ZM67.225 38.9918C67.3757 39.4719 66.0019 39.1051 65.1319 38.4331C64.6325 38.0472 64.7632 38.0165 65.8063 38.2742C66.5179 38.4503 67.1564 38.7731 67.225 38.9918ZM63.873 45.9722C63.2322 45.573 62.9731 45.2386 63.2441 45.16C63.4976 45.0867 63.9413 45.2434 64.2298 45.5077C65.1892 46.387 64.9785 46.6609 63.873 45.9722Z" fill="white"/>
<path d="M54.4639 50.8567C55.0052 51.3529 55.0093 51.5559 54.4934 52.2592C53.3643 53.7995 52.272 54.0119 50.8163 52.975C50.2548 52.5751 50.5339 51.1056 51.3937 49.9329C51.8852 49.2624 52.0696 49.2366 52.8924 49.7226C53.4086 50.0273 54.1158 50.5379 54.4639 50.8567Z" fill="white"/>
<path d="M60.6394 50.7117C61.4398 50.932 61.219 51.6485 60.0986 52.4674C59.397 52.9801 58.9682 53.0296 58.1707 52.6896C57.0731 52.2216 57.0387 51.8258 57.9832 50.5372C58.4581 49.8896 58.7308 49.8061 59.3058 50.1327C59.7043 50.359 60.3041 50.6197 60.6394 50.7117Z" fill="white"/>
<path d="M43.7666 3.78042C43.6174 5.88366 41.9011 10.7433 41.2371 10.9432C39.6885 11.4088 39.6385 11.004 40.8043 7.43211C41.9261 3.99602 42.8727 2.24484 43.5153 2.41639C43.7033 2.46658 43.8164 3.0802 43.7666 3.78042Z" fill="white"/>
<path fill-rule="evenodd" clip-rule="evenodd" d="M42.1265 2.27778C40.5418 4.16141 38.5076 10.7885 31.8537 35.7441L28.1801 49.5219L28.3592 54.0097C28.458 56.4783 28.8223 61.4539 29.1688 65.0669C29.6397 69.9737 29.6706 71.6021 29.2914 71.5009C28.8675 71.3877 28.697 71.8531 28.2586 74.3226C27.7987 76.9143 27.6642 77.2614 27.1706 77.1296C26.115 76.8478 25.4726 78.4423 23.4812 86.2837L21.5228 93.995L23.5 94.9882C26.645 96.5679 35.2578 99.1208 40.2963 99.9663C45.2457 100.797 50.7388 101.334 55.6954 101.471C58.3361 101.544 58.9475 101.447 58.9276 100.96C58.9138 100.63 59.4183 97.4622 60.0481 93.9214C61.5975 85.2143 61.5471 84.2158 59.4835 82.7022C58.7875 82.1917 57.3746 81.5488 56.3441 81.2737C54.6364 80.8178 54.4709 80.6931 54.4783 79.8646C54.485 79.1172 54.2748 78.8993 53.2956 78.6378C52.4099 78.4014 52.0948 78.13 52.0651 77.5776C52.0137 76.6237 54.1627 74.057 57.3363 71.2827C59.3765 69.4988 60.0243 68.6597 61.284 66.1668C63.557 61.67 65.6373 55.916 67.5832 48.7443L69.3348 42.2881L68.8254 40.1479C67.7651 35.6934 66.6302 34.0957 64.0337 33.4026C62.8901 33.0973 62.3384 32.6738 61.3622 31.3509C60.3319 29.955 59.8155 29.5766 58.184 29.0219C57.1125 28.6579 55.7612 27.9327 55.181 27.4112C52.8705 25.3331 48.922 24.3985 46.705 25.4054C46.0101 25.7209 45.3938 25.8989 45.3355 25.801C45.2771 25.7034 46.036 22.3188 47.0215 18.28C48.9241 10.4827 49.1873 8.27179 48.5124 5.75466C48.0174 3.90872 47.2047 3.14259 44.6906 2.15329C42.8993 1.44805 42.8212 1.452 42.1265 2.27778ZM43.7666 3.78042C43.6174 5.88366 41.9011 10.7433 41.2371 10.9432C39.6885 11.4088 39.6385 11.004 40.8043 7.43211C41.9261 3.99602 42.8727 2.24484 43.5153 2.41639C43.7033 2.46658 43.8164 3.0802 43.7666 3.78042ZM47.1144 4.75211C48.1414 6.22738 48.1223 9.41779 47.0611 13.5664L46.0576 17.4892L44.7138 17.2442C43.066 16.9435 43.1409 17.6216 44.8046 18.0657L46.005 18.3862L45.4287 20.6921C45.1118 21.9605 44.5991 24.2044 44.2899 25.6789C43.7399 28.2991 43.7047 28.3622 42.7383 28.4533C42.1942 28.5048 41.0108 28.3613 40.1084 28.1342C38.0137 27.6078 38.9761 28.4715 41.1832 29.0989C42.1245 29.3666 42.6152 29.6718 42.5376 29.9415C42.2064 31.0881 40.6799 33.469 38.9191 35.5837C37.0938 37.7759 36.895 38.1762 35.9598 41.5353C35.4083 43.5158 34.8825 46.3461 34.7912 47.8249L34.6254 50.5137L36.4798 44.2672C38.2604 38.2692 38.3969 37.9471 39.909 36.1635C40.7747 35.1422 41.551 34.3244 41.6337 34.3464C41.7164 34.3685 42.1591 35.0606 42.6174 35.8845C43.5497 37.5593 44.1512 37.8693 45.1841 37.2074C46.2148 36.5467 47.9169 33.6231 48.4638 31.5746C48.8801 30.0149 48.8327 29.5963 48.0897 28.261C47.2901 26.8242 47.2858 26.7451 48.018 26.9406C48.9261 27.183 50.171 28.6847 50.4728 29.9019C51.021 32.1086 49.718 36.6128 47.6645 39.6111C46.8587 40.7873 46.7016 41.3896 46.2622 44.9871C45.7872 48.8717 45.8051 49.0933 46.6923 50.3851C48.4573 52.9545 48.9413 57.1932 48.3528 64.9284L48.0135 69.3929L48.9122 66.1593C49.4138 64.3546 49.8116 62.0455 49.8127 60.934C49.8136 59.8388 49.8918 58.8991 49.9863 58.846C50.1948 58.7285 51.9496 60.8474 53.1991 62.7253L54.1118 64.0972L53.6423 62.332C53.3255 61.1404 52.6009 59.9404 51.4127 58.6393C50.4445 57.5792 49.6422 56.4631 49.6299 56.1592C49.6176 55.8552 49.569 55.3361 49.5219 55.0058C49.4486 54.4895 49.6968 54.4975 51.2901 55.0638C53.194 55.7408 53.872 55.6077 55.2965 54.2767C55.7157 53.885 56.018 53.9286 57.2106 54.5541C59.517 55.7631 60.2752 55.4244 63.7583 51.6278L66.789 48.3245L66.1264 50.8024C64.8626 55.5266 61.1231 64.9191 59.3124 67.9162C58.9299 68.5498 57.6252 69.8993 56.4134 70.915C55.202 71.9307 53.4951 73.597 52.621 74.6176C51.3033 76.156 51.0507 76.6472 51.1442 77.4896C51.2065 78.0484 51.2397 78.5722 51.218 78.6535C51.1963 78.7348 48.7056 78.1424 45.6834 77.3371C39.3792 75.657 31.6713 72.9426 31.1087 72.2039C30.3715 71.236 29.0973 55.7427 29.3443 50.7437C29.4823 47.9476 34.4409 28.5209 37.6243 18.304L39.6775 11.7148L40.8245 11.688C42.3103 11.6532 42.9546 10.5388 43.9233 6.32646L44.6567 3.13835L45.652 3.60994C46.1994 3.86905 46.8574 4.38325 47.1144 4.75211ZM54.3537 28.0587C57.3382 31.3181 56.8649 38.4945 53.3132 43.8415C52.4089 45.2035 51.7466 45.992 51.842 45.594C51.9867 44.9888 51.6858 44.7048 50.0075 43.8632C48.8382 43.2766 47.9729 42.6203 47.9351 42.2917C47.8999 41.9813 48.4021 40.8152 49.0518 39.7005C52.4326 33.8986 52.7049 29.3718 49.8351 26.6757L48.7385 25.6458L51.1661 26.437C52.6849 26.9325 53.878 27.5393 54.3537 28.0587ZM59.8889 30.8628C60.1485 31.0929 60.8328 32.1523 61.4093 33.2169C62.449 35.1361 62.4517 35.1736 61.7694 37.8007C61.3914 39.2573 60.928 41.5561 60.7399 42.9089C60.4114 45.2704 60.3024 45.4996 57.9963 48.667C56.233 51.0893 55.5518 51.8028 55.4319 51.3531C55.2101 50.5196 53.7125 49.2321 52.6283 48.9426C52.1388 48.8119 51.7722 48.5909 51.8127 48.4516C51.8536 48.3124 52.7988 46.8017 53.913 45.0949C55.5984 42.5137 56.0727 41.476 56.7355 38.9246C57.5353 35.8446 57.68 32.2745 57.0715 30.6428C56.9076 30.204 56.8073 29.7188 56.8484 29.5647C56.9308 29.2562 59.1413 30.1998 59.8889 30.8628ZM47.4244 28.5761C48.0535 29.6325 48.1046 30.1202 47.7321 31.5156C47.2532 33.3092 45.7881 35.8873 44.8981 36.5024C44.1377 37.0283 43.3456 36.2268 42.6482 34.2266C42.1088 32.6786 42.1225 32.563 43.0501 30.7962C44.4033 28.2192 45.4415 26.9816 46.1022 27.158C46.4145 27.2413 47.0095 27.8794 47.4244 28.5761ZM53.2303 30.5185C52.7767 30.6598 52.9609 30.8011 53.9464 31.0686C54.7437 31.2847 55.2239 31.2697 55.149 31.0307C54.9914 30.528 54.0275 30.2707 53.2303 30.5185ZM64.9952 34.7525C65.7892 34.9644 67.0778 37.0682 67.6055 39.014C68.0863 40.7869 68.059 41.0125 66.9803 44.2104C65.9465 47.2753 65.6492 47.787 63.4038 50.3616C60.3496 53.8634 59.8758 54.1713 58.2934 53.6829L58.3852 53.5811L58.5028 53.4655C59.6945 53.6014 60.1312 53.4454 60.9489 52.5902C62.1305 51.3543 62.1297 50.3859 60.9464 50.07C59.0789 49.5715 59.0159 49.3105 60.3259 47.5029C61.4108 46.0065 61.5689 45.5444 61.9999 42.6072C62.2616 40.8233 62.7343 38.1538 63.0507 36.6745C63.5279 34.4446 63.703 34.0406 64.0768 34.3065C64.3245 34.4831 64.7377 34.6837 64.9952 34.7525ZM59.1465 33.5555C58.688 33.698 58.8405 33.8269 59.7562 34.0714C60.6719 34.3159 60.8684 34.2801 60.5419 33.928C60.3025 33.6699 60.0281 33.4378 59.9322 33.4122C59.8363 33.3865 59.4827 33.451 59.1465 33.5555ZM65.1319 38.4331C66.0019 39.1051 67.3757 39.4719 67.225 38.9918C67.1564 38.7731 66.5179 38.4503 65.8063 38.2742C64.7632 38.0165 64.6325 38.0472 65.1319 38.4331ZM52.4717 38.2696C52.3411 38.3433 52.6769 38.7398 53.2184 39.1514C54.2247 39.9164 54.6894 39.9716 54.479 39.301C54.34 38.8587 52.8168 38.076 52.4717 38.2696ZM57.3579 42.494C57.2368 42.606 57.631 43.0049 58.2341 43.3805C58.8375 43.7563 59.3617 43.9487 59.3993 43.8078C59.4953 43.4483 57.6269 42.2462 57.3579 42.494ZM63.2441 45.16C62.9731 45.2386 63.2322 45.573 63.873 45.9722C64.9785 46.6609 65.1892 46.387 64.2298 45.5077C63.9413 45.2434 63.4976 45.0867 63.2441 45.16ZM39.0735 40.1513C38.93 40.6887 39.2858 41.155 40.8037 42.4195C41.3868 42.905 41.1181 41.9222 40.5202 41.3818C40.1477 41.0451 40.0972 40.9194 40.4078 41.1025C41.2833 41.6183 41.1498 41.2197 40.1478 40.3269C39.2986 39.57 39.2316 39.559 39.0735 40.1513ZM48.7685 43.8735C49.2787 44.1937 50.1052 44.6636 50.6041 44.9181L51.5121 45.3806L50.4427 46.5448C49.5538 47.5129 49.1963 47.662 48.3228 47.4288C47.7451 47.2746 47.2627 46.941 47.2512 46.6872C47.223 46.0737 47.6378 43.2374 47.7512 43.2677C47.8004 43.2808 48.2579 43.5535 48.7685 43.8735ZM60.6394 50.7117C61.4398 50.932 61.219 51.6485 60.0986 52.4674C59.397 52.9801 58.9682 53.0296 58.1707 52.6896C57.0731 52.2216 57.0387 51.8258 57.9832 50.5372C58.4581 49.8896 58.7308 49.8061 59.3058 50.1327C59.7043 50.359 60.3041 50.6197 60.6394 50.7117ZM54.4639 50.8567C55.0052 51.3529 55.0093 51.5559 54.4934 52.2592C53.3643 53.7995 52.272 54.0119 50.8163 52.975C50.2548 52.5751 50.5339 51.1056 51.3937 49.9329C51.8852 49.2624 52.0696 49.2366 52.8924 49.7226C53.4086 50.0273 54.1158 50.5379 54.4639 50.8567ZM46.123 75.3405C45.356 75.3536 42.647 74.7175 39.617 73.8128C34.7066 72.3463 34.5225 72.315 36.2204 73.237C39.6877 75.1188 47.2503 76.7175 47.5407 75.6297C47.5886 75.4501 47.5851 75.3063 47.5325 75.3101C47.4799 75.3142 46.8458 75.3279 46.123 75.3405ZM35.5554 75.0283C40.5725 76.8691 50.73 79.6011 52.3433 79.5439L53.5306 79.5019L53.2987 81.4989C53.1706 82.5973 53.0354 83.6413 52.9978 83.8186C52.9606 83.9959 52.0852 84.1547 51.053 84.1714C48.4815 84.213 35.2287 80.7512 31.422 79.0433L28.688 77.8164L28.9766 75.8396C29.1353 74.7524 29.26 73.5642 29.2536 73.1991C29.2437 72.6287 29.3979 72.6054 30.3563 73.0329C30.9692 73.3062 33.3089 74.2041 35.5554 75.0283Z" fill="black"/>
</svg>
