<svg width="124" height="38" viewBox="0 0 124 38" fill="none" xmlns="http://www.w3.org/2000/svg">
<g clip-path="url(#clip0_2031_24481)">
<path d="M87.0197 37.6157C85.0741 37.0029 82.8133 35.875 82.4919 35.3567C82.3144 35.0707 83.3136 31.3529 83.7025 30.8529C83.7506 30.791 84.8899 31.319 86.2344 32.0262C88.3936 33.162 88.9878 33.2929 91.3267 33.1482C93.5935 33.008 94.1157 32.821 94.9555 31.8486C96.5968 29.9482 96.1245 27.5869 93.8711 26.4262C92.3347 25.6349 89.9975 25.6317 87.397 26.4175C86.2773 26.7558 85.2325 27.0345 85.0753 27.037C84.9181 27.0395 85.0801 26.192 85.4353 25.1538L86.0811 23.266L84.7267 21.9527C80.3013 17.6611 81.927 10.2937 87.8494 7.79973C89.1363 7.25782 90.6307 7.11581 94.5131 7.16654C98.0753 7.21308 100.033 7.05097 101.304 6.60409C102.287 6.25879 103.233 5.97627 103.407 5.97627C103.581 5.97627 103.437 7.10842 103.087 8.49216L102.451 11.008L100.853 10.8562C99.9736 10.7727 99.2544 10.7476 99.2544 10.8003C99.2544 10.853 99.721 11.5808 100.291 12.4177C101.081 13.577 101.328 14.4715 101.328 16.174C101.328 18.7672 100.641 20.3053 98.7917 21.8554L97.4699 22.9632L98.9929 24.2135C101.015 25.8733 101.743 27.3876 101.743 29.9329C101.743 32.4374 101.057 33.9022 99.0741 35.6366C96.4357 37.9438 90.9307 38.8478 87.0204 37.6162L87.0197 37.6157ZM93.6158 20.3753C94.7284 19.8704 95.9362 17.7646 95.9362 16.3296C95.9362 14.9385 94.8415 12.6934 93.925 12.2049C89.3959 9.79079 85.4059 16.4857 89.3859 19.821C90.7177 20.9371 92.0057 21.1058 93.6156 20.3752L93.6158 20.3753ZM35.8044 28.9976C35.0079 28.733 33.391 27.5805 32.2114 26.4364C29.6106 23.9142 28.5199 20.8806 28.8621 17.1215C29.5629 9.42401 37.1834 4.81197 43.6658 8.16134L45.7546 9.24066V0.193359H51.9753V29.1064H46.1693V26.6623L44.068 27.9632C41.7011 29.4286 38.3611 29.8467 35.8044 28.9975L35.8044 28.9976ZM42.5879 23.5805C48.1738 21.2559 46.5435 12.5807 40.5218 12.5865C34.4043 12.5924 32.8425 21.0638 38.4971 23.5673C40.1007 24.2771 40.9083 24.2798 42.5879 23.5808V23.5805ZM111.277 29.1335C108.426 28.2696 105.866 26.1125 104.383 23.3236C103.809 22.2422 103.615 20.9932 103.617 18.3671C103.619 15.3736 103.781 14.5519 104.713 12.791C106.004 10.3521 107.097 9.28924 109.602 8.03602C111.803 6.9351 115.687 6.79012 117.928 7.72524C121.438 9.18997 123.842 13.1142 123.896 17.4698L123.929 20.0831L116.775 20.0342C110.88 19.9939 109.621 20.0876 109.621 20.5662C109.621 21.6602 111.288 23.2588 113.18 23.9783C114.777 24.5857 115.446 24.6283 117.478 24.252C118.802 24.0069 120.677 23.4252 121.645 22.9593L123.405 22.1124L123.143 23.4184C122.274 27.7434 122.25 27.7764 119.311 28.6806C116.563 29.5257 113.198 29.7155 111.277 29.1335L111.277 29.1335ZM118.019 15.7133C117.962 15.5826 117.915 15.1826 117.915 14.8243C117.915 14.4661 117.37 13.6297 116.703 12.9657C114.95 11.2198 112.911 11.2906 111.031 13.1626C110.255 13.935 109.621 14.9108 109.621 15.3311C109.621 16.0296 109.986 16.0891 113.872 16.023C116.21 15.9833 118.076 15.8439 118.019 15.7132L118.019 15.7133ZM6.09546 14.7529L12.378 0.399633H17.2567L23.212 14.0189C26.4874 21.5095 29.2752 27.9765 29.407 28.3903C29.6269 29.0803 29.3809 29.1324 26.4275 29.0212L23.2082 28.8999L21.019 23.5304L8.51035 23.3028L6.22415 29.1065H-0.186523L6.09546 14.7529ZM18.3818 17.6259C18.3818 17.4455 17.5575 15.2616 16.5499 12.7727C14.8877 8.66666 14.6807 8.3432 14.316 9.28007C14.0948 9.848 13.2396 11.9751 12.4154 14.0069C11.5913 16.0389 10.9169 17.7582 10.9169 17.8276C10.9169 17.897 12.5965 17.9538 14.6494 17.9538C16.7022 17.9538 18.3818 17.8062 18.3818 17.6258V17.6259ZM54.0569 28.7963C54.0622 28.6259 56.8275 22.1669 60.2018 14.443L66.337 0.399551H71.2361L83.8157 29.1379L77.2113 28.8994L74.9653 23.5298L62.4807 23.3026L60.1946 29.1058H57.1209C55.4304 29.1058 54.0515 28.9664 54.0568 28.796L54.0569 28.7963ZM70.7687 13.3072C69.7391 10.7515 68.845 8.60631 68.7819 8.54064C68.7188 8.47496 67.8505 10.4175 66.8523 12.8582C65.8541 15.2987 64.9752 17.4438 64.8991 17.6247C64.8231 17.8058 66.5339 17.9541 68.7009 17.9541H72.6408L70.7687 13.3072Z" fill="#383737"/>
</g>
<defs>
<clipPath id="clip0_2031_24481">
<rect width="124" height="38" fill="white"/>
</clipPath>
</defs>
</svg>
