<svg width="13" height="10" viewBox="0 0 13 10" fill="none" xmlns="http://www.w3.org/2000/svg">
<path d="M11.4943 5.25022L11.7514 4.99958L11.4943 4.74894C10.9917 4.25905 10.4892 3.76786 9.98644 3.27645C9.20893 2.51645 8.43088 1.75592 7.65103 0.998868L7.40801 0.762952L7.16425 0.998097C7.0235 1.13386 6.88395 1.271 6.74595 1.40744L6.49424 1.65633L6.74596 1.90521C7.28337 2.43657 7.83327 2.97265 8.38207 3.50764C8.67321 3.79147 8.96404 4.07498 9.25253 4.35733C7.4036 4.35854 6.47264 4.35833 5.4108 4.3581C4.46154 4.35789 3.40768 4.35766 1.49987 4.35839L1.15 4.35853L1.15 4.70839L1.15 5.29077L1.15 5.64064L1.49987 5.64077C3.28033 5.64145 4.31678 5.6413 5.21878 5.64116C6.36377 5.64099 7.29215 5.64085 9.25075 5.6425C8.85687 6.02884 8.46226 6.41348 8.06721 6.79856C7.6275 7.22717 7.18723 7.65633 6.74677 8.08897L6.49571 8.33558L6.74369 8.58529C6.88275 8.72531 7.02267 8.86365 7.16432 9.00114L7.4086 9.23826L7.65239 9.00064C8.29316 8.3761 8.93327 7.75074 9.57321 7.12556L9.57363 7.12515C10.2138 6.49978 10.8537 5.87457 11.4943 5.25022Z" fill="white" stroke="white" stroke-width="0.7"/>
</svg>
