<svg width="98" height="98" viewBox="0 0 98 98" fill="none" xmlns="http://www.w3.org/2000/svg">
<g clip-path="url(#clip0_1954_81542)">
<circle cx="22.8062" cy="46.4514" r="20.1078" transform="rotate(7 22.8062 46.4514)" fill="white"/>
<circle cx="74.2037" cy="52.762" r="20.1078" transform="rotate(7 74.2037 52.762)" fill="white"/>
<path d="M14.839 26.5446C19.3968 24.7413 24.6245 24.3655 29.3003 25.9618C36.9487 28.2859 42.9392 35.2472 44.0732 43.1653C44.2216 43.2544 44.5145 43.4275 44.6629 43.5165C44.5602 43.6322 44.3629 43.8691 44.2646 43.9853C44.6129 48.3202 43.8965 52.7854 41.788 56.624C38.3745 63.0899 31.4219 67.5682 24.105 67.9132C19.1183 68.3452 14.0946 66.6266 10.0703 63.7253C4.97709 60.0866 1.77712 54.0387 1.39912 47.8196C0.630484 38.8357 6.41218 29.7312 14.839 26.5446ZM21.4778 26.7845C16.4368 27.0815 11.6178 29.4987 8.23928 33.23C4.58006 37.1569 2.728 42.6907 3.1918 48.0309C3.50799 53.1318 6.09184 57.927 9.84766 61.3218C13.4579 64.4245 18.1839 66.2968 22.966 66.1981C29.1788 66.16 35.2993 63.0177 38.8917 57.9409C41.5644 54.2646 42.8121 49.6522 42.549 45.1287C42.1704 40.3918 40.1463 35.7583 36.7072 32.451C32.7318 28.538 27.0713 26.2766 21.4778 26.7845Z" fill="black"/>
<path d="M76.3504 31.3143C82.1699 32.0642 87.7862 35.0459 91.2994 39.8048C94.7493 44.3214 96.184 50.2233 95.4946 55.8379C94.5237 61.5108 91.444 66.916 86.6749 70.2243C82.3364 73.4129 76.7767 74.6551 71.4611 74.1617C66.0488 73.3379 60.8193 70.6294 57.4688 66.24C54.6906 62.9918 53.1186 58.8208 52.7395 54.5927C52.0839 47.4988 55.2339 40.1155 60.9629 35.8366C65.2234 32.3463 70.9074 30.8849 76.3504 31.3143ZM74.9144 33.0273C69.3793 32.8433 63.7808 35.0498 59.9633 39.0767C57.1458 42.0229 55.1413 45.8432 54.6463 49.9108C53.6236 56.3296 56.1215 63.194 61.027 67.4601C64.8821 70.9114 70.1378 72.8665 75.3261 72.4504C80.5639 72.2085 85.5492 69.6259 89.0102 65.7278C92.4717 61.7899 94.3061 56.3999 93.8027 51.1655C93.4426 45.8822 90.7243 40.8846 86.6782 37.5117C83.3662 34.8262 79.1849 33.1667 74.9144 33.0273Z" fill="black"/>
<path d="M17.5186 34.5193C20.46 34.1326 23.779 34.3101 26.3429 35.9523C23.1772 37.3734 22.6945 42.3496 25.582 44.275C27.4876 45.7656 30.4073 45.6993 32.1609 43.9943C32.4396 43.6701 32.7304 43.3562 33.037 43.0576C34.1197 46.2039 34.402 49.743 33.1745 52.8932C31.3861 58.3773 25.8296 62.3677 20.054 62.2692C17.8981 62.1328 15.6837 61.8609 13.7541 60.8187C9.37295 58.6966 6.32986 54.1459 6.03708 49.2868C5.36837 42.4081 10.6434 35.5203 17.5186 34.5193ZM17.8836 54.9716C16.8192 55.2436 16.078 56.3428 16.1839 57.4267C16.1876 58.8741 17.7413 59.9144 19.1065 59.6794C20.0285 59.3412 20.9656 58.6288 20.961 57.5486C21.3366 55.8956 19.4049 54.4017 17.8836 54.9716Z" fill="black"/>
<path d="M63.5307 43.0743C67.6414 40.1187 73.3097 39.9386 77.82 42.0898C77.3606 42.5157 76.8734 42.916 76.3681 43.2832C74.4256 45.5536 74.8573 49.4253 77.532 50.9219C79.8641 52.4339 82.8908 51.4604 84.5565 49.4259C85.9142 53.252 85.7474 57.6741 83.7641 61.2492C81.7038 65.1999 77.6116 67.932 73.2124 68.5157C69.0563 68.9214 64.6541 67.6198 61.6977 64.5974C59.7911 62.8633 58.5646 60.4914 57.9028 58.0252C56.4777 52.5138 58.7776 46.2518 63.5307 43.0743ZM68.0911 61.9709C67.2911 63.3329 67.5835 65.4927 69.3613 65.8614C71.2581 66.6297 73.1914 64.3626 72.268 62.5855C71.6176 60.8552 69.3166 60.8912 68.0911 61.9709Z" fill="black"/>
</g>
<defs>
<clipPath id="clip0_1954_81542">
<rect width="98" height="98" fill="white"/>
</clipPath>
</defs>
</svg>
