<svg width="255" height="200" viewBox="0 0 255 200" fill="none" xmlns="http://www.w3.org/2000/svg">
<g clip-path="url(#clip0_1954_81705)">
<path d="M62.5324 96.3115C63.0007 94.6383 64.7015 93.6214 66.3385 93.4035C68.4562 93.1431 70.5193 93.9648 72.3474 94.9543C75.28 96.5781 77.8342 98.7959 80.2375 101.114C83.1676 103.992 85.8643 107.103 88.3306 110.386C90.4049 113.065 91.9227 116.118 93.3567 119.17C95.0279 122.941 96.4082 126.985 96.2859 131.16C96.2259 133.643 95.3764 136.099 93.789 138.019C95.2792 137.418 96.4585 136.264 97.397 134.989C97.1968 136.318 96.4829 137.575 95.322 138.287C93.1109 139.74 90.2482 139.487 87.8576 138.65C83.5681 137.133 80.0666 134.002 77.1666 130.581C79.9671 127.804 82.8137 125.075 85.6867 122.372C86.861 121.198 87.1518 119.404 86.8621 117.82C86.3997 115.278 84.9601 112.975 83.0673 111.245C81.7571 110.078 80.0965 109.101 78.285 109.177C77.3089 109.188 76.4595 109.711 75.6215 110.144C72.5768 111.687 69.5241 113.217 66.5245 114.844C64.6241 110.977 63.2116 106.853 62.4701 102.605C62.163 100.531 61.9204 98.3538 62.5324 96.3115Z" fill="white"/>
<path d="M52.0305 117.554C55.0667 113.909 57.6476 109.814 59.1442 105.29C61.231 113.331 64.6833 121.048 69.5099 127.823C72.9249 132.552 77.0544 136.871 82.0809 139.897C73.3159 139.738 64.7008 142.07 56.6737 145.443C54.3764 146.522 51.6412 146.051 49.4174 147.336C46.843 148.877 44.2807 150.445 41.7068 151.99C40.5237 152.732 39.0693 153.009 37.6988 152.747C35.2097 152.281 33.1337 150.572 31.6697 148.573C30.0956 146.328 29.0831 143.663 28.8422 140.931C28.6816 139.018 29.1866 136.86 30.8185 135.682C38.4608 130.373 46.0273 124.731 52.0305 117.554ZM61.133 118.749C61.84 121.741 62.9012 124.639 64.0631 127.484C54.2735 133.71 44.484 139.937 34.6993 146.168C33.559 145.638 32.5894 144.809 31.8231 143.82C32.3205 146.834 34.4722 149.443 37.1963 150.749C38.4301 151.303 40.0085 151.657 41.2057 150.831C46.1101 147.824 50.8523 144.564 55.7058 141.477C57.2911 140.481 58.8593 139.439 60.5462 138.618C58.7209 140.245 56.8397 141.812 55.0996 143.53C54.5856 144.052 54.021 144.564 53.7613 145.269C54.8799 145.073 55.8166 144.394 56.8062 143.879C62.3467 141.093 68.1471 138.708 74.2477 137.479C71.9621 135.735 70.1036 133.504 68.425 131.189C65.6083 127.282 63.3008 123.041 61.133 118.749Z" fill="white"/>
<path d="M77.6449 111.081C78.7827 110.379 80.1787 110.937 81.1689 111.642C83.1687 113.086 84.6928 115.242 85.3075 117.639C85.6111 118.915 85.5596 120.598 84.3364 121.387C82.6349 122.647 80.9543 123.94 79.1882 125.109C80.6828 123.777 82.2902 122.572 83.7165 121.166C81.2178 120.662 79.3961 118.528 78.4102 116.291C77.8295 115.049 77.7233 113.655 77.9549 112.318C76.5852 113.609 76.9698 115.778 77.7313 117.287C75.6274 118.552 73.4949 119.776 71.421 121.092C70.646 121.606 71.0678 122.658 71.1663 123.392C69.991 121.506 68.7611 119.639 67.8352 117.613C67.6269 117.229 67.5375 116.639 68.0534 116.462C71.2826 114.728 74.4935 112.953 77.6449 111.081ZM79.0672 113.184C78.8893 114.221 79.262 115.246 79.6458 116.194C80.2998 115.706 80.9824 114.873 81.8755 115.005C83.1271 115.637 83.6521 117.055 84.3875 118.168C84.095 116.413 83.0717 114.877 81.8729 113.606C81.2787 113.033 80.6246 112.387 79.7655 112.291C79.3176 112.333 79.138 112.806 79.0672 113.184Z" fill="white"/>
<path d="M22.4499 144.062C22.9377 141.567 24.6368 139.364 26.9553 138.305C26.3535 142.475 27.491 146.828 29.9063 150.263C31.8923 153.134 34.9746 155.312 38.4637 155.845C36.3675 155.752 34.216 155.384 32.3942 154.285C30.5883 153.224 29.2358 151.551 28.2197 149.745C26.9235 150.455 25.6324 151.172 24.339 151.887C24.3636 152.565 24.3946 153.243 24.4155 153.924C22.6208 151.018 21.7454 147.441 22.4499 144.062Z" fill="white"/>
<path d="M55.599 147.866C56.6555 147.775 57.5295 147.101 58.2945 146.423C58.0225 147.529 57.7406 148.637 57.5448 149.76C57.358 150.668 58.0227 151.482 58.7431 151.94C59.5217 152.377 60.3449 152.727 61.1401 153.137C60.1705 152.144 58.8783 151.126 58.8731 149.613C60.0432 150.027 61.2495 150.353 62.391 150.837C62.8281 151.357 63.0092 152.083 62.9589 152.751C62.0178 154.754 60.7843 156.662 60.2376 158.827C60.877 158.96 61.5741 158.832 62.1752 159.119C65.6439 161.31 68.9442 163.759 72.3964 165.977C72.7128 166.18 73.0571 166.501 72.9459 166.925C72.773 167.926 72.3654 168.876 72.2289 169.889C73.344 168.77 73.5592 167.047 74.7524 165.986C74.8816 166.223 74.912 166.47 74.8395 166.726C74.4242 168.287 73.7518 169.784 72.8629 171.131C72.6538 171.487 72.1927 171.426 71.9137 171.2C66.5776 167.505 61.2426 163.805 55.9063 160.109C55.2334 159.654 54.6353 159 53.7961 158.873C52.1873 158.577 50.9473 160.536 49.3401 159.823C46.6984 158.078 44.0724 156.301 41.4004 154.6C44.8054 152.561 48.1455 150.416 51.537 148.355C52.8393 147.935 54.2417 147.942 55.599 147.866ZM50.395 150.078C51.1681 150.547 52.0784 150.92 52.5841 151.71C52.5329 153.105 52.1854 154.488 52.021 155.879C51.8653 157.217 50.7543 158.28 49.4447 158.513C49.9298 158.68 50.4738 158.886 50.9579 158.591C51.7951 158.152 52.5765 157.433 53.5999 157.603C54.1151 155.653 54.6303 153.702 55.1518 151.753C55.22 151.205 55.7908 151.012 56.1942 150.752C56.6071 151.082 57.0183 151.414 57.4159 151.764C56.7932 150.708 56.7149 149.433 57.0925 148.281C55.9726 148.827 54.709 149.108 53.463 148.955C52.3109 148.704 51.3012 149.484 50.395 150.078Z" fill="white"/>
<path d="M63.1261 153.032C63.4955 153.8 63.8941 154.586 64.5331 155.17C67.5982 157.924 71.0002 160.327 74.7116 162.126C75.0188 162.253 75.2111 162.529 75.3993 162.792C75.2199 162.961 75.0303 163.118 74.8307 163.262C74.1135 163.199 73.4853 162.811 72.8634 162.48C69.6726 160.728 66.7633 158.516 63.9619 156.204C63.7951 156.044 63.5778 155.903 63.5359 155.661C63.338 154.795 63.312 153.901 63.1261 153.032Z" fill="white"/>
<path d="M79.157 81.436C81.4068 76.2238 83.6018 70.987 85.8734 65.7838C85.3538 69.6801 84.8047 73.5706 84.2705 77.465C85.7885 77.1338 87.2978 76.7712 88.8181 76.4418C86.9774 81.5709 85.1342 86.6964 83.2955 91.8252C83.7376 87.9444 84.3501 84.0814 84.8503 80.2063C82.9535 80.6181 81.0559 81.0382 79.157 81.436Z" fill="#FB3E2D"/>
<path d="M93.7526 81.6131C99.5569 76.3942 105.327 71.1354 111.128 65.9128C108.227 70.4809 105.302 75.0341 102.396 79.5968C104.474 80.0481 106.557 80.4802 108.637 80.9229C103.379 86.2882 98.1177 91.6537 92.8375 96.9996C95.7254 92.4355 98.65 87.8987 101.543 83.342C98.9435 82.7798 96.3521 82.1754 93.7526 81.6131Z" fill="#FB3E2D"/>
<path d="M109.196 92.6896C118.097 88.2865 126.972 83.8281 135.886 79.4478C130.555 84.0545 125.2 88.632 119.868 93.2369C122.216 94.2312 124.539 95.2906 126.87 96.3304C118.269 101.315 109.69 106.337 101.084 111.31C106.384 106.475 111.733 101.689 117.068 96.8939C114.458 95.47 111.815 94.102 109.196 92.6896Z" fill="#FB3E2D"/>
<path d="M107.412 115.947C114.049 113.395 120.661 110.783 127.295 108.226C126.782 109.695 126.277 111.165 125.769 112.637C131.337 112.879 136.905 113.097 142.472 113.366C134.456 114.647 126.434 115.894 118.416 117.163C118.86 115.945 119.465 114.798 120.054 113.647C115.84 114.408 111.637 115.243 107.412 115.947Z" fill="#FB3E2D"/>
<path d="M109.26 126.189C115.66 126.391 122.058 126.675 128.457 126.935C127.509 127.963 126.569 128.998 125.62 130.022C130.116 132.227 134.631 134.394 139.114 136.625C132.043 134.812 124.982 132.952 117.917 131.118C118.712 130.268 119.631 129.553 120.516 128.802C116.764 127.93 113.012 127.051 109.26 126.189Z" fill="#FB3E2D"/>
<mask id="path-12-inside-1_1954_81705" fill="white">
<path d="M60.0985 91.8252C61.7929 90.3919 64.0684 89.8156 66.2545 89.8519C69.2114 89.8989 72.0714 90.9218 74.622 92.3689C77.915 94.2441 80.8334 96.7108 83.4986 99.3889C88.2659 104.229 92.2811 109.806 95.3985 115.842C97.6976 120.399 99.5733 125.275 100.039 130.394C100.325 133.794 99.8614 137.457 97.8043 140.282C96.2299 142.512 93.4545 143.649 90.7777 143.643C89.076 143.7 87.4447 143.156 85.7812 142.891C81.9831 142.22 78.0809 142.186 74.2638 142.727C69.6147 143.368 65.1074 144.76 60.7015 146.339C60.4956 146.813 60.2974 147.299 60.2474 147.818C61.5892 148.286 63.0025 148.629 64.2144 149.395C64.9431 149.853 64.772 150.811 64.8885 151.543C64.9422 152.652 65.8177 153.425 66.5372 154.167C69.4953 157.012 73.1461 159.011 76.8479 160.717C77.8315 161.156 78.2523 162.285 78.2494 163.302C78.2667 165.159 77.6416 166.947 76.972 168.656C76.3795 170.098 75.7176 171.514 74.951 172.871C74.3418 173.952 72.8252 174.569 71.735 173.824C65.885 169.864 60.141 165.75 54.3771 161.667C53.5832 161.058 52.5748 161.488 51.8155 161.928C50.5953 162.681 49.0358 162.29 47.913 161.546C45.7025 160.046 43.452 158.608 41.1929 157.181C39.1658 158.136 37.1691 159.158 35.1212 160.069C32.7973 160.691 30.2715 160.613 28.0123 159.765C25.8316 158.951 23.9433 157.444 22.5609 155.583C20.0888 152.275 19.0262 147.917 19.7944 143.849C20.2881 141.2 21.6851 138.712 23.7684 136.99C24.6814 136.207 25.7523 135.647 26.7616 135.002C32.9962 131.101 39.0263 126.785 44.252 121.583C48.7737 117.083 52.6012 111.805 54.9947 105.864C56.3079 102.644 57.2173 99.2667 57.8089 95.8425C58.0568 94.2837 58.8896 92.8348 60.0985 91.8252ZM62.5343 96.3109C61.9223 98.3531 62.165 100.531 62.472 102.605C63.2135 106.852 64.6261 110.976 66.5264 114.843C69.526 113.217 72.5787 111.687 75.6234 110.143C76.4615 109.71 77.3108 109.188 78.287 109.176C80.0985 109.1 81.7591 110.078 83.0692 111.244C84.9621 112.975 86.4017 115.278 86.864 117.82C87.1537 119.403 86.8629 121.197 85.6887 122.372C82.8156 125.074 79.969 127.803 77.1685 130.581C80.0685 134.001 83.5701 137.132 87.8596 138.649C90.2501 139.486 93.1128 139.739 95.324 138.287C96.4849 137.575 97.1988 136.317 97.3989 134.989C96.4604 136.263 95.2812 137.417 93.7909 138.019C95.3783 136.098 96.2278 133.642 96.2878 131.16C96.4102 126.985 95.0298 122.94 93.3586 119.17C91.9247 116.117 90.4068 113.065 88.3325 110.385C85.8662 107.103 83.1696 103.991 80.2394 101.113C77.8361 98.7953 75.282 96.5775 72.3493 94.9537C70.5212 93.9642 68.4581 93.1425 66.3405 93.4029C64.7034 93.6207 63.0026 94.6377 62.5343 96.3109ZM52.0325 117.552C46.0293 124.73 38.4628 130.371 30.8204 135.68C29.1886 136.859 28.6836 139.016 28.8442 140.93C29.0851 143.662 30.0975 146.327 31.6716 148.571C33.1357 150.57 35.2116 152.28 37.7007 152.746C39.0712 153.007 40.5257 152.73 41.7087 151.988C44.2826 150.443 46.8449 148.875 49.4194 147.334C51.6431 146.05 54.3784 146.52 56.6756 145.441C64.7027 142.068 73.3179 139.737 82.0828 139.895C77.0564 136.869 72.9269 132.551 69.5119 127.821C64.6852 121.047 61.2329 113.33 59.1461 105.288C57.6496 109.812 55.0687 113.907 52.0325 117.552ZM77.6464 111.081C74.495 112.954 71.2841 114.728 68.0549 116.462C67.539 116.639 67.6284 117.229 67.8367 117.614C68.7626 119.639 69.9925 121.507 71.1678 123.393C71.0693 122.658 70.6475 121.606 71.4225 121.092C73.4964 119.777 75.6289 118.553 77.7328 117.288C76.9713 115.778 76.5867 113.609 77.9564 112.318C77.7248 113.656 77.831 115.049 78.4117 116.291C79.3976 118.528 81.2193 120.662 83.7181 121.166C82.2917 122.572 80.6843 123.778 79.1897 125.11C80.9558 123.94 82.6364 122.648 84.3379 121.387C85.5611 120.599 85.6126 118.915 85.309 117.639C84.6943 115.242 83.1702 113.087 81.1704 111.642C80.1802 110.937 78.7842 110.379 77.6464 111.081ZM22.4506 144.061C21.746 147.441 22.6215 151.018 24.4161 153.923C24.3952 153.243 24.3643 152.564 24.3396 151.887C25.633 151.171 26.9241 150.454 28.2204 149.745C29.2364 151.55 30.5889 153.224 32.3948 154.284C34.2166 155.383 36.3681 155.752 38.4644 155.844C34.9752 155.312 31.893 153.133 29.907 150.262C27.4917 146.827 26.3542 142.475 26.9559 138.304C24.6374 139.364 22.9384 141.567 22.4506 144.061ZM55.6004 147.865C54.2431 147.941 52.8407 147.934 51.5384 148.354C48.1469 150.415 44.8068 152.561 41.4018 154.599C44.0738 156.301 46.6999 158.078 49.3415 159.823C50.9487 160.536 52.1888 158.577 53.7975 158.872C54.6367 159 55.2348 159.654 55.9077 160.109C61.244 163.805 66.579 167.505 71.9151 171.199C72.1941 171.426 72.6552 171.487 72.8643 171.13C73.7532 169.784 74.4256 168.287 74.8409 166.726C74.9134 166.469 74.883 166.222 74.7538 165.986C73.5607 167.046 73.3454 168.77 72.2304 169.888C72.3669 168.876 72.7744 167.926 72.9473 166.924C73.0585 166.501 72.7143 166.179 72.3978 165.977C68.9456 163.759 65.6453 161.31 62.1766 159.119C61.5755 158.832 60.8784 158.959 60.239 158.827C60.7857 156.661 62.0192 154.754 62.9603 152.751C63.0107 152.083 62.8295 151.357 62.3924 150.837C61.2509 150.353 60.0446 150.026 58.8746 149.612C58.8797 151.125 60.1719 152.143 61.1415 153.137C60.3463 152.727 59.5232 152.376 58.7445 151.939C58.0241 151.481 57.3594 150.667 57.5462 149.76C57.742 148.637 58.0239 147.529 58.2959 146.423C57.5309 147.101 56.6569 147.774 55.6004 147.865ZM63.1286 153.031C63.3144 153.9 63.3405 154.794 63.5384 155.66C63.5802 155.902 63.7976 156.044 63.9644 156.203C66.7658 158.515 69.6751 160.727 72.8659 162.479C73.4878 162.81 74.116 163.198 74.8332 163.261C75.0328 163.117 75.2223 162.96 75.4018 162.791C75.2136 162.528 75.0212 162.252 74.7141 162.125C71.0027 160.326 67.6007 157.923 64.5355 155.169C63.8966 154.585 63.4979 153.799 63.1286 153.031Z"/>
</mask>
<path d="M60.0985 91.8252C61.7929 90.3919 64.0684 89.8156 66.2545 89.8519C69.2114 89.8989 72.0714 90.9218 74.622 92.3689C77.915 94.2441 80.8334 96.7108 83.4986 99.3889C88.2659 104.229 92.2811 109.806 95.3985 115.842C97.6976 120.399 99.5733 125.275 100.039 130.394C100.325 133.794 99.8614 137.457 97.8043 140.282C96.2299 142.512 93.4545 143.649 90.7777 143.643C89.076 143.7 87.4447 143.156 85.7812 142.891C81.9831 142.22 78.0809 142.186 74.2638 142.727C69.6147 143.368 65.1074 144.76 60.7015 146.339C60.4956 146.813 60.2974 147.299 60.2474 147.818C61.5892 148.286 63.0025 148.629 64.2144 149.395C64.9431 149.853 64.772 150.811 64.8885 151.543C64.9422 152.652 65.8177 153.425 66.5372 154.167C69.4953 157.012 73.1461 159.011 76.8479 160.717C77.8315 161.156 78.2523 162.285 78.2494 163.302C78.2667 165.159 77.6416 166.947 76.972 168.656C76.3795 170.098 75.7176 171.514 74.951 172.871C74.3418 173.952 72.8252 174.569 71.735 173.824C65.885 169.864 60.141 165.75 54.3771 161.667C53.5832 161.058 52.5748 161.488 51.8155 161.928C50.5953 162.681 49.0358 162.29 47.913 161.546C45.7025 160.046 43.452 158.608 41.1929 157.181C39.1658 158.136 37.1691 159.158 35.1212 160.069C32.7973 160.691 30.2715 160.613 28.0123 159.765C25.8316 158.951 23.9433 157.444 22.5609 155.583C20.0888 152.275 19.0262 147.917 19.7944 143.849C20.2881 141.2 21.6851 138.712 23.7684 136.99C24.6814 136.207 25.7523 135.647 26.7616 135.002C32.9962 131.101 39.0263 126.785 44.252 121.583C48.7737 117.083 52.6012 111.805 54.9947 105.864C56.3079 102.644 57.2173 99.2667 57.8089 95.8425C58.0568 94.2837 58.8896 92.8348 60.0985 91.8252ZM62.5343 96.3109C61.9223 98.3531 62.165 100.531 62.472 102.605C63.2135 106.852 64.6261 110.976 66.5264 114.843C69.526 113.217 72.5787 111.687 75.6234 110.143C76.4615 109.71 77.3108 109.188 78.287 109.176C80.0985 109.1 81.7591 110.078 83.0692 111.244C84.9621 112.975 86.4017 115.278 86.864 117.82C87.1537 119.403 86.8629 121.197 85.6887 122.372C82.8156 125.074 79.969 127.803 77.1685 130.581C80.0685 134.001 83.5701 137.132 87.8596 138.649C90.2501 139.486 93.1128 139.739 95.324 138.287C96.4849 137.575 97.1988 136.317 97.3989 134.989C96.4604 136.263 95.2812 137.417 93.7909 138.019C95.3783 136.098 96.2278 133.642 96.2878 131.16C96.4102 126.985 95.0298 122.94 93.3586 119.17C91.9247 116.117 90.4068 113.065 88.3325 110.385C85.8662 107.103 83.1696 103.991 80.2394 101.113C77.8361 98.7953 75.282 96.5775 72.3493 94.9537C70.5212 93.9642 68.4581 93.1425 66.3405 93.4029C64.7034 93.6207 63.0026 94.6377 62.5343 96.3109ZM52.0325 117.552C46.0293 124.73 38.4628 130.371 30.8204 135.68C29.1886 136.859 28.6836 139.016 28.8442 140.93C29.0851 143.662 30.0975 146.327 31.6716 148.571C33.1357 150.57 35.2116 152.28 37.7007 152.746C39.0712 153.007 40.5257 152.73 41.7087 151.988C44.2826 150.443 46.8449 148.875 49.4194 147.334C51.6431 146.05 54.3784 146.52 56.6756 145.441C64.7027 142.068 73.3179 139.737 82.0828 139.895C77.0564 136.869 72.9269 132.551 69.5119 127.821C64.6852 121.047 61.2329 113.33 59.1461 105.288C57.6496 109.812 55.0687 113.907 52.0325 117.552ZM77.6464 111.081C74.495 112.954 71.2841 114.728 68.0549 116.462C67.539 116.639 67.6284 117.229 67.8367 117.614C68.7626 119.639 69.9925 121.507 71.1678 123.393C71.0693 122.658 70.6475 121.606 71.4225 121.092C73.4964 119.777 75.6289 118.553 77.7328 117.288C76.9713 115.778 76.5867 113.609 77.9564 112.318C77.7248 113.656 77.831 115.049 78.4117 116.291C79.3976 118.528 81.2193 120.662 83.7181 121.166C82.2917 122.572 80.6843 123.778 79.1897 125.11C80.9558 123.94 82.6364 122.648 84.3379 121.387C85.5611 120.599 85.6126 118.915 85.309 117.639C84.6943 115.242 83.1702 113.087 81.1704 111.642C80.1802 110.937 78.7842 110.379 77.6464 111.081ZM22.4506 144.061C21.746 147.441 22.6215 151.018 24.4161 153.923C24.3952 153.243 24.3643 152.564 24.3396 151.887C25.633 151.171 26.9241 150.454 28.2204 149.745C29.2364 151.55 30.5889 153.224 32.3948 154.284C34.2166 155.383 36.3681 155.752 38.4644 155.844C34.9752 155.312 31.893 153.133 29.907 150.262C27.4917 146.827 26.3542 142.475 26.9559 138.304C24.6374 139.364 22.9384 141.567 22.4506 144.061ZM55.6004 147.865C54.2431 147.941 52.8407 147.934 51.5384 148.354C48.1469 150.415 44.8068 152.561 41.4018 154.599C44.0738 156.301 46.6999 158.078 49.3415 159.823C50.9487 160.536 52.1888 158.577 53.7975 158.872C54.6367 159 55.2348 159.654 55.9077 160.109C61.244 163.805 66.579 167.505 71.9151 171.199C72.1941 171.426 72.6552 171.487 72.8643 171.13C73.7532 169.784 74.4256 168.287 74.8409 166.726C74.9134 166.469 74.883 166.222 74.7538 165.986C73.5607 167.046 73.3454 168.77 72.2304 169.888C72.3669 168.876 72.7744 167.926 72.9473 166.924C73.0585 166.501 72.7143 166.179 72.3978 165.977C68.9456 163.759 65.6453 161.31 62.1766 159.119C61.5755 158.832 60.8784 158.959 60.239 158.827C60.7857 156.661 62.0192 154.754 62.9603 152.751C63.0107 152.083 62.8295 151.357 62.3924 150.837C61.2509 150.353 60.0446 150.026 58.8746 149.612C58.8797 151.125 60.1719 152.143 61.1415 153.137C60.3463 152.727 59.5232 152.376 58.7445 151.939C58.0241 151.481 57.3594 150.667 57.5462 149.76C57.742 148.637 58.0239 147.529 58.2959 146.423C57.5309 147.101 56.6569 147.774 55.6004 147.865ZM63.1286 153.031C63.3144 153.9 63.3405 154.794 63.5384 155.66C63.5802 155.902 63.7976 156.044 63.9644 156.203C66.7658 158.515 69.6751 160.727 72.8659 162.479C73.4878 162.81 74.116 163.198 74.8332 163.261C75.0328 163.117 75.2223 162.96 75.4018 162.791C75.2136 162.528 75.0212 162.252 74.7141 162.125C71.0027 160.326 67.6007 157.923 64.5355 155.169C63.8966 154.585 63.4979 153.799 63.1286 153.031Z" fill="black" stroke="black" stroke-width="2" mask="url(#path-12-inside-1_1954_81705)"/>
<path d="M79.0699 113.184C79.1406 112.805 79.3202 112.333 79.7682 112.291C80.6273 112.387 81.2814 113.033 81.8756 113.605C83.0744 114.876 84.0976 116.412 84.3902 118.167C83.6547 117.055 83.1298 115.637 81.8782 115.004C80.9851 114.873 80.3025 115.706 79.6485 116.194C79.2647 115.246 78.892 114.221 79.0699 113.184Z" fill="black"/>
<path d="M61.1351 118.746C63.3029 123.038 65.6104 127.279 68.4271 131.187C70.1057 133.501 71.9642 135.732 74.2498 137.476C68.1492 138.705 62.3488 141.09 56.8083 143.876C55.8187 144.391 54.882 145.07 53.7634 145.266C54.0231 144.561 54.5877 144.05 55.1016 143.528C56.8418 141.809 58.723 140.242 60.5483 138.615C58.8614 139.436 57.2932 140.478 55.7079 141.474C50.8544 144.562 46.1122 147.821 41.2078 150.828C40.0106 151.654 38.4322 151.3 37.1984 150.747C34.4743 149.44 32.3225 146.831 31.8252 143.818C32.5915 144.807 33.5611 145.635 34.7014 146.166C44.4861 139.934 54.2756 133.708 64.0651 127.481C62.9033 124.636 61.8421 121.739 61.1351 118.746Z" fill="black"/>
<path d="M50.397 150.077C51.3032 149.483 52.3129 148.703 53.4649 148.954C54.711 149.107 55.9745 148.826 57.0944 148.28C56.7168 149.432 56.7952 150.707 57.4179 151.763C57.0203 151.412 56.6091 151.081 56.1961 150.751C55.7928 151.011 55.2219 151.204 55.1538 151.752C54.6322 153.701 54.117 155.652 53.6018 157.602C52.5784 157.432 51.797 158.151 50.9599 158.59C50.4757 158.885 49.9317 158.679 49.4466 158.512C50.7562 158.279 51.8672 157.216 52.023 155.878C52.1873 154.487 52.5348 153.104 52.5861 151.709C52.0803 150.919 51.1701 150.546 50.397 150.077Z" fill="black"/>
<path d="M169.364 85.3192C167.72 86.0845 166.165 86.2081 164.701 85.69C163.246 85.1435 162.136 84.0483 161.371 82.4044L156.765 72.512C155.991 70.8488 155.872 69.3041 156.408 67.8778C156.954 66.4233 158.049 65.3133 159.693 64.548C161.357 63.7736 162.921 63.6455 164.385 64.1636C165.841 64.6624 166.956 65.7434 167.731 67.4067L167.893 67.7548C167.938 67.8515 167.94 67.9565 167.898 68.0699C167.876 68.1743 167.817 68.249 167.72 68.294L165.076 69.6661C164.844 69.7742 164.674 69.7121 164.566 69.4801L164.229 68.7548C163.913 68.0779 163.463 67.6168 162.879 67.3714C162.294 67.126 161.682 67.1518 161.044 67.449C160.425 67.7371 160.021 68.184 159.833 68.7895C159.644 69.3951 159.707 70.0363 160.022 70.7132L164.857 81.0988C165.173 81.7757 165.623 82.2369 166.207 82.4823C166.792 82.7277 167.394 82.7063 168.013 82.4182C168.651 82.121 169.065 81.6697 169.254 81.0641C169.442 80.4585 169.379 79.8173 169.064 79.1404L168.726 78.4152C168.681 78.3185 168.674 78.2276 168.705 78.1426C168.747 78.0292 168.816 77.95 168.912 77.905L171.664 76.7649C171.761 76.7199 171.856 76.7226 171.95 76.7729C172.055 76.7949 172.129 76.8543 172.174 76.951L172.336 77.2991C173.102 78.943 173.216 80.5019 172.678 81.9758C172.132 83.4303 171.027 84.5448 169.364 85.3192ZM181.694 79.5786C180.031 80.3529 178.452 80.4759 176.959 79.9474C175.485 79.41 174.361 78.3096 173.587 76.6464L169.049 66.899C168.274 65.2358 168.156 63.6672 168.693 62.1933C169.25 60.7104 170.36 59.5818 172.023 58.8074C173.687 58.033 175.265 57.9101 176.758 58.4386C178.251 58.967 179.385 60.0629 180.16 61.7261L184.698 71.4735C185.472 73.1367 185.581 74.7098 185.024 76.1927C184.467 77.6756 183.357 78.8042 181.694 79.5786ZM180.343 76.6776C181.001 76.3714 181.429 75.9014 181.628 75.2675C181.818 74.6143 181.742 73.9202 181.4 73.1852L176.727 63.1478C176.385 62.4129 175.907 61.9175 175.294 61.6618C174.672 61.3867 174.032 61.4023 173.374 61.7084C172.717 62.0145 172.293 62.4942 172.103 63.1475C171.923 63.7724 172.004 64.4523 172.346 65.1872L177.02 75.2247C177.362 75.9596 177.834 76.4691 178.437 76.7532C179.05 77.0089 179.686 76.9837 180.343 76.6776ZM188.682 51.6163C188.707 51.4165 188.816 51.2716 189.009 51.1816L191.678 49.939C191.775 49.894 191.87 49.8967 191.964 49.947C192.069 49.969 192.144 50.0284 192.189 50.1251L201.319 69.7358C201.364 69.8325 201.366 69.9376 201.324 70.0509C201.293 70.136 201.229 70.201 201.133 70.246L198.464 71.4886C198.367 71.5336 198.267 71.5451 198.162 71.5231C198.068 71.4728 197.999 71.3993 197.954 71.3026L191.579 57.6098C191.543 57.5325 191.505 57.5028 191.467 57.5208C191.428 57.5388 191.403 57.5858 191.391 57.6619L191.001 63.4205C190.977 63.6202 190.926 63.7381 190.848 63.7741C190.771 63.8101 190.648 63.7733 190.479 63.6636L185.821 60.2551C185.755 60.215 185.703 60.204 185.665 60.222C185.626 60.2401 185.625 60.2877 185.661 60.3651L192.036 74.0578C192.081 74.1545 192.082 74.2596 192.041 74.3729C192.01 74.458 191.946 74.523 191.85 74.568L189.181 75.8106C189.084 75.8556 188.983 75.8671 188.879 75.8451C188.785 75.7948 188.715 75.7213 188.67 75.6246L179.54 56.0138C179.495 55.9171 179.488 55.8262 179.519 55.7412C179.561 55.6278 179.63 55.5486 179.726 55.5036L182.395 54.261C182.589 54.171 182.77 54.1808 182.938 54.2905L188.062 57.9411C188.156 57.9915 188.214 57.9644 188.236 57.8601L188.682 51.6163ZM205.373 46.6695C205.418 46.7662 205.42 46.8713 205.378 46.9847C205.347 47.0697 205.283 47.1347 205.187 47.1797L198.921 50.0971C198.824 50.1421 198.798 50.213 198.843 50.3097L201.396 55.7926C201.441 55.8893 201.512 55.9151 201.608 55.8701L205.322 54.1413C205.418 54.0963 205.514 54.0989 205.608 54.1493C205.712 54.1713 205.787 54.2306 205.832 54.3273L206.872 56.5611C206.917 56.6578 206.919 56.7628 206.877 56.8762C206.846 56.9612 206.782 57.0263 206.686 57.0713L202.972 58.8001C202.876 58.8451 202.85 58.916 202.895 59.0127L205.461 64.5246C205.506 64.6213 205.577 64.6471 205.674 64.6021L211.94 61.6847C212.036 61.6397 212.132 61.6424 212.226 61.6927C212.33 61.7147 212.405 61.7741 212.45 61.8708L213.476 64.0756C213.521 64.1723 213.523 64.2773 213.482 64.3907C213.451 64.4757 213.387 64.5407 213.29 64.5857L203.862 68.9753C203.765 69.0203 203.665 69.0318 203.561 69.0098C203.467 68.9595 203.397 68.8859 203.352 68.7892L194.222 49.1785C194.177 49.0818 194.17 48.9909 194.201 48.9059C194.242 48.7925 194.311 48.7133 194.408 48.6683L203.836 44.2787C203.933 44.2337 204.028 44.2364 204.122 44.2867C204.227 44.3087 204.301 44.3681 204.346 44.4648L205.373 46.6695ZM225.199 59.324C223.536 60.0983 221.957 60.2213 220.464 59.6928C218.99 59.1553 217.866 58.055 217.092 56.3917L212.554 46.6444C211.779 44.9811 211.661 43.4126 212.198 41.9387C212.755 40.4558 213.865 39.3271 215.528 38.5528C217.192 37.7784 218.77 37.6555 220.263 38.1839C221.756 38.7124 222.89 39.8082 223.664 41.4715L228.202 51.2188C228.977 52.8821 229.086 54.4552 228.529 55.9381C227.972 57.421 226.862 58.5496 225.199 59.324ZM223.848 56.4229C224.506 56.1168 224.934 55.6468 225.133 55.0129C225.323 54.3596 225.247 53.6655 224.905 52.9306L220.232 42.8932C219.89 42.1582 219.412 41.6629 218.799 41.4072C218.176 41.1321 217.536 41.1476 216.879 41.4538C216.221 41.7599 215.798 42.2396 215.607 42.8929C215.428 43.5178 215.509 44.1977 215.851 44.9326L220.524 54.9701C220.866 55.705 221.339 56.2145 221.942 56.4986C222.555 56.7543 223.191 56.7291 223.848 56.4229ZM231.371 31.8829C231.326 31.7862 231.319 31.6953 231.35 31.6103C231.391 31.4969 231.46 31.4177 231.557 31.3727L234.197 30.1436C234.294 30.0986 234.389 30.1012 234.483 30.1516C234.587 30.1736 234.662 30.2329 234.707 30.3296L243.837 49.9404C243.882 50.0371 243.884 50.1422 243.843 50.2555C243.812 50.3406 243.748 50.4056 243.651 50.4506L240.605 51.8688C240.412 51.9588 240.241 51.9206 240.093 51.7543L230.044 41.4664C229.997 41.4174 229.95 41.4161 229.901 41.4624C229.862 41.4804 229.856 41.5185 229.883 41.5765L235.598 53.7762C235.643 53.8729 235.645 53.9779 235.604 54.0913C235.573 54.1763 235.509 54.2414 235.412 54.2864L232.772 55.5155C232.676 55.5605 232.575 55.572 232.471 55.55C232.377 55.4996 232.307 55.4261 232.262 55.3294L223.132 35.7186C223.087 35.6219 223.08 35.5311 223.111 35.446C223.152 35.3327 223.221 35.2535 223.318 35.2084L226.306 33.8173C226.5 33.7273 226.67 33.7654 226.818 33.9318L236.856 44.1191C236.902 44.1681 236.945 44.1836 236.983 44.1656C237.033 44.1193 237.044 44.0671 237.016 44.0091L231.371 31.8829ZM244.259 41.8371C244.163 41.8822 244.062 41.8937 243.958 41.8717C243.864 41.8213 243.794 41.7478 243.749 41.6511L237.458 29.0488C237.413 28.9521 237.406 28.8612 237.437 28.7762C237.479 28.6628 237.548 28.5836 237.644 28.5386L240.313 27.296C240.41 27.251 240.505 27.2536 240.599 27.304C240.704 27.326 240.778 27.3853 240.823 27.482L246.447 40.395C246.492 40.4917 246.494 40.5968 246.453 40.7101C246.422 40.7952 246.358 40.8602 246.261 40.9052L244.259 41.8371ZM248.435 48.1528C247.836 48.4319 247.252 48.4681 246.685 48.2614C246.119 48.0547 245.696 47.6515 245.416 47.052C245.137 46.4525 245.106 45.8789 245.321 45.3314C245.528 44.7645 245.931 44.3415 246.531 44.0624C247.13 43.7832 247.704 43.7515 248.251 43.9672C248.809 44.1546 249.228 44.5481 249.507 45.1476C249.786 45.7472 249.822 46.3304 249.615 46.8973C249.409 47.4641 249.015 47.8826 248.435 48.1528Z" fill="white"/>
<path opacity="0.7" d="M169.679 122.112C169.527 122.134 169.435 122.076 169.403 121.939L168.757 119.997C168.748 119.933 168.706 119.907 168.63 119.918L165.858 120.314C165.782 120.325 165.748 120.362 165.757 120.425L165.681 122.47C165.689 122.611 165.616 122.692 165.464 122.714L163.737 122.961C163.56 122.986 163.478 122.914 163.493 122.744L164.47 109.508C164.475 109.365 164.547 109.284 164.687 109.264L166.699 108.977C166.838 108.957 166.93 109.015 166.976 109.15L171.618 121.583L171.629 121.659C171.646 121.773 171.584 121.84 171.445 121.86L169.679 122.112ZM165.825 118.459C165.822 118.524 165.858 118.551 165.934 118.54L168.041 118.239C168.117 118.228 168.144 118.192 168.123 118.131L166.165 112.288C166.147 112.252 166.125 112.236 166.1 112.24C166.074 112.243 166.058 112.265 166.051 112.305L165.825 118.459ZM178.1 120.91C177.948 120.931 177.856 120.873 177.823 120.736L177.178 118.794C177.168 118.731 177.126 118.704 177.05 118.715L174.278 119.111C174.202 119.122 174.169 119.159 174.178 119.222L174.102 121.267C174.109 121.408 174.037 121.49 173.885 121.512L172.157 121.758C171.98 121.784 171.899 121.711 171.913 121.541L172.89 108.306C172.895 108.163 172.968 108.082 173.107 108.062L175.119 107.774C175.259 107.754 175.351 107.812 175.396 107.948L180.039 120.381L180.05 120.457C180.066 120.571 180.004 120.638 179.865 120.657L178.1 120.91ZM174.246 117.256C174.242 117.321 174.278 117.348 174.354 117.337L176.462 117.036C176.538 117.026 176.565 116.989 176.543 116.928L174.585 111.086C174.567 111.05 174.545 111.033 174.52 111.037C174.495 111.041 174.478 111.062 174.471 111.102L174.246 117.256ZM186.52 119.707C186.368 119.729 186.276 119.671 186.243 119.533L185.598 117.591C185.589 117.528 185.546 117.502 185.47 117.513L182.699 117.909C182.623 117.919 182.589 117.957 182.598 118.02L182.522 120.065C182.529 120.206 182.457 120.287 182.305 120.309L180.578 120.556C180.4 120.581 180.319 120.509 180.333 120.339L181.31 107.103C181.316 106.96 181.388 106.879 181.527 106.859L183.54 106.572C183.679 106.552 183.771 106.61 183.816 106.745L188.459 119.178L188.47 119.254C188.486 119.368 188.425 119.435 188.286 119.455L186.52 119.707ZM182.666 116.053C182.662 116.119 182.699 116.146 182.775 116.135L184.882 115.834C184.958 115.823 184.985 115.787 184.963 115.725L183.005 109.883C182.987 109.847 182.966 109.831 182.94 109.834C182.915 109.838 182.899 109.86 182.891 109.9L182.666 116.053ZM194.94 118.504C194.788 118.526 194.696 118.468 194.664 118.331L194.018 116.389C194.009 116.326 193.967 116.299 193.891 116.31L191.119 116.706C191.043 116.717 191.01 116.754 191.019 116.817L190.943 118.862C190.95 119.003 190.877 119.085 190.726 119.106L188.998 119.353C188.821 119.378 188.739 119.306 188.754 119.136L189.731 105.901C189.736 105.758 189.808 105.676 189.948 105.657L191.96 105.369C192.099 105.349 192.192 105.407 192.237 105.543L196.88 117.976L196.89 118.052C196.907 118.165 196.845 118.232 196.706 118.252L194.94 118.504ZM191.086 114.851C191.083 114.916 191.119 114.943 191.195 114.932L193.302 114.631C193.378 114.62 193.405 114.584 193.384 114.523L191.426 108.681C191.408 108.645 191.386 108.628 191.361 108.632C191.335 108.635 191.319 108.657 191.312 108.697L191.086 114.851ZM203.361 117.302C203.209 117.324 203.117 117.266 203.084 117.128L202.439 115.186C202.43 115.123 202.387 115.097 202.311 115.108L199.539 115.503C199.463 115.514 199.43 115.551 199.439 115.615L199.363 117.66C199.37 117.801 199.298 117.882 199.146 117.904L197.418 118.151C197.241 118.176 197.16 118.103 197.174 117.934L198.151 104.698C198.156 104.555 198.229 104.474 198.368 104.454L200.381 104.167C200.52 104.147 200.612 104.204 200.657 104.34L205.3 116.773L205.311 116.849C205.327 116.963 205.266 117.03 205.126 117.05L203.361 117.302ZM199.507 113.648C199.503 113.713 199.539 113.741 199.615 113.73L201.723 113.429C201.799 113.418 201.826 113.382 201.804 113.32L199.846 107.478C199.828 107.442 199.806 107.426 199.781 107.429C199.756 107.433 199.739 107.455 199.732 107.494L199.507 113.648ZM211.781 116.099C211.629 116.121 211.537 116.063 211.504 115.926L210.859 113.984C210.85 113.92 210.807 113.894 210.732 113.905L207.96 114.301C207.884 114.312 207.85 114.349 207.859 114.412L207.783 116.457C207.791 116.598 207.718 116.68 207.566 116.701L205.839 116.948C205.661 116.973 205.58 116.901 205.595 116.731L206.571 103.495C206.577 103.353 206.649 103.271 206.788 103.251L208.801 102.964C208.94 102.944 209.032 103.002 209.078 103.138L213.72 115.57L213.731 115.646C213.747 115.76 213.686 115.827 213.547 115.847L211.781 116.099ZM207.927 112.446C207.924 112.511 207.96 112.538 208.036 112.527L210.143 112.226C210.219 112.215 210.246 112.179 210.224 112.118L208.266 106.276C208.248 106.239 208.227 106.223 208.201 106.227C208.176 106.23 208.16 106.252 208.153 106.292L207.927 112.446ZM214.617 111.122C214.553 111.131 214.494 111.121 214.438 111.09C214.392 111.045 214.365 110.99 214.356 110.927L212.935 102.606C212.926 102.543 212.938 102.489 212.971 102.446C213.014 102.388 213.067 102.355 213.131 102.346L214.877 102.096C214.941 102.087 214.995 102.105 215.04 102.15C215.096 102.181 215.129 102.228 215.138 102.291L216.122 110.675C216.131 110.738 216.114 110.799 216.07 110.857C216.038 110.9 215.99 110.926 215.927 110.935L214.617 111.122ZM215.916 115.47C215.523 115.526 215.182 115.446 214.893 115.229C214.604 115.012 214.431 114.707 214.375 114.315C214.319 113.922 214.4 113.588 214.619 113.311C214.836 113.022 215.141 112.849 215.533 112.793C215.926 112.737 216.26 112.818 216.537 113.037C216.824 113.242 216.996 113.54 217.052 113.932C217.108 114.325 217.028 114.665 216.811 114.955C216.594 115.244 216.295 115.416 215.916 115.47ZM219.051 110.489C218.987 110.498 218.928 110.487 218.872 110.456C218.827 110.411 218.799 110.357 218.79 110.294L217.369 101.973C217.36 101.909 217.372 101.856 217.405 101.813C217.448 101.755 217.501 101.721 217.565 101.712L219.311 101.463C219.375 101.454 219.429 101.472 219.474 101.517C219.53 101.548 219.563 101.595 219.572 101.658L220.556 110.042C220.565 110.105 220.548 110.165 220.504 110.223C220.472 110.267 220.424 110.293 220.361 110.302L219.051 110.489ZM220.35 114.837C219.957 114.893 219.617 114.812 219.327 114.595C219.038 114.378 218.865 114.074 218.809 113.681C218.753 113.289 218.835 112.954 219.053 112.678C219.27 112.388 219.575 112.216 219.967 112.16C220.36 112.104 220.694 112.185 220.971 112.404C221.258 112.608 221.43 112.907 221.486 113.299C221.542 113.691 221.462 114.032 221.245 114.321C221.028 114.611 220.729 114.783 220.35 114.837ZM223.485 109.856C223.422 109.865 223.362 109.854 223.306 109.823C223.261 109.778 223.234 109.724 223.225 109.66L221.804 101.339C221.795 101.276 221.806 101.223 221.839 101.179C221.882 101.122 221.936 101.088 221.999 101.079L223.746 100.83C223.809 100.821 223.863 100.839 223.908 100.884C223.964 100.915 223.997 100.962 224.006 101.025L224.99 109.408C224.999 109.472 224.982 109.532 224.939 109.59C224.906 109.633 224.858 109.66 224.795 109.669L223.485 109.856ZM224.784 114.203C224.391 114.26 224.051 114.179 223.761 113.962C223.472 113.745 223.299 113.44 223.243 113.048C223.187 112.656 223.269 112.321 223.488 112.045C223.704 111.755 224.009 111.583 224.402 111.527C224.794 111.47 225.128 111.552 225.405 111.771C225.693 111.975 225.864 112.273 225.92 112.666C225.976 113.058 225.896 113.399 225.679 113.688C225.462 113.977 225.164 114.149 224.784 114.203Z" fill="white"/>
<path opacity="0.6" d="M139.811 48.0172C139.689 48.1097 139.58 48.1036 139.485 47.999L137.981 46.611C137.943 46.5599 137.893 46.5575 137.832 46.6037L135.597 48.2901C135.535 48.3363 135.524 48.385 135.563 48.436L136.484 50.263C136.559 50.3829 136.535 50.4891 136.412 50.5815L135.019 51.6326C134.876 51.7404 134.77 51.7165 134.701 51.5607L129.158 39.5019C129.094 39.3742 129.118 39.2681 129.23 39.1833L130.853 37.959C130.965 37.8743 131.074 37.8803 131.179 37.9772L141.253 46.6169L141.299 46.6782C141.369 46.77 141.347 46.8583 141.235 46.943L139.811 48.0172ZM134.671 46.6818C134.7 46.7405 134.745 46.7468 134.806 46.7006L136.505 45.4185C136.566 45.3723 136.573 45.3275 136.524 45.2842L131.986 41.1163C131.953 41.0934 131.926 41.0896 131.905 41.105C131.885 41.1204 131.881 41.1473 131.894 41.1856L134.671 46.6818ZM146.601 42.8943C146.479 42.9867 146.37 42.9806 146.275 42.8761L144.771 41.488C144.733 41.437 144.683 41.4346 144.622 41.4808L142.387 43.1672C142.325 43.2134 142.314 43.262 142.353 43.313L143.274 45.14C143.349 45.26 143.325 45.3662 143.203 45.4586L141.809 46.5097C141.666 46.6175 141.56 46.5935 141.491 46.4377L135.948 34.379C135.884 34.2513 135.908 34.1451 136.02 34.0604L137.643 32.836C137.755 32.7513 137.864 32.7574 137.969 32.8543L148.043 41.494L148.089 41.5552C148.159 41.6471 148.137 41.7354 148.025 41.8201L146.601 42.8943ZM141.461 41.5589C141.49 41.6176 141.535 41.6239 141.596 41.5777L143.295 40.2955C143.356 40.2493 143.363 40.2046 143.314 40.1612L138.776 35.9934C138.743 35.9704 138.716 35.9667 138.695 35.9821C138.675 35.9975 138.671 36.0243 138.684 36.0627L141.461 41.5589ZM153.391 37.7714C153.269 37.8638 153.16 37.8577 153.065 37.7531L151.561 36.3651C151.523 36.3141 151.473 36.3116 151.412 36.3578L149.177 38.0443C149.115 38.0905 149.104 38.1391 149.143 38.1901L150.064 40.0171C150.139 40.137 150.115 40.2432 149.993 40.3356L148.599 41.3868C148.456 41.4946 148.35 41.4706 148.281 41.3148L142.738 29.256C142.674 29.1284 142.698 29.0222 142.81 28.9375L144.433 27.7131C144.545 27.6284 144.654 27.6345 144.759 27.7313L154.833 36.3711L154.879 36.4323C154.949 36.5242 154.927 36.6124 154.815 36.6972L153.391 37.7714ZM148.251 36.4359C148.28 36.4947 148.325 36.5009 148.386 36.4547L150.085 35.1726C150.146 35.1264 150.153 35.0816 150.104 35.0383L145.566 30.8704C145.533 30.8475 145.506 30.8437 145.485 30.8591C145.465 30.8745 145.461 30.9014 145.474 30.9397L148.251 36.4359ZM160.181 32.6484C160.059 32.7408 159.95 32.7348 159.855 32.6302L158.351 31.2422C158.313 31.1911 158.263 31.1887 158.202 31.2349L155.967 32.9213C155.905 32.9675 155.894 33.0161 155.933 33.0672L156.855 34.8941C156.929 35.0141 156.905 35.1203 156.783 35.2127L155.389 36.2638C155.246 36.3716 155.14 36.3476 155.071 36.1919L149.528 24.1331C149.464 24.0054 149.488 23.8992 149.6 23.8145L151.223 22.5902C151.335 22.5055 151.444 22.5115 151.549 22.6084L161.623 31.2481L161.669 31.3094C161.739 31.4012 161.717 31.4895 161.605 31.5742L160.181 32.6484ZM155.042 31.313C155.07 31.3717 155.115 31.378 155.176 31.3318L156.875 30.0497C156.936 30.0035 156.943 29.9587 156.894 29.9154L152.356 25.7475C152.323 25.7246 152.296 25.7208 152.275 25.7362C152.255 25.7516 152.251 25.7785 152.264 25.8168L155.042 31.313ZM166.971 27.5255C166.849 27.6179 166.74 27.6118 166.645 27.5073L165.141 26.1192C165.103 26.0682 165.053 26.0658 164.992 26.112L162.757 27.7984C162.695 27.8446 162.684 27.8932 162.723 27.9442L163.645 29.7712C163.719 29.8912 163.695 29.9974 163.573 30.0898L162.179 31.1409C162.037 31.2487 161.93 31.2247 161.861 31.0689L156.318 19.0102C156.254 18.8825 156.278 18.7763 156.39 18.6916L158.013 17.4672C158.125 17.3825 158.234 17.3886 158.339 17.4855L168.413 26.1252L168.46 26.1864C168.529 26.2783 168.507 26.3666 168.395 26.4513L166.971 27.5255ZM161.832 26.1901C161.86 26.2488 161.905 26.2551 161.966 26.2089L163.665 24.9267C163.726 24.8805 163.733 24.8358 163.684 24.7924L159.146 20.6245C159.113 20.6016 159.086 20.5979 159.065 20.6133C159.045 20.6287 159.041 20.6555 159.054 20.6939L161.832 26.1901ZM173.761 22.4026C173.639 22.495 173.53 22.4889 173.435 22.3843L171.932 20.9963C171.893 20.9453 171.843 20.9428 171.782 20.989L169.547 22.6754C169.485 22.7217 169.474 22.7703 169.513 22.8213L170.435 24.6483C170.509 24.7682 170.485 24.8744 170.363 24.9668L168.969 26.0179C168.827 26.1258 168.72 26.1018 168.651 25.946L163.108 13.8872C163.044 13.7596 163.068 13.6534 163.18 13.5687L164.803 12.3443C164.915 12.2596 165.024 12.2657 165.129 12.3625L175.203 21.0023L175.25 21.0635C175.319 21.1554 175.297 21.2436 175.185 21.3283L173.761 22.4026ZM168.622 21.0671C168.65 21.1259 168.695 21.1321 168.756 21.0859L170.455 19.8038C170.516 19.7576 170.523 19.7128 170.474 19.6695L165.936 15.5016C165.903 15.4787 165.876 15.4749 165.855 15.4903C165.835 15.5057 165.831 15.5326 165.844 15.5709L168.622 21.0671ZM173.838 16.6751C173.787 16.7136 173.729 16.7329 173.665 16.7331C173.604 16.7154 173.554 16.681 173.515 16.63L168.249 10.0324C168.211 9.98137 168.195 9.929 168.203 9.87527C168.213 9.80365 168.244 9.74858 168.295 9.71008L169.703 8.64741C169.754 8.60891 169.81 8.59852 169.872 8.61624C169.936 8.61606 169.987 8.64149 170.025 8.69252L174.939 15.5558C174.978 15.6068 174.992 15.6681 174.982 15.7398C174.974 15.7935 174.945 15.8396 174.894 15.8781L173.838 16.6751ZM177.077 19.8533C176.76 20.092 176.423 20.1863 176.065 20.1361C175.707 20.086 175.408 19.9028 175.169 19.5864C174.931 19.27 174.84 18.9378 174.898 18.5899C174.948 18.2317 175.131 17.9333 175.448 17.6946C175.764 17.4559 176.096 17.3654 176.444 17.4233C176.795 17.4632 177.089 17.6413 177.328 17.9577C177.567 18.2741 177.661 18.6114 177.611 18.9695C177.561 19.3277 177.383 19.6222 177.077 19.8533ZM177.413 13.9774C177.362 14.0159 177.305 14.0352 177.241 14.0354C177.18 14.0177 177.13 13.9833 177.091 13.9323L171.825 7.33467C171.787 7.28364 171.771 7.23126 171.779 7.17754C171.789 7.10592 171.819 7.05085 171.87 7.01235L173.279 5.94968C173.33 5.91118 173.386 5.90079 173.447 5.91851C173.511 5.91833 173.562 5.94375 173.601 5.99479L178.515 12.858C178.553 12.9091 178.568 12.9704 178.558 13.042C178.55 13.0957 178.521 13.1419 178.47 13.1804L177.413 13.9774ZM180.652 17.1555C180.336 17.3942 179.998 17.4885 179.64 17.4384C179.282 17.3883 178.984 17.205 178.745 16.8886C178.506 16.5722 178.416 16.2401 178.474 15.8922C178.524 15.534 178.707 15.2356 179.023 14.9969C179.34 14.7582 179.672 14.6677 180.02 14.7255C180.37 14.7654 180.665 14.9436 180.904 15.26C181.142 15.5764 181.237 15.9137 181.187 16.2718C181.136 16.6299 180.958 16.9245 180.652 17.1555ZM180.989 11.2796C180.938 11.3181 180.881 11.3375 180.817 11.3377C180.755 11.3199 180.705 11.2856 180.667 11.2345L175.401 4.63694C175.362 4.58591 175.347 4.53353 175.354 4.47981C175.364 4.40819 175.395 4.35312 175.446 4.31462L176.854 3.25195C176.905 3.21345 176.962 3.20306 177.023 3.22078C177.087 3.2206 177.138 3.24602 177.177 3.29706L182.09 10.1603C182.129 10.2113 182.143 10.2727 182.133 10.3443C182.126 10.398 182.096 10.4441 182.045 10.4826L180.989 11.2796ZM184.228 14.4578C183.911 14.6965 183.574 14.7908 183.216 14.7407C182.858 14.6906 182.559 14.5073 182.321 14.1909C182.082 13.8745 181.991 13.5424 182.049 13.1944C182.099 12.8363 182.283 12.5379 182.599 12.2991C182.915 12.0604 183.248 11.97 183.596 12.0278C183.946 12.0677 184.241 12.2459 184.479 12.5623C184.718 12.8787 184.812 13.2159 184.762 13.5741C184.712 13.9322 184.534 14.2268 184.228 14.4578Z" fill="white"/>
</g>
<defs>
<clipPath id="clip0_1954_81705">
<rect width="254.084" height="199.476" fill="white"/>
</clipPath>
</defs>
</svg>
