<svg width="116" height="216" viewBox="0 0 116 216" fill="none" xmlns="http://www.w3.org/2000/svg">
<g clip-path="url(#clip0_1783_19625)">
<path d="M75.3869 9.83743C77.0642 7.94314 79.3795 6.24921 82.0594 6.54064C86.0428 6.75921 88.6954 10.9121 88.5587 14.6551C88.3855 27.4233 81.6401 38.9165 80.4186 51.5117C78.8143 62.0578 75.3869 72.2669 74.8673 82.9769C70.018 84.4705 66.8549 88.7599 62.1879 90.6178C59.3985 88.6233 56.7004 86.5196 53.8473 84.6162C55.4789 86.5742 57.2291 88.423 59.0704 90.1898C56.8736 90.7817 54.7132 91.4739 52.5802 92.2662C52.0333 91.4374 51.4773 90.6178 50.9303 89.789C50.3925 91.4101 50.6933 93.6778 48.9067 94.543C43.4557 97.8671 36.8835 98.2222 31.0315 100.535C28.4518 99.0601 25.8175 97.694 23.174 96.3553C23.2378 96.7833 23.3016 97.2114 23.3745 97.6394C25.7719 98.459 28.0143 99.6521 30.1473 101.018C27.8137 104.342 26.0089 107.994 24.0491 111.537C22.6544 110.79 21.2689 110.025 19.8469 109.333C21.0957 110.426 22.381 111.482 23.6753 112.52C22.0528 116.191 20.0657 119.679 18.0603 123.148C20.011 121.682 21.9617 120.17 23.4657 118.231C27.0025 113.841 27.5129 107.675 31.6878 103.723C35.179 99.7978 40.8943 100.317 45.4429 98.5501C50.5566 97.0019 54.4945 92.2115 60.1369 92.4119C62.7257 92.3846 64.5852 94.5612 65.3873 96.8289C67.4748 102.393 65.9525 109.415 61.1214 113.103C55.88 117.903 48.77 119.387 42.0337 120.781C43.1002 120.963 45.2423 121.327 46.3088 121.5C44.185 125.635 39.2627 126.09 35.3795 127.62C38.1506 127.884 40.9217 127.984 43.7018 128.094C41.6053 130.389 39.5088 132.93 36.4916 134.041C33.1645 135.225 29.573 135.17 26.1 135.562C29.0352 136.345 32.0797 136.527 35.1152 136.636C31.8336 138.576 28.2057 139.769 24.5322 140.698C28.5247 140.598 32.3805 139.487 36.2363 138.549C34.6412 139.979 32.8728 141.217 30.8583 142C27.0572 143.512 23.9762 146.262 20.7402 148.676C24.5687 147.638 27.3397 144.559 31.0679 143.312C33.6658 142.41 36.0814 141.099 38.4878 139.778C35.4251 144.514 30.84 147.838 26.4555 151.235C33.365 148.931 37.075 142.365 42.6445 138.239C41.3045 142.765 37.786 146.071 35.3704 149.996C38.6337 147.965 40.4021 144.395 43.2734 141.955C46.9469 139.405 50.748 143.029 54.5583 143.321C55.4516 149.851 55.7159 156.608 53.9658 163.02C52.9631 167.045 49.9459 170.041 47.8493 173.493C52.2338 170.806 54.8135 166.125 56.7095 161.499C58.8334 156.308 57.9127 150.515 59.5717 145.206C62.2608 146.772 65.0501 148.175 67.9761 149.24C69.1338 151.854 70.3826 154.441 71.7681 156.954C71.3579 154.441 70.9477 151.936 70.6014 149.423C72.7161 148.648 74.8127 147.838 76.8819 146.955C78.0942 149.013 79.5527 150.925 81.2299 152.647C80.7468 149.623 79.3704 146.472 80.7194 143.467C82.3055 145.197 83.8734 146.945 85.5415 148.603C84.7849 146.8 83.7822 145.06 83.4358 143.12C83.0894 141.08 84.5844 139.478 85.5232 137.847C87.3828 138.294 89.2332 138.731 91.1019 139.159C89.2606 137.693 87.5924 135.99 86.845 133.704C91.2477 133.959 95.7234 133.804 99.8617 132.119C99.9347 131.791 100.099 131.117 100.172 130.789C97.1909 131.308 92.8793 133.294 90.5914 130.443C92.8247 128.868 95.7142 128.64 98.1025 127.32C96.0242 127.538 93.9641 127.839 91.8858 128.094C93.9459 125.443 96.5893 123.404 99.1416 121.272C97.9384 121.746 96.7443 122.229 95.5502 122.72C96.726 120.17 97.6923 117.511 98.1389 114.733C96.6258 116.883 95.5137 119.278 94.2831 121.591C92.5512 124.924 89.3152 127.019 87.009 129.888C84.1012 133.704 82.4422 138.439 78.869 141.745C75.7698 144.496 71.6496 146.709 67.3745 145.834C64.8404 145.397 61.723 144.113 61.1487 141.299C61.2034 138.376 63.4184 136.072 64.7493 133.622C65.1139 134.013 65.4694 134.405 65.8249 134.806C64.3664 136.572 62.042 138.931 63.5825 141.372C65.4876 144.66 72.1145 146.454 73.7735 142.055C74.7488 139.387 75.9794 135.744 73.3724 133.576C71.7317 131.873 69.2067 132.219 67.2742 133.185C66.9461 132.875 66.6179 132.574 66.2898 132.274C68.9879 128.349 70.2641 123.531 73.6277 120.061C79.2154 114.506 81.6948 106.574 87.556 101.237C89.8257 99.051 93.2713 99.898 95.7872 101.137C99.1872 102.657 100.637 106.382 101.849 109.633C103.572 114.287 101.648 119.214 102.259 123.995C102.332 127.356 103.863 130.944 102.323 134.159C100.418 136.855 96.6167 136.081 93.8182 136.7C95.6778 137.592 97.6102 138.33 99.57 138.968C98.7314 144.605 99.6247 150.497 97.6285 155.943C95.5046 162.127 91.8311 167.719 90.2997 174.121C89.3882 177.819 89.9807 181.78 88.668 185.378C85.6873 190.969 80.9929 195.341 77.055 200.231C80.4095 199.23 83.609 197.791 86.6718 196.106C86.6444 206.652 86.8632 217.207 86.8085 227.753C67.575 227.717 48.3325 228.035 29.0899 227.726C29.0352 223.792 28.9714 219.83 28.2786 215.941C26.6561 206.197 25.7628 196.324 25.9998 186.443C22.6727 183.237 21.0866 178.848 19.619 174.586C16.857 167.582 16.4286 159.95 13.7943 152.902C11.8709 147.984 12.901 142.692 13.138 137.583C13.4205 133.485 13.5208 129.259 15.1707 125.434C16.3466 122.611 17.6592 119.752 17.6136 116.637C17.5498 110.38 20.7311 104.688 20.8769 98.4499C20.9407 93.8781 21.2689 89.3246 21.6153 84.7619C21.0137 80.1446 19.3182 75.7185 18.9445 71.0465C16.8662 54.7174 7.58669 39.7089 8.88108 22.9062C9.01781 19.1449 9.63765 14.3637 13.5208 12.6151C15.6903 11.6953 19.0265 10.6571 20.3482 13.371C25.307 21.7496 27.7317 31.3849 28.8164 40.993C29.336 47.6958 33.52 53.233 35.2883 59.5806C37.4578 65.8281 38.0959 72.5765 40.8487 78.6146C42.8815 83.1864 50.2376 83.4414 52.5893 79.0699C54.9229 74.5892 55.4151 69.4801 56.8189 64.6989C57.4479 62.4949 58.6967 60.5187 59.2345 58.2874C61.2125 48.0601 64.5761 38.1789 67.256 28.1246C69.3708 21.8224 70.656 14.8281 75.3869 9.83743ZM68.2131 33.088C69.4893 37.4321 74.6486 38.8437 78.6776 39.126C75.2958 36.913 71.0936 36.1662 68.2131 33.088ZM16.4104 45.3097C19.5187 44.3171 22.545 43.1149 25.5713 41.9219C22.3172 41.7489 18.3064 42.3681 16.4104 45.3097ZM20.4667 66.074C24.6598 66.8026 29.0808 65.0449 30.7671 60.9376C27.0389 61.8939 23.1558 63.1689 20.4667 66.074ZM62.0147 62.923C63.6281 65.9283 66.4174 68.196 69.9268 68.4055C69.9542 68.0412 70.0089 67.3126 70.0362 66.9483C66.937 66.6022 64.2662 64.9903 62.0147 62.923ZM30.913 87.576C28.9076 88.2773 26.5649 88.4776 25.07 90.1715C30.0652 89.7435 34.6776 87.576 39.135 85.4358C40.2836 85.0533 40.8396 83.9969 41.2042 82.9222C37.7039 84.3339 34.5591 86.5378 30.913 87.576ZM47.0837 86.1735C47.1475 88.3774 45.5249 91.6196 47.8676 93.0949C47.9314 90.7635 47.8585 88.3865 47.0837 86.1735ZM48.7882 98.878C46.9287 101.3 47.6124 104.843 48.5695 107.53C49.4901 110.016 52.562 109.97 54.7315 109.579C57.6119 109.087 61.2034 108.076 62.2425 104.971C63.3729 101.109 62.6254 96.8471 60.4833 93.4592C59.909 93.8599 59.3347 94.2606 58.7696 94.6796C61.1943 95.4355 61.1305 98.2678 61.3675 100.308C61.5224 102.63 61.6045 105.626 59.2618 106.938C56.746 108.286 53.7652 108.741 50.9486 108.431C48.5148 106.892 48.2413 103.422 48.7153 100.845C50.4108 97.8398 54.1299 96.9473 57.0012 95.3808C57.2473 94.7706 57.7395 93.5594 57.9857 92.9492C54.9411 94.9437 51.532 96.4646 48.7882 98.878ZM34.5227 111.091C35.8262 113.695 37.0294 116.956 40.1195 117.875C38.3511 115.535 36.4278 113.322 34.5227 111.091ZM73.0716 181.771C74.8673 178.547 75.1955 174.777 75.1226 171.161C73.8464 174.549 73.2266 178.156 73.0716 181.771ZM72.9167 186.935C74.1837 186.826 75.4599 186.725 76.736 186.625C77.5746 183.274 78.1489 179.795 77.4379 176.371C75.4963 179.695 74.6212 183.492 72.9167 186.935ZM80.7468 181.043C80.1361 180.97 78.9146 180.824 78.3039 180.751C78.1671 182.591 78.0486 184.44 77.9848 186.297C81.5125 184.121 84.0374 180.724 85.6964 176.981C84.0101 178.283 82.3876 179.667 80.7468 181.043ZM39.5726 182.145L39.2535 183.492C47.6124 184.312 56.0532 185.696 63.9107 188.784C68.0399 190.368 72.5703 190.177 76.818 189.193C72.0142 188.438 66.9643 188.529 62.5069 186.361C56.9921 183.638 50.821 182.973 44.8139 182.09C45.926 181.061 47.0563 180.05 48.1502 179.003C45.2241 179.859 42.4075 181.024 39.5726 182.145ZM44.5405 188.228C52.0515 190.186 59.435 192.754 67.0737 194.202C64.2935 191.68 60.5106 190.942 56.9647 190.186C52.8537 189.376 48.7335 188.483 44.5405 188.228Z" fill="white"/>
<path d="M72.1593 85.9003C77.6832 83.1773 83.5353 86.2555 87.8468 89.7527C89.1777 93.2225 89.2962 98.1677 85.9964 100.608C80.1352 107.12 74.5748 113.941 69.6434 121.191C67.3281 120.07 65.0219 118.95 62.661 117.957C64.6755 119.515 66.8997 120.79 69.2423 121.819C66.0702 128.121 63.445 135.188 57.9393 139.851C53.1081 140.953 46.381 138.385 45.3418 133.048C47.3198 128.221 49.6443 122.912 54.3934 120.171C58.395 117.557 62.8525 115.244 65.6053 111.182C69.3791 105.663 69.2515 98.0675 65.9699 92.3573C68.1576 90.3173 69.8622 87.8128 72.1593 85.9003ZM54.1655 123.604C51.677 124.496 49.9724 126.709 48.596 128.859C47.6024 130.525 46.6818 132.757 47.8668 134.569C49.3434 136.782 52.0051 138.33 54.676 138.339C57.7478 138.339 59.5709 135.416 60.7286 132.966C61.7677 130.626 62.5243 127.429 60.6374 125.307C59.1151 123.44 56.4079 122.857 54.1655 123.604Z" fill="white"/>
<path d="M53.8566 125.079C56.5456 124.25 60.5382 125.452 60.9848 128.603C60.8572 131.69 59.5355 134.778 57.4025 137.009C54.0936 138.029 49.545 136.581 48.4512 133.02C48.8067 129.787 51.0399 126.672 53.8566 125.079Z" fill="white"/>
<path d="M63.5547 139.64C65.3869 137.191 67.3193 132.874 71.1478 134.085C75.195 135.214 74.721 141.006 71.9773 143.156C68.7869 144.194 65.2501 142.445 63.5547 139.64Z" fill="white"/>
<path d="M75.6338 7.62487C77.9218 5.4938 81.2671 4.03665 84.3755 5.17505C87.5294 6.41362 90.027 9.40076 90.3734 12.8159C91.604 19.965 88.8511 26.9229 87.1192 33.735C85.8339 38.9625 83.3181 43.8622 82.7985 49.2627C81.9599 55.6924 80.8022 62.0765 79.2982 68.3786C78.0038 73.0779 78.6601 77.9958 78.1588 82.7952C81.9325 84.0702 85.5787 85.8006 88.8602 88.0683C91.7863 90.5363 91.5857 94.6892 91.7225 98.1499C94.293 98.842 97.2464 99.4158 98.9236 101.702C102.479 106.465 106.07 112.248 104.621 118.45C103.427 123.386 105.614 128.185 105.669 133.085C105.851 136.072 103.399 138.303 103.199 141.19C102.697 145.489 102.123 149.787 101.676 154.104C100.692 163.995 93.2538 172.1 93.3177 182.218C93.5 185.77 91.6587 188.866 90.8565 192.19C90.501 204.057 90.5922 215.933 91.0388 227.799C89.6259 227.781 88.2222 227.772 86.8093 227.754C86.864 217.208 86.6452 206.652 86.6725 196.106C83.6098 197.791 80.4103 199.23 77.0558 200.232C80.9937 195.341 85.6881 190.97 88.6688 185.378C89.9814 181.781 89.3889 177.819 90.3005 174.122C91.8318 167.719 95.5053 162.128 97.6292 155.944C99.6255 150.498 98.7322 144.605 99.5708 138.968C97.611 138.331 95.6785 137.593 93.819 136.7C96.6174 136.081 100.419 136.855 102.324 134.16C103.864 130.945 102.333 127.356 102.26 123.996C101.649 119.215 103.572 114.288 101.85 109.634C100.637 106.383 99.188 102.658 95.7879 101.137C93.2721 99.8984 89.8265 99.0515 87.5567 101.237C81.6955 106.574 79.2161 114.506 73.6284 120.062C70.2648 123.531 68.9887 128.349 66.2905 132.274C66.6187 132.575 66.9469 132.875 67.275 133.185C69.2075 132.22 71.7324 131.874 73.3732 133.577C75.9802 135.744 74.7496 139.387 73.7743 142.055C72.1153 146.454 65.4884 144.66 63.5833 141.372C62.0428 138.932 64.3672 136.573 65.8257 134.806C65.4701 134.405 65.1147 134.014 64.75 133.622C63.4192 136.072 61.2042 138.376 61.1495 141.3C61.7237 144.114 64.8412 145.398 67.3753 145.835C71.6504 146.709 75.7705 144.496 78.8698 141.746C82.443 138.44 84.102 133.704 87.0098 129.888C89.316 127.02 92.552 124.925 94.2839 121.592C95.5145 119.278 96.6265 116.883 98.1397 114.734C97.693 117.512 96.7268 120.171 95.5509 122.721C96.745 122.229 97.9392 121.746 99.1424 121.273C96.5901 123.404 93.9466 125.444 91.8866 128.094C93.9649 127.839 96.0249 127.539 98.1032 127.32C95.715 128.641 92.8254 128.868 90.5921 130.444C92.8801 133.294 97.1917 131.309 100.172 130.79C100.1 131.118 99.9354 131.792 99.8625 132.12C95.7241 133.804 91.2485 133.959 86.8457 133.704C87.5932 135.99 89.2613 137.693 91.1026 139.159C89.234 138.731 87.3835 138.294 85.524 137.848C84.5851 139.478 83.0902 141.081 83.4366 143.121C83.783 145.061 84.7857 146.8 85.5422 148.603C83.8741 146.946 82.3063 145.197 80.7202 143.467C79.3711 146.472 80.7475 149.623 81.2307 152.647C79.5534 150.926 78.095 149.013 76.8826 146.955C74.8134 147.838 72.7169 148.649 70.6021 149.423C70.9485 151.937 71.3587 154.441 71.7689 156.955C70.3833 154.441 69.1345 151.855 67.9769 149.241C65.0508 148.175 62.2615 146.773 59.5725 145.206C57.9135 150.516 58.8342 156.308 56.7103 161.499C54.8143 166.126 52.2346 170.807 47.8501 173.493C49.9467 170.042 52.9639 167.045 53.9665 163.02C55.7167 156.609 55.4524 149.851 54.559 143.321C50.7488 143.03 46.9477 139.405 43.2742 141.955C40.4028 144.396 38.6345 147.966 35.3712 149.997C37.7867 146.072 41.3053 142.766 42.6452 138.24C37.0757 142.365 33.3658 148.931 26.4563 151.235C30.8408 147.838 35.4258 144.514 38.4886 139.779C36.0822 141.099 33.6666 142.411 31.0687 143.312C27.3405 144.56 24.5694 147.638 20.741 148.676C23.9769 146.263 27.0579 143.513 30.859 142.001C32.8735 141.218 34.6419 139.979 36.2371 138.549C32.3813 139.487 28.5255 140.598 24.533 140.698C28.2065 139.77 31.8344 138.576 35.1159 136.637C32.0805 136.527 29.036 136.345 26.1008 135.562C29.5738 135.17 33.1652 135.225 36.4924 134.041C39.5095 132.93 41.6061 130.389 43.7026 128.094C40.9224 127.985 38.1514 127.885 35.3803 127.621C39.2634 126.091 44.1857 125.635 46.3096 121.501C45.2431 121.328 43.101 120.963 42.0345 120.781C48.7708 119.388 55.8808 117.903 61.1221 113.104C65.9533 109.415 67.4755 102.394 65.3881 96.8293C64.586 94.5617 62.7264 92.385 60.1377 92.4124C54.4952 92.212 50.5574 97.0024 45.4437 98.5506C40.8951 100.317 35.1797 99.7983 31.6885 103.723C27.5137 107.676 27.0032 113.841 23.4665 118.231C21.9624 120.171 20.0117 121.683 18.061 123.149C20.0664 119.679 22.0536 116.191 23.6761 112.521C22.3817 111.483 21.0965 110.426 19.8477 109.333C21.2697 110.026 22.6552 110.791 24.0499 111.537C26.0097 107.995 27.8145 104.343 30.148 101.019C28.015 99.6525 25.7727 98.4595 23.3753 97.6399C23.3024 97.2118 23.2386 96.7838 23.1748 96.3558C25.8182 97.6945 28.4526 99.0606 31.0322 100.536C36.8843 98.2227 43.4565 97.8675 48.9075 94.5434C50.6941 93.6783 50.3933 91.4106 50.9311 89.7895C51.478 90.6183 52.0341 91.4379 52.581 92.2667C54.714 91.4743 56.8744 90.7822 59.0712 90.1902C57.2299 88.4234 55.4797 86.5747 53.848 84.6167C56.7012 86.5201 59.3993 88.6238 62.1886 90.6183C66.8557 88.7604 70.0187 84.4709 74.8681 82.9774C75.3877 72.2674 78.8151 62.0583 80.4194 51.5122C81.6409 38.917 88.3862 27.4238 88.5594 14.6556C88.6962 10.9125 86.0436 6.75969 82.0602 6.54112C79.3802 6.24969 77.0649 7.94362 75.3877 9.8379C70.6568 14.8286 69.3715 21.8229 67.2568 28.125C64.5769 38.1793 61.2133 48.0606 59.2352 58.2879C58.6974 60.5192 57.4486 62.4954 56.8197 64.6993C55.4159 69.4806 54.9237 74.5897 52.5901 79.0704C50.2383 83.4418 42.8822 83.1868 40.8495 78.6151C38.0967 72.577 37.4586 65.8286 35.2891 59.5811C33.5207 53.2334 29.3368 47.6963 28.8172 40.9934C27.7325 31.3854 25.3078 21.75 20.349 13.3715C19.0273 10.6575 15.691 11.6958 13.5216 12.6156C9.63842 14.3642 9.01858 19.1454 8.88185 22.9067C7.58747 39.7093 16.8669 54.7179 18.9452 71.047C19.319 75.719 21.0144 80.1451 21.616 84.7624C21.2697 89.3251 20.9415 93.8786 20.8777 98.4504C20.7318 104.689 17.5506 110.381 17.6144 116.637C17.66 119.752 16.3474 122.612 15.1715 125.435C13.5216 129.26 13.4213 133.486 13.1387 137.584C12.9017 142.693 11.8717 147.984 13.795 152.902C16.4294 159.951 16.8578 167.583 19.6198 174.586C21.0873 178.848 22.6734 183.238 26.0005 186.444C25.7635 196.325 26.6568 206.197 28.2794 215.942C28.9722 219.83 29.036 223.792 29.0907 227.726C27.9877 227.745 26.8847 227.745 25.7818 227.745C25.8091 220.796 26.3287 213.747 24.8611 206.907C23.6943 201.152 22.9195 195.341 22.7008 189.476C19.7747 184.968 17.1222 180.187 15.7457 174.96C14.6337 170.807 14.9892 166.426 13.9227 162.264C12.8562 157.583 9.9757 153.494 9.31027 148.713C8.6722 144.942 10.477 141.381 10.6411 137.657C11.0787 132.019 11.9264 126.327 14.269 121.118C15.2991 119.206 14.8707 116.993 15.053 114.925C15.1897 110.754 17.268 107.02 18.0428 102.977C19.1822 97.7218 18.8359 92.2849 19.7292 86.9845C20.3581 84.3708 18.69 81.9847 18.3801 79.4438C16.949 69.5626 14.3784 59.8908 11.8352 50.2554C8.32581 41.6036 7.04966 32.1595 7.27754 22.8702C7.551 18.7629 8.31669 13.6629 12.5371 11.7595C15.4996 10.2295 20.4493 8.53558 22.3817 12.3424C26.8847 21.0488 29.9657 30.5384 31.2054 40.274C31.7888 44.7 33.9127 48.6799 35.4258 52.8236C38.0602 60.0274 40.4575 67.3313 42.4994 74.7263C43.0828 76.5113 43.6844 78.5058 45.3252 79.6168C47.0388 80.7734 49.7826 80.0722 50.4207 78.0049C52.6357 71.9486 54.158 65.6465 56.7285 59.7177C59.8186 47.4595 63.4465 35.3288 67.1018 23.2254C69.1801 17.6792 71.1582 11.7413 75.6338 7.62487ZM72.1608 85.9008C69.8638 87.8133 68.1592 90.3177 65.9715 92.3577C69.253 98.0679 69.3807 105.663 65.6069 111.182C62.854 115.244 58.3966 117.557 54.395 120.171C49.6459 122.912 47.3214 128.222 45.3434 133.048C46.3825 138.385 53.1097 140.953 57.9409 139.851C63.4465 135.189 66.0718 128.121 69.2439 121.819C66.9013 120.79 64.6771 119.515 62.6626 117.958C65.0235 118.951 67.3297 120.071 69.645 121.191C74.5764 113.942 80.1368 107.12 85.998 100.609C89.2978 98.1681 89.1793 93.2229 87.8484 89.7531C83.5368 86.2559 77.6848 83.1777 72.1608 85.9008ZM63.5559 139.642C65.2514 142.447 68.7882 144.196 71.9785 143.157C74.7223 141.008 75.1963 135.216 71.149 134.087C67.3206 132.875 65.3881 137.192 63.5559 139.642Z" fill="black"/>
<path d="M68.2148 33.0879C71.0953 36.1661 75.2975 36.9129 78.6793 39.1259C74.6503 38.8436 69.491 37.432 68.2148 33.0879Z" fill="black"/>
<path d="M16.4121 45.309C18.3081 42.3674 22.3189 41.7481 25.5731 41.9211C22.5468 43.1142 19.5205 44.3163 16.4121 45.309Z" fill="black"/>
<path d="M20.4668 66.0739C23.1558 63.1687 27.039 61.8937 30.7672 60.9375C29.0808 65.0448 24.6599 66.8025 20.4668 66.0739Z" fill="black"/>
<path d="M62.0156 62.9238C64.2671 64.9911 66.9379 66.6031 70.0372 66.9492C70.0098 67.3135 69.9551 68.042 69.9278 68.4063C66.4183 68.1969 63.629 65.9292 62.0156 62.9238Z" fill="black"/>
<path d="M30.9133 87.5756C34.5594 86.5374 37.7042 84.3335 41.2045 82.9219C40.8399 83.9965 40.2839 85.0529 39.1354 85.4354C34.6779 87.5756 30.0655 89.7431 25.0703 90.1712C26.5652 88.4772 28.9079 88.2769 30.9133 87.5756Z" fill="black"/>
<path d="M47.0839 86.1738C47.8587 88.3869 47.9316 90.7638 47.8678 93.0953C45.5252 91.6199 47.1477 88.3778 47.0839 86.1738Z" fill="black"/>
<path d="M48.7899 98.878C51.5336 96.4646 54.9427 94.9437 57.9873 92.9492C57.7412 93.5594 57.2489 94.7707 57.0028 95.3808C54.1315 96.9473 50.4124 97.8398 48.7169 100.845C48.2429 103.422 48.5164 106.892 50.9502 108.431C53.7669 108.741 56.7476 108.286 59.2634 106.938C61.6061 105.626 61.524 102.63 61.3691 100.308C61.1321 98.2678 61.1959 95.4355 58.7712 94.6796C59.3364 94.2606 59.9106 93.8599 60.4849 93.4592C62.627 96.8471 63.3745 101.109 62.2442 104.971C61.205 108.076 57.6135 109.087 54.7331 109.579C52.5636 109.97 49.4917 110.016 48.5711 107.53C47.614 104.843 46.9303 101.3 48.7899 98.878Z" fill="black"/>
<path d="M34.5234 111.092C36.4286 113.323 38.3519 115.536 40.1203 117.877C37.0302 116.957 35.8269 113.696 34.5234 111.092Z" fill="black"/>
<path d="M54.1677 123.605C56.4101 122.858 59.1174 123.441 60.6396 125.308C62.5265 127.43 61.7699 130.626 60.7308 132.967C59.5731 135.417 57.7501 138.34 54.6782 138.34C52.0074 138.331 49.3457 136.783 47.869 134.57C46.684 132.757 47.6046 130.526 48.5982 128.859C49.9746 126.71 51.6792 124.497 54.1677 123.605ZM53.8578 125.08C51.0411 126.674 48.8079 129.788 48.4524 133.021C49.5462 136.582 54.0948 138.03 57.4037 137.01C59.5367 134.779 60.8584 131.692 60.986 128.604C60.5394 125.453 56.5468 124.251 53.8578 125.08Z" fill="black"/>
<path d="M73.0723 181.772C73.2272 178.156 73.8471 174.55 75.1232 171.162C75.1962 174.778 74.868 178.548 73.0723 181.772Z" fill="black"/>
<path d="M72.918 186.935C74.6225 183.493 75.4976 179.695 77.4392 176.371C78.1502 179.795 77.5759 183.274 76.7373 186.626C75.4612 186.726 74.185 186.826 72.918 186.935Z" fill="black"/>
<path d="M80.7483 181.042C82.3891 179.667 84.0116 178.283 85.6979 176.98C84.0389 180.724 81.514 184.12 77.9863 186.297C78.0501 184.439 78.1686 182.59 78.3054 180.751C78.9161 180.824 80.1376 180.969 80.7483 181.042Z" fill="black"/>
<path d="M39.5729 182.146C42.4078 181.026 45.2245 179.86 48.1505 179.004C47.0567 180.051 45.9264 181.062 44.8143 182.091C50.8213 182.975 56.9924 183.639 62.5072 186.362C66.9647 188.53 72.0146 188.439 76.8184 189.195C72.5706 190.178 68.0403 190.37 63.911 188.785C56.0536 185.698 47.6127 184.313 39.2539 183.494L39.5729 182.146Z" fill="black"/>
<path d="M44.5412 188.229C48.7343 188.484 52.8545 189.376 56.9655 190.187C60.5114 190.942 64.2943 191.68 67.0745 194.203C59.4358 192.755 52.0523 190.187 44.5412 188.229Z" fill="black"/>
</g>
<defs>
<clipPath id="clip0_1783_19625">
<rect width="116" height="216" fill="white"/>
</clipPath>
</defs>
</svg>
