<svg width="200" height="200" viewBox="0 0 200 200" fill="none" xmlns="http://www.w3.org/2000/svg">
<circle cx="67.248" cy="100" r="25.4355" fill="white"/>
<circle cx="132.756" cy="99.998" r="25.4355" fill="white"/>
<path d="M69.4848 108.351C71.307 107.401 73.9626 108.979 73.7459 111.112C73.9181 112.468 72.8515 113.506 71.7459 114.073C70.0681 114.579 67.957 113.512 67.7293 111.695C67.4293 110.351 68.1904 108.856 69.4848 108.351Z" fill="#F7F7F7"/>
<path d="M133.377 109.411C134.75 107.867 137.633 107.467 138.716 109.539C140.15 111.628 138.072 114.773 135.572 114.1C133.283 113.911 132.583 111.245 133.377 109.411Z" fill="#F7F7F7"/>
<path d="M54.6729 75.3283C60.1752 72.4703 66.7048 71.3219 72.7948 72.7264C82.7194 74.6626 91.1571 82.6483 93.6071 92.4655C93.8053 92.5584 94.1963 92.7384 94.3945 92.8312C94.2802 92.9901 94.0626 93.3136 93.9539 93.4726C94.9523 98.8824 94.6277 104.594 92.4705 109.696C89.0107 118.274 80.8405 124.807 71.678 126.187C65.4587 127.375 58.9152 125.861 53.4763 122.731C46.5972 118.81 41.7891 111.613 40.5099 103.836C38.3819 92.6306 44.4808 80.427 54.6729 75.3283ZM63.0578 74.7724C56.7529 75.7975 51.0013 79.4618 47.232 84.5936C43.1349 90.0077 41.5194 97.2104 42.793 103.87C43.8499 110.248 47.7209 115.948 52.8857 119.735C57.8295 123.173 64.0183 124.918 70.0231 124.176C77.836 123.325 85.1316 118.58 88.9961 111.728C91.8843 106.756 92.8584 100.791 91.9428 95.133C90.8543 89.2214 87.7087 83.6523 82.9537 79.935C77.4457 75.5248 70.0307 73.4105 63.0578 74.7724Z" fill="black"/>
<path d="M132.692 73.3824C140.112 73.5741 147.564 76.6004 152.6 82.1348C157.525 87.3725 160.093 94.6137 159.951 101.768C159.462 109.032 156.285 116.231 150.711 121.011C145.664 125.583 138.828 127.865 132.076 127.931C125.159 127.594 118.228 124.861 113.445 119.771C109.53 116.042 107.013 110.997 105.989 105.725C104.248 96.8836 107.257 87.1858 113.914 81.0612C118.824 76.1188 125.787 73.5454 132.692 73.3824ZM131.106 75.7236C124.117 76.2072 117.358 79.7071 113.074 85.2676C109.91 89.3389 107.881 94.4052 107.784 99.5876C107.326 107.797 111.356 116.112 118.08 120.846C123.377 124.691 130.243 126.472 136.718 125.278C143.278 124.297 149.217 120.403 153.069 115.051C156.916 109.648 158.528 102.629 157.218 96.107C156.082 89.5054 152.016 83.5679 146.489 79.8464C141.974 76.8951 136.498 75.3472 131.106 75.7236Z" fill="black"/>
<path d="M62.1934 83.0066C65.8447 82.14 70.0441 81.9345 73.4825 83.6697C69.6826 85.8669 69.7182 92.1911 73.6005 94.2408C76.1909 95.8703 79.8563 95.4096 81.8427 93.0375C82.1515 92.5935 82.4769 92.161 82.8241 91.7456C84.593 95.5648 85.4055 99.9818 84.2679 104.104C82.7261 111.236 76.2498 116.976 68.9693 117.598C66.2389 117.705 63.4172 117.649 60.8545 116.587C55.0673 114.483 50.6501 109.149 49.6538 103.073C47.9236 94.5035 53.6714 85.1546 62.1934 83.0066ZM65.2953 108.695C63.9911 109.175 63.2005 110.654 63.4737 112.004C63.6654 113.825 65.7549 114.934 67.4424 114.461C68.559 113.917 69.6461 112.899 69.5008 111.541C69.7597 109.412 67.136 107.782 65.2953 108.695Z" fill="black"/>
<path d="M121.542 87.5225C126.333 83.2723 133.443 82.3132 139.396 84.4374C138.873 85.0327 138.312 85.5994 137.723 86.1267C135.572 89.2346 136.616 94.0508 140.175 95.5884C143.305 97.1897 146.988 95.5736 148.821 92.7983C151.024 97.4374 151.385 103.023 149.351 107.778C147.269 113.016 142.473 116.983 137.013 118.286C131.835 119.333 126.128 118.264 122.017 114.843C119.394 112.907 117.544 110.081 116.392 107.063C113.887 100.312 115.972 92.1351 121.542 87.5225ZM129.723 110.712C128.892 112.529 129.539 115.209 131.824 115.443C134.31 116.165 136.45 113.062 135.058 110.945C134.016 108.852 131.125 109.195 129.723 110.712Z" fill="black"/>
</svg>
