<svg width="173" height="180" viewBox="0 0 173 180" fill="none" xmlns="http://www.w3.org/2000/svg">
<path d="M114.547 146.737C115.321 146.026 115.908 145.133 116.34 144.179C115.931 145.254 115.171 146.146 114.409 146.982C114.063 147.226 113.689 147.463 113.476 147.84C113.31 148.158 112.985 148.405 112.955 148.781L112.205 149.546C111.758 149.678 111.447 150.049 111.041 150.262C111.97 149.638 112.83 148.881 113.406 147.91C113.667 147.411 114.198 147.161 114.547 146.737Z" fill="white"/>
<path d="M109.171 148.594C109.115 148.403 109.183 148.334 109.375 148.386C109.425 148.572 109.358 148.642 109.171 148.594Z" fill="black"/>
<path d="M41.2062 49.6494L41.8039 49.0395C42.1002 49.0132 42.3273 48.8235 42.5192 48.6125C42.9432 48.1176 43.5857 47.9046 44.0611 47.47C44.2647 47.2622 44.5522 47.1893 44.8169 47.0925C43.9342 47.6095 43.0307 48.1209 42.3009 48.8471C41.6084 49.313 41.1282 50.0067 40.583 50.6236C40.5666 50.8861 40.5251 51.1472 40.4719 51.4052C40.5007 51.13 40.5321 50.854 40.586 50.5819C40.7524 50.2404 41.2273 50.0857 41.2062 49.6494Z" fill="white"/>
<path d="M42.1167 50.2713C42.5322 49.6016 43.0971 48.9612 43.8573 48.6853C44.8618 48.2713 45.9694 48.3276 47.0338 48.3186C47.8366 48.378 48.662 48.3739 49.4343 48.6277C50.5618 49.0928 51.6632 49.679 52.5391 50.5456C52.8639 50.6973 53.0934 50.9882 53.4042 51.1642C53.8609 51.7618 54.5428 52.1348 55.0309 52.7038C55.6316 53.2167 56.2538 53.7011 56.8217 54.251C57.2717 54.4397 57.5571 54.8958 57.9177 55.2162C57.5772 55.567 57.2334 55.9145 56.8795 56.252C56.5789 56.1751 56.2552 56.0426 55.9534 56.1855C54.975 56.5444 54.2915 57.405 53.6766 58.2042C53.4664 58.2555 53.3953 58.4727 53.2802 58.6255C53.124 58.8237 52.9366 58.9946 52.7678 59.1804C52.5225 59.7201 51.9484 60.0266 51.6294 60.5221C51.552 60.6853 51.4037 60.7693 51.2478 60.8408C50.9153 60.6601 50.6164 60.4248 50.3958 60.1147C48.5147 58.3685 46.1532 57.2202 44.3008 55.4396C44.2641 55.43 44.1914 55.4116 44.1555 55.4028C43.8088 54.9706 43.4521 54.5485 43.041 54.172C42.4962 53.4353 42.0263 52.6087 41.8148 51.7104C41.6548 51.2122 41.9263 50.7197 42.1167 50.2713Z" fill="white"/>
<path d="M52.1812 62.2683C52.4874 61.414 53.2176 60.8135 53.709 60.0731C54.2547 59.5095 54.7632 58.8947 55.4075 58.4409C55.6496 58.2427 55.8249 57.9528 56.1252 57.8348C56.9473 57.176 57.8268 56.5899 58.764 56.1082C59.1982 56.2171 59.6309 56.3377 60.0401 56.5193C60.3512 56.6445 60.5219 56.9585 60.7994 57.1331C61.3079 57.422 61.6355 57.9327 62.1046 58.2737C62.6765 58.6461 63.0788 59.2185 63.6318 59.6169C63.9531 59.8394 64.1268 60.2108 64.4349 60.4485C65.1766 60.9808 65.6802 61.7579 66.3527 62.3642C66.6436 62.9494 67.1757 63.3488 67.4913 63.9138C67.6788 64.1601 67.4772 64.4853 67.2798 64.6531C66.7414 64.9533 66.1476 64.6319 65.5922 64.5692C65.3307 64.8176 65.1199 65.1421 64.779 65.2879C64.4002 65.6291 64.0735 66.0264 63.6812 66.3527C63.1226 66.7947 62.7072 67.3953 62.1022 67.7821C61.5371 68.3958 60.8421 68.8626 60.287 69.4862C60.0903 69.7189 59.8388 69.8847 59.5609 70.0016C59.0288 69.5197 58.5575 68.9672 57.9587 68.565C56.8429 67.4601 55.5366 66.5411 54.5875 65.2745C53.988 64.8141 53.5568 64.187 53.1283 63.5741C52.7586 63.1771 52.5476 62.6653 52.1812 62.2683Z" fill="white"/>
<path d="M25.9529 90.2772C26.1971 88.8229 27.3972 87.4889 28.9145 87.3745C29.228 87.4064 29.529 87.5083 29.8354 87.5793C31.3259 88.1016 32.6551 88.9821 33.9009 89.9275C35.669 91.3699 37.2769 93.0347 39.2931 94.1431C39.0638 94.6044 38.7195 94.9893 38.4532 95.4227C37.8589 96.2091 37.243 96.9875 36.6504 97.7689C36.2263 98.2522 35.9348 98.8307 35.5452 99.3394C35.4028 99.5923 35.2328 99.8281 35.0778 100.074C34.1283 99.4202 33.1074 98.8816 32.0686 98.3847C30.7599 97.5574 29.5208 96.6103 28.4573 95.4806C27.9127 95.0129 27.5086 94.4223 27.0714 93.8619C26.4563 92.7627 25.9792 91.5514 25.9529 90.2772Z" fill="white"/>
<path d="M61.0243 71.344C61.5984 70.4586 62.2587 69.6215 63.0134 68.8834C63.6321 68.0434 64.5285 67.4821 65.2793 66.7766C65.517 66.6451 65.7615 66.5202 65.9721 66.3456C66.5926 65.8471 67.3112 65.4909 68.0325 65.1621C68.4991 65.339 68.7793 65.7768 69.1852 66.046C69.5073 66.271 69.8262 66.4993 70.1064 66.7772C70.9168 67.3472 71.6878 67.9708 72.509 68.5265C72.7231 68.6984 72.8994 68.9141 73.1251 69.0742C73.7549 69.4902 74.2036 70.1196 74.8186 70.5557C75.2456 71.0895 75.7558 71.5467 76.2306 72.0384C75.9969 72.3206 75.7372 72.5806 75.5522 72.899C75.3808 73.1681 75.0486 73.2614 74.8587 73.504C74.6017 73.9598 74.1878 74.2946 73.8167 74.6549C73.4442 74.8027 73.2618 75.2144 72.8961 75.3788C72.0701 75.9827 71.1118 76.5146 70.0632 76.5326C69.3804 76.5495 68.6418 76.5002 68.0679 76.0878C67.9286 75.986 67.7563 75.9144 67.5888 75.991C66.3384 76.3951 64.9186 75.9404 64.0212 75.0115C63.6489 74.6054 63.2023 74.2667 62.887 73.8109C62.6426 73.451 62.2205 73.232 62.0448 72.8256C61.7901 72.2743 60.9828 72.0158 61.0243 71.344Z" fill="white"/>
<path d="M38.0692 97.3637C38.7772 96.6194 39.2379 95.6493 40.0906 95.0435C40.4125 94.8362 40.7883 94.69 41.1767 94.7094C41.944 94.805 42.6766 95.0858 43.368 95.4237C43.8444 95.658 44.3658 95.8177 44.7939 96.1416C44.9479 96.3766 45.0489 96.6422 45.0992 96.919C45.0739 97.7106 44.5801 98.3761 44.0425 98.9179C43.618 99.4453 43.1779 99.9887 42.958 100.639C42.6616 102.044 42.3209 103.44 41.982 104.836C41.0753 104.881 40.1733 104.485 39.4302 103.985C38.5393 103.204 37.744 102.322 37.0298 101.382C36.5534 100.817 36.5157 99.9773 36.8139 99.3212C37.1147 98.5985 37.6435 98.0052 38.0692 97.3637Z" fill="white"/>
<path d="M64.5305 79.2337C64.5533 79.1835 64.5981 79.0839 64.6201 79.0345C65.158 78.4419 65.7439 77.8962 66.2902 77.3135C67.0143 77.1721 67.718 77.4841 68.4302 77.5669C69.9495 77.8057 71.3305 78.539 72.5993 79.38C73.0072 79.5983 73.3421 79.9265 73.7467 80.1532C74.3186 80.4481 74.3982 81.1412 74.675 81.6582C75.2362 82.6155 75.6913 83.6288 76.2102 84.609C76.6122 85.2322 76.8701 85.9334 77.2108 86.5906C77.2497 86.6468 77.3291 86.7593 77.3688 86.8164C77.6258 87.2678 77.9143 87.7005 78.1638 88.1578C78.4273 88.5133 78.6569 88.8917 78.9097 89.2548C79.535 89.9682 80.072 90.7617 80.7386 91.438C81.6407 92.581 82.7813 93.5124 83.7883 94.5652C84.0297 94.8726 84.5044 94.9503 84.6235 95.3556C84.8614 95.7305 85.3472 95.834 85.5412 96.2352C85.9457 96.7784 86.5791 97.1352 86.9076 97.7358C87.5264 98.301 88.0057 98.9867 88.4295 99.7038C89.0084 100.611 89.5438 101.573 89.7505 102.643C89.6866 102.669 89.5605 102.724 89.4975 102.751C89.1258 102.644 88.7898 102.455 88.4506 102.276C88.3171 102.165 88.1876 102.053 88.0549 101.944C87.673 101.738 87.3771 101.395 86.9877 101.192C86.1101 100.408 84.9488 99.6605 83.7202 99.9835C83.2007 100.256 82.6471 100.456 82.1353 100.744C81.0151 101.658 80.9475 103.289 81.382 104.568C81.6125 105.194 82.094 105.692 82.2963 106.333C81.9561 106.468 81.6002 106.279 81.2559 106.251C80.375 105.634 79.7783 104.711 78.9691 104.01C78.7237 103.556 78.2404 103.288 78.0091 102.831C77.5592 102.332 77.0285 101.911 76.6158 101.379C76.2269 100.903 75.7019 100.55 75.3585 100.035C75.1861 99.7935 74.9526 99.6076 74.7604 99.3846C74.4177 98.8508 73.9031 98.4653 73.4769 98.0048C72.9848 97.4483 72.3855 96.9995 71.9033 96.4346C71.5252 95.8728 70.9862 95.4501 70.5165 94.97C69.2734 93.7139 67.9916 92.4973 66.7237 91.2648C66.0031 90.8422 65.563 90.0794 64.8424 89.6585C64.3741 89.2393 63.9339 88.7914 63.4904 88.3469C63.1221 87.9232 62.5603 87.719 62.2431 87.2432C61.8447 86.655 61.9663 85.9149 61.8479 85.2497C61.8948 84.1231 62.1708 83.0116 62.621 81.9784C63.165 81.0042 63.7809 80.0609 64.5305 79.2337ZM77.7724 98.3981C77.731 98.7484 77.5928 99.1588 77.8408 99.4662C78.5079 99.2112 79.0151 98.7105 79.5798 98.2959C79.9828 97.9569 80.2086 97.4707 80.5377 97.0676C80.8925 96.3318 81.263 95.4943 81.1046 94.6646C80.6063 95.3818 79.88 95.8772 79.29 96.5095C79.0641 96.735 78.7472 96.8632 78.5734 97.1398C78.3011 97.554 77.9099 97.9078 77.7724 98.3981Z" fill="white"/>
<path d="M44.4249 102.069C44.799 100.93 45.2171 99.7763 45.9503 98.8127C46.1974 98.5437 46.4131 98.2075 46.7522 98.05C47.5987 98.5596 48.3591 99.2041 49.1859 99.7456C49.6891 100.084 50.1899 100.426 50.6635 100.804C51.8513 101.617 53.0359 102.443 54.1875 103.305C53.0758 104.729 52.6132 106.497 52.0915 108.19C51.9582 108.767 51.7364 109.318 51.6124 109.898C51.4992 110.235 51.4847 110.615 51.2695 110.911C50.9486 110.725 50.6392 110.524 50.3232 110.331C49.4068 109.745 48.451 109.222 47.5543 108.607C46.5859 108.064 45.6764 107.422 44.8081 106.731C44.3285 106.261 43.7038 105.939 43.3298 105.366C43.3427 105.075 43.4783 104.809 43.5629 104.536C43.8862 103.726 44.0992 102.878 44.4249 102.069Z" fill="white"/>
<path d="M54.3275 90.994C54.8768 90.048 55.7999 89.3315 56.8394 88.9996C57.7865 88.666 58.6525 88.0701 59.6693 87.9566C60.0377 87.9037 60.4062 88.0158 60.7499 88.1415C61.29 88.59 61.7486 89.1285 62.2748 89.5947C63.0673 90.1123 63.6375 90.8938 64.3665 91.4879C64.9169 91.8722 65.3685 92.3757 65.8463 92.8424C67.4573 94.398 69.0609 95.9646 70.6414 97.5497C71.2924 98.4994 72.183 99.2434 72.858 100.175C73.5055 100.863 74.0507 101.636 74.6479 102.366C75.1867 103.091 75.838 103.739 76.285 104.528C75.5096 105.188 74.6091 105.676 73.7643 106.239C73.2371 106.738 72.901 107.428 72.7775 108.141C73.288 109.445 73.8384 110.731 74.3605 112.029C74.3142 112.063 74.225 112.131 74.1795 112.164C73.1093 111.364 71.9603 110.677 70.8951 109.87C69.0548 108.619 67.2416 107.329 65.4407 106.021C64.7546 105.551 64.0765 105.06 63.4265 104.54C62.5065 103.929 61.6678 103.196 60.8152 102.497C60.4414 102.276 60.1688 101.93 59.8477 101.645C58.838 100.894 58.0119 99.9264 57.096 99.0668C56.8035 98.6449 56.4293 98.2963 56.079 97.9233C55.6054 97.2251 54.8828 96.6951 54.5739 95.8894C54.2864 95.1392 54.0711 94.3592 53.9771 93.5597C53.8151 92.6967 53.9374 91.7809 54.3275 90.994ZM66.9644 103.178C67.4141 103.487 67.971 103.291 68.3585 102.979C69.1791 102.336 69.9861 101.672 70.6804 100.888L70.4669 100.872C69.7527 101.329 69.0208 101.76 68.343 102.273C67.8719 102.555 67.4 102.842 66.9644 103.178Z" fill="white"/>
<path d="M72.8009 77.6775C72.592 77.6096 72.5903 77.3606 72.5144 77.1922C73.0505 76.7462 73.7203 76.5054 74.3096 76.1413C74.9966 75.7096 75.7209 75.3441 76.4401 74.9704C76.6976 74.817 76.9712 74.6877 77.2016 74.493C77.4999 74.3367 77.7904 74.1597 78.1083 74.044C78.3366 74.0484 78.505 74.2283 78.6927 74.3364C78.9039 74.7891 79.4127 74.9447 79.7263 75.3047C80.467 76.067 81.3067 76.7216 82.0434 77.4897C83.0105 78.233 83.7991 79.1888 84.781 79.9119C86.2882 81.4186 87.9435 82.7473 89.4589 84.2455C90.1835 84.6406 90.613 85.4343 91.3279 85.8577C91.4956 86.1326 91.7334 86.3359 92.0099 86.4981C92.5643 87.0298 93.1161 87.564 93.6614 88.105C93.4581 88.4269 93.0707 88.3391 92.7549 88.4073C92.0604 88.505 91.3712 88.6394 90.6758 88.7364C90.1688 88.8414 89.6446 88.8242 89.1429 88.9575C90.8596 89.7757 92.7831 90.1171 94.6756 90.1181C94.8991 90.1425 95.1227 90.1719 95.3478 90.1929C95.3377 90.2639 95.3183 90.4065 95.309 90.4782C93.8351 91.2585 92.4241 92.1598 90.9544 92.9492C90.2528 93.4161 89.4443 93.6958 88.7681 94.204C89.2947 94.377 89.8548 94.3272 90.3984 94.3009C91.2356 94.1384 92.0174 93.7799 92.8321 93.5409C93.1933 93.7564 92.7657 94.0481 92.6262 94.2544C92.1116 95.01 91.5172 95.7024 90.985 96.4441C90.8318 96.7738 90.5258 96.9935 90.3457 97.3068C90.0694 97.6578 89.8839 98.0928 89.5093 98.3572C88.9009 97.8353 88.4113 97.2038 87.9292 96.5681C87.4716 96.1295 87.1081 95.6051 86.6398 95.1775C86.29 94.8545 85.9962 94.4709 85.7514 94.0644C85.5312 93.7992 85.2227 93.5974 85.0886 93.2714C84.5839 92.7142 83.9579 92.259 83.5714 91.6015C83.3385 91.2265 82.9363 90.9957 82.7059 90.6181C82.41 90.1863 81.9291 89.9113 81.6811 89.444C81.4814 89.057 81.0983 88.8217 80.8416 88.4811C80.7934 88.33 80.8944 88.1849 80.9313 88.0429C81.2495 87.0635 81.6129 86.1019 81.9445 85.129C82.1232 84.3575 82.5301 83.6596 82.6913 82.8841C82.9119 82.0448 82.9458 81.1248 82.6068 80.3111C82.6492 80.7105 82.5724 81.1036 82.4588 81.4838C81.9309 82.3187 81.481 83.2137 80.8524 83.978C80.5362 83.7571 80.4838 83.3595 80.3197 83.0371C79.6202 81.0042 79.2458 78.8364 78.1496 76.9574C78.1842 78.3056 78.5233 79.6291 78.5337 80.9801C78.6989 82.0638 78.7043 83.1708 78.5813 84.259C78.4971 84.5822 78.4901 84.953 78.2435 85.2028C78.0535 85.0265 77.8882 84.8249 77.7999 84.5801C77.2405 83.3062 76.8014 81.9854 76.2735 80.6996C76.0624 80.1661 75.7095 79.7082 75.4321 79.2104C75.1273 78.6445 74.7058 78.1556 74.2028 77.7583C73.746 77.5647 73.241 77.9504 72.8009 77.6775Z" fill="white"/>
<path d="M55.0773 105.318C55.188 104.9 55.6599 104.86 56.0153 104.834C57.0067 104.933 57.8342 105.544 58.731 105.92C58.9822 106.044 59.3017 106.093 59.4609 106.348C59.459 106.653 59.4063 106.956 59.4111 107.263C59.4372 107.297 59.4912 107.364 59.5182 107.399C60.6478 106.746 62.0027 106.466 63.2859 106.754C64.6483 107.047 65.8468 107.859 66.8344 108.81C67.1573 109.273 66.6349 109.746 66.2412 109.94C65.4461 110.311 64.582 110.681 64.0766 111.439C63.8275 111.85 63.5567 112.252 63.1994 112.578C62.569 113.169 62.0296 113.861 61.3158 114.357C60.6081 115.039 59.8954 115.726 59.3095 116.517C59.0614 116.858 58.9499 117.275 58.7244 117.628C58.3546 118.039 57.6692 118.221 57.191 117.886C56.3573 117.325 55.7418 116.509 54.9731 115.873C54.3549 115.529 53.761 115.115 53.3237 114.551C52.8957 113.99 52.7476 113.268 52.7247 112.576C52.7847 110.941 53.4213 109.401 54.06 107.918C54.3735 107.041 54.7614 106.194 55.0773 105.318Z" fill="white"/>
<path d="M56.9455 103.523C57.7547 102.902 58.9544 102.679 59.871 103.202C60.4631 103.521 60.7479 104.165 61.1826 104.647C60.8911 104.975 60.4087 104.797 60.0227 104.849C58.9814 104.926 57.9562 104.536 57.1566 103.886C57.0846 103.764 57.015 103.644 56.9455 103.523Z" fill="white"/>
<path d="M108.549 64.5048C108.888 63.9749 109.312 63.495 109.799 63.0945C110.437 62.3126 111.172 61.5888 112.038 61.0654C112.552 60.5746 113.122 60.1349 113.751 59.802C114.24 59.4381 114.781 59.1303 115.354 58.9205C116.227 59.0058 117.084 59.2288 117.951 59.3675C118.326 59.4312 118.489 59.8702 118.316 60.1885C118.102 60.5955 117.867 60.991 117.718 61.4265C117.703 61.6182 117.659 61.8044 117.581 61.9801C117.242 62.6849 116.938 63.4201 116.806 64.1953C116.663 64.8572 116.46 65.5123 116.403 66.1884C116.245 67.5244 116.116 68.8677 116.14 70.2152C116.005 71.9833 116.067 73.7619 115.836 75.5234C115.83 75.7151 115.626 75.8271 115.455 75.8096C114.897 75.7394 114.336 75.8075 113.777 75.7632C113.781 76.1047 113.934 76.448 113.856 76.7853C113.642 76.9582 113.392 77.0781 113.158 77.2179C113.617 77.6989 114.111 78.1454 114.581 78.6155C114.827 78.7805 114.655 79.0679 114.635 79.2939C113.867 82.8317 113.084 86.3672 112.348 89.9114C112.117 90.7617 111.994 91.635 111.806 92.4949C111.712 93.0906 111.502 93.6599 111.434 94.2595C111.254 94.8702 111.229 95.5144 111.032 96.1203C110.986 96.1607 110.894 96.2408 110.85 96.2812C110.024 96.0338 109.256 95.6317 108.467 95.2922C107.764 94.9528 107.06 94.6158 106.398 94.1993C105.435 93.6909 104.529 93.0853 103.627 92.4779C102.591 91.742 101.551 91.0078 100.534 90.2425C100.082 89.7781 99.4034 89.6008 99.033 89.0498C99.135 88.2691 99.3605 87.5088 99.6186 86.7674C99.8689 86.3975 100.35 86.2869 100.727 86.5313C100.558 86.1407 100.302 85.7892 100.193 85.373C100.936 83.0841 101.894 80.8554 103.075 78.7586C103.309 78.3289 103.584 77.9222 103.816 77.4909C104.124 77.0346 104.418 76.5627 104.799 76.1624C104.887 76.0799 104.946 75.9802 104.98 75.8649C105.131 75.6793 105.302 75.5085 105.476 75.3434C106.159 75.4565 106.853 75.3629 107.537 75.466C108.149 75.3666 108.774 75.5061 109.38 75.3284C109.333 75.288 109.238 75.2065 109.189 75.1654C108.71 74.912 108.194 74.758 107.668 74.6426C106.98 74.6253 106.293 74.5897 105.605 74.5808C105.12 74.4532 104.506 74.536 104.164 74.1097C104.399 73.0344 104.66 71.9656 104.951 70.904C105.627 69.1155 106.41 67.345 107.542 65.7935C107.828 65.3283 108.178 64.905 108.549 64.5048Z" fill="white"/>
<path d="M60.7566 116.312C61.6076 115.221 62.6941 114.345 63.7411 113.445C64.228 112.916 64.8177 112.504 65.3333 112.005C66.4624 110.991 68.1694 110.356 69.625 111.049C70.6146 111.626 71.3726 112.521 72.3072 113.174C72.5669 113.409 72.798 113.683 73.1046 113.86C73.3113 113.947 73.3718 114.165 73.4478 114.355C73.3174 114.964 73.3573 115.602 73.2769 116.223C73.2127 117.525 72.9121 118.838 73.1485 120.139C73.221 120.545 73.379 120.927 73.5278 121.309C73.708 121.093 73.7176 120.804 73.7565 120.538C73.8561 119.683 73.9223 118.824 73.9986 117.967C74.1319 117.069 74.2144 116.099 74.7632 115.34C75.2971 114.77 76.158 114.649 76.8824 114.868C77.3344 115.411 78.0014 115.959 77.9402 116.737C77.9685 117.471 78.0525 118.201 78.1307 118.929C78.2598 120.156 78.4489 121.377 78.6711 122.591C78.8659 123.641 79.1122 124.682 79.3909 125.714C79.4801 126.043 79.5378 126.389 79.6958 126.695C79.8141 126.862 80.0456 126.774 80.2158 126.796C79.9474 124.575 79.5835 122.37 79.2894 120.154C79.0257 118.475 78.8427 116.784 78.5533 115.11C78.767 114.739 78.9765 114.293 79.3584 114.085C79.6667 113.767 79.9927 113.471 80.3609 113.225C80.6326 112.835 80.9531 112.485 81.2702 112.132C81.58 111.638 81.9107 111.149 82.2465 110.671C82.5582 110.934 82.5185 111.363 82.6287 111.719C82.7679 112.132 82.8398 112.576 83.11 112.931C83.5436 114.123 84.0884 115.268 84.6431 116.411C84.9044 117.036 85.3023 117.589 85.6357 118.178C85.6685 118.131 85.7342 118.039 85.7679 117.993C86.0157 117.292 86.2693 116.596 86.5622 115.913C86.3273 115.502 86.0955 115.067 86.1221 114.578C86.1569 114.144 85.9065 113.768 85.7991 113.363C85.4909 112.306 85.1012 111.248 85.0682 110.137C85.5352 109.94 86.0114 109.758 86.4571 109.512C86.9169 109.183 87.4509 108.947 87.828 108.512C88.2806 108.133 88.7988 107.816 89.1672 107.344C89.3799 107.053 89.644 106.805 89.8811 106.535C90.6081 105.455 91.1138 104.23 91.3331 102.946C91.5108 101.745 91.0432 100.571 90.463 99.5454C90.2454 99.2777 89.9863 99.0287 89.8514 98.7069C90.2942 98.181 90.8211 97.7309 91.2731 97.2124C91.4248 96.9818 91.5774 96.7504 91.7955 96.575C91.9735 96.5432 92.0827 96.3913 92.2048 96.2718C92.6153 95.5197 93.4328 95.0642 93.8742 94.3192C94.3565 93.8304 94.7762 93.2473 95.4052 92.9336C95.9414 92.6625 96.4935 92.3179 97.1195 92.3574C98.0345 92.3191 98.8295 92.9234 99.3811 93.5992C99.6518 94.1695 100.312 94.3453 100.731 94.7834C101.028 94.9062 101.228 95.1699 101.47 95.3724C101.819 95.5014 102.004 95.8543 102.319 96.0378C102.743 96.2934 103.029 96.7153 103.425 97.0079C103.853 97.2377 104.339 97.3894 104.829 97.3878C105.316 97.3154 105.82 97.1763 106.217 96.8782C106.178 96.6845 106.105 96.4995 106.042 96.3136C105.762 95.8866 105.337 95.5851 105.066 95.153C104.812 94.7574 104.343 94.5997 104.041 94.2537C103.648 93.8195 103.153 93.498 102.759 93.0688C102.955 92.8169 103.317 92.9158 103.55 93.0559C103.826 93.2896 104.104 93.5192 104.389 93.7438C104.844 93.9866 105.145 94.4434 105.61 94.6819C107.083 95.8 108.727 96.6956 110.496 97.2417C110.73 97.296 110.916 97.4949 110.957 97.7311C111.294 98.9371 111.549 100.167 111.704 101.412C111.848 103.446 111.765 105.52 111.213 107.498C110.812 109.172 110.087 110.738 109.44 112.326C109.059 113.09 108.749 113.89 108.303 114.62C107.545 116.19 106.714 117.724 105.797 119.204C105.533 119.654 105.199 120.06 105.004 120.547C104.639 121.079 104.314 121.638 103.948 122.171C103.19 122.681 102.528 123.315 101.865 123.939C101.091 124.242 100.335 124.599 99.6287 125.042C98.7317 125.547 97.6721 125.544 96.7271 125.911C96.315 126.008 95.8842 125.914 95.4865 125.797C95.1538 125.68 94.7916 125.691 94.4677 125.549C93.8496 125.294 93.1212 125.255 92.6042 124.791C92.3243 124.55 92.0002 124.374 91.6834 124.189C91.5393 123.941 91.3075 123.753 91.1998 123.484C91.0092 123.086 90.7148 122.73 90.6495 122.282C90.5617 121.676 90.2554 121.129 89.9304 120.621C89.5049 121.208 89.5277 121.981 89.1775 122.604C89.4131 123 89.7521 123.326 90.0002 123.715C90.2648 124.103 90.7386 124.334 90.9256 124.776C91.5327 125.343 92.0415 126.056 92.7819 126.458C92.7483 126.509 92.6818 126.612 92.6482 126.663C92.9487 126.89 93.1321 127.228 93.4112 127.477C94.0456 127.779 94.8164 127.889 95.2936 128.449C95.2549 128.908 95.448 129.384 95.2468 129.825C94.9656 130.354 94.5545 130.797 94.2281 131.297C92.1659 134.022 90.2684 136.975 87.4561 139C86.6836 139.539 85.8357 139.96 84.9494 140.279C83.8585 140.635 82.6963 140.703 81.5555 140.654C81.2345 140.628 80.9537 140.455 80.6699 140.319C80.1433 140.053 79.6011 139.819 79.0908 139.522C77.9917 138.99 76.9187 138.402 75.8687 137.779C75.2161 137.006 74.3935 136.388 73.7896 135.573C73.2074 134.928 72.5081 134.392 71.9978 133.685C71.3814 133.032 70.7106 132.429 70.0958 131.774C69.5583 131.008 68.7772 130.457 68.1793 129.742C67.605 129.051 66.8698 128.508 66.3335 127.785C65.6172 126.971 64.7524 126.295 64.0947 125.429C63.5519 124.812 62.8439 124.322 62.3938 123.637C61.4658 122.647 60.3241 121.777 59.7978 120.484C59.2934 119.042 59.9441 117.503 60.7566 116.312Z" fill="white"/>
<path d="M74.7123 107.722C74.9545 107.202 75.4797 106.925 75.8993 106.57C76.4387 106.294 77.074 106.187 77.6739 106.284C78.7235 106.611 79.2622 107.652 80.0133 108.368C79.9154 108.98 79.6723 109.563 79.3419 110.085C78.8837 110.57 78.4502 111.111 77.847 111.421C77.3755 111.663 76.9117 111.926 76.4121 112.106C76.3662 112.095 76.2718 112.074 76.2251 112.062C75.6675 111.292 75.0312 110.573 74.5034 109.782C74.4612 109.729 74.3785 109.623 74.3372 109.569C74.3856 109.422 74.4341 109.273 74.4817 109.125C74.2653 108.649 74.5219 108.157 74.7123 107.722Z" fill="white"/>
<path d="M82.4526 103.782C82.5805 103.334 82.7089 102.849 83.078 102.535C83.5569 102.122 84.0652 101.645 84.7259 101.584C85.4042 101.523 86.1066 101.627 86.7121 101.95C87.1223 102.223 87.5217 102.509 87.8437 102.889C88.0855 103.4 88.4228 104.054 88.0225 104.573C87.3979 105.576 86.785 106.652 85.7849 107.331C85.6087 107.456 85.4334 107.584 85.2783 107.734C85.1768 107.745 85.0752 107.749 84.9761 107.748C84.5079 107.416 84.0232 107.097 83.6225 106.685C83.1805 106.136 82.8832 105.494 82.5645 104.87C82.4917 104.513 82.3323 104.147 82.4526 103.782Z" fill="white"/>
<path d="M98.8612 91.9512C98.8791 91.911 98.9141 91.8299 98.932 91.7897C99.6273 92.0901 100.104 92.7209 100.739 93.1218C101.047 93.3003 101.263 93.5972 101.552 93.8033C102.033 94.1275 102.475 94.5113 102.875 94.9312C102.456 95.1537 101.989 94.9093 101.614 94.7132C101.144 94.483 100.837 94.0371 100.384 93.7801C99.8974 93.2552 99.4576 92.6857 98.9163 92.2114C98.9024 92.1465 98.8752 92.016 98.8612 91.9512Z" fill="white"/>
<path d="M96.0396 127.562C96.1138 127.486 96.263 127.334 96.3363 127.257C96.8841 127.23 97.4355 127.384 97.9764 127.255C98.886 127.088 99.8489 127.005 100.653 126.503C101.15 126.303 101.673 126.152 102.195 126.026C101.822 126.517 101.27 126.802 100.758 127.118C100.252 127.371 99.9764 127.905 99.5046 128.203C99.2828 128.346 99.1024 128.54 98.9168 128.724C99.3004 129.258 99.957 129.438 100.55 129.635C101.662 130.99 102.575 132.51 103.529 133.983C103.927 134.717 104.439 135.379 104.831 136.115C105.268 136.907 105.796 137.647 106.227 138.444C106.66 139.259 107.232 139.993 107.637 140.825C108.003 141.482 108.435 142.098 108.794 142.76C109.011 143.101 109.149 143.49 109.403 143.81C109.139 144.017 108.953 143.596 108.81 143.431C106.819 141.088 105.121 138.517 103.351 136.008C102.979 135.35 102.433 134.815 102.062 134.158C101.605 133.516 101.102 132.907 100.647 132.267C100.56 132.162 100.477 132.059 100.394 131.954C100.008 131.307 99.3725 130.853 98.9422 130.238C98.4622 129.726 97.9755 129.212 97.3967 128.809C96.9558 128.381 96.5059 127.963 96.0396 127.562Z" fill="white"/>
<path d="M84.7467 142.872C85.342 142.441 86.0289 142.161 86.6471 141.769C86.9232 141.97 87.146 142.256 87.4869 142.356C88.0469 142.546 88.602 142.245 89.1534 142.167C90.5768 141.984 91.7481 141.021 92.7084 140.019C93.2486 139.333 93.7125 138.59 94.1757 137.852C94.6876 136.919 95.2858 136.034 95.7584 135.08C95.8327 134.927 95.9254 134.787 96.0382 134.66C96.6923 135.334 97.1257 136.183 97.6691 136.943C98.3812 138.004 99.0743 139.077 99.7484 140.163C100.293 141.023 100.869 141.865 101.404 142.73C101.742 143.228 102.031 143.762 102.428 144.219C103.124 145.424 104.006 146.508 104.834 147.624C104.973 147.825 105.153 147.992 105.314 148.177C105.673 148.735 106.187 149.194 106.633 149.687C106.581 149.747 106.478 149.866 106.426 149.926C106.367 149.778 106.378 149.483 106.151 149.641C106.211 149.702 106.333 149.824 106.394 149.885C102.484 151.208 98.5921 152.583 94.6865 153.914C94.5439 153.979 94.4211 153.951 94.32 153.83C93.5781 153.121 92.9013 152.351 92.1595 151.644C91.6572 150.991 90.9924 150.487 90.5091 149.82C90.0267 149.399 89.7193 148.827 89.2262 148.416C88.5622 147.589 87.8578 146.795 87.1583 145.997C86.3796 144.945 85.4668 143.973 84.7467 142.872Z" fill="white"/>
<path d="M91.9711 137.512C92.5591 136.604 93.1823 135.721 93.798 134.832C93.9778 134.571 94.1575 134.308 94.3969 134.096C94.4878 134.761 94.0994 135.386 93.734 135.912C93.2431 136.539 92.7238 137.151 92.0814 137.63C92.0545 137.6 91.9989 137.541 91.9711 137.512Z" fill="white"/>
<path d="M96.7283 132.6C97.2367 132.13 97.5988 131.542 98.0879 131.058C98.6977 131.309 99.0663 131.926 99.4968 132.403C100.17 133.111 100.605 133.993 101.19 134.769C102.496 136.815 103.838 138.835 105.175 140.861C105.574 141.355 105.916 141.896 106.265 142.428C107.052 143.481 107.821 144.559 108.801 145.445C109.392 146.059 110.019 146.634 110.629 147.23C110.318 147.78 109.885 148.245 109.539 148.766C109.464 148.804 109.311 148.879 109.236 148.917C107.358 146.84 106.654 143.897 104.485 142.057C105.028 143.626 105.691 145.153 106.289 146.701C106.265 146.742 106.215 146.823 106.189 146.863C105.781 146.515 105.393 146.146 104.95 145.842C103.858 144.492 102.813 143.097 101.817 141.674C101.193 140.713 100.521 139.78 99.9921 138.761C98.8429 136.741 97.7558 134.684 96.7283 132.6ZM109.173 148.594C109.36 148.642 109.427 148.572 109.377 148.386C109.186 148.334 109.117 148.404 109.173 148.594Z" fill="white"/>
<path d="M103.295 131.745C102.663 130.848 102.236 129.832 101.692 128.883C101.808 128.762 101.946 128.675 102.106 128.623C102.974 128.319 103.873 128.032 104.804 128.063C105.057 128.154 105.33 128.221 105.546 128.397C106.324 129.417 106.74 130.662 107.539 131.669C108.079 132.274 108.551 132.935 109.022 133.596C109.581 134.263 110.146 134.923 110.71 135.587C111.367 136.219 112.067 136.805 112.738 137.423C112.863 137.481 112.987 137.541 113.113 137.605C113.109 137.215 113.124 136.824 113.056 136.439C113.096 136.414 113.177 136.362 113.219 136.337C113.757 136.624 114.372 136.865 114.689 137.427C115.24 138.243 115.201 139.307 114.843 140.191C114.161 141.768 113.476 143.34 112.841 144.936C112.746 144.94 112.557 144.951 112.463 144.957C112.551 144.787 112.655 144.627 112.769 144.475C112.612 144.498 112.456 144.528 112.301 144.556C111.982 144.06 111.529 143.661 111.233 143.15C110.778 142.504 110.221 141.934 109.814 141.256C109.311 140.683 108.921 140.021 108.41 139.453C107.644 138.279 106.746 137.196 105.995 136.01C105.306 135.124 104.746 134.151 104.131 133.215C103.822 132.742 103.557 132.243 103.295 131.745ZM113.299 136.816C113.485 136.857 113.556 136.782 113.511 136.594C113.323 136.554 113.252 136.628 113.299 136.816Z" fill="white"/>
<path d="M105.963 127.019C106.117 126.833 106.312 126.693 106.511 126.556C106.909 126.972 107.174 127.489 107.465 127.98C107.891 128.547 108.298 129.128 108.639 129.751C109.21 130.635 109.839 131.482 110.355 132.402C110.746 132.969 111.24 133.527 111.432 134.192C111.137 133.936 110.851 133.667 110.603 133.366C110.07 132.557 109.377 131.871 108.834 131.069C108.484 130.507 108.026 130.022 107.697 129.447C107.142 128.619 106.542 127.826 105.963 127.019Z" fill="white"/>
<path d="M109.629 128.775C109.175 128.044 108.885 127.232 108.447 126.495C108.528 126.561 108.61 126.627 108.694 126.695C108.79 126.822 108.885 126.952 108.972 127.089C109.444 127.719 109.853 128.395 110.257 129.07C110.762 129.754 111.24 130.465 111.638 131.217C112.194 131.86 112.639 132.594 113.059 133.331C113.292 133.599 113.524 133.872 113.679 134.195C114.034 134.653 114.314 135.161 114.634 135.643C114.917 135.977 115.157 136.342 115.401 136.706C115.583 136.878 115.425 137.094 115.335 137.265C114.916 136.836 114.599 136.325 114.247 135.844C113.584 135.152 113.083 134.329 112.55 133.54C111.912 132.811 111.534 131.907 110.978 131.122C110.48 130.367 110.104 129.543 109.629 128.775Z" fill="white"/>
<path d="M40.5802 50.6234C41.1253 50.0065 41.6055 49.3128 42.298 48.8469C43.0278 48.1207 43.9314 47.6094 44.814 47.0924C45.4614 46.8627 46.1511 46.6991 46.8431 46.7555C48.5631 46.9998 50.2362 47.6135 51.6788 48.5853C53.3676 49.6845 55.0236 50.839 56.5431 52.1648C58.2954 53.5258 59.8682 55.1001 61.6222 56.4594C63.0928 57.8149 64.6804 59.0326 66.2202 60.3074C66.718 60.6897 67.0138 61.2731 67.529 61.6361C67.9233 61.9154 68.1618 62.3486 68.5158 62.6708C69.1565 63.2591 69.756 63.8911 70.3901 64.4878C70.8308 64.9857 71.3976 65.3465 71.8251 65.8578C72.5219 66.3906 73.0738 67.0864 73.773 67.6166C78.2178 71.7135 82.9361 75.5078 87.3776 79.608C88.0929 80.1656 88.6889 80.8568 89.4109 81.4093C90.007 82.0397 90.7112 82.5566 91.2842 83.2072C91.8387 83.5906 92.2333 84.1439 92.7549 84.5643C93.3172 85.0593 93.7112 85.7159 94.3205 86.1629C94.804 86.777 95.5695 87.0175 96.2329 87.379C96.6789 87.5819 97.0773 87.9278 97.5849 87.9585C98.8378 84.7848 100.284 81.6933 101.69 78.5855C102.694 76.1206 103.624 73.5974 104.011 70.953C104.052 70.4311 104.108 69.8991 104.349 69.4244C105.073 67.8411 105.914 66.3108 106.852 64.8437C107.684 63.4376 108.69 62.1389 109.788 60.9326C110.23 60.5891 110.612 60.1788 111.043 59.8246C111.96 59.224 112.859 58.5827 113.876 58.1544C114.593 57.724 115.453 57.7853 116.257 57.7798C117.267 57.8329 118.32 57.9048 119.225 58.4038L119.183 58.2693L120.163 59.2299C120.277 59.6227 120.571 59.9938 120.495 60.4219C120.192 62.6664 119.099 64.6849 118.258 66.7574C118.045 67.3293 117.72 67.8582 117.566 68.4495C117.547 69.0344 117.702 69.6118 117.709 70.1981C117.97 72.4245 117.599 74.6515 117.269 76.8497C116.924 78.6174 116.517 80.3724 116.036 82.1081C115.103 85.2819 114.045 88.4354 113.526 91.7117C113.042 94.3412 112.879 97.0425 113.251 99.696C113.425 100.304 113.458 100.937 113.382 101.562C113.406 102.256 113.271 102.938 113.219 103.626C113.088 105.09 112.784 106.531 112.501 107.972C112.345 108.911 112.024 109.811 111.797 110.736C110.887 114.013 109.626 117.182 108.21 120.27C108.553 120.412 108.934 120.392 109.283 120.502C109.518 120.968 109.498 121.557 109.886 121.943C110.43 122.529 110.833 123.227 111.35 123.837C112.027 124.611 112.552 125.506 113.246 126.267C113.709 126.86 114.121 127.491 114.611 128.063C115.138 128.66 115.542 129.352 116.058 129.96C116.563 130.522 116.957 131.172 117.439 131.755C117.772 132.201 118.197 132.59 118.448 133.093C117.964 135.866 117.471 138.64 117.038 141.424C116.904 142.364 116.707 143.299 116.338 144.179C115.906 145.133 115.319 146.026 114.545 146.737C114.196 147.161 113.665 147.411 113.403 147.91C112.828 148.881 111.968 149.638 111.039 150.262C109.265 151.297 107.24 151.769 105.267 152.268C104.45 152.497 103.605 152.646 102.816 152.969C102.041 153.274 101.214 153.464 100.508 153.925C99.8846 154.323 99.2148 154.635 98.5312 154.912C97.1758 155.473 95.9851 156.498 94.4797 156.641C93.9927 156.661 93.4488 156.747 93.0041 156.519C91.3212 154.358 89.6696 152.171 87.9826 150.013C86.7799 148.394 85.4996 146.834 84.1582 145.33C83.2536 144.351 82.4043 143.316 81.3892 142.447C81.1353 142.302 80.8522 142.224 80.5845 142.112C78.8543 141.454 77.2372 140.517 75.7615 139.404C73.4854 137.724 71.372 135.833 69.4212 133.786C68.9604 133.194 68.3568 132.733 67.9058 132.133C63.1209 126.942 58.6925 121.43 53.8589 116.284C53.5169 115.828 53.0767 115.461 52.7066 115.031C52.0772 114.248 51.2795 113.623 50.6444 112.844C50.3879 112.52 50.0448 112.286 49.6846 112.093C46.1591 110.084 42.7619 107.848 39.5251 105.4C35.4542 102.28 31.5141 98.9944 27.5897 95.6944C27.3265 95.4513 27.077 95.1623 26.6984 95.1161L26.4872 94.9092C26.466 94.7053 26.3766 94.5221 26.2526 94.3626C25.3888 93.1368 24.7936 91.7026 24.6501 90.203C24.5691 89.4458 24.8379 88.6901 25.2514 88.0646C25.8573 87.1214 26.8669 86.5456 27.8661 86.0983C28.095 85.9994 28.3463 85.8994 28.5979 85.9843C29.3179 86.182 30.0348 86.3947 30.754 86.5932C31.3161 86.7433 31.7526 87.148 32.2247 87.4622C34.2087 88.8409 36.1919 90.2187 38.1726 91.6007C39.2275 92.2881 40.2038 93.1146 41.3127 93.7082C43.8473 94.1817 46.0323 95.6633 48.0363 97.2099C49.4754 98.4108 50.9846 99.5401 52.6175 100.464C53.4533 100.912 54.3246 101.314 55.2602 101.497C55.2522 101.202 55.1951 100.911 55.0856 100.635C54.5959 99.3306 53.9793 98.0782 53.3958 96.8137C53.0216 96.0612 52.7112 95.2705 52.5562 94.4424C52.2833 93.0057 52.4522 91.4314 53.3178 90.2149C53.7185 89.5603 54.3984 89.1712 54.9125 88.6196C56.1466 87.5168 57.554 86.419 59.2494 86.2087C59.6401 86.1298 60.1133 86.3791 60.4441 86.1459C60.5368 85.2687 60.5744 84.377 60.8373 83.5281C61.2371 81.9689 62.0019 80.5102 63.0196 79.2663C63.4392 78.6715 64.0194 78.2209 64.4827 77.6623C64.0878 77.2473 63.7631 76.7708 63.3426 76.3801C62.5473 75.6651 61.9575 74.7589 61.1779 74.0279C60.677 73.5848 60.3245 73.0053 59.8269 72.5605C58.9818 71.7835 58.3389 70.817 57.5071 70.0282C56.994 69.5403 56.6263 68.9259 56.1214 68.4312C55.7202 68.0479 55.3933 67.5972 55.0184 67.1903C53.7834 65.655 52.4095 64.2378 51.1067 62.7632C50.4823 62.2205 50.0089 61.5373 49.401 60.9794C47.9566 59.5921 46.5716 58.1341 44.9921 56.898C44.407 56.29 43.7692 55.7408 43.0804 55.2538C42.4066 54.6117 41.5898 54.1476 40.9037 53.5231C40.5839 52.8766 40.4538 52.124 40.469 51.405C40.5222 51.1471 40.5637 50.886 40.5802 50.6234ZM42.1134 50.2723C41.9231 50.7207 41.6515 51.2132 41.8115 51.7114C42.0231 52.6097 42.493 53.4363 43.0377 54.173C43.4489 54.5495 43.8055 54.9716 44.1523 55.4038C44.1882 55.4126 44.2609 55.431 44.2976 55.4406C46.1499 57.2212 48.5114 58.3695 50.3926 60.1157C50.6131 60.4258 50.9121 60.6611 51.2446 60.8418C51.4005 60.7703 51.5487 60.6863 51.6262 60.5231C51.9452 60.0276 52.5193 59.7211 52.7645 59.1814C52.9334 58.9956 53.1208 58.8247 53.277 58.6265C53.3921 58.4737 53.4631 58.2565 53.6734 58.2052C54.2883 57.406 54.9717 56.5454 55.9502 56.1865C56.2519 56.0436 56.5756 56.1761 56.8763 56.253C57.2302 55.9155 57.574 55.568 57.9144 55.2172C57.5538 54.8968 57.2685 54.4407 56.8184 54.252C56.2506 53.7021 55.6284 53.2177 55.0276 52.7048C54.5395 52.1358 53.8577 51.7628 53.401 51.1652C53.0901 50.9892 52.8606 50.6983 52.5359 50.5466C51.6599 49.68 50.5586 49.0938 49.431 48.6287C48.6588 48.3749 47.8333 48.379 47.0306 48.3196C45.9661 48.3286 44.8585 48.2723 43.854 48.6864C43.0938 48.9622 42.5289 49.6026 42.1134 50.2723ZM52.1804 62.2684C52.5468 62.6654 52.7577 63.1773 53.1274 63.5742C53.556 64.1871 53.9872 64.8142 54.5866 65.2746C55.5358 66.5412 56.8421 67.4602 57.9578 68.5652C58.5567 68.9673 59.0279 69.5198 59.5601 70.0018C59.838 69.8849 60.0895 69.7191 60.2862 69.4864C60.8413 68.8627 61.5362 68.3959 62.1014 67.7822C62.7064 67.3954 63.1218 66.7949 63.6803 66.3528C64.0727 66.0265 64.3993 65.6292 64.7782 65.288C65.1191 65.1422 65.3298 64.8177 65.5914 64.5693C66.1468 64.6321 66.7406 64.9535 67.279 64.6532C67.4764 64.4854 67.678 64.1602 67.4905 63.9139C67.1749 63.349 66.6427 62.9495 66.3519 62.3643C65.6794 61.758 65.1758 60.9809 64.4341 60.4486C64.1259 60.211 63.9522 59.8395 63.6309 59.617C63.078 59.2186 62.6756 58.6462 62.1038 58.2738C61.6347 57.9328 61.3071 57.4222 60.7985 57.1332C60.5211 56.9586 60.3504 56.6446 60.0393 56.5195C59.6301 56.3378 59.1974 56.2172 58.7632 56.1083C57.826 56.59 56.9465 57.1761 56.1244 57.8349C55.824 57.9529 55.6487 58.2428 55.4067 58.441C54.7624 58.8948 54.2539 59.5096 53.7082 60.0732C53.2168 60.8137 52.4866 61.4141 52.1804 62.2684ZM25.9503 90.2766C25.9766 91.5508 26.4537 92.7621 27.0688 93.8613C27.506 94.4216 27.9101 95.0123 28.4547 95.48C29.5182 96.6096 30.7573 97.5568 32.066 98.3841C33.1048 98.8809 34.1257 99.4196 35.0752 100.073C35.2302 99.8275 35.4002 99.5917 35.5426 99.3387C35.9322 98.8301 36.2237 98.2515 36.6478 97.7683C37.2404 96.9869 37.8564 96.2085 38.4506 95.4221C38.7169 94.9887 39.0612 94.6038 39.2905 94.1425C37.2743 93.0341 35.6664 91.3693 33.8983 89.9269C32.6525 88.9814 31.3233 88.101 29.8328 87.5787C29.5264 87.5077 29.2254 87.4057 28.9119 87.3739C27.3946 87.4883 26.1945 88.8223 25.9503 90.2766ZM61.0215 71.3448C60.98 72.0166 61.7873 72.2751 62.042 72.8264C62.2177 73.2328 62.6397 73.4518 62.8841 73.8117C63.1995 74.2675 63.6461 74.6062 64.0184 75.0123C64.9158 75.9412 66.3356 76.3959 67.586 75.9918C67.7535 75.9152 67.9258 75.9868 68.0651 76.0887C68.639 76.501 69.3776 76.5503 70.0604 76.5334C71.1089 76.5154 72.0673 75.9835 72.8933 75.3796C73.2589 75.2152 73.4413 74.8035 73.8138 74.6557C74.185 74.2954 74.5989 73.9606 74.8558 73.5049C75.0458 73.2622 75.378 73.1689 75.5494 72.8998C75.7344 72.5814 75.9941 72.3214 76.2278 72.0392C75.753 71.5475 75.2428 71.0903 74.8158 70.5565C74.2008 70.1204 73.7521 69.491 73.1223 69.075C72.8966 68.9149 72.7203 68.6992 72.5062 68.5273C71.685 67.9716 70.914 67.348 70.1036 66.778C69.8234 66.5001 69.5045 66.2718 69.1823 66.0468C68.7764 65.7776 68.4963 65.3398 68.0297 65.1629C67.3083 65.4917 66.5898 65.8479 65.9693 66.3464C65.7587 66.521 65.5142 66.6459 65.2765 66.7774C64.5256 67.483 63.6293 68.0442 63.0106 68.8842C62.2559 69.6223 61.5956 70.4594 61.0215 71.3448ZM38.0639 97.3651C37.6381 98.0066 37.1094 98.6 36.8085 99.3227C36.5103 99.9787 36.548 100.819 37.0244 101.383C37.7387 102.324 38.534 103.205 39.4249 103.986C40.168 104.487 41.07 104.882 41.9766 104.838C42.3156 103.441 42.6562 102.045 42.9526 100.64C43.1726 99.9901 43.6127 99.4468 44.0371 98.9194C44.5747 98.3776 45.0685 97.712 45.0938 96.9205C45.0435 96.6436 44.9425 96.3781 44.7885 96.143C44.3604 95.8192 43.839 95.6595 43.3627 95.4252C42.6712 95.0873 41.9386 94.8064 41.1713 94.7109C40.783 94.6914 40.4071 94.8376 40.0852 95.045C39.2326 95.6508 38.7718 96.6208 38.0639 97.3651ZM64.527 79.2345C63.7774 80.0617 63.1614 81.005 62.6174 81.9792C62.1673 83.0124 61.8912 84.1239 61.8444 85.2505C61.9628 85.9157 61.8412 86.6558 62.2395 87.244C62.5567 87.7198 63.1186 87.9241 63.4869 88.3477C63.9304 88.7922 64.3706 89.2401 64.8388 89.6593C65.5595 90.0803 65.9996 90.843 66.7202 91.2656C67.988 92.4981 69.2699 93.7147 70.513 94.9709C70.9826 95.4509 71.5217 95.8737 71.8998 96.4355C72.382 97.0004 72.9813 97.4491 73.4734 98.0056C73.8996 98.4661 74.4141 98.8516 74.7569 99.3855C74.9491 99.6084 75.1826 99.7943 75.3549 100.036C75.6984 100.55 76.2234 100.903 76.6123 101.38C77.025 101.912 77.5557 102.333 78.0056 102.831C78.2368 103.289 78.7202 103.556 78.9655 104.011C79.7748 104.712 80.3715 105.635 81.2524 106.252C81.5967 106.28 81.9526 106.468 82.2927 106.333C82.0905 105.693 81.6089 105.195 81.3785 104.568C80.944 103.29 81.0115 101.659 82.1317 100.745C82.6436 100.457 83.1971 100.257 83.7166 99.9843C84.9453 99.6613 86.1066 100.408 86.9842 101.193C87.3736 101.396 87.6695 101.739 88.0514 101.945C88.1841 102.054 88.3135 102.166 88.4471 102.277C88.7863 102.456 89.1222 102.645 89.494 102.752C89.557 102.724 89.6831 102.67 89.7469 102.643C89.5403 101.573 89.0049 100.612 88.4259 99.7046C88.0021 98.9875 87.5229 98.3018 86.904 97.7366C86.5756 97.136 85.9422 96.7792 85.5377 96.236C85.3437 95.8348 84.8578 95.7314 84.62 95.3564C84.5009 94.9511 84.0261 94.8734 83.7848 94.566C82.7778 93.5132 81.6372 92.5818 80.7351 91.4388C80.0685 90.7625 79.5315 89.9691 78.9061 89.2557C78.6534 88.8925 78.4238 88.5142 78.1603 88.1586C77.9107 87.7013 77.6223 87.2686 77.3653 86.8172C77.3256 86.7601 77.2461 86.6476 77.2072 86.5914C76.8665 85.9343 76.6087 85.233 76.2067 84.6098C75.6877 83.6296 75.2326 82.6163 74.6714 81.659C74.3946 81.142 74.3151 80.4489 73.7432 80.154C73.3386 79.9273 73.0037 79.5992 72.5958 79.3809C71.327 78.5398 69.9459 77.8065 68.4267 77.5677C67.7145 77.4849 67.0107 77.1729 66.2867 77.3143C65.7403 77.8971 65.1545 78.4427 64.6166 79.0354C64.5946 79.0847 64.5498 79.1843 64.527 79.2345ZM44.4207 102.069C44.0949 102.878 43.882 103.726 43.5587 104.536C43.474 104.809 43.3384 105.075 43.3256 105.366C43.6996 105.939 44.3243 106.261 44.8038 106.731C45.6722 107.422 46.5816 108.064 47.5501 108.607C48.4468 109.222 49.4025 109.745 50.3189 110.331C50.6349 110.524 50.9443 110.725 51.2653 110.911C51.4805 110.615 51.495 110.235 51.6081 109.898C51.7322 109.318 51.954 108.767 52.0872 108.19C52.6089 106.497 53.0715 104.729 54.1832 103.305C53.0316 102.443 51.847 101.617 50.6593 100.805C50.1856 100.426 49.6849 100.084 49.1816 99.7457C48.3548 99.2042 47.5944 98.5596 46.7479 98.05C46.4088 98.2075 46.1932 98.5437 45.946 98.8128C45.2128 99.7764 44.7948 100.93 44.4207 102.069ZM54.3245 90.9953C53.9343 91.7822 53.812 92.698 53.9741 93.561C54.068 94.3606 54.2834 95.1406 54.5709 95.8907C54.8798 96.6964 55.6024 97.2264 56.076 97.9247C56.4263 98.2977 56.8005 98.6462 57.093 99.0681C58.0088 99.9277 58.835 100.896 59.8447 101.646C60.1658 101.931 60.4384 102.277 60.8121 102.498C61.6647 103.197 62.5035 103.93 63.4235 104.541C64.0735 105.061 64.7515 105.553 65.4377 106.022C67.2386 107.33 69.0518 108.62 70.892 109.871C71.9573 110.678 73.1063 111.365 74.1765 112.165C74.2219 112.132 74.3112 112.064 74.3575 112.031C73.8354 110.732 73.285 109.446 72.7744 108.142C72.898 107.429 73.2341 106.739 73.7613 106.24C74.6061 105.678 75.5065 105.19 76.282 104.53C75.835 103.74 75.1836 103.092 74.6448 102.368C74.0477 101.637 73.5025 100.864 72.855 100.177C72.1799 99.2448 71.2894 98.5007 70.6383 97.551C69.0579 95.9659 67.4543 94.3993 65.8433 92.8437C65.3654 92.377 64.9138 91.8735 64.3635 91.4892C63.6344 90.8951 63.0642 90.1137 62.2718 89.596C61.7456 89.1298 61.287 88.5913 60.7468 88.1428C60.4032 88.0171 60.0347 87.9051 59.6662 87.9579C58.6495 88.0714 57.7834 88.6674 56.8364 89.0009C55.7969 89.3329 54.8738 90.0493 54.3245 90.9953ZM72.7984 77.6779C73.2385 77.9508 73.7435 77.5651 74.2003 77.7588C74.7033 78.156 75.1247 78.6449 75.4295 79.2108C75.707 79.7086 76.0598 80.1665 76.271 80.7C76.7989 81.9858 77.238 83.3067 77.7973 84.5805C77.8856 84.8253 78.0509 85.0269 78.241 85.2033C78.4875 84.9534 78.4946 84.5826 78.5787 84.2594C78.7018 83.1712 78.6963 82.0642 78.5312 80.9805C78.5208 79.6295 78.1816 78.306 78.1471 76.9578C79.2432 78.8368 79.6176 81.0046 80.3172 83.0375C80.4813 83.3599 80.5336 83.7575 80.8499 83.9784C81.4785 83.2141 81.9284 82.3191 82.4563 81.4842C82.5699 81.104 82.6467 80.7109 82.6043 80.3115C82.9433 81.1253 82.9093 82.0452 82.6888 82.8846C82.5276 83.66 82.1207 84.358 81.942 85.1294C81.6104 86.1023 81.247 87.0639 80.9288 88.0433C80.8919 88.1853 80.7909 88.3304 80.8391 88.4816C81.0958 88.8222 81.4788 89.0574 81.6785 89.4444C81.9265 89.9117 82.4074 90.1867 82.7034 90.6186C82.9338 90.9961 83.336 91.2269 83.5688 91.6019C83.9554 92.2594 84.5814 92.7146 85.086 93.2718C85.2201 93.5978 85.5287 93.7996 85.7488 94.0648C85.9937 94.4713 86.2875 94.8549 86.6373 95.1779C87.1056 95.6055 87.4691 96.13 87.9267 96.5685C88.4088 97.2042 88.8984 97.8357 89.5067 98.3577C89.8814 98.0932 90.0669 97.6582 90.3432 97.3072C90.5232 96.9939 90.8292 96.7742 90.9825 96.4445C91.5147 95.7028 92.109 95.0105 92.6236 94.2548C92.7631 94.0485 93.1908 93.7568 92.8296 93.5414C92.0149 93.7803 91.233 94.1388 90.3959 94.3013C89.8522 94.3276 89.2921 94.3774 88.7656 94.2044C89.4418 93.6962 90.2503 93.4165 90.9519 92.9497C92.4215 92.1602 93.8326 91.2589 95.3065 90.4786C95.3158 90.4069 95.3351 90.2643 95.3452 90.1934C95.1201 90.1723 94.8966 90.1429 94.6731 90.1185C92.7806 90.1175 90.8571 89.7762 89.1404 88.9579C89.6421 88.8246 90.1662 88.8418 90.6733 88.7368C91.3686 88.6398 92.0578 88.5055 92.7524 88.4077C93.0682 88.3396 93.4556 88.4273 93.6589 88.1054C93.1136 87.5644 92.5617 87.0302 92.0074 86.4985C91.7309 86.3364 91.4931 86.133 91.3253 85.8581C90.6105 85.4347 90.1809 84.641 89.4564 84.246C87.941 82.7477 86.2857 81.4191 84.7785 79.9124C83.7965 79.1892 83.008 78.2334 82.0408 77.4901C81.3041 76.722 80.4645 76.0674 79.7237 75.3052C79.4102 74.9451 78.9013 74.7895 78.6901 74.3368C78.5025 74.2287 78.334 74.0488 78.1058 74.0445C77.7879 74.1601 77.4973 74.3371 77.1991 74.4934C76.9686 74.6881 76.6951 74.8175 76.4376 74.9708C75.7184 75.3446 74.9941 75.71 74.3071 76.1417C73.7177 76.5058 73.048 76.7466 72.5119 77.1926C72.5878 77.361 72.5894 77.61 72.7984 77.6779ZM55.0733 105.318C54.7574 106.194 54.3695 107.041 54.0561 107.918C53.4173 109.401 52.7808 110.941 52.7208 112.576C52.7436 113.268 52.8918 113.991 53.3198 114.552C53.757 115.116 54.351 115.529 54.9692 115.873C55.7378 116.509 56.3534 117.325 57.1871 117.887C57.6653 118.222 58.3506 118.039 58.7204 117.628C58.9459 117.275 59.0575 116.858 59.3055 116.517C59.8914 115.726 60.6041 115.039 61.3119 114.357C62.0257 113.861 62.565 113.17 63.1954 112.578C63.5528 112.252 63.8236 111.85 64.0726 111.439C64.578 110.681 65.4422 110.311 66.2372 109.941C66.6309 109.746 67.1534 109.273 66.8305 108.81C65.8429 107.859 64.6443 107.047 63.2819 106.754C61.9987 106.466 60.6438 106.747 59.5143 107.399C59.4873 107.365 59.4333 107.297 59.4071 107.263C59.4023 106.956 59.455 106.654 59.4569 106.349C59.2977 106.094 58.9782 106.044 58.7271 105.92C57.8303 105.545 57.0027 104.933 56.0113 104.834C55.6559 104.86 55.184 104.901 55.0733 105.318ZM56.9426 103.522C57.0121 103.643 57.0816 103.764 57.1537 103.885C57.9533 104.535 58.9785 104.925 60.0198 104.849C60.4057 104.797 60.8882 104.974 61.1797 104.646C60.745 104.164 60.4602 103.521 59.868 103.201C58.9515 102.679 57.7517 102.902 56.9426 103.522ZM108.55 64.5051C108.179 64.9054 107.828 65.3287 107.542 65.7939C106.411 67.3454 105.628 69.1158 104.952 70.9043C104.661 71.966 104.4 73.0348 104.164 74.11C104.507 74.5364 105.121 74.4536 105.606 74.5812C106.293 74.5901 106.981 74.6257 107.668 74.6429C108.195 74.7584 108.711 74.9123 109.19 75.1658C109.238 75.2069 109.333 75.2884 109.381 75.3288C108.775 75.5064 108.15 75.3669 107.538 75.4664C106.853 75.3633 106.16 75.4569 105.477 75.3438C105.302 75.5088 105.132 75.6796 104.981 75.8652C104.947 75.9805 104.887 76.0803 104.8 76.1628C104.419 76.5631 104.125 77.035 103.816 77.4912C103.585 77.9225 103.31 78.3293 103.075 78.759C101.895 80.8558 100.936 83.0844 100.194 85.3734C100.302 85.7896 100.558 86.1411 100.728 86.5317C100.351 86.2873 99.8696 86.3979 99.6193 86.7677C99.3612 87.5092 99.1357 88.2694 99.0337 89.0501C99.4041 89.6012 100.083 89.7784 100.535 90.2429C101.552 91.0081 102.592 91.7424 103.627 92.4783C104.53 93.0856 105.436 93.6913 106.399 94.1997C107.061 94.6162 107.765 94.9532 108.468 95.2926C109.257 95.632 110.024 96.0342 110.851 96.2816C110.895 96.2411 110.987 96.1611 111.033 96.1206C111.229 95.5148 111.255 94.8706 111.435 94.2599C111.503 93.6603 111.713 93.091 111.807 92.4953C111.994 91.6354 112.118 90.7621 112.349 89.9118C113.084 86.3676 113.867 82.8321 114.636 79.2942C114.656 79.0683 114.827 78.7809 114.582 78.6159C114.112 78.1458 113.618 77.6993 113.159 77.2183C113.393 77.0785 113.643 76.9586 113.857 76.7856C113.935 76.4483 113.781 76.105 113.778 75.7635C114.336 75.8079 114.898 75.7398 115.456 75.81C115.627 75.8274 115.831 75.7154 115.837 75.5238C116.067 73.7622 116.006 71.9836 116.14 70.2155C116.117 68.868 116.245 67.5248 116.403 66.1888C116.461 65.5127 116.664 64.8576 116.806 64.1956C116.939 63.4205 117.242 62.6852 117.582 61.9805C117.66 61.8048 117.704 61.6186 117.718 61.4268C117.868 60.9913 118.102 60.5958 118.316 60.1889C118.49 59.8706 118.326 59.4316 117.952 59.3679C117.085 59.2291 116.228 59.0062 115.355 58.9208C114.781 59.1307 114.241 59.4385 113.752 59.8024C113.122 60.1352 112.553 60.5749 112.039 61.0657C111.173 61.5892 110.437 62.313 109.8 63.0949C109.313 63.4954 108.889 63.9753 108.55 64.5051ZM60.7537 116.312C59.9411 117.503 59.2904 119.042 59.7949 120.485C60.3212 121.777 61.4629 122.647 62.3909 123.638C62.841 124.323 63.549 124.812 64.0917 125.43C64.7494 126.295 65.6143 126.971 66.3306 127.785C66.8669 128.509 67.6021 129.051 68.1764 129.743C68.7742 130.457 69.5553 131.008 70.0929 131.774C70.7076 132.429 71.3785 133.032 71.9949 133.686C72.5052 134.392 73.2045 134.929 73.7867 135.574C74.3905 136.388 75.2131 137.006 75.8657 137.779C76.9158 138.403 77.9888 138.991 79.0879 139.522C79.5982 139.819 80.1404 140.054 80.667 140.319C80.9508 140.455 81.2316 140.628 81.5525 140.654C82.6934 140.704 83.8555 140.635 84.9464 140.279C85.8328 139.961 86.6806 139.54 87.4532 139.001C90.2655 136.976 92.1629 134.023 94.2251 131.298C94.5516 130.798 94.9627 130.355 95.2439 129.826C95.4451 129.385 95.252 128.908 95.2907 128.45C94.8135 127.89 94.0427 127.779 93.4082 127.477C93.1292 127.229 92.9458 126.891 92.6453 126.664C92.6789 126.613 92.7453 126.51 92.779 126.458C92.0385 126.056 91.5298 125.343 90.9226 124.776C90.7357 124.334 90.2619 124.104 89.9972 123.716C89.7492 123.326 89.4102 123 89.1746 122.605C89.5248 121.981 89.5019 121.209 89.9274 120.621C90.2525 121.129 90.5587 121.677 90.6465 122.283C90.7119 122.731 91.0062 123.087 91.1969 123.485C91.3046 123.754 91.5364 123.941 91.6805 124.19C91.9973 124.375 92.3214 124.551 92.6012 124.792C93.1182 125.256 93.8467 125.295 94.4648 125.549C94.7886 125.692 95.1509 125.681 95.4836 125.797C95.8813 125.915 96.312 126.009 96.7242 125.912C97.6692 125.545 98.7288 125.547 99.6258 125.043C100.332 124.6 101.088 124.243 101.862 123.939C102.525 123.316 103.187 122.681 103.945 122.171C104.311 121.639 104.636 121.08 105.001 120.547C105.196 120.061 105.53 119.654 105.794 119.205C106.712 117.725 107.542 116.19 108.3 114.621C108.746 113.89 109.056 113.091 109.437 112.326C110.084 110.739 110.809 109.172 111.21 107.498C111.763 105.52 111.845 103.447 111.701 101.412C111.546 100.168 111.291 98.9377 110.954 97.7316C110.913 97.4954 110.727 97.2965 110.493 97.2422C108.724 96.6961 107.08 95.8005 105.607 94.6825C105.142 94.4439 104.841 93.9871 104.386 93.7443C104.101 93.5198 103.823 93.2902 103.548 93.0564C103.314 92.9163 102.952 92.8175 102.756 93.0693C103.151 93.4985 103.645 93.82 104.038 94.2543C104.34 94.6002 104.809 94.7579 105.063 95.1536C105.334 95.5856 105.76 95.8871 106.039 96.3141C106.102 96.5 106.175 96.6851 106.214 96.8787C105.817 97.1768 105.313 97.3159 104.826 97.3883C104.336 97.3899 103.85 97.2382 103.422 97.0084C103.026 96.7159 102.74 96.2939 102.316 96.0383C102.001 95.8549 101.816 95.5019 101.467 95.3729C101.225 95.1705 101.025 94.9067 100.728 94.7839C100.31 94.3458 99.6489 94.1701 99.3782 93.5997C98.8265 92.9239 98.0316 92.3196 97.1165 92.358C96.4906 92.3184 95.9385 92.663 95.4023 92.9341C94.7733 93.2478 94.3535 93.8309 93.8712 94.3197C93.4298 95.0647 92.6123 95.5202 92.2018 96.2723C92.0798 96.3918 91.9705 96.5437 91.7926 96.5755C91.5745 96.7509 91.4219 96.9824 91.2702 97.2129C90.8181 97.7314 90.2913 98.1815 89.8485 98.7074C89.9834 99.0293 90.2425 99.2782 90.4601 99.5459C91.0403 100.571 91.5079 101.745 91.3302 102.947C91.1108 104.231 90.6052 105.455 89.8782 106.535C89.641 106.806 89.377 107.054 89.1642 107.345C88.7959 107.817 88.2777 108.133 87.825 108.513C87.448 108.948 86.9139 109.183 86.4542 109.513C86.0085 109.759 85.5322 109.94 85.0653 110.137C85.0982 111.248 85.488 112.306 85.7961 113.363C85.9036 113.769 86.1539 114.145 86.1192 114.579C86.0925 115.067 86.3244 115.502 86.5593 115.914C86.2664 116.596 86.0127 117.293 85.765 117.993C85.7313 118.04 85.6656 118.132 85.6327 118.179C85.2994 117.59 84.9014 117.037 84.6402 116.411C84.0855 115.269 83.5407 114.123 83.1071 112.931C82.8369 112.576 82.7649 112.133 82.6258 111.719C82.5155 111.364 82.5553 110.935 82.2436 110.672C81.9078 111.149 81.5771 111.638 81.2672 112.133C80.9501 112.485 80.6297 112.836 80.3579 113.226C79.9898 113.472 79.6637 113.767 79.3554 114.085C78.9736 114.293 78.764 114.739 78.5504 115.111C78.8398 116.784 79.0228 118.476 79.2864 120.154C79.5805 122.37 79.9445 124.576 80.2128 126.796C80.0427 126.775 79.8112 126.863 79.6929 126.696C79.5348 126.389 79.4772 126.044 79.388 125.714C79.1093 124.682 78.863 123.641 78.6682 122.591C78.4459 121.377 78.2569 120.156 78.1278 118.93C78.0496 118.202 77.9655 117.471 77.9372 116.738C77.9985 115.96 77.3315 115.412 76.8795 114.868C76.1551 114.65 75.2942 114.771 74.7602 115.341C74.2115 116.1 74.1289 117.069 73.9956 117.968C73.9194 118.825 73.8532 119.683 73.7536 120.539C73.7146 120.804 73.7051 121.093 73.5249 121.309C73.376 120.927 73.218 120.545 73.1456 120.139C72.9091 118.839 73.2098 117.526 73.274 116.223C73.3543 115.603 73.3145 114.965 73.4449 114.355C73.3688 114.165 73.3083 113.948 73.1017 113.861C72.795 113.684 72.564 113.41 72.3042 113.175C71.3696 112.521 70.6117 111.627 69.6221 111.05C68.1665 110.357 66.4595 110.991 65.3303 112.006C64.8148 112.505 64.2251 112.916 63.7382 113.445C62.6911 114.345 61.6047 115.222 60.7537 116.312ZM74.7102 107.722C74.5197 108.157 74.2631 108.65 74.4796 109.126C74.4319 109.274 74.3835 109.422 74.335 109.569C74.3763 109.623 74.459 109.729 74.5012 109.782C75.029 110.573 75.6653 111.292 76.2229 112.063C76.2696 112.074 76.364 112.095 76.4099 112.106C76.9095 111.926 77.3733 111.663 77.8448 111.421C78.4481 111.112 78.8815 110.57 79.3397 110.086C79.6701 109.563 79.9132 108.98 80.0111 108.369C79.26 107.652 78.7213 106.612 77.6717 106.284C77.0718 106.188 76.4365 106.294 75.8971 106.57C75.4776 106.926 74.9523 107.203 74.7102 107.722ZM82.4525 103.782C82.3321 104.147 82.4916 104.513 82.5644 104.87C82.8831 105.494 83.1803 106.136 83.6224 106.685C84.0231 107.097 84.5078 107.416 84.976 107.747C85.0751 107.749 85.1767 107.745 85.2782 107.734C85.4333 107.584 85.6086 107.455 85.7847 107.331C86.7849 106.652 87.3978 105.576 88.0223 104.573C88.4227 104.054 88.0854 103.4 87.8436 102.889C87.5215 102.509 87.1221 102.223 86.712 101.95C86.1065 101.627 85.4041 101.523 84.7258 101.583C84.0651 101.645 83.5568 102.122 83.0779 102.535C82.7087 102.849 82.5804 103.333 82.4525 103.782ZM98.8575 91.9515C98.8714 92.0163 98.8986 92.1468 98.9126 92.2116C99.4539 92.686 99.8936 93.2555 100.38 93.7804C100.833 94.0374 101.14 94.4833 101.61 94.7134C101.985 94.9096 102.452 95.154 102.871 94.9315C102.471 94.5115 102.029 94.1278 101.548 93.8036C101.259 93.5975 101.044 93.3006 100.735 93.1221C100.101 92.7211 99.6235 92.0904 98.9283 91.79C98.9104 91.8302 98.8754 91.9113 98.8575 91.9515ZM96.0346 127.563C96.501 127.964 96.9509 128.382 97.3918 128.81C97.9706 129.213 98.4573 129.727 98.9373 130.239C99.3675 130.854 100.003 131.308 100.389 131.955C100.472 132.06 100.555 132.163 100.642 132.268C101.097 132.908 101.6 133.517 102.058 134.159C102.428 134.816 102.974 135.351 103.346 136.009C105.116 138.518 106.814 141.089 108.805 143.432C108.948 143.597 109.134 144.018 109.398 143.811C109.144 143.491 109.006 143.102 108.789 142.761C108.43 142.099 107.998 141.483 107.632 140.826C107.227 139.994 106.655 139.26 106.222 138.445C105.791 137.648 105.263 136.908 104.826 136.116C104.434 135.38 103.922 134.718 103.524 133.984C102.57 132.511 101.657 130.991 100.545 129.636C99.9521 129.439 99.2955 129.259 98.9119 128.725C99.0974 128.541 99.2779 128.346 99.4997 128.204C99.9714 127.906 100.248 127.372 100.753 127.119C101.265 126.803 101.817 126.518 102.19 126.027C101.668 126.153 101.145 126.304 100.648 126.504C99.844 127.006 98.8811 127.089 97.9715 127.256C97.4306 127.385 96.8792 127.231 96.3314 127.258C96.2581 127.335 96.1088 127.487 96.0346 127.563ZM84.7454 142.871C85.4655 143.973 86.3783 144.945 87.157 145.996C87.8565 146.794 88.5609 147.588 89.2249 148.415C89.7181 148.826 90.0254 149.398 90.5078 149.819C90.9911 150.486 91.6559 150.991 92.1582 151.643C92.9001 152.35 93.5768 153.121 94.3187 153.829C94.4199 153.95 94.5426 153.978 94.6852 153.913C98.5908 152.582 102.483 151.208 106.392 149.884C106.332 149.823 106.21 149.702 106.149 149.641C106.377 149.483 106.366 149.777 106.425 149.925C106.476 149.866 106.58 149.746 106.632 149.687C106.186 149.193 105.672 148.734 105.313 148.176C105.151 147.991 104.972 147.824 104.833 147.623C104.005 146.507 103.123 145.423 102.426 144.218C102.029 143.761 101.741 143.228 101.403 142.73C100.867 141.864 100.292 141.022 99.7472 140.162C99.0731 139.076 98.3799 138.003 97.6678 136.942C97.1244 136.182 96.691 135.334 96.0369 134.66C95.9241 134.787 95.8314 134.927 95.7571 135.08C95.2845 136.033 94.6863 136.918 94.1744 137.851C93.7113 138.59 93.2474 139.332 92.7071 140.018C91.7469 141.02 90.5755 141.983 89.1522 142.166C88.6007 142.244 88.0456 142.545 87.4856 142.356C87.1448 142.256 86.9219 141.97 86.6459 141.768C86.0276 142.16 85.3408 142.44 84.7454 142.871ZM91.9677 137.513C91.9955 137.541 92.0511 137.601 92.078 137.631C92.7204 137.152 93.2398 136.539 93.7307 135.912C94.096 135.386 94.4844 134.761 94.3935 134.096C94.1541 134.309 93.9744 134.571 93.7946 134.832C93.1789 135.721 92.5557 136.605 91.9677 137.513ZM96.7265 132.601C97.7539 134.685 98.8411 136.741 99.9903 138.761C100.519 139.781 101.191 140.714 101.815 141.674C102.812 143.098 103.856 144.493 104.948 145.843C105.391 146.146 105.779 146.516 106.187 146.864C106.213 146.824 106.263 146.742 106.288 146.702C105.689 145.154 105.026 143.627 104.484 142.058C106.652 143.898 107.356 146.841 109.234 148.918C109.309 148.88 109.462 148.805 109.537 148.767C109.883 148.245 110.316 147.78 110.627 147.231C110.017 146.635 109.39 146.06 108.799 145.446C107.819 144.56 107.05 143.482 106.263 142.428C105.914 141.896 105.573 141.356 105.173 140.862C103.836 138.836 102.494 136.815 101.188 134.77C100.603 133.994 100.168 133.112 99.4949 132.403C99.0644 131.927 98.6958 131.31 98.086 131.059C97.597 131.543 97.2348 132.131 96.7265 132.601ZM103.295 131.745C103.557 132.243 103.822 132.742 104.131 133.215C104.746 134.151 105.306 135.125 105.995 136.011C106.746 137.196 107.645 138.279 108.41 139.453C108.921 140.021 109.312 140.683 109.814 141.256C110.222 141.934 110.778 142.504 111.233 143.15C111.529 143.661 111.982 144.06 112.301 144.556C112.456 144.528 112.612 144.498 112.77 144.476C112.655 144.627 112.551 144.788 112.463 144.957C112.557 144.952 112.746 144.941 112.841 144.936C113.476 143.341 114.161 141.768 114.843 140.192C115.201 139.307 115.24 138.243 114.69 137.427C114.372 136.865 113.758 136.624 113.219 136.337C113.178 136.362 113.096 136.414 113.056 136.439C113.124 136.824 113.109 137.215 113.113 137.605C112.987 137.541 112.863 137.481 112.739 137.423C112.068 136.805 111.367 136.219 110.71 135.587C110.146 134.924 109.581 134.263 109.022 133.596C108.551 132.935 108.079 132.275 107.539 131.67C106.74 130.662 106.324 129.417 105.546 128.397C105.331 128.221 105.058 128.154 104.804 128.063C103.873 128.032 102.974 128.319 102.106 128.623C101.946 128.675 101.808 128.763 101.692 128.884C102.236 129.832 102.664 130.848 103.295 131.745ZM105.959 127.019C106.539 127.826 107.139 128.619 107.694 129.446C108.022 130.022 108.481 130.506 108.831 131.068C109.374 131.871 110.067 132.557 110.6 133.366C110.848 133.667 111.134 133.936 111.429 134.192C111.236 133.527 110.742 132.968 110.351 132.402C109.835 131.482 109.206 130.635 108.636 129.751C108.294 129.128 107.888 128.547 107.461 127.98C107.171 127.489 106.906 126.972 106.507 126.555C106.309 126.692 106.114 126.833 105.959 127.019ZM109.627 128.775C110.101 129.543 110.478 130.367 110.976 131.123C111.531 131.908 111.91 132.811 112.548 133.54C113.08 134.329 113.582 135.152 114.244 135.844C114.597 136.325 114.913 136.836 115.333 137.265C115.422 137.095 115.58 136.878 115.399 136.707C115.155 136.343 114.915 135.977 114.631 135.643C114.312 135.162 114.032 134.653 113.677 134.195C113.521 133.873 113.289 133.599 113.057 133.332C112.636 132.595 112.191 131.86 111.636 131.217C111.238 130.465 110.76 129.755 110.255 129.07C109.85 128.395 109.442 127.72 108.969 127.09C108.883 126.952 108.787 126.822 108.691 126.695C108.607 126.628 108.526 126.561 108.445 126.495C108.882 127.232 109.173 128.045 109.627 128.775Z" fill="black"/>
<path d="M66.9648 103.18C67.4004 102.843 67.8723 102.557 68.3434 102.275C69.0212 101.761 69.7531 101.331 70.4673 100.873L70.6807 100.889C69.9865 101.673 69.1795 102.337 68.3589 102.981C67.9714 103.292 67.4145 103.488 66.9648 103.18Z" fill="black"/>
<path d="M77.774 98.3988C77.9114 97.9085 78.3026 97.5547 78.575 97.1405C78.7488 96.8639 79.0656 96.7358 79.2916 96.5102C79.8816 95.8779 80.6079 95.3825 81.1062 94.6653C81.2646 95.495 80.8941 96.3326 80.5392 97.0683C80.2101 97.4714 79.9844 97.9577 79.5813 98.2966C79.0166 98.7112 78.5094 99.2119 77.8423 99.4669C77.5943 99.1595 77.7326 98.7491 77.774 98.3988Z" fill="black"/>
<path d="M113.3 136.816C113.253 136.628 113.324 136.554 113.513 136.593C113.557 136.782 113.486 136.857 113.3 136.816Z" fill="black"/>
</svg>
