<svg width="265" height="263" viewBox="0 0 265 263" fill="none" xmlns="http://www.w3.org/2000/svg">
<path d="M92.8886 78.8995C95.9659 76.2169 100.027 73.9256 104.252 74.7503C110.305 75.8267 114.738 80.7414 118.099 85.5535C125.269 96.6502 125.629 110.299 129.901 122.501C130.895 124.606 131.091 126.93 131.595 129.167C132.655 130.513 134.279 131.268 135.625 132.294C136.59 133.291 137.547 134.301 138.499 135.329C140.078 137.1 141.726 138.862 143.784 140.091C147.309 142.389 151.448 143.479 155.024 145.681C160.82 149.437 165.365 154.95 168.371 161.135C171.255 166.898 171.257 174.368 167.347 179.672C164.623 183.455 161.179 186.683 157.674 189.737C152.106 193.94 146.769 198.428 141.503 203.002C137.649 206.501 132.237 207.315 127.234 207.606C122.493 207.835 118.061 205.579 114.386 202.786C108.784 198.666 103.865 193.672 97.951 189.984C94.3542 187.757 90.7781 185.436 86.8637 183.8C81.6538 181.579 76.1305 180.23 70.7386 178.537C69.1528 177.939 67.064 177.36 66.6515 175.466C66.2036 172.78 66.5866 170.036 66.3609 167.334C65.9261 161.348 65.7328 155.329 64.8746 149.384C64.3447 145.59 64.5535 141.746 64.5522 137.926C64.682 130.53 64.6264 123.135 64.7618 115.736C64.9765 107.941 67.4298 99.7757 73.3943 94.4298C77.0963 90.9506 82.1749 89.515 87.1189 89.0427C88.9232 85.6055 90.3464 81.8796 92.8886 78.8995ZM89.0258 91.245C84.8021 92.1696 80.1132 92.5929 76.8868 95.8225C70.5583 101.756 69.0628 110.738 67.7011 118.898C65.8255 134.211 67.3595 149.639 68.0578 164.986C68.3173 168.242 67.636 171.611 68.5427 174.787C70.1599 175.948 72.1652 176.329 74.0357 176.891C80.3998 178.616 86.6355 180.795 92.5457 183.733C96.6286 185.377 100.224 188.044 104.397 189.48C107.282 192.352 111.103 194.019 114.092 196.786C118.743 200.623 124.18 205.351 130.654 204.377C135.551 201.868 140.795 199.496 144.519 195.312C146.851 192.825 150.767 191.845 151.847 188.286C153.56 187.686 155.357 186.934 156.268 185.244C157.973 182.467 160.463 180.321 162.386 177.717C163.199 177.536 164.233 177.846 164.88 177.193C166.772 175.226 167.963 172.384 167.2 169.655C167.962 164.72 164.82 160.305 162.053 156.546C156.841 150.907 150.283 146.626 143.354 143.391C140.814 142.102 138.376 140.613 135.7 139.618C136.313 135.975 132.851 133.514 131.124 130.74C130.787 130.515 130.125 130.06 129.788 129.835C127.056 124.574 126.635 118.573 124.511 113.098C124.235 108.355 123.041 103.711 122.259 99.0337C121.569 94.4378 119.467 89.5758 115.217 87.2607C111.413 82.5746 105.754 78.0034 99.3382 78.8328C93.5762 80.3239 91.3857 86.4474 89.0258 91.245Z" fill="black"/>
<path d="M74.3354 118.763C75.1913 113.067 77.6041 107.711 78.0316 101.917C78.4393 103.568 78.8646 105.225 79.2956 106.878C81.3879 104.609 83.7129 102.513 86.5361 101.197C90.7139 99.1889 94.3462 96.1221 96.8811 92.23C97.8789 92.5683 98.9682 93.0928 100.008 92.5656C101.515 91.1233 102.997 89.6649 104.551 88.2779C104.106 89.6495 103.661 91.0211 103.202 92.3936C103.491 92.5483 104.058 92.8498 104.348 93.0046C105.347 93.5282 106.322 94.1257 107.4 94.5001C109.568 94.2664 111.45 92.9972 113.428 92.1716C112.849 93.8954 112.114 95.5671 111.635 97.3229C111.215 98.7772 112.374 100.022 112.999 101.221C113.263 101.644 113.782 102.486 114.041 102.912L114.383 103.447C117.142 108.454 120.181 113.316 122.743 118.436C123.048 119.387 123.305 120.357 123.562 121.328C123.064 121.747 122.569 122.171 122.074 122.595C121.819 121.497 121.555 120.397 121.263 119.313C119.294 113.615 116.07 108.3 112.118 103.758C110.105 101.565 108.662 98.8064 106.196 97.0581C104.601 95.9362 102.555 96.3833 100.747 96.4781C103.434 100.305 106.291 104.027 108.466 108.184C108.331 108.508 108.068 109.157 107.936 109.486C105.156 105.325 102.185 101.287 99.5719 97.0157C96.7792 98.5152 94.1582 100.341 91.9111 102.586C95.355 106.592 98.3835 111.147 99.4582 116.402C99.2818 116.563 98.9465 116.888 98.7701 117.049C96.6712 112.178 93.6467 107.799 91.0136 103.219C86.6313 105.403 82.4455 108.206 79.4864 112.176C82.1248 115.189 84.712 118.53 84.9989 122.693C84.8152 122.463 84.439 122 84.2497 121.774C82.6018 118.917 81.6019 115.317 78.6644 113.488C78.1142 113.594 77.5704 113.711 77.033 113.839C76.5568 115.847 75.7542 117.766 74.6194 119.494L74.3354 118.763Z" fill="black"/>
<path d="M89.0202 91.2456C91.3801 86.448 93.5706 80.3246 99.3326 78.8335C105.748 78.0041 111.408 82.5753 115.211 87.2614C114.267 88.9708 113.425 90.8598 111.815 92.0704C110.383 93.0972 108.64 93.5274 106.978 94.0458C107.367 93.0335 107.757 92.0212 108.15 91.0145C106.868 91.6507 105.596 92.3182 104.342 93.005C104.052 92.8502 103.485 92.5487 103.196 92.3939C103.655 91.0215 104.1 89.6499 104.545 88.2782C102.992 89.6653 101.509 91.1237 100.002 92.566C99.9102 91.1287 99.833 89.6905 99.7534 88.2612C98.7718 89.5672 97.8143 90.8892 96.8752 92.2304C94.3403 96.1225 90.7081 99.1893 86.5302 101.198C83.7071 102.513 81.3821 104.61 79.2897 106.878C78.8588 105.225 78.4335 103.569 78.0258 101.917C77.5982 107.711 75.1854 113.068 74.3296 118.763C73.1684 120.433 72.1764 122.333 72.3805 124.436C72.6628 130.703 71.6795 136.918 71.5007 143.173C71.301 149.417 70.9681 155.663 71.0468 161.912C71.3207 165.219 71.5113 168.902 73.5979 171.627C76.3477 173.206 79.6427 173.237 82.6466 174.074C88.4171 175.647 93.4964 178.904 98.8258 181.504C104.633 184.352 110.39 187.452 116.624 189.289C121.043 190.621 125.408 188.394 129.279 186.487C132.816 184.726 136.259 182.788 139.734 180.905C140.107 180.945 140.862 181.028 141.235 181.068C138.38 183.02 135.487 184.957 132.266 186.254C129.163 187.522 126.314 189.366 123.123 190.43C120.766 191.219 118.218 190.97 115.871 190.278C110.667 188.746 105.85 186.196 100.944 183.92C98.1787 182.782 95.461 181.52 92.9543 179.884C92.6889 180.684 92.4267 181.489 92.1645 182.295C96.4335 184.316 101.28 185.68 104.391 189.481C100.218 188.045 96.623 185.377 92.5401 183.734C86.6299 180.795 80.3942 178.617 74.0301 176.892C72.1596 176.33 70.1543 175.949 68.5371 174.788C67.6304 171.612 68.3117 168.243 68.0522 164.987C67.3539 149.64 65.8199 134.212 67.6955 118.898C69.0572 110.738 70.5527 101.757 76.8812 95.8232C80.1076 92.5935 84.7965 92.1702 89.0202 91.2456Z" fill="white"/>
<path d="M72.383 124.436C72.179 122.333 73.1709 120.433 74.3322 118.763L74.6162 119.495C74.3527 122.722 73.4933 125.909 73.7592 129.176C74.0179 132.261 73.3061 135.29 73.0097 138.342C72.9153 146.373 71.5954 154.397 72.5413 162.437C73.8776 162.403 75.2387 162.296 76.4699 161.726C75.2187 162.769 73.7077 163.826 73.2724 165.476C73.0321 167.453 73.7903 169.835 75.7403 170.679C78.527 171.932 81.591 172.34 84.562 172.951C83.9252 173.323 83.2828 173.697 82.6492 174.074C79.6453 173.237 76.3503 173.206 73.6005 171.627C71.5139 168.902 71.3233 165.219 71.0493 161.912C70.9707 155.663 71.3035 149.417 71.5032 143.173C71.6821 136.918 72.6654 130.703 72.383 124.436Z" fill="black"/>
<path d="M96.8764 92.2304C97.8156 90.889 98.7733 89.5668 99.755 88.2607C99.8347 89.6902 99.9119 91.1286 100.004 92.5661C98.9639 93.0933 97.8744 92.5688 96.8764 92.2304Z" fill="white"/>
<path d="M104.348 93.0039C105.601 92.3171 106.873 91.6496 108.156 91.0134C107.763 92.0201 107.373 93.0324 106.983 94.0447C108.646 93.5263 110.389 93.0961 111.821 92.0693C113.43 90.8587 114.272 88.9697 115.217 87.2603C119.467 89.5754 121.569 94.4373 122.259 99.0332C119.495 100.256 117.106 102.15 114.383 103.446L114.041 102.912C116.503 101.199 119.449 99.3954 120.042 96.1965C120.65 94.4335 119.761 92.7075 119.112 91.1042C117.091 92.7287 115.172 94.4663 113.364 96.3338C115.197 95.9044 116.991 95.3034 118.778 94.7144C117.338 97.2653 114.505 98.095 111.866 98.8068C112.229 99.6121 112.61 100.422 112.999 101.22C112.374 100.021 111.215 98.7764 111.635 97.3222C112.114 95.5664 112.849 93.8947 113.428 92.1709C111.449 92.9965 109.568 94.2657 107.4 94.4994C106.322 94.125 105.347 93.5275 104.348 93.0039Z" fill="white"/>
<path d="M91.9093 102.586C94.1565 100.341 96.7775 98.5146 99.5702 97.0151C102.183 101.287 105.154 105.324 107.934 109.485C107.312 110.95 106.754 112.528 105.571 113.651C103.924 115.278 101.563 115.682 99.4565 116.402C98.3818 111.147 95.3533 106.591 91.9093 102.586Z" fill="white"/>
<path d="M100.746 96.4775C102.554 96.3826 104.6 95.9356 106.195 97.0575C108.661 98.8057 110.104 101.564 112.118 103.757C111.593 105.733 110.132 107.112 108.465 108.184C106.29 104.027 103.433 100.305 100.746 96.4775Z" fill="white"/>
<path d="M79.4848 112.176C82.4439 108.205 86.6297 105.403 91.012 103.218C93.6451 107.798 96.6696 112.177 98.7685 117.048C95.8533 120.301 91.8809 122.564 87.6227 123.494C86.6482 123.783 85.7522 123.244 84.9973 122.693C84.7104 118.529 82.1232 115.189 79.4848 112.176Z" fill="white"/>
<path d="M77.0317 113.839C77.5691 113.711 78.1129 113.594 78.6631 113.488C77.8554 119.268 75.6921 124.839 75.684 130.728C79.0189 129.031 81.7954 126.513 84.5013 123.975C84.4138 123.236 84.3327 122.507 84.2484 121.773C84.4377 122 84.8139 122.463 84.9977 122.693C85.7525 123.245 86.6485 123.783 87.623 123.494C91.8812 122.565 95.8536 120.302 98.7688 117.049C98.9452 116.888 99.2805 116.563 99.4569 116.402C101.563 115.682 103.924 115.279 105.572 113.652C106.755 112.529 107.313 110.951 107.935 109.485C108.067 109.157 108.329 108.508 108.465 108.184C110.132 107.113 111.593 105.734 112.117 103.758C116.069 108.3 119.293 113.615 121.261 119.312C119.398 119.767 120.685 121.862 120.807 123.118C121.214 126.788 121.577 130.551 123.241 133.905C121.121 134.014 118.524 134.083 117.341 136.183C116.884 137.546 117.058 139.011 117.128 140.423C117.18 142.926 117.853 145.431 119.945 147.006C121.051 144.08 122.837 141.472 125.343 139.563C124.833 139.088 124.323 138.612 123.819 138.133C124.276 137.67 124.732 137.216 125.196 136.765C125.748 137.417 126.311 138.064 126.886 138.704C127.386 139.252 127.916 139.776 128.469 140.287C132.614 143.265 136.322 146.859 140.695 149.506C145.025 153.303 149.713 156.955 152.617 162.036C152.898 162.97 153.125 163.928 153.361 164.888C152.418 165.806 151.466 166.708 150.527 167.632C148.295 169.422 145.689 173.072 142.483 171.463C144.107 170.043 145.708 168.584 147.271 167.095C146.268 166.827 145.025 165.668 144.09 166.679C141.368 169.292 139.682 172.766 137.171 175.579C136.392 176.367 135.614 177.155 134.838 177.948C130.313 181.473 125.309 184.446 119.832 186.228C119.966 185.198 120.112 184.176 120.258 183.154C124.059 180.996 127.427 178.17 130.814 175.43C132.101 174.254 133.75 172.969 133.795 171.067C133.667 169.032 132.263 167.384 131.071 165.845C127.485 161.735 123.734 157.57 118.869 154.951C108.621 149.166 95.2278 148.539 84.9217 154.512C87.6889 154.636 90.501 154.526 93.2154 155.209C95.4645 155.756 97.5092 156.896 99.5234 158.009C95.2057 157.453 90.8245 156.538 86.4677 157.308C82.7821 157.806 79.5267 159.734 76.4718 161.726C75.2407 162.295 73.8795 162.403 72.5433 162.437C71.5973 154.397 72.9173 146.373 73.0117 138.341C73.308 135.289 74.0199 132.261 73.7612 129.176C73.4953 125.909 74.3547 122.721 74.6182 119.494C75.7529 117.766 76.5555 115.847 77.0317 113.839ZM109.53 144.841C108.911 144.122 108.292 143.403 107.675 142.69C107.815 143.847 107.728 145.141 108.464 146.128C110.116 148.602 114.4 148.448 115.783 145.773C117.668 142.632 114.834 138.964 112.182 137.336C108.732 138.049 109.495 142.224 109.53 144.841ZM122.92 146.907C123.749 148.124 124.85 149.111 125.87 150.167C126.615 148.929 127.339 147.681 128.081 146.438C128.977 146.089 129.882 145.743 130.797 145.429C129.744 143.625 127.636 142.662 125.624 142.516C124.226 143.576 123.196 145.163 122.92 146.907ZM128.786 150.72C128.471 153.283 131.017 154.74 132.838 155.971C132.927 154.654 132.65 153.219 133.227 151.987C134.119 150.941 135.232 150.126 136.275 149.24C134.78 148.344 133.235 146.933 131.363 147.37C129.61 147.366 129.095 149.344 128.786 150.72ZM135.186 154.919C135.807 157.425 137.625 159.433 138.947 161.604C139.092 159.875 139.015 158.034 139.825 156.454C140.754 155.447 142.056 154.911 143.243 154.277C141.653 153.436 140.168 152.415 138.689 151.405C137.298 152.267 135.098 152.914 135.186 154.919ZM141.651 157.98C140.629 160.545 141.202 163.384 141.342 166.052C143.083 163.157 144.527 159.598 148.184 158.737C146.291 157.562 143.572 155.907 141.651 157.98ZM143.934 164.593C145.59 165.158 147.113 166.038 148.505 167.105C150.191 165.076 150.713 161.351 147.632 160.326C145.334 160.292 144.799 162.966 143.934 164.593Z" fill="black"/>
<path d="M78.6616 113.487C81.5991 115.316 82.599 118.916 84.2468 121.773C84.3312 122.507 84.4123 123.235 84.4998 123.975C81.7939 126.512 79.0174 129.03 75.6825 130.728C75.6905 124.839 77.8538 119.267 78.6616 113.487Z" fill="white"/>
<path d="M113.363 96.3351C115.17 94.4676 117.089 92.73 119.11 91.1055C119.759 92.7088 120.648 94.4348 120.04 96.1979C119.448 99.3967 116.501 101.2 114.039 102.913C113.78 102.487 113.261 101.644 112.997 101.222C112.608 100.423 112.227 99.6134 111.864 98.8082C114.503 98.0964 117.336 97.2666 118.776 94.7158C116.989 95.3047 115.195 95.9058 113.363 96.3351Z" fill="white"/>
<path d="M114.381 103.447C117.104 102.151 119.492 100.257 122.257 99.0341C123.039 103.712 124.233 108.355 124.509 113.098C124.517 115.224 124.624 117.353 124.855 119.463C124.146 119.123 123.44 118.774 122.741 118.437C120.179 113.316 117.139 108.455 114.381 103.447Z" fill="white"/>
<path d="M124.852 119.463C124.622 117.352 124.515 115.224 124.506 113.098C126.63 118.573 127.051 124.574 129.783 129.835C130.049 130.875 130.253 131.935 130.532 132.983C129.24 132.991 127.96 132.941 126.679 132.98C127.266 131.751 127.975 130.556 128.359 129.234C126.787 130.237 125.262 131.295 123.805 132.448C124.775 134.56 125.693 136.702 126.882 138.704C126.308 138.064 125.745 137.417 125.193 136.764C124.487 135.842 123.831 134.891 123.238 133.904C121.574 130.55 121.211 126.788 120.804 123.117C122.372 125.327 123.725 127.682 124.924 130.118C124.825 127.143 124.354 124.194 123.557 121.328C123.3 120.357 123.043 119.387 122.738 118.436C123.438 118.774 124.144 119.123 124.852 119.463Z" fill="white"/>
<path d="M120.806 123.117C120.684 121.861 119.397 119.766 121.261 119.312C121.553 120.397 121.817 121.497 122.072 122.595C122.567 122.171 123.062 121.746 123.56 121.328C124.357 124.194 124.828 127.143 124.927 130.118C123.728 127.682 122.375 125.327 120.806 123.117Z" fill="black"/>
<path d="M109.532 144.84C109.497 142.224 108.734 138.049 112.185 137.336C114.836 138.963 117.67 142.632 115.786 145.772C114.402 148.447 110.118 148.602 108.466 146.128C107.73 145.141 107.817 143.847 107.678 142.69C108.294 143.403 108.913 144.122 109.532 144.84Z" fill="black"/>
<path d="M123.807 132.448C125.263 131.295 126.789 130.237 128.361 129.234C127.976 130.556 127.267 131.751 126.681 132.98C127.554 135.341 128.431 137.737 128.466 140.287C127.914 139.776 127.383 139.252 126.884 138.703C125.695 136.702 124.776 134.56 123.807 132.448Z" fill="white"/>
<path d="M84.9159 154.512C95.222 148.539 108.615 149.166 118.864 154.951C123.728 157.57 127.479 161.735 131.065 165.845C132.257 167.384 133.661 169.032 133.789 171.067C133.744 172.969 132.095 174.254 130.808 175.43C127.421 178.17 124.053 180.996 120.252 183.154C115.753 184.34 110.98 183.508 106.935 181.306C99.8619 177.611 92.5408 174.094 84.5582 172.951C81.5872 172.34 78.5231 171.931 75.7365 170.679C73.7865 169.835 73.0282 167.452 73.2686 165.475C73.7039 163.826 75.2149 162.769 76.466 161.726C79.5209 159.734 82.7763 157.806 86.4619 157.308C90.8187 156.538 95.1999 157.453 99.5176 158.009C97.5034 156.896 95.4587 155.756 93.2096 155.209C90.4952 154.526 87.6831 154.636 84.9159 154.512Z" fill="white"/>
<path d="M117.335 136.183C118.519 134.084 121.116 134.014 123.236 133.905C123.83 134.891 124.485 135.843 125.191 136.765C124.727 137.217 124.271 137.671 123.813 138.133C123.357 137.687 122.901 137.24 122.447 136.799C121.893 136.259 121.303 135.762 120.674 135.325C119.726 135.844 118.953 136.614 118.111 137.266C118.444 137.419 119.118 137.711 119.453 137.855C118.651 138.693 117.897 139.564 117.123 140.424C117.053 139.011 116.878 137.546 117.335 136.183Z" fill="black"/>
<path d="M118.116 137.265C118.957 136.613 119.732 135.843 120.679 135.324C121.309 135.761 121.898 136.258 122.453 136.798C121.447 137.149 120.452 137.495 119.458 137.854C119.123 137.711 118.449 137.418 118.116 137.265Z" fill="black"/>
<path d="M130.533 132.983C130.254 131.935 130.05 130.875 129.784 129.835C130.121 130.06 130.784 130.516 131.12 130.74C132.261 132.449 133.189 134.295 134.092 136.147C133.782 136.205 133.166 136.326 132.857 136.384C131.998 135.311 131.207 134.176 130.533 132.983Z" fill="white"/>
<path d="M128.464 140.287C128.429 137.737 127.551 135.341 126.678 132.98C127.959 132.94 129.239 132.991 130.531 132.982C131.206 134.176 131.996 135.311 132.855 136.384C132.062 136.547 131.267 136.733 130.481 136.922C132.153 137.932 133.875 138.885 135.694 139.618C138.371 140.613 140.808 142.102 143.348 143.391C150.277 146.626 156.835 150.907 162.047 156.545C164.814 160.304 167.957 164.72 167.195 169.655C166.713 171.822 165.851 173.872 164.902 175.874C164.14 174.827 163.428 173.752 162.698 172.695C162.371 174.207 162.154 175.783 161.435 177.17C160.38 178.414 158.729 179.03 157.857 180.437C157.238 181.491 156.735 182.605 156.217 183.706C155.435 183.952 154.612 184.117 153.891 184.522C152.922 185.589 152.477 187.013 151.841 188.285C150.762 191.844 146.845 192.824 144.513 195.312C140.79 199.496 135.546 201.868 130.649 204.377C124.174 205.351 118.738 200.623 114.087 196.786C111.097 194.019 107.277 192.352 104.391 189.48C101.28 185.679 96.4336 184.315 92.1646 182.294C92.4268 181.488 92.6889 180.683 92.9543 179.883C95.4611 181.519 98.1787 182.781 100.944 183.919C105.85 186.195 110.667 188.745 115.871 190.277C118.218 190.969 120.766 191.218 123.123 190.429C126.314 189.365 129.163 187.521 132.266 186.253C135.487 184.956 138.38 183.019 141.235 181.067C141.993 180.857 142.752 180.647 143.514 180.442C142.314 179.906 141.109 179.388 139.918 178.855C142.052 177.598 144.235 176.425 146.452 175.314C146.627 174.343 146.632 173.178 147.445 172.49C149.922 170.463 152.944 169.287 155.85 168.013C154.94 166.276 154.526 164.353 154.173 162.447C153.928 160.598 152.428 159.355 151.239 158.068C148.009 154.894 144.896 151.415 140.691 149.506C136.317 146.859 132.61 143.265 128.464 140.287Z" fill="white"/>
<path d="M119.46 137.854C120.453 137.495 121.448 137.15 122.454 136.798C122.907 137.239 123.363 137.686 123.82 138.133C124.324 138.612 124.834 139.087 125.345 139.563C122.838 141.472 121.052 144.08 119.946 147.006C117.854 145.431 117.181 142.925 117.129 140.423C117.904 139.563 118.658 138.693 119.46 137.854Z" fill="white"/>
<path d="M131.121 130.739C132.848 133.513 136.31 135.974 135.696 139.617C133.877 138.884 132.155 137.931 130.483 136.921C131.269 136.732 132.064 136.546 132.857 136.383C133.167 136.325 133.783 136.204 134.092 136.146C133.19 134.294 132.261 132.448 131.121 130.739Z" fill="white"/>
<path d="M122.917 146.908C123.194 145.164 124.223 143.577 125.621 142.517C127.634 142.663 129.741 143.626 130.794 145.43C129.879 145.744 128.975 146.09 128.079 146.438C127.337 147.682 126.613 148.93 125.868 150.167C124.847 149.112 123.747 148.125 122.917 146.908Z" fill="white"/>
<path d="M155.488 130.942C156.265 128.405 158.545 126.803 160.616 125.359C163.067 123.809 165.894 122.081 168.919 122.721C170.649 122.856 171.728 125.212 170.548 126.549C169.404 128.067 167.482 128.6 165.732 129.056C162.346 129.83 158.966 130.734 155.488 130.942ZM158.774 128.781C162.554 128.839 166.693 128.119 169.448 125.316C169.293 124.392 168.495 123.909 167.599 124.049C164.217 124.582 161.396 126.723 158.774 128.781Z" fill="black"/>
<path d="M158.777 128.779C161.4 126.722 164.221 124.58 167.603 124.047C168.499 123.908 169.296 124.39 169.452 125.314C166.697 128.118 162.558 128.838 158.777 128.779Z" fill="white"/>
<path d="M82.6496 174.073C83.2832 173.696 83.9256 173.322 84.5624 172.95C92.545 174.093 99.8661 177.61 106.939 181.306C110.984 183.508 115.757 184.34 120.256 183.153C120.11 184.175 119.964 185.197 119.831 186.227C119.402 186.39 118.552 186.727 118.133 186.892C120.273 187.457 122.615 188.114 124.766 187.212C129.135 185.422 131.767 181.296 134.837 177.948C135.612 177.154 136.391 176.366 137.17 175.579C138.895 174.153 140.731 172.858 142.481 171.462C145.687 173.071 148.294 169.421 150.526 167.631C151.16 167.947 151.798 168.267 152.441 168.585C148.49 170.65 144.603 172.842 140.894 175.319C141.896 175.417 142.898 175.515 143.909 175.615C140.872 177.209 137.934 178.963 135.001 180.736C136.577 180.692 138.168 180.714 139.737 180.904C136.262 182.786 132.819 184.725 129.282 186.486C125.411 188.393 121.045 190.62 116.627 189.288C110.392 187.451 104.635 184.351 98.8287 181.502C93.4993 178.903 88.42 175.646 82.6496 174.073Z" fill="black"/>
<path d="M128.787 150.719C129.096 149.343 129.611 147.365 131.364 147.369C133.237 146.932 134.781 148.343 136.276 149.239C135.234 150.125 134.12 150.94 133.229 151.986C132.651 153.218 132.928 154.653 132.839 155.97C131.018 154.739 128.472 153.282 128.787 150.719Z" fill="white"/>
<path d="M187.648 115.526C191.776 111.698 196.765 108.281 202.456 107.5C204.988 107.342 208.441 107.089 209.797 109.762C210.695 111.215 209.787 113.015 208.478 113.853C205.387 116.134 201.372 115.755 197.749 115.919C194.382 115.84 190.939 116.423 187.648 115.526ZM192.153 114.09C197.408 113.954 203.502 116.027 207.895 112.063C209.448 110.923 207.471 109.393 206.173 109.376C201.064 108.661 196.141 111.125 192.153 114.09Z" fill="black"/>
<path d="M192.15 114.09C196.139 111.125 201.061 108.661 206.17 109.376C207.469 109.393 209.445 110.922 207.893 112.063C203.499 116.027 197.405 113.954 192.15 114.09Z" fill="white"/>
<path d="M140.695 149.506C144.9 151.415 148.014 154.894 151.243 158.068C151.767 159.363 152.209 160.697 152.617 162.035C149.713 156.954 145.026 153.302 140.695 149.506Z" fill="white"/>
<path d="M135.189 154.919C135.1 152.914 137.3 152.267 138.692 151.405C140.17 152.414 141.655 153.435 143.246 154.276C142.059 154.91 140.756 155.446 139.828 156.454C139.018 158.034 139.094 159.875 138.95 161.603C137.627 159.432 135.809 157.425 135.189 154.919Z" fill="white"/>
<path d="M141.652 157.98C143.572 155.906 146.292 157.562 148.185 158.737C144.528 159.598 143.084 163.157 141.342 166.052C141.202 163.384 140.63 160.545 141.652 157.98Z" fill="white"/>
<path d="M181.713 137.411C182.727 134.909 185.488 133.994 187.795 133.078C191.854 131.644 196.317 130.292 200.622 131.399C202.61 131.827 204.353 133.586 204.271 135.697C203.636 138.182 200.765 138.803 198.572 139.11C192.914 139.611 187.189 138.846 181.713 137.411ZM185.23 135.914C189.26 136.97 193.448 137.325 197.602 137.49C199.518 137.624 201.368 136.991 202.887 135.817C202.201 134.526 201.375 133.106 199.776 132.903C194.785 131.845 189.628 133.639 185.23 135.914Z" fill="black"/>
<path d="M185.227 135.916C189.624 133.641 194.781 131.847 199.773 132.905C201.371 133.108 202.198 134.528 202.884 135.819C201.365 136.993 199.514 137.626 197.598 137.492C193.444 137.327 189.256 136.972 185.227 135.916Z" fill="white"/>
<path d="M143.929 164.593C144.795 162.966 145.329 160.292 147.628 160.326C150.709 161.35 150.187 165.075 148.501 167.104C147.109 166.038 145.586 165.158 143.929 164.593Z" fill="white"/>
<path d="M151.238 158.069C152.428 159.355 153.928 160.598 154.173 162.447C154.525 164.353 154.939 166.277 155.85 168.013C152.943 169.287 149.921 170.464 147.445 172.49C146.631 173.178 146.627 174.343 146.452 175.314C144.234 176.426 142.052 177.598 139.918 178.856C141.109 179.389 142.314 179.907 143.514 180.442C142.752 180.647 141.993 180.857 141.234 181.068C140.861 181.028 140.107 180.945 139.734 180.905C138.165 180.714 136.573 180.693 134.997 180.737C137.931 178.963 140.869 177.21 143.905 175.615C142.895 175.515 141.893 175.418 140.891 175.32C144.6 172.843 148.486 170.651 152.438 168.586C151.795 168.268 151.157 167.947 150.522 167.632C151.462 166.708 152.413 165.806 153.356 164.888C153.12 163.928 152.893 162.97 152.612 162.036C152.204 160.697 151.762 159.363 151.238 158.069Z" fill="white"/>
<path d="M137.168 175.58C139.679 172.766 141.365 169.292 144.087 166.679C145.021 165.668 146.265 166.827 147.267 167.095C145.705 168.584 144.104 170.043 142.479 171.463C140.73 172.858 138.893 174.154 137.168 175.58Z" fill="white"/>
<path d="M118.133 186.894C118.552 186.728 119.402 186.391 119.831 186.228C125.307 184.446 130.312 181.474 134.837 177.949C131.768 181.297 129.136 185.423 124.766 187.214C122.615 188.115 120.273 187.458 118.133 186.894Z" fill="white"/>
<path d="M161.441 177.17C162.16 175.783 162.377 174.207 162.704 172.694C163.435 173.751 164.146 174.827 164.908 175.873C165.857 173.871 166.719 171.822 167.201 169.654C167.964 172.384 166.772 175.225 164.881 177.193C164.233 177.846 163.199 177.535 162.387 177.717C160.464 180.321 157.974 182.467 156.269 185.244C155.358 186.934 153.56 187.686 151.847 188.285C152.483 187.013 152.928 185.589 153.897 184.521C154.619 184.116 155.441 183.952 156.224 183.705C156.742 182.605 157.244 181.491 157.863 180.437C158.735 179.03 160.387 178.413 161.441 177.17Z" fill="white"/>
</svg>
