<svg width="132" height="98" viewBox="0 0 132 98" fill="none" xmlns="http://www.w3.org/2000/svg">
<path d="M16.1546 79.464C15.159 79.6267 14.4217 79.7636 13.6875 79.8528C12.5948 79.9937 11.5827 79.7555 10.6598 79.1452C8.56826 77.7598 8.1447 76.2944 9.47127 74.1487C10.3423 72.7432 11.4757 71.5089 12.5244 70.2199C12.9392 69.7047 13.4401 69.2599 14.2134 68.4563C13.4777 68.5299 13.1082 68.4721 12.8452 68.6089C11.4567 69.3478 10.0345 69.119 8.62632 68.7941C6.01273 68.1951 4.8189 65.8278 5.98107 63.3828C6.88812 61.4685 8.05583 59.7097 9.70808 58.2893C14.9333 53.788 20.3338 49.5375 26.2322 45.9162C30.4251 43.3417 34.6306 40.8133 39.074 38.6874C41.39 37.5795 43.5471 36.148 45.7645 34.8447C48.176 33.4273 50.5577 31.9496 52.9794 30.5549C57.5018 27.9553 62.043 25.3854 66.5929 22.8226C69.953 20.9313 73.3311 19.062 76.7179 17.1996C81.9033 14.3522 86.7129 10.9108 91.6353 7.64756C93.466 6.43031 95.2693 5.17633 97.0828 3.94501C97.3349 3.7777 97.5853 3.59476 97.8569 3.46497C101.198 1.85979 101.365 2.26151 103.18 4.51141C106.041 8.06171 108.62 11.7825 110.769 15.7909C111.556 17.2516 112.538 17.9032 114.211 17.6333C116.304 17.2977 118.445 17.2097 120.503 16.7592C122.174 16.3947 123.074 17.3231 123.995 18.3124C124.872 19.251 124.577 20.2593 124.012 21.2395C122.733 23.4673 121.505 25.7294 120.133 27.8954C119.464 28.957 119.227 29.8254 119.807 31.0305C121.138 33.826 122.334 36.6825 123.552 39.5289C123.811 40.1424 124.014 40.8247 124.072 41.482C124.22 43.0382 123.692 44.2435 122.223 45.0456C120.364 46.0605 118.602 47.2472 116.761 48.2839C115.114 49.2065 113.417 50.0235 111.733 50.8867C111.056 51.2307 110.312 51.463 109.708 51.9023C105.095 55.253 99.7887 57.3705 94.889 60.2288C90.4448 62.8206 85.9036 65.2326 81.4406 67.7946C75.4593 71.219 69.5327 74.7169 63.5521 78.1491C61.0552 79.583 58.5083 80.9113 55.9818 82.285C51.5963 84.6735 47.1732 87.0027 42.8191 89.467C38.5174 91.9024 33.9785 93.7852 29.355 95.4555C28.1723 95.8817 26.8307 95.9843 25.5517 96.0017C22.0631 96.0586 20.1781 93.421 21.2447 90.1014C21.3832 89.6691 21.5147 89.2455 21.7142 88.6335C21.1428 88.5328 20.6654 88.4226 20.1855 88.368C19.2103 88.2603 18.1833 88.3472 17.262 88.0684C14.3439 87.1919 13.6245 85.2193 14.7592 81.9481C15.0331 81.1313 15.6091 80.4106 16.1546 79.464ZM63.6192 76.2162C65.4734 74.6808 67.8505 74.1036 69.437 72.2635C69.6068 72.0649 69.9395 71.9922 70.2056 71.8866C70.8365 71.6341 71.5072 71.4643 72.0911 71.1375C75.5186 69.208 78.8975 67.1885 82.3437 65.2887C87.7749 62.2903 93.2366 59.36 98.6865 56.3913C101.408 54.9113 104.224 53.5876 106.805 51.8849C108.844 50.5441 110.961 49.4167 113.122 48.34C114.748 47.53 116.328 46.6458 117.896 45.731C118.442 45.416 118.89 44.9211 119.555 44.3731C117.498 43.6474 116.348 45.9806 114.383 45.3799C114.912 44.5138 115.347 43.7994 115.883 42.9169C113.853 42.7726 112.694 44.941 110.497 44.316C111.376 43.3835 112.062 42.6596 112.756 41.9271C112.115 41.7623 111.651 41.864 111.237 42.0712C110.221 42.5833 109.253 43.1853 108.216 43.6443C107.936 43.767 107.492 43.5193 106.7 43.3459C107.781 42.2984 108.567 41.5409 109.359 40.7748C108.753 40.7171 108.296 40.8891 107.877 41.1284C107.16 41.5474 106.492 42.0642 105.754 42.4301C105.498 42.5583 105.083 42.3552 104.746 42.3099C104.799 41.973 104.731 41.5299 104.922 41.3055C105.495 40.6325 106.171 40.036 106.825 39.3864C105.528 38.5925 105.457 38.5206 104.803 39.1702C103.898 40.0739 103.116 41.1073 102.255 42.0618C100.888 43.572 99.6203 45.1987 98.0855 46.5285C96.3612 48.0193 94.3121 49.0295 91.9349 49.212C91.2054 49.2692 90.4548 49.51 89.7739 49.815C84.1141 52.3467 78.3651 54.6979 72.9778 57.8182C68.4648 60.4326 63.8664 62.9056 59.3455 65.5208C56.8573 66.9617 54.4364 68.5222 52.0234 70.0819C49.2988 71.8464 46.5563 73.589 43.9233 75.4786C40.679 77.8161 37.8372 80.6975 34.2829 82.624C32.4905 83.5927 30.7467 84.6513 28.9621 85.6192C28.0323 86.1227 27.0155 86.4691 26.0857 86.9726C24.1195 88.0219 23.1639 89.7673 22.8964 91.9097C22.7282 93.2291 23.1384 93.8512 24.3047 94.445C25.572 95.0997 26.8604 94.8604 28.065 94.4162C32.463 92.7843 36.8376 91.0757 40.946 88.7623C45.6226 86.1236 50.3446 83.5436 55.0408 80.9424C57.4155 79.6313 59.791 78.3279 62.1955 76.998C62.1211 76.2555 62.0639 75.685 61.9738 74.7862C62.5977 75.3316 62.9703 75.6575 63.6192 76.2162ZM97.5456 6.43274C94.9846 8.09407 92.6851 9.524 90.4505 11.05C88.8217 12.1524 87.3424 13.4845 85.6839 14.5266C83.7052 15.7666 81.5778 16.7846 79.5428 17.9354C73.6264 21.2981 67.728 24.6826 61.8123 28.053C61.0273 28.5026 60.1945 28.8701 59.4008 29.3126C55.9546 31.2125 52.499 33.0975 49.0895 35.0489C45.9337 36.8487 42.9148 38.911 39.6682 40.5146C33.477 43.5811 27.6624 47.2493 21.98 51.1333C17.784 53.9923 13.7899 57.1311 10.1802 60.7129C9.2379 61.644 8.45682 62.8431 7.9223 64.057C7.14909 65.8079 8.01331 67.095 9.90205 67.1666C10.7114 67.1962 11.563 67.0163 12.3348 66.7496C16.3446 65.346 20.1626 63.5273 23.7027 61.1444C26.4578 59.29 29.2395 57.4645 32.04 55.6687C34.9665 53.7893 37.9666 52.013 40.8751 50.1116C44.2367 47.9203 47.5162 45.6187 50.8677 43.4046C54.0188 41.3212 57.206 39.2814 60.3837 37.2269C63.6202 35.127 66.837 32.9895 70.1197 30.956C73.6559 28.7709 77.2665 26.6967 80.8497 24.5858C81.2974 24.32 81.8077 24.1268 82.3165 23.997C84.5817 23.4073 86.8578 22.8481 89.1332 22.281C91.0383 21.8063 92.9528 21.3464 94.8666 20.8786C95.4763 20.7308 96.0156 20.5111 95.9028 19.5435C95.2986 19.6671 94.7139 19.7493 94.1613 19.9151C93.4404 20.1372 92.7469 20.4749 92.0143 20.6587C91.6746 20.7401 91.2769 20.5588 90.3533 20.4144C91.4804 19.6701 92.1269 19.1791 92.8227 18.7859C93.8105 18.2292 94.846 17.7546 95.8439 17.2206C96.5719 16.832 96.6892 16.2677 96.3033 15.4932C94.4788 16.0625 93.0026 17.4259 90.6177 17.3723C91.164 16.7493 91.412 16.3061 91.7909 16.063C93.1864 15.1577 94.6297 14.3344 96.0441 13.4588C96.6765 13.0639 97.0302 12.5707 96.494 11.8744C94.916 12.0638 93.9432 13.5584 92.2447 13.5704C92.3409 13.1897 92.3206 12.9076 92.4513 12.7919C93.6433 11.749 94.7797 10.6249 96.0821 9.7368C97.1239 9.00896 97.6584 8.18975 97.5456 6.43274ZM81.3735 27.0516C80.6894 27.3253 80.1266 27.4684 79.6484 27.7452C75.5526 30.1837 71.4285 32.5776 67.3984 35.1201C61.6354 38.7515 55.9374 42.4792 50.2386 46.199C43.5826 50.5434 36.9641 54.9473 30.2987 59.2769C27.2039 61.2916 23.9682 63.0835 21.2281 65.639C19.4138 67.3362 17.2457 68.6582 15.3884 70.3202C13.9882 71.5733 12.7594 73.0383 11.5698 74.4993C10.9014 75.324 10.3888 76.362 11.127 77.417C11.902 78.5236 13.0761 78.4062 14.2259 78.2044C14.5131 78.1519 14.7996 78.0128 15.0712 77.883C16.6992 77.0886 18.411 76.42 19.9341 75.4467C24.0722 72.7987 28.0804 69.9585 32.2271 67.3176C38.0308 63.6189 43.9355 60.0601 49.7494 56.384C54.0988 53.636 58.806 51.5389 63.1249 48.7229C66.9241 46.243 70.9026 44.0531 74.8223 41.7506C76.4496 40.7906 78.1245 39.9125 79.7518 38.9525C82.7362 37.1777 85.7089 35.3647 88.6831 33.5673C88.9813 33.3875 89.2521 33.171 89.5323 32.9693C88.9781 32.6458 88.4795 32.5615 88.0765 32.7202C87.0292 33.1565 86.0516 33.7358 85.0043 34.1721C84.6858 34.3066 84.2427 34.1457 83.7089 34.1044C84.252 32.5028 85.7493 32.1399 86.6095 31.1776C85.9754 30.3726 85.3485 30.6643 84.7153 30.9723C83.902 31.3773 83.1107 31.8433 82.2654 32.1647C81.9531 32.2827 81.5218 32.0812 80.8236 31.9773C81.9554 30.9642 82.8187 30.191 83.682 29.4179C83.0526 29.1335 82.5407 29.0742 82.1235 29.2501C81.5013 29.5097 80.9722 29.9889 80.3507 30.2563C80.04 30.39 79.6173 30.2744 79.1735 30.2636C79.6391 28.9145 81.3126 28.7313 81.3735 27.0516ZM122.196 42.4038C121.998 41.4605 121.976 40.8469 121.75 40.3249C120.356 37.1409 118.97 33.9639 117.47 30.83C117.051 29.9562 116.953 29.295 117.6 28.5751C117.848 28.2897 118.146 28.031 118.344 27.7191C119.437 25.9994 120.662 24.3375 121.546 22.5123C122.646 20.2315 121.704 18.96 119.223 19.137C118.171 19.2107 117.129 19.4571 116.086 19.6167C114.738 19.8225 113.395 20.0595 112.043 20.2184C111.136 20.3249 110.456 20.085 110.213 19.0041C110.032 18.2171 109.586 17.4801 109.212 16.7439C107.273 12.9355 104.478 9.74163 101.861 6.41951C101.562 6.03892 101.174 5.71463 100.726 5.26997C100.445 5.77962 100.198 6.08058 100.099 6.42997C99.3085 9.35092 98.5174 12.2641 98.3564 15.3115C98.2516 17.264 97.9966 19.2157 97.7729 21.1642C97.6681 22.0904 97.1311 22.5704 96.1543 22.7629C94.077 23.1759 92.027 23.7046 89.9669 24.2106C87.7213 24.7589 85.478 25.3306 83.0328 25.9384C83.3694 26.3783 83.5009 26.6652 83.7146 26.8253C86.3902 28.8313 89.27 30.5088 92.3861 31.7049C93.5782 32.162 94.1411 32.8083 94.1638 33.9822C94.1764 34.6599 94.0865 35.3399 93.9957 36.012C93.592 39.0838 93.1485 42.1516 92.769 45.2288C92.6979 45.7806 92.867 46.3637 92.9492 47.1843C93.8446 46.8895 94.5624 46.7151 95.2285 46.4196C97.6063 45.3765 99.1826 43.4348 100.766 41.4844C101.765 40.2556 102.754 38.9963 103.866 37.8667C105.287 36.4298 106.042 36.386 107.921 37.2321C110.746 38.5127 113.557 39.826 116.413 41.0245C118.114 41.7542 119.869 42.455 122.196 42.4038ZM91.9418 35.4754C91.0612 35.6819 90.2135 36.1377 89.3839 36.6154C86.5568 38.2244 83.7375 39.8327 80.9104 41.4417C73.8896 45.4595 66.8594 49.4624 59.8487 53.5029C55.2676 56.1478 50.6872 58.8005 46.1452 61.5205C40.1787 65.0934 34.2428 68.7343 28.3052 72.3595C27.5304 72.8318 26.6733 73.2727 26.1247 73.9512C25.6331 74.5688 25.0806 74.9714 24.4317 75.36C22.0249 76.8243 19.889 78.6247 18.0309 80.7525C17.159 81.7554 16.6182 82.9068 16.4641 84.209C16.2475 85.9911 16.8807 86.5513 18.6872 86.2759C21.2569 85.8847 23.6763 85.098 25.9101 83.722C30.2212 81.0646 34.5699 78.4667 38.881 75.8093C44.1603 72.5577 49.42 69.2687 54.6726 65.9882C56.0197 65.1509 57.29 64.1791 58.666 63.3942C62.21 61.3661 65.7846 59.4061 69.3584 57.4382C70.347 56.8893 71.3919 56.4296 72.3898 55.8956C75.721 54.1099 79.0138 52.2569 82.3755 50.5392C84.5264 49.4399 86.7861 48.5587 88.9675 47.5274C89.4888 47.2858 90.2112 47.1582 90.4272 46.1578C89.7133 46.3713 89.2296 46.5933 88.7287 46.6434C88.4469 46.6716 88.144 46.4098 87.8802 46.302C88.4288 44.5973 90.8944 45.0611 91.14 43.0156C89.9926 43.2409 89.0008 43.4427 87.9849 43.6391C87.7993 42.4972 88.4849 42.2392 89.05 41.8827C89.8163 41.4034 90.6186 40.9679 91.3386 40.4223C91.611 40.2213 91.683 39.7563 91.9882 39.0942C90.0142 39.8285 88.6712 41.1785 86.4357 41.1179C86.8724 40.5848 87.0461 40.2674 87.3107 40.0673C88.7594 38.983 90.2246 37.9049 91.7094 36.8644C92.2291 36.5282 92.5218 36.2147 91.9418 35.4754Z" fill="black"/>
<path d="M63.6066 76.2151C62.9577 75.6563 62.585 75.3305 61.9612 74.785C62.0512 75.6839 62.1076 76.2466 62.1828 76.997C59.7776 78.3191 57.395 79.631 55.0281 80.9414C50.324 83.5434 45.609 86.115 40.9331 88.7615C36.8254 91.0828 32.4579 92.7828 28.052 94.4156C26.8474 94.8597 25.5668 95.0983 24.2917 94.4443C23.1246 93.8427 22.7152 93.2284 22.8833 91.909C23.1509 89.7666 24.1065 88.0211 26.0727 86.9718C27.0033 86.4761 28.0193 86.1218 28.9491 85.6183C30.7415 84.6496 32.4854 83.591 34.27 82.6231C37.8243 80.6966 40.6654 77.8072 43.9105 75.4775C46.5427 73.58 49.2853 71.8373 52.0106 70.0806C54.4237 68.5209 56.8446 66.9603 59.3328 65.5194C63.8545 62.912 68.4443 60.4319 72.9653 57.8166C78.3526 54.6963 84.0939 52.3458 89.7615 49.8132C90.4346 49.509 91.1853 49.2681 91.9226 49.2102C94.2998 49.0277 96.3419 48.0261 98.0732 46.5266C99.608 45.1968 100.876 43.5701 102.243 42.0598C103.103 41.1053 103.885 40.0718 104.791 39.1681C105.445 38.5185 105.508 38.5912 106.813 39.3843C106.158 40.0339 105.483 40.6304 104.91 41.3035C104.719 41.5278 104.786 41.9632 104.734 42.3079C105.071 42.361 105.486 42.5563 105.742 42.4281C106.48 42.0622 107.148 41.5454 107.865 41.1263C108.284 40.8871 108.741 40.7151 109.347 40.7728C108.562 41.5303 107.776 42.2957 106.688 43.344C107.48 43.5174 107.924 43.7651 108.204 43.6423C109.241 43.1833 110.208 42.5735 111.224 42.0692C111.639 41.862 112.11 41.7517 112.744 41.9251C112.058 42.6568 111.365 43.3893 110.485 44.3141C112.683 44.9468 113.841 42.7785 115.871 42.9149C115.335 43.7974 114.9 44.5119 114.371 45.378C116.328 45.9795 117.479 43.654 119.543 44.3712C118.886 44.9184 118.437 45.4055 117.884 45.7291C116.315 46.6361 114.728 47.529 113.11 48.3382C110.941 49.4156 108.824 50.5431 106.792 51.8831C104.219 53.5773 101.396 54.9097 98.6742 56.3897C93.2235 59.3506 87.7625 62.2889 82.3313 65.2873C78.885 67.1872 75.5061 69.2067 72.0786 71.1363C71.4947 71.4631 70.8239 71.6328 70.193 71.8854C69.9269 71.991 69.5942 72.0637 69.4244 72.2623C67.8379 74.1025 65.4616 74.6875 63.6066 76.2151ZM63.0976 73.503C64.1434 73.7615 64.8369 73.7395 65.0067 72.7515C65.045 72.503 64.6849 71.9864 64.4344 71.9325C63.3347 71.6872 63.3261 72.5486 63.0976 73.503ZM60.0254 74.4024C59.6677 74.7776 59.3836 74.9402 59.3273 75.1669C59.1966 75.6773 59.8189 76.444 60.323 76.3462C60.579 76.2969 60.9781 75.7833 60.9233 75.6309C60.7714 75.2198 60.3988 74.8939 60.0254 74.4024ZM33.483 89.1278C33.1715 89.5695 32.7669 89.9494 32.835 90.0768C33.0088 90.391 33.3634 90.695 33.7054 90.7949C33.8518 90.8356 34.3825 90.293 34.3269 90.1328C34.2298 89.7952 33.8564 89.5404 33.483 89.1278ZM55.9483 77.1074C55.7785 77.5428 55.5367 77.8907 55.6189 78.0009C55.8639 78.3158 56.2255 78.5323 56.5433 78.7847C56.7053 78.508 57.0622 78.1249 56.9769 77.9835C56.8023 77.6615 56.4117 77.4716 55.9483 77.1074ZM29.3597 90.8191C29.2063 91.4187 29.0451 91.7032 29.0936 91.951C29.1382 92.1596 29.42 92.4472 29.611 92.4597C29.7934 92.4651 30.1292 92.1868 30.1495 91.9953C30.1777 91.803 29.9021 91.578 29.3597 90.8191Z" fill="#A79CEE"/>
<path d="M97.5596 6.43394C97.6725 8.19097 97.1379 9.01019 96.0946 9.72241C94.8008 10.6176 93.6557 11.7347 92.4637 12.7776C92.333 12.8933 92.3534 13.1754 92.2571 13.5561C93.9557 13.5441 94.9285 12.0495 96.5065 11.86C97.0427 12.5564 96.6889 13.0496 96.0565 13.4444C94.6422 14.3201 93.1996 15.1512 91.8033 16.0487C91.4245 16.2918 91.1842 16.7343 90.6301 17.3581C93.0221 17.403 94.4983 16.0396 96.3157 15.4789C96.7017 16.2534 96.5843 16.8178 95.8564 17.2063C94.8506 17.7411 93.8229 18.215 92.8351 18.7716C92.1315 19.1657 91.4842 19.6488 90.3657 20.4001C91.2823 20.5532 91.687 20.7259 92.0267 20.6445C92.7601 20.4685 93.445 20.1237 94.1737 19.9008C94.7263 19.735 95.3032 19.6537 95.9153 19.5293C96.0281 20.4969 95.4888 20.7166 94.879 20.8644C92.9653 21.3322 91.0593 21.7991 89.1456 22.2668C86.8702 22.8339 84.594 23.3931 82.3288 23.9828C81.8201 24.1127 81.3098 24.3058 80.862 24.5716C77.2702 26.6755 73.6682 28.7568 70.132 30.942C66.8485 32.9677 63.6402 35.1122 60.3959 37.2129C57.2182 39.2675 54.0388 41.3065 50.8799 43.3908C47.5362 45.6041 44.2489 47.9065 40.8872 50.0979C37.9708 52 34.9785 53.7756 32.052 55.6551C29.2515 57.4509 26.469 59.2686 23.7147 61.1309C20.1746 63.5138 16.3565 65.3325 12.3466 66.7361C11.5749 67.0028 10.7233 67.1827 9.91391 67.1531C8.03377 67.0886 7.16171 65.8022 7.93414 64.0435C8.46867 62.8295 9.24975 61.6304 10.1921 60.6994C13.794 57.1182 17.7967 53.9864 21.992 51.1195C27.6743 47.2355 33.4898 43.5751 39.6803 40.5007C42.9262 38.8893 45.945 36.8269 49.1017 35.0349C52.5197 33.0905 55.9754 31.2054 59.413 29.2985C60.2075 28.8638 61.0395 28.4885 61.8246 28.0389C67.7402 24.6684 73.6387 21.2839 79.5552 17.9212C81.5894 16.7625 83.7098 15.7531 85.6963 14.5123C87.3627 13.4694 88.8427 12.1451 90.4629 11.0357C92.6991 9.52524 94.9987 8.09529 97.5596 6.43394ZM13.4115 60.7168C13.2965 60.9099 12.9928 61.1929 12.967 61.4875C12.9271 62.0362 13.6942 62.5121 14.282 62.3033C14.5114 62.2251 14.772 61.907 14.8033 61.667C14.8698 61.1472 14.1261 60.59 13.4115 60.7168ZM42.7045 47.5636C42.1495 47.0744 41.8598 46.6297 41.5225 46.5767C40.9284 46.4861 40.5237 46.945 40.5833 47.539C40.6091 47.7969 41.0256 48.2447 41.2205 48.2173C41.6424 48.1672 42.0478 47.874 42.7045 47.5636ZM37.188 50.8153C36.6541 50.5371 36.2995 50.2331 35.9254 50.2074C35.7501 50.1933 35.3212 50.8836 35.3846 50.9641C35.621 51.272 35.9905 51.5666 36.363 51.6556C36.5321 51.6861 36.817 51.2155 37.188 50.8153ZM87.7292 17.1272C87.1484 16.7748 86.7813 16.5037 86.3696 16.3396C86.2952 16.3076 85.9086 16.7094 85.8984 16.9235C85.8585 17.5512 86.2405 17.8919 86.8636 17.798C87.089 17.7596 87.2753 17.4884 87.7292 17.1272ZM32.2421 53.844C31.7842 53.4557 31.511 53.0962 31.1681 52.9884C31.0053 52.9415 30.6922 53.3675 30.4449 53.5817C30.7197 53.8779 30.9404 54.2663 31.2809 54.4296C31.4312 54.5093 31.8046 54.1325 32.2421 53.844ZM32.8625 49.6217C32.8813 49.8093 32.9001 49.9969 32.9267 50.1837C33.3001 50.1226 33.6648 50.0546 34.0288 49.9787C34.0366 49.9779 34.0022 49.634 33.9701 49.6293C33.6045 49.6106 33.2335 49.6162 32.8625 49.6217Z" fill="#FB3E2D"/>
<path d="M81.3744 27.0519C81.3134 28.7316 79.64 28.9148 79.1829 30.2709C79.626 30.274 80.0494 30.3974 80.3602 30.2637C80.9817 29.9963 81.5108 29.5171 82.133 29.2575C82.5502 29.0815 83.0699 29.1401 83.6915 29.4253C82.8282 30.1984 81.9727 30.9708 80.8331 31.9847C81.5313 32.0886 81.9634 32.298 82.2749 32.1721C83.1202 31.8507 83.9115 31.3847 84.7248 30.9797C85.3494 30.6646 85.9771 30.3808 86.619 31.1849C85.7667 32.1465 84.2615 32.5102 83.7184 34.1118C84.2436 34.1461 84.6875 34.3148 85.0138 34.1796C86.0611 33.7432 87.0387 33.1639 88.086 32.7276C88.4883 32.561 88.9869 32.6454 89.5419 32.9767C89.2617 33.1784 88.983 33.3957 88.6927 33.5748C85.7192 35.38 82.7535 37.1844 79.7612 38.96C78.1348 39.9279 76.4598 40.8059 74.8318 41.7582C70.9198 44.0599 66.9335 46.2507 63.1343 48.7306C58.8153 51.5467 54.1081 53.6437 49.7586 56.3918C43.9369 60.0687 38.04 63.6268 32.2363 67.3256C28.0973 69.9658 24.0821 72.8146 19.9432 75.4548C18.4279 76.4274 16.7075 77.0889 15.0802 77.8911C14.8086 78.0209 14.53 78.1593 14.2349 78.2125C13.085 78.4144 11.9102 78.524 11.136 77.4252C10.3891 76.3631 10.9018 75.3251 11.5788 74.5074C12.7684 73.0463 13.9972 71.5814 15.3974 70.3282C17.2555 68.674 19.415 67.345 21.2371 65.647C23.9773 63.0914 27.2052 61.3002 30.3078 59.2847C36.9733 54.955 43.5918 50.5511 50.2479 46.2066C55.9467 42.4867 61.6526 38.7583 67.4078 35.1275C71.4379 32.585 75.562 30.1911 79.6579 27.7525C80.1267 27.4609 80.6903 27.3256 81.3744 27.0519ZM75.8249 39.6774C75.3756 39.375 75.1165 39.0772 74.8104 39.021C74.3353 38.9343 73.7491 39.6324 73.9581 40.0615C74.0787 40.3178 74.5695 40.6398 74.7839 40.5709C75.1299 40.4732 75.3905 40.0761 75.8249 39.6774ZM70.576 41.655C70.27 42.4671 70.5346 42.8985 71.2868 42.9891C71.423 43.007 71.7118 42.7334 71.7204 42.5825C71.7603 41.9549 71.455 41.5907 70.576 41.655Z" fill="#A79CEE"/>
<path d="M122.209 42.4031C119.881 42.4465 118.12 41.7543 116.403 41.0261C113.547 39.8199 110.735 38.5065 107.912 37.2338C106.032 36.3877 105.278 36.4316 103.857 37.8683C102.744 38.9979 101.755 40.2494 100.756 41.486C99.1724 43.4285 97.5969 45.378 95.2191 46.4211C94.553 46.7166 93.8353 46.891 92.9399 47.1858C92.8576 46.3652 92.6963 45.7814 92.7597 45.2304C93.1391 42.1532 93.5827 39.0854 93.9863 36.0138C94.0771 35.3416 94.167 34.6616 94.1545 33.984C94.1239 32.8108 93.5689 32.1638 92.3767 31.7067C89.2685 30.5099 86.3817 28.8409 83.7054 26.8273C83.4831 26.66 83.3524 26.381 83.0236 25.9403C85.461 25.3334 87.7042 24.7616 89.9576 24.2126C92.0177 23.7066 94.0676 23.1779 96.1449 22.7648C97.1217 22.5724 97.6508 22.0932 97.7634 21.1662C97.9872 19.2177 98.2422 17.2661 98.3469 15.3137C98.5079 12.2663 99.3069 9.35239 100.089 6.43227C100.182 6.09149 100.436 5.78976 100.716 5.2723C101.165 5.72476 101.552 6.04124 101.851 6.42182C104.477 9.74309 107.271 12.9369 109.203 16.746C109.577 17.4822 110.03 18.2184 110.204 19.0062C110.454 20.0863 111.127 20.3269 112.033 20.2204C113.385 20.0616 114.729 19.8245 116.076 19.6187C117.119 19.4591 118.162 19.2127 119.214 19.1391C121.695 18.9698 122.636 20.2335 121.536 22.5143C120.652 24.3395 119.427 26.0013 118.335 27.721C118.137 28.0329 117.846 28.2908 117.59 28.5769C116.951 29.2961 117.042 29.9659 117.46 30.8318C118.96 33.9579 120.346 37.1426 121.74 40.3265C121.991 40.854 122.012 41.4598 122.209 42.4031ZM119.199 38.2362C118.678 37.933 118.361 37.6095 118.009 37.5658C117.488 37.4995 116.853 37.7051 117.021 38.3593C117.11 38.6977 117.708 39.0563 118.125 39.1172C118.382 39.1547 118.719 38.6552 119.199 38.2362ZM117.161 21.61C116.79 22.0102 116.519 22.3057 116.24 22.602C116.542 22.8481 116.874 23.3202 117.139 23.2857C117.444 23.2474 117.777 22.7877 117.901 22.4438C117.957 22.2961 117.497 21.971 117.161 21.61ZM98.5332 26.1651C98.1208 26.7037 97.785 27.0609 97.5893 27.4752C97.5494 27.5502 98.0512 28.0605 98.3048 28.0667C98.8511 28.0752 99.3677 27.7867 99.2698 27.1255C99.2346 26.8528 98.8949 26.6183 98.5332 26.1651ZM94.9689 38.8757C95.8401 39.4438 96.3598 39.1866 96.6329 38.4409C96.7017 38.2603 96.4959 37.7836 96.3166 37.7305C95.4587 37.4532 95.195 38.0558 94.9689 38.8757ZM108.213 16.7345C107.741 16.4422 107.34 16.064 107.205 16.1406C106.883 16.3228 106.621 16.7043 106.499 17.0638C106.462 17.1701 107.043 17.6804 107.211 17.6241C107.54 17.5123 107.787 17.1402 108.213 16.7345ZM106.693 14.0289C106.071 13.8148 105.655 13.5328 105.492 13.6438C105.174 13.8572 104.922 14.2613 104.817 14.6349C104.782 14.7569 105.432 15.2523 105.529 15.1952C105.893 14.9615 106.178 14.5698 106.693 14.0289ZM94.2482 42.2554C94.8564 42.7235 95.366 42.6015 95.668 41.9082C95.751 41.7104 95.5968 41.1969 95.4496 41.1485C94.7404 40.9352 94.3358 41.3152 94.2083 42.0147C94.1918 42.0874 94.231 42.1624 94.2482 42.2554ZM96.2211 27.2331C95.6834 27.0738 95.2623 26.8159 95.0995 26.9269C94.8028 27.1224 94.6557 27.5476 94.4515 27.8759C94.7426 28.0204 95.1152 28.3463 95.3125 28.2634C95.6224 28.1219 95.8189 27.7154 96.2211 27.2331ZM114.903 38.3659C115.179 37.9672 115.462 37.7101 115.519 37.4123C115.55 37.2513 115.179 37.02 114.985 36.8184C114.721 37.1052 114.433 37.3788 114.22 37.7001C114.185 37.7431 114.572 38.0596 114.903 38.3659ZM103.396 12.1326C103.712 11.6589 103.976 11.372 104.092 11.0288C104.129 10.9304 103.614 10.5162 103.585 10.5428C103.276 10.7789 102.988 11.0603 102.783 11.3808C102.742 11.448 103.089 11.7528 103.396 12.1326Z" fill="white"/>
<path d="M91.9356 35.475C92.5157 36.2143 92.223 36.5277 91.7134 36.8866C90.2286 37.9271 88.7713 39.0045 87.3147 40.0896C87.0501 40.2897 86.8764 40.6071 86.4396 41.1402C88.683 41.2 90.026 39.8499 91.9922 39.1165C91.6792 39.7793 91.6064 40.2366 91.3427 40.4445C90.6226 40.9902 89.8203 41.4257 89.054 41.905C88.4881 42.2536 87.8033 42.5195 87.9889 43.6614C89.0041 43.4572 89.9887 43.264 91.144 43.0379C90.8976 45.0756 88.4327 44.6196 87.8842 46.3244C88.1487 46.44 88.4509 46.694 88.7327 46.6658C89.2336 46.6157 89.7173 46.3936 90.4312 46.1801C90.2231 47.1798 89.4928 47.3081 88.9715 47.5497C86.7814 48.574 84.5304 49.4623 82.3795 50.5616C79.0177 52.2794 75.7249 54.1323 72.3937 55.9181C71.3958 56.4521 70.3594 56.9189 69.3623 57.4607C65.7884 59.4286 62.2146 61.3966 58.6697 63.4168C57.2937 64.2018 56.0234 65.1736 54.6764 66.0109C49.4166 69.3 44.1561 72.5813 38.8846 75.8321C34.5735 78.4895 30.2248 81.0876 25.9136 83.745C23.6798 85.121 21.2604 85.9077 18.6907 86.2989C16.8842 86.5744 16.2509 86.0141 16.4676 84.232C16.6217 82.9298 17.1625 81.7784 18.0344 80.7754C19.8925 78.6476 22.0284 76.8472 24.4352 75.3828C25.0833 74.9864 25.6281 74.5846 26.1282 73.9741C26.6768 73.2955 27.5331 72.8467 28.3088 72.3823C34.2464 68.757 40.1832 65.1239 46.1489 61.5431C50.691 58.8231 55.2714 56.1703 59.8525 53.5254C66.8632 49.4848 73.8935 45.4818 80.9143 41.4639C83.7328 39.8479 86.56 38.2389 89.3879 36.6376C90.2074 36.1373 91.0543 35.6736 91.9356 35.475ZM34.4587 71.8224C34.9142 71.2401 35.3635 70.9109 35.4637 70.4904C35.6037 69.9159 35.1959 69.4752 34.5713 69.4745C33.8832 69.4723 33.6993 70.0827 33.7095 70.579C33.7104 70.9026 34.0837 71.2363 34.4587 71.8224ZM30.8628 72.0716C30.5341 72.5781 30.1522 73.0269 30.2156 73.1073C30.5123 73.4645 30.9131 73.756 31.3311 73.9826C31.3898 74.0162 31.9462 73.4158 31.8954 73.3025C31.6809 72.8976 31.309 72.5796 30.8628 72.0716ZM27.109 75.0838C26.8116 75.5872 26.4657 75.9218 26.5197 76.1453C26.5855 76.4071 26.9902 76.6587 27.2994 76.7462C27.4457 76.7868 27.9005 76.3545 27.8684 76.2709C27.729 75.9059 27.4613 75.6011 27.109 75.0838Z" fill="white"/>
<path d="M63.0999 73.5026C63.3284 72.5482 63.3369 71.6869 64.4367 71.9322C64.6872 71.9861 65.0472 72.5026 65.0089 72.7512C64.8391 73.7391 64.1456 73.7611 63.0999 73.5026Z" fill="black"/>
<path d="M60.0348 74.4025C60.415 74.8855 60.7804 75.2199 60.9322 75.631C60.9878 75.7912 60.5881 76.2969 60.3323 76.3461C59.8286 76.4439 59.1987 75.6781 59.3371 75.1669C59.3942 74.9481 59.6774 74.7777 60.0348 74.4025Z" fill="black"/>
<path d="M33.4939 89.1282C33.8757 89.5478 34.2403 89.7955 34.3365 90.1253C34.3843 90.2863 33.8618 90.828 33.7155 90.7873C33.3737 90.6874 33.0201 90.3912 32.8456 90.0692C32.7783 89.9497 33.1741 89.5628 33.4939 89.1282Z" fill="black"/>
<path d="M55.9595 77.1069C56.4226 77.4711 56.813 77.6609 56.9945 77.9743C57.072 78.1165 56.7153 78.4995 56.5612 78.7754C56.2436 78.523 55.8744 78.3074 55.6373 77.9917C55.5481 77.8901 55.7898 77.5423 55.9595 77.1069Z" fill="black"/>
<path d="M29.3654 90.8193C29.9 91.5867 30.183 91.811 30.1541 91.9955C30.1331 92.1791 29.7987 92.4652 29.6166 92.4597C29.4267 92.455 29.1445 92.1596 29.0999 91.9509C29.0514 91.7032 29.2123 91.4187 29.3654 90.8193Z" fill="black"/>
<path d="M13.3963 60.7167C14.1117 60.5978 14.8546 61.1471 14.7889 61.6747C14.7576 61.9146 14.4962 62.225 14.2676 62.311C13.6798 62.5198 12.9119 62.0361 12.9526 61.4952C12.9768 61.1849 13.2813 60.9098 13.3963 60.7167Z" fill="black"/>
<path d="M42.6948 47.5634C42.0381 47.8738 41.6327 48.167 41.203 48.2179C41.0081 48.2453 40.5916 47.7975 40.5658 47.5396C40.5141 46.9448 40.9187 46.4859 41.505 46.5773C41.8502 46.6296 42.132 47.075 42.6948 47.5634Z" fill="black"/>
<path d="M37.1821 50.8148C36.8033 51.2158 36.5271 51.6934 36.3572 51.6552C35.9854 51.5739 35.6159 51.2793 35.3787 50.9636C35.3153 50.8831 35.7442 50.1929 35.9195 50.207C36.2937 50.2327 36.6475 50.5288 37.1821 50.8148Z" fill="black"/>
<path d="M87.7192 17.127C87.2731 17.4874 87.079 17.7594 86.8528 17.79C86.2305 17.8917 85.8477 17.5432 85.8876 16.9155C85.8978 16.7014 86.2844 16.2996 86.3588 16.3316C86.7713 16.5035 87.1384 16.7746 87.7192 17.127Z" fill="black"/>
<path d="M32.2169 53.8436C31.7707 54.125 31.4052 54.501 31.2557 54.4292C30.923 54.2651 30.6945 53.8774 30.4197 53.5813C30.667 53.3671 30.9793 52.9332 31.1429 52.9879C31.4944 53.1028 31.7597 53.463 32.2169 53.8436Z" fill="black"/>
<path d="M32.8516 49.6212C33.2223 49.6156 33.5923 49.6023 33.9583 49.6287C33.9825 49.6342 34.0248 49.9768 34.017 49.9776C33.654 50.0612 33.281 50.1222 32.9157 50.1824C32.8969 49.995 32.8782 49.8077 32.8516 49.6212Z" fill="black"/>
<path d="M75.8231 39.6771C75.3887 40.0758 75.1281 40.4729 74.7743 40.5714C74.5591 40.6324 74.0691 40.3183 73.9485 40.062C73.7473 39.6321 74.3335 38.9341 74.8008 39.0215C75.1155 39.0848 75.3738 39.3747 75.8231 39.6771Z" fill="black"/>
<path d="M70.5686 41.6539C71.4471 41.5897 71.7522 41.9538 71.7124 42.5814C71.7038 42.7322 71.4074 43.0066 71.2791 42.9878C70.5273 42.8973 70.2629 42.4659 70.5686 41.6539Z" fill="black"/>
<path d="M119.187 38.2343C118.706 38.6455 118.37 39.1528 118.113 39.1154C117.703 39.0537 117.099 38.7036 117.009 38.3574C116.841 37.7032 117.476 37.4976 117.997 37.5639C118.35 37.6154 118.666 37.9311 119.187 38.2343Z" fill="black"/>
<path d="M117.146 21.6094C117.482 21.9704 117.941 22.2955 117.892 22.4346C117.769 22.7785 117.435 23.238 117.131 23.2764C116.866 23.3108 116.535 22.8466 116.233 22.5927C116.504 22.305 116.775 22.0096 117.146 21.6094Z" fill="black"/>
<path d="M98.5165 26.1657C98.8779 26.6189 99.2174 26.8533 99.2605 27.1253C99.3505 27.7872 98.8421 28.0749 98.2961 28.0664C98.0427 28.0601 97.5412 27.5499 97.5811 27.4748C97.7766 27.0606 98.1043 26.7042 98.5165 26.1657Z" fill="black"/>
<path d="M94.9468 38.8762C95.1728 38.0564 95.4363 37.4538 96.3023 37.7382C96.4736 37.7921 96.6872 38.268 96.6184 38.4486C96.3361 39.1793 95.8175 39.4443 94.9468 38.8762Z" fill="black"/>
<path d="M108.208 16.734C107.782 17.1319 107.535 17.5118 107.199 17.6244C107.031 17.6807 106.45 17.1704 106.486 17.0641C106.609 16.7046 106.872 16.3309 107.192 16.1409C107.328 16.0721 107.737 16.4496 108.208 16.734Z" fill="black"/>
<path d="M106.687 14.0289C106.173 14.5698 105.895 14.9529 105.515 15.1882C105.418 15.2453 104.768 14.7498 104.803 14.6279C104.908 14.2543 105.16 13.8502 105.478 13.6367C105.642 13.5335 106.065 13.8148 106.687 14.0289Z" fill="black"/>
<path d="M94.2291 42.255C94.2119 42.162 94.1728 42.087 94.1814 42.0151C94.3088 41.3156 94.7139 40.9436 95.4219 41.149C95.5682 41.1897 95.7231 41.7109 95.6402 41.9086C95.3462 42.6011 94.837 42.7231 94.2291 42.255Z" fill="black"/>
<path d="M96.2147 27.2336C95.8124 27.7159 95.616 28.1224 95.2982 28.2647C95.1088 28.3468 94.7362 28.0209 94.4372 27.8771C94.6493 27.5481 94.7893 27.1314 95.0852 26.9282C95.2558 26.8164 95.6691 27.075 96.2147 27.2336Z" fill="black"/>
<path d="M114.886 38.3644C114.554 38.0502 114.168 37.7416 114.195 37.6994C114.408 37.3781 114.696 37.1046 114.96 36.8177C115.154 37.0193 115.525 37.2506 115.494 37.4116C115.444 37.7086 115.162 37.9658 114.886 38.3644Z" fill="black"/>
<path d="M103.382 12.133C103.076 11.761 102.729 11.4563 102.777 11.3804C102.981 11.0522 103.27 10.7786 103.578 10.5426C103.607 10.516 104.122 10.9301 104.085 11.0286C103.96 11.3647 103.698 11.6593 103.382 12.133Z" fill="black"/>
<path d="M34.4667 71.8225C34.0996 71.2356 33.7192 70.9105 33.7168 70.5713C33.7066 70.0751 33.8991 69.4716 34.5785 69.4668C35.2031 69.4675 35.6109 69.9083 35.4708 70.4827C35.3707 70.9032 34.9222 71.2402 34.4667 71.8225Z" fill="black"/>
<path d="M30.8664 72.0716C31.3202 72.5788 31.684 72.8976 31.8983 73.3024C31.957 73.4149 31.3931 74.016 31.3344 73.9824C30.9175 73.7636 30.5169 73.4721 30.2196 73.1072C30.1484 73.0275 30.5379 72.5781 30.8664 72.0716Z" fill="black"/>
<path d="M27.1052 75.0833C27.4573 75.6006 27.7256 75.9132 27.8641 76.2703C27.8962 76.354 27.4339 76.787 27.2955 76.7456C26.9865 76.6581 26.5899 76.4057 26.5163 76.1447C26.4537 75.9141 26.808 75.5866 27.1052 75.0833Z" fill="black"/>
</svg>
