<svg width="154" height="134" viewBox="0 0 154 134" fill="none" xmlns="http://www.w3.org/2000/svg">
<path d="M78.6663 69.6294C77.7169 70.1681 77.6517 70.7661 77.7378 70.9977C78.313 71.2959 78.6673 71.2569 79.0235 71.2176L79.0237 71.2176C79.3086 71.1862 82.7551 69.1184 84.4426 68.0884L88.1227 67.1402L90.1219 67.2813L91.2906 68.057L90.7184 69.3861L90.7584 69.7434L91.0967 71.1529C91.8024 71.0148 93.2455 70.699 93.372 70.5404C93.4985 70.3818 97.7511 69.3946 99.8617 68.9209C101.376 66.885 104.434 62.738 104.544 62.4367C104.654 62.1354 111.83 59.3429 115.404 57.9844L126.106 53.7303C124.65 49.8517 121.689 41.9913 121.498 41.5783C121.308 41.1652 120.601 41.6169 120.272 41.8943C119.052 42.8124 116.551 44.7279 116.298 45.0451C116.045 45.3623 114.663 46.5515 114.004 47.1064L108.724 49.8586L106.568 51.543C105.784 52.0514 104.041 53.1237 103.345 53.3451C102.648 53.5666 101.394 54.7056 100.853 55.2474C100.412 55.5975 99.3189 56.3569 98.48 56.5941C97.4314 56.8905 96.1468 58.2981 95.8106 58.516C95.5416 58.6903 94.7887 59.0506 94.4458 59.2089L92.9831 60.6361L91.0261 62.4795L88.989 63.6083C88.5407 63.8988 87.4701 64.5353 86.7737 64.7567C85.9032 65.0335 83.4899 66.0229 83.3118 66.0425C83.1337 66.0622 81.6509 67.3107 81.4928 67.509C81.3664 67.6676 80.7811 68.13 80.5043 68.3413L79.6539 68.7968L78.6663 69.6294Z" fill="white"/>
<path d="M35.2551 81.2873C33.9744 82.7306 32.072 83.9892 31.281 84.438L36.1266 97.106L39.5064 93.4781C41.5807 90.5367 46.0572 84.0391 47.3682 81.5797C48.6792 79.1203 50.221 78.6128 50.828 78.6664C52.0227 79.1376 54.4834 80.072 54.7684 80.0406C55.0533 80.0092 56.8789 79.5669 57.7561 79.3496C60.1302 78.6539 64.3539 79.7678 66.169 80.4117L67.9901 80.5727C68.1682 80.5531 68.5716 80.2916 68.7605 79.4027C68.9493 78.5138 67.4649 77.4958 66.6991 77.0979C66.481 76.7603 65.989 75.9103 65.7665 75.2114C65.5439 74.5125 67.0332 75.2526 67.8057 75.71C69.2653 76.9357 72.327 79.3713 72.8969 79.3085C73.4668 79.2456 72.8821 78.1044 72.5185 77.5416C73.2183 77.8865 74.7167 78.493 75.1121 78.16C75.5075 77.8271 74.5363 76.7767 74.0013 76.2931C73.0827 75.0681 71.3523 72.6063 71.7798 72.5592C72.3141 72.5003 74.0572 73.5742 74.2553 73.7332C74.4534 73.8922 76.0564 73.7155 76.2345 73.6959C76.3769 73.6802 76.5966 73.1737 76.6887 72.9224C74.7475 71.6896 70.7898 69.196 70.4888 69.0845C70.1126 68.9451 63.977 68.8978 61.7797 68.5975C60.0218 68.3572 57.644 69.2342 56.6748 69.7027C55.7776 69.7413 53.5518 69.8298 51.826 69.8753C50.1002 69.9209 48.4294 70.6717 47.8097 71.0414C47.2821 71.1599 46.0211 71.4918 45.1982 71.8718C44.1697 72.3469 43.0431 73.5562 41.7785 75.1424C40.5138 76.7286 39.3672 77.7592 38.3387 78.2343C37.3101 78.7093 36.856 79.483 35.2551 81.2873Z" fill="white"/>
<path d="M90.4429 69.7677C91.0595 70.1221 91.6553 70.5426 92.3619 70.6925C92.3954 70.7911 92.4637 70.9856 92.4972 71.0842C92.133 71.6157 91.8384 72.2017 91.3889 72.6685C91.2356 72.6674 90.9372 73.1802 90.7831 73.177C91.128 72.8111 91.2263 71.799 91.2967 71.3161C91.0755 71.7086 92.2058 71.3926 90.7831 73.177C90.6504 73.1935 90.4469 73.3949 89.7144 73.2948C89.37 73.1351 89.2947 72.9707 88.942 72.8374L88.5085 72.097C89.2231 71.3811 89.8318 70.5714 90.4429 69.7677Z" fill="white"/>
<path d="M56.1318 69.3701C57.4607 68.9072 58.822 68.5458 60.1544 68.0978C60.9572 67.7896 61.8067 68.0097 62.6056 68.2006C62.8812 68.38 63.1543 68.565 63.4216 68.7592C63.1359 68.7093 62.8523 68.6586 62.5698 68.6051C62.1974 68.6724 61.8236 68.724 61.4478 68.7647C59.6662 68.74 57.9437 69.2994 56.2346 69.7257L56.1318 69.3701Z" fill="white"/>
<path d="M64.4531 80.2178C64.9952 80.2778 65.5362 80.3708 66.0704 80.4943C66.1201 80.6588 66.2176 80.9885 66.2681 81.1549C66.2337 81.5333 65.9759 81.819 65.7141 82.0644C65.4962 81.6628 65.1982 81.3177 64.8613 81.0155C64.7586 80.8158 64.5559 80.4175 64.4531 80.2178Z" fill="white"/>
<path d="M93.4215 72.5466C93.7028 71.4054 94.5109 70.4883 95.1501 69.5296C95.3754 70.1121 95.5799 70.7607 95.2512 71.3482C95.1314 72.0805 94.3855 72.29 93.8233 72.5911C94.2763 72.7623 94.7035 72.9924 95.1455 73.1888C95.1221 73.4396 95.1035 73.691 95.0877 73.9435C94.8995 74.5232 94.6774 75.0927 94.4265 75.6478C94.6692 75.7841 94.9167 75.9209 95.1654 76.0549C95.2841 76.4275 95.3975 76.8045 95.5108 77.1815C95.4205 77.4629 95.3301 77.7443 95.2474 78.0274C95.1335 77.9785 94.9056 77.8806 94.7897 77.8324C94.1676 76.1223 93.4908 74.3845 93.4215 72.5466Z" fill="white"/>
<path d="M90.6348 73.4391C90.9904 73.3643 91.3516 73.2502 91.7225 73.2928C91.8516 73.7822 91.8645 74.2888 91.8458 74.7913C91.8801 74.8919 91.9515 75.0945 91.9858 75.1951C91.83 75.3972 91.6926 75.6108 91.5855 75.8429C91.7459 75.8506 92.0677 75.868 92.2282 75.8757C92.9033 76.4771 93.3575 77.2501 93.5915 78.1245C93.4299 78.4195 93.256 78.7123 93.0278 78.961C92.6746 78.1257 92.1486 77.3945 91.5711 76.7041C90.8084 75.7924 90.8282 74.5501 90.6348 73.4391Z" fill="white"/>
<path d="M98.3164 74.0117C98.5938 73.9323 98.8747 73.8562 99.1609 73.7874C99.4648 73.7768 99.7697 73.7983 100.075 73.8151C100.227 74.2864 100.371 74.7587 100.514 75.2311C100.305 75.3745 100.101 75.5185 99.8985 75.6644C99.1534 75.3551 98.6455 74.7308 98.3164 74.0117Z" fill="white"/>
<path d="M121.167 41.2579C121.413 41.7694 121.314 41.2188 121.547 41.7377C121.165 40.9882 120.423 41.9801 119.976 42.2574C118.8 43.0612 117.743 43.6999 116.71 44.683C115.77 45.714 114.694 46.6257 113.539 47.4024C111.667 48.1381 109.88 49.0943 108.25 50.2739C106.868 51.2944 105.512 52.4118 103.894 53.0397C103.483 53.2152 103.11 53.4617 102.725 53.6826C101.775 54.2131 101.207 55.2138 100.285 55.7821C99.2047 56.2767 98.055 56.6702 97.0908 57.3873C96.2351 58.0136 95.5675 58.9229 94.5134 59.24C93.6776 59.8399 93.0352 60.6465 92.3213 61.376C91.7076 61.9273 91.1639 62.6119 90.3567 62.8846C89.6542 63.1285 89.0134 63.5019 88.4189 63.9411C87.7282 64.6408 86.6955 64.7379 85.8143 65.0648C84.2608 65.6658 82.5562 66.1996 81.5299 67.6126C80.9809 67.9901 80.4343 68.3735 79.8195 68.6346C79.177 69.3389 78.3646 69.8856 77.8163 70.672C77.8296 70.7901 77.8561 71.0263 77.8693 71.1444C79.1394 70.7927 80.2131 70.0053 81.1368 69.0877C82.1711 68.5876 83.253 68.0668 83.8504 67.0243C83.9478 67.0005 84.1458 66.9495 84.2424 66.9238C84.5293 67.0965 84.8186 67.2636 85.1087 67.4327C85.3945 67.3152 85.6803 67.1977 85.9653 67.0781C86.5785 66.5852 87.3504 66.347 88.1328 66.3397C88.6649 66.6314 89.2352 66.848 89.8067 67.0501C90.1343 66.9327 90.4646 66.8165 90.7993 66.7056C90.8251 66.2632 90.7359 65.835 90.452 65.4844C91.3152 65.9434 92.2984 65.97 93.2414 66.1261C93.4347 65.9071 93.5925 65.6624 93.7133 65.3878L93.7681 65.2899C93.7553 65.9994 93.3996 66.6368 92.9208 67.1359C92.3195 67.7731 91.8076 68.5338 91.0193 68.9573C90.9658 69.0524 90.8615 69.2439 90.8087 69.341C90.7806 69.3821 90.728 69.4676 90.7006 69.5107C90.6267 69.5532 90.4782 69.6363 90.4035 69.6768C90.5029 69.257 90.6543 68.852 90.7745 68.4381C90.5692 68.1827 90.3476 67.9453 90.1353 67.7019C89.6327 67.6242 89.1359 67.4956 88.6262 67.4834C88.0311 67.6578 87.4628 67.9311 86.8381 67.9751C85.1738 68.0981 83.7863 69.1161 82.3616 69.8765C81.0994 70.8413 79.4938 72.0204 77.8304 71.3851C77.7447 71.1996 77.6599 71.0162 77.575 70.8328C77.6828 70.6144 77.7878 70.3947 77.89 70.1738C78.7372 69.5555 79.3538 68.6404 80.3242 68.1906C81.6576 67.6074 82.3874 66.1765 83.7829 65.6879C85.0426 64.9681 86.5018 64.764 87.8015 64.1357C88.3405 63.7924 88.855 63.4097 89.4042 63.081C90.534 62.744 91.4735 62.0527 92.2379 61.1664C93.1309 60.349 93.9052 59.3683 94.9971 58.8017C95.9024 58.3214 96.5288 57.4675 97.3945 56.9327C98.2708 56.4915 99.1767 56.1085 100.064 55.6887C101.05 55.2395 101.574 54.2025 102.478 53.6364C103.313 53.1483 104.176 52.7076 105.062 52.3208C107.282 51.0481 109.169 49.2322 111.53 48.198C112.457 47.6281 113.556 47.368 114.389 46.646C116.114 45.2506 117.561 43.5217 119.425 42.2936C119.885 41.8647 120.372 41.4483 120.975 41.2269C120.927 40.8826 121.212 41.6031 121.167 41.2579Z" fill="black"/>
<path d="M73.0341 57.8276C73.8668 54.8862 74.6815 51.9393 75.5218 49C75.4719 51.1698 75.4102 53.3393 75.3594 55.5093C76.0701 55.1803 76.7905 54.8705 77.5079 54.5551C76.8696 57.5485 76.2445 60.5447 75.6024 63.537C75.5941 61.3266 75.6072 59.1155 75.6151 56.9054C74.7525 57.205 73.8959 57.5236 73.0341 57.8276Z" fill="#FB3E2D"/>
<path d="M77.8558 84.0249C78.1502 81.5756 78.4295 79.1243 78.7302 76.6757C78.9624 78.4113 79.1853 80.1482 79.4169 81.8841C79.9417 81.5323 80.4765 81.1946 81.0083 80.8527C80.8754 83.3189 80.7532 85.7857 80.617 88.2516C80.3332 86.4909 80.0664 84.727 79.7956 82.9646C79.1462 83.3121 78.504 83.6741 77.8558 84.0249Z" fill="#FB3E2D"/>
<path d="M81.5696 60.9685C82.9948 60.0014 84.4141 59.0253 85.8418 58.0618C85.0352 58.9806 84.2236 59.8949 83.4165 60.8134C83.8437 60.9299 84.2681 61.0582 84.6934 61.1829C83.3337 62.2433 81.9787 63.3096 80.6178 64.3681C81.4138 63.4106 82.2194 62.4606 83.0223 61.5092C82.5399 61.3248 82.0532 61.1508 81.5696 60.9685Z" fill="#FB3E2D"/>
<path d="M85.4567 78.9856C84.357 77.6529 83.2491 76.3269 82.1527 74.9914C83.1438 75.7111 84.1309 76.4362 85.1218 77.1564C85.1955 76.7192 85.2813 76.2836 85.3635 75.8475C86.5493 77.1062 87.7406 78.3595 88.9247 79.6196C87.8962 78.914 86.8743 78.1982 85.8512 77.4852C85.7153 77.9839 85.5903 78.4859 85.4567 78.9856Z" fill="#FB3E2D"/>
<path d="M69.5943 62.6069C67.5813 61.8126 65.5731 61.0057 63.558 60.2165C64.8005 61.1206 66.0478 62.0179 67.2907 62.9216C66.8002 63.1808 66.3164 63.4538 65.8306 63.7227C67.7893 64.649 69.7439 65.5839 71.7036 66.5077C70.4633 65.5533 69.2135 64.6107 67.9664 63.6656C68.5057 63.308 69.053 62.9621 69.5943 62.6069Z" fill="#FB3E2D"/>
<path d="M61.4475 68.7647C61.8232 68.724 62.197 68.6724 62.5694 68.6051C62.8519 68.6586 63.1356 68.7092 63.4213 68.7592C63.1539 68.565 62.8808 68.38 62.6052 68.2006C62.752 68.2206 63.0442 68.2633 63.1909 68.2833C63.9846 68.6226 64.8474 68.6912 65.6961 68.5558C66.7527 68.3587 67.8221 68.5124 68.8854 68.5126C69.8333 68.4599 70.6985 68.9181 71.561 69.2494C72.7834 70.0321 74.1854 70.5245 75.2708 71.516C75.8602 72.0576 76.5634 72.4622 77.1183 73.0405C76.5069 73.7955 75.4634 74.2596 74.5076 73.9387C73.7061 73.807 73.2161 72.9293 72.3646 72.9797C72.4253 72.8492 72.4888 72.72 72.5516 72.5888C73.1721 72.9533 73.793 73.313 74.4262 73.6563C74.9783 73.6404 75.5335 73.6325 76.077 73.5223C75.4767 72.7431 74.6066 72.2542 73.9151 71.5684C72.9991 70.6137 71.6954 70.0461 70.3723 70.051C70.2693 69.8026 70.169 69.5554 70.07 69.3053C69.2561 69.4109 68.4443 69.6598 67.6133 69.5418C66.8099 69.441 66.027 69.6927 65.27 69.9274C65.2706 69.8272 65.2686 69.6303 65.2692 69.5301C64.9687 69.7115 64.6584 69.8733 64.3102 69.9313C63.5809 69.3694 62.7722 68.794 61.8093 68.8317C61.526 68.9017 61.2423 68.9649 60.9563 69.0221L61.0431 68.9769C61.1432 68.9242 61.3454 68.8181 61.4475 68.7647Z" fill="black"/>
<path d="M43.2516 76.6411C43.3403 76.637 43.517 76.6267 43.6078 76.6219C43.673 76.7245 43.741 76.8284 43.811 76.9316C45.0078 76.3547 46.3605 76.1267 47.6687 75.9276C48.7748 76.1461 49.7948 76.7468 50.4484 77.6821C50.4371 77.8027 50.4146 78.0439 50.4054 78.1637C51.5476 78.6613 52.499 79.5279 53.7463 79.7941C52.6923 79.86 51.8505 79.1091 50.964 78.6498C50.3491 78.8086 49.821 79.2221 49.3226 79.6103C48.773 80.1716 48.297 80.7975 47.862 81.4517C46.8448 83.3914 46.2667 85.5379 45.0822 87.3981C44.0145 89.5247 42.4178 91.2956 40.8664 93.0699C39.9054 93.909 39.2064 94.9885 38.5288 96.0574C37.9577 96.9224 37.3427 97.7578 36.809 98.6478C36.1748 97.2539 35.683 95.8027 35.1133 94.3838C34.831 93.6002 34.4324 92.8452 34.3249 92.0102C34.657 91.8329 35.242 91.788 34.9976 91.2641L35.1761 91.2346C35.119 91.0869 35.004 90.7896 34.9441 90.6407C35.7324 90.6846 36.1956 90.0613 36.6713 89.5425C36.7655 89.5525 36.9504 89.5694 37.0446 89.5794C37.5766 88.4575 38.507 87.5931 39.3589 86.7172C40.2031 86.2348 40.5693 85.319 41.0334 84.5186C40.8741 84.5081 40.5536 84.488 40.3943 84.4775C40.359 84.3982 40.2896 84.2367 40.2543 84.1573C40.4741 83.8933 40.6932 83.6272 40.9194 83.3676C40.9559 82.8211 41.0126 82.255 40.7225 81.7627C40.854 81.7374 41.113 81.6884 41.2418 81.6618C41.1092 81.5108 40.8454 81.206 40.7149 81.0542C41.0719 80.6417 41.3345 80.1588 41.5399 79.6539C41.2769 79.9741 40.948 80.1897 40.5491 80.3022C40.961 79.2593 41.6218 78.1527 42.7443 77.779C42.5482 77.7572 42.1585 77.7079 41.9625 77.6861C42.395 77.3491 43.0062 77.1685 43.2516 76.6411Z" fill="black"/>
<path d="M57.3805 73.5532C57.9687 73.2954 58.6442 72.79 59.2978 73.1022C59.3039 73.0162 59.3201 72.8425 59.3282 72.7556C59.7999 72.6755 60.2707 72.5933 60.7455 72.5213C60.5524 73.1657 60.295 73.8 59.7771 74.2514C59.9506 74.3587 60.1876 74.4623 60.3216 74.2338C60.9218 73.5459 61.6159 72.9449 62.1812 72.2264C62.3998 72.1627 62.6212 72.1003 62.8442 72.042C62.7255 72.1065 62.4882 72.2355 62.3675 72.3008C62.3856 72.5751 62.4057 72.8487 62.4286 73.1235C63.0296 72.9584 63.6392 72.8157 64.2548 72.7124C64.5523 72.4276 65.0336 72.2344 65.0623 71.7699C66.5118 72.0137 68.0265 71.8394 69.3638 71.2244C70.3434 71.6849 71.3304 72.1285 72.3038 72.603C72.1909 72.6583 71.9614 72.7656 71.8484 72.821C72.0702 73.7536 72.844 74.3587 73.3335 75.139C73.5458 75.58 73.7145 76.0402 73.9449 76.4742C73.8116 76.5188 73.547 76.6072 73.4157 76.6511L73.5063 76.9392C73.6059 77.2146 73.7451 77.5327 74.0612 77.6011C74.3894 77.7671 74.7461 77.7849 75.1036 77.721C75.0869 77.8694 75.0546 78.1632 75.0378 78.3115C74.6315 78.4408 74.2217 78.669 73.785 78.552C73.2883 78.4116 72.9136 78.0241 72.5117 77.7215C72.5454 77.9224 72.6135 78.3262 72.6472 78.5271C72.479 78.0922 72.2979 77.66 71.8294 77.4669C71.8362 77.9456 72.0362 78.3728 72.3061 78.759C72.469 78.689 72.7975 78.5503 72.9604 78.4803C73.0818 78.896 73.0862 79.2966 72.579 79.3928C72.129 79.5529 71.6999 79.2818 71.2842 79.1473C70.7861 77.9495 69.6368 77.3199 68.7934 76.4092C68.1478 75.5545 66.9233 75.7724 66.118 75.1399C66.208 75.019 66.2979 74.8982 66.3843 74.7741L66.258 74.5137L66.1305 74.3096C65.887 74.0876 65.7621 73.7825 65.6632 73.479C65.7307 73.0785 65.7649 72.67 65.6188 72.2801C65.5831 72.4753 65.5542 72.6701 65.5281 72.8662C65.2317 73.3994 65.3987 74.0347 65.847 74.4332C66.0649 74.6791 65.7976 74.9104 65.6354 75.0778C65.9699 75.7389 66.8584 76.2276 66.7544 77.0305C67.5251 77.8252 68.9037 78.401 68.8046 79.7019C68.6257 80.8383 67.2457 80.8699 66.3597 80.6871C66.538 81.1483 66.4033 81.6445 66.1616 82.0495C65.7392 82.3408 65.2937 81.9737 64.8909 81.8366C64.6395 81.4083 64.4712 80.9433 64.3995 80.4525C64.3704 79.8802 63.6835 79.8831 63.2825 79.7267C61.9818 79.4602 60.6818 79.0098 59.3392 79.1501C58.1857 79.2521 57.0185 79.3665 55.9417 79.8226C55.8885 79.685 55.7849 79.4112 55.7317 79.2737L55.5429 79.4444L55.9299 79.876C55.4445 79.9265 54.9566 79.9827 54.4674 79.9697C54.7694 79.8761 55.3722 79.6918 55.6742 79.5982C55.1434 79.2199 54.5866 78.8586 53.9414 78.7176C53.9138 78.6283 53.8598 78.4469 53.8322 78.3576C54.8398 78.1957 55.6831 79.0762 56.6295 79.331C56.316 78.8082 55.7447 78.5409 55.3117 78.1341C55.373 78.029 55.4963 77.8209 55.5584 77.7178C55.6623 77.8845 55.7669 78.0533 55.8724 78.2241C56.5048 78.7631 57.2616 79.0609 58.0951 79.0477C58.3178 79.0127 58.5413 78.9797 58.7656 78.9488C59.5973 78.9549 60.4422 78.8815 61.2582 79.0867C62.2971 79.3591 63.3769 79.4856 64.3799 79.8928C65.4294 80.0727 66.446 80.4073 67.5001 80.5692C67.8319 80.4269 68.1551 80.2623 68.4649 80.0751C68.7183 79.4307 68.445 78.7063 67.8878 78.3197C67.1093 77.7326 66.2648 76.8548 65.1936 77.1157L66.0968 77.5104L65.5247 77.5643C65.427 77.4974 65.2324 77.3658 65.1348 77.2989L65.0185 77.3997L64.9166 77.1182C64.8359 77.1611 64.6724 77.2476 64.5897 77.2912L64.4406 77.1094C64.3488 77.1356 64.1653 77.188 64.0735 77.2142L63.884 76.862C63.8218 76.9767 63.6982 77.2082 63.6368 77.325L63.5396 77.0138C62.7177 77.4759 62.144 76.3283 61.3511 76.2188L61.4908 75.9811C61.2807 76.1205 61.0761 76.2624 60.8755 76.4144C61.2866 76.567 61.6911 76.7383 62.0914 76.9229C61.4591 77.1327 60.9193 76.6834 60.3787 76.4415C59.397 75.9818 58.6704 75.1632 57.8719 74.4583C57.9962 74.4264 58.1214 74.3966 58.2493 74.3681C58.8872 75.2746 59.9335 75.8116 60.8946 76.314C60.8603 76.2134 60.7937 76.0113 60.7594 75.9106C59.906 75.3153 59.022 74.7667 58.1604 74.1862C58.0753 74.2238 57.9044 74.2969 57.8213 74.3337C57.6892 74.0639 57.5445 73.8037 57.3805 73.5532ZM61.2514 75.6017C61.2898 75.6589 61.3665 75.7734 61.4041 75.8286C61.764 75.9986 62.1178 76.1827 62.4659 76.3759C62.8755 76.3988 63.2934 76.5091 63.6934 76.3335C63.0698 76.0446 62.6085 75.5348 62.1815 75.0117C61.8795 75.2192 61.5652 75.4129 61.2514 75.6017ZM66.7754 74.2462C67.3006 74.9033 68.0514 75.2872 68.7294 75.7527C69.251 76.4182 69.9336 76.9075 70.7115 77.2297C70.9789 78.0587 71.4388 79.4153 72.5867 78.9574C71.8721 78.799 71.7368 78.0538 71.7065 77.4424C71.1506 77.1133 70.8623 76.5296 70.507 76.0184C69.844 75.4959 69.1756 74.9779 68.4926 74.4817C68.0382 74.5645 67.5879 74.4783 67.1453 74.3821C67.0533 74.3479 66.8674 74.2804 66.7754 74.2462ZM64.4545 80.2173C64.5572 80.4171 64.7599 80.8153 64.8627 81.0151C65.1996 81.3172 65.4976 81.6623 65.7155 82.064C65.9773 81.8186 66.2351 81.5328 66.2694 81.1545C66.2189 80.988 66.1215 80.6583 66.0718 80.4939C65.5376 80.3704 64.9966 80.2774 64.4545 80.2173Z" fill="black"/>
<path d="M105.671 55.5238C105.929 54.9217 106.549 54.5121 107.161 54.3501C108.275 54.2841 109.223 53.6034 110.333 53.5274C110.56 53.7372 110.789 53.9441 111.02 54.1524L111.05 54.1056L111.368 53.6806C111.442 53.8659 111.59 54.2317 111.663 54.4149C111.769 54.3346 111.98 54.1738 112.086 54.0934C112.089 54.2943 112.096 54.6941 112.098 54.893C111.938 54.8249 111.616 54.6888 111.455 54.6188C111.557 54.8048 111.758 55.1736 111.859 55.3577C111.69 55.4952 111.353 55.7674 111.183 55.905C111.754 56.0213 111.957 55.4547 112.262 55.1132C112.293 55.2758 112.353 55.599 112.383 55.7616C113.126 55.6443 113.725 55.1938 114.325 54.7756C115.009 54.5134 116.121 54.7763 116.446 53.9391C117.597 53.7288 118.49 52.8997 119.6 52.5704C119.623 52.6613 119.665 52.8426 119.687 52.9342C120.112 52.835 120.554 52.8289 120.972 52.6861L121.17 52.9953C121.527 52.6899 121.668 52.2401 121.798 51.8038C121.843 51.5979 121.887 51.3928 121.929 51.1856C122.023 51.5422 121.989 51.9089 121.946 52.2698C122.179 52.3468 122.417 52.4271 122.654 52.5074C123.32 51.708 124.441 51.6836 125.4 51.7449C125.899 52.9934 126.383 54.2502 126.857 55.5108C125.802 55.9817 124.618 56.0954 123.616 56.6901C120.294 58.4632 116.683 59.6719 112.978 60.3236C111.296 60.6347 109.404 60.7668 108.054 61.9238C107.12 63.299 105.938 64.549 105.337 66.1229C105.128 66.4318 104.913 66.7382 104.655 67.0074C103.803 67.5649 103.229 68.417 102.493 69.0947C101.687 69.4367 100.913 69.8732 100.451 70.6494C100.396 71.2915 100.098 71.9696 100.423 72.588C100.69 73.3614 101.226 74.1978 100.836 75.0208C100.709 75.5605 100.107 75.67 99.6671 75.8379C99.7245 75.7948 99.8414 75.7077 99.8989 75.6645C100.102 75.5186 100.306 75.3747 100.514 75.2312C100.371 74.7589 100.228 74.2865 100.075 73.8152C99.7701 73.7985 99.4652 73.7769 99.1612 73.7875C98.9119 73.7956 98.6632 73.8174 98.4185 73.8377C98.2941 73.4022 98.1704 72.9687 98.0467 72.5352C98.1377 72.3512 98.2303 72.1713 98.324 71.9885C98.6817 71.434 98.5971 70.7482 98.6557 70.1211C98.4056 70.1573 98.1571 70.1976 97.911 70.244C97.7795 70.2693 97.5185 70.3191 97.389 70.3436L97.1625 70.3871C96.9856 71.2832 96.4104 72.0359 96.2424 72.9309C96.2114 74.0427 96.2431 75.1604 96.4222 76.2583C96.4748 76.7774 96.6032 77.409 96.1816 77.8162C95.7746 78.1713 95.2098 78.2084 94.7289 78.4084C94.3193 78.7087 93.9203 79.0606 93.4117 79.183C92.888 79.2065 92.6237 78.667 92.4505 78.255C92.1061 77.4187 91.4325 76.7911 90.9515 76.0447C90.6785 75.2133 90.6771 74.3233 90.4536 73.482C90.2503 73.4654 89.8436 73.432 89.6402 73.4154C89.7316 73.394 89.917 73.3525 90.0112 73.3323C90.1233 73.3168 90.3472 73.2907 90.4593 73.2752C90.7713 73.0755 91.0855 72.8819 91.3899 72.6688C91.8394 72.202 92.134 71.616 92.4982 71.0845C92.678 70.8127 92.8642 70.5454 93.0312 70.2645L93.0635 70.1683C93.7358 68.5946 95.0573 67.3998 96.094 66.0618C96.7919 65.3268 97.0978 64.3389 97.6936 63.5318C97.7293 63.6598 97.7997 63.9139 97.8354 64.042C98.5008 64.0915 99.156 64.2403 99.7848 64.4644C99.8275 64.3712 99.908 64.1842 99.9479 64.0897C101.222 63.8153 101.331 62.2087 101.54 61.1443C101.625 61.0717 101.795 60.9245 101.881 60.8519C101.755 60.8632 101.503 60.8866 101.377 60.8979L101.498 60.5279C101.588 60.4558 101.765 60.3131 101.853 60.2418C101.659 60.1657 101.467 60.0888 101.277 60.0091C101.679 59.4511 101.999 58.8296 102.472 58.326C102.946 57.8752 103.539 57.5809 104.127 57.3114C103.963 57.7424 104.121 58.1647 104.325 58.5533C104.57 58.5516 104.815 58.5519 105.062 58.5542C105.388 58.1631 105.725 57.7769 106.075 57.4066C106.067 56.8354 105.957 56.2757 105.799 55.7299C106.012 55.6336 106.225 55.5372 106.441 55.4422C106.25 55.4627 105.864 55.5025 105.671 55.5238ZM93.4203 72.5461C93.4896 74.384 94.1664 76.1218 94.7886 77.8319C94.9045 77.8801 95.1323 77.978 95.2462 78.0269C95.329 77.7438 95.4193 77.4624 95.5097 77.181C95.3963 76.804 95.2829 76.427 95.1642 76.0544C94.9155 75.9204 94.668 75.7836 94.4253 75.6473C94.6762 75.0922 94.8984 74.5227 95.0865 73.943C95.1023 73.6905 95.1209 73.4391 95.1443 73.1883C94.7023 72.9918 94.2752 72.7618 93.8221 72.5906C94.3843 72.2894 95.1303 72.08 95.2501 71.3477C95.5788 70.7602 95.3742 70.1116 95.1489 69.5291C94.5098 70.4878 93.7017 71.4049 93.4203 72.5461ZM90.6363 73.4393C90.8298 74.5503 90.8099 75.7926 91.5726 76.7043C92.1501 77.3947 92.6761 78.1259 93.0294 78.9612C93.2575 78.7125 93.4314 78.4197 93.593 78.1247C93.359 77.2503 92.9048 76.4773 92.2297 75.8758C92.0692 75.8681 91.7475 75.8508 91.587 75.8431C91.6941 75.611 91.8315 75.3974 91.9873 75.1953C91.953 75.0946 91.8816 74.8921 91.8473 74.7914C91.8661 74.2889 91.8531 73.7824 91.724 73.2929C91.3531 73.2504 90.9919 73.3645 90.6363 73.4393Z" fill="black"/>
<path d="M42.9235 73.3996C43.6459 72.8179 44.2732 72.1102 45.0907 71.6545C45.7843 71.2677 46.5978 71.2389 47.3343 70.975C49.5515 70.0476 51.9684 69.5289 54.3801 69.6074C55.8165 69.5959 57.0421 68.7521 58.3946 68.3918C59.3548 68.1435 60.2472 67.5519 61.2741 67.6197C61.9427 67.6773 62.7017 67.765 63.1893 68.2832C63.0426 68.2633 62.7504 68.2205 62.6037 68.2005C61.8048 68.0096 60.9553 67.7895 60.1525 68.0977C58.8201 68.5457 57.4588 68.9072 56.1299 69.3701L56.2327 69.7256C57.9418 69.2993 59.6643 68.74 61.4459 68.7646C61.3438 68.8181 61.1417 68.9242 61.0416 68.9768C59.6125 69.4505 58.0884 69.5286 56.6208 69.8428C55.085 70.1602 53.5148 69.8376 51.9696 70.0469C50.4941 70.2387 49.0407 70.6195 47.6708 71.1982C46.8356 71.5422 45.8732 71.4797 45.0951 71.9713C44.3159 72.4541 43.7087 73.154 43.0111 73.7401C41.9073 74.6832 41.3693 76.119 40.2373 77.0312C38.5251 78.2399 36.4372 79.1661 35.3598 81.0639C34.4275 82.6662 32.8044 83.68 31.2741 84.6346C31.2866 84.5531 31.3123 84.392 31.3248 84.3104C32.2527 83.6911 33.2442 83.1402 34.0331 82.3351C35.0317 81.2397 35.8497 79.9769 36.9723 78.9986C37.8945 78.1188 39.0337 77.5246 40.0707 76.798C41.2347 75.8548 41.761 74.3469 42.9235 73.3996Z" fill="black"/>
<path d="M107.16 54.3494C108.028 53.9647 109.126 53.8728 109.724 53.0553C110.095 53.2886 110.473 53.7329 110.921 53.3691C110.965 53.6148 111.009 53.8605 111.05 54.1049L111.019 54.1517C110.788 53.9434 110.56 53.7365 110.333 53.5267C109.223 53.6027 108.274 54.2834 107.16 54.3494Z" fill="black"/>
<path d="M73.5073 76.9389C73.5988 76.864 73.7797 76.7149 73.8712 76.64C73.8058 76.7583 73.6737 76.9978 73.6083 77.1161C73.7808 77.2447 74.123 77.5006 74.2927 77.6279C74.235 77.6224 74.1207 77.6084 74.0622 77.6008C73.7462 77.5324 73.6069 77.2143 73.5073 76.9389Z" fill="black"/>
<path d="M90.6472 72.4991C90.8776 72.1124 91.0735 71.7088 91.2947 71.3163C91.2243 71.7993 91.1182 72.2914 90.7733 72.6573C90.5043 72.6986 90.2361 72.7419 89.9708 72.7864C90.005 72.7313 90.0764 72.6223 90.1107 72.5672C90.2453 72.55 90.5146 72.5156 90.6472 72.4991Z" fill="black"/>
<path d="M97.385 70.3437C97.5145 70.3191 97.7755 70.2693 97.907 70.244C97.7784 71.0193 97.7687 71.8089 97.7596 72.5936C97.9 72.4417 98.1796 72.1405 98.3201 71.9885C98.2263 72.1713 98.1338 72.3512 98.0428 72.5352C98.1664 72.9687 98.2901 73.4022 98.4145 73.8377C98.6592 73.8174 98.9079 73.7956 99.1573 73.7875C98.8712 73.8564 98.5902 73.9325 98.3128 74.0119C98.6419 74.7309 99.1498 75.3552 99.8949 75.6646C99.8375 75.7077 99.7206 75.7948 99.6631 75.8379L99.6004 75.8854C98.697 75.3165 98.0884 74.4079 97.8021 73.3863C97.8815 73.3579 98.039 73.304 98.1163 73.2764C98.2087 72.9523 97.8624 72.7515 97.6911 72.5364C97.3503 71.9009 97.6729 71.0461 97.385 70.3437Z" fill="black"/>
<path d="M112.437 54.0841C112.555 54.0643 112.787 54.0254 112.902 54.0043C113.022 54.3206 113.146 54.6353 113.272 54.9493C112.996 55.0609 112.731 55.0539 112.482 54.9295C112.458 54.6459 112.451 54.3648 112.437 54.0841Z" fill="black"/>
<path d="M94.5394 62.0265C94.6414 62.4101 94.692 62.8044 94.7141 63.2028C94.3344 63.8682 94.0878 64.596 93.7677 65.2895L93.7129 65.3874C93.2635 65.4892 92.8122 65.4242 92.3699 65.3349C92.2523 65.013 92.1335 64.6939 92.0107 64.3764C92.5837 63.8455 93.2918 63.4902 93.8576 62.9528C94.0235 62.9026 94.3533 62.803 94.5191 62.7527C94.5254 62.5713 94.5359 62.2092 94.5394 62.0265Z" fill="black"/>
<path d="M61.2532 75.6016C61.567 75.4128 61.8813 75.2191 62.1833 75.0117C62.6103 75.5347 63.0716 76.0445 63.6952 76.3334C63.2953 76.509 62.8773 76.3987 62.4677 76.3758C62.1196 76.1826 61.7658 75.9985 61.4059 75.8285C61.3683 75.7733 61.2916 75.6588 61.2532 75.6016Z" fill="white"/>
<path d="M97.911 70.2432C98.1572 70.1968 98.4056 70.1565 98.6557 70.1203C98.5971 70.7474 98.6817 71.4332 98.324 71.9877C98.1836 72.1397 97.904 72.4408 97.7636 72.5928C97.7727 71.808 97.7823 71.0184 97.911 70.2432Z" fill="white"/>
<path d="M32.8071 87.1138C33.2548 86.9057 33.704 86.7017 34.16 86.5091C34.1593 86.8488 34.0969 87.1845 33.9062 87.4699C33.4546 87.5841 33.0019 87.7011 32.5488 87.8113C32.629 87.5756 32.7073 87.3407 32.8071 87.1138Z" fill="black"/>
<path d="M66.7773 74.2461C66.8693 74.2803 67.0553 74.3478 67.1473 74.382C67.5899 74.4782 68.0402 74.5644 68.4946 74.4817C69.1776 74.9778 69.8459 75.4958 70.509 76.0183C70.8643 76.5296 71.1526 77.1132 71.7084 77.4423C71.7388 78.0537 71.8741 78.7989 72.5886 78.9573C71.4408 79.4152 70.9808 78.0586 70.7135 77.2296C69.9356 76.9074 69.2529 76.4181 68.7314 75.7526C68.0533 75.2871 67.3026 74.9032 66.7773 74.2461Z" fill="white"/>
<path d="M39.9833 84.8194C40.08 84.554 40.7575 84.5083 40.5255 84.8911C40.4623 85.2249 39.755 85.2357 39.9833 84.8194Z" fill="black"/>
<path d="M65.332 78.3857C66.0588 78.3604 66.803 78.3259 67.5102 78.5314C68.1457 78.725 68.4759 79.6924 67.8197 80.0741C67.9122 79.7082 68.0498 79.2736 67.6987 78.9886C66.9624 78.6061 66.0981 78.6893 65.332 78.3857Z" fill="black"/>
<path d="M65.6793 79.7944C65.7285 79.4964 65.7805 79.1996 65.8256 78.9031C66.0302 79.468 66.4617 79.8708 66.9709 80.1691C66.5311 80.0741 66.0942 79.9688 65.6793 79.7944Z" fill="black"/>
<path d="M88.2633 72.1846C89.0439 71.406 89.6503 70.4646 90.4017 69.6763C90.4764 69.6358 90.625 69.5528 90.6989 69.5103C90.7262 69.4671 90.7789 69.3817 90.807 69.3406C90.9182 69.8556 91.3163 70.1782 91.7309 70.4596C92.1089 70.4785 92.4829 70.4454 92.8427 70.3156C92.789 70.0271 92.7361 69.7406 92.6873 69.4526C92.7822 69.6321 92.9692 69.9899 93.0614 70.1682L93.0291 70.2644C92.862 70.5452 92.6759 70.8125 92.4961 71.0844C92.4626 70.9857 92.3943 70.7913 92.3608 70.6926C91.6542 70.5428 91.0584 70.1222 90.4418 69.7678C89.8307 70.5715 89.222 71.3813 88.5074 72.0971L89.0725 72.1087C88.9998 72.2322 88.8572 72.4803 88.7845 72.6038C89.1396 72.9291 89.5383 73.205 90.009 73.3322C89.9149 73.3523 89.7294 73.3938 89.6381 73.4152C88.9446 73.4789 88.4495 72.7798 88.2633 72.1846Z" fill="black"/>
<path d="M92.4958 69.0144C92.7387 68.8274 92.8761 68.8952 92.9066 69.2137C92.661 69.3995 92.5243 69.3337 92.4958 69.0144Z" fill="black"/>
<path d="M97.8036 73.387C97.5387 73.2291 97.4049 72.7275 97.6926 72.5371C97.8639 72.7522 98.2102 72.9531 98.1178 73.2771C98.0405 73.3047 97.883 73.3587 97.8036 73.387Z" fill="black"/>
<path d="M31.2812 84.4385C31.9525 88.283 34.0043 96.5086 36.8414 98.6554C35.483 94.0429 32.4692 84.7419 31.2812 84.4385Z" fill="black"/>
<path d="M121.301 41.4201C123.327 42.3421 127.273 46.4407 126.841 55.4584C124.89 51.4537 121.05 43.0395 121.301 41.4201Z" fill="black" stroke="black" stroke-width="0.364817"/>
<path d="M63.1299 54.5367C62.8303 54.9072 62.4906 55.1049 62.1109 55.1297C61.7351 55.1577 61.3745 55.0312 61.0291 54.75L59.9686 53.8867C59.9486 53.8704 59.9354 53.8496 59.9291 53.8245C59.93 53.7985 59.9387 53.7755 59.955 53.7554L63.2575 49.6717C63.2738 49.6515 63.2928 49.6403 63.3146 49.6381C63.3437 49.635 63.3683 49.6417 63.3884 49.658L64.3404 50.433C64.722 50.7436 64.9431 51.0839 65.0037 51.4538C65.0642 51.8236 64.9447 52.1938 64.6451 52.5644C64.3096 52.9792 63.9236 53.1558 63.4871 53.0943C63.4572 53.0901 63.4434 53.0989 63.4457 53.1208C63.5209 53.349 63.5343 53.5836 63.4859 53.8247C63.4375 54.0658 63.3188 54.3031 63.1299 54.5367ZM63.5566 50.7968C63.5365 50.7804 63.5183 50.7823 63.5021 50.8024L62.5934 51.9261C62.5771 51.9462 62.579 51.9644 62.5991 51.9808L62.9064 52.2309C63.0711 52.365 63.2403 52.4193 63.4141 52.3938C63.5879 52.3683 63.7497 52.263 63.8996 52.0777C64.0559 51.8844 64.1302 51.6978 64.1225 51.5179C64.1148 51.3379 64.0286 51.181 63.8639 51.0469L63.5566 50.7968ZM61.4683 54.0957C61.6289 54.2265 61.8011 54.2731 61.9847 54.2355C62.1682 54.198 62.3431 54.0765 62.5092 53.8711C62.6785 53.6617 62.7643 53.461 62.7663 53.269C62.7716 53.073 62.694 52.9095 62.5333 52.7787L62.1838 52.4943C62.1637 52.4779 62.1456 52.4798 62.1293 52.5L61.1131 53.7565C61.0968 53.7766 61.0987 53.7949 61.1188 53.8112L61.4683 54.0957ZM62.5409 55.9806C62.5208 55.9643 62.5076 55.9435 62.5013 55.9184C62.5023 55.8925 62.5109 55.8694 62.5272 55.8493L65.8297 51.7656C65.846 51.7454 65.8651 51.7342 65.8869 51.732C65.916 51.7289 65.9406 51.7356 65.9607 51.7519L66.515 52.2032C66.5351 52.2195 66.5446 52.2407 66.5436 52.2666C66.5499 52.2918 66.545 52.3144 66.5287 52.3345L63.2262 56.4183C63.2099 56.4384 63.1872 56.45 63.1581 56.453C63.1363 56.4553 63.1153 56.4482 63.0952 56.4319L62.5409 55.9806ZM68.2288 53.5883C68.4417 53.7616 68.5862 53.966 68.6622 54.2015C68.7422 54.4403 68.7498 54.6903 68.6851 54.9515C68.6244 55.216 68.4964 55.4691 68.301 55.7107C68.0078 56.0732 67.6753 56.2867 67.3034 56.3512C66.9355 56.419 66.5948 56.3254 66.2815 56.0704L65.7694 55.6535C65.7493 55.6371 65.7311 55.639 65.7148 55.6592L64.3567 57.3386C64.3404 57.3587 64.3177 57.3703 64.2886 57.3733C64.2668 57.3756 64.2458 57.3685 64.2258 57.3522L63.6714 56.9009C63.6514 56.8846 63.6382 56.8638 63.6319 56.8387C63.6328 56.8128 63.6415 56.7897 63.6578 56.7696L66.9652 52.6798C66.9814 52.6597 67.0005 52.6485 67.0223 52.6462C67.0514 52.6432 67.076 52.6499 67.0961 52.6662L68.2288 53.5883ZM66.5755 55.398C66.7241 55.519 66.8882 55.5591 67.0677 55.5183C67.2546 55.4767 67.4278 55.3572 67.5874 55.1599C67.7502 54.9585 67.8327 54.7618 67.8347 54.5698C67.8441 54.3771 67.7744 54.2202 67.6258 54.0992L67.2643 53.8049C67.2442 53.7886 67.226 53.7905 67.2097 53.8106L66.2082 55.049C66.192 55.0691 66.1939 55.0874 66.2139 55.1037L66.5755 55.398Z" fill="#FB3E2D"/>
</svg>
