<svg width="133" height="128" viewBox="0 0 133 128" fill="none" xmlns="http://www.w3.org/2000/svg">
<path d="M43.5 6.87757C40.7 8.07268 35 16.0069 32.5 19.8246V21.8166L30 22.8125L25 28.2901L23.5 37.7514L26.5 42.731L31.5 47.2126L35.5 55.18L18 54.6821L12.5 60.1596L7.5 71.1148L5 72.1107L1.5 81.074L3 85.5557L3.5 91.5312L7.5 96.0129L11.5 98.0047V101.49L13.5 110.952L19.5 116.927L24 121.409H36L41.5 115.931L47.5 117.923L53 120.413L64.5 122.903L74 125.891L90.5 122.903L114 121.409L121.5 117.923L131.5 82.5679L129 79.5802L114 80.5761L79.5 84.5598L74 80.5761L69.5 71.1148L69 68.127C71.3333 69.123 77.8 69.123 85 61.1556C94 51.1963 96.5 46.2167 97 41.2371C97.5 36.2575 96 30.2819 95.5 23.3105C95.1 17.7333 87.3333 10.0314 83.5 6.87757C80.6667 5.05171 72.9 1.3004 64.5 0.902032C54 0.40407 47 5.38369 43.5 6.87757Z" fill="white" stroke="black"/>
<path d="M59.4577 0.140862C51.2811 1.28291 44.5254 4.5849 38.8666 10.1958C35.9001 13.1502 33.4322 16.5515 31.9364 19.779C31.2384 21.2687 30.9144 21.7155 30.1914 22.0383C28.4215 22.8824 25.5049 26.0851 24.2335 28.5678C22.2891 32.4408 22.1146 37.1828 23.8097 40.7827C24.6573 42.5951 27.2249 45.2019 29.2192 46.2446C30.4158 46.8901 30.5654 47.0639 31.3132 48.8018C31.737 49.8197 32.5846 51.4831 33.1829 52.501C33.7812 53.519 34.2299 54.3879 34.18 54.4376C34.1302 54.4872 33.0832 54.3879 31.8866 54.2141C28.9201 53.792 20.6188 53.792 18.7741 54.2141C16.7798 54.6858 14.9351 56.101 12.9657 58.683C11.3454 60.8181 8.25423 66.578 7.08259 69.582C6.58401 70.873 6.38459 71.1461 5.91094 71.1461C4.24072 71.1461 3.39315 72.3378 1.84757 76.9805C1.12464 79.1653 1.02493 79.7859 1 82.1197C1 84.6769 1.02493 84.801 1.77279 85.8686C2.49572 86.8616 2.5705 87.1596 2.67022 89.3195C2.84472 93.2918 4.21579 95.2283 8.77774 98.009L10.8468 99.2751V101.286C10.8468 109.107 13.4892 114.593 18.5498 117.3C20.9928 118.615 22.2143 119.857 23.6601 122.538C24.9564 124.897 25.5049 125.443 27.6736 126.585C28.9201 127.23 29.4436 127.354 30.7897 127.354C34.3296 127.33 37.321 124.847 39.6145 120.031L40.6365 117.871L50.9819 121.818C56.6656 124.003 62.2746 126.113 63.4462 126.535C65.7147 127.33 69.4291 128 71.7225 128C72.4953 128 82.9155 126.883 94.8813 125.517C114.949 123.208 116.744 122.985 118.09 122.364C119.685 121.644 121.056 120.304 121.954 118.516C122.702 117.076 132 83.6838 132 82.4921C132 80.7542 130.828 79.2646 129.133 78.8922C128.385 78.7432 122.552 79.339 104.952 81.35C92.2139 82.8148 81.3949 84.081 80.9212 84.1555C79.8742 84.3045 78.5779 83.4852 76.1349 81.1018C73.2681 78.2715 70.8999 73.9516 70.3016 70.4758C70.152 69.4827 70.177 69.4331 70.85 69.2841C71.224 69.1848 72.6698 68.7876 74.0409 68.3655C79.6249 66.7021 84.2367 63.8966 88.4995 59.6264C93.8592 54.2389 97.05 48.1315 98.3962 40.6089C98.9197 37.6793 98.7701 31.1002 98.1469 28.1209C96.028 18.4136 90.8179 10.8165 82.5665 5.5035C78.8771 3.09528 74.5146 1.35739 70.1271 0.513268C67.6592 0.0415573 61.7262 -0.157059 59.4577 0.140862ZM71.3237 2.4746C72.6948 2.82218 74.6891 3.44286 75.761 3.86491C77.855 4.68421 80.2481 5.85108 80.0986 5.95039C80.0736 6.00004 78.7275 5.7766 77.157 5.45385C67.6093 3.49252 58.1115 5.37936 49.5859 10.9654C46.6443 12.8771 41.858 17.6687 40.0382 20.499L38.6672 22.6093L37.2961 21.9142C36.5233 21.5418 35.3018 21.1693 34.6038 21.07C33.8809 20.9956 33.2826 20.8714 33.2826 20.8218C33.2826 20.5983 35.1522 17.346 36.0746 15.9805C39.1907 11.3379 44.5005 6.89381 49.6358 4.5849C51.9043 3.59182 55.6934 2.42495 58.0617 2.00289C61.3273 1.43187 68.1328 1.65531 71.3237 2.4746ZM76.6584 6.96829C79.5751 7.6138 82.3421 8.55722 84.5608 9.62479C86.2061 10.4193 86.9789 10.9903 88.325 12.4302C89.9952 14.193 91.6156 16.477 92.9867 18.8853C93.8093 20.3252 93.6348 20.1763 92.1391 18.1901C87.7267 12.3558 80.0736 8.70618 71.1243 8.18482C68.1328 7.9862 64.1692 8.48274 60.7539 9.47582C53.1258 11.6854 45.7469 17.4205 42.0076 24.0493L41.185 25.5141L40.6116 24.7941C40.2875 24.4217 40.0382 23.9748 40.0133 23.801C40.0133 23.3045 42.8801 19.2328 44.5005 17.4701C49.5361 11.9585 57.4135 7.81242 65.0915 6.59589C67.3351 6.24831 74.4647 6.49658 76.6584 6.96829ZM76.7831 13.895C84.9846 15.6826 90.444 20.3004 92.5878 27.3016C93.8343 31.2988 94.1833 36.6118 93.4853 39.9882C92.862 42.893 91.3414 45.6488 89.0729 47.8584C88.0009 48.9259 87.0038 49.7949 86.8792 49.7949C86.7545 49.7949 86.8542 49.3232 87.1035 48.7273C88.4247 45.6488 89.5216 38.9951 89.2723 35.4201C89.0729 32.4408 88.7737 31.2491 87.7267 29.0643C84.9846 23.2796 76.459 17.5446 67.0609 15.1612C66.1136 14.9129 65.2162 14.615 65.0915 14.5157C64.8921 14.3171 66.8365 13.6716 68.3073 13.4481C69.7283 13.2495 75.0381 13.4978 76.7831 13.895ZM35.8253 23.0314C38.019 23.6769 40.2377 26.532 41.0354 29.685C41.509 31.547 41.4343 35.1718 40.8858 37.009C39.415 42.024 36.0995 45.326 32.4849 45.326C30.7648 45.326 30.4657 45.0033 31.7869 44.606C34.1052 43.9109 36.8972 39.9882 37.5454 36.5124C37.9692 34.2532 37.7199 30.3553 37.0468 28.6175C36.0247 26.0106 34.3296 24.2727 32.1857 23.7017L31.1637 23.4038L31.9115 23.081C32.8588 22.659 34.5539 22.659 35.8253 23.0314ZM53.8487 23.7017C54.9705 24.3472 55.7184 25.812 55.7184 27.4506C55.7184 29.1388 55.0951 30.554 53.8986 31.5967C51.6301 33.5829 48.5888 33.0615 47.4421 30.5043C46.1707 27.5995 47.9905 23.9251 51.0816 23.23C52.0289 23.0065 52.8516 23.1555 53.8487 23.7017ZM32.9087 25.7872C34.3296 26.5816 35.4015 28.3195 35.925 30.6036C37.67 38.4986 31.1637 46.5426 26.6516 42.024C23.4607 38.7965 23.6103 31.1746 26.9756 27.4506C28.9949 25.2161 30.9393 24.67 32.9087 25.7872ZM48.7882 35.569C49.4114 36.3138 49.5111 36.86 49.1372 37.7538C48.5638 39.1193 47.1678 39.5413 46.2455 38.6227C45.4976 37.8779 45.5973 36.7359 46.4698 35.8669C47.2925 35.0477 48.2398 34.9235 48.7882 35.569ZM39.6643 45.4253C40.811 49.7701 43.1294 53.6679 46.7441 57.2678C51.3309 61.8608 56.0175 64.3187 62.823 65.709C66.5374 66.4787 72.9939 66.3793 76.5338 65.5352C77.6306 65.2621 76.2097 65.9076 74.2653 66.578C69.2795 68.2414 65.8643 68.3159 60.3302 66.9255C49.4114 64.1946 40.7363 56.2251 38.019 46.4929C37.695 45.3012 37.695 45.2764 38.4179 44.5812C38.8167 44.2088 39.1657 43.9357 39.2156 43.9605C39.2655 44.0102 39.4649 44.6557 39.6643 45.4253ZM36.4735 47.5108C36.9471 49.2735 39.2655 53.8914 40.7612 55.9768C43.628 59.9988 48.6386 64.1449 53.2255 66.28C54.2476 66.7766 55.0204 67.149 54.9206 67.1738C54.3971 67.1986 50.0097 65.4607 47.9905 64.418C44.8245 62.7794 42.6308 61.116 39.764 58.2609C37.2961 55.7534 35.1772 52.8486 33.7064 49.919C32.3602 47.2129 32.3353 47.0639 33.3324 47.0391C33.7812 47.0391 34.5539 46.8653 35.0276 46.6915C35.5012 46.5177 35.9749 46.3439 36.0497 46.3439C36.1245 46.3191 36.3239 46.8653 36.4735 47.5108ZM33.6067 56.101C34.8282 56.2996 35.8502 56.4982 35.925 56.5727C35.9998 56.6223 34.3794 58.3354 32.3602 60.3712C28.7206 64.0208 26.3026 66.7518 23.4607 70.4013C22.663 71.4192 21.8653 72.2137 21.7157 72.1889C21.0177 71.9654 19.2976 72.1392 18.6495 72.4868C17.6274 73.0082 16.4558 74.3985 16.0818 75.4909L15.7827 76.4095L15.2343 75.9129C14.96 75.6646 13.215 74.6716 11.4202 73.7281C9.60038 72.7847 8.10466 71.8909 8.10466 71.7172C8.10466 71.2206 10.2984 66.2056 11.4202 64.1946C12.9159 61.4388 14.7108 58.9064 16.0818 57.6402C16.7549 57.0196 17.403 56.4982 17.5277 56.4982C17.9764 56.4982 23.4358 60.7436 25.0811 62.3822C26.5768 63.847 27.2997 64.1697 27.2997 63.4249C27.2997 62.978 24.3083 60.0485 21.7157 57.9133C19.4721 56.0513 19.3225 55.8775 19.8461 55.7037C20.8183 55.4058 31.2135 55.7037 33.6067 56.101ZM38.9912 60.0236C45.348 66.0814 52.5275 69.2593 61.4021 69.9793L64.9918 70.2524L64.8173 71.8909C64.7176 72.7847 64.593 73.5544 64.5431 73.6288C64.3437 73.8274 58.6101 72.9089 52.8266 71.7668C49.7604 71.1461 46.9684 70.6496 46.6443 70.6496C45.7718 70.6496 45.373 70.1531 45.024 68.5641C44.8245 67.6703 44.5753 67.1738 44.3509 67.1738C44.0767 67.1738 44.0019 67.5959 44.0019 69.1848C44.0019 75.8881 48.8879 82.641 56.9648 87.1099C59.0339 88.2519 63.1471 89.8657 65.3408 90.4119C68.5815 91.2064 69.6036 92.1001 70.7005 95.1042C71.1741 96.3704 71.2489 97.14 71.2738 100.194C71.2988 104.166 71.0993 105.209 69.9526 106.922C68.2325 109.479 64.1692 110.944 61.078 110.1C59.6322 109.702 57.1642 107.096 55.5937 104.29C54.7711 102.85 54.0232 101.857 53.4748 101.485C52.4278 100.79 51.3808 100.839 51.2811 101.609C51.2063 102.031 51.4057 102.23 52.0788 102.527C53.2504 102.999 53.2255 103.198 52.0539 102.875C46.8687 101.46 40.7612 96.1469 37.3709 90.1388C36.3239 88.2768 35.0027 85.223 34.1302 82.6907C33.6067 81.2507 30.7897 71.1213 30.7897 70.7489C30.7897 70.6992 30.69 70.6496 30.5404 70.6496C30.2413 70.6496 30.2164 74.2992 30.5155 75.8136C30.7149 76.8067 30.69 76.8563 30.1914 76.7074C28.0226 76.0619 23.5604 73.7033 23.5604 73.1819C23.5604 72.6606 29.3937 65.8083 32.8837 62.2581C35.0525 60.0485 36.8972 58.2361 36.972 58.2361C37.0468 58.2361 37.9442 59.0554 38.9912 60.0236ZM68.6813 70.8234C68.6813 71.8661 70.4013 76.1364 71.5231 77.9487C72.9441 80.208 75.3621 82.8397 77.3564 84.2796C78.8521 85.372 78.8521 85.3968 78.5281 86.0672C78.3286 86.4147 77.6556 88.5499 77.0323 90.7843C73.8415 102.031 73.9661 101.683 73.5423 101.534C73.2681 101.41 73.1684 100.963 73.1684 99.8213C73.1684 97.7359 72.5701 94.9304 71.7475 93.267C70.6506 90.9829 69.4042 89.8905 67.1357 89.1705C66.338 88.9223 66.6371 88.3016 67.6592 88.0285C68.8308 87.7306 70.0274 86.4396 70.4512 85.0989C70.9747 83.2865 69.828 80.928 68.083 80.3073L67.2603 80.0094L67.385 78.0729C67.4847 76.3846 67.4348 76.0122 66.9362 75.1929C66.4377 74.3488 66.4128 74.0757 66.5623 72.0896L66.7368 69.9296L67.5345 69.8551C68.3821 69.7806 68.6813 70.0041 68.6813 70.8234ZM49.8103 72.6109C51.0068 72.8592 52.0539 73.1323 52.1536 73.2068C52.2284 73.2813 52.1037 74.9447 51.8544 76.8812L51.4306 80.4066L53.0261 82.0204C53.8736 82.9141 54.2725 83.4107 53.8487 83.1376C51.1814 81.3004 48.2647 77.7501 47.0432 74.7957C46.5945 73.753 46.2455 72.7351 46.2455 72.5364C46.2455 72.0151 47.0432 72.0399 49.8103 72.6109ZM10.1987 74.9695C12.3675 76.0867 14.2371 77.2039 14.3618 77.4025C14.636 77.8991 13.7635 80.9528 12.7165 83.1872C11.6695 85.4217 10.3482 86.9361 9.15166 87.2837C7.55623 87.7058 7.50637 87.5568 8.77774 86.2161C10.2984 84.6272 11.5947 81.9707 12.193 79.2646C12.2927 78.8922 12.2428 78.5942 12.1182 78.5942C11.9935 78.5942 11.819 78.8922 11.7193 79.2646C10.8219 82.9141 6.55909 87.4575 4.88887 86.5637C4.09115 86.1168 2.89458 84.6024 2.64529 83.6589C2.19657 82.0204 2.79486 78.917 4.24072 75.2178C5.03844 73.2316 5.2628 72.884 5.83616 72.884C6.06051 72.884 8.00495 73.8274 10.1987 74.9695ZM59.0588 74.3736C61.4769 74.7957 63.7952 75.1185 64.1692 75.1185C65.291 75.1185 65.9391 75.9377 65.9391 77.3777C65.9391 78.6191 65.9391 78.6439 65.266 78.4949C64.8672 78.3956 63.87 78.3211 62.9975 78.2963C61.3024 78.2467 60.6044 78.5942 59.6072 79.9349C59.1834 80.4811 59.0837 80.9776 59.0837 82.4176C59.0837 84.0065 59.1585 84.3293 59.7817 85.1237C60.5794 86.1913 61.6264 86.5389 63.9199 86.5389H65.4904L65.3159 87.4575C65.2162 87.9788 65.0915 88.4506 65.0417 88.5002C64.8672 88.674 61.0531 87.234 58.5353 85.9927L55.9676 84.7513V83.7583C55.9676 82.8397 55.8181 82.5914 54.447 81.2507L52.9513 79.7611L53.3252 76.757C53.5496 75.0936 53.7241 73.6537 53.7241 73.5295C53.7241 73.4302 53.9235 73.4054 54.1728 73.4799C54.4221 73.5792 56.6158 73.9764 59.0588 74.3736ZM23.4358 75.2426C25.6295 76.6826 28.4464 77.9984 30.341 78.4701C30.9393 78.6191 31.0889 78.9666 32.2107 82.3928C33.6316 86.812 33.7812 86.5885 30.1166 85.9182C23.5604 84.7265 19.4223 82.6907 18.0263 79.9846C17.3283 78.6439 17.3033 76.4839 17.9764 75.3419C18.45 74.5226 19.7962 73.6288 20.569 73.6288C20.7933 73.6288 22.0647 74.3488 23.4358 75.2426ZM15.0348 83.9569C13.215 87.7306 11.9686 91.4546 11.4202 94.707C11.0712 96.7428 10.9216 97.1897 10.5975 97.0904C9.47574 96.6683 7.40666 95.1787 6.23501 93.9622C4.81408 92.4725 4.36537 91.4298 4.36537 89.4685V88.3016L5.18801 88.6244C6.55909 89.1954 8.0548 89.3443 9.40095 88.9968C11.7442 88.4506 13.8632 85.6699 15.334 81.2259C15.9073 79.5128 15.9073 79.5128 16.2065 80.2328C16.4558 80.8783 16.356 81.2011 15.0348 83.9569ZM65.7147 80.3073C66.8365 81.4245 66.5872 82.6162 65.0915 83.1624C64.4683 83.3859 62.9975 82.8893 62.7233 82.3679C62.1749 81.35 63.2967 79.5873 64.4932 79.5873C64.7675 79.5873 65.3159 79.9101 65.7147 80.3073ZM129.133 80.5804C129.756 80.8038 130.654 82.3679 130.405 82.7652C130.355 82.8645 129.781 84.7762 129.158 87.0354C128.535 89.2947 127.239 93.987 126.266 97.4628C125.294 100.939 123.699 106.574 122.751 109.976C121.804 113.377 121.006 116.207 120.932 116.257C120.882 116.306 119.012 116.58 116.769 116.828C107.146 117.97 92.4632 119.658 80.2731 121.024C75.4868 121.57 71.1741 122.091 70.7254 122.19C70.1022 122.315 69.9526 122.265 70.0274 122.017C70.1022 121.818 71.9469 115.239 74.1406 107.394C76.3343 99.5482 78.4782 91.827 78.9269 90.2629C79.8742 86.8616 80.1983 86.1417 80.9461 85.8934C81.3949 85.7692 126.441 80.4563 128.061 80.357C128.286 80.3321 128.759 80.4314 129.133 80.5804ZM21.5911 85.1982C24.2335 86.5141 28.1971 87.5071 33.3324 88.1526C34.0803 88.2519 34.529 88.4506 34.6537 88.7237C34.9777 89.5678 37.3709 93.3911 38.4927 94.8311C39.1657 95.7249 39.44 96.2462 39.1907 96.1469C38.9414 96.0476 38.1437 95.7994 37.4207 95.6007C36.2491 95.2532 35.925 95.0049 35.0027 93.7635C33.6316 91.9512 32.0611 90.6353 30.2912 89.7912C29.1943 89.2947 28.5461 89.1705 26.9258 89.1457C25.1559 89.1457 24.7071 89.245 23.2363 89.965C21.0177 91.0574 17.403 94.3842 17.9016 94.9056C17.9764 94.9801 18.9237 94.3842 20.0206 93.5649C23.0618 91.2808 24.0341 90.8836 26.5519 90.8836C28.2969 90.8836 28.8702 91.0077 29.7676 91.4795C30.8396 92.0257 33.5319 94.3594 33.5319 94.7318C33.5319 94.8311 32.6843 94.9801 31.6373 95.0546C27.1751 95.3773 24.5326 98.0834 23.0618 103.794C22.4636 106.127 22.1395 108.635 22.4636 108.635C22.5882 108.635 23.1366 107.294 23.6601 105.631C24.8069 102.13 26.0034 99.6724 27.0754 98.5552C28.0476 97.5373 29.7676 96.7924 31.5376 96.5938L32.9087 96.4449L31.7869 97.1648C28.7705 99.1014 27.2499 102.155 26.4272 107.94C26.2029 109.479 25.7292 111.987 25.4051 113.526C25.0561 115.065 24.7071 117.25 24.6074 118.367L24.4329 120.428L23.5604 118.938C22.663 117.424 19.8211 114.345 19.3225 114.345C19.148 114.345 19.2727 114.718 19.5718 115.214C19.871 115.686 19.9956 116.083 19.871 116.083C19.7463 116.083 18.9735 115.636 18.1758 115.115C15.7328 113.501 14.0875 110.869 13.1652 107.269C12.4921 104.538 12.5669 97.1897 13.3147 93.7387C13.8881 91.0822 15.5583 86.5389 16.8795 84.0065L17.6274 82.6162L18.7741 83.4852C19.3973 83.9569 20.6687 84.7265 21.5911 85.1982ZM39.6394 98.1828C40.0382 98.4062 40.6365 99.151 41.0105 99.8213C41.5589 100.914 41.6337 101.336 41.6337 103.67C41.6337 105.109 41.534 106.698 41.4343 107.195L41.2348 108.138H34.6287H28.0476L28.1473 107.567C28.2221 107.269 28.3218 106.624 28.3966 106.177C28.4963 105.705 28.6708 104.886 28.8204 104.365L29.0696 103.421H35.2769C38.742 103.421 41.509 103.322 41.509 103.198C41.509 103.074 41.3096 102.776 41.0853 102.503C40.6615 102.056 40.3125 102.031 35.0774 102.18C32.0362 102.254 29.5433 102.23 29.5433 102.155C29.5433 101.783 31.1886 99.5979 31.8866 99.0765C33.8809 97.5621 37.7199 97.1152 39.6394 98.1828ZM44.675 100.988C46.7441 102.527 50.2839 104.265 52.4776 104.812C53.7989 105.134 54.1977 105.333 54.5218 105.929L54.9456 106.624L54.1479 106.748C53.6991 106.798 51.2811 107.046 48.7383 107.269C46.1956 107.493 43.9271 107.741 43.6778 107.791C43.254 107.915 43.2291 107.766 43.4036 105.234C43.5283 103.198 43.4784 102.205 43.1793 101.112C42.9798 100.343 42.8303 99.6972 42.8801 99.6972C42.93 99.6972 43.7526 100.268 44.675 100.988ZM72.0965 108.461C72.0466 108.635 71.1741 111.664 70.177 115.214C69.1798 118.764 68.2824 121.768 68.1578 121.893C68.058 121.992 62.15 120.006 55.0204 117.449C42.6308 113.004 42.0824 112.781 42.207 112.235C42.3317 111.54 41.8331 111.639 50.8323 110.596C57.4883 109.851 57.5132 109.851 58.0617 110.323C60.9534 112.98 66.5125 112.508 70.1271 109.28C71.3736 108.188 72.3707 107.766 72.0965 108.461ZM40.8609 110.298C40.6116 111.465 40.2377 112.955 40.113 113.402C39.9884 113.824 39.4649 113.849 33.482 113.849C27.549 113.849 27.0006 113.824 27.1501 113.427C27.2499 113.203 27.4493 112.26 27.5989 111.316L27.898 109.628H34.4542H41.0105L40.8609 110.298ZM39.5147 115.388C39.5147 116.058 38.2683 118.317 37.9193 118.317C37.695 118.317 37.5952 118.466 37.67 118.665C37.8445 119.137 36.5233 119.311 32.6344 119.311C30.0169 119.311 29.294 119.236 29.0447 118.938C28.8702 118.74 28.596 118.566 28.3966 118.566C28.2221 118.566 27.9977 118.466 27.9229 118.317C27.8481 118.169 27.9479 118.144 28.1722 118.218C28.4464 118.317 28.2719 117.895 27.6736 116.927L26.8011 115.462L31.2384 115.338C39.789 115.065 39.5147 115.065 39.5147 115.388Z" fill="black"/>
<path d="M102.634 95.3576C103.509 93.2618 102.012 93.0565 101.155 93.2159C91.7392 100.603 97.4625 108.51 101.213 110.12C104.964 111.73 111.041 109.063 108.139 107.918C98.9618 104.297 101.539 97.9773 102.634 95.3576Z" fill="#A79CEE"/>
</svg>
