<svg width="120" height="120" viewBox="0 0 120 120" fill="none" xmlns="http://www.w3.org/2000/svg">
<path d="M57.0272 5.18767C61.2527 4.16037 66.2916 5.52236 68.7599 9.2783C70.4403 9.74314 72.1254 10.4753 73.3107 11.7954C75.8674 9.6525 79.2166 8.35326 82.5751 8.56244C84.8784 8.79951 87.2235 9.5665 88.9318 11.1865C90.5797 12.6786 91.8254 14.703 91.9719 16.9622C95.0445 16.323 98.3054 17.2597 100.848 19.0307C103.075 20.5508 105.06 22.5635 106.194 25.0365C107.34 27.8837 107.544 31.2515 106.108 34.0359C107.13 34.1219 108.097 34.524 108.953 35.0795C111.995 37.1573 114.607 40.1323 115.535 43.7651C116.553 47.2374 116.097 51.0585 114.484 54.2752C117.917 56.7319 118.993 61.4175 118.317 65.4059C118.112 68.4948 116.313 71.4209 113.659 72.9991C112.358 74.0125 110.67 74.2332 109.094 74.5168C106.377 74.9026 103.639 75.1722 100.904 75.3628C100.604 75.4 100.504 75.7208 100.362 75.9369C98.4611 79.4674 96.3344 82.8724 94.159 86.2402C91.7162 89.7869 88.7738 93.5661 84.3949 94.6771C84.3136 95.709 83.9626 96.6875 83.7511 97.6939C83.1445 100.641 82.6146 103.602 82.2078 106.582C83.614 107.444 85.2549 107.981 86.41 109.21C87.514 110.317 88.3763 111.893 88.0649 113.499C87.8417 114.27 87.0259 114.61 86.2985 114.719C82.4984 115.179 78.682 114.628 74.9446 113.952C72.6227 113.582 70.1707 113.396 68.0928 112.197C66.9331 111.532 66.5751 110.115 66.6983 108.864C66.8959 106.142 67.2073 103.425 67.6257 100.729C68.1998 97.5777 68.488 94.3866 68.8691 91.2094C64.9645 88.7968 61.7454 85.4337 58.9494 81.8242C57.8338 80.3971 56.9506 78.8096 55.9256 77.3198C53.4387 77.35 50.9541 77.4267 48.4695 77.5313C47.7978 81.006 47.0192 84.4645 46.4381 87.9554C45.4224 94.6934 44.2231 101.399 43.0447 108.109C42.8542 109.173 42.4265 110.493 41.2481 110.8C40.1604 110.961 39.0517 110.93 37.957 110.991C34.2964 111.163 30.6706 110.556 27.0309 110.261C25.4388 110.049 23.6654 109.984 22.3987 108.862C21.7944 108.348 21.3156 107.384 21.8595 106.663C22.6009 105.622 23.7282 104.948 24.7787 104.255C26.4847 103.128 28.4789 102.6 30.4033 101.989C30.9797 101.84 30.8077 101.148 30.8589 100.706C30.903 95.4859 31.0216 90.2355 32.0465 85.099C30.2104 86.8189 28.5346 88.7875 26.2825 89.9984C25.0251 90.6771 23.4818 91.1141 22.1012 90.5307C19.0123 89.2198 16.5347 86.7747 14.6846 84.0205C13.5365 82.2355 12.4325 80.4133 11.5609 78.4749C9.90836 78.5191 8.214 78.6586 6.59402 78.2309C4.50687 77.5336 2.59404 76.0159 1.82472 73.9032C0.646345 70.6284 2.37789 66.9724 4.92988 64.8666C3.73291 61.8545 4.04203 58.3612 5.56207 55.5256C6.01064 54.6331 6.86131 54.066 7.45631 53.2944C7.20529 52.0532 6.74742 50.8493 6.68931 49.5756C6.5731 46.5913 7.5423 43.5791 9.34125 41.2038C10.752 39.5048 12.4394 37.8569 14.6033 37.1991C14.6265 35.6094 14.501 33.9336 15.2866 32.4856C15.5911 32.0092 15.9699 31.5745 16.1837 31.0446C17.8549 26.9772 21.297 23.7256 25.39 22.1568C27.8281 21.2201 30.5195 20.4834 33.132 21.0621C33.7525 18.7286 34.6264 16.4253 36.0837 14.4776C37.7711 12.3904 40.1767 11.0075 42.6752 10.1173C45.1412 9.32943 47.9698 9.15512 50.3684 10.2498C51.9697 7.91398 54.2149 5.87797 57.0272 5.18767ZM52.2719 10.6659C51.8047 11.2237 51.5096 12.0325 50.7519 12.2579C50.0337 12.2951 49.4619 11.7489 48.7763 11.6188C45.1854 10.6937 41.3969 12.1487 38.6659 14.4892C36.5579 16.3858 35.7397 19.2074 34.8193 21.7896C34.6357 22.4008 34.0919 22.7657 33.5317 23.0028C33.1761 22.875 32.7903 22.9098 32.4207 22.9261C30.5846 22.5217 28.7113 23.1306 26.9821 23.721C23.7072 24.8575 20.8113 27.0702 19.0007 30.0429C19.6143 30.0196 20.2279 29.9871 20.8392 29.9406C23.8909 29.4874 26.9867 29.4037 30.064 29.2108C28.6137 28.7622 27.0983 28.5135 25.7014 27.9069C25.2947 27.7489 25.0646 27.363 24.8043 27.0377C24.9879 26.6658 25.3017 26.4264 25.6852 26.2916C26.408 26.6635 27.2005 26.8564 27.9838 27.0539C29.9083 27.5164 31.835 28.0929 33.5712 29.0574C35.5189 29.0132 37.4573 28.8459 39.4004 28.7274C39.8164 28.6902 40.2301 28.6483 40.6462 28.6088C41.1156 28.0394 41.7618 27.5653 41.9779 26.8285C42.057 26.1963 42.1383 25.4456 41.6735 24.9342C40.9948 24.2323 39.9907 24.0464 39.0796 23.8372C38.6311 23.6885 38.6171 23.0028 38.9936 22.7681C39.7048 22.3451 40.523 22.7727 41.2295 22.9865C42.6357 23.4305 43.5491 24.9017 43.484 26.3497C43.5235 27.1353 43.1447 27.8418 42.7868 28.5112C44.674 28.2974 46.5729 28.223 48.4695 28.0929C49.7455 25.6873 52.165 24.1324 54.6798 23.2608C54.552 21.5037 54.4148 19.6908 54.961 17.9848C55.6095 15.9372 56.7553 14.022 58.3125 12.5345C60.2323 10.8262 62.6844 9.83844 65.1574 9.24576C65.5455 9.22949 65.9313 9.19928 66.3195 9.15279C64.5484 7.29574 61.8361 6.58918 59.3305 6.67518C56.4834 6.67053 53.9291 8.46018 52.2719 10.6659ZM76.9086 11.57C76.1207 11.8837 75.3932 12.3835 74.7169 12.8971C74.2451 13.2341 73.9894 14.0615 73.2921 13.8733C72.6297 13.4387 72.137 12.7948 71.4699 12.3625C69.7059 11.1632 67.4258 10.5752 65.334 11.1656C62.868 11.735 60.309 12.7367 58.7146 14.8006C57.3968 16.581 56.3021 18.7053 56.4299 20.9854C56.3997 22.008 56.7065 23.0144 56.6252 24.0348C56.416 24.7111 55.5909 24.6205 55.047 24.8111C53.2271 25.4014 51.4793 26.4427 50.3196 27.9929C55.5095 27.7233 60.6949 27.4862 65.8825 27.1678C68.4345 27.1306 70.9865 27.1144 73.5385 27.0609C75.1655 26.9052 76.9783 26.9749 78.3217 28.0254C79.5303 28.8343 80.1695 30.273 80.2741 31.6907C80.4135 33.4781 80.7505 35.2422 80.8551 37.0318C81.1526 40.1184 81.2758 43.3769 79.9719 46.2729C79.1631 48.5251 77.2619 50.1915 75.1492 51.2026C71.3979 52.9643 67.1748 53.4245 63.0749 53.2223C62.9563 53.2223 62.7216 53.22 62.6031 53.22L62.7727 53.1898C60.6484 52.8132 58.2591 52.7435 56.588 51.1863C54.0732 49.0968 53.1551 45.7499 52.853 42.6192C52.7414 40.5576 52.4671 38.5123 52.2696 36.46C51.2283 35.9348 50.0267 35.9929 48.9018 36.0951C47.8094 36.1928 46.6914 36.0789 45.6153 36.3136C43.3934 37.6245 41.8664 40.0579 41.7897 42.6541C41.534 46.2218 43.9396 49.5059 47.0633 51.0166C47.5119 51.3002 48.1162 51.442 48.3951 51.9324C48.5043 52.453 48.0116 52.9132 47.4956 52.7551C44.8948 51.8626 42.6171 49.9963 41.355 47.5373C41.1389 49.0596 40.7693 50.5959 39.8792 51.8789C39.1168 52.7923 38.1313 53.5268 37.0041 53.9265C34.9286 54.6633 32.7647 55.2072 30.5544 55.3048C27.8862 55.4582 25.139 55.5884 22.5405 54.8516C20.2139 54.2519 18.1431 52.6668 17.0065 50.5448C16.0931 48.89 15.7166 47.019 15.2912 45.1968C14.9496 43.2444 14.7032 41.2689 14.6103 39.2886C13.0856 40.0556 11.6887 41.2503 10.8195 42.7261C9.49 44.4809 9.00888 46.7331 8.84386 48.8876C8.71603 50.4844 9.34125 51.9858 9.55508 53.5384C9.51556 54.9306 7.93742 55.4954 7.3889 56.6529C6.25004 58.9469 6.32209 61.629 6.74742 64.0927C6.86363 64.3786 7.0147 64.6459 7.15416 64.9201C6.90314 65.9846 5.80843 66.4332 5.20879 67.2629C4.19775 68.5854 3.52605 70.224 3.4633 71.8974C3.48886 74.1589 5.38543 75.909 7.40285 76.5947C8.53939 76.7202 9.68058 76.9224 10.8287 76.8341C9.6341 73.9636 8.66025 70.8794 8.82527 67.7347C8.83922 67.0375 9.22968 66.0218 10.1013 66.1984C10.7544 66.4285 10.5894 67.1792 10.6079 67.7161C10.852 71.1467 11.9025 74.4657 13.3505 77.5708C14.3267 79.7091 15.5841 81.701 16.9112 83.6347C18.4034 85.5592 20.1907 87.314 22.3755 88.4366C23.5097 89.0664 24.8624 88.5388 25.8943 87.9415C27.6793 86.8421 29.1901 85.357 30.6032 83.823C32.9553 81.2106 35.1656 78.4726 37.4806 75.8253C38.4846 74.5261 39.7374 73.192 41.448 72.9503C43.9001 72.7109 46.5264 72.5993 48.6624 71.2211C49.4131 70.7748 49.7129 69.8893 49.6804 69.0549C49.3457 68.8899 48.9878 68.783 48.6159 68.7644C46.7007 68.8178 44.7833 69.4151 42.8681 69.0293C42.0267 68.9178 41.1923 68.353 40.9739 67.5C40.76 66.7911 41.2528 66.1101 41.8083 65.7243C43.828 64.3716 46.4985 64.9898 48.5578 63.7673C48.2952 63.2955 47.8094 63.0561 47.2772 63.0491C45.4108 63.0189 43.5514 63.5883 41.6828 63.3071C40.5904 63.1584 39.5096 62.4936 39.1145 61.4291C38.7542 60.5436 39.2516 59.5791 39.9396 59.0143C41.0529 58.1264 42.4358 57.6616 43.7931 57.2967C41.8431 56.6645 39.6909 56.6575 37.7362 57.2711C35.7258 57.8661 33.6828 58.6006 32.0372 59.937C29.7246 62.0846 27.935 64.7086 26.1663 67.2978C25.7363 68.0578 24.6532 68.3948 23.9652 67.7719C22.9658 66.8469 22.5614 65.4849 21.7038 64.4483C21.4388 64.1485 21.297 63.7743 21.1762 63.4001C21.4132 63.1886 21.5364 62.747 21.9083 62.7446C22.2662 62.6377 22.487 63.0096 22.752 63.1746C23.8165 63.937 24.1395 65.2711 24.9042 66.2775C26.573 63.8765 28.3417 61.5291 30.3963 59.4419C32.8368 57.1293 36.1302 55.9998 39.3678 55.3629C40.0488 54.5634 40.3208 53.399 41.2412 52.783C41.7943 52.969 41.9407 53.485 41.8176 54.0172C41.4759 54.3728 41.2551 54.8214 41.0041 55.2421C42.5567 55.4768 44.3533 55.6813 45.4643 56.9155C48.0279 56.625 50.6217 56.6831 53.1667 57.1316C52.674 56.374 52.4857 55.4141 51.9116 54.7307C51.9349 54.2566 52.1743 53.8708 52.5787 53.6267C53.2829 53.8359 53.5781 54.5216 53.8849 55.1212C54.359 55.9858 54.7751 56.9411 55.4723 57.6453C59.1376 58.9631 62.703 60.7063 65.7314 63.1839C67.8744 65.0642 69.8546 67.1211 71.9046 69.0991C74.2334 71.2118 76.4275 73.4941 79.0004 75.3163C79.2142 75.4604 79.4676 75.5255 79.7093 75.6138C80.7831 73.4244 81.7569 71.1769 83.0631 69.113C84.6622 66.3588 86.503 63.7557 88.3345 61.1549C88.9876 60.3879 89.4757 59.3815 90.4681 59.0003C90.84 59.2048 91.3467 59.5186 91.2072 60.0276C91.0189 60.4297 90.7493 60.7853 90.5378 61.1758L90.5076 60.9527C90.0009 61.966 89.22 62.8004 88.5762 63.7231C85.9498 67.4093 83.5605 71.2838 81.6872 75.4093C81.3293 76.1228 81.2224 77.0432 80.5205 77.5267C79.8395 77.8916 79.0167 77.615 78.4101 77.2292C77.4757 76.6272 76.6041 75.9369 75.7535 75.228C72.6553 72.4482 69.7523 69.4616 66.7843 66.5471C63.7256 63.328 59.7838 61.0387 55.6467 59.4954C51.8907 58.3542 47.814 57.8893 43.9651 58.84C42.6961 59.1839 41.3388 59.6441 40.5253 60.7435C40.86 61.1758 41.3225 61.5593 41.8966 61.5825C43.3794 61.6894 44.8576 61.4524 46.3358 61.3826C47.477 61.3733 48.7879 61.4547 49.606 62.3658C50.4032 63.1281 50.4265 64.611 49.4782 65.2641C47.5305 66.6935 44.7786 65.808 42.8216 67.1444C44.767 67.4186 46.7054 66.9399 48.6531 66.9515C49.7292 66.9584 51.0075 67.4582 51.2539 68.6272C51.3259 69.2129 51.8861 69.4686 52.3161 69.7684C54.8169 71.8718 56.3579 74.805 58.1615 77.4755C60.1766 80.6434 62.5728 83.5766 65.3154 86.1449C68.7924 89.4174 73.062 91.8741 77.7105 93.0176C80.5507 93.6358 83.707 93.6079 86.2659 92.0693C89.127 90.3843 91.1933 87.6533 92.9341 84.8851C94.661 82.2216 96.3228 79.5116 97.9288 76.7713C100.107 73.0735 101.578 69.0177 102.889 64.948C103.117 64.36 103.293 63.6999 103.784 63.2722C104.313 62.9608 104.957 63.3861 104.943 63.9811C104.374 67.3652 102.945 70.5215 101.543 73.629C104.181 73.4082 106.828 73.2687 109.443 72.8387L109.476 72.7644C110.819 72.5738 112.293 72.2065 113.194 71.1118C114.136 70.0241 115.093 68.9061 115.651 67.5604C117.211 63.937 116.925 59.1839 113.903 56.3902C113.285 55.8022 112.258 55.2258 112.481 54.2194C112.808 53.1967 113.341 52.2485 113.617 51.2072C114.731 47.4722 114.166 43.1096 111.642 40.0556C110.6 38.7819 109.371 37.65 108 36.7389C106.954 36.0277 105.675 35.8604 104.446 35.7651C103.725 35.6512 103.412 34.7122 103.872 34.1591C105.162 32.2323 105.503 29.7663 104.969 27.5281C104.374 24.388 102.008 21.9011 99.3792 20.2556C97.5918 19.0656 95.4303 18.5031 93.292 18.5426C92.5227 18.6031 91.7116 19.0656 90.9562 18.7053C89.9963 18.1196 90.3008 16.846 89.9568 15.9302C89.1201 13.5409 87.1445 11.5305 84.6901 10.8239C82.1428 10.0128 79.2328 10.2057 76.9086 11.57ZM67.5536 28.8366C66.0522 28.732 64.5647 29.0016 63.0656 28.9923C61.6757 29.0132 60.2974 29.2247 58.9099 29.3014L58.9935 29.3177C57.7175 29.1876 56.4508 29.4665 55.1772 29.4665C54.208 29.513 53.2155 29.4734 52.2672 29.7105C50.975 30.6518 51.1958 32.481 51.6327 33.8128C51.8535 34.6867 52.9389 34.6472 53.4387 35.2747C54.3846 36.2323 53.9848 37.6849 54.2149 38.8819C54.6891 41.4478 54.6751 44.116 55.5769 46.5867C56.1255 48.1764 57.262 49.5756 58.7658 50.3473C59.8326 50.7935 60.9761 51.0585 62.1312 51.1142C63.4188 51.2026 64.7111 51.4094 66.0011 51.2467C67.9116 51.263 69.8104 50.8609 71.6652 50.4286C73.2735 49.9684 74.9214 49.4083 76.1881 48.2694C77.9429 46.7401 78.7145 44.3973 79.0144 42.1544C79.105 39.2863 79.0283 36.4089 78.7169 33.5548C78.7401 32.1114 78.5146 30.596 77.6965 29.3758C76.6669 28.2997 75.0795 28.6623 73.7546 28.639C71.6884 28.725 69.6152 28.66 67.5536 28.8366ZM45.5805 29.9755C44.5555 31.2608 44.6299 33.0667 45.4015 34.4566C47.0192 34.4031 48.6368 34.3241 50.2568 34.3264C49.8524 32.8412 49.5107 31.2143 50.1894 29.75C48.6508 29.7965 47.1214 30.0103 45.5805 29.9755ZM41.1342 30.6402C40.5904 31.5071 40.265 32.6437 40.6973 33.6222C40.9367 34.2079 41.4341 34.6216 41.9105 35.0121C42.552 34.847 43.2005 34.7006 43.8466 34.5565C43.1865 33.1713 43.1633 31.5373 43.7606 30.1265C43.061 30.187 42.3568 30.2102 41.6618 30.3009C41.4131 30.3032 41.2388 30.4171 41.1342 30.6402ZM35.1773 30.6379C34.1895 30.6844 33.1691 30.5681 32.2209 30.8935C31.333 30.8261 30.4196 30.7982 29.5387 30.94C27.691 30.8935 25.8502 31.1236 24.0117 31.2677C22.5475 31.4885 21.0623 31.284 19.5957 31.4932C18.4266 31.5699 17.3854 32.316 16.7462 33.2666C16.1396 34.352 16.5603 35.6349 16.3906 36.8064C16.1117 38.9702 16.4417 41.1433 16.7206 43.2863C16.9019 45.1247 17.3459 46.9446 18.0803 48.6413C18.9054 50.5681 20.5138 52.1718 22.4917 52.8876C24.9089 53.7499 27.5376 53.6779 30.057 53.4478C31.6537 53.3664 33.2296 53.0619 34.7798 52.6831C36.2557 52.2764 37.9338 51.7906 38.7054 50.331C39.7072 48.3972 39.8048 46.1265 39.5817 43.9975C39.4352 41.2805 39.1982 38.2869 40.7926 35.9115C38.9216 34.8168 38.5846 32.2695 39.5421 30.4473C38.0825 30.4124 36.6346 30.6472 35.1773 30.6379ZM41.7106 38.166C42.0732 37.5989 42.4986 37.0736 42.8728 36.5135C42.1801 36.7785 41.8547 37.4873 41.7106 38.166ZM51.1191 70.9631C50.7147 71.7347 50.1592 72.4413 49.3945 72.8829C47.7373 73.9706 45.699 74.1008 43.7885 74.3541C42.5567 74.4959 41.0645 74.4215 40.2301 75.5232C43.1958 75.5697 46.1662 75.486 49.1272 75.6534C51.0354 75.6905 52.9436 75.6557 54.8471 75.5302C53.7524 73.8986 52.7042 72.1763 51.1191 70.9631ZM38.0918 77.8404C37.018 79.1606 35.928 80.4668 34.824 81.7637C34.5614 82.1007 34.1616 82.3913 34.1151 82.8445C33.534 86.1495 33.0343 89.4732 32.7694 92.82C32.5881 95.8717 32.4835 98.9304 32.4068 101.987C32.3836 102.912 31.5492 103.511 30.7241 103.709C28.0373 104.457 25.2412 105.387 23.2749 107.465C24.2348 108.148 25.4388 108.23 26.5707 108.36C31.2819 108.82 36.021 109.401 40.7554 109.052C41.111 108.72 41.1273 108.148 41.2481 107.695C41.9059 103.332 42.8518 99.021 43.6002 94.6724C44.5601 88.9339 45.4991 83.1885 46.7914 77.5127C44.1557 77.5592 41.5224 77.3988 38.8867 77.4407C38.5567 77.3919 38.2778 77.5894 38.0918 77.8404ZM68.3392 109.104C68.3299 109.603 68.2741 110.259 68.7808 110.549C69.6617 111.088 70.696 111.272 71.6884 111.5C76.5019 112.355 81.3758 113.603 86.2938 112.927C86.173 112.072 85.8243 111.249 85.2154 110.631C84.1323 109.45 82.5634 108.948 81.3037 108.013C80.3717 107.293 80.3043 105.975 80.4345 104.899C80.9272 101.575 81.6082 98.2796 82.5216 95.0466C79.9882 95.2535 77.4176 94.9025 75.0167 94.0751C73.4595 93.5568 71.9859 92.8224 70.4728 92.1995C70.101 97.8752 68.7715 103.435 68.3392 109.104Z" fill="black"/>
<path d="M60.3726 19.6901C61.2744 19.2044 62.2459 18.7163 63.2895 18.6861C63.8519 18.6442 64.1587 19.1439 64.3493 19.5902C64.0495 20.3804 63.1407 20.1178 62.5294 20.4455C61.8624 20.7407 61.1791 21.0521 60.6468 21.5611C59.7055 22.5629 59.6381 24.2944 60.6445 25.2729C61.4835 25.9121 62.6108 25.5471 63.5544 25.3868C66.5666 24.7476 69.5393 23.9388 72.5399 23.2531C74.8153 22.7767 77.0907 22.2816 79.3359 21.6634C80.2075 21.4193 81.0418 21.0428 81.932 20.8708C82.3085 20.815 82.8199 21.0428 82.8152 21.4821C82.8478 22.1073 82.1249 22.2816 81.674 22.4769C78.9198 23.4461 76.0424 23.9992 73.1906 24.5872C69.8577 25.2473 66.5922 26.2049 63.2732 26.9208C62.2412 27.1439 61.0768 27.3112 60.1239 26.7395C58.8572 26.0329 58.3644 24.478 58.4342 23.1021C58.3877 21.7192 59.157 20.3525 60.3726 19.6901Z" fill="black"/>
<path d="M58.7852 30.9962C62.2715 30.6591 65.7509 30.2059 69.2535 30.0851C70.985 30.0827 72.7305 30.1176 74.4388 30.4197C75.7543 30.6545 76.7049 31.8143 77.0187 33.0647C77.8856 36.5766 77.7183 40.3418 76.5283 43.7561C75.6451 46.1082 73.5904 47.7445 71.3662 48.7625C68.6631 49.8293 65.7044 49.3621 62.8758 49.4342C61.5115 49.3389 60.0519 49.2389 58.9223 48.379C57.3511 47.3191 56.884 45.3459 56.5237 43.6027C55.9473 40.0467 55.522 36.4511 55.5963 32.8439C55.5685 32.2443 55.8102 31.5702 56.4121 31.3425C57.1722 31.0775 57.9926 31.0868 58.7852 30.9962ZM65.5208 31.8863C62.7131 32.3372 59.8706 32.4465 57.0536 32.8114C57.1582 35.3029 57.1443 37.8061 57.4999 40.2791C57.7974 42.1756 57.9624 44.1489 58.7945 45.906C59.2802 47.0379 60.5283 47.5678 61.6788 47.7236C63.9101 48.0373 66.1762 47.9048 68.4144 47.7514C70.4481 47.6329 72.3818 46.6242 73.7485 45.1321C74.476 44.121 74.9222 42.9403 75.3359 41.7736C75.9635 39.7933 75.9588 37.6829 75.8821 35.6283C75.7892 34.5336 75.6474 33.4133 75.1453 32.4209C74.6991 31.7538 73.7903 31.798 73.0814 31.6725C70.562 31.5238 68.0286 31.6005 65.5208 31.8863Z" fill="black"/>
<path d="M24.0106 32.667C25.5516 32.4811 27.1065 32.5136 28.6498 32.3788C30.7486 32.2626 32.845 32.502 34.9438 32.4648C35.9571 32.4648 36.7357 33.2481 37.1564 34.1034C38.1721 36.1649 37.7073 38.5403 37.9862 40.746C37.9931 43.5792 37.9606 46.6634 36.2895 49.0899C35.1413 50.8889 32.938 51.5745 30.9368 51.8813C28.3732 52.0603 25.7306 52.6576 23.232 51.7419C20.8125 50.7564 19.0066 48.5065 18.5232 45.9453C18.0513 43.377 17.7631 40.7808 17.4424 38.1917C17.4075 36.5787 17.5237 34.617 18.9624 33.5874C20.5429 32.8622 22.3186 32.8762 24.0106 32.667ZM26.3883 33.8616C24.594 34.0011 22.7927 34.0987 21.0124 34.3753C20.3221 34.5031 19.4761 34.71 19.2042 35.4468C18.3628 37.7129 19.074 40.1068 19.3134 42.4078C19.6202 44.1068 19.6876 45.9034 20.5197 47.456C21.2913 48.8273 22.5045 50.0266 24.0455 50.4705C26.1722 51.1329 28.4011 50.6239 30.5556 50.4124C32.1105 50.1126 33.8514 49.6501 34.7602 48.2276C36.4034 45.8546 36.4568 42.8471 36.4359 40.072C36.3058 38.5705 36.4266 37.0481 36.1454 35.5583C35.9362 34.6844 35.2668 33.6897 34.2395 33.8221C31.6248 33.9709 29.0054 33.7292 26.3883 33.8616Z" fill="black"/>
<path d="M52.2773 10.6666C53.9345 8.46089 56.4888 6.67124 59.3359 6.67589C61.8414 6.58989 64.5538 7.29645 66.3249 9.15351C65.9367 9.19999 65.5509 9.2302 65.1628 9.24647C63.5567 8.62591 61.8414 8.25868 60.1146 8.31214C58.3551 8.55618 56.591 9.00708 55.0478 9.91817C53.1814 10.8827 51.7264 12.5306 49.7021 13.2023C48.9815 13.5486 48.2331 13.0768 47.4964 13.0489C45.4371 12.9304 43.2221 13.0768 41.4604 14.2668C39.0571 15.7613 37.6626 18.3225 36.3355 20.7304C35.7986 21.7113 35.2315 22.8594 34.0856 23.222C33.9485 23.1685 33.6742 23.057 33.5371 23.0035C34.0972 22.7665 34.6411 22.4016 34.8247 21.7903C35.7451 19.2081 36.5632 16.3865 38.6713 14.4899C41.4023 12.1494 45.1907 10.6945 48.7817 11.6195C49.4673 11.7497 50.0391 12.2958 50.7572 12.2587C51.5149 12.0332 51.8101 11.2244 52.2773 10.6666Z" fill="#A79CEE"/>
<path d="M76.9121 11.5708C79.2363 10.2065 82.1463 10.0136 84.6936 10.8247C87.148 11.5313 89.1236 13.5417 89.9603 15.931C90.3043 16.8468 89.9998 18.1204 90.9597 18.7061C91.7151 19.0664 92.5262 18.6039 93.2955 18.5435C95.4338 18.5039 97.5953 19.0664 99.3827 20.2564C102.011 21.9019 104.377 24.3889 104.972 27.5289C105.507 29.7671 105.165 32.2331 103.875 34.1599C103.415 34.713 103.729 35.652 104.449 35.7659C105.679 35.8612 106.957 36.0285 108.003 36.7398C109.374 37.6509 110.604 38.7827 111.645 40.0564C114.169 43.1104 114.734 47.473 113.621 51.208C113.344 52.2493 112.812 53.1976 112.484 54.2202C112.261 55.2266 113.288 55.803 113.907 56.391C116.928 59.1847 117.214 63.9378 115.655 67.5612C115.097 68.9069 114.139 70.0249 113.198 71.1126C112.296 72.2073 110.822 72.5746 109.479 72.7651C109.872 71.61 110.967 70.9128 111.436 69.8018C110.52 70.262 109.686 71.0173 108.61 71.0336C108.191 70.9778 107.954 70.5966 107.675 70.3294C108.236 69.2463 109.437 68.7838 110.162 67.8425C111.906 65.8738 112.189 62.9593 111.415 60.5165C110.874 59.022 109.763 57.8437 108.752 56.6513C108.017 55.8611 108.14 54.613 108.559 53.6973C109.395 51.9541 109.821 50.0575 110.227 48.1796C110.541 46.8966 110.33 45.5648 110.132 44.2818C109.711 42.3365 108.208 40.9094 107.424 39.1314C107.564 38.8966 107.703 38.6665 107.843 38.4341C106.785 37.6997 105.721 36.9536 104.524 36.4632C103.945 36.175 103.166 35.9704 102.976 35.2685C102.334 33.5044 103.001 31.6637 102.967 29.8624C102.943 28.684 102.988 27.4196 102.323 26.3877C101.628 25.2302 101.017 23.9961 100.126 22.9734C99.0456 22.1018 98.0137 21.0792 96.6471 20.6817C94.4972 19.8171 92.0962 20.2378 89.9161 19.5127C89.5256 19.3964 89.2351 19.8102 88.9144 19.9682C89.0655 19.9705 89.3629 19.9798 89.5117 19.9821C89.3699 20.4307 89.4257 21.0815 88.9074 21.2977C88.5843 21.5115 88.1311 21.3093 87.987 20.9699C86.9713 18.7898 86.3554 16.4098 84.9888 14.3994C84.4426 13.5812 83.6407 12.9909 82.9016 12.3587C83.1038 11.8729 83.4873 11.5522 83.9917 11.4127C82.6785 10.8201 81.2026 10.9851 79.8081 11.0618C78.8156 11.0827 77.9069 11.5824 76.9121 11.5708ZM85.1213 11.9752C85.6372 12.54 86.2694 12.9955 86.6738 13.6626C88.0405 15.1919 88.3798 17.286 89.2049 19.1036C89.5838 18.3157 89.0701 17.5324 88.8586 16.777C88.2915 14.8131 87.0666 12.8026 85.1213 11.9752Z" fill="#A79CEE"/>
<path d="M63.99 12.5657C65.9563 11.9335 67.9923 12.7446 69.7401 13.6348C70.6535 14.2577 72.0364 15.0851 71.4926 16.4006C70.4304 16.3077 69.5565 15.6476 68.5966 15.2525C67.0603 14.4204 65.2637 14.1787 63.5391 14.3367C63.1486 14.3786 62.5211 14.3274 62.5281 13.7975C62.4699 12.9794 63.3764 12.7516 63.99 12.5657Z" fill="#A79CEE"/>
<path d="M75.0789 21.1285C76.3386 21.0355 77.6076 20.322 78.865 20.7845C79.2555 20.8914 79.2508 21.3493 79.3368 21.6654C77.0916 22.2836 74.8162 22.7787 72.5408 23.2552C69.5403 23.9408 66.5676 24.7496 63.5554 25.3888C62.6118 25.5492 61.4845 25.9141 60.6455 25.2749C59.6391 24.2964 59.7065 22.5649 60.6478 21.5631C61.0638 21.6026 61.4287 21.7955 61.7634 22.0349C61.7843 22.3278 61.8099 22.6206 61.8332 22.9135C64.1062 23.2691 66.4002 22.795 68.6547 22.5021C70.7698 21.9257 72.929 21.5469 75.0789 21.1285Z" fill="#A79CEE"/>
<path d="M96.2617 22.3509C96.3617 22.0604 96.4174 21.7117 96.7359 21.5723C98.2187 21.8 99.3553 22.8947 100.315 23.9662C102.151 26.1138 102.818 29.1283 102.358 31.8848C102.049 32.6541 101.719 33.4258 101.275 34.1254C101.015 34.5693 100.443 34.467 100.013 34.5205C99.5668 32.9935 100.043 31.3898 99.9991 29.8349C99.9084 28.9633 99.6923 28.1103 99.5272 27.2503C98.8416 25.3863 97.633 23.7687 96.2617 22.3509Z" fill="#A79CEE"/>
<path d="M26.9833 23.7216C28.7125 23.1313 30.5859 22.5223 32.422 22.9267C32.8729 23.0383 33.3354 23.0778 33.7933 23.1545C32.085 23.5612 30.3186 23.6821 28.6358 24.2167C25.3657 24.9256 22.6579 27.2056 20.8404 29.9412C20.2291 29.9877 19.6155 30.0202 19.002 30.0435C20.8125 27.0708 23.7085 24.8582 26.9833 23.7216Z" fill="#A79CEE"/>
<path d="M25.6895 26.2926C26.4355 25.7464 27.3675 25.9115 28.2019 26.109C30.2194 26.6041 32.2879 26.8388 34.3332 27.1898C35.3094 27.3594 36.2763 27.6291 37.2734 27.6128C37.7963 27.643 38.3425 27.5663 38.8469 27.7429C39.2792 27.8754 39.2652 28.3821 39.4047 28.7284C37.4616 28.8469 35.5232 29.0143 33.5755 29.0585C31.8393 28.0939 29.9126 27.5175 27.9881 27.055C27.2048 26.8574 26.4123 26.6645 25.6895 26.2926Z" fill="#A79CEE"/>
<path d="M99.2824 36.0942C99.4521 35.6735 99.9123 35.6014 100.305 35.541C100.528 36.0756 100.419 37.1633 99.6194 36.9541C99.1895 36.9146 99.2592 36.394 99.2824 36.0942Z" fill="#A79CEE"/>
<path d="M10.8226 42.7266C11.6919 41.2507 13.0887 40.0561 14.6134 39.2891C14.7064 41.2693 14.9528 43.2449 15.2944 45.1972C15.7198 47.0194 16.0963 48.8904 17.0097 50.5453C18.1462 52.6673 20.2171 54.2524 22.5437 54.852C25.1421 55.5888 27.8894 55.4587 30.5576 55.3053C32.7679 55.2076 34.9317 54.6638 37.0073 53.927C38.1345 53.5272 39.12 52.7928 39.8823 51.8794C40.4587 51.977 40.9329 52.2884 41.2443 52.7835C40.3239 53.3994 40.052 54.5638 39.371 55.3634C36.1334 56.0002 32.84 57.1298 30.3995 59.4424C28.3449 61.5295 26.5762 63.877 24.9074 66.2779C24.1427 65.2715 23.8197 63.9374 22.7552 63.1751C22.4902 63.01 22.2694 62.6382 21.9115 62.7451C21.5396 62.7474 21.4164 63.189 21.1793 63.4005C20.4821 62.8427 20.0033 62.0711 19.3432 61.4877C17.9696 60.7881 16.4403 60.472 14.9342 60.2024C13.5954 59.9793 12.2381 60.5487 10.9202 60.3535C10.7692 59.0868 10.7692 57.7922 10.9249 56.5255C11.0341 55.4865 12.0428 54.4895 11.334 53.4482C10.2207 51.6795 9.93478 49.5505 9.95337 47.4982C9.88829 45.855 10.6065 44.3349 10.8226 42.7266Z" fill="#A79CEE"/>
<path d="M41.796 42.6541C42.4282 42.252 43.1928 42.0568 43.9319 42.2474C45.5217 43.2561 46.3584 45.0946 47.9807 46.0568C49.0173 46.6867 49.7239 47.7349 50.8186 48.2857C50.9557 48.7552 51.1393 49.2108 51.3485 49.6524C50.4537 51.0469 48.5618 51.1422 47.0696 51.0167C43.9459 49.5059 41.5403 46.2218 41.796 42.6541Z" fill="#A79CEE"/>
<path d="M86.3394 44.7443C89.0169 43.9634 91.9919 44.1284 94.523 45.3393C95.6944 45.9692 96.6613 46.9035 97.5886 47.8425C98.3138 48.5165 98.344 49.574 98.7298 50.4317C99.1087 51.3985 99.9105 52.2376 99.9128 53.323C99.7269 54.2527 99.4201 55.2544 98.6485 55.8657C97.7467 56.5885 96.6473 56.9883 95.6572 57.56C93.9838 58.5943 92.3289 59.6704 90.8949 61.0231C90.8066 61.0603 90.6299 61.137 90.5416 61.1765C90.7531 60.7861 91.0227 60.4305 91.211 60.0284C91.3504 59.5194 90.8438 59.2056 90.4719 59.0011C89.4794 59.3822 88.9913 60.3886 88.3382 61.1556C86.5068 63.7564 84.666 66.3595 83.0669 69.1137C81.7607 71.1776 80.7869 73.4252 79.7131 75.6146C79.4713 75.5263 79.218 75.4612 79.0042 75.3171C76.4313 73.4949 74.2372 71.2125 71.9083 69.0998C69.8584 67.1219 67.8781 65.0649 65.7352 63.1847C62.7068 60.707 59.1414 58.9639 55.4761 57.646C54.7788 56.9418 54.3628 55.9865 53.8887 55.1219C54.4372 54.2387 55.0299 53.3672 55.8503 52.7094C57.0984 52.8349 58.3465 52.9465 59.597 53.0627C60.5964 53.1556 61.6051 53.4764 62.6068 53.2207C62.7254 53.2207 62.9601 53.223 63.0786 53.223C63.4319 53.4322 63.8015 53.653 64.2314 53.6135C66.7974 53.6716 69.3796 53.8599 71.9223 53.3764C73.9281 53.2509 75.6224 52.1121 77.44 51.3939C77.9536 51.1824 78.465 50.9244 78.8438 50.506C80.4312 48.9023 81.7979 46.9593 83.9292 46.0226C84.7845 45.6972 85.5399 45.1789 86.3394 44.7443Z" fill="#A79CEE"/>
<path d="M41.8213 54.0181C43.1554 52.3539 45.4238 52.8257 47.2623 53.0326C48.8799 53.3766 50.4651 53.9297 51.9154 54.7316C52.4895 55.4149 52.6777 56.3748 53.1705 57.1325C50.6254 56.6839 48.0316 56.6258 45.468 56.9163C44.357 55.6822 42.5604 55.4777 41.0078 55.2429C41.2588 54.8222 41.4796 54.3737 41.8213 54.0181Z" fill="#A79CEE"/>
<path d="M32.2241 61.7179C33.1747 60.7882 34.3577 60.07 35.6477 59.7354C35.736 59.8678 35.9126 60.1351 36.001 60.2676C34.302 61.79 32.5123 63.303 31.3455 65.2926C30.5228 66.3989 29.7581 67.5494 28.8656 68.6022C28.3938 69.1554 28.001 69.8341 27.2921 70.1153C27.1945 69.8666 27.0992 69.6203 27.0039 69.3739C27.9824 67.9584 28.8656 66.4733 29.6279 64.93C30.2555 63.6888 31.241 62.6801 32.2241 61.7179Z" fill="#A79CEE"/>
<path d="M54.4843 60.0742C54.998 60.2416 55.5163 60.3996 55.9997 60.6413C60.1461 62.9655 64.0926 65.7244 67.3814 69.1782C68.002 69.8452 69.0246 70.4263 69.0177 71.435C68.934 71.5303 68.7666 71.7209 68.683 71.8185C66.8747 70.3937 65.2269 68.7784 63.414 67.3606C62.2472 66.3566 61.1362 65.2712 59.7975 64.4902C57.9869 63.1027 55.8719 62.1707 54.1055 60.7204C54.231 60.5042 54.3565 60.288 54.4843 60.0742Z" fill="#A79CEE"/>
<path d="M90.3548 62.6873C90.5291 62.5409 90.8243 62.2364 91.0405 62.506C91.2775 62.6989 91.0242 63.0429 91.0103 63.287C90.5663 64.6908 89.7017 65.9064 89.1021 67.2405C88.4606 68.6954 87.7261 70.1085 87.1776 71.603C86.643 73.2672 85.797 74.8221 84.8766 76.3003C84.528 76.872 83.9702 76.4397 83.6309 76.1143C84.0701 74.9057 84.4838 73.6855 84.8116 72.4397C85.0695 71.4217 85.8342 70.6454 86.1782 69.6623C86.6849 68.2399 87.5007 66.9569 88.2165 65.6344C88.8836 64.6234 89.4763 63.5356 90.3548 62.6873Z" fill="#A79CEE"/>
<path d="M20.6055 67.0892C20.7054 66.973 20.9053 66.7383 21.0052 66.6221C21.9187 66.7499 22.265 67.6982 22.6647 68.4001C23.0529 69.095 23.3922 70.2525 22.4323 70.6383C21.4399 69.6877 21.0052 68.3676 20.6055 67.0892Z" fill="#A79CEE"/>
<path d="M48.6189 68.7646C48.9908 68.7832 49.3487 68.8902 49.6834 69.0552C49.7159 69.8896 49.4161 70.7751 48.6654 71.2213C46.5294 72.5996 43.9031 72.7112 41.451 72.9506C39.7404 73.1923 38.4876 74.5264 37.4836 75.8256C35.1686 78.4729 32.9583 81.2108 30.6062 83.8233C29.1931 85.3572 27.6823 86.8424 25.8973 87.9418C24.8654 88.5391 23.5127 89.0667 22.3785 88.4368C20.1937 87.3142 18.4064 85.5595 16.9142 83.635C15.5871 81.7013 14.3297 79.7094 13.3535 77.5711C14.2623 77.341 14.4947 78.3451 14.934 78.9006C16.117 80.5949 17.9183 81.7198 19.6452 82.7913C20.5446 83.4398 21.2024 84.5322 22.4063 84.6437C24.375 84.8947 26.0623 83.5304 27.2965 82.1452C28.189 81.0249 29.4162 80.1835 30.0739 78.8866C30.8781 77.4224 31.9821 76.165 33.2372 75.0726C34.3714 73.5735 35.7938 72.2626 37.5091 71.4584C38.5922 70.9517 39.8124 70.9169 40.949 70.5845C43.4707 69.864 46.3365 70.2498 48.6189 68.7646Z" fill="#A79CEE"/>
<path d="M52.3164 69.769C52.6557 69.3785 52.9044 68.6999 53.532 68.7928C54.5151 68.8323 55.4099 69.346 56.17 69.9363C57.0904 70.7219 58.027 71.5261 58.6778 72.5627C59.4727 73.762 60.6115 74.6801 61.4087 75.8817C62.0502 76.8579 63.1705 77.4041 63.7283 78.4476C64.2699 79.4401 65.432 79.8282 66.0642 80.7556C67.3309 82.4499 69.2181 83.4679 70.78 84.8485C73.0461 85.9409 75.1216 87.5237 77.6318 88.0467C78.9752 88.3186 80.2419 88.9206 81.6271 88.9926C82.6846 89.1297 83.6864 88.6858 84.7183 88.5347C85.4063 88.4534 86.0176 88.1094 86.6474 87.8491C87.6166 87.4424 88.7439 87.4493 89.6224 86.8241C90.7102 86.0478 91.7235 85.1646 92.881 84.4906L92.9345 84.8857C91.1936 87.6539 89.1274 90.3848 86.2663 92.0699C83.7073 93.6085 80.551 93.6364 77.7108 93.0182C73.0624 91.8746 68.7928 89.4179 65.3158 86.1454C62.5732 83.5772 60.1769 80.644 58.1618 77.4761C56.3582 74.8056 54.8173 71.8724 52.3164 69.769Z" fill="#A79CEE"/>
<path d="M71.2733 74.5425C71.4151 74.5285 71.6963 74.4983 71.8381 74.4844C72.2309 74.912 72.6516 75.3281 72.9421 75.8394C72.8956 76.1206 72.5702 76.3135 72.3262 76.1462C71.8916 75.8905 71.5638 75.5001 71.2129 75.1445C71.2292 74.9957 71.257 74.6936 71.2733 74.5425Z" fill="#A79CEE"/>
<path d="M79.6486 96.293C80.1576 96.4487 80.4575 96.9414 80.3738 97.4713C80.3134 100.102 80.2762 102.808 79.4278 105.325C79.1977 105.311 78.7399 105.281 78.5098 105.264C78.9955 102.294 78.3029 99.0913 79.6486 96.293Z" fill="#A79CEE"/>
<path d="M60.1118 8.31178C61.8387 8.25832 63.554 8.62555 65.16 9.24611C62.687 9.83879 60.235 10.8266 58.3152 12.5349C56.758 14.0224 55.6121 15.9375 54.9637 17.9852C54.4175 19.6912 54.5546 21.504 54.6824 23.2612C52.1676 24.1327 49.7481 25.6876 48.4721 28.0932C46.5756 28.2234 44.6767 28.2977 42.7894 28.5116C43.1473 27.8422 43.5262 27.1356 43.4867 26.35C43.5517 24.9021 42.6383 23.4308 41.2322 22.9869C40.5256 22.7731 39.7075 22.3454 38.9963 22.7684C38.6197 23.0032 38.6337 23.6888 39.0823 23.8376C39.9934 24.0467 40.9974 24.2327 41.6761 24.9346C42.1409 25.4459 42.0596 26.1966 41.9806 26.8288C41.7644 27.5656 41.1183 28.0397 40.6488 28.6092C40.2328 28.6487 39.819 28.6905 39.403 28.7277C39.2636 28.3814 39.2775 27.8747 38.8452 27.7422C38.3408 27.5656 37.7946 27.6423 37.2717 27.6121C36.2746 27.6284 35.3077 27.3587 34.3316 27.1891C32.2863 26.8381 30.2177 26.6034 28.2003 26.1083C27.3659 25.9108 26.4339 25.7457 25.6878 26.2919C25.3043 26.4267 24.9905 26.6661 24.8069 27.038C25.0672 27.3634 25.2973 27.7492 25.7041 27.9073C27.1009 28.5139 28.6163 28.7626 30.0666 29.2112C26.9894 29.4041 23.8935 29.4877 20.8418 29.941C22.6593 27.2054 25.3671 24.9253 28.6372 24.2164C30.32 23.6818 32.0864 23.561 33.7947 23.1542C33.3368 23.0775 32.8743 23.038 32.4234 22.9265C32.7929 22.9102 33.1788 22.8753 33.5344 23.0032C33.6715 23.0566 33.9457 23.1682 34.0829 23.2216C35.2287 22.8591 35.7958 21.7109 36.3327 20.7301C37.6598 18.3222 39.0544 15.7609 41.4576 14.2664C43.2194 13.0764 45.4344 12.93 47.4936 13.0485C48.2304 13.0764 48.9788 13.5482 49.6993 13.2019C51.7237 12.5302 53.1787 10.8824 55.045 9.91781C56.5883 9.00672 58.3524 8.55582 60.1118 8.31178Z" fill="#A79CEE"/>
<path d="M65.3341 11.1652C67.4259 10.5749 69.706 11.1629 71.47 12.3622C72.1371 12.7945 72.6298 13.4383 73.2922 13.873C73.9895 14.0612 74.2452 13.2338 74.717 12.8968C75.3933 12.3831 76.1208 11.8834 76.9087 11.5697C77.9035 11.5813 78.8122 11.0816 79.8047 11.0607C81.1992 10.984 82.6751 10.8189 83.9883 11.4116C83.4839 11.5511 83.1004 11.8718 82.8982 12.3576C83.6373 12.9898 84.4392 13.5801 84.9854 14.3982C86.352 16.4087 86.9679 18.7887 87.9836 20.9688C88.1277 21.3081 88.5809 21.5103 88.904 21.2965C89.4223 21.0804 89.3665 20.4296 89.5083 19.981C89.3595 19.9787 89.062 19.9694 88.911 19.9671C89.2317 19.809 89.5222 19.3953 89.9127 19.5115C92.0928 20.2367 94.4937 19.816 96.6436 20.6806C98.0103 21.078 99.0422 22.1007 100.123 22.9723C101.013 23.9949 101.624 25.2291 102.319 26.3866C102.984 27.4185 102.94 28.6829 102.963 29.8613C102.998 31.6625 102.331 33.5033 102.972 35.2674C103.163 35.9693 103.942 36.1738 104.52 36.462C105.717 36.9525 106.782 37.6985 107.839 38.433C107.7 38.6654 107.561 38.8955 107.421 39.1302C108.204 40.9083 109.708 42.3353 110.129 44.2807C110.326 45.5637 110.538 46.8955 110.224 48.1784C109.817 50.0564 109.392 51.953 108.555 53.6961C108.137 54.6119 108.014 55.86 108.748 56.6502C109.759 57.8425 110.87 59.0209 111.412 60.5154C112.186 62.9581 111.902 65.8727 110.159 67.8413C109.434 68.7826 108.232 69.2452 107.672 70.3282C107.951 70.5955 108.188 70.9767 108.606 71.0325C109.683 71.0162 110.517 70.2608 111.433 69.8006C110.963 70.9116 109.868 71.6089 109.476 72.764L109.443 72.8384C106.828 73.2684 104.181 73.4078 101.543 73.6286C102.945 70.5212 104.374 67.3649 104.943 63.9808C104.957 63.3858 104.314 62.9605 103.784 63.2719C103.293 63.6996 103.117 64.3596 102.889 64.9477C101.578 69.0174 100.107 73.0731 97.9289 76.771C96.3229 79.5112 94.6611 82.2213 92.9342 84.8848L92.8807 84.4897C91.7233 85.1637 90.7099 86.0469 89.6222 86.8232C88.7436 87.4484 87.6164 87.4415 86.6472 87.8482C86.0173 88.1085 85.406 88.4525 84.7181 88.5338C83.6861 88.6849 82.6844 89.1288 81.6269 88.9917C80.2416 88.9197 78.9749 88.3177 77.6315 88.0458C75.1214 87.5228 73.0459 85.94 70.7797 84.8476C69.2179 83.467 67.3306 82.449 66.0639 80.7547C65.4317 79.8273 64.2696 79.4392 63.7281 78.4467C63.1703 77.4032 62.05 76.857 61.4085 75.8808C60.6113 74.6792 59.4724 73.7611 58.6775 72.5618C58.0268 71.5252 57.0901 70.721 56.1697 69.9354C55.4097 69.3451 54.5149 68.8314 53.5317 68.7919C52.9042 68.699 52.6555 69.3776 52.3161 69.7681C51.8862 69.4683 51.326 69.2126 51.254 68.6269C51.0076 67.4578 49.7293 66.9581 48.6532 66.9511C46.7055 66.9395 44.7671 67.4183 42.8217 67.1441C44.7787 65.8076 47.5306 66.6932 49.4783 65.2638C50.4266 64.6107 50.4033 63.1278 49.6061 62.3655C48.788 61.4544 47.4771 61.373 46.3359 61.3823C44.8577 61.452 43.3795 61.6891 41.8967 61.5822C41.3226 61.559 40.8601 61.1755 40.5254 60.7432C41.3389 59.6438 42.6962 59.1836 43.9652 58.8396C47.8141 57.889 51.8908 58.3539 55.6468 59.4951C59.7839 61.0383 63.7257 63.3277 66.7844 66.5467C69.7524 69.4613 72.6554 72.4479 75.7536 75.2277C76.6042 75.9366 77.4758 76.6269 78.4101 77.2288C79.0168 77.6147 79.8395 77.8913 80.5205 77.5263C81.2225 77.0429 81.3294 76.1225 81.6873 75.409C83.5606 71.2835 85.9499 67.409 88.5763 63.7228C89.2201 62.8001 90.001 61.9657 90.5077 60.9523L90.5379 61.1755C90.6262 61.136 90.8029 61.0593 90.8912 61.0221C92.3252 59.6694 93.9801 58.5933 95.6535 57.559C96.6436 56.9872 97.743 56.5875 98.6448 55.8646C99.4164 55.2534 99.7232 54.2516 99.9092 53.3219C99.9068 52.2365 99.105 51.3975 98.7261 50.4306C98.3403 49.573 98.3101 48.5154 97.5849 47.8414C96.6576 46.9024 95.6907 45.9681 94.5193 45.3382C91.9882 44.1273 89.0132 43.9623 86.3357 44.7432C85.5362 45.1779 84.7808 45.6962 83.9255 46.0216C81.7942 46.9582 80.4276 48.9013 78.8401 50.505C78.4613 50.9233 77.95 51.1813 77.4363 51.3928C75.6188 52.111 73.9244 53.2499 71.9186 53.3754C69.3759 53.8588 66.7937 53.6706 64.2278 53.6125C63.7978 53.652 63.4282 53.4312 63.075 53.222C67.1749 53.4242 71.398 52.964 75.1493 51.2022C77.262 50.1912 79.1632 48.5247 79.972 46.2726C81.2759 43.3766 81.1527 40.118 80.8552 37.0315C80.7506 35.2418 80.4136 33.4777 80.2742 31.6904C80.1696 30.2726 79.5304 28.834 78.3218 28.0251C76.9784 26.9746 75.1655 26.9049 73.5386 27.0606C70.9866 27.114 68.4346 27.1303 65.8826 27.1675C60.695 27.4859 55.5096 27.723 50.3196 27.9926C51.4794 26.4423 53.2272 25.4011 55.0471 24.8107C55.591 24.6201 56.4161 24.7108 56.6252 24.0344C56.7066 23.0141 56.3998 22.0077 56.43 20.9851C56.3022 18.705 57.3969 16.5807 58.7147 14.8003C60.3091 12.7364 62.8681 11.7347 65.3341 11.1652ZM63.986 12.5644C63.3725 12.7504 62.466 12.9781 62.5241 13.7963C62.5171 14.3262 63.1447 14.3773 63.5352 14.3355C65.2597 14.1774 67.0563 14.4192 68.5927 15.2512C69.5526 15.6463 70.4265 16.3064 71.4886 16.3994C72.0325 15.0839 70.6496 14.2565 69.7362 13.6336C67.9884 12.7434 65.9523 11.9322 63.986 12.5644ZM60.3719 19.6905C59.1563 20.3529 58.387 21.7195 58.4335 23.1024C58.3638 24.4784 58.8565 26.0333 60.1232 26.7398C61.0761 27.3116 62.2406 27.1442 63.2725 26.9211C66.5915 26.2053 69.857 25.2477 73.19 24.5876C76.0418 23.9996 78.9192 23.4464 81.6734 22.4772C82.1243 22.282 82.8471 22.1077 82.8145 21.4825C82.8192 21.0432 82.3079 20.8154 81.9313 20.8712C81.0412 21.0432 80.2068 21.4197 79.3352 21.6637C79.2492 21.3476 79.2538 20.8898 78.8634 20.7829C77.606 20.3203 76.3369 21.0339 75.0772 21.1268C72.9273 21.5452 70.7681 21.9241 68.6531 22.5005C66.3986 22.7933 64.1046 23.2675 61.8315 22.9118C61.8083 22.619 61.7827 22.3261 61.7618 22.0333C61.4271 21.7939 61.0622 21.601 60.6461 21.5615C61.1784 21.0525 61.8617 20.741 62.5288 20.4459C63.14 20.1181 64.0488 20.3808 64.3486 19.5905C64.158 19.1443 63.8512 18.6446 63.2888 18.6864C62.2452 18.7166 61.2737 19.2047 60.3719 19.6905ZM96.2625 22.3494C97.6338 23.7672 98.8424 25.3848 99.528 27.2488C99.693 28.1088 99.9092 28.9618 99.9998 29.8334C100.044 31.3883 99.5675 32.992 100.014 34.519C100.444 34.4655 101.016 34.5678 101.276 34.1239C101.72 33.4243 102.05 32.6526 102.359 31.8833C102.819 29.1268 102.152 26.1123 100.316 23.9647C99.356 22.8933 98.2195 21.7985 96.7366 21.5708C96.4182 21.7102 96.3624 22.0589 96.2625 22.3494ZM99.2793 36.0925C99.2561 36.3923 99.1863 36.9129 99.6163 36.9525C100.416 37.1616 100.525 36.0739 100.302 35.5393C99.9092 35.5998 99.449 35.6718 99.2793 36.0925ZM54.4823 60.0738C54.3545 60.2876 54.229 60.5038 54.1035 60.7199C55.8699 62.1702 57.9849 63.1022 59.7955 64.4898C61.1342 65.2707 62.2452 66.3562 63.412 67.3602C65.2249 68.778 66.8727 70.3933 68.681 71.8181C68.7646 71.7204 68.932 71.5299 69.0157 71.4346C69.0226 70.4259 68 69.8448 67.3794 69.1777C64.0906 65.724 60.1441 62.9651 55.9977 60.6409C55.5143 60.3992 54.996 60.2411 54.4823 60.0738ZM90.3543 62.6862C89.4758 63.5345 88.8831 64.6223 88.216 65.6333C87.5002 66.9558 86.6844 68.2388 86.1777 69.6612C85.8337 70.6443 85.069 71.4206 84.811 72.4386C84.4833 73.6844 84.0696 74.9046 83.6303 76.1132C83.9697 76.4386 84.5275 76.8709 84.8761 76.2992C85.7965 74.821 86.6425 73.2661 87.1771 71.6019C87.7256 70.1074 88.4601 68.6943 89.1016 67.2393C89.7012 65.9052 90.5658 64.6897 91.0097 63.2859C91.0237 63.0418 91.277 62.6978 91.04 62.5049C90.8238 62.2353 90.5286 62.5398 90.3543 62.6862ZM71.2701 74.542C71.2539 74.6931 71.226 74.9953 71.2097 75.144C71.5607 75.4996 71.8884 75.8901 72.323 76.1458C72.5671 76.3131 72.8925 76.1202 72.9389 75.839C72.6484 75.3276 72.2277 74.9116 71.8349 74.4839C71.6932 74.4979 71.4119 74.5281 71.2701 74.542Z" fill="#A79CEE"/>
<path d="M45.6209 36.3139C46.697 36.0792 47.815 36.1931 48.9074 36.0955C50.0323 35.9932 51.2339 35.9351 52.2752 36.4604C52.4727 38.5127 52.747 40.558 52.8586 42.6195C53.1607 45.7503 54.0788 49.0971 56.5936 51.1866C58.2647 52.7438 60.654 52.8136 62.7783 53.1901L62.6087 53.2203C61.6069 53.476 60.5982 53.1552 59.5988 53.0623C58.3484 52.946 57.1003 52.8345 55.8521 52.709C55.0317 53.3667 54.439 54.2383 53.8905 55.1215C53.5837 54.5219 53.2885 53.8362 52.5843 53.627C52.1799 53.8711 51.9405 54.2569 51.9172 54.731C50.4669 53.9292 48.8818 53.376 47.2642 53.032C45.4257 52.8252 43.1573 52.3534 41.8232 54.0175C41.9463 53.4853 41.7999 52.9693 41.2468 52.7833C40.9353 52.2883 40.4612 51.9768 39.8848 51.8792C40.7749 50.5963 41.1445 49.06 41.3606 47.5376C42.6227 49.9966 44.9004 51.863 47.5012 52.7555C48.0172 52.9135 48.5099 52.4533 48.4007 51.9327C48.1218 51.4423 47.5175 51.3005 47.0689 51.0169C48.5611 51.1425 50.453 51.0472 51.3478 49.6526C51.1386 49.211 50.955 48.7555 50.8179 48.286C49.7232 47.7352 49.0166 46.6869 47.98 46.0571C46.3577 45.0948 45.521 43.2564 43.9312 42.2477C43.1921 42.0571 42.4275 42.2523 41.7953 42.6544C41.872 40.0583 43.399 37.6248 45.6209 36.3139Z" fill="#A79CEE"/>
<path d="M41.7129 38.1662C41.857 37.4875 42.1824 36.7786 42.875 36.5137C42.5008 37.0738 42.0755 37.5991 41.7129 38.1662Z" fill="#A79CEE"/>
<path d="M8.84736 48.8881C9.01238 46.7335 9.49349 44.4813 10.8229 42.7266C10.6068 44.3349 9.88861 45.855 9.95369 47.4982C9.9351 49.5505 10.221 51.6795 11.3343 53.4482C12.0432 54.4894 11.0345 55.4865 10.9252 56.5254C10.7695 57.7921 10.7695 59.0867 10.9206 60.3534C12.2384 60.5487 13.5957 59.9792 14.9345 60.2024C16.4406 60.472 17.9699 60.7881 19.3435 61.4877C20.0036 62.071 20.4824 62.8427 21.1797 63.4005C21.3005 63.7747 21.4423 64.1489 21.7073 64.4487C22.5649 65.4853 22.9693 66.8473 23.9687 67.7723C24.6567 68.3952 25.7398 68.0582 26.1698 67.2982C27.9385 64.709 29.7281 62.085 32.0407 59.9374C33.6863 58.601 35.7293 57.8665 37.7397 57.2715C39.6944 56.6579 41.8466 56.6649 43.7966 57.2971C42.4393 57.662 41.0564 58.1268 39.9431 59.0147C39.2551 59.5795 38.7577 60.544 39.118 61.4295C39.5131 62.494 40.5939 63.1588 41.6862 63.3075C43.5549 63.5887 45.4143 63.0193 47.2806 63.0495C47.8129 63.0565 48.2986 63.2959 48.5613 63.7677C46.502 64.9902 43.8315 64.372 41.8118 65.7247C41.2563 66.1105 40.7635 66.7915 40.9774 67.5004C41.1958 68.3534 42.0302 68.9182 42.8716 69.0297C44.7868 69.4156 46.7042 68.8182 48.6194 68.7648C46.337 70.25 43.4712 69.8641 40.9495 70.5846C39.8129 70.917 38.5927 70.9519 37.5096 71.4585C35.7944 72.2627 34.3719 73.5736 33.2377 75.0727C31.9826 76.1651 30.8786 77.4225 30.0744 78.8868C29.4167 80.1837 28.1895 81.025 27.297 82.1453C26.0628 83.5305 24.3755 84.8949 22.4069 84.6438C21.2029 84.5323 20.5452 83.4399 19.6457 82.7914C17.9188 81.72 16.1175 80.5951 14.9345 78.9007C14.4952 78.3452 14.2628 77.3411 13.354 77.5712C11.906 74.4661 10.8555 71.1471 10.6114 67.7166C10.5929 67.1797 10.7579 66.4289 10.1048 66.1988C9.23318 66.0222 8.84271 67.0379 8.82877 67.7352C8.66375 70.8798 9.6376 73.9641 10.8322 76.8345C9.68408 76.9228 8.54289 76.7206 7.40635 76.5951C5.38893 75.9094 3.49236 74.1593 3.4668 71.8978C3.52955 70.2244 4.20125 68.5858 5.21228 67.2633C5.81193 66.4336 6.90664 65.985 7.15766 64.9205C7.0182 64.6463 6.86713 64.379 6.75092 64.0931C6.32559 61.6294 6.25353 58.9473 7.3924 56.6533C7.94092 55.4958 9.51906 54.931 9.55857 53.5388C9.34475 51.9862 8.71953 50.4848 8.84736 48.8881ZM32.222 61.7178C31.2389 62.68 30.2534 63.6887 29.6259 64.9298C28.8635 66.4731 27.9803 67.9583 27.0018 69.3737C27.0971 69.6201 27.1924 69.8665 27.29 70.1152C27.9989 69.8339 28.3917 69.1553 28.8635 68.6021C29.756 67.5492 30.5207 66.3987 31.3435 65.2924C32.5102 63.3029 34.2999 61.7898 35.9989 60.2674C35.9106 60.135 35.7339 59.8677 35.6456 59.7352C34.3557 60.0699 33.1726 60.7881 32.222 61.7178ZM20.6056 67.089C21.0054 68.3673 21.44 69.6875 22.4324 70.6381C23.3923 70.2523 23.053 69.0948 22.6648 68.3999C22.2651 67.698 21.9188 66.7497 21.0054 66.6218C20.9054 66.7381 20.7055 66.9728 20.6056 67.089Z" fill="#A79CEE"/>
<path d="M51.1194 70.9639C52.7046 72.1771 53.7528 73.8994 54.8475 75.531C52.9439 75.6565 51.0358 75.6913 49.1276 75.6541C46.1665 75.4868 43.1962 75.5705 40.2305 75.524C41.0649 74.4223 42.557 74.4967 43.7888 74.3549C45.6994 74.1016 47.7377 73.9714 49.3949 72.8837C50.1595 72.4421 50.715 71.7355 51.1194 70.9639Z" fill="#A79CEE"/>
<path d="M38.0962 77.8408C38.2821 77.5898 38.561 77.3922 38.8911 77.441C41.5267 77.3992 44.1601 77.5596 46.7957 77.5131C45.5035 83.1888 44.5645 88.9343 43.6046 94.6728C42.8562 99.0214 41.9102 103.333 41.2525 107.695C41.1316 108.149 41.1153 108.72 40.7597 109.053C36.0253 109.401 31.2862 108.82 26.575 108.36C25.4431 108.23 24.2392 108.149 23.2793 107.465C25.2456 105.387 28.0416 104.458 30.7284 103.709C31.5535 103.512 32.3879 102.912 32.4112 101.987C32.4879 98.9308 32.5924 95.8721 32.7737 92.8204C33.0387 89.4735 33.5384 86.1499 34.1195 82.8449C34.1659 82.3916 34.5657 82.1011 34.8283 81.7641C35.9323 80.4672 37.0224 79.161 38.0962 77.8408Z" fill="#A79CEE"/>
<path d="M68.3404 109.104C68.7727 103.435 70.1021 97.8759 70.474 92.2002C71.9871 92.8231 73.4606 93.5575 75.0179 94.0758C77.4188 94.9033 79.9894 95.2542 82.5228 95.0474C81.6093 98.2804 80.9284 101.576 80.4356 104.9C80.3055 105.976 80.3729 107.294 81.3049 108.014C82.5646 108.949 84.1334 109.451 85.2165 110.631C85.8255 111.249 86.1741 112.072 86.295 112.928C81.3769 113.604 76.503 112.356 71.6896 111.501C70.6971 111.273 69.6629 111.089 68.782 110.55C68.2753 110.259 68.3311 109.604 68.3404 109.104ZM79.6454 96.2931C78.2997 99.0915 78.9923 102.294 78.5065 105.265C78.7366 105.281 79.1945 105.311 79.4246 105.325C80.2729 102.808 80.3101 100.103 80.3705 97.4715C80.4542 96.9416 80.1544 96.4489 79.6454 96.2931Z" fill="#A79CEE"/>
<path d="M85.1191 11.9746C87.0645 12.802 88.2894 14.8125 88.8565 16.7764C89.068 17.5318 89.5816 18.3151 89.2028 19.103C88.3777 17.2854 88.0384 15.1913 86.6717 13.662C86.2673 12.9949 85.6351 12.5394 85.1191 11.9746Z" fill="#383737"/>
<path d="M65.5218 31.8867C68.0296 31.6008 70.563 31.5241 73.0825 31.6728C73.7914 31.7983 74.7002 31.7542 75.1464 32.4212C75.6484 33.4137 75.7902 34.5339 75.8832 35.6287C75.9599 37.6833 75.9645 39.7937 75.337 41.7739C74.9233 42.9406 74.477 44.1214 73.7495 45.1324C72.3829 46.6245 70.4492 47.6332 68.4155 47.7518C66.1772 47.9052 63.9111 48.0377 61.6799 47.7239C60.5294 47.5682 59.2813 47.0382 58.7955 45.9064C57.9635 44.1492 57.7984 42.176 57.5009 40.2794C57.1453 37.8065 57.1593 35.3033 57.0547 32.8117C59.8716 32.4468 62.7142 32.3376 65.5218 31.8867Z" fill="#F4FEFF"/>
<path d="M26.3944 33.862C29.0114 33.7295 31.6308 33.9712 34.2456 33.8225C35.2729 33.69 35.9423 34.6848 36.1514 35.5587C36.4327 37.0485 36.3118 38.5709 36.442 40.0723C36.4629 42.8474 36.4094 45.855 34.7662 48.228C33.8574 49.6504 32.1166 50.1129 30.5617 50.4128C28.4071 50.6243 26.1782 51.1333 24.0516 50.4709C22.5106 50.0269 21.2974 48.8276 20.5257 47.4564C19.6936 45.9038 19.6262 44.1072 19.3195 42.4082C19.0801 40.1072 18.3688 37.7132 19.2102 35.4471C19.4821 34.7103 20.3282 34.5035 21.0185 34.3757C22.7988 34.0991 24.6001 34.0015 26.3944 33.862Z" fill="#F4FEFF"/>
<path d="M87.5458 34.0344C88.2219 38.0164 91.0629 45.0453 97.0181 41.3047C97.939 40.1494 98.504 38.0459 95.3035 38.1615" stroke="black" stroke-width="3" stroke-linecap="round" stroke-linejoin="round"/>
<path d="M101.608 55.9454C104.403 53.6602 108.959 48.565 104.82 46.4663C103.753 46.4097 102.065 47.0228 102.885 49.0309" stroke="black" stroke-width="3" stroke-linecap="round" stroke-linejoin="round"/>
<path d="M11.6517 54.4346C13.0116 57.1833 16.3627 61.9239 18.8874 58.8972C19.1373 58.0243 18.951 56.5102 17.1326 56.8072" stroke="black" stroke-width="3" stroke-linecap="round" stroke-linejoin="round"/>
<path d="M67.5508 28.8358C69.6124 28.6592 71.6856 28.7243 73.7518 28.6383C75.0766 28.6615 76.664 28.2989 77.6937 29.3751C78.5118 30.5953 78.7372 32.1107 78.714 33.554C79.0254 36.4081 79.1021 39.2855 79.0115 42.1536C78.7117 44.3965 77.94 46.7393 76.1853 48.2686C74.9186 49.4075 73.2707 49.9676 71.6623 50.4278C71.7344 50.2884 71.8738 50.0095 71.9459 49.87C72.2992 49.3982 71.5949 49.0844 71.3625 48.7614C73.5868 47.7434 75.6414 46.1071 76.5246 43.755C77.7146 40.3407 77.8819 36.5755 77.015 33.0636C76.7012 31.8132 75.7506 30.6534 74.4351 30.4186C72.7268 30.1165 70.9813 30.0816 69.2498 30.084C68.9476 29.3751 68.2411 29.0543 67.5508 28.8358Z" fill="#FB3E2D"/>
<path d="M55.1762 29.4656C56.4499 29.4656 57.7166 29.1867 58.9926 29.3168C59.0856 29.3354 59.2762 29.3703 59.3691 29.3889C59.0507 29.6585 58.7276 29.9235 58.4046 30.1861C58.5301 30.4534 58.6556 30.7253 58.7834 30.9949C57.9909 31.0856 57.1704 31.0763 56.4104 31.3412C55.8084 31.569 55.5667 32.243 55.5946 32.8427C55.5202 36.4499 55.9455 40.0454 56.522 43.6015C56.8822 45.3446 57.3494 47.3179 58.9205 48.3778C60.0501 49.2377 61.5097 49.3377 62.874 49.4329C62.5533 49.4701 62.2349 49.5236 61.9188 49.5747C61.9234 49.7444 61.9374 50.0884 61.942 50.2604C63.1506 51.0413 64.659 50.8623 66.0001 51.2458C64.7102 51.4085 63.4179 51.2017 62.1303 51.1134C60.9752 51.0576 59.8316 50.7926 58.7648 50.3464C57.2611 49.5747 56.1245 48.1755 55.576 46.5858C54.6742 44.1151 54.6881 41.4469 54.214 38.881C53.9839 37.684 54.3837 36.2314 53.4377 35.2738C52.938 34.6463 51.8526 34.6858 51.6318 33.8119C51.1948 32.4801 50.974 30.6509 52.2663 29.7096C53.2146 29.4726 54.207 29.5121 55.1762 29.4656Z" fill="#FB3E2D"/>
<path d="M35.1768 30.6365C36.6341 30.6458 38.0821 30.4111 39.5417 30.4459C38.5841 32.2681 38.9211 34.8154 40.7921 35.9102C39.1977 38.2855 39.4348 41.2791 39.5812 43.9961C39.8043 46.1251 39.7067 48.3959 38.705 50.3296C37.9333 51.7892 36.2552 52.275 34.7794 52.6817C34.8305 52.4168 34.8839 52.1518 34.9351 51.8892C33.6149 51.5917 32.2692 51.8659 30.9374 51.8799C32.9386 51.5731 35.1419 50.8874 36.2901 49.0885C37.9612 46.662 37.9938 43.5778 37.9868 40.7445C37.7079 38.5388 38.1727 36.1635 37.157 34.1019C36.7363 33.2466 35.9577 32.4633 34.9444 32.4633C32.8456 32.5005 30.7492 32.2611 28.6504 32.3773C30.2727 32.124 31.9229 32.3285 33.5475 32.1217C33.9519 32.1031 34.3912 31.7359 34.1704 31.3059C33.522 31.1548 32.8642 31.0618 32.2204 30.8922C33.1687 30.5668 34.189 30.683 35.1768 30.6365Z" fill="#FB3E2D"/>
<path d="M24.0101 31.2674C25.8485 31.1233 27.6893 30.8932 29.537 30.9397C28.1936 31.365 26.7526 31.0559 25.3837 31.3743C23.1106 31.5417 20.8282 31.9252 18.7178 32.8177C18.7992 33.0733 18.8805 33.329 18.9618 33.587C17.5232 34.6166 17.4069 36.5782 17.4418 38.1912C17.7626 40.7804 18.0508 43.3766 18.5226 45.9448C19.006 48.5061 20.8119 50.756 23.2314 51.7414C22.9851 52.1226 22.7364 52.5038 22.49 52.8873C20.5121 52.1714 18.9037 50.5677 18.0786 48.6409C17.3442 46.9443 16.9003 45.1244 16.719 43.2859C16.4401 41.143 16.11 38.9699 16.3889 36.806C16.5586 35.6346 16.1379 34.3516 16.7445 33.2662C17.3837 32.3156 18.425 31.5696 19.594 31.4929C21.0606 31.2837 22.5458 31.4882 24.0101 31.2674Z" fill="#FB3E2D"/>
<path d="M58.9126 29.3015C60.3001 29.2248 61.6784 29.0133 63.0683 28.9924C64.5674 29.0017 66.0549 28.7321 67.5563 28.8366C68.2466 29.0551 68.9532 29.3759 69.2553 30.0848C65.7527 30.2056 62.2734 30.6588 58.7871 30.9958C58.6592 30.7262 58.5337 30.4543 58.4082 30.187C58.7313 29.9244 59.0543 29.6594 59.3728 29.3898C59.2798 29.3712 59.0892 29.3364 58.9962 29.3178L58.9126 29.3015Z" fill="#FB3E2D"/>
<path d="M29.5399 30.9407C30.4208 30.7989 31.3342 30.8268 32.2221 30.8942C32.8659 31.0639 33.5237 31.1569 34.1721 31.3079C34.3929 31.7379 33.9536 32.1051 33.5492 32.1237C31.9246 32.3306 30.2744 32.1261 28.6521 32.3794C27.1088 32.5142 25.5539 32.4817 24.0129 32.6676C22.3209 32.8768 20.5452 32.8628 18.9647 33.588C18.8834 33.33 18.8021 33.0743 18.7207 32.8187C20.8311 31.9262 23.1135 31.5427 25.3866 31.3753C26.7555 31.0569 28.1965 31.366 29.5399 30.9407Z" fill="#FB3E2D"/>
<path d="M62.8771 49.4344C65.7057 49.3623 68.6644 49.8295 71.3675 48.7627C71.5999 49.0858 72.3042 49.3995 71.9509 49.8713C71.8788 50.0108 71.7394 50.2897 71.6673 50.4292C69.8126 50.8615 67.9137 51.2636 66.0032 51.2473C64.6621 50.8638 63.1537 51.0428 61.9451 50.2618C61.9405 50.0898 61.9265 49.7458 61.9219 49.5762C62.238 49.525 62.5564 49.4716 62.8771 49.4344Z" fill="#FB3E2D"/>
<path d="M23.2317 51.7422C25.7302 52.6579 28.3728 52.0606 30.9364 51.8816C32.2682 51.8677 33.6139 51.5934 34.9341 51.8909C34.883 52.1536 34.8295 52.4185 34.7784 52.6835C33.2281 53.0623 31.6523 53.3668 30.0556 53.4482C27.5361 53.6783 24.9074 53.7503 22.4902 52.888C22.7366 52.5045 22.9853 52.1234 23.2317 51.7422Z" fill="#FB3E2D"/>
<path d="M45.5861 29.9764C47.127 30.0113 48.6563 29.7975 50.195 29.751C49.5163 31.2152 49.858 32.8422 50.2624 34.3274C48.6424 34.325 47.0247 34.4041 45.4071 34.4575C44.6354 33.0676 44.5611 31.2617 45.5861 29.9764Z" fill="#FB3E2D"/>
<path d="M41.1369 30.6416C41.2415 30.4185 41.4158 30.3046 41.6645 30.3022C42.3594 30.2116 43.0637 30.1884 43.7632 30.1279C43.1659 31.5387 43.1892 33.1727 43.8492 34.5579C43.2031 34.702 42.5547 34.8484 41.9132 35.0134C41.4367 34.623 40.9393 34.2093 40.6999 33.6236C40.2676 32.6451 40.593 31.5085 41.1369 30.6416Z" fill="#FB3E2D"/>
</svg>
