<svg width="223" height="321" viewBox="0 0 223 321" fill="none" xmlns="http://www.w3.org/2000/svg">
<g clip-path="url(#clip0_2243_27414)">
<path d="M52.0538 178.31C52.0538 178.31 31.8738 181.336 32.4038 204.746C32.9338 228.161 30.2101 239.422 55.0082 242.448C69.8536 244.262 83.9629 213.395 78.3633 194.362C74.6189 181.611 52.0538 178.31 52.0538 178.31Z" fill="white" stroke="black" stroke-width="1.73451" stroke-miterlimit="10" stroke-linecap="round" stroke-linejoin="round"/>
<path d="M114.266 177.074C99.4161 185.569 89.3605 183.734 88.8304 191.541C88.163 201.396 97.3009 205.424 104.535 202.403C111.768 199.377 123.669 192.258 124.99 191.062C131.414 185.235 140.802 175.484 140.522 171.436L130.673 161.361C127.178 163.39 116.504 175.793 114.266 177.074Z" fill="white" stroke="black" stroke-width="1.73451" stroke-miterlimit="10" stroke-linecap="round" stroke-linejoin="round"/>
<path d="M140.52 171.436L144.108 166.586L134.278 156.491L130.671 161.366L140.52 171.436Z" fill="white" stroke="black" stroke-width="1.73451" stroke-miterlimit="10" stroke-linecap="round" stroke-linejoin="round"/>
<path d="M143.11 165.838C143.11 165.838 144.533 164.402 148.612 160.648C152.695 156.895 154.245 152.697 151.33 147.797C148.415 142.902 145.5 142.523 142.541 146.91C141.446 148.535 140.715 151.516 140.715 151.516C140.715 151.516 141.594 147.179 139.282 146.695C136.092 146.037 136.833 154.995 135.808 158.345L143.11 165.838Z" fill="white" stroke="black" stroke-width="1.73451" stroke-miterlimit="10" stroke-linecap="round" stroke-linejoin="round"/>
<path d="M143.549 154.133C143.549 154.133 146.852 147.712 147.23 143.913" stroke="black" stroke-width="1.73451" stroke-miterlimit="10" stroke-linecap="round" stroke-linejoin="round"/>
<path d="M150.143 146.063C150.143 146.063 150.423 149.866 145.736 155.878" stroke="black" stroke-width="1.73451" stroke-miterlimit="10" stroke-linecap="round" stroke-linejoin="round"/>
<path d="M152.223 149.631C152.223 149.631 151.198 154.497 147.281 157.857" stroke="black" stroke-width="1.73451" stroke-miterlimit="10" stroke-linecap="round" stroke-linejoin="round"/>
<path d="M105.684 233.863C105.684 214.89 111.028 181.401 99.7895 176.401C93.3655 173.544 61.53 173.624 61.53 173.624C61.53 173.624 59.4246 175.224 54.6986 177.971C41.7083 185.543 55.9157 256.844 56.004 263.006C56.0188 264.172 52.2547 273.534 52.2547 273.534L48.0439 294.192C48.0439 294.192 53.2705 293.29 62.9728 288.065C67.7823 285.478 78.0784 276.191 79.6243 269.925C81.4204 262.617 82.8534 242.527 82.8534 242.527C83.8251 246.485 92.6735 259.102 97.5713 267.986C101.615 275.333 103.819 287.038 109.664 300.024L117.658 276.64C117.658 276.64 116.451 261.789 114.674 256.116C112.294 248.594 105.684 235.907 105.684 233.863Z" fill="white" stroke="black" stroke-width="1.73451" stroke-miterlimit="10" stroke-linecap="round" stroke-linejoin="round"/>
<path d="M122.649 295.253L117.653 276.644C117.653 276.644 116.843 279.002 110.439 281.365C106.518 282.806 100.859 282.856 100.859 282.856C100.859 282.856 106.901 296.903 107.421 298.718C109.521 306.111 108.918 305.418 111.686 313.154L141.352 302.217C141.612 293.678 133.892 287.875 122.649 295.253Z" fill="white" stroke="black" stroke-width="1.73451" stroke-miterlimit="10" stroke-linecap="round" stroke-linejoin="round"/>
<path d="M142.105 304.206C141.432 304.455 141.653 305.073 140.976 305.323C140.299 305.572 140.078 304.954 139.401 305.203C138.723 305.452 138.944 306.07 138.272 306.32C137.595 306.569 137.379 305.951 136.701 306.2C136.029 306.449 136.245 307.067 135.573 307.317C134.9 307.566 134.675 306.948 134.002 307.197C133.33 307.446 133.546 308.064 132.869 308.314C132.196 308.563 131.975 307.945 131.298 308.189C130.626 308.438 130.852 309.056 130.174 309.306C129.497 309.555 129.276 308.937 128.604 309.186C127.927 309.435 128.152 310.053 127.475 310.303C126.798 310.552 126.577 309.934 125.905 310.183C125.227 310.432 125.448 311.05 124.776 311.3C124.104 311.549 123.883 310.931 123.206 311.18C122.528 311.429 122.749 312.047 122.072 312.297C121.404 312.546 121.179 311.928 120.506 312.177C119.834 312.426 120.05 313.044 119.378 313.294C118.7 313.543 118.48 312.925 117.802 313.174C117.13 313.423 117.356 314.041 116.678 314.291C116.001 314.54 115.78 313.922 115.108 314.166C114.431 314.415 114.652 315.033 113.979 315.283C113.302 315.532 113.086 314.914 112.409 315.163L111.692 313.154L141.398 302.202L142.105 304.206Z" fill="white" stroke="black" stroke-width="1.73451" stroke-miterlimit="10" stroke-linecap="round" stroke-linejoin="round"/>
<path d="M46.8893 298.31L62.9763 288.066C62.9763 288.066 60.5176 287.956 56.4394 282.413C53.9464 279.023 52.2582 273.534 52.2582 273.534C52.2582 273.534 40.7695 283.474 39.2138 284.501C32.8536 288.689 33.3345 287.901 26.8418 292.826L45.736 318.509C53.8581 316.296 57.0922 307.103 46.8893 298.31Z" fill="white" stroke="black" stroke-width="1.73451" stroke-miterlimit="10" stroke-linecap="round" stroke-linejoin="round"/>
<path d="M44.0751 319.82C43.6433 319.237 43.1231 319.631 42.6912 319.042C42.2642 318.459 42.7795 318.065 42.3526 317.477C41.9207 316.894 41.4054 317.288 40.9686 316.699C40.5368 316.116 41.057 315.722 40.6251 315.134C40.1981 314.551 39.673 314.945 39.2461 314.361C38.8142 313.778 39.3344 313.384 38.9025 312.796C38.4756 312.213 37.9505 312.607 37.5235 312.023C37.0966 311.44 37.6118 311.046 37.18 310.458C36.753 309.875 36.2377 310.269 35.8009 309.685C35.374 309.102 35.8893 308.708 35.4574 308.125C35.0305 307.542 34.5103 307.931 34.0784 307.348C33.6514 306.764 34.1667 306.37 33.7349 305.787C33.3079 305.204 32.7828 305.598 32.3558 305.01C31.924 304.426 32.4442 304.032 32.0123 303.449C31.5853 302.866 31.0651 303.26 30.6333 302.677C30.2063 302.093 30.7216 301.699 30.2897 301.111C29.8628 300.528 29.3426 300.922 28.9107 300.339C28.4837 299.755 28.999 299.362 28.5721 298.778C28.1402 298.195 27.62 298.589 27.1881 298.006C26.7612 297.422 27.2765 297.029 26.8495 296.44C26.4176 295.857 25.9024 296.251 25.4705 295.663C25.0386 295.079 25.5539 294.686 25.127 294.102L26.8103 292.821L45.729 318.534L44.0751 319.82Z" fill="white" stroke="black" stroke-width="1.73451" stroke-miterlimit="10" stroke-linecap="round" stroke-linejoin="round"/>
<path d="M37.3896 175.677C51.4056 185.532 61.4024 192.472 61.4024 192.472C61.1766 202.347 51.705 205.502 44.7755 201.814C37.846 198.125 26.6419 189.919 25.4396 188.603C19.575 182.202 11.1143 171.609 11.7572 167.611L22.4852 158.504C25.7782 160.847 35.2793 174.197 37.3896 175.677Z" fill="white" stroke="black" stroke-width="1.73451" stroke-miterlimit="10" stroke-linecap="round" stroke-linejoin="round"/>
<path d="M11.756 167.606L8.625 162.437L19.3334 153.309L22.484 158.499L11.756 167.606Z" fill="white" stroke="black" stroke-width="1.73451" stroke-miterlimit="10" stroke-linecap="round" stroke-linejoin="round"/>
<path d="M9.68701 161.789C9.68701 161.789 8.40613 160.228 4.68127 156.106C0.96132 151.983 -0.206685 147.661 3.1452 143.055C6.49708 138.454 9.4269 138.344 11.9739 142.995C12.9162 144.715 13.3726 147.751 13.3726 147.751C13.3726 147.751 12.8917 143.349 15.2424 143.085C18.4765 142.726 16.9257 151.579 17.6373 155.009L9.68701 161.789Z" fill="white" stroke="black" stroke-width="1.73451" stroke-miterlimit="10" stroke-linecap="round" stroke-linejoin="round"/>
<path d="M10.3146 150.094C10.3146 150.094 7.61052 143.389 7.57617 139.575" stroke="black" stroke-width="1.73451" stroke-miterlimit="10" stroke-linecap="round" stroke-linejoin="round"/>
<path d="M4.47952 141.435C4.47952 141.435 3.85135 145.199 7.97863 151.62" stroke="black" stroke-width="1.73451" stroke-miterlimit="10" stroke-linecap="round" stroke-linejoin="round"/>
<path d="M2.08691 144.799C2.08691 144.799 2.66601 149.739 6.26327 153.448" stroke="black" stroke-width="1.73451" stroke-miterlimit="10" stroke-linecap="round" stroke-linejoin="round"/>
<path d="M48.0195 159.841C48.0195 159.841 49.4624 170.269 53.0204 174.576C56.5685 178.888 47.9803 178.33 48.1569 181.002C48.422 184.945 62.6441 193.878 74.4665 194.337C98.18 195.249 105.679 182.582 105.679 182.582C105.929 179.407 101.929 177.752 101.929 177.752C101.929 177.752 103.362 173.769 101.929 171.431L48.0195 159.841Z" fill="white" stroke="black" stroke-width="1.73451" stroke-miterlimit="10" stroke-linecap="round" stroke-linejoin="round"/>
<path d="M111.063 146.251C111.701 164.596 97.5725 179.985 79.5126 180.628C61.4527 181.271 46.3079 166.924 45.6699 148.579C45.0368 130.239 59.1608 114.846 77.2208 114.202C95.2709 113.564 110.425 127.906 111.063 146.251Z" fill="white" stroke="black" stroke-width="1.73451" stroke-miterlimit="10" stroke-linecap="round" stroke-linejoin="round"/>
<path d="M76.8914 127.328C59.6805 140.648 61.8006 158.579 61.8006 158.579C61.8006 158.579 81.7303 184.451 107.387 162.781C107.387 162.781 113.973 152.218 111.009 139.521C108.05 126.829 98.0235 120.005 98.0235 120.005C98.0235 120.005 88.0905 118.654 76.8914 127.328Z" fill="#101210"/>
<path d="M102.508 169.841C76.5712 187.159 57.2402 158.739 57.2402 158.739C57.2402 158.739 59.3211 122.493 91.3872 116.92" stroke="black" stroke-width="1.73451" stroke-miterlimit="10" stroke-linecap="round" stroke-linejoin="round"/>
<path d="M70.7556 140.404C67.1093 145.245 66.0002 154.442 68.4785 155.758C70.9568 157.074 71.5654 146.661 75.4178 143.101C79.4666 139.353 74.451 135.519 70.7556 140.404Z" fill="white"/>
<path d="M76.1813 131.601C74.9151 132.224 74.3802 133.814 74.9936 135.095L75.1163 135.344C75.7298 136.626 77.2953 137.174 78.5565 136.551C79.8178 135.928 80.3576 134.337 79.7442 133.056L79.6264 132.807C79.008 131.521 77.4425 130.973 76.1813 131.601Z" fill="white"/>
<path d="M103.005 158.997C102.623 158.294 101.754 158.025 101.101 158.564C99.3199 160.034 92.2677 163.265 94.2062 166.515C95.6883 169.007 98.3678 167.691 100.375 165.602C102.672 164.022 104.375 161.52 103.005 158.997Z" fill="white"/>
<path d="M51.7614 157.847C48.1494 156.207 43.9387 151.107 42.8345 144.811C42.0395 140.269 44.4246 136.052 47.2906 136.999C47.2906 136.999 43.7915 148.649 54.701 153.729L51.7614 157.847Z" fill="white" stroke="black" stroke-width="1.73451" stroke-miterlimit="10" stroke-linecap="round" stroke-linejoin="round"/>
<path d="M62.714 157.816C63.2195 160.892 61.173 163.793 58.1499 164.302C55.1318 164.815 52.2657 162.737 51.7652 159.666C51.2597 156.59 53.3062 153.689 56.3292 153.18C59.3523 152.667 62.2085 154.741 62.714 157.816Z" fill="white" stroke="black" stroke-width="1.73451" stroke-miterlimit="10" stroke-linecap="round" stroke-linejoin="round"/>
<path d="M59.5682 158.345C59.7841 159.656 58.9106 160.892 57.6248 161.107C56.339 161.321 55.1219 160.439 54.906 159.133C54.69 157.827 55.5587 156.585 56.8445 156.371C58.1352 156.157 59.3523 157.039 59.5682 158.345Z" fill="white" stroke="black" stroke-width="1.73451" stroke-miterlimit="10" stroke-linecap="round" stroke-linejoin="round"/>
<path d="M53.5674 175.433C53.5674 175.433 63.5838 188.614 80.4806 188.1" stroke="black" stroke-width="1.73451" stroke-miterlimit="10" stroke-linecap="round" stroke-linejoin="round"/>
<path d="M101.923 177.751C101.923 177.751 96.0533 184.247 90.3311 186.076" stroke="black" stroke-width="1.73451" stroke-miterlimit="10" stroke-linecap="round" stroke-linejoin="round"/>
<path d="M102.502 197.692C102.502 197.692 100.642 195.404 96.6667 196.027C92.6965 196.65 72.0699 199.885 72.0699 199.885C70.4062 199.885 69.0566 201.251 69.0566 202.946V230.802C69.0566 232.492 70.4062 233.863 72.0699 233.863L99.4935 229.561C100.313 229.561 102.958 226.51 102.958 226.51L102.502 197.692Z" fill="white" stroke="black" stroke-width="1.73451" stroke-miterlimit="10" stroke-linecap="round" stroke-linejoin="round"/>
<path d="M103.664 224.681C103.664 226.182 102.466 227.403 100.984 227.403L76.6131 231.226C75.1408 231.226 73.9385 230.01 73.9385 228.505V203.749C73.9385 202.248 75.1408 201.027 76.6131 201.027L100.984 197.204C102.466 197.204 103.664 198.42 103.664 199.925V224.681Z" fill="white" stroke="black" stroke-width="1.73451" stroke-miterlimit="10" stroke-linecap="round" stroke-linejoin="round"/>
<path d="M70.6221 232.722L74.6021 230.304" stroke="black" stroke-width="1.73451" stroke-miterlimit="10" stroke-linecap="round" stroke-linejoin="round"/>
<path d="M69.8926 200.838L74.2554 202.458" stroke="black" stroke-width="1.73451" stroke-miterlimit="10" stroke-linecap="round" stroke-linejoin="round"/>
</g>
<path d="M128.973 76.126C129.328 75.8426 129.762 75.6629 130.218 75.6312C131.041 75.7994 130.73 76.7954 130.482 77.3294C129.814 78.8082 128.936 80.6279 127.147 80.8635C126.701 80.1745 126.923 79.338 127.172 78.6338C127.553 77.6668 128.136 76.7488 128.973 76.126Z" fill="white"/>
<path d="M137.907 87.0731C138.402 86.0221 139.54 85.0376 140.777 85.4399C142.532 86.0355 143.328 87.9909 143.484 89.7045C143.646 91.4503 143.086 93.5434 141.375 94.3019C140.589 94.0318 139.807 93.7393 138.971 93.6914C137.325 91.955 136.931 89.2026 137.907 87.0731ZM137.795 89.105C138.275 89.4604 138.767 89.7986 139.26 90.139C138.821 90.4157 138.401 90.7214 138.004 91.0529C138.364 91.8287 139.07 92.6129 140.002 92.4829C141.683 91.9515 142.045 89.7131 141.345 88.2572C141.009 87.4351 140.024 86.7661 139.16 87.1748C138.371 87.4897 138.08 88.3711 137.795 89.105Z" fill="white"/>
<path d="M112.236 92.3949C112.441 91.5884 113.763 91.6886 114.024 92.4348C114.413 93.3188 114.489 94.2897 114.671 95.2265C114.384 95.4774 114.036 95.6876 113.857 96.0425C113.686 96.5729 113.718 97.1856 113.355 97.6384C113.104 98.0917 112.503 98.6189 112.965 99.1509C113.207 99.6189 113.83 99.649 114.264 99.4957C115.251 99.2715 115.983 98.4026 116.22 97.4379C116.178 97.2347 115.946 97.1592 115.817 97.0191C115.57 97.7109 115.308 98.4898 114.569 98.7882C114.215 99.0163 113.378 99.2897 113.369 98.607C113.742 98.0106 114.219 97.4428 114.262 96.7003C114.233 96.0391 114.894 95.6823 115.471 95.6536C116.558 95.7604 117.278 96.8909 117.304 97.9189C117.161 98.7564 116.426 99.2764 115.878 99.8417C115.575 99.9959 115.77 100.312 115.797 100.564C116.073 100.359 116.347 100.154 116.618 99.9429C116.995 100.796 115.958 101.195 115.357 101.456C114.762 101.776 114.07 101.741 113.472 101.427C113.751 101.192 114.498 101.287 114.384 100.734C113.854 100.656 113.326 100.822 112.795 100.77C112.101 100.721 111.491 100.336 110.931 99.9459C111.687 99.9285 112.782 99.7391 112.75 98.7578C112.545 97.7258 111.737 96.8506 110.843 96.3231C110.116 95.867 109.245 95.2481 109.271 94.2894C109.277 93.7518 110.04 93.5435 110.418 93.8603C111.401 94.5011 112.075 95.5034 112.987 96.2302C113.116 96.1859 113.377 96.094 113.506 96.0475C112.996 94.8659 112.348 93.695 112.236 92.3949Z" fill="white"/>
<path d="M149.882 85.5251C150.391 84.8875 151.21 84.3934 152.055 84.5851C153.219 84.7961 154.056 85.8347 154.512 86.8778C155.286 88.7331 155.196 90.9705 154.072 92.6366C153.185 92.7585 152.324 93.023 151.58 93.5236C150.007 92.8904 149.144 91.2093 148.942 89.6019C148.772 88.1885 148.982 86.6483 149.882 85.5251ZM149.355 88.3548C149.84 88.6731 150.323 88.9942 150.809 89.3171C150.375 89.6118 149.946 89.9123 149.514 90.2065C149.836 90.7567 150.186 91.4055 150.838 91.6013C151.511 91.7492 152.269 91.4703 152.637 90.8846C153.41 89.7645 153.383 88.1741 152.64 87.0251C152.247 86.4341 151.462 86.0632 150.789 86.3392C149.933 86.624 149.58 87.5533 149.355 88.3548Z" fill="white"/>
<path d="M109.249 97.8208C109.603 97.4489 110.099 97.0082 110.647 97.312C111.265 97.669 112.14 98.0739 112.23 98.8574C111.837 99.7363 110.702 99.2311 110.033 98.9627C109.504 98.8149 109.323 98.3159 109.249 97.8208Z" fill="white"/>
<path d="M179.082 88.5741C179.436 88.1234 180.097 88.2693 180.591 88.3629C180.909 89.8304 180.122 91.198 179.83 92.5894C179.982 92.5732 180.285 92.5414 180.437 92.5252C181.226 91.7555 181.775 90.7473 182.658 90.0708C182.984 89.7655 183.436 89.9884 183.81 90.0572C184.109 91.096 183.335 91.9651 182.567 92.5143C181.688 93.1086 181.003 94.0358 180.803 95.0948C180.887 96.0494 181.969 96.2436 182.732 96.1671C182.249 96.5545 181.751 96.986 181.125 97.1096C180.499 97.2693 179.795 96.9276 179.241 97.3626C179.612 97.5518 179.991 97.7176 180.372 97.8828C179.429 98.4201 178.315 97.9988 177.441 97.4954C177.222 97.3164 176.856 97.0472 177.058 96.7226C177.429 96.7203 177.948 97.1959 178.177 96.7287C177.483 96.1166 176.726 95.5575 176.203 94.7763C176.195 93.8733 176.448 92.7951 177.335 92.388C177.872 92.0744 178.501 92.3448 179.004 92.6184C179.092 93.5674 179.585 94.3576 180.239 95.0269C180.326 95.5358 179.663 95.5246 179.353 95.3929C178.521 95.2126 177.948 94.5055 177.696 93.7189C177.518 93.7819 177.341 93.8444 177.167 93.9064C177.495 94.7925 178.139 95.598 179.068 95.8731C179.632 96.1061 180.568 96.0923 180.711 95.3579C180.973 94.5503 179.925 94.1687 179.777 93.4467C179.605 92.7327 179.33 92.0161 178.577 91.7529C178.668 90.6856 178.612 89.5545 179.082 88.5741Z" fill="white"/>
<path d="M134.847 116.821C135.551 115.78 137.341 115.817 137.901 117.022C138.391 117.866 138.002 118.763 137.763 119.594C138.673 119.737 138.618 118.386 138.809 117.776C139.599 117.916 139.034 118.861 139.651 119.156C140.126 119.347 140.442 118.915 140.754 118.641C140.852 118.925 140.943 119.21 141.025 119.498C140.569 120.003 139.945 119.583 139.403 119.477C139.246 120.26 140.318 120.303 140.83 120.347C140.858 120.925 140.546 121.373 140.112 121.708C138.553 121.886 137.103 121.09 135.842 120.239C134.81 119.504 134.136 117.968 134.847 116.821Z" fill="white"/>
<path d="M156.898 116.391C157.368 115.284 159.037 115.198 159.791 116.093C160.433 116.753 160.347 117.786 160.005 118.554C159.494 119.669 158.39 120.315 157.388 120.921C156.675 121.268 155.816 121.65 155.023 121.309C154.623 121.125 154.505 120.645 154.268 120.314C154.822 120.248 155.386 120.17 155.861 119.858C155.818 119.722 155.73 119.448 155.687 119.312C155.283 119.574 154.808 119.918 154.333 119.562C153.884 119.142 154.271 118.602 154.466 118.181C154.771 118.469 155.107 118.722 155.489 118.899C156.052 118.481 155.896 117.804 155.997 117.199C156.226 117.904 156.372 118.655 156.839 119.258C156.959 119.216 157.199 119.134 157.319 119.092C156.81 118.3 156.406 117.274 156.898 116.391Z" fill="white"/>
<path d="M137.797 89.1041C138.081 88.3702 138.372 87.4888 139.162 87.1739C140.025 86.7651 141.011 87.4341 141.347 88.2561C142.046 89.712 141.685 91.9503 140.004 92.4818C139.072 92.6119 138.366 91.8278 138.006 91.052C138.403 90.7205 138.823 90.4147 139.262 90.138C138.769 89.7976 138.277 89.4595 137.797 89.1041Z" fill="#0C0505"/>
<path d="M149.357 88.3558C149.582 87.5543 149.935 86.625 150.791 86.3402C151.464 86.0642 152.249 86.4351 152.642 87.0261C153.385 88.1751 153.411 89.7655 152.639 90.8855C152.271 91.4712 151.513 91.7501 150.84 91.6023C150.188 91.4064 149.838 90.7576 149.516 90.2075C149.948 89.9133 150.377 89.6128 150.811 89.318C150.325 88.9952 149.842 88.6741 149.357 88.3558Z" fill="#0C0505"/>
<path d="M143.104 94.1735C143.399 93.928 143.692 93.6711 144.017 93.4639C144.869 93.4912 145.645 94.2945 146.512 93.921C147.188 93.6231 147.781 93.1744 148.443 92.8509C148.883 93.3063 149.443 93.8367 149.234 94.5386C149.18 95.47 148.374 96.0735 147.587 96.3973C146.412 96.7919 145.01 96.768 143.989 95.9497C143.309 95.6215 143.275 94.8135 143.104 94.1735ZM145.019 96.0098C145.896 96.3542 146.839 96.2334 147.715 95.9942C147.538 95.5591 147.349 94.9616 146.779 94.9815C146.091 94.8779 144.77 95.0314 145.019 96.0098Z" fill="#0C0505"/>
<path d="M141.403 61.6144C142.216 60.8153 142.232 59.5954 142.452 58.5413C143.758 59.3895 145.028 60.5836 145.29 62.1938C145.53 63.2631 144.881 64.2874 145.08 65.352C145.359 66.307 146.319 66.9028 147.251 67.055C148.653 67.3066 150.157 67.3116 151.417 68.0794C152.604 68.8357 153.533 70.061 153.742 71.4751C154.174 72.8997 153.795 74.4022 153.167 75.6851C152.536 76.9471 151.317 77.7305 150.156 78.4451C150.19 78.5737 150.254 78.8341 150.285 78.9632C151.475 78.62 152.501 77.8769 153.254 76.9025C153.993 75.9266 155.096 75.168 156.356 75.1317C158.582 75.0887 160.726 76.3026 162.178 77.9714C164.211 80.3194 164.633 83.7857 163.621 86.6251C162.215 88.8999 159.89 90.3685 157.534 91.5017C157.707 91.6578 157.88 91.8139 158.056 91.9718C159.738 91.3253 161.273 90.3154 162.535 89.029C163.021 88.5572 163.442 88.0142 163.983 87.6037C164.591 87.3692 165.253 87.625 165.853 87.7922C167.937 88.3783 169.687 89.8967 170.838 91.7192C172.618 94.5925 173.069 98.2651 171.925 101.418C170.473 105.661 166.791 108.697 162.844 110.513C159.525 112.138 155.87 112.876 152.261 113.597C143.589 114.887 134.31 113.266 126.809 108.413C124.287 106.631 121.967 104.153 121.334 101.035C120.595 98.4011 120.933 95.5436 122.065 93.1072C123.096 90.9863 125.035 89.416 127.201 88.5733C127.634 88.3721 128.029 88.776 128.374 88.9951C129.326 89.7508 130.366 90.3926 131.5 90.8261C132.479 91.1996 133.473 91.7036 134.543 91.6444C134.857 91.3394 134.501 90.9289 134.144 90.9113C131.184 90.2243 128.123 88.6871 126.593 85.9065C125.613 83.9724 125.373 81.6824 125.921 79.6067C126.339 77.6017 127.675 75.8051 129.542 74.9695C131.084 74.3029 132.831 74.072 134.499 74.4053C135.086 74.5227 135.74 74.6605 136.129 75.1736C136.999 76.1948 138.157 77.1467 139.551 77.1608C139.311 76.2375 138.243 76.1694 137.597 75.6491C136.092 74.4831 135.406 72.5958 135.049 70.79C134.393 68.1081 135.576 65.1142 137.859 63.6482C139.002 62.8995 140.462 62.6658 141.403 61.6144ZM128.972 76.1239C128.135 76.7467 127.553 77.6648 127.171 78.6318C126.922 79.3359 126.701 80.1725 127.146 80.8614C128.935 80.6256 129.813 78.806 130.481 77.3272C130.73 76.7932 131.04 75.7972 130.217 75.6291C129.761 75.6608 129.327 75.8406 128.972 76.1239ZM136.762 89.5375C136.693 91.0758 137.368 92.499 138.108 93.8113C137.587 94.0233 137.076 94.2568 136.572 94.5006C136.598 94.624 136.648 94.8684 136.673 94.9895C137.897 94.5906 139.255 94.0669 140.521 94.6827C141.317 94.9265 141.667 95.7285 142.023 96.4094C142.149 96.373 142.403 96.2996 142.529 96.2632C142.353 95.7728 142.173 95.2807 141.987 94.7924C144.595 92.9472 144.719 88.9662 143.009 86.407C142.213 85.1314 140.498 84.2944 139.085 84.9528C137.448 85.7996 136.703 87.7464 136.762 89.5375ZM149.8 84.6989C148.235 86.2589 147.91 88.8 148.59 90.8731C148.967 92.2099 149.935 93.2539 150.998 94.0962C150.868 94.5716 150.748 95.0495 150.674 95.5383C151.501 95.5736 151.486 94.4281 152.057 94.0131C153.3 92.9682 154.973 93.4966 156.434 93.5476C156.009 93.0862 155.431 92.8636 154.844 92.7102C155.752 90.8669 155.955 88.6391 155.131 86.7001C154.576 85.3999 153.516 84.1259 152.048 83.9305C151.217 83.7402 150.371 84.1115 149.8 84.6989ZM143.102 94.1699C143.272 94.81 143.307 95.6183 143.986 95.9466C145.008 96.765 146.41 96.7889 147.585 96.3941C148.372 96.0701 149.179 95.4664 149.233 94.5348C149.442 93.8327 148.881 93.3022 148.441 92.8467C147.779 93.1703 147.186 93.6192 146.51 93.9171C145.643 94.2908 144.866 93.4873 144.014 93.46C143.689 93.6673 143.397 93.9243 143.102 94.1699Z" fill="white"/>
<path d="M145.019 96.0112C144.77 95.0327 146.091 94.8792 146.779 94.9828C147.35 94.9629 147.538 95.5605 147.716 95.9956C146.839 96.2349 145.896 96.3557 145.019 96.0112Z" fill="#A79CEE"/>
<mask id="path-48-outside-1_2243_27414" maskUnits="userSpaceOnUse" x="99.9132" y="48.8035" width="91.3312" height="84.3684" fill="black">
<rect fill="white" x="99.9132" y="48.8035" width="91.3312" height="84.3684"/>
<path d="M141.591 57.668C141.694 57.6175 141.902 57.5116 142.006 57.4612C143.599 58.4582 145.258 59.7012 145.816 61.5948C146.147 62.6148 145.88 63.6633 145.694 64.6693C145.526 65.3189 145.989 65.9992 146.611 66.1899C147.931 66.6709 149.38 66.5185 150.695 67.0293C152.51 67.6157 153.922 69.2367 154.342 71.0955C154.752 72.4513 154.56 73.8896 154.092 75.1862C155.274 74.5044 156.692 74.3114 158.026 74.6573C160.462 75.2789 162.631 76.9826 163.811 79.2299C164.999 81.5591 165.008 84.33 164.286 86.7705C166.571 87.0582 168.782 88.1489 170.292 89.946C172.323 92.2277 173.339 95.3417 173.179 98.3602C173.865 98.9406 174.555 99.7933 175.528 99.7563C176.385 99.6049 177.03 98.9403 177.502 98.2487C177.135 97.922 176.597 97.6494 176.53 97.1143C176.473 96.8116 176.661 96.5379 176.737 96.2569C176.184 95.6836 175.551 95.0022 175.688 94.1418C175.739 92.8203 176.774 91.7224 178.074 91.5733C178.115 90.5222 178.073 89.4137 178.543 88.452C179.022 87.4234 180.803 87.4381 181.227 88.5512C181.417 89.4721 181.101 90.3815 180.836 91.2451C181.487 90.5406 182.01 89.5236 183.021 89.3244C183.933 89.1244 184.635 90.1538 184.414 90.9811C184.187 91.8025 183.573 92.4361 182.896 92.9096C182.861 93.1237 182.803 93.3311 182.724 93.5314C182.196 93.9632 181.532 94.328 181.345 95.042C181.404 95.5409 182.014 95.7128 182.426 95.581C183.056 95.3987 183.734 95.1598 184.146 94.6209C184.343 94.0221 183.868 93.3686 183.24 93.366C183.196 93.3212 183.105 93.2298 183.061 93.185C183.483 92.6368 184.19 93.0326 184.499 93.5093C184.891 94.0406 184.81 94.8858 184.27 95.2722C183.749 95.7069 183.343 96.2515 182.894 96.7558C182.375 97.3146 181.627 97.5341 180.91 97.708C180.638 98.6165 179.61 98.7883 178.791 98.6434C178.164 99.8501 177.097 100.898 175.697 101.065C174.664 101.312 173.782 100.569 172.979 100.018C172.236 103.9 169.592 107.108 166.414 109.264C162.639 111.804 158.201 113.147 153.756 114.005C154.449 114.977 155.049 116.008 155.629 117.049C156.313 116.837 156.373 116.04 156.815 115.574C157.705 114.636 159.461 114.753 160.245 115.818C160.701 116.426 161.158 117.102 161.191 117.885C161.209 119.088 160.573 120.239 159.617 120.926C158.519 121.787 157.23 122.64 155.769 122.558C154.884 122.502 154.393 121.666 153.996 120.975C153.864 120.338 153.718 119.703 153.561 119.072C153.576 118.458 154.024 117.985 154.385 117.539C153.779 116.399 153.114 115.277 152.27 114.295C149.015 114.7 145.712 114.826 142.432 114.491C141.651 115.544 141.157 116.792 140.732 118.031C141.201 118.441 141.509 118.983 141.577 119.606C141.482 119.722 141.295 119.954 141.203 120.072C141.251 120.23 141.349 120.55 141.399 120.708C141.084 121.5 140.799 122.527 139.879 122.781C138.424 123.191 136.998 122.342 135.757 121.646C134.518 120.981 133.613 119.616 133.725 118.182C133.991 116.901 134.855 115.462 136.331 115.517C137.421 115.464 138.252 116.325 138.624 117.29C138.92 117.36 139.215 117.433 139.508 117.51C139.884 116.396 140.323 115.293 140.981 114.316C135.946 113.518 130.923 111.949 126.634 109.052C124.353 107.527 122.348 105.457 121.256 102.9C120.563 103.561 119.8 104.311 118.784 104.358C117.292 104.341 115.938 103.403 115.177 102.131C114.695 102.212 114.183 102.288 113.709 102.104C113.248 101.871 113.028 101.256 112.453 101.253C111.573 101.103 110.798 100.584 110.239 99.8881C109.842 99.3291 108.983 99.1935 108.839 98.4438C108.593 97.682 109.169 96.9997 109.803 96.6872C110.06 96.7305 110.315 96.7693 110.571 96.8081C109.851 96.2857 109.057 95.7376 108.752 94.8529C108.472 94.0847 109.062 93.1023 109.893 93.1127C110.995 93.2084 111.637 94.2445 112.36 94.9626C112.064 94.0352 111.462 93.0928 111.732 92.0912C112.18 91.1348 113.788 90.9956 114.352 91.9445C114.88 92.9041 114.959 94.0184 115.177 95.0695C115.61 95.146 116.037 95.2501 116.464 95.3666C117.23 96.0145 117.952 96.9507 117.816 98.0096C117.783 98.6448 117.331 99.1113 116.959 99.5715C117.094 99.8633 117.203 100.164 117.286 100.472C117.199 100.988 116.764 101.3 116.418 101.634C117.015 102.382 117.889 103.127 118.898 102.967C119.685 102.719 120.179 102.003 120.75 101.454C119.994 98.6216 120.233 95.5274 121.464 92.9017C122.614 90.5342 124.758 88.805 127.172 87.8584C125.603 86.0799 124.816 83.6671 125.006 81.3218C125.127 78.7743 126.269 76.1717 128.46 74.8075C130.517 73.5919 133.115 73.261 135.426 73.9883C134.574 72.2491 134.048 70.2974 134.269 68.3664C134.545 65.747 136.34 63.3735 138.771 62.4277C139.684 62.0598 140.725 61.6791 141.226 60.7603C141.753 59.8285 141.718 58.7088 141.591 57.668ZM141.392 61.6102C140.452 62.662 138.992 62.8959 137.85 63.6451C135.568 65.1118 134.387 68.1066 135.045 70.7891C135.402 72.5954 136.089 74.4831 137.594 75.6492C138.239 76.1696 139.307 76.2376 139.547 77.1611C138.155 77.1472 136.996 76.1952 136.126 75.1738C135.737 74.6607 135.084 74.5229 134.496 74.4055C132.829 74.0723 131.082 74.3035 129.542 74.9705C127.675 75.8065 126.341 77.6038 125.923 79.6094C125.376 81.6858 125.618 83.9764 126.598 85.9109C128.129 88.692 131.19 90.2292 134.148 90.9161C134.505 90.9337 134.861 91.3442 134.548 91.6494C133.479 91.7087 132.484 91.2047 131.505 90.8312C130.372 90.3978 129.332 89.7559 128.38 89.0001C128.035 88.7809 127.64 88.377 127.207 88.5783C125.042 89.4216 123.105 90.9925 122.075 93.1141C120.944 95.5513 120.608 98.4097 121.348 101.044C121.982 104.163 124.302 106.641 126.824 108.423C134.325 113.277 143.602 114.897 152.269 113.606C155.877 112.885 159.53 112.146 162.847 110.52C166.792 108.702 170.472 105.666 171.922 101.421C173.064 98.2672 172.611 94.5936 170.83 91.7197C169.678 89.8969 167.929 88.3782 165.845 87.7923C165.245 87.6251 164.584 87.3693 163.976 87.6039C163.436 88.0146 163.015 88.5578 162.529 89.0298C161.268 90.3167 159.734 91.3271 158.053 91.974C157.877 91.8161 157.704 91.66 157.531 91.5039C159.885 90.37 162.209 88.9008 163.613 86.6251C164.624 83.7848 164.201 80.3176 162.167 77.9692C160.715 76.3001 158.571 75.0862 156.346 75.1294C155.086 75.1659 153.984 75.9248 153.246 76.9011C152.493 77.8759 151.468 78.6193 150.279 78.9628C150.247 78.8336 150.184 78.5731 150.15 78.4445C151.309 77.7295 152.528 76.9458 153.158 75.6834C153.786 74.4001 154.163 72.8971 153.731 71.4721C153.522 70.0576 152.592 68.8322 151.406 68.0758C150.146 67.3079 148.642 67.3031 147.241 67.0516C146.309 66.8995 145.349 66.3036 145.07 65.3484C144.87 64.2836 145.519 63.2588 145.278 62.1893C145.016 60.5787 143.746 59.3845 142.44 58.5362C142.22 59.5906 142.204 60.8108 141.392 61.6102ZM112.235 92.3935C112.348 93.694 112.996 94.865 113.506 96.0468C113.378 96.0934 113.116 96.1853 112.988 96.2296C112.076 95.5028 111.402 94.5004 110.419 93.8596C110.041 93.5428 109.278 93.7513 109.272 94.289C109.247 95.248 110.118 95.8669 110.845 96.3229C111.739 96.8504 112.547 97.7257 112.753 98.7579C112.785 99.7394 111.69 99.9291 110.935 99.9466C111.494 100.336 112.105 100.721 112.798 100.771C113.329 100.822 113.857 100.656 114.387 100.734C114.501 101.287 113.754 101.193 113.475 101.428C114.073 101.741 114.765 101.777 115.359 101.457C115.96 101.195 116.996 100.796 116.619 99.9426C116.349 100.154 116.075 100.359 115.798 100.564C115.772 100.312 115.576 99.9957 115.879 99.8415C116.427 99.2759 117.161 98.7557 117.304 97.9179C117.277 96.8897 116.557 95.7591 115.471 95.6524C114.893 95.6813 114.233 96.0383 114.262 96.6996C114.22 97.4423 113.743 98.0104 113.371 98.6069C113.38 99.2898 114.217 99.0162 114.57 98.7879C115.309 98.4894 115.57 97.7102 115.817 97.0183C115.946 97.1583 116.178 97.2338 116.22 97.437C115.984 98.402 115.252 99.2713 114.266 99.4957C113.832 99.6492 113.21 99.6191 112.967 99.151C112.506 98.6189 113.105 98.0916 113.356 97.6381C113.719 97.1851 113.687 96.5723 113.857 96.0418C114.036 95.6867 114.384 95.4764 114.67 95.2254C114.488 94.2884 114.411 93.3173 114.022 92.4331C113.761 91.6868 112.44 91.5868 112.235 92.3935ZM109.25 97.8215C109.324 98.3167 109.505 98.8158 110.034 98.9635C110.703 99.2318 111.837 99.7369 112.23 98.8577C112.14 98.0741 111.265 97.6693 110.647 97.3124C110.099 97.0087 109.604 97.4495 109.25 97.8215ZM179.081 88.5735C178.612 89.5543 178.669 90.6857 178.578 91.7533C179.331 92.0165 179.606 92.7332 179.778 93.4474C179.927 94.1696 180.974 94.5512 180.713 95.359C180.571 96.0937 179.635 96.1077 179.071 95.8747C178.142 95.5997 177.498 94.7941 177.169 93.9077C177.344 93.8457 177.52 93.7832 177.699 93.7201C177.951 94.5069 178.524 95.2141 179.356 95.3943C179.665 95.526 180.328 95.5371 180.241 95.028C179.587 94.3587 179.093 93.5683 179.005 92.619C178.503 92.3455 177.873 92.0751 177.337 92.3889C176.45 92.7962 176.198 93.8749 176.206 94.7781C176.729 95.5594 177.486 96.1186 178.181 96.7307C177.952 97.1981 177.433 96.7225 177.062 96.7249C176.86 97.0496 177.226 97.3188 177.445 97.4978C178.319 98.0012 179.433 98.4224 180.376 97.8848C179.994 97.7196 179.615 97.5539 179.245 97.3646C179.798 96.9294 180.502 97.2711 181.128 97.1112C181.753 96.9875 182.251 96.5557 182.734 96.1681C181.971 96.2447 180.889 96.0508 180.805 95.0959C181.004 94.0365 181.688 93.1089 182.567 92.5142C183.334 91.9648 184.108 91.0952 183.809 90.0561C183.435 89.9874 182.982 89.7645 182.657 90.0699C181.775 90.7468 181.227 91.7555 180.438 92.5255C180.285 92.5417 179.983 92.5736 179.831 92.5899C180.122 91.198 180.909 89.8298 180.589 88.3619C180.095 88.2683 179.435 88.1225 179.081 88.5735ZM134.848 116.822C134.137 117.969 134.811 119.505 135.843 120.24C137.105 121.091 138.554 121.887 140.113 121.709C140.547 121.374 140.858 120.925 140.83 120.347C140.318 120.304 139.247 120.26 139.403 119.477C139.945 119.583 140.569 120.004 141.025 119.498C140.942 119.21 140.851 118.925 140.753 118.641C140.442 118.915 140.126 119.347 139.651 119.156C139.034 118.861 139.598 117.916 138.809 117.776C138.617 118.386 138.674 119.737 137.763 119.595C138.002 118.763 138.391 117.866 137.9 117.022C137.34 115.816 135.551 115.779 134.848 116.822ZM156.897 116.39C156.405 117.273 156.811 118.3 157.319 119.092C157.199 119.134 156.959 119.216 156.839 119.258C156.372 118.655 156.226 117.904 155.996 117.198C155.896 117.804 156.053 118.481 155.49 118.899C155.108 118.722 154.772 118.47 154.467 118.181C154.272 118.603 153.886 119.142 154.334 119.563C154.81 119.919 155.284 119.574 155.688 119.313C155.731 119.449 155.82 119.723 155.862 119.859C155.387 120.17 154.824 120.249 154.27 120.315C154.507 120.646 154.625 121.126 155.025 121.311C155.819 121.651 156.676 121.269 157.389 120.922C158.391 120.315 159.494 119.669 160.004 118.554C160.346 117.785 160.431 116.752 159.789 116.092C159.035 115.197 157.366 115.283 156.897 116.39Z"/>
</mask>
<path d="M141.591 57.668C141.694 57.6175 141.902 57.5116 142.006 57.4612C143.599 58.4582 145.258 59.7012 145.816 61.5948C146.147 62.6148 145.88 63.6633 145.694 64.6693C145.526 65.3189 145.989 65.9992 146.611 66.1899C147.931 66.6709 149.38 66.5185 150.695 67.0293C152.51 67.6157 153.922 69.2367 154.342 71.0955C154.752 72.4513 154.56 73.8896 154.092 75.1862C155.274 74.5044 156.692 74.3114 158.026 74.6573C160.462 75.2789 162.631 76.9826 163.811 79.2299C164.999 81.5591 165.008 84.33 164.286 86.7705C166.571 87.0582 168.782 88.1489 170.292 89.946C172.323 92.2277 173.339 95.3417 173.179 98.3602C173.865 98.9406 174.555 99.7933 175.528 99.7563C176.385 99.6049 177.03 98.9403 177.502 98.2487C177.135 97.922 176.597 97.6494 176.53 97.1143C176.473 96.8116 176.661 96.5379 176.737 96.2569C176.184 95.6836 175.551 95.0022 175.688 94.1418C175.739 92.8203 176.774 91.7224 178.074 91.5733C178.115 90.5222 178.073 89.4137 178.543 88.452C179.022 87.4234 180.803 87.4381 181.227 88.5512C181.417 89.4721 181.101 90.3815 180.836 91.2451C181.487 90.5406 182.01 89.5236 183.021 89.3244C183.933 89.1244 184.635 90.1538 184.414 90.9811C184.187 91.8025 183.573 92.4361 182.896 92.9096C182.861 93.1237 182.803 93.3311 182.724 93.5314C182.196 93.9632 181.532 94.328 181.345 95.042C181.404 95.5409 182.014 95.7128 182.426 95.581C183.056 95.3987 183.734 95.1598 184.146 94.6209C184.343 94.0221 183.868 93.3686 183.24 93.366C183.196 93.3212 183.105 93.2298 183.061 93.185C183.483 92.6368 184.19 93.0326 184.499 93.5093C184.891 94.0406 184.81 94.8858 184.27 95.2722C183.749 95.7069 183.343 96.2515 182.894 96.7558C182.375 97.3146 181.627 97.5341 180.91 97.708C180.638 98.6165 179.61 98.7883 178.791 98.6434C178.164 99.8501 177.097 100.898 175.697 101.065C174.664 101.312 173.782 100.569 172.979 100.018C172.236 103.9 169.592 107.108 166.414 109.264C162.639 111.804 158.201 113.147 153.756 114.005C154.449 114.977 155.049 116.008 155.629 117.049C156.313 116.837 156.373 116.04 156.815 115.574C157.705 114.636 159.461 114.753 160.245 115.818C160.701 116.426 161.158 117.102 161.191 117.885C161.209 119.088 160.573 120.239 159.617 120.926C158.519 121.787 157.23 122.64 155.769 122.558C154.884 122.502 154.393 121.666 153.996 120.975C153.864 120.338 153.718 119.703 153.561 119.072C153.576 118.458 154.024 117.985 154.385 117.539C153.779 116.399 153.114 115.277 152.27 114.295C149.015 114.7 145.712 114.826 142.432 114.491C141.651 115.544 141.157 116.792 140.732 118.031C141.201 118.441 141.509 118.983 141.577 119.606C141.482 119.722 141.295 119.954 141.203 120.072C141.251 120.23 141.349 120.55 141.399 120.708C141.084 121.5 140.799 122.527 139.879 122.781C138.424 123.191 136.998 122.342 135.757 121.646C134.518 120.981 133.613 119.616 133.725 118.182C133.991 116.901 134.855 115.462 136.331 115.517C137.421 115.464 138.252 116.325 138.624 117.29C138.92 117.36 139.215 117.433 139.508 117.51C139.884 116.396 140.323 115.293 140.981 114.316C135.946 113.518 130.923 111.949 126.634 109.052C124.353 107.527 122.348 105.457 121.256 102.9C120.563 103.561 119.8 104.311 118.784 104.358C117.292 104.341 115.938 103.403 115.177 102.131C114.695 102.212 114.183 102.288 113.709 102.104C113.248 101.871 113.028 101.256 112.453 101.253C111.573 101.103 110.798 100.584 110.239 99.8881C109.842 99.3291 108.983 99.1935 108.839 98.4438C108.593 97.682 109.169 96.9997 109.803 96.6872C110.06 96.7305 110.315 96.7693 110.571 96.8081C109.851 96.2857 109.057 95.7376 108.752 94.8529C108.472 94.0847 109.062 93.1023 109.893 93.1127C110.995 93.2084 111.637 94.2445 112.36 94.9626C112.064 94.0352 111.462 93.0928 111.732 92.0912C112.18 91.1348 113.788 90.9956 114.352 91.9445C114.88 92.9041 114.959 94.0184 115.177 95.0695C115.61 95.146 116.037 95.2501 116.464 95.3666C117.23 96.0145 117.952 96.9507 117.816 98.0096C117.783 98.6448 117.331 99.1113 116.959 99.5715C117.094 99.8633 117.203 100.164 117.286 100.472C117.199 100.988 116.764 101.3 116.418 101.634C117.015 102.382 117.889 103.127 118.898 102.967C119.685 102.719 120.179 102.003 120.75 101.454C119.994 98.6216 120.233 95.5274 121.464 92.9017C122.614 90.5342 124.758 88.805 127.172 87.8584C125.603 86.0799 124.816 83.6671 125.006 81.3218C125.127 78.7743 126.269 76.1717 128.46 74.8075C130.517 73.5919 133.115 73.261 135.426 73.9883C134.574 72.2491 134.048 70.2974 134.269 68.3664C134.545 65.747 136.34 63.3735 138.771 62.4277C139.684 62.0598 140.725 61.6791 141.226 60.7603C141.753 59.8285 141.718 58.7088 141.591 57.668ZM141.392 61.6102C140.452 62.662 138.992 62.8959 137.85 63.6451C135.568 65.1118 134.387 68.1066 135.045 70.7891C135.402 72.5954 136.089 74.4831 137.594 75.6492C138.239 76.1696 139.307 76.2376 139.547 77.1611C138.155 77.1472 136.996 76.1952 136.126 75.1738C135.737 74.6607 135.084 74.5229 134.496 74.4055C132.829 74.0723 131.082 74.3035 129.542 74.9705C127.675 75.8065 126.341 77.6038 125.923 79.6094C125.376 81.6858 125.618 83.9764 126.598 85.9109C128.129 88.692 131.19 90.2292 134.148 90.9161C134.505 90.9337 134.861 91.3442 134.548 91.6494C133.479 91.7087 132.484 91.2047 131.505 90.8312C130.372 90.3978 129.332 89.7559 128.38 89.0001C128.035 88.7809 127.64 88.377 127.207 88.5783C125.042 89.4216 123.105 90.9925 122.075 93.1141C120.944 95.5513 120.608 98.4097 121.348 101.044C121.982 104.163 124.302 106.641 126.824 108.423C134.325 113.277 143.602 114.897 152.269 113.606C155.877 112.885 159.53 112.146 162.847 110.52C166.792 108.702 170.472 105.666 171.922 101.421C173.064 98.2672 172.611 94.5936 170.83 91.7197C169.678 89.8969 167.929 88.3782 165.845 87.7923C165.245 87.6251 164.584 87.3693 163.976 87.6039C163.436 88.0146 163.015 88.5578 162.529 89.0298C161.268 90.3167 159.734 91.3271 158.053 91.974C157.877 91.8161 157.704 91.66 157.531 91.5039C159.885 90.37 162.209 88.9008 163.613 86.6251C164.624 83.7848 164.201 80.3176 162.167 77.9692C160.715 76.3001 158.571 75.0862 156.346 75.1294C155.086 75.1659 153.984 75.9248 153.246 76.9011C152.493 77.8759 151.468 78.6193 150.279 78.9628C150.247 78.8336 150.184 78.5731 150.15 78.4445C151.309 77.7295 152.528 76.9458 153.158 75.6834C153.786 74.4001 154.163 72.8971 153.731 71.4721C153.522 70.0576 152.592 68.8322 151.406 68.0758C150.146 67.3079 148.642 67.3031 147.241 67.0516C146.309 66.8995 145.349 66.3036 145.07 65.3484C144.87 64.2836 145.519 63.2588 145.278 62.1893C145.016 60.5787 143.746 59.3845 142.44 58.5362C142.22 59.5906 142.204 60.8108 141.392 61.6102ZM112.235 92.3935C112.348 93.694 112.996 94.865 113.506 96.0468C113.378 96.0934 113.116 96.1853 112.988 96.2296C112.076 95.5028 111.402 94.5004 110.419 93.8596C110.041 93.5428 109.278 93.7513 109.272 94.289C109.247 95.248 110.118 95.8669 110.845 96.3229C111.739 96.8504 112.547 97.7257 112.753 98.7579C112.785 99.7394 111.69 99.9291 110.935 99.9466C111.494 100.336 112.105 100.721 112.798 100.771C113.329 100.822 113.857 100.656 114.387 100.734C114.501 101.287 113.754 101.193 113.475 101.428C114.073 101.741 114.765 101.777 115.359 101.457C115.96 101.195 116.996 100.796 116.619 99.9426C116.349 100.154 116.075 100.359 115.798 100.564C115.772 100.312 115.576 99.9957 115.879 99.8415C116.427 99.2759 117.161 98.7557 117.304 97.9179C117.277 96.8897 116.557 95.7591 115.471 95.6524C114.893 95.6813 114.233 96.0383 114.262 96.6996C114.22 97.4423 113.743 98.0104 113.371 98.6069C113.38 99.2898 114.217 99.0162 114.57 98.7879C115.309 98.4894 115.57 97.7102 115.817 97.0183C115.946 97.1583 116.178 97.2338 116.22 97.437C115.984 98.402 115.252 99.2713 114.266 99.4957C113.832 99.6492 113.21 99.6191 112.967 99.151C112.506 98.6189 113.105 98.0916 113.356 97.6381C113.719 97.1851 113.687 96.5723 113.857 96.0418C114.036 95.6867 114.384 95.4764 114.67 95.2254C114.488 94.2884 114.411 93.3173 114.022 92.4331C113.761 91.6868 112.44 91.5868 112.235 92.3935ZM109.25 97.8215C109.324 98.3167 109.505 98.8158 110.034 98.9635C110.703 99.2318 111.837 99.7369 112.23 98.8577C112.14 98.0741 111.265 97.6693 110.647 97.3124C110.099 97.0087 109.604 97.4495 109.25 97.8215ZM179.081 88.5735C178.612 89.5543 178.669 90.6857 178.578 91.7533C179.331 92.0165 179.606 92.7332 179.778 93.4474C179.927 94.1696 180.974 94.5512 180.713 95.359C180.571 96.0937 179.635 96.1077 179.071 95.8747C178.142 95.5997 177.498 94.7941 177.169 93.9077C177.344 93.8457 177.52 93.7832 177.699 93.7201C177.951 94.5069 178.524 95.2141 179.356 95.3943C179.665 95.526 180.328 95.5371 180.241 95.028C179.587 94.3587 179.093 93.5683 179.005 92.619C178.503 92.3455 177.873 92.0751 177.337 92.3889C176.45 92.7962 176.198 93.8749 176.206 94.7781C176.729 95.5594 177.486 96.1186 178.181 96.7307C177.952 97.1981 177.433 96.7225 177.062 96.7249C176.86 97.0496 177.226 97.3188 177.445 97.4978C178.319 98.0012 179.433 98.4224 180.376 97.8848C179.994 97.7196 179.615 97.5539 179.245 97.3646C179.798 96.9294 180.502 97.2711 181.128 97.1112C181.753 96.9875 182.251 96.5557 182.734 96.1681C181.971 96.2447 180.889 96.0508 180.805 95.0959C181.004 94.0365 181.688 93.1089 182.567 92.5142C183.334 91.9648 184.108 91.0952 183.809 90.0561C183.435 89.9874 182.982 89.7645 182.657 90.0699C181.775 90.7468 181.227 91.7555 180.438 92.5255C180.285 92.5417 179.983 92.5736 179.831 92.5899C180.122 91.198 180.909 89.8298 180.589 88.3619C180.095 88.2683 179.435 88.1225 179.081 88.5735ZM134.848 116.822C134.137 117.969 134.811 119.505 135.843 120.24C137.105 121.091 138.554 121.887 140.113 121.709C140.547 121.374 140.858 120.925 140.83 120.347C140.318 120.304 139.247 120.26 139.403 119.477C139.945 119.583 140.569 120.004 141.025 119.498C140.942 119.21 140.851 118.925 140.753 118.641C140.442 118.915 140.126 119.347 139.651 119.156C139.034 118.861 139.598 117.916 138.809 117.776C138.617 118.386 138.674 119.737 137.763 119.595C138.002 118.763 138.391 117.866 137.9 117.022C137.34 115.816 135.551 115.779 134.848 116.822ZM156.897 116.39C156.405 117.273 156.811 118.3 157.319 119.092C157.199 119.134 156.959 119.216 156.839 119.258C156.372 118.655 156.226 117.904 155.996 117.198C155.896 117.804 156.053 118.481 155.49 118.899C155.108 118.722 154.772 118.47 154.467 118.181C154.272 118.603 153.886 119.142 154.334 119.563C154.81 119.919 155.284 119.574 155.688 119.313C155.731 119.449 155.82 119.723 155.862 119.859C155.387 120.17 154.824 120.249 154.27 120.315C154.507 120.646 154.625 121.126 155.025 121.311C155.819 121.651 156.676 121.269 157.389 120.922C158.391 120.315 159.494 119.669 160.004 118.554C160.346 117.785 160.431 116.752 159.789 116.092C159.035 115.197 157.366 115.283 156.897 116.39Z" fill="#0C0505"/>
<path d="M141.591 57.668C141.694 57.6175 141.902 57.5116 142.006 57.4612C143.599 58.4582 145.258 59.7012 145.816 61.5948C146.147 62.6148 145.88 63.6633 145.694 64.6693C145.526 65.3189 145.989 65.9992 146.611 66.1899C147.931 66.6709 149.38 66.5185 150.695 67.0293C152.51 67.6157 153.922 69.2367 154.342 71.0955C154.752 72.4513 154.56 73.8896 154.092 75.1862C155.274 74.5044 156.692 74.3114 158.026 74.6573C160.462 75.2789 162.631 76.9826 163.811 79.2299C164.999 81.5591 165.008 84.33 164.286 86.7705C166.571 87.0582 168.782 88.1489 170.292 89.946C172.323 92.2277 173.339 95.3417 173.179 98.3602C173.865 98.9406 174.555 99.7933 175.528 99.7563C176.385 99.6049 177.03 98.9403 177.502 98.2487C177.135 97.922 176.597 97.6494 176.53 97.1143C176.473 96.8116 176.661 96.5379 176.737 96.2569C176.184 95.6836 175.551 95.0022 175.688 94.1418C175.739 92.8203 176.774 91.7224 178.074 91.5733C178.115 90.5222 178.073 89.4137 178.543 88.452C179.022 87.4234 180.803 87.4381 181.227 88.5512C181.417 89.4721 181.101 90.3815 180.836 91.2451C181.487 90.5406 182.01 89.5236 183.021 89.3244C183.933 89.1244 184.635 90.1538 184.414 90.9811C184.187 91.8025 183.573 92.4361 182.896 92.9096C182.861 93.1237 182.803 93.3311 182.724 93.5314C182.196 93.9632 181.532 94.328 181.345 95.042C181.404 95.5409 182.014 95.7128 182.426 95.581C183.056 95.3987 183.734 95.1598 184.146 94.6209C184.343 94.0221 183.868 93.3686 183.24 93.366C183.196 93.3212 183.105 93.2298 183.061 93.185C183.483 92.6368 184.19 93.0326 184.499 93.5093C184.891 94.0406 184.81 94.8858 184.27 95.2722C183.749 95.7069 183.343 96.2515 182.894 96.7558C182.375 97.3146 181.627 97.5341 180.91 97.708C180.638 98.6165 179.61 98.7883 178.791 98.6434C178.164 99.8501 177.097 100.898 175.697 101.065C174.664 101.312 173.782 100.569 172.979 100.018C172.236 103.9 169.592 107.108 166.414 109.264C162.639 111.804 158.201 113.147 153.756 114.005C154.449 114.977 155.049 116.008 155.629 117.049C156.313 116.837 156.373 116.04 156.815 115.574C157.705 114.636 159.461 114.753 160.245 115.818C160.701 116.426 161.158 117.102 161.191 117.885C161.209 119.088 160.573 120.239 159.617 120.926C158.519 121.787 157.23 122.64 155.769 122.558C154.884 122.502 154.393 121.666 153.996 120.975C153.864 120.338 153.718 119.703 153.561 119.072C153.576 118.458 154.024 117.985 154.385 117.539C153.779 116.399 153.114 115.277 152.27 114.295C149.015 114.7 145.712 114.826 142.432 114.491C141.651 115.544 141.157 116.792 140.732 118.031C141.201 118.441 141.509 118.983 141.577 119.606C141.482 119.722 141.295 119.954 141.203 120.072C141.251 120.23 141.349 120.55 141.399 120.708C141.084 121.5 140.799 122.527 139.879 122.781C138.424 123.191 136.998 122.342 135.757 121.646C134.518 120.981 133.613 119.616 133.725 118.182C133.991 116.901 134.855 115.462 136.331 115.517C137.421 115.464 138.252 116.325 138.624 117.29C138.92 117.36 139.215 117.433 139.508 117.51C139.884 116.396 140.323 115.293 140.981 114.316C135.946 113.518 130.923 111.949 126.634 109.052C124.353 107.527 122.348 105.457 121.256 102.9C120.563 103.561 119.8 104.311 118.784 104.358C117.292 104.341 115.938 103.403 115.177 102.131C114.695 102.212 114.183 102.288 113.709 102.104C113.248 101.871 113.028 101.256 112.453 101.253C111.573 101.103 110.798 100.584 110.239 99.8881C109.842 99.3291 108.983 99.1935 108.839 98.4438C108.593 97.682 109.169 96.9997 109.803 96.6872C110.06 96.7305 110.315 96.7693 110.571 96.8081C109.851 96.2857 109.057 95.7376 108.752 94.8529C108.472 94.0847 109.062 93.1023 109.893 93.1127C110.995 93.2084 111.637 94.2445 112.36 94.9626C112.064 94.0352 111.462 93.0928 111.732 92.0912C112.18 91.1348 113.788 90.9956 114.352 91.9445C114.88 92.9041 114.959 94.0184 115.177 95.0695C115.61 95.146 116.037 95.2501 116.464 95.3666C117.23 96.0145 117.952 96.9507 117.816 98.0096C117.783 98.6448 117.331 99.1113 116.959 99.5715C117.094 99.8633 117.203 100.164 117.286 100.472C117.199 100.988 116.764 101.3 116.418 101.634C117.015 102.382 117.889 103.127 118.898 102.967C119.685 102.719 120.179 102.003 120.75 101.454C119.994 98.6216 120.233 95.5274 121.464 92.9017C122.614 90.5342 124.758 88.805 127.172 87.8584C125.603 86.0799 124.816 83.6671 125.006 81.3218C125.127 78.7743 126.269 76.1717 128.46 74.8075C130.517 73.5919 133.115 73.261 135.426 73.9883C134.574 72.2491 134.048 70.2974 134.269 68.3664C134.545 65.747 136.34 63.3735 138.771 62.4277C139.684 62.0598 140.725 61.6791 141.226 60.7603C141.753 59.8285 141.718 58.7088 141.591 57.668ZM141.392 61.6102C140.452 62.662 138.992 62.8959 137.85 63.6451C135.568 65.1118 134.387 68.1066 135.045 70.7891C135.402 72.5954 136.089 74.4831 137.594 75.6492C138.239 76.1696 139.307 76.2376 139.547 77.1611C138.155 77.1472 136.996 76.1952 136.126 75.1738C135.737 74.6607 135.084 74.5229 134.496 74.4055C132.829 74.0723 131.082 74.3035 129.542 74.9705C127.675 75.8065 126.341 77.6038 125.923 79.6094C125.376 81.6858 125.618 83.9764 126.598 85.9109C128.129 88.692 131.19 90.2292 134.148 90.9161C134.505 90.9337 134.861 91.3442 134.548 91.6494C133.479 91.7087 132.484 91.2047 131.505 90.8312C130.372 90.3978 129.332 89.7559 128.38 89.0001C128.035 88.7809 127.64 88.377 127.207 88.5783C125.042 89.4216 123.105 90.9925 122.075 93.1141C120.944 95.5513 120.608 98.4097 121.348 101.044C121.982 104.163 124.302 106.641 126.824 108.423C134.325 113.277 143.602 114.897 152.269 113.606C155.877 112.885 159.53 112.146 162.847 110.52C166.792 108.702 170.472 105.666 171.922 101.421C173.064 98.2672 172.611 94.5936 170.83 91.7197C169.678 89.8969 167.929 88.3782 165.845 87.7923C165.245 87.6251 164.584 87.3693 163.976 87.6039C163.436 88.0146 163.015 88.5578 162.529 89.0298C161.268 90.3167 159.734 91.3271 158.053 91.974C157.877 91.8161 157.704 91.66 157.531 91.5039C159.885 90.37 162.209 88.9008 163.613 86.6251C164.624 83.7848 164.201 80.3176 162.167 77.9692C160.715 76.3001 158.571 75.0862 156.346 75.1294C155.086 75.1659 153.984 75.9248 153.246 76.9011C152.493 77.8759 151.468 78.6193 150.279 78.9628C150.247 78.8336 150.184 78.5731 150.15 78.4445C151.309 77.7295 152.528 76.9458 153.158 75.6834C153.786 74.4001 154.163 72.8971 153.731 71.4721C153.522 70.0576 152.592 68.8322 151.406 68.0758C150.146 67.3079 148.642 67.3031 147.241 67.0516C146.309 66.8995 145.349 66.3036 145.07 65.3484C144.87 64.2836 145.519 63.2588 145.278 62.1893C145.016 60.5787 143.746 59.3845 142.44 58.5362C142.22 59.5906 142.204 60.8108 141.392 61.6102ZM112.235 92.3935C112.348 93.694 112.996 94.865 113.506 96.0468C113.378 96.0934 113.116 96.1853 112.988 96.2296C112.076 95.5028 111.402 94.5004 110.419 93.8596C110.041 93.5428 109.278 93.7513 109.272 94.289C109.247 95.248 110.118 95.8669 110.845 96.3229C111.739 96.8504 112.547 97.7257 112.753 98.7579C112.785 99.7394 111.69 99.9291 110.935 99.9466C111.494 100.336 112.105 100.721 112.798 100.771C113.329 100.822 113.857 100.656 114.387 100.734C114.501 101.287 113.754 101.193 113.475 101.428C114.073 101.741 114.765 101.777 115.359 101.457C115.96 101.195 116.996 100.796 116.619 99.9426C116.349 100.154 116.075 100.359 115.798 100.564C115.772 100.312 115.576 99.9957 115.879 99.8415C116.427 99.2759 117.161 98.7557 117.304 97.9179C117.277 96.8897 116.557 95.7591 115.471 95.6524C114.893 95.6813 114.233 96.0383 114.262 96.6996C114.22 97.4423 113.743 98.0104 113.371 98.6069C113.38 99.2898 114.217 99.0162 114.57 98.7879C115.309 98.4894 115.57 97.7102 115.817 97.0183C115.946 97.1583 116.178 97.2338 116.22 97.437C115.984 98.402 115.252 99.2713 114.266 99.4957C113.832 99.6492 113.21 99.6191 112.967 99.151C112.506 98.6189 113.105 98.0916 113.356 97.6381C113.719 97.1851 113.687 96.5723 113.857 96.0418C114.036 95.6867 114.384 95.4764 114.67 95.2254C114.488 94.2884 114.411 93.3173 114.022 92.4331C113.761 91.6868 112.44 91.5868 112.235 92.3935ZM109.25 97.8215C109.324 98.3167 109.505 98.8158 110.034 98.9635C110.703 99.2318 111.837 99.7369 112.23 98.8577C112.14 98.0741 111.265 97.6693 110.647 97.3124C110.099 97.0087 109.604 97.4495 109.25 97.8215ZM179.081 88.5735C178.612 89.5543 178.669 90.6857 178.578 91.7533C179.331 92.0165 179.606 92.7332 179.778 93.4474C179.927 94.1696 180.974 94.5512 180.713 95.359C180.571 96.0937 179.635 96.1077 179.071 95.8747C178.142 95.5997 177.498 94.7941 177.169 93.9077C177.344 93.8457 177.52 93.7832 177.699 93.7201C177.951 94.5069 178.524 95.2141 179.356 95.3943C179.665 95.526 180.328 95.5371 180.241 95.028C179.587 94.3587 179.093 93.5683 179.005 92.619C178.503 92.3455 177.873 92.0751 177.337 92.3889C176.45 92.7962 176.198 93.8749 176.206 94.7781C176.729 95.5594 177.486 96.1186 178.181 96.7307C177.952 97.1981 177.433 96.7225 177.062 96.7249C176.86 97.0496 177.226 97.3188 177.445 97.4978C178.319 98.0012 179.433 98.4224 180.376 97.8848C179.994 97.7196 179.615 97.5539 179.245 97.3646C179.798 96.9294 180.502 97.2711 181.128 97.1112C181.753 96.9875 182.251 96.5557 182.734 96.1681C181.971 96.2447 180.889 96.0508 180.805 95.0959C181.004 94.0365 181.688 93.1089 182.567 92.5142C183.334 91.9648 184.108 91.0952 183.809 90.0561C183.435 89.9874 182.982 89.7645 182.657 90.0699C181.775 90.7468 181.227 91.7555 180.438 92.5255C180.285 92.5417 179.983 92.5736 179.831 92.5899C180.122 91.198 180.909 89.8298 180.589 88.3619C180.095 88.2683 179.435 88.1225 179.081 88.5735ZM134.848 116.822C134.137 117.969 134.811 119.505 135.843 120.24C137.105 121.091 138.554 121.887 140.113 121.709C140.547 121.374 140.858 120.925 140.83 120.347C140.318 120.304 139.247 120.26 139.403 119.477C139.945 119.583 140.569 120.004 141.025 119.498C140.942 119.21 140.851 118.925 140.753 118.641C140.442 118.915 140.126 119.347 139.651 119.156C139.034 118.861 139.598 117.916 138.809 117.776C138.617 118.386 138.674 119.737 137.763 119.595C138.002 118.763 138.391 117.866 137.9 117.022C137.34 115.816 135.551 115.779 134.848 116.822ZM156.897 116.39C156.405 117.273 156.811 118.3 157.319 119.092C157.199 119.134 156.959 119.216 156.839 119.258C156.372 118.655 156.226 117.904 155.996 117.198C155.896 117.804 156.053 118.481 155.49 118.899C155.108 118.722 154.772 118.47 154.467 118.181C154.272 118.603 153.886 119.142 154.334 119.563C154.81 119.919 155.284 119.574 155.688 119.313C155.731 119.449 155.82 119.723 155.862 119.859C155.387 120.17 154.824 120.249 154.27 120.315C154.507 120.646 154.625 121.126 155.025 121.311C155.819 121.651 156.676 121.269 157.389 120.922C158.391 120.315 159.494 119.669 160.004 118.554C160.346 117.785 160.431 116.752 159.789 116.092C159.035 115.197 157.366 115.283 156.897 116.39Z" stroke="black" stroke-width="0.583214" mask="url(#path-48-outside-1_2243_27414)"/>
<path d="M137.905 93.7432C137.432 93.9399 136.969 94.1532 136.512 94.3746L136.411 94.4234L136.434 94.5331L136.534 95.022L136.568 95.1835L136.724 95.1324C136.808 95.1052 136.891 95.0776 136.975 95.0498C137.512 94.8721 138.059 94.6914 138.609 94.6035C139.241 94.5025 139.864 94.5271 140.461 94.8174L140.471 94.8224L140.482 94.8258C140.839 94.9351 141.102 95.1705 141.322 95.4712C141.507 95.7233 141.655 96.0109 141.803 96.2998C141.834 96.3599 141.865 96.42 141.897 96.4799L141.953 96.5869L142.068 96.5534L142.321 96.4803L142.574 96.4071L142.722 96.3644L142.669 96.2198C142.505 95.7635 142.338 95.3053 142.165 94.8497C143.45 93.8952 144.12 92.4282 144.262 90.8851C144.407 89.3082 144.003 87.6401 143.129 86.3314C142.308 85.0159 140.521 84.1236 139.021 84.8233L139.021 84.8232L139.015 84.8259C137.315 85.7065 136.558 87.7152 136.618 89.5387C136.552 91.0627 137.195 92.468 137.905 93.7432ZM143.337 89.7152L143.337 89.7154C143.496 91.4204 142.952 93.4054 141.367 94.1458C141.32 94.1295 141.272 94.113 141.225 94.0965C140.526 93.8545 139.805 93.6048 139.04 93.5508C137.47 91.8578 137.096 89.1966 138.039 87.1346C138.277 86.6295 138.668 86.1427 139.143 85.8321C139.615 85.523 140.163 85.3925 140.729 85.5763C142.398 86.1429 143.181 88.0185 143.337 89.7152Z" fill="#0C0505" stroke="black" stroke-width="0.291607"/>
<path d="M156.539 93.4523C156.127 93.0063 155.588 92.7743 155.049 92.619C155.906 90.7755 156.081 88.5744 155.26 86.6455L155.26 86.6454C154.697 85.3276 153.608 83.9964 152.067 83.788C151.176 83.5868 150.284 83.9873 149.691 84.5976C148.082 86.2047 147.757 88.8053 148.449 90.9166C148.83 92.2634 149.789 93.3126 150.831 94.1521C150.711 94.5993 150.6 95.0533 150.53 95.5186L150.505 95.68L150.669 95.687C150.915 95.6974 151.106 95.6184 151.256 95.4859C151.401 95.3582 151.505 95.185 151.592 95.0148C151.631 94.9389 151.665 94.8668 151.698 94.7966C151.745 94.6979 151.79 94.6028 151.844 94.5058C151.932 94.3475 152.026 94.2193 152.143 94.1336L152.143 94.1339L152.151 94.1274C152.735 93.6361 153.423 93.5096 154.162 93.5172C154.532 93.521 154.91 93.5584 155.292 93.5988C155.324 93.6021 155.355 93.6054 155.387 93.6088C155.736 93.6459 156.087 93.6832 156.428 93.6951L156.774 93.7071L156.539 93.4523ZM149.996 85.6164L149.996 85.6162C150.488 84.9998 151.255 84.5522 152.022 84.7262L152.022 84.7264L152.029 84.7275C153.12 84.9251 153.927 85.9071 154.376 86.933C155.125 88.73 155.045 90.8875 153.987 92.5026C153.134 92.627 152.299 92.8847 151.566 93.361C150.107 92.7341 149.285 91.1411 149.09 89.5868C148.921 88.1948 149.131 86.6987 149.996 85.6164Z" fill="#0C0505" stroke="black" stroke-width="0.291607"/>
<path d="M70.4625 75.7662C69.4587 76.2201 68.5245 76.2941 67.6597 75.9883C66.8016 75.6653 66.1628 75.0155 65.7433 74.0391L63.0265 67.7161C62.607 66.7397 62.573 65.8235 62.9246 64.9677C63.2828 64.0947 63.9639 63.4312 64.9676 62.9773C65.9714 62.5234 66.9083 62.4553 67.7781 62.773C68.6547 63.0735 69.3053 63.7179 69.73 64.7063L70.0293 65.4029C70.0549 65.4624 70.0543 65.5267 70.0275 65.5956C70.0074 65.6474 69.9679 65.6866 69.9088 65.7133L68.2792 66.4502C68.2201 66.4769 68.1593 66.4831 68.0967 66.4687C68.0408 66.4371 68.0001 66.3915 67.9745 66.332L67.6598 65.5997C67.4757 65.171 67.2033 64.8817 66.8427 64.7319C66.494 64.5767 66.1248 64.5872 65.7351 64.7635C65.3454 64.9397 65.0887 65.2122 64.9651 65.5809C64.8415 65.9497 64.8717 66.3484 65.0559 66.7771L67.788 73.1358C67.9722 73.5645 68.2387 73.8564 68.5874 74.0116C68.9361 74.1668 69.3054 74.1562 69.6951 73.98C70.0848 73.8038 70.3414 73.5313 70.4651 73.1626C70.6005 72.7884 70.5761 72.3871 70.3919 71.9584L69.6552 70.2437C69.6296 70.1841 69.5873 70.1677 69.5283 70.1944L68.4477 70.683C68.3887 70.7097 68.3279 70.7159 68.2653 70.7015C68.2094 70.6699 68.1686 70.6243 68.1431 70.5648L67.5828 69.2609C67.5572 69.2014 67.5545 69.1457 67.5746 69.094C67.6013 69.025 67.6443 68.9771 67.7033 68.9504L70.7146 67.5888C70.7737 67.5621 70.8311 67.5645 70.887 67.5961C70.9496 67.6105 70.9937 67.6475 71.0193 67.707L72.439 71.0114C72.8586 71.9878 72.8833 72.9152 72.5132 73.7936C72.1499 74.6548 71.4663 75.3123 70.4625 75.7662ZM75.0583 73.5174C74.9993 73.5441 74.9384 73.5503 74.8759 73.5359C74.82 73.5043 74.7792 73.4587 74.7536 73.3992L69.5658 61.3248C69.5402 61.2652 69.5374 61.2096 69.5575 61.1578C69.5843 61.0889 69.6272 61.041 69.6862 61.0143L71.3159 60.2774C71.3749 60.2507 71.4324 60.2532 71.4883 60.2848C71.5509 60.2991 71.595 60.3361 71.6205 60.3956L76.8084 72.4701C76.834 72.5296 76.8334 72.5939 76.8066 72.6628C76.7866 72.7146 76.747 72.7538 76.688 72.7805L75.0583 73.5174ZM80.4899 71.0614C80.36 71.1201 80.2551 71.0893 80.1752 70.969L72.4543 60.04L72.4058 59.9765C72.3598 59.8694 72.4017 59.7864 72.5316 59.7277L74.3207 58.9187C74.4624 58.8546 74.5673 58.8854 74.6354 59.011L79.797 66.9376C79.8242 66.968 79.8496 66.9779 79.8732 66.9672C79.8968 66.9565 79.9068 66.9307 79.9033 66.8896L77.6467 57.6494C77.6023 57.5131 77.6509 57.4129 77.7926 57.3488L79.5285 56.5638C79.6821 56.4944 79.7744 56.5451 79.8054 56.7159L82.4426 69.9437C82.4752 70.0854 82.4266 70.1856 82.2967 70.2444L80.4899 71.0614ZM87.3904 54.8861C87.416 54.9456 87.4154 55.0099 87.3886 55.0788C87.3685 55.1306 87.329 55.1698 87.2699 55.1965L83.4438 56.9266C83.3847 56.9533 83.368 56.9964 83.3936 57.056L84.844 60.4318C84.8696 60.4913 84.9119 60.5078 84.971 60.4811L87.2383 59.4558C87.2974 59.4291 87.3548 59.4316 87.4107 59.4632C87.4733 59.4776 87.5174 59.5145 87.543 59.574L88.1339 60.9494C88.1595 61.0089 88.1589 61.0732 88.1321 61.1422C88.112 61.1939 88.0725 61.2331 88.0134 61.2598L85.7461 62.2851C85.687 62.3118 85.6703 62.3549 85.6959 62.4144L87.154 65.8081C87.1796 65.8677 87.2219 65.8841 87.281 65.8574L91.1071 64.1273C91.1662 64.1006 91.2236 64.103 91.2795 64.1347C91.3421 64.149 91.3862 64.186 91.4118 64.2455L91.995 65.603C92.0206 65.6625 92.02 65.7268 91.9932 65.7958C91.9732 65.8475 91.9336 65.8867 91.8746 65.9134L86.1176 68.5166C86.0586 68.5433 85.9977 68.5495 85.9352 68.5351C85.8793 68.5035 85.8385 68.4579 85.8129 68.3984L80.6251 56.324C80.5995 56.2644 80.5967 56.2088 80.6168 56.1571C80.6436 56.0881 80.6865 56.0402 80.7455 56.0135L86.5025 53.4104C86.5615 53.3837 86.619 53.3861 86.6749 53.4177C86.7375 53.4321 86.7816 53.469 86.8071 53.5286L87.3904 54.8861ZM100.94 61.8143C100.798 61.8784 100.693 61.8476 100.625 61.722L99.4827 59.9987C99.4572 59.9392 99.4089 59.9254 99.3381 59.9574L96.7519 61.1269C96.681 61.1589 96.6584 61.2047 96.684 61.2642L97.1532 63.2919C97.1977 63.4282 97.1491 63.5284 97.0074 63.5925L95.3954 64.3214C95.2301 64.3961 95.1319 64.3481 95.1008 64.1773L92.5345 50.9174C92.5019 50.7758 92.5505 50.6756 92.6804 50.6168L94.5581 49.7678C94.688 49.709 94.7929 49.7398 94.8728 49.8601L102.682 60.7491L102.713 60.8206C102.759 60.9277 102.717 61.0107 102.587 61.0694L100.94 61.8143ZM96.2277 59.316C96.2415 59.3809 96.2838 59.3973 96.3547 59.3653L98.3209 58.4762C98.3917 58.4442 98.4085 58.4011 98.3711 58.3469L94.9186 53.1672C94.8914 53.1368 94.866 53.1269 94.8424 53.1376C94.8188 53.1483 94.8087 53.1742 94.8123 53.2152L96.2277 59.316ZM76.5839 90.5548C75.6037 90.998 74.6846 91.0581 73.8265 90.735C72.9684 90.412 72.3322 89.7682 71.9178 88.8037L71.7182 88.3393C71.6927 88.2797 71.6899 88.2241 71.71 88.1724C71.7368 88.1034 71.7797 88.0555 71.8387 88.0288L73.4507 87.2999C73.5097 87.2732 73.5672 87.2757 73.6231 87.3073C73.6857 87.3217 73.7297 87.3586 73.7553 87.4182L73.9088 87.7754C74.1083 88.2398 74.3817 88.5641 74.7289 88.7485C75.0878 88.9275 75.4504 88.9342 75.8164 88.7687C76.1825 88.6031 76.4274 88.336 76.551 87.9672C76.6695 87.5865 76.6341 87.1759 76.4448 86.7353C76.3118 86.4257 76.1317 86.1872 75.9046 86.0197C75.6775 85.8521 75.4024 85.7206 75.0792 85.6249C74.7561 85.5293 74.2528 85.4084 73.5695 85.2623C72.7948 85.1007 72.1529 84.9359 71.6435 84.768C71.146 84.5948 70.6735 84.332 70.2259 83.9798C69.7851 83.6103 69.4317 83.1159 69.1656 82.4967C68.741 81.5084 68.6985 80.589 69.0383 79.7385C69.378 78.888 70.0321 78.2438 71.0004 77.806C71.9806 77.3628 72.9048 77.3146 73.7732 77.6615C74.6363 77.9964 75.2854 78.67 75.7203 79.6821L75.9045 80.1108C75.93 80.1704 75.9294 80.2346 75.9027 80.3036C75.8826 80.3554 75.843 80.3946 75.784 80.4213L74.1897 81.1422C74.1307 81.1689 74.0699 81.175 74.0073 81.1607C73.9514 81.1291 73.9107 81.0835 73.8851 81.0239L73.6856 80.5595C73.486 80.0951 73.2093 79.7794 72.8555 79.6123C72.5083 79.428 72.1458 79.4213 71.7679 79.5921C71.4136 79.7523 71.1806 80.0141 71.0688 80.3776C70.9518 80.7291 70.9906 81.1311 71.185 81.5836C71.3692 82.0123 71.6433 82.3221 72.0074 82.5129C72.3833 82.6985 73.0381 82.8931 73.9717 83.0966C74.9223 83.3067 75.6548 83.5017 76.1693 83.6815C76.6786 83.8493 77.1207 84.0903 77.4954 84.4044C77.8701 84.7185 78.1777 85.1554 78.4181 85.715C78.853 86.7272 78.9023 87.679 78.5661 88.5706C78.2248 89.4502 77.564 90.1116 76.5839 90.5548ZM79.8619 74.2257C79.8363 74.1661 79.8335 74.1105 79.8536 74.0587C79.8804 73.9897 79.9233 73.9419 79.9824 73.9152L81.612 73.1783C81.6711 73.1516 81.7285 73.1541 81.7844 73.1857C81.847 73.2 81.8911 73.237 81.9167 73.2965L87.1046 85.3709C87.1301 85.4305 87.1295 85.4947 87.1028 85.5637C87.0827 85.6155 87.0431 85.6547 86.9841 85.6814L85.3544 86.4183C85.2954 86.445 85.2346 86.4512 85.172 86.4368C85.1161 86.4052 85.0754 86.3596 85.0498 86.3001L82.8779 81.2453C82.8523 81.1857 82.81 81.1693 82.751 81.196L80.5013 82.2132C80.4423 82.2399 80.4256 82.2831 80.4511 82.3426L82.623 87.3974C82.6486 87.457 82.648 87.5212 82.6212 87.5902C82.6011 87.642 82.5616 87.6812 82.5025 87.7079L80.8729 88.4448C80.8138 88.4715 80.753 88.4776 80.6904 88.4633C80.6345 88.4317 80.5938 88.3861 80.5682 88.3265L75.3803 76.2521C75.3547 76.1926 75.352 76.137 75.3721 76.0852C75.3988 76.0162 75.4417 75.9684 75.5008 75.9417L77.1304 75.2048C77.1895 75.1781 77.247 75.1805 77.3029 75.2121C77.3654 75.2265 77.4095 75.2635 77.4351 75.323L79.5993 80.36C79.6249 80.4195 79.6672 80.4359 79.7262 80.4092L81.9759 79.392C82.0349 79.3653 82.0516 79.3222 82.0261 79.2626L79.8619 74.2257ZM87.4857 80.4203C87.4266 80.447 87.3658 80.4532 87.3032 80.4388C87.2473 80.4072 87.2066 80.3616 87.181 80.3021L83.5917 72.5391C83.5661 72.4796 83.5634 72.4239 83.5835 72.3722C83.6102 72.3032 83.6531 72.2553 83.7122 72.2286L85.3419 71.4917C85.4009 71.465 85.4584 71.4675 85.5143 71.4991C85.5768 71.5135 85.6209 71.5504 85.6465 71.61L88.8284 79.5572C88.854 79.6167 88.8534 79.681 88.8266 79.75C88.8065 79.8017 88.767 79.8409 88.7079 79.8676L87.4857 80.4203ZM89.9015 84.3196C89.5354 84.4851 89.1831 84.5022 88.8446 84.3708C88.5061 84.2395 88.2575 83.9892 88.0989 83.6201C87.9403 83.2509 87.9305 82.8999 88.0695 82.5668C88.2033 82.2219 88.4533 81.9666 88.8194 81.8011C89.1855 81.6355 89.5318 81.6211 89.8585 81.7578C90.1919 81.8773 90.4379 82.1216 90.5965 82.4907C90.7551 82.8598 90.7675 83.2169 90.6337 83.5618C90.4998 83.9068 90.2557 84.1594 89.9015 84.3196ZM91.6228 78.5496C91.5637 78.5763 91.5029 78.5824 91.4403 78.5681C91.3845 78.5365 91.3437 78.4909 91.3181 78.4314L87.7288 70.6684C87.7033 70.6088 87.7005 70.5532 87.7206 70.5015C87.7474 70.4325 87.7903 70.3846 87.8493 70.3579L89.479 69.621C89.538 69.5943 89.5955 69.5968 89.6514 69.6284C89.714 69.6428 89.758 69.6797 89.7836 69.7393L92.9655 77.6864C92.9911 77.746 92.9905 77.8102 92.9637 77.8792C92.9436 77.931 92.9041 77.9702 92.845 77.9969L91.6228 78.5496ZM94.0386 82.4488C93.6725 82.6144 93.3202 82.6315 92.9817 82.5001C92.6432 82.3688 92.3946 82.1185 92.236 81.7494C92.0774 81.3802 92.0676 81.0291 92.2066 80.6961C92.3404 80.3511 92.5904 80.0959 92.9565 79.9304C93.3226 79.7648 93.669 79.7504 93.9957 79.8871C94.3291 80.0066 94.5751 80.2508 94.7337 80.62C94.8923 80.9891 94.9046 81.3462 94.7708 81.6911C94.6369 82.0361 94.3929 82.2886 94.0386 82.4488ZM95.7599 76.6789C95.7009 76.7056 95.6401 76.7117 95.5775 76.6974C95.5216 76.6657 95.4808 76.6202 95.4553 76.5606L91.866 68.7977C91.8404 68.7381 91.8376 68.6825 91.8577 68.6307C91.8845 68.5618 91.9274 68.5139 91.9864 68.4872L93.6161 67.7503C93.6751 67.7236 93.7326 67.7261 93.7885 67.7577C93.8511 67.772 93.8952 67.809 93.9207 67.8685L97.1026 75.8157C97.1282 75.8753 97.1276 75.9395 97.1008 76.0085C97.0808 76.0603 97.0412 76.0995 96.9822 76.1262L95.7599 76.6789ZM98.1757 80.5781C97.8096 80.7437 97.4573 80.7607 97.1188 80.6294C96.7803 80.498 96.5317 80.2478 96.3731 79.8786C96.2145 79.5095 96.2047 79.1584 96.3437 78.8254C96.4776 78.4804 96.7275 78.2252 97.0936 78.0596C97.4597 77.8941 97.8061 77.8797 98.1328 78.0164C98.4662 78.1358 98.7122 78.3801 98.8708 78.7493C99.0294 79.1184 99.0418 79.4754 98.9079 79.8204C98.774 80.1654 98.53 80.4179 98.1757 80.5781ZM101.881 64.0133C101.94 63.9866 101.997 63.9891 102.053 64.0207C102.115 64.035 102.16 64.072 102.185 64.1315L102.768 65.489C102.794 65.5486 102.793 65.6128 102.767 65.6818C102.747 65.7336 102.707 65.7728 102.648 65.7995L100.398 66.8167C100.339 66.8434 100.323 66.8865 100.348 66.9461L104.822 77.3594C104.848 77.4189 104.847 77.4832 104.82 77.5522C104.8 77.6039 104.761 77.6431 104.702 77.6698L103.072 78.4067C103.013 78.4334 102.952 78.4396 102.89 78.4252C102.834 78.3936 102.793 78.348 102.767 78.2885L98.2933 67.8752C98.2677 67.8157 98.2254 67.7992 98.1664 67.8259L96.0407 68.7871C95.9817 68.8138 95.9209 68.82 95.8583 68.8056C95.8024 68.774 95.7617 68.7284 95.7361 68.6689L95.1528 67.3114C95.1272 67.2519 95.1245 67.1962 95.1446 67.1445C95.1713 67.0755 95.2142 67.0277 95.2733 67.001L101.881 64.0133Z" fill="#E9E9E9"/>
<defs>
<clipPath id="clip0_2243_27414">
<rect width="154" height="208" fill="white" transform="translate(0 113.001)"/>
</clipPath>
</defs>
</svg>
