<svg width="189" height="225" viewBox="0 0 189 225" fill="none" xmlns="http://www.w3.org/2000/svg">
<path d="M23.241 72.873C23.241 72.873 0.412014 76.2588 1.01161 102.501C1.6223 128.744 -1.46449 141.359 26.5832 144.756C43.3885 146.79 59.3388 112.195 53.0097 90.8634C48.7737 76.5717 23.241 72.873 23.241 72.873Z" fill="white" stroke="black" stroke-width="1.4" stroke-miterlimit="10" stroke-linecap="round" stroke-linejoin="round"/>
<path d="M91.1583 101.328C91.1583 101.328 84.3352 74.6723 75.6799 75.7506C64.7706 77.1138 62.3389 88.1874 67.2079 95.6238C72.0823 103.06 79.8215 116.938 84.7349 120.129C89.6371 123.319 115.947 111.413 117.502 107.144L111.922 92.2548C107.386 92.7017 91.1583 101.328 91.1583 101.328Z" fill="white" stroke="black" stroke-width="1.4" stroke-miterlimit="10" stroke-linecap="round" stroke-linejoin="round"/>
<path d="M117.503 107.15L123.416 103.854L117.864 88.9531L111.924 92.2607L117.503 107.15Z" fill="white" stroke="black" stroke-width="1.4" stroke-miterlimit="10" stroke-linecap="round" stroke-linejoin="round"/>
<path d="M122.718 102.623C122.718 102.623 124.839 101.818 130.763 99.8741C136.692 97.9354 140.201 94.3652 139.418 87.996C138.641 81.6323 135.804 79.8892 130.752 82.9956C128.886 84.1465 126.771 86.8562 126.771 86.8562C126.771 86.8562 129.658 82.828 127.487 81.258C124.5 79.0958 121.18 88.6106 118.599 91.5605L122.718 102.623Z" fill="white" stroke="black" stroke-width="1.4" stroke-miterlimit="10" stroke-linecap="round" stroke-linejoin="round"/>
<path d="M128.506 90.8563C128.506 90.8563 134.84 85.828 136.961 82.1182" stroke="black" stroke-width="1.4" stroke-miterlimit="10" stroke-linecap="round" stroke-linejoin="round"/>
<path d="M138.997 85.6709C138.997 85.6709 137.553 89.6936 129.97 93.6548" stroke="black" stroke-width="1.4" stroke-miterlimit="10" stroke-linecap="round" stroke-linejoin="round"/>
<path d="M139.511 90.292C139.511 90.292 136.241 94.7952 130.661 96.3986" stroke="black" stroke-width="1.4" stroke-miterlimit="10" stroke-linecap="round" stroke-linejoin="round"/>
<path d="M83.9169 132.503C86.4762 112.016 89.9628 76.3254 77.2436 70.7216C69.9819 67.5202 33.9618 67.6096 33.9618 67.6096C33.9618 67.6096 31.5745 69.4031 26.2337 72.4871C11.5437 80.9739 16.779 131.363 19.4439 140.236C22.1032 149.108 46.6144 168.679 47.225 171.244C47.8302 173.808 39.9022 199.559 39.9022 199.559L49.1071 204.8C49.1071 204.8 68.1442 175.725 67.4336 166.327C66.723 156.93 58.4619 147.32 58.4619 147.32C58.4619 147.32 80.3526 162.293 80.8412 165.104C81.7239 170.132 73.6683 192.195 73.6683 192.195L88.3472 196.324C88.3472 196.324 98.4071 171.344 99.9949 160.131C101.261 151.209 83.1618 138.548 83.9169 132.503Z" fill="white" stroke="black" stroke-width="1.4" stroke-miterlimit="10" stroke-linecap="round" stroke-linejoin="round"/>
<path d="M90.5839 193.822L93.3598 186.19C89.7678 186.017 86.1536 185.273 83.1667 184.502C80.6906 183.86 77.9814 182.966 75.5885 181.647C75.0112 184.223 74.5171 186.324 74.3061 186.95C71.4858 195.096 71.3692 194.062 68.9375 202.951L103.364 212.499C109.094 204.878 105.707 194.487 90.5839 193.822Z" fill="white" stroke="black" stroke-width="1.4" stroke-miterlimit="10" stroke-linecap="round" stroke-linejoin="round"/>
<path d="M102.763 214.829C101.981 214.611 101.781 215.321 100.998 215.103C100.215 214.891 100.409 214.176 99.6211 213.958C98.8439 213.74 98.644 214.449 97.8612 214.237C97.0784 214.019 97.2727 213.31 96.4844 213.092C95.7071 212.874 95.5072 213.589 94.7244 213.371C93.9416 213.153 94.136 212.438 93.3476 212.226C92.5648 212.008 92.3705 212.717 91.5821 212.505C90.7993 212.287 90.9936 211.578 90.2108 211.36C89.428 211.142 89.2337 211.851 88.4509 211.634C87.6681 211.416 87.8624 210.706 87.0796 210.488C86.2968 210.27 86.1025 210.98 85.3197 210.768C84.5313 210.55 84.7312 209.84 83.9429 209.622C83.1656 209.404 82.9657 210.114 82.1829 209.902C81.4001 209.684 81.5945 208.974 80.8061 208.756C80.0233 208.538 79.829 209.253 79.0462 209.036C78.2634 208.818 78.4521 208.108 77.6693 207.89C76.8921 207.672 76.6922 208.382 75.915 208.164C75.1322 207.946 75.3209 207.237 74.5381 207.019C73.7609 206.801 73.561 207.51 72.7838 207.292C72.0009 207.075 72.1897 206.365 71.4125 206.147C70.6297 205.929 70.4298 206.644 69.6525 206.426C68.8697 206.209 69.0641 205.499 68.2812 205.281L68.9142 202.974L103.374 212.533L102.763 214.829Z" fill="white" stroke="black" stroke-width="1.4" stroke-miterlimit="10" stroke-linecap="round" stroke-linejoin="round"/>
<path d="M53.8868 201.235L58.3949 193.106C56.907 192.787 55.5357 192.408 54.4975 192.111C49.5787 190.698 45.2483 188.653 41.473 185.603C40.2961 188.597 39.2523 191.184 38.8803 191.866C34.8164 199.458 34.872 198.425 31.0801 206.817L63.5747 221.712C70.4312 215.091 68.7157 204.291 53.8868 201.235Z" fill="white" stroke="black" stroke-width="1.4" stroke-miterlimit="10" stroke-linecap="round" stroke-linejoin="round"/>
<path d="M62.6217 223.907C61.8833 223.572 61.5779 224.237 60.8395 223.902C60.0956 223.561 60.4009 222.891 59.6626 222.55C58.9186 222.209 58.6188 222.885 57.8804 222.544C57.1365 222.209 57.4418 221.533 56.7034 221.192C55.9706 220.851 55.6597 221.522 54.9213 221.186C54.1885 220.846 54.4883 220.175 53.7443 219.834C53.0059 219.494 52.7062 220.164 51.9622 219.829C51.2238 219.488 51.5347 218.818 50.7908 218.477C50.0524 218.142 49.747 218.812 49.0087 218.477C48.2703 218.136 48.5756 217.46 47.8372 217.125C47.1044 216.789 46.7935 217.46 46.0551 217.119C45.3223 216.778 45.6221 216.108 44.8837 215.767C44.1453 215.432 43.8399 216.102 43.1015 215.761C42.3632 215.421 42.6685 214.75 41.9301 214.409C41.1862 214.069 40.8808 214.739 40.148 214.404C39.4041 214.063 39.7094 213.393 38.971 213.052C38.2326 212.716 37.9273 213.387 37.1889 213.046C36.456 212.711 36.7558 212.035 36.0175 211.694C35.2791 211.353 34.9737 212.029 34.2353 211.688C33.4969 211.348 33.8023 210.677 33.0639 210.336C32.32 209.996 32.0202 210.672 31.2818 210.331C30.5434 209.996 30.8432 209.32 30.1104 208.984L31.0986 206.8L63.6321 221.717L62.6217 223.907Z" fill="white" stroke="black" stroke-width="1.4" stroke-miterlimit="10" stroke-linecap="round" stroke-linejoin="round"/>
<path d="M80.3238 94.5891C80.3238 94.5891 78.2085 92.0247 73.7171 92.7231C69.2257 93.4215 45.8915 97.0474 45.8915 97.0474C44.0039 97.0474 42.4883 98.5839 42.4883 100.478V131.698C42.4883 133.592 44.0039 135.129 45.8915 135.129L76.9094 130.307C77.8477 130.307 80.8401 126.888 80.8401 126.888L80.3238 94.5891Z" fill="white" stroke="black" stroke-width="1.4" stroke-miterlimit="10" stroke-linecap="round" stroke-linejoin="round"/>
<path d="M81.6301 124.838C81.6301 126.52 80.2755 127.888 78.5989 127.888L51.0287 132.174C49.3576 132.174 48.0029 130.805 48.0029 129.123V101.378C48.0029 99.6905 49.3576 98.3273 51.0287 98.3273L78.5989 94.042C80.2755 94.042 81.6301 95.4052 81.6301 97.0925V124.838Z" fill="white" stroke="black" stroke-width="1.4" stroke-miterlimit="10" stroke-linecap="round" stroke-linejoin="round"/>
<path d="M44.252 133.845L48.76 131.141" stroke="black" stroke-width="1.4" stroke-miterlimit="10" stroke-linecap="round" stroke-linejoin="round"/>
<path d="M43.4229 98.1152L48.3639 99.9366" stroke="black" stroke-width="1.4" stroke-miterlimit="10" stroke-linecap="round" stroke-linejoin="round"/>
<path d="M25.7044 81.9732C15.2559 78.5204 10.0705 89.3817 11.3197 98.198C12.5688 107.014 19.6141 128.485 22.6065 131.201C25.5878 133.916 52.9859 132.1 55.6785 128.446L54.496 112.574C50.0212 111.713 34.6705 115.842 34.1264 113.814C33.8378 112.741 31.4949 103.858 29.3519 95.7453" fill="white"/>
<path d="M25.7044 81.9732C15.2559 78.5204 10.0705 89.3817 11.3197 98.198C12.5688 107.014 19.6141 128.485 22.6065 131.201C25.5878 133.916 52.9859 132.1 55.6785 128.446L54.496 112.574C50.0212 111.713 34.6705 115.842 34.1265 113.814C33.8378 112.741 31.4949 103.858 29.3519 95.7453" stroke="black" stroke-width="1.4" stroke-miterlimit="10" stroke-linecap="round" stroke-linejoin="round"/>
<path d="M55.6776 128.447L62.2732 126.967L61.1295 111.094L54.4951 112.574L55.6776 128.447Z" fill="white" stroke="black" stroke-width="1.4" stroke-miterlimit="10" stroke-linecap="round" stroke-linejoin="round"/>
<path d="M61.9539 125.586C61.9539 125.586 64.2135 125.413 70.4371 125.24C76.6662 125.067 81.0354 122.636 82.0736 116.312C83.1118 109.981 80.8855 107.506 75.1672 109.054C73.0464 109.629 70.2594 111.63 70.2594 111.63C70.2594 111.63 74.1568 108.585 72.5134 106.462C70.2539 103.545 64.4023 111.719 61.1045 113.82L61.9539 125.586Z" fill="white" stroke="black" stroke-width="1.4" stroke-miterlimit="10" stroke-linecap="round" stroke-linejoin="round"/>
<path d="M70.8037 115.949C70.8037 115.949 78.2875 112.926 81.3577 109.971" stroke="black" stroke-width="1.4" stroke-miterlimit="10" stroke-linecap="round" stroke-linejoin="round"/>
<path d="M82.3171 113.954C82.3171 113.954 79.8022 117.401 71.4189 119.049" stroke="black" stroke-width="1.4" stroke-miterlimit="10" stroke-linecap="round" stroke-linejoin="round"/>
<path d="M81.5183 118.535C81.5183 118.535 77.1158 121.921 71.3086 121.876" stroke="black" stroke-width="1.4" stroke-miterlimit="10" stroke-linecap="round" stroke-linejoin="round"/>
<path d="M18.6738 52.167C18.6738 52.167 20.3061 63.8551 24.32 68.6823C28.3395 73.5151 18.6183 72.8894 18.8237 75.884C19.1235 80.3034 35.2126 90.3154 48.5869 90.8294C75.4132 91.8574 83.8963 77.6607 83.8963 77.6607C84.1794 74.1018 79.6603 72.2413 79.6603 72.2413C79.6603 72.2413 81.2703 67.7828 79.6603 65.1569L18.6738 52.167Z" fill="white" stroke="black" stroke-width="1.4" stroke-miterlimit="10" stroke-linecap="round" stroke-linejoin="round"/>
<path d="M89.9946 36.9369C90.7163 57.4917 74.7327 74.7445 54.3132 75.4652C33.8882 76.1859 16.7498 60.1064 16.0281 39.546C15.3119 18.9969 31.2844 1.74404 51.7094 1.02331C72.14 0.302583 89.2784 16.3821 89.9946 36.9369Z" fill="white" stroke="black" stroke-width="1.4" stroke-miterlimit="10" stroke-linecap="round" stroke-linejoin="round"/>
<path d="M51.3338 15.7283C31.8692 30.6569 34.2676 50.7536 34.2676 50.7536C34.2676 50.7536 56.8134 79.7504 85.8382 55.4635C85.8382 55.4635 93.2776 43.6245 89.9299 29.3999C86.5877 15.1752 75.2454 7.52096 75.2454 7.52096C75.2454 7.52096 64.003 6.00687 51.3338 15.7283Z" fill="#101210"/>
<path d="M80.3208 63.3749C50.974 82.7843 29.1055 50.9381 29.1055 50.9381C29.1055 50.9381 31.4539 10.3147 67.7293 4.06836" stroke="black" stroke-width="1.4" stroke-miterlimit="10" stroke-linecap="round" stroke-linejoin="round"/>
<path d="M44.4025 30.3846C40.2664 35.8096 39.0172 46.1177 41.8265 47.5927C44.6301 49.0677 45.3185 37.3963 49.6822 33.4016C54.2514 29.2113 48.5774 24.9093 44.4025 30.3846Z" fill="white"/>
<path d="M50.5298 20.5176C49.1029 21.216 48.4922 22.9983 49.1862 24.4341L49.3195 24.7135C50.0134 26.1494 51.7845 26.764 53.2113 26.0656C54.6381 25.3672 55.2488 23.5849 54.5493 22.149L54.416 21.8697C53.7276 20.4338 51.951 19.8137 50.5298 20.5176Z" fill="white"/>
<path d="M80.88 51.2234C80.4469 50.4356 79.4643 50.1339 78.7314 50.7373C76.7161 52.3855 68.7327 56.0059 70.9256 59.6543C72.6023 62.4422 75.6335 60.9728 77.9042 58.6318C80.5025 56.8551 82.4289 54.0504 80.88 51.2234Z" fill="white"/>
<path d="M22.9118 49.9325C18.8201 48.0944 14.0622 42.3788 12.8131 35.3224C11.9137 30.2326 14.6063 25.5059 17.8541 26.5675C17.8541 26.5675 13.8957 39.6244 26.2373 45.3176L22.9118 49.9325Z" fill="white" stroke="black" stroke-width="1.4" stroke-miterlimit="10" stroke-linecap="round" stroke-linejoin="round"/>
<path d="M35.3015 49.8987C35.8733 53.3459 33.5582 56.5975 30.1383 57.173C26.7128 57.7485 23.4761 55.4187 22.9099 51.9771C22.338 48.5354 24.6587 45.2782 28.073 44.7027C31.4929 44.1272 34.7296 46.4515 35.3015 49.8987Z" fill="white" stroke="black" stroke-width="1.4" stroke-miterlimit="10" stroke-linecap="round" stroke-linejoin="round"/>
<path d="M31.7395 50.4961C31.9838 51.9599 31.0011 53.3455 29.5465 53.5913C28.092 53.8371 26.7151 52.8426 26.4709 51.3788C26.2266 49.915 27.2092 48.5238 28.6638 48.2836C30.1239 48.0378 31.4952 49.0267 31.7395 50.4961Z" fill="white" stroke="black" stroke-width="1.4" stroke-miterlimit="10" stroke-linecap="round" stroke-linejoin="round"/>
<path d="M24.9551 69.6436C24.9551 69.6436 36.2807 84.4101 55.4011 83.8403" stroke="black" stroke-width="1.4" stroke-miterlimit="10" stroke-linecap="round" stroke-linejoin="round"/>
<path d="M79.6687 72.2412C79.6687 72.2412 73.0232 79.5211 66.5498 81.5772" stroke="black" stroke-width="1.4" stroke-miterlimit="10" stroke-linecap="round" stroke-linejoin="round"/>
<path d="M100.401 56.0305L100.96 53.5153L102.357 52.9564L133.937 52.3975L164.677 51.2797L166.633 52.3975L167.751 54.6332V60.2224V73.3571L166.633 94.3166L186.475 110.525L188.431 112.482L188.99 115.276L187.034 116.953L161.044 119.189L131.142 121.145H94.812L88.105 120.306L87.2666 119.189L88.105 114.997L101.799 96.8318L100.96 93.1988L100.401 56.0305Z" fill="white"/>
<path d="M157.814 51.176C155.101 51.4917 140.592 51.8468 132.06 51.7876C123.724 51.7284 112.459 51.9454 104.654 52.3399C99.6992 52.5767 99.7385 52.5175 99.8958 59.2444C99.9351 61.6906 100.073 69.3644 100.191 76.3083C100.407 90.5513 100.682 95.4436 101.292 96.2722C101.508 96.5681 101.429 96.7456 100.722 97.6136C100.289 98.1857 99.3453 99.4482 98.6376 100.454C97.4776 102.111 96.1211 103.847 92.5823 108.128C91.8942 108.957 90.4393 110.831 89.3384 112.271C87.7066 114.441 87.333 115.052 87.2151 115.822C87.1364 116.335 86.9792 117.143 86.8415 117.637C86.2321 120.024 87.6869 121.187 91.6583 121.464C97.2221 121.878 105.558 121.977 116.332 121.779C132.158 121.483 138.41 121.207 152.703 120.122C156.93 119.787 161.668 119.511 167.939 119.215C170.22 119.096 172.913 118.919 173.936 118.82C174.958 118.722 177.18 118.544 178.851 118.426C180.522 118.307 182.743 118.09 183.766 117.932C188.307 117.242 189.231 116.473 188.956 113.691C188.838 112.468 188.759 112.251 188.111 111.6C187.442 110.91 180.561 105.327 177.199 102.743C176.354 102.092 175.214 101.204 174.643 100.75C174.093 100.316 172.579 99.0931 171.282 98.0673C169.984 97.0218 168.45 95.7593 167.88 95.2463L166.858 94.3192V92.1689C166.858 90.9853 166.937 88.7167 167.055 87.1188C167.153 85.5012 167.33 82.2462 167.448 79.8592C167.566 77.4722 167.802 73.3493 167.979 70.6861C168.195 67.1944 168.254 64.2945 168.175 60.2308C168.057 53.8589 167.92 53.0698 166.76 51.9454C166.17 51.3733 165.895 51.2549 164.735 51.1366C163.083 50.9393 159.505 50.959 157.814 51.176ZM165.659 52.2413C166.504 52.6753 166.858 53.3855 167.074 55.1609C167.389 57.5676 167.33 65.9714 166.976 71.4752C166.799 74.1384 166.563 78.0443 166.465 80.1551C166.347 82.2659 166.17 85.3828 166.072 87.0596C165.954 88.7364 165.875 90.9656 165.875 92.0111C165.875 94.1416 165.855 94.1614 164.44 94.1614C163.988 94.1614 162.336 94.2797 160.763 94.4375C157.008 94.8321 150.737 95.1477 147.296 95.1477C145.782 95.1477 141.85 95.2858 138.548 95.4436C115.034 96.5878 103.081 96.7259 102.235 95.8973C101.646 95.2858 101.39 91.1234 101.174 77.492C101.075 70.4297 100.938 62.3218 100.879 59.4417C100.781 55.1017 100.82 54.1548 101.056 53.8392C101.41 53.346 102.747 53.1685 106.01 53.1487C107.426 53.129 110.65 53.0304 113.206 52.9317C115.742 52.8134 123.979 52.695 131.49 52.6358C143.757 52.5767 148.613 52.4583 159.682 51.9454C163.555 51.7876 164.912 51.8468 165.659 52.2413ZM168.018 96.5878C169.06 97.4952 170.534 98.7183 171.282 99.2904C172.048 99.8822 173.385 100.947 174.25 101.658C175.135 102.368 176.491 103.433 177.278 104.025C179.165 105.485 186.734 111.521 187.128 111.916C187.54 112.291 187.757 113.237 187.501 113.395C187.147 113.612 181.859 114.244 178.556 114.461C176.826 114.579 172.579 114.756 169.119 114.875C165.659 114.993 160.626 115.171 157.913 115.269C155.219 115.388 148.142 115.605 142.185 115.763C136.247 115.92 129.288 116.137 126.751 116.256C113.186 116.828 110.257 116.887 102.766 116.788C93.6046 116.65 88.2177 116.216 88.2177 115.605C88.2177 115.289 93.1131 108.878 95.3543 106.274C96.4946 104.952 97.7922 103.315 98.264 102.624C98.9128 101.638 101.783 97.6925 102.098 97.3374C102.117 97.298 105.42 97.2782 109.392 97.298C116.273 97.3374 129.524 96.9429 136.287 96.5089C138.017 96.4102 142.578 96.2327 146.412 96.1341C153.863 95.9565 158.483 95.7001 162.14 95.2661C166.17 94.7926 165.855 94.7137 168.018 96.5878ZM188.091 114.579C188.091 115.21 187.599 115.861 186.911 116.137C185.692 116.631 182.92 117.025 178.752 117.341C176.59 117.499 174.506 117.676 174.132 117.735C173.267 117.854 167.939 118.189 162.926 118.426C160.822 118.524 157.146 118.741 154.767 118.919C152.388 119.077 148.437 119.333 145.979 119.511C143.522 119.668 140.455 119.905 139.137 120.004C134.399 120.398 120.46 120.694 107.78 120.675C88.6306 120.655 87.1954 120.438 87.7852 117.834C87.9622 117.025 87.6083 117.065 92.1498 117.459C96.0818 117.814 116.489 117.814 123.802 117.479C126.673 117.341 132.414 117.143 136.582 117.045C140.749 116.946 144.819 116.808 145.625 116.749C146.431 116.709 150.068 116.571 153.686 116.453C167.33 116.039 177.258 115.644 179.44 115.447C183.294 115.112 186.931 114.658 187.383 114.48C187.973 114.224 188.091 114.244 188.091 114.579Z" fill="black"/>
<path d="M149.752 54.2341C149.044 54.2736 146.803 54.392 144.738 54.5103C142.694 54.6287 138.526 54.8062 135.498 54.9049C132.47 55.0232 127.437 55.2994 124.292 55.5164C121.166 55.7137 116.919 55.9898 114.855 56.0885C110.432 56.3252 105.929 56.6606 105.517 56.7789C105.34 56.8381 105.045 57.1735 104.828 57.5088C104.475 58.1204 104.435 58.7122 104.298 66.8397C104.062 81.28 104.042 88.8749 104.199 90.0585C104.455 91.7748 104.73 92.0115 106.716 92.2088C109.075 92.4258 123.466 92.4258 128.715 92.1891C137.857 91.7748 141.475 91.5972 144.149 91.4C145.662 91.3013 148.415 91.1041 150.243 91.0054C152.091 90.8871 155.296 90.6109 157.38 90.3939C160.997 90.0388 162.098 89.7626 162.452 89.1905C162.668 88.8552 162.885 83.9629 163.101 74.6517C163.219 70.1342 163.455 64.0188 163.632 61.0597L163.946 55.6742L163.494 55.181C163.258 54.9246 162.727 54.609 162.334 54.5103C161.626 54.313 152.111 54.1158 149.752 54.2341ZM161.607 55.4178C162.924 55.5953 162.983 55.8123 162.747 59.8169C162.629 61.6121 162.452 66.2479 162.334 70.0947C162.216 73.9415 162.039 79.3664 161.941 82.1282C161.823 84.89 161.744 87.494 161.744 87.9083C161.744 89.1314 161.823 89.1116 151.423 89.9204C144.011 90.4925 141.888 90.6306 136.186 90.9265C130.033 91.2619 108.21 91.5381 106.421 91.3211L105.359 91.183L105.182 89.664C104.868 86.6852 105.241 58.4557 105.595 57.9626C105.752 57.7456 106.794 57.6075 109.94 57.3707C118.453 56.7592 131.389 56.0293 139.725 55.6742C142.694 55.5559 146.586 55.3783 148.375 55.3191C151.954 55.1613 160.113 55.2205 161.607 55.4178Z" fill="black"/>
<path d="M161.449 97.515C150.852 98.3238 140.884 98.7776 126.552 99.0932C121.421 99.1918 115.661 99.3299 113.773 99.3694C110.156 99.4483 104.336 99.9809 103.629 100.277C103.019 100.514 98.3204 106.767 96.0792 110.298C94.0345 113.533 94.7816 113.79 104.926 113.297C107.148 113.178 110.726 112.961 112.889 112.804C115.051 112.646 119.298 112.389 122.325 112.212C125.353 112.054 129.167 111.837 130.779 111.719C132.411 111.62 136.382 111.442 139.626 111.324C142.87 111.206 147.883 111.028 150.754 110.929C153.624 110.831 158.657 110.574 161.96 110.357C165.243 110.14 169.333 109.884 171.023 109.785C173.717 109.627 174.228 109.549 175.054 109.115C175.565 108.858 176.017 108.503 176.056 108.345C176.115 108.03 175.231 107.043 171.22 102.979C166.973 98.6789 165.047 97.2191 163.729 97.3375C163.553 97.3572 162.53 97.4361 161.449 97.515ZM166.443 99.5864C167.209 100.218 167.838 100.79 167.838 100.869C167.838 101.046 166.934 101.184 164.005 101.46C162.825 101.559 161.311 101.717 160.663 101.776L159.483 101.894L158.755 100.277C158.264 99.1918 158.107 98.6592 158.264 98.6C158.736 98.4225 164.024 98.2055 164.536 98.3238C164.83 98.4028 165.695 98.9748 166.443 99.5864ZM157.831 100.277C158.225 101.086 158.5 101.816 158.421 101.875C158.244 102.052 149.279 102.447 149.142 102.289C148.945 102.092 147.942 99.468 148.021 99.3891C148.1 99.3102 156.18 98.7381 156.73 98.7776C157.006 98.7973 157.32 99.2116 157.831 100.277ZM147.412 100.218C147.648 100.75 147.864 101.441 147.923 101.776L148.021 102.388L145.308 102.506C143.833 102.585 141.789 102.644 140.767 102.644C138.683 102.644 138.722 102.684 138.466 100.711L138.329 99.685L139.272 99.6653C139.784 99.6456 141.376 99.5667 142.772 99.5075C147.49 99.2313 146.959 99.1524 147.412 100.218ZM137.641 100.02C137.68 100.218 137.759 100.869 137.798 101.46L137.857 102.545H133.06H128.243L128.302 101.362C128.322 100.711 128.4 100.139 128.459 100.08C128.499 100.02 130.327 99.9217 132.509 99.8626C134.692 99.8034 136.717 99.7442 137.011 99.7245C137.365 99.7047 137.562 99.8034 137.641 100.02ZM117.41 101.401C117.332 102.151 117.233 102.782 117.174 102.841C117.037 102.979 109.232 103.157 109.133 103.019C109.074 102.901 109.959 100.75 110.156 100.494C110.195 100.454 111.67 100.356 113.419 100.277C115.189 100.198 116.821 100.119 117.076 100.119C117.528 100.08 117.528 100.099 117.41 101.401ZM127.398 101.204C127.358 101.835 127.28 102.467 127.221 102.585C127.181 102.782 126.08 102.841 122.64 102.841H118.098L118.236 101.894C118.472 100.04 118.059 100.178 123.072 100.119L127.516 100.06L127.398 101.204ZM109.035 100.711C109.035 100.849 108.799 101.46 108.504 102.052C107.895 103.295 107.895 103.295 104.159 103.512L101.938 103.63L102.685 102.605C103.845 100.967 103.727 101.026 106.243 100.77C107.521 100.632 108.681 100.514 108.819 100.494C108.937 100.494 109.055 100.592 109.035 100.711ZM170.375 103.315C171.22 104.163 171.731 104.814 171.594 104.893C171.476 104.972 169.627 105.149 167.504 105.307C165.361 105.465 163.12 105.643 162.511 105.722L161.41 105.84L160.82 104.794C160.486 104.203 160.151 103.532 160.092 103.295C159.935 102.782 160.073 102.743 163.317 102.427C164.555 102.309 166.069 102.151 166.659 102.052C168.88 101.756 168.802 101.717 170.375 103.315ZM159.522 104.321C159.915 105.13 160.21 105.82 160.171 105.86C160.112 105.919 157.831 105.978 155.079 106.017L150.085 106.096L149.849 105.406C149.712 105.011 149.535 104.42 149.476 104.084C149.338 103.473 149.338 103.453 150.184 103.354C150.656 103.295 152.661 103.157 154.666 103.058C156.672 102.979 158.421 102.881 158.559 102.881C158.696 102.861 159.129 103.512 159.522 104.321ZM148.729 104.755C148.965 105.485 149.122 106.116 149.083 106.156C149.043 106.175 146.802 106.254 144.109 106.333L139.194 106.451L139.076 105.505C138.801 103.532 138.683 103.65 140.963 103.571C142.064 103.552 144.168 103.492 145.642 103.473L148.336 103.433L148.729 104.755ZM127.201 103.769C127.24 103.867 127.24 104.518 127.181 105.228L127.103 106.53L122.483 106.688C119.947 106.767 117.843 106.787 117.804 106.747C117.764 106.708 117.784 106.057 117.863 105.307L118 103.926L120.458 103.828C124.567 103.63 127.122 103.63 127.201 103.769ZM138.053 104.558C138.112 105.09 138.211 105.682 138.25 105.919C138.329 106.294 138.23 106.353 137.011 106.451C136.284 106.53 133.984 106.589 131.919 106.589H128.125V105.248C128.125 104.498 128.184 103.828 128.263 103.769C128.322 103.69 130.543 103.63 133.158 103.63H137.935L138.053 104.558ZM117.017 105.149C116.939 105.879 116.84 106.55 116.781 106.629C116.663 106.866 107.482 106.826 107.482 106.589C107.482 106.412 108.386 104.262 108.504 104.183C108.544 104.163 110.156 104.104 112.102 104.045C114.048 103.986 115.975 103.907 116.388 103.867L117.155 103.808L117.017 105.149ZM107.285 104.459C107.285 104.597 107.069 105.169 106.814 105.722L106.342 106.747L103.53 106.866C101.977 106.945 100.463 107.043 100.168 107.102C99.4214 107.26 99.4607 106.964 100.404 105.722L101.171 104.656L102.803 104.538C104.592 104.4 105.909 104.301 106.755 104.262C107.069 104.242 107.285 104.321 107.285 104.459ZM173.618 106.767C175.447 108.621 175.427 108.641 168.821 108.957C166.502 109.075 164.319 109.213 163.985 109.253C163.572 109.332 163.297 109.253 163.081 109.016C162.727 108.621 161.94 107.083 161.94 106.826C161.94 106.728 163.474 106.55 165.342 106.412C168.88 106.156 172.006 105.84 172.144 105.682C172.321 105.505 172.518 105.643 173.618 106.767ZM161.37 107.99C161.685 108.661 161.921 109.253 161.842 109.312C161.724 109.45 154.843 109.923 152.877 109.943H151.58L151.068 108.621C150.773 107.891 150.597 107.26 150.656 107.201C150.715 107.142 152.641 107.023 154.922 106.964C157.222 106.905 159.463 106.846 159.915 106.826C160.761 106.787 160.761 106.787 161.37 107.99ZM150.007 108.503C150.282 109.233 150.479 109.864 150.439 109.904C150.321 110.042 140.334 110.377 140.039 110.278C139.901 110.219 139.725 109.825 139.666 109.41C139.587 108.996 139.489 108.365 139.41 108.03L139.292 107.398L142.398 107.319C144.128 107.3 146.409 107.24 147.51 107.221L149.476 107.181L150.007 108.503ZM138.447 107.813C138.486 108.069 138.604 108.72 138.702 109.292L138.879 110.298L137.876 110.417C137.326 110.476 135.458 110.574 133.728 110.634C131.998 110.693 130.032 110.791 129.364 110.851L128.125 110.969V109.272V107.576L131.625 107.517C133.532 107.497 135.832 107.438 136.717 107.418C138.25 107.379 138.348 107.398 138.447 107.813ZM127.142 109.233V110.89L125.923 111.008C123.662 111.225 117.45 111.521 117.351 111.423C117.292 111.363 117.332 110.555 117.43 109.608L117.607 107.872L119.081 107.753C119.888 107.694 122.03 107.635 123.859 107.615L127.142 107.576V109.233ZM105.713 107.97C105.713 108.069 105.496 108.621 105.26 109.193C105.005 109.785 104.631 110.712 104.454 111.265L104.12 112.271L102.508 112.409C100.621 112.567 96.3741 112.468 96.1775 112.271C96.0988 112.192 96.61 111.245 97.3178 110.16L98.6153 108.207L99.6573 108.089C102.272 107.793 105.713 107.714 105.713 107.97ZM116.486 109.568C116.427 110.555 116.309 111.423 116.211 111.521C116.034 111.679 105.339 112.389 105.182 112.251C105.103 112.153 105.772 110.338 106.479 108.7L106.873 107.773H111.729H116.585L116.486 109.568Z" fill="black"/>
</svg>
