<svg width="88" height="88" viewBox="0 0 88 88" fill="none" xmlns="http://www.w3.org/2000/svg">
<path d="M14.0909 55.0987C13.6799 55.0003 13.1317 55.1579 13.0846 55.6439C13.0771 56.2786 13.6263 56.7018 13.9863 57.1581C14.9586 58.424 15.8147 59.7741 16.695 61.1037C19.2448 65.1049 21.9267 69.0289 24.2072 73.1938C24.4744 73.6812 24.7617 74.1576 25.0719 74.6195C25.5694 75.4016 26.0802 76.1748 26.5408 76.9798C27.0033 77.7123 27.4066 78.6052 28.2749 78.9331C29.7853 79.322 30.9696 80.4064 32.3399 81.0994C33.0659 81.4473 33.8793 81.9454 34.7083 81.6656C35.8442 81.25 36.7341 80.3868 37.5888 79.5657C38.3914 78.8251 39.0905 77.9814 39.8971 77.2451C42.9106 74.2714 46.2073 71.6085 49.3288 68.7535C51.0679 67.1628 52.7394 65.5012 54.3224 63.7568C53.648 62.428 52.7686 61.2049 52.2139 59.8166C52.1071 59.5387 52.0251 59.2532 51.9453 58.9665C48.4301 58.4048 44.9255 57.7421 41.3792 57.4063C41.4992 55.1573 41.8418 52.8832 42.7624 50.8117C43.2098 49.8351 43.7595 48.9078 44.3901 48.0385C46.007 45.6973 48.0761 43.6767 50.4361 42.0877C54.294 39.478 58.8968 38.0544 63.5379 37.7803C66.2001 37.6075 68.8798 37.7766 71.5099 38.2338C72.0911 36.9724 71.6676 35.5799 71.7601 34.2534C71.8144 31.1154 71.7393 27.9731 71.4763 24.8441C71.4655 24.6223 71.3895 24.4119 71.266 24.2295C70.0219 22.2198 69.0121 20.0805 67.9605 17.969C67.5076 17.0414 67.0267 16.1277 66.5687 15.2035C66.2797 14.6257 66.2186 13.8457 65.5912 13.5083C64.8265 13.1082 63.9524 13.3607 63.1433 13.4248C62.6805 13.4822 62.2032 13.3291 61.7519 13.4837C59.3216 14.2402 56.8542 14.8762 54.4354 15.6701C51.6101 16.5844 48.8431 17.7244 46.3089 19.2834C43.5496 20.9268 40.7935 22.5976 38.2682 24.5884C34.1504 27.787 30.7741 31.8994 28.3396 36.5037C27.0911 38.7868 26.0545 41.1876 25.2999 43.6798C24.6178 45.9488 24.1982 48.297 24.0633 50.665C23.967 52.3936 24.0366 54.1284 24.2301 55.8496C20.8509 55.5918 17.4458 55.6344 14.0909 55.0987ZM24.5827 57.0381C24.9689 57.0384 25.311 57.2791 25.6946 57.2651C25.7992 57.1574 25.8876 57.0371 25.9804 56.9225C25.9555 56.1107 25.3842 55.4579 25.3061 54.6604C25.1425 53.5345 25.1268 52.3926 25.1592 51.2578C25.4029 46.0208 27.2968 40.9869 29.8926 36.4829C30.2223 35.8023 30.6955 35.2096 31.0915 34.5699C31.4433 33.9354 31.8655 33.3418 32.3048 32.7658C32.9338 32.054 33.3974 31.2139 34.0535 30.5252C35.1324 29.2363 36.2791 28.0019 37.5107 26.8575C38.8275 25.5654 40.4003 24.5832 41.9412 23.5828C43.1076 22.8087 44.2064 21.9358 45.4063 21.2116C48.5839 19.1916 52.1022 17.773 55.6788 16.6262C57.0447 16.1989 58.3915 15.7152 59.761 15.2988C61.1686 14.8897 62.636 14.5487 64.1138 14.6811C64.3818 14.7128 64.6775 14.7068 64.9095 14.8677C65.1742 16.8099 65.404 18.7583 65.6643 20.703C66.1874 24.8598 66.7234 29.0201 66.9871 33.2028C62.9716 32.6584 58.84 32.2261 54.8381 33.0838C52.7847 33.5448 50.8365 34.3897 48.9998 35.4042C46.4349 36.8415 44.1028 38.7018 42.1704 40.9196C41.5523 41.5459 41.0707 42.2843 40.5623 42.997C40.1877 43.5544 39.7576 44.0854 39.4978 44.7119C38.9223 45.9174 38.4637 47.177 37.8392 48.3608C37.1952 49.6422 36.8796 51.0602 36.7654 52.4855C36.6308 54.0496 36.3021 55.624 36.5158 57.1966C36.5565 57.7705 37.0749 58.154 37.6005 58.2699C38.4695 58.4313 39.356 58.2946 40.2311 58.3796C43.0251 58.6384 45.7955 59.1103 48.5574 59.5985C48.9702 59.6563 49.381 59.7351 49.7783 59.8669C44.0524 64.7701 37.9311 69.1935 32.2143 74.1114C31.0239 75.0913 29.9117 76.1607 28.7328 77.1541C28.6339 77.2575 28.5361 77.3615 28.4369 77.4674C28.0464 77.0607 27.7448 76.5826 27.4081 76.1328C25.7229 73.7686 24.3634 71.1982 22.8901 68.7026C20.4707 64.5728 17.593 60.7372 15.0706 56.673C18.2451 56.6012 21.4155 56.8563 24.5827 57.0381ZM42.5407 42.2763C44.1741 40.3682 46.0418 38.6574 48.0984 37.2151C50.659 35.4549 53.5831 34.1701 56.6764 33.7299C58.2106 33.4747 59.7743 33.4905 61.322 33.6008C63.412 33.7177 65.5957 33.5968 67.5611 34.4459C68.502 34.8135 69.2839 35.5302 69.7814 36.4041C69.7509 36.4356 69.6897 36.4972 69.6584 36.5281C67.1719 36.4218 64.6776 36.4603 62.198 36.6871C57.4445 37.1637 52.6429 38.4885 48.767 41.3652C46.8255 42.7768 45.1923 44.5751 43.8397 46.5503C42.5459 48.3579 41.4593 50.3257 40.7256 52.4292C40.164 54.0813 39.8253 55.8852 40.2718 57.6096C39.3719 57.574 38.4702 57.5052 37.5871 57.3201C37.5181 56.7349 37.5028 56.1468 37.4801 55.5591C37.3772 50.6919 39.2895 45.8711 42.5407 42.2763ZM66.3264 17.2724C67.3603 18.6773 67.7453 20.4199 68.6622 21.8905C69.3223 23.0144 70.182 24.1222 70.2658 25.4718C70.3393 26.6348 70.3316 27.8022 70.3987 28.9662C70.468 30.4921 70.5661 32.0186 70.5415 33.547C70.5226 34.3058 70.545 35.0713 70.4004 35.8202C69.8497 35.3195 69.3547 34.7631 68.8208 34.2463C68.5866 34.0087 68.2987 33.8143 68.1207 33.5284C68.0091 33.1137 68.0333 32.6784 67.9808 32.255C67.5111 27.2522 66.6478 22.2897 66.3264 17.2724ZM30.4466 76.9453C36.9465 70.9518 44.1496 65.7994 51.1078 60.363C51.3541 60.7606 51.5515 61.1881 51.8048 61.5837C52.1856 62.1938 52.5755 62.8268 52.6785 63.5527C49.8349 66.2418 47.1654 69.1125 44.2369 71.7116C40.893 74.5376 37.9217 77.794 34.3782 80.3829C34.1626 80.5994 33.8645 80.4632 33.6301 80.3577C33.1128 80.1042 32.5935 79.8536 32.0943 79.5684C31.3184 79.1104 30.4073 78.8556 29.7669 78.192C29.6578 78.0489 29.4983 77.8302 29.6818 77.6776C29.9128 77.4093 30.1955 77.1925 30.4466 76.9453Z" fill="black"/>
<path d="M24.5812 57.0382C21.414 56.8563 18.2436 56.6012 15.069 56.673C17.5915 60.7372 20.4692 64.5728 22.8886 68.7027C24.3618 71.1982 25.7214 73.7686 27.4066 76.1328C27.7433 76.5826 28.0448 77.0607 28.4354 77.4674C28.5345 77.3615 28.6324 77.2575 28.7312 77.1541C29.9102 76.1607 31.0224 75.0913 32.2128 74.1114C37.9296 69.1935 44.0508 64.7701 49.7768 59.8669C49.3795 59.7351 48.9687 59.6564 48.5559 59.5985C45.794 59.1103 43.0235 58.6384 40.2295 58.3796C39.3545 58.2947 38.468 58.4313 37.599 58.2699C37.0734 58.154 36.555 57.7705 36.5143 57.1967C36.3006 55.624 36.6293 54.0497 36.7639 52.4856C36.8781 51.0603 37.1937 49.6422 37.8377 48.3608C38.4622 47.177 38.9208 45.9175 39.4963 44.712C39.7561 44.0854 40.1862 43.5544 40.5607 42.9971C41.0691 42.2843 41.5508 41.5459 42.1689 40.9197C44.1012 38.7018 46.4334 36.8416 48.9983 35.4043C50.835 34.3897 52.7832 33.5448 54.8366 33.0838C58.8385 32.2262 62.9701 32.6584 66.9856 33.2028C66.7219 29.0201 66.1859 24.8598 65.6628 20.703C65.4025 18.7583 65.1727 16.8099 64.9079 14.8677C64.676 14.7068 64.3803 14.7128 64.1123 14.6811C62.6344 14.5487 61.1671 14.8897 59.7595 15.2988C58.39 15.7152 57.0432 16.1989 55.6773 16.6262C52.1007 17.7731 48.5824 19.1916 45.4048 21.2116C44.2049 21.9359 43.1061 22.8087 41.9397 23.5828C40.3988 24.5832 38.826 25.5654 37.5092 26.8575C36.2776 28.0019 35.1308 29.2364 34.052 30.5252C33.3959 31.2139 32.9323 32.054 32.3033 32.7658C31.864 33.3419 31.4418 33.9354 31.0899 34.5699C30.694 35.2096 30.2208 35.8023 29.8911 36.4829C27.2953 40.9869 25.4013 46.0209 25.1577 51.2578C25.1253 52.3926 25.141 53.5346 25.3046 54.6604C25.3827 55.4579 25.954 56.1107 25.9788 56.9225C25.8861 57.0371 25.7977 57.1575 25.6931 57.2651C25.3095 57.2792 24.9674 57.0384 24.5812 57.0382ZM54.9558 21.8224C55.4916 22.0553 56.1616 21.8313 56.5931 22.307C56.476 22.4505 56.4074 22.6862 56.1965 22.7085C55.6505 22.851 55.1345 22.5359 54.7154 22.2218C54.7949 22.0882 54.8744 21.9547 54.9558 21.8224ZM55.1433 23.7495C55.0902 24.0866 54.8876 24.3901 54.5372 24.4663C54.3661 24.3939 54.232 24.2625 54.089 24.1499C54.1282 24.0062 54.1667 23.8635 54.2052 23.7207C54.508 23.5291 54.842 23.5721 55.1433 23.7495ZM31.4556 68.4929C31.9648 68.5765 32.4861 68.5989 32.9841 68.7484C32.9108 69.0046 32.814 69.2526 32.6789 69.4836C32.2473 69.325 31.7449 69.2796 31.4056 68.9392C31.3235 68.7914 31.4228 68.6355 31.4556 68.4929ZM31.4832 69.8032C31.6536 69.9224 31.8228 70.0435 31.9909 70.1681C31.9025 70.3442 31.8152 70.5209 31.7281 70.6993C31.4605 70.4996 31.1929 70.2999 30.924 70.102C31.11 69.9998 31.2955 69.9 31.4832 69.8032Z" fill="white"/>
<path d="M54.9578 21.8237C54.8764 21.9559 54.7969 22.0895 54.7174 22.2231C55.1365 22.5371 55.6525 22.8522 56.1986 22.7098C56.4094 22.6875 56.4781 22.4518 56.5952 22.3083C56.1637 21.8326 55.4936 22.0566 54.9578 21.8237Z" fill="black"/>
<path d="M55.1433 23.7489C54.842 23.5715 54.5081 23.5285 54.2053 23.7201C54.1668 23.8628 54.1283 24.0056 54.0891 24.1493C54.2321 24.2619 54.3662 24.3933 54.5373 24.4657C54.8877 24.3895 55.0903 24.086 55.1433 23.7489Z" fill="black"/>
<path d="M42.5378 42.2755C39.2866 45.8703 37.3743 50.6911 37.4772 55.5583C37.4998 56.146 37.5152 56.7341 37.5842 57.3193C38.4673 57.5044 39.369 57.5732 40.2689 57.6088C39.8224 55.8844 40.1611 54.0805 40.7227 52.4284C41.4564 50.3249 42.543 48.3571 43.8368 46.5495C45.1893 44.5743 46.8226 42.776 48.7641 41.3644C52.64 38.4877 57.4416 37.1629 62.1951 36.6863C64.6747 36.4595 67.169 36.421 69.6554 36.5273C69.6868 36.4964 69.748 36.4348 69.7785 36.4033C69.281 35.5294 68.4991 34.8127 67.5582 34.4451C65.5928 33.596 63.4091 33.7169 61.3191 33.6C59.7714 33.4897 58.2077 33.4739 56.6735 33.7291C53.5802 34.1693 50.6561 35.4541 48.0955 37.2143C46.0389 38.6566 44.1712 40.3674 42.5378 42.2755Z" fill="white"/>
<path d="M66.3242 17.2715C66.6456 22.2888 67.509 27.2513 67.9786 32.2541C68.0311 32.6776 68.0069 33.1128 68.1185 33.5275C68.2965 33.8134 68.5844 34.0079 68.8186 34.2454C69.3525 34.7622 69.8475 35.3186 70.3982 35.8193C70.5428 35.0705 70.5204 34.305 70.5394 33.5461C70.5639 32.0178 70.4658 30.4912 70.3965 28.9653C70.3294 27.8013 70.3371 26.6339 70.2636 25.471C70.1798 24.1214 69.3201 23.0136 68.66 21.8896C67.7431 20.419 67.3582 18.6765 66.3242 17.2715Z" fill="white"/>
<path d="M30.4433 76.9446C30.1922 77.1919 29.9094 77.4086 29.6785 77.6769C29.495 77.8296 29.6544 78.0482 29.7635 78.1913C30.4039 78.855 31.315 79.1098 32.0909 79.5677C32.5901 79.853 33.1094 80.1036 33.6268 80.357C33.8612 80.4625 34.1592 80.5987 34.3748 80.3823C37.9183 77.7933 40.8896 74.5369 44.2335 71.711C47.1621 69.1119 49.8315 66.2411 52.6752 63.5521C52.5721 62.8261 52.1823 62.1931 51.8015 61.5831C51.5482 61.1875 51.3507 60.76 51.1045 60.3623C44.1463 65.7987 36.9432 70.9511 30.4433 76.9446Z" fill="white"/>
<path d="M31.4498 68.4917C31.417 68.6343 31.3177 68.7902 31.3997 68.9381C31.7391 69.2784 32.2415 69.3238 32.6731 69.4825C32.8082 69.2515 32.905 69.0034 32.9783 68.7472C32.4803 68.5977 31.959 68.5753 31.4498 68.4917Z" fill="black"/>
<path d="M31.485 69.8031C31.2974 69.8999 31.1118 69.9997 30.9259 70.1019C31.1948 70.2998 31.4623 70.4995 31.7299 70.6992C31.817 70.5209 31.9044 70.3441 31.9927 70.168C31.8246 70.0434 31.6555 69.9223 31.485 69.8031Z" fill="black"/>
</svg>
