<svg width="154" height="349" viewBox="0 0 154 349" fill="none" xmlns="http://www.w3.org/2000/svg">
<g clip-path="url(#clip0_2243_27631)">
<path d="M52.0538 206.309C52.0538 206.309 31.8738 209.335 32.4038 232.745C32.9338 256.16 30.2101 267.421 55.0082 270.447C69.8536 272.261 83.9629 241.394 78.3633 222.361C74.6189 209.609 52.0538 206.309 52.0538 206.309Z" fill="white" stroke="black" stroke-width="1.73451" stroke-miterlimit="10" stroke-linecap="round" stroke-linejoin="round"/>
<path d="M114.266 205.073C99.4161 213.568 89.3605 211.733 88.8304 219.54C88.163 229.395 97.3009 233.423 104.535 230.402C111.768 227.376 123.669 220.258 124.99 219.061C131.414 213.234 140.802 203.483 140.522 199.435L130.673 189.36C127.178 191.389 116.504 203.792 114.266 205.073Z" fill="white" stroke="black" stroke-width="1.73451" stroke-miterlimit="10" stroke-linecap="round" stroke-linejoin="round"/>
<path d="M140.52 199.435L144.108 194.585L134.278 184.49L130.671 189.365L140.52 199.435Z" fill="white" stroke="black" stroke-width="1.73451" stroke-miterlimit="10" stroke-linecap="round" stroke-linejoin="round"/>
<path d="M143.11 193.836C143.11 193.836 144.533 192.401 148.612 188.647C152.695 184.893 154.245 180.696 151.33 175.796C148.415 170.9 145.5 170.521 142.541 174.908C141.446 176.533 140.715 179.514 140.715 179.514C140.715 179.514 141.594 175.177 139.282 174.694C136.092 174.036 136.833 182.994 135.808 186.344L143.11 193.836Z" fill="white" stroke="black" stroke-width="1.73451" stroke-miterlimit="10" stroke-linecap="round" stroke-linejoin="round"/>
<path d="M143.549 182.131C143.549 182.131 146.852 175.711 147.23 171.912" stroke="black" stroke-width="1.73451" stroke-miterlimit="10" stroke-linecap="round" stroke-linejoin="round"/>
<path d="M150.143 174.062C150.143 174.062 150.423 177.865 145.736 183.877" stroke="black" stroke-width="1.73451" stroke-miterlimit="10" stroke-linecap="round" stroke-linejoin="round"/>
<path d="M152.223 177.63C152.223 177.63 151.198 182.496 147.281 185.855" stroke="black" stroke-width="1.73451" stroke-miterlimit="10" stroke-linecap="round" stroke-linejoin="round"/>
<path d="M105.684 261.862C105.684 242.889 111.028 209.4 99.7895 204.4C93.3655 201.543 61.53 201.623 61.53 201.623C61.53 201.623 59.4246 203.223 54.6986 205.97C41.7083 213.542 55.9157 284.843 56.004 291.004C56.0188 292.171 52.2547 301.533 52.2547 301.533L48.0439 322.191C48.0439 322.191 53.2705 321.288 62.9728 316.064C67.7823 313.477 78.0784 304.19 79.6243 297.924C81.4204 290.616 82.8534 270.526 82.8534 270.526C83.8251 274.484 92.6735 287.101 97.5713 295.984C101.615 303.332 103.819 315.037 109.664 328.023L117.658 304.638C117.658 304.638 116.451 289.788 114.674 284.115C112.294 276.593 105.684 263.906 105.684 261.862Z" fill="white" stroke="black" stroke-width="1.73451" stroke-miterlimit="10" stroke-linecap="round" stroke-linejoin="round"/>
<path d="M122.649 323.252L117.653 304.643C117.653 304.643 116.843 307.001 110.439 309.364C106.518 310.805 100.859 310.854 100.859 310.854C100.859 310.854 106.901 324.902 107.421 326.717C109.521 334.11 108.918 333.417 111.686 341.153L141.352 330.216C141.612 321.677 133.892 315.874 122.649 323.252Z" fill="white" stroke="black" stroke-width="1.73451" stroke-miterlimit="10" stroke-linecap="round" stroke-linejoin="round"/>
<path d="M142.105 332.205C141.432 332.454 141.653 333.072 140.976 333.322C140.299 333.571 140.078 332.953 139.401 333.202C138.723 333.451 138.944 334.069 138.272 334.319C137.595 334.568 137.379 333.95 136.701 334.199C136.029 334.448 136.245 335.066 135.573 335.316C134.9 335.565 134.675 334.947 134.002 335.196C133.33 335.445 133.546 336.063 132.869 336.313C132.196 336.562 131.975 335.944 131.298 336.188C130.626 336.437 130.852 337.055 130.174 337.305C129.497 337.554 129.276 336.936 128.604 337.185C127.927 337.434 128.152 338.052 127.475 338.302C126.798 338.551 126.577 337.933 125.905 338.182C125.227 338.431 125.448 339.049 124.776 339.299C124.104 339.548 123.883 338.93 123.206 339.179C122.528 339.428 122.749 340.046 122.072 340.296C121.404 340.545 121.179 339.927 120.506 340.176C119.834 340.425 120.05 341.043 119.378 341.293C118.7 341.542 118.48 340.924 117.802 341.173C117.13 341.422 117.356 342.04 116.678 342.29C116.001 342.539 115.78 341.921 115.108 342.165C114.431 342.414 114.652 343.032 113.979 343.282C113.302 343.531 113.086 342.913 112.409 343.162L111.692 341.153L141.398 330.201L142.105 332.205Z" fill="white" stroke="black" stroke-width="1.73451" stroke-miterlimit="10" stroke-linecap="round" stroke-linejoin="round"/>
<path d="M46.8893 326.309L62.9763 316.065C62.9763 316.065 60.5176 315.955 56.4394 310.412C53.9464 307.022 52.2582 301.533 52.2582 301.533C52.2582 301.533 40.7695 311.473 39.2138 312.5C32.8536 316.688 33.3345 315.9 26.8418 320.825L45.736 346.508C53.8581 344.295 57.0922 335.102 46.8893 326.309Z" fill="white" stroke="black" stroke-width="1.73451" stroke-miterlimit="10" stroke-linecap="round" stroke-linejoin="round"/>
<path d="M44.0751 347.819C43.6433 347.236 43.1231 347.63 42.6912 347.042C42.2642 346.458 42.7795 346.064 42.3526 345.476C41.9207 344.893 41.4054 345.287 40.9686 344.699C40.5368 344.115 41.057 343.722 40.6251 343.133C40.1981 342.55 39.673 342.944 39.2461 342.361C38.8142 341.777 39.3344 341.384 38.9025 340.795C38.4756 340.212 37.9505 340.606 37.5235 340.023C37.0966 339.439 37.6118 339.046 37.18 338.457C36.753 337.874 36.2377 338.268 35.8009 337.685C35.374 337.101 35.8893 336.708 35.4574 336.124C35.0305 335.541 34.5103 335.93 34.0784 335.347C33.6514 334.763 34.1667 334.37 33.7349 333.786C33.3079 333.203 32.7828 333.597 32.3558 333.009C31.924 332.425 32.4442 332.032 32.0123 331.448C31.5853 330.865 31.0651 331.259 30.6333 330.676C30.2063 330.092 30.7216 329.699 30.2897 329.11C29.8628 328.527 29.3426 328.921 28.9107 328.338C28.4837 327.754 28.999 327.361 28.5721 326.777C28.1402 326.194 27.62 326.588 27.1881 326.005C26.7612 325.421 27.2765 325.028 26.8495 324.439C26.4176 323.856 25.9024 324.25 25.4705 323.662C25.0386 323.079 25.5539 322.685 25.127 322.101L26.8103 320.82L45.729 346.533L44.0751 347.819Z" fill="white" stroke="black" stroke-width="1.73451" stroke-miterlimit="10" stroke-linecap="round" stroke-linejoin="round"/>
<path d="M37.3896 203.676C51.4056 213.531 61.4024 220.471 61.4024 220.471C61.1766 230.346 51.705 233.501 44.7755 229.813C37.846 226.124 26.6419 217.918 25.4396 216.602C19.575 210.201 11.1143 199.608 11.7572 195.61L22.4852 186.503C25.7782 188.846 35.2793 202.196 37.3896 203.676Z" fill="white" stroke="black" stroke-width="1.73451" stroke-miterlimit="10" stroke-linecap="round" stroke-linejoin="round"/>
<path d="M11.756 195.605L8.625 190.436L19.3334 181.308L22.484 186.498L11.756 195.605Z" fill="white" stroke="black" stroke-width="1.73451" stroke-miterlimit="10" stroke-linecap="round" stroke-linejoin="round"/>
<path d="M9.68701 189.788C9.68701 189.788 8.40613 188.227 4.68127 184.105C0.96132 179.982 -0.206685 175.66 3.1452 171.054C6.49708 166.453 9.4269 166.343 11.9739 170.994C12.9162 172.714 13.3726 175.75 13.3726 175.75C13.3726 175.75 12.8917 171.348 15.2424 171.084C18.4765 170.725 16.9257 179.578 17.6373 183.008L9.68701 189.788Z" fill="white" stroke="black" stroke-width="1.73451" stroke-miterlimit="10" stroke-linecap="round" stroke-linejoin="round"/>
<path d="M10.3146 178.093C10.3146 178.093 7.61052 171.388 7.57617 167.574" stroke="black" stroke-width="1.73451" stroke-miterlimit="10" stroke-linecap="round" stroke-linejoin="round"/>
<path d="M4.47952 169.434C4.47952 169.434 3.85135 173.198 7.97863 179.619" stroke="black" stroke-width="1.73451" stroke-miterlimit="10" stroke-linecap="round" stroke-linejoin="round"/>
<path d="M2.08691 172.798C2.08691 172.798 2.66601 177.738 6.26327 181.447" stroke="black" stroke-width="1.73451" stroke-miterlimit="10" stroke-linecap="round" stroke-linejoin="round"/>
<path d="M48.0195 187.84C48.0195 187.84 49.4624 198.268 53.0204 202.575C56.5685 206.887 47.9803 206.329 48.1569 209.001C48.422 212.944 62.6441 221.877 74.4665 222.336C98.18 223.248 105.679 210.581 105.679 210.581C105.929 207.406 101.929 205.751 101.929 205.751C101.929 205.751 103.362 201.768 101.929 199.43L48.0195 187.84Z" fill="white" stroke="black" stroke-width="1.73451" stroke-miterlimit="10" stroke-linecap="round" stroke-linejoin="round"/>
<path d="M111.063 174.25C111.701 192.595 97.5725 207.984 79.5126 208.627C61.4527 209.27 46.3079 194.923 45.6699 176.578C45.0368 158.238 59.1608 142.844 77.2208 142.201C95.2709 141.563 110.425 155.905 111.063 174.25Z" fill="white" stroke="black" stroke-width="1.73451" stroke-miterlimit="10" stroke-linecap="round" stroke-linejoin="round"/>
<path d="M76.8914 155.327C59.6805 168.647 61.8006 186.578 61.8006 186.578C61.8006 186.578 81.7303 212.45 107.387 190.78C107.387 190.78 113.973 180.217 111.009 167.52C108.05 154.828 98.0235 148.004 98.0235 148.004C98.0235 148.004 88.0905 146.653 76.8914 155.327Z" fill="#101210"/>
<path d="M102.508 197.839C76.5712 215.157 57.2402 186.738 57.2402 186.738C57.2402 186.738 59.3211 150.492 91.3872 144.918" stroke="black" stroke-width="1.73451" stroke-miterlimit="10" stroke-linecap="round" stroke-linejoin="round"/>
<path d="M70.7556 168.403C67.1093 173.244 66.0002 182.441 68.4785 183.757C70.9568 185.073 71.5654 174.66 75.4178 171.1C79.4666 167.352 74.451 163.518 70.7556 168.403Z" fill="white"/>
<path d="M76.1813 159.6C74.9151 160.223 74.3802 161.813 74.9936 163.094L75.1163 163.343C75.7298 164.625 77.2953 165.173 78.5565 164.55C79.8178 163.927 80.3576 162.336 79.7442 161.055L79.6264 160.806C79.008 159.52 77.4425 158.972 76.1813 159.6Z" fill="white"/>
<path d="M103.005 186.996C102.623 186.293 101.754 186.024 101.101 186.563C99.3199 188.033 92.2677 191.263 94.2062 194.514C95.6883 197.006 98.3678 195.69 100.375 193.601C102.672 192.021 104.375 189.519 103.005 186.996Z" fill="white"/>
<path d="M51.7614 185.845C48.1494 184.205 43.9387 179.106 42.8345 172.81C42.0395 168.268 44.4246 164.051 47.2906 164.998C47.2906 164.998 43.7915 176.648 54.701 181.728L51.7614 185.845Z" fill="white" stroke="black" stroke-width="1.73451" stroke-miterlimit="10" stroke-linecap="round" stroke-linejoin="round"/>
<path d="M62.714 185.815C63.2195 188.891 61.173 191.792 58.1499 192.301C55.1318 192.814 52.2657 190.736 51.7652 187.665C51.2597 184.589 53.3062 181.688 56.3292 181.179C59.3523 180.666 62.2085 182.74 62.714 185.815Z" fill="white" stroke="black" stroke-width="1.73451" stroke-miterlimit="10" stroke-linecap="round" stroke-linejoin="round"/>
<path d="M59.5682 186.344C59.7841 187.655 58.9106 188.892 57.6248 189.106C56.339 189.32 55.1219 188.438 54.906 187.132C54.69 185.826 55.5587 184.585 56.8445 184.37C58.1352 184.156 59.3523 185.038 59.5682 186.344Z" fill="white" stroke="black" stroke-width="1.73451" stroke-miterlimit="10" stroke-linecap="round" stroke-linejoin="round"/>
<path d="M53.5674 203.432C53.5674 203.432 63.5838 216.613 80.4806 216.099" stroke="black" stroke-width="1.73451" stroke-miterlimit="10" stroke-linecap="round" stroke-linejoin="round"/>
<path d="M101.923 205.75C101.923 205.75 96.0533 212.246 90.3311 214.075" stroke="black" stroke-width="1.73451" stroke-miterlimit="10" stroke-linecap="round" stroke-linejoin="round"/>
<path d="M102.502 225.691C102.502 225.691 100.642 223.403 96.6667 224.026C92.6965 224.649 72.0699 227.884 72.0699 227.884C70.4062 227.884 69.0566 229.25 69.0566 230.945V258.801C69.0566 260.491 70.4062 261.862 72.0699 261.862L99.4935 257.56C100.313 257.56 102.958 254.509 102.958 254.509L102.502 225.691Z" fill="white" stroke="black" stroke-width="1.73451" stroke-miterlimit="10" stroke-linecap="round" stroke-linejoin="round"/>
<path d="M103.664 252.68C103.664 254.181 102.466 255.402 100.984 255.402L76.6131 259.225C75.1408 259.225 73.9385 258.009 73.9385 256.504V231.748C73.9385 230.247 75.1408 229.026 76.6131 229.026L100.984 225.203C102.466 225.203 103.664 226.419 103.664 227.924V252.68Z" fill="white" stroke="black" stroke-width="1.73451" stroke-miterlimit="10" stroke-linecap="round" stroke-linejoin="round"/>
<path d="M70.6221 260.721L74.6021 258.303" stroke="black" stroke-width="1.73451" stroke-miterlimit="10" stroke-linecap="round" stroke-linejoin="round"/>
<path d="M69.8926 228.837L74.2554 230.457" stroke="black" stroke-width="1.73451" stroke-miterlimit="10" stroke-linecap="round" stroke-linejoin="round"/>
</g>
<g clip-path="url(#clip1_2243_27631)">
<path d="M41.5205 49.5911C37.9879 46.8677 34.426 44.1812 30.9045 41.4429C33.7706 42.5938 36.6264 43.7661 39.4882 44.9278C39.5303 43.7078 39.5468 42.4883 39.5907 41.2668C43.1393 43.6627 46.6846 46.0598 50.2334 48.454C47.3641 47.3651 44.5415 46.1498 41.6879 45.0178C41.6337 46.5419 41.5857 48.0682 41.5205 49.5911Z" fill="white"/>
<path d="M45.4971 32.4869C42.6485 27.0557 39.7628 21.643 36.9109 16.2131C39.8267 19.308 42.7267 22.4172 45.6374 25.5148C46.3838 24.0202 47.1167 22.5178 47.8571 21.0194C50.9229 26.0638 53.9884 31.1097 57.0353 36.1665C54.12 33.0828 51.2325 29.9764 48.3238 26.8903C47.3917 28.7606 46.4291 30.6166 45.4971 32.4869Z" fill="white"/>
<path d="M57.2015 22.2311C55.5746 14.5997 53.9003 6.9777 52.293 -0.658155C54.7672 4.2935 57.2146 9.25838 59.6871 14.2114C60.8994 12.616 62.1564 11.0524 63.4 9.47936C65.528 16.9944 67.689 24.5001 69.8072 32.0174C67.1529 27.0441 64.5462 22.0436 61.929 17.0517C60.3387 18.7634 58.7847 20.5108 57.2015 22.2311Z" fill="white"/>
<path d="M77.248 29.6184C76.5916 24.0701 75.8849 18.5295 75.2235 12.9824C76.2427 13.6576 77.2641 14.3267 78.2868 14.9991C79.5499 10.8067 80.796 6.60942 82.0794 2.42233C81.5009 8.77407 80.8953 15.1246 80.3073 21.4754C79.4663 20.9016 78.7101 20.2181 77.9478 19.5469C77.7104 22.9031 77.5315 26.2653 77.248 29.6184Z" fill="white"/>
<path d="M86.4453 32.3604C87.8399 27.5261 89.2966 22.7095 90.7346 17.8877C91.3337 18.8092 91.9398 19.7249 92.5357 20.646C95.0858 17.6503 97.6109 14.6328 100.179 11.6517C97.4275 16.6839 94.6429 21.6999 91.8766 26.7242C91.3834 25.9543 91.0171 25.1159 90.617 24.2964C89.2254 26.9843 87.8292 29.6701 86.4453 32.3604Z" fill="white"/>
<path fill-rule="evenodd" clip-rule="evenodd" d="M71.9184 36.1756C67.9332 36.7944 65.1794 37.6577 62.4087 39.1564C54.5874 43.3873 49.2562 50.8599 47.3689 60.237C46.8823 62.6553 46.8756 69.5775 47.3575 72.0268C48.1676 76.1437 49.8785 80.3966 52.037 83.6588C54.0912 86.7631 57.6727 90.3093 60.4134 91.9523L61.3424 92.5092L61.1905 94.0079C61.1068 94.8322 61.0383 96.3609 61.0383 97.405C61.0383 99.0955 61.097 99.4326 61.5737 100.485C61.868 101.134 62.506 102.112 62.9912 102.658L63.8736 103.65L63.2654 104.274C61.2893 106.303 61.3275 109.808 63.3456 111.644C64.0422 112.278 64.0449 112.286 63.7235 112.787C61.9714 115.518 63.5575 119.606 66.5586 120.094C67.3115 120.216 67.3746 120.274 67.4893 120.955C68.1867 125.09 71.5621 125.827 75.1083 125.984C78.9171 126.152 82.8133 125.076 83.5107 120.941C83.6254 120.26 83.6885 120.202 84.4414 120.08C87.4425 119.592 89.0286 115.504 87.2765 112.773C86.9551 112.271 86.9578 112.263 87.6544 111.63C89.6725 109.794 89.7107 106.288 87.7346 104.26L87.1264 103.636L88.0088 102.644C88.494 102.098 89.132 101.12 89.4263 100.471C89.903 99.4185 89.9617 99.0814 89.9617 97.3909C89.9617 96.3468 89.8932 94.8181 89.8095 93.9938L89.6576 92.4951L90.5866 91.9382C93.3273 90.2952 96.9088 86.749 98.963 83.6447C101.121 80.3825 102.832 76.1296 103.642 72.0128C104.124 69.5635 104.118 62.6413 103.631 60.2229C101.744 50.8458 96.4126 43.3733 88.5913 39.1423C85.8206 37.6436 83.0668 36.7804 79.0816 36.1615C75.1054 35.8624 72.6494 36.0463 71.9184 36.1756ZM69.4381 120.82C70.1254 123.417 72.5643 123.955 75.1083 124.093C77.9243 124.245 80.8746 123.402 81.5619 120.806L81.7297 120.171L76.0344 120.183L69.2703 120.185L69.4381 120.82ZM65.1912 110.443C65.7743 110.761 68.8013 110.779 76.5921 110.783C84.383 110.779 85.2257 110.747 85.8088 110.429C87.639 109.433 87.7786 106.666 86.0601 105.445C85.5923 105.112 84.8727 105.08 76.8359 105.025C68.799 105.08 65.4077 105.127 64.9399 105.459C63.2214 106.68 63.361 109.447 65.1912 110.443ZM65.903 102.445C66.7443 102.895 66.8645 102.901 75.5143 103C84.1642 102.901 84.2557 102.881 85.097 102.431C86.3071 101.785 87.4039 100.505 87.8653 99.1991C88.2778 98.0319 88.2725 97.7913 87.7235 92.8586C87.6165 91.8978 87.6464 91.7855 88.1395 91.2959C88.4318 91.0058 89.5836 90.1283 90.6993 89.346C95.4378 86.0235 99.2927 80.5374 100.984 74.7084C101.934 71.4357 102.126 69.9699 102.119 66.0179C102.113 62.7406 102.057 62.0665 101.626 60.0781C99.7924 51.6096 94.7295 44.685 87.6306 40.9352C84.1041 39.0724 80.4826 38.183 76.4077 38.1788C72.3328 38.183 66.8959 39.0864 63.3694 40.9492C56.2705 44.699 51.2076 51.6236 49.3736 60.0921C48.943 62.0806 48.8872 62.7546 48.8813 66.032C48.8743 69.984 49.0657 71.4497 50.0156 74.7225C51.7073 80.5514 55.5622 86.0375 60.3007 89.36C61.4164 90.1424 62.5682 91.0199 62.8605 91.31C63.3536 91.7996 63.3835 91.9119 63.2765 92.8727C62.7275 97.8054 62.7222 98.046 63.1347 99.2132C63.5961 100.519 64.6929 101.799 65.903 102.445ZM76.6806 118.13L76.8331 118.131C83.7409 118.078 84.4923 118.04 84.9424 117.721C86.1118 116.89 86.4841 115.312 85.7786 114.176C84.9043 112.769 84.9668 112.778 76.3125 112.778C67.6583 112.778 66.0957 112.783 65.2214 114.19C64.5159 115.326 64.8882 116.904 66.0575 117.735C66.5044 118.052 69.8751 118.078 76.6806 118.13Z" fill="white"/>
<path d="M75.5143 103C66.8645 102.901 66.7443 102.895 65.903 102.445C64.6929 101.799 63.5961 100.519 63.1347 99.2132C62.7222 98.046 62.7275 97.8054 63.2765 92.8727C63.3835 91.9119 63.3536 91.7996 62.8605 91.31C62.5682 91.0199 61.4164 90.1424 60.3007 89.36C55.5622 86.0375 51.7073 80.5514 50.0156 74.7225C49.0657 71.4497 48.8743 69.984 48.8813 66.032C48.8872 62.7546 48.943 62.0806 49.3736 60.0921C51.2076 51.6236 56.2705 44.699 63.3694 40.9492C66.8959 39.0864 72.3328 38.183 76.4077 38.1788C80.4826 38.183 84.1041 39.0724 87.6306 40.9352C94.7295 44.685 99.7924 51.6096 101.626 60.0781C102.057 62.0665 102.113 62.7406 102.119 66.0179C102.126 69.9699 101.934 71.4357 100.984 74.7084C99.2927 80.5374 95.4378 86.0235 90.6993 89.346C89.5836 90.1283 88.4318 91.0058 88.1395 91.2959C87.6464 91.7855 87.6165 91.8978 87.7235 92.8586C88.2725 97.7913 88.2778 98.0319 87.8653 99.1991C87.4039 100.505 86.3071 101.785 85.097 102.431C84.2557 102.881 84.1642 102.901 75.5143 103Z" fill="white"/>
<path d="M76.5921 110.783C68.8013 110.779 65.7743 110.761 65.1912 110.443C63.361 109.447 63.2214 106.68 64.9399 105.459C65.4077 105.127 68.799 105.08 76.8359 105.025C84.8727 105.08 85.5923 105.112 86.0601 105.445C87.7786 106.666 87.639 109.433 85.8088 110.429C85.2257 110.747 84.383 110.779 76.5921 110.783Z" fill="white"/>
<path d="M66.0575 117.735C64.8882 116.904 64.5159 115.326 65.2214 114.19C66.0957 112.783 67.6583 112.778 76.3125 112.778C84.9668 112.778 84.9043 112.769 85.7786 114.176C86.4841 115.312 86.1118 116.89 84.9424 117.721C84.4923 118.04 83.7409 118.078 76.8331 118.131L76.6806 118.13C69.8751 118.078 66.5044 118.052 66.0575 117.735Z" fill="white"/>
<path d="M75.1083 124.093C72.5643 123.955 70.1254 123.417 69.4381 120.82L69.2703 120.185L76.0344 120.183L81.7297 120.171L81.5619 120.806C80.8746 123.402 77.9243 124.245 75.1083 124.093Z" fill="white"/>
<path fill-rule="evenodd" clip-rule="evenodd" d="M71.9184 36.1756C67.9332 36.7944 65.1794 37.6577 62.4087 39.1564C54.5874 43.3873 49.2562 50.8599 47.3689 60.237C46.8823 62.6553 46.8756 69.5775 47.3575 72.0268C48.1676 76.1437 49.8785 80.3966 52.037 83.6588C54.0912 86.7631 57.6727 90.3093 60.4134 91.9523L61.3424 92.5092L61.1905 94.0079C61.1068 94.8322 61.0383 96.3609 61.0383 97.405C61.0383 99.0955 61.097 99.4326 61.5737 100.485C61.868 101.134 62.506 102.112 62.9912 102.658L63.8736 103.65L63.2654 104.274C61.2893 106.303 61.3275 109.808 63.3456 111.644C64.0422 112.278 64.0449 112.286 63.7235 112.787C61.9714 115.518 63.5575 119.606 66.5586 120.094C67.3115 120.216 67.3746 120.274 67.4893 120.955C68.1867 125.09 71.5621 125.827 75.1083 125.984C78.9171 126.152 82.8133 125.076 83.5107 120.941C83.6254 120.26 83.6885 120.202 84.4414 120.08C87.4425 119.592 89.0286 115.504 87.2765 112.773C86.9551 112.271 86.9578 112.263 87.6544 111.63C89.6725 109.794 89.7107 106.288 87.7346 104.26L87.1264 103.636L88.0088 102.644C88.494 102.098 89.132 101.12 89.4263 100.471C89.903 99.4185 89.9617 99.0814 89.9617 97.3909C89.9617 96.3468 89.8932 94.8181 89.8095 93.9938L89.6576 92.4951L90.5866 91.9382C93.3273 90.2952 96.9088 86.749 98.963 83.6447C101.121 80.3825 102.832 76.1296 103.642 72.0128C104.124 69.5635 104.118 62.6413 103.631 60.2229C101.744 50.8458 96.4126 43.3733 88.5913 39.1423C85.8206 37.6436 83.0668 36.7804 79.0816 36.1615C75.1054 35.8624 72.6494 36.0463 71.9184 36.1756ZM69.4381 120.82C70.1254 123.417 72.5643 123.955 75.1083 124.093C77.9243 124.245 80.8746 123.402 81.5619 120.806L81.7297 120.171L76.0344 120.183L69.2703 120.185L69.4381 120.82ZM65.1912 110.443C65.7743 110.761 68.8013 110.779 76.5921 110.783C84.383 110.779 85.2257 110.747 85.8088 110.429C87.639 109.433 87.7786 106.666 86.0601 105.445C85.5923 105.112 84.8727 105.08 76.8359 105.025C68.799 105.08 65.4077 105.127 64.9399 105.459C63.2214 106.68 63.361 109.447 65.1912 110.443ZM65.903 102.445C66.7443 102.895 66.8645 102.901 75.5143 103C84.1642 102.901 84.2557 102.881 85.097 102.431C86.3071 101.785 87.4039 100.505 87.8653 99.1991C88.2778 98.0319 88.2725 97.7913 87.7235 92.8586C87.6165 91.8978 87.6464 91.7855 88.1395 91.2959C88.4318 91.0058 89.5836 90.1283 90.6993 89.346C95.4378 86.0235 99.2927 80.5374 100.984 74.7084C101.934 71.4357 102.126 69.9699 102.119 66.0179C102.113 62.7406 102.057 62.0665 101.626 60.0781C99.7924 51.6096 94.7295 44.685 87.6306 40.9352C84.1041 39.0724 80.4826 38.183 76.4077 38.1788C72.3328 38.183 66.8959 39.0864 63.3694 40.9492C56.2705 44.699 51.2076 51.6236 49.3736 60.0921C48.943 62.0806 48.8872 62.7546 48.8813 66.032C48.8743 69.984 49.0657 71.4497 50.0156 74.7225C51.7073 80.5514 55.5622 86.0375 60.3007 89.36C61.4164 90.1424 62.5682 91.0199 62.8605 91.31C63.3536 91.7996 63.3835 91.9119 63.2765 92.8727C62.7275 97.8054 62.7222 98.046 63.1347 99.2132C63.5961 100.519 64.6929 101.799 65.903 102.445ZM76.6806 118.13L76.8331 118.131C83.7409 118.078 84.4923 118.04 84.9424 117.721C86.1118 116.89 86.4841 115.312 85.7786 114.176C84.9043 112.769 84.9668 112.778 76.3125 112.778C67.6583 112.778 66.0957 112.783 65.2214 114.19C64.5159 115.326 64.8882 116.904 66.0575 117.735C66.5044 118.052 69.8751 118.078 76.6806 118.13Z" fill="black"/>
<g clip-path="url(#clip2_2243_27631)">
<g clip-path="url(#clip3_2243_27631)">
<path d="M69.0025 54.1865C69.4611 53.8895 69.9791 53.6257 70.5422 53.6648C70.3666 53.9718 70.2289 54.3008 70.1942 54.6512C69.8402 54.405 69.422 54.2827 69.0025 54.1865Z" fill="#A79CEE"/>
<path d="M66.6881 55.4629C67.4093 54.5717 68.823 54.307 69.8147 54.8691C70.2317 55.0881 70.5479 55.4453 70.8075 55.825C70.7683 55.8593 70.6905 55.9295 70.6515 55.9646C70.6194 55.9964 70.5555 56.0609 70.5237 56.0935C70.4487 56.1643 70.3754 56.2372 70.3034 56.3114C70.0415 55.79 69.4373 55.3961 68.826 55.5612C69.3419 55.7472 69.9278 56.1294 69.8927 56.7367C69.5566 57.2957 69.3617 57.9512 69.3874 58.5956C69.3603 58.599 69.3054 58.6062 69.2783 58.6097C68.7943 58.0879 67.9291 57.7365 67.2491 58.1531C67.7382 58.188 68.2339 58.2995 68.6057 58.6287C68.9754 58.9896 69.2175 59.4475 69.4561 59.8955C69.6219 60.1474 69.7671 60.4108 69.9154 60.6732C70.0267 60.8257 70.0977 61.0017 70.1736 61.1744L70.3428 61.0748C70.1951 60.4808 69.9839 59.9048 69.8611 59.3038C69.8474 59.1446 69.8245 58.9869 69.8081 58.8278C69.7683 58.3816 69.803 57.9212 69.9547 57.4938C70.1361 56.9804 70.5612 56.6058 70.9234 56.2111C71.1311 56.0002 71.3542 55.8028 71.5738 55.6031C71.6904 55.5099 71.8044 55.4142 71.9188 55.3175C72.0861 55.2075 72.253 55.0941 72.4144 54.9749C72.4961 54.9206 72.5767 54.8658 72.6578 54.8099C72.2761 54.8611 71.952 55.0732 71.6198 55.2496C71.4372 55.3762 71.2492 55.4952 71.0602 55.6112C70.8961 55.3818 70.7213 55.1597 70.5251 54.9571C70.5569 54.496 70.7759 54.0261 71.2045 53.792C72.1669 53.2585 73.3715 53.2859 74.3581 53.7056C74.297 53.9537 74.2893 54.2148 74.2132 54.4578C73.5345 55.2191 73.0874 56.2179 73.1513 57.231C73.1424 57.271 73.1231 57.3516 73.1143 57.3916C72.5846 56.8257 71.6366 56.7961 70.9488 57.1201C71.3088 57.1804 71.685 57.1913 72.0216 57.343C72.7591 57.6233 73.3008 58.251 73.6094 58.9475C73.7558 59.2998 73.8639 59.6664 73.9918 60.026C74.0487 59.8816 74.0627 59.7282 74.0661 59.575C73.9878 59.0048 73.8464 58.4438 73.6639 57.899C73.5163 56.7641 73.8622 55.526 74.7219 54.7039C74.9839 54.4714 75.2613 54.255 75.5576 54.0645C75.6523 53.9996 75.749 53.9401 75.8463 53.8776C76.1174 53.7184 76.3919 53.5613 76.6843 53.4427C76.5789 53.2692 76.366 53.3901 76.2083 53.3895C75.6529 53.5126 75.1479 53.7984 74.6941 54.1289C74.6464 54.1517 74.5515 54.196 74.5043 54.2177C74.839 53.4592 75.5577 52.8316 76.4168 52.7447C77.493 52.6213 78.4945 53.1285 79.3677 53.6678C79.2664 53.6791 79.0637 53.7012 78.9625 53.7126C78.291 53.7724 77.5959 53.8955 77.0342 54.2913C76.793 54.4899 76.6477 54.7674 76.5704 55.0598C76.5834 55.1016 76.6091 55.1845 76.6221 55.2263C76.9776 54.6296 77.6474 54.2896 78.3303 54.2094C79.1264 54.1145 79.9393 54.1949 80.7057 54.4041C81.0196 54.5191 81.4065 54.6405 81.5249 54.9811C81.5755 55.1093 81.5956 55.2465 81.6236 55.381C81.5402 55.7038 81.4683 56.0389 81.3024 56.3331C81.1771 56.3864 81.0704 56.2872 80.9632 56.244C80.2165 55.8451 79.2828 55.7958 78.4838 56.1081C77.9607 56.3376 77.4726 56.6638 77.0975 57.0922C76.9981 56.7655 76.9019 56.4351 76.7393 56.1323C76.6834 56.0617 76.6302 55.9885 76.5806 55.9131C76.2736 55.5269 75.7373 55.2604 75.23 55.407C75.136 55.4313 75.0406 55.4441 74.9451 55.4492C74.9566 55.4718 74.9799 55.5177 74.9917 55.5411C75.5508 55.6467 76.0924 55.9861 76.314 56.5112C76.454 56.755 76.4801 57.0395 76.5161 57.312C76.5518 57.8267 76.4295 58.3322 76.3528 58.8391C76.658 58.5811 76.7818 58.1952 77.0031 57.8774C77.2549 57.463 77.6226 57.1291 78.0317 56.8648C78.6639 56.5457 79.3973 56.3207 80.1008 56.4995C80.6676 56.612 81.1438 56.9639 81.5202 57.3765C81.613 57.4865 81.7027 57.6002 81.7887 57.7161C81.8639 57.8289 81.9383 57.9419 82.0176 58.0515C82.0714 58.1589 82.1245 58.2666 82.1801 58.3741C82.3296 58.6472 82.5142 58.9449 82.5075 59.2641C82.4957 59.3086 82.4733 59.398 82.4624 59.4422C82.4211 59.8439 82.5052 60.2377 82.6694 60.6027C82.81 60.52 82.7765 60.3574 82.8086 60.2277C82.9841 59.2914 83.4127 58.4132 83.9601 57.6258C83.4852 57.7388 83.1686 58.1226 82.8347 58.4421C82.8136 58.4349 82.7724 58.421 82.7513 58.4138C82.4008 57.7663 82.1002 56.9949 82.3542 56.2534C82.5785 55.5078 83.3764 55.032 84.1488 55.0578C85.0254 55.1408 85.7195 55.7418 86.2176 56.4038C86.9717 57.3376 87.3264 58.5082 87.5555 59.6636C87.7698 59.2108 87.6386 58.6935 87.6085 58.2197C88.3327 58.7055 89.0053 59.4008 89.094 60.2988C89.1567 61.2333 88.5824 62.1049 87.879 62.7031C87.7827 62.7686 87.6829 62.8292 87.5802 62.8841C87.514 62.7415 87.4478 62.599 87.3585 62.4688C87.17 62.273 86.969 62.0668 86.6879 62.0047C86.8045 62.3124 87.0047 62.5815 87.1105 62.8939C87.4583 63.8368 87.382 64.8964 87.0387 65.8409C86.6341 66.8599 85.8744 67.702 85.0562 68.4313C85.5537 68.3774 85.9638 68.0708 86.3132 67.7399C86.4754 67.5706 86.6366 67.3983 86.7716 67.2068C86.8956 67.7034 86.9746 68.2107 87.1133 68.7039C87.2662 68.1198 87.276 67.5059 87.1447 66.9208C87.793 65.9031 88.0834 64.6707 87.8878 63.495C88.3542 63.3679 88.8253 63.6126 89.2016 63.8569C90.1672 64.6257 90.6722 65.7883 91.1287 66.8915C91.3451 67.367 91.4892 67.8704 91.6778 68.3573C91.7529 68.1215 91.7184 67.8734 91.6859 67.6358C91.5424 66.7304 91.1809 65.8816 90.8605 65.0287C91.644 65.2464 92.4857 64.7543 92.7804 64.0279C93.4062 64.5155 93.6424 65.3326 93.6985 66.0883C93.6953 66.1993 93.6949 66.311 93.6943 66.422C93.6807 66.8123 93.5863 67.1939 93.5407 67.5808C93.4048 67.2008 93.2975 66.809 93.1196 66.4454C92.8327 66.0032 92.4023 65.5005 91.8053 65.5531C92.2804 65.9269 92.7264 66.3761 92.8959 66.9668C93.1697 67.7527 93.0676 68.6187 92.839 69.4096C92.6774 69.9066 92.3803 70.4657 91.808 70.581C91.0523 70.7579 90.5184 69.9067 89.7625 70.0554C90.1178 70.2702 90.4805 70.4858 90.7414 70.8118C90.907 71.0054 91.0513 71.2313 91.0183 71.4962C90.8906 71.6705 90.7093 71.8061 90.4937 71.8541C90.0151 71.9718 89.5177 71.9381 89.0321 72.0059C88.3604 72.0899 87.6834 72.144 87.0208 72.284C87.3163 71.9608 87.6132 71.5967 87.6615 71.1522C87.7035 70.8602 87.5093 70.6105 87.427 70.3448C87.5118 70.006 87.711 69.6358 88.0791 69.5284C88.5293 69.3829 88.9987 69.5878 89.373 69.8165C89.3323 69.5131 89.1413 69.2726 88.9394 69.0539C89.278 68.294 90.044 67.8078 90.3312 67.0178C90.3201 66.9788 90.2974 66.9018 90.2865 66.8635C90.0735 67.1321 89.8109 67.3579 89.5613 67.593C88.7993 68.2735 87.9791 68.9092 87.0507 69.3586C86.2707 69.7724 85.3496 69.7565 84.5008 69.6569C84.2041 69.6457 84.189 69.3024 84.1094 69.0942C83.8179 69.2958 83.6911 69.6407 83.4171 69.8594C82.8221 70.369 82.0142 70.5633 81.245 70.5767C81.176 70.2256 81.0639 69.8604 80.7684 69.6273C80.7677 69.9461 80.8846 70.2847 80.7345 70.5913C80.6329 70.8347 80.4139 71.0187 80.1646 71.1093C79.8221 71.2464 79.4865 71.4059 79.1292 71.5009C78.8558 71.5734 78.5841 71.4702 78.3294 71.3876C78.4446 71.1928 78.4087 70.9606 78.5004 70.7594C78.1794 70.9576 78.0319 71.3192 77.8088 71.6042C76.9965 72.6483 75.8744 73.5064 74.565 73.8411C73.6036 74.0969 72.5702 74.1761 71.615 73.8905C71.9424 74.2593 72.454 74.3807 72.925 74.4821C72.5097 75.2052 71.8346 75.8133 71.0133 76.0552C70.5359 76.2361 69.9238 76.2159 69.568 75.827C69.6482 76.1269 69.9173 76.3204 70.184 76.4571C70.7208 76.72 71.3176 76.8572 71.9175 76.903C72.098 76.8957 72.2797 76.8819 72.4608 76.876C72.6284 76.8423 72.7916 76.786 72.9431 76.7038C72.8933 76.7032 72.7935 76.7012 72.7438 76.7006C72.3169 76.6061 71.832 76.6256 71.4602 76.3968C71.6425 76.2867 71.8293 76.1844 72.0225 76.0927C72.1352 76.0137 72.2517 75.9378 72.3629 75.8542C72.4016 75.8286 72.4783 75.7778 72.517 75.7522C72.7393 75.555 72.9401 75.3371 73.1667 75.1444C74.0233 74.6094 75.0555 74.3614 76.0601 74.391C76.0393 74.3571 75.9971 74.2877 75.9763 74.2538C75.8253 74.2019 75.678 74.1401 75.5409 74.0602C76.2271 73.7488 76.8731 73.3312 77.389 72.7857C78.3031 72.2279 79.3804 71.887 80.4565 71.9087C80.9329 71.9103 81.3855 72.0601 81.8238 72.2218C81.7842 72.112 81.7438 72.0025 81.7036 71.8938C81.5772 71.7938 81.4474 71.6967 81.3158 71.6045C82.2602 70.9597 83.3787 70.6052 84.4965 70.3968C85.2289 70.2942 86.0267 70.239 86.7025 70.57C87.0826 70.7298 87.2453 71.2309 87.0291 71.5831C86.7593 72.0544 86.3022 72.4007 85.8214 72.6497C84.6433 73.2011 83.3019 73.2774 82.0314 73.1459C81.9321 73.1378 81.8344 73.129 81.7369 73.1211C81.3514 73.0611 80.963 73.0133 80.5838 72.9211C80.6909 73.2571 81.0167 73.4436 81.3523 73.5098C81.4721 73.516 81.4552 73.6584 81.3477 73.6823C80.3548 74.3123 79.2097 74.6942 78.0417 74.8231C77.8668 74.8414 77.6868 74.8675 77.5376 74.9661C77.0791 75.2484 76.625 75.5405 76.1355 75.7676C75.4083 76.0702 74.565 75.9738 73.9026 75.5858C74.0601 76.1574 74.7269 76.4203 75.2905 76.4008C74.0871 77.3792 72.6864 78.1571 71.1714 78.5457C70.1638 78.7833 69.0753 78.8869 68.0876 78.5517C68.2695 78.4683 68.4531 78.3869 68.6337 78.2997C69.0204 78.0596 69.3998 77.8065 69.7626 77.5311C70.0665 77.5251 70.3662 77.452 70.6563 77.3642C70.6481 77.331 70.6317 77.2646 70.6233 77.2307C69.6145 77.0866 68.612 76.8021 67.7469 76.273C67.9321 76.8606 68.5544 77.1125 69.0539 77.3953L69.1587 77.5243C68.5622 77.7812 67.9452 77.998 67.3006 78.0888C66.6453 78.1465 65.9499 78.0859 65.3947 77.723C64.8644 77.426 64.409 76.8848 64.4683 76.251C64.476 75.7864 64.736 75.3829 64.9537 74.9847C64.9788 74.9605 65.0283 74.9105 65.0523 74.8858C64.8874 74.9598 64.7287 75.0463 64.5715 75.1348C64.3416 75.3355 64.1671 75.5854 64.0518 75.8628C63.4663 75.3465 62.9562 74.6578 62.9401 73.853C62.9212 73.0474 63.4518 72.3353 64.0602 71.8313C64.2041 71.7354 64.2137 71.5595 64.2543 71.4114C64.6208 70.0338 65.5854 68.7947 66.8892 68.1332C67.6918 67.7535 68.5961 67.6791 69.4695 67.6654C69.9622 67.6706 70.4581 67.6722 70.9433 67.7565C71.1474 68.36 71.3736 68.9608 71.7204 69.4997C71.621 68.6416 71.4399 67.7802 71.5357 66.9087C71.5793 66.471 71.6925 66.0047 72.0256 65.6829C72.6955 65.0346 73.4749 64.4965 74.3125 64.0779C74.5437 63.9636 74.8361 63.8647 75.0692 64.0192C75.4638 64.2751 75.5165 64.7753 75.5644 65.2016C75.8762 64.8246 75.8928 64.3276 76.0551 63.8905C76.2503 63.5011 76.627 63.2026 77.0529 63.0836C77.8017 62.8044 78.608 63.2021 79.1256 63.7164C79.4091 64.0285 79.6113 64.4008 79.7583 64.7924C79.7759 64.7244 79.7945 64.6569 79.8142 64.5899C79.7856 64.1955 79.6613 63.8209 79.5169 63.4567C80.425 63.09 81.4793 63.085 82.3716 63.4681C82.5491 63.5477 82.721 63.6438 82.91 63.7004C82.8357 63.2894 82.4049 63.144 82.1144 62.9073C82.7278 62.6806 83.2881 62.2407 83.5364 61.6335C82.8396 62.0499 82.1211 62.5152 81.2884 62.5843C80.9084 62.6228 80.5223 62.491 80.2597 62.2231C80.0515 61.974 79.9531 61.665 79.8384 61.3677C79.7481 61.741 79.7206 62.1267 79.793 62.5023C79.3332 62.5027 78.8236 62.4544 78.4787 62.1313C78.1171 61.7083 78.2226 61.1099 78.4397 60.6398C78.7959 59.8798 79.2426 59.1404 79.8704 58.5609C79.9189 58.513 79.9606 58.4607 80.0025 58.4065C79.745 58.464 79.4959 58.565 79.2973 58.7392C78.7433 59.1993 78.3465 59.8069 77.9774 60.4101C77.8897 60.0363 77.8717 59.652 77.8235 59.2722C77.8173 59.1645 77.7917 59.0592 77.765 58.9561C77.5494 59.448 77.5103 59.9837 77.456 60.5067C77.4035 61.1673 77.1935 61.8504 76.7168 62.3469C76.4374 62.6053 76.0963 62.7839 75.7222 62.8694C75.5223 62.8844 75.3227 62.9001 75.1227 62.9075C74.6742 62.8446 74.3694 62.4722 74.2788 62.0575C74.2031 61.5499 74.3945 61.0545 74.7045 60.6472C74.3634 60.7434 74.1286 61.0179 73.9251 61.2857C73.7479 61.0369 73.5212 60.8304 73.3093 60.6109C73.5077 61.2859 73.8125 61.9468 73.8273 62.6628C73.8307 63.279 73.3799 63.7862 72.9133 64.1556C72.6076 64.3948 72.2495 64.5879 71.8591 64.637C71.4394 64.656 71.0646 64.4334 70.7723 64.1639C70.7399 64.1298 70.6743 64.0617 70.6419 64.0276C70.1829 63.4764 69.8351 62.8392 69.5933 62.1691C69.5722 62.1945 69.529 62.2448 69.5071 62.2705C69.5295 62.4069 69.5512 62.5436 69.5603 62.6821C69.6598 63.0568 69.7252 63.44 69.8512 63.8072C69.3661 63.7082 68.8354 63.6029 68.3701 63.8533C68.8918 63.9833 69.4695 64.0163 69.9103 64.3454C70.2172 64.6012 70.4856 64.9005 70.8132 65.1344C70.916 65.2255 71.066 65.2821 71.1195 65.4162C70.7057 66.0229 70.1593 66.5851 69.4542 66.8602C69.1022 67.0006 68.7159 67.0036 68.3475 66.9522C67.9408 67.2259 67.4799 67.4713 66.9759 67.4743C66.5514 67.4769 66.1662 67.2099 65.9684 66.855C65.6722 66.3087 65.4695 65.7194 65.2204 65.1515C64.9289 64.443 64.7134 63.6822 64.7597 62.9061C64.4751 63.2023 64.4451 63.6336 64.367 64.0112C64.0382 63.7313 63.701 63.4424 63.2802 63.3003C63.1861 63.2439 63.0796 63.2881 62.9821 63.3076C63.0146 63.322 63.0801 63.3497 63.1134 63.3638C63.9614 64.233 64.6809 65.239 65.109 66.3745C65.4131 67.0356 65.6594 67.869 65.2272 68.544C64.8172 69.1468 64.0631 69.5963 63.313 69.4784C62.5967 69.3608 62.052 68.85 61.5338 68.3968C61.1863 68.1012 60.9126 67.7291 60.5447 67.4586C60.6329 67.8991 60.9387 68.2393 61.2083 68.5846C60.9182 68.4569 60.6 68.4197 60.2852 68.3925C59.9627 68.3758 59.6477 68.4731 59.3703 68.6346C60.0212 68.6369 60.649 68.837 61.2484 69.0617C62.026 69.3854 62.8278 69.7676 63.3514 70.4369C63.6062 70.7453 63.6719 71.2048 63.4475 71.5538C62.9952 72.2547 62.3129 72.8825 61.4489 73.0157C60.5418 73.1323 59.6883 72.7236 58.9093 72.3359C59.0432 72.605 59.2512 72.8285 59.4829 73.0213C58.2897 73.159 57.1523 72.4649 56.509 71.5318C56.2361 71.0641 56.0156 70.5145 56.1209 69.9634C56.2602 68.9847 56.9221 68.0782 57.8425 67.6513C57.668 68.4851 58.0275 69.3209 58.5198 69.9789C58.8113 70.3062 58.7794 70.7947 58.6327 71.1835C58.5314 71.4705 58.2537 71.6536 58.1432 71.9344C58.6955 71.8003 59.0459 71.3068 59.166 70.7899C59.4875 71.1848 59.9562 71.4578 60.4645 71.5547C60.4912 71.5427 60.5439 71.5191 60.5707 71.5072C60.5399 71.5051 60.4767 71.5015 60.4459 71.4994C59.6831 70.7815 58.8701 70.0418 58.489 69.047C58.2836 68.5479 58.2276 67.963 58.4573 67.4559C58.7144 66.8988 59.1597 66.4013 59.743 66.1593C60.4259 65.8714 61.2163 65.9657 61.8694 66.26C62.0075 66.3078 62.1377 66.4288 62.296 66.3433C62.1238 65.8455 62.0904 65.3146 61.9025 64.8223C61.8299 65.143 61.784 65.469 61.7713 65.7963C61.5619 65.6944 61.3376 65.6253 61.1134 65.5612C61.2245 64.5152 61.4882 63.4252 62.1999 62.5949C62.6437 62.0729 63.2918 61.749 63.9599 61.6096C64.4414 61.5278 64.9568 61.6548 65.3185 61.973C65.5693 62.1926 65.7067 62.5017 65.8767 62.7805C65.9406 62.8714 66.0025 62.964 66.0638 63.0575C66.268 63.3329 66.4722 63.6083 66.6974 63.8678C66.7731 63.9469 66.8482 64.0271 66.9218 64.1078C66.8726 64.4445 67.0699 64.7506 67.1715 65.0585L67.3155 64.9978C67.2346 64.2121 67.3602 63.4126 67.5993 62.6566C67.6984 62.3335 67.8643 62.0341 67.9605 61.7103C67.393 62.1072 67.1934 62.8099 67.0108 63.4301C66.9888 63.4456 66.9438 63.4759 66.9216 63.4906C66.8254 63.3285 66.7175 63.173 66.6025 63.0227C66.5216 62.9085 66.4589 62.7836 66.3934 62.6606C66.103 62.1509 65.897 61.5773 65.8052 60.999C65.7911 60.9112 65.7769 60.8234 65.7619 60.736C65.7631 60.5638 65.7611 60.3928 65.7563 60.2211C65.8646 59.0695 66.4285 57.9655 67.2576 57.137C67.538 56.8663 67.8536 56.6227 68.2203 56.4764C68.2048 56.45 68.1733 56.3984 68.1578 56.372C67.9673 56.4336 67.7767 56.4977 67.5937 56.578C67.3485 56.7403 67.0846 56.8773 66.8692 57.0789C66.7782 57.1494 66.6861 57.2168 66.5914 57.2817C66.2905 56.7199 66.263 55.9852 66.6881 55.4629ZM85.3086 57.4595C85.2678 59.3541 85.1737 61.2931 84.5175 63.1052C84.6672 63.0107 84.7951 62.8869 84.8807 62.7333C85.2266 62.1495 85.4643 61.5125 85.6518 60.8682C86.4851 60.8384 87.3197 60.87 88.1433 60.9784C87.9929 60.7477 87.7189 60.653 87.4676 60.5649C86.9464 60.3962 86.4094 60.2707 85.864 60.2015C85.9498 59.2416 85.8381 58.2607 85.4177 57.3878L85.3086 57.4595ZM73.8282 65.8659C74.4109 66.5523 74.7863 67.453 74.6729 68.3624C74.6177 68.8574 74.3481 69.3167 73.9584 69.6385C73.3325 70.1607 72.5442 70.4331 71.7921 70.7256C71.4131 70.8797 70.9774 70.9635 70.5866 70.8135C70.0299 70.622 69.7167 70.0928 69.4516 69.6146C69.4068 70.2897 69.8032 70.9769 70.4497 71.2323C70.0718 71.6505 69.6543 72.0439 69.1673 72.338L69.1324 72.3845C68.5327 72.7353 67.8472 73.0284 67.1383 72.952C66.3775 72.8439 65.7302 72.418 65.0749 72.0626C65.1207 72.2097 65.1714 72.3559 65.2237 72.5016L65.2524 72.4478C65.3956 72.7506 65.6962 72.9158 65.9784 73.0763C65.9444 73.0728 65.8775 73.0661 65.8435 73.0626C65.1908 73.1528 64.4706 73.3001 64.0226 73.8201C64.9426 73.6226 65.9661 73.3021 66.8565 73.7375C66.9629 73.8007 67.1678 73.8475 67.1296 74.0076C67.0122 74.5845 66.9173 75.1655 66.8141 75.7451C66.7698 76.0809 66.7967 76.4201 66.8776 76.7472C66.9037 76.7235 66.956 76.676 66.9821 76.6522C67.1273 76.0613 67.3346 75.4857 67.5189 74.9052C67.6763 74.4062 67.9135 73.9205 68.2834 73.5351C68.4201 73.3963 68.5771 73.2795 68.7313 73.1603C69.2079 72.9669 69.6961 72.7161 70.2218 72.727C70.6959 72.7423 71.0187 73.1256 71.4414 73.2781C71.3363 72.9878 71.1742 72.714 71.1255 72.4056C71.1072 71.9552 71.4947 71.6196 71.8544 71.3984C72.9037 70.8027 74.0521 70.4076 75.2005 70.0478C75.5175 70.4048 75.8642 70.9334 76.4126 70.896C76.0492 70.5981 75.6491 70.2539 75.5648 69.7717C75.5785 69.3694 75.9597 69.1063 76.2781 68.9108C76.836 68.5996 77.4341 68.3568 78.0462 68.1717C78.9247 67.9467 79.8333 68.3233 80.4578 68.91C80.4109 68.559 80.1678 68.2937 79.9519 68.0302C80.686 67.6668 81.4885 67.3318 82.3233 67.3865C83.054 67.457 83.6163 68.0003 83.9509 68.6001C83.9649 68.5995 83.9936 68.5981 84.0083 68.5972C84.0392 67.9931 83.5368 67.537 83.386 66.9793C83.258 66.5287 83.4726 66.0492 83.8121 65.7355C84.3875 65.2104 85.1588 64.9903 85.8837 64.746C85.2208 64.5719 84.5515 64.8482 83.9433 65.0946C84.1734 64.7092 84.3974 64.3037 84.4328 63.8526C84.4176 63.8072 84.3863 63.716 84.3712 63.6707C83.5987 64.8074 82.8392 66.0237 81.6349 66.7766C81.1487 67.0755 80.5588 67.4168 79.9738 67.2377C79.6953 67.1704 79.583 66.8371 79.6875 66.5918C79.8179 66.262 79.9265 65.8857 79.7406 65.5567C79.6487 65.8627 79.5368 66.1672 79.3437 66.4297C78.7866 67.2446 77.8417 67.6749 76.9406 68.0212C76.5081 68.1691 76.082 68.3878 75.6173 68.3968C75.3588 68.3962 75.1633 68.183 75.1205 67.9465C74.943 67.2153 75.2288 66.4764 75.5232 65.8067C75.5445 65.7795 75.5864 65.7253 75.6075 65.6973C75.1231 65.866 74.8687 66.3406 74.7365 66.793C74.5732 66.3856 74.2973 65.9645 73.8282 65.8659Z" fill="#A79CEE"/>
<path d="M62.331 57.3347C63.0097 56.7065 63.8527 56.268 64.727 55.9663C65.1469 55.8176 65.5976 55.6736 66.044 55.7681C66.0019 55.9872 65.9685 56.2084 65.9504 56.4302C65.3594 56.4447 64.7915 56.6452 64.2456 56.8577C63.7912 57.0589 63.329 57.3005 63.021 57.6985C63.96 57.2814 64.9304 56.8559 65.9706 56.7958C66.0571 57.0609 66.1889 57.3066 66.31 57.557C65.9514 58.0723 65.6205 58.6183 65.4332 59.2154C65.0365 58.8983 64.5365 58.7547 64.0524 58.6185C63.3486 58.1806 62.4484 57.9831 61.6324 58.2575C61.7635 57.8896 62.0588 57.6085 62.331 57.3347Z" fill="#A79CEE"/>
<path d="M73.7915 53.0958C74.1485 52.9545 74.5334 52.9451 74.9107 52.9238C74.7768 53.0557 74.6562 53.2052 74.4973 53.3089C74.254 53.2661 74.0302 53.1556 73.7915 53.0958Z" fill="#A79CEE"/>
<path d="M59.2554 59.6359C59.8409 58.8814 60.5782 58.2164 61.4521 57.7955C61.3523 58.0013 61.2802 58.2205 61.1653 58.4187C60.8915 58.6004 60.621 58.7861 60.377 59.0046C60.1556 59.2169 59.9446 59.441 59.7879 59.7036C59.5986 59.7639 59.4086 59.8218 59.218 59.8808C59.1994 59.7954 59.1699 59.7018 59.2554 59.6359Z" fill="#A79CEE"/>
<path d="M60.6602 59.2565C61.0621 58.8539 61.582 58.5475 62.1592 58.4914C62.5493 58.4691 62.941 58.5389 63.2978 58.6879C63.3897 58.715 63.4537 58.781 63.4986 58.8606C63.4661 58.8463 63.4 58.817 63.3667 58.8029C62.9982 58.9216 62.5653 58.9855 62.2906 59.2774L62.3026 59.4166C62.5449 59.3387 62.7846 59.2436 63.0391 59.2155C63.3524 59.1608 63.6703 59.1268 63.9874 59.1557C64.3788 59.187 64.8069 59.2922 65.0609 59.6034C65.2775 59.944 65.2563 60.3602 65.2438 60.7483C65.2851 60.9382 65.3291 61.128 65.3405 61.3232C65.183 61.3655 65.0481 61.2641 64.9028 61.2308C64.1403 61.0075 63.3088 61.2101 62.6202 61.5798C61.8176 62.0325 61.2907 62.8651 61.101 63.7335C60.7654 63.3916 60.3991 63.0579 60.2212 62.6041C59.9043 61.9165 60.1584 61.0325 60.7831 60.5795C61.1688 60.3217 61.6419 60.3364 62.0763 60.4094C62.2181 60.716 62.3796 61.0133 62.5432 61.3089C62.5675 60.9844 62.5142 60.6579 62.5799 60.3353C62.6221 60.0389 62.7675 59.769 62.8279 59.4766C62.6116 59.6957 62.3884 59.9103 62.2155 60.1649C61.9743 60.0853 61.7286 60.0056 61.4703 59.9981C61.3785 60.0036 61.2872 60.0081 61.1962 60.0108C60.8866 60.0659 60.6142 60.2213 60.3801 60.4252C60.2302 60.5893 60.001 60.5064 59.8079 60.5181C60.0299 60.0618 60.3057 59.6278 60.6602 59.2565Z" fill="#A79CEE"/>
<path d="M57.7949 61.1948C58.2901 60.7433 58.8675 60.3695 59.5296 60.2081C59.4911 60.2946 59.4152 60.4679 59.377 60.5552C58.6794 60.8792 58.0196 61.3153 57.5479 61.9234C57.2757 62.2548 57.0926 62.6409 56.9119 63.0235C56.6664 63.1249 56.429 63.2441 56.191 63.3617C56.617 62.5713 57.1309 61.817 57.7949 61.1948Z" fill="#A79CEE"/>
<path d="M79.7139 53.3188C79.8189 53.2932 79.9263 53.2668 80.0361 53.2696C80.1227 53.2719 80.2096 53.2724 80.2972 53.2726C81.65 53.3014 82.98 53.777 84.0383 54.5828C83.4069 54.6055 82.6993 54.7209 82.2513 55.2057C82.2571 54.9315 82.1763 54.6524 81.9689 54.4606C81.5472 54.0552 80.9541 53.8833 80.3849 53.7691C80.1506 53.7369 80.011 53.5342 79.8448 53.3941C79.8117 53.3756 79.7461 53.3376 79.7139 53.3188Z" fill="#A79CEE"/>
<path d="M59.1518 61.0767C59.4206 60.9311 59.7221 60.8505 60.027 60.845C59.7755 61.2301 59.6719 61.7009 59.7652 62.1456C59.8147 62.5292 60.0236 62.8605 60.1908 63.2012C59.9496 63.0392 59.6643 62.9751 59.3899 62.8891C59.2089 62.5318 59.1685 62.1192 59.0984 61.7299C58.9246 62.0972 58.9497 62.5014 58.9753 62.89C58.6685 62.9905 58.3237 63.0837 58.1244 63.3561C58.7046 63.2054 59.3499 63.177 59.8913 63.4503C60.2297 63.6272 60.5807 63.8701 60.6863 64.2521C60.7843 64.6549 60.6446 65.0712 60.4608 65.4352C59.8873 65.5493 59.3267 65.7429 58.8226 66.0412C58.3629 66.2949 57.8363 66.0911 57.3868 65.9376C57.5612 66.3239 57.956 66.5781 58.3779 66.6408C58.0755 67.0394 57.5759 67.1576 57.1664 67.4108C56.6732 66.0483 56.6364 64.4753 57.2925 63.139C57.7005 62.3076 58.3113 61.5271 59.1518 61.0767Z" fill="#A79CEE"/>
<path d="M54.6664 66.184C54.9611 65.0291 55.7549 64.0077 56.8133 63.4105C56.6097 63.9137 56.5624 64.454 56.4342 64.9754C56.1319 65.0837 55.8509 65.2396 55.5884 65.4208C55.5167 65.4708 55.4453 65.519 55.3728 65.5667C55.2597 65.6647 55.1457 65.7629 55.0329 65.8617C54.9194 65.9761 54.804 66.0903 54.7154 66.2252C54.7037 66.2147 54.6788 66.1942 54.6664 66.184Z" fill="#A79CEE"/>
<path d="M56.0462 65.5014C56.1727 65.4288 56.2904 65.3438 56.4004 65.2495C56.4285 66.076 56.5279 66.9092 56.8519 67.6767C56.3158 68.2756 55.878 68.9775 55.7139 69.7604C55.5365 69.6336 55.3569 69.5059 55.2199 69.3357C54.8023 68.8465 54.6133 68.1855 54.6813 67.5486C54.7757 66.7034 55.3637 65.9961 56.0462 65.5014Z" fill="#A79CEE"/>
<path d="M86.8701 56.2632C87.3419 56.3368 87.7339 56.628 88.0932 56.9144C88.3154 57.1156 88.5746 57.2962 88.7149 57.5682L88.8605 57.5799C88.6583 57.6937 88.4178 57.4859 88.1927 57.5123C88.032 57.5153 87.8712 57.521 87.7126 57.5378C87.4672 57.0905 87.1705 56.6758 86.8701 56.2632Z" fill="#A79CEE"/>
<path d="M54.3597 69.1282C54.5879 69.3514 54.8213 69.584 54.9912 69.8525C54.9172 70.0638 54.806 70.2599 54.6989 70.4579C54.4797 70.0496 54.3374 69.5962 54.3597 69.1282Z" fill="#A79CEE"/>
<path d="M88.0842 57.9605C88.9089 58.0968 89.7073 58.4596 90.2892 59.0484C90.393 59.1495 90.4921 59.2547 90.5875 59.3647C91.0734 59.9897 91.3896 60.7505 91.4466 61.5411C91.484 62.226 91.3033 62.9195 90.9602 63.5212C91.5056 63.217 91.6852 62.548 91.7694 61.9845C91.7962 61.9803 91.8514 61.9712 91.879 61.9667C92.1817 62.4086 92.3742 62.9113 92.4962 63.4301C92.4992 63.5664 92.5175 63.7008 92.5376 63.8355C92.2534 64.1255 91.9514 64.4502 91.5297 64.5283C91.2105 64.5962 90.8893 64.5283 90.5761 64.4705C90.195 63.9393 89.6892 63.4836 89.0753 63.2228C88.9757 62.5896 89.1527 61.9482 89.3679 61.3499C89.5486 60.8394 89.6354 60.2732 89.4662 59.7538C89.2401 59.0155 88.6822 58.4346 88.0842 57.9605Z" fill="#A79CEE"/>
<path d="M55.1239 70.6345C55.1734 70.4464 55.2237 70.2381 55.3999 70.1207C55.6534 70.2603 55.6241 70.5582 55.6914 70.7965C55.8617 71.3843 56.1498 71.9351 56.5274 72.4186C57.0134 72.9938 57.7257 73.3678 58.4901 73.4488C58.6412 73.4432 58.7915 73.4481 58.9421 73.4564C59.2827 73.4341 59.6188 73.3715 59.9538 73.3057C60.0363 73.2786 60.1057 73.3401 60.1768 73.3685C59.3619 73.8289 58.3919 74.098 57.4587 73.9472C56.6306 73.8112 55.9413 73.254 55.5112 72.5716C55.1306 72.0145 54.944 71.3002 55.1239 70.6345Z" fill="#A79CEE"/>
<path d="M91.9151 61.4526C91.808 61.0866 91.8426 60.6881 91.716 60.322C91.8222 60.4299 91.932 60.5332 92.045 60.6353C92.4598 61.0963 92.8072 61.6195 93.0342 62.1952C93.2 62.7527 93.2563 63.3358 93.2791 63.9168C93.1337 63.7753 92.8894 63.6745 92.8987 63.4403C92.8694 63.084 92.7184 62.7539 92.5777 62.4305C92.3869 62.0852 92.1727 61.754 91.9151 61.4526Z" fill="#A79CEE"/>
<path d="M57.4082 74.4229C57.4383 74.4329 57.4993 74.4528 57.5293 74.4629C57.7209 74.4619 57.9106 74.4754 58.1005 74.4948C58.3403 75.2171 59.101 75.6205 59.8409 75.6973C59.6339 75.489 59.3469 75.3825 59.1231 75.1947C58.8639 75.0064 58.6733 74.7494 58.485 74.4967C59.2332 74.3937 59.919 74.0489 60.5609 73.6697C61.156 73.9199 61.8165 74.0296 62.4634 73.9002C62.4502 73.928 62.422 73.9834 62.4088 74.0112C62.4138 74.1382 62.4998 74.2867 62.4129 74.4038C61.9134 74.868 61.2831 75.1496 60.6806 75.4575C61.2692 75.7194 61.8742 75.3634 62.3882 75.0882L62.4225 75.035C62.4875 75.0011 62.6182 74.933 62.6832 74.8991C62.7199 74.9455 62.7918 75.0388 62.8277 75.0855C62.8536 75.1237 62.904 75.2013 62.9293 75.2405C63.2227 75.5732 63.5219 75.9097 63.9004 76.1551C63.092 76.3856 62.2368 76.3759 61.4069 76.3401C60.0681 76.2557 58.6125 75.928 57.7188 74.8894C57.596 74.7469 57.4847 74.5944 57.4082 74.4229Z" fill="#A79CEE"/>
<path d="M93.6367 64.2263C93.6305 63.8653 93.6171 63.5042 93.5499 63.1482C93.7809 63.6023 93.9445 64.0859 94.0936 64.5712C94.1984 64.878 94.17 65.2288 94.3739 65.4983C94.7173 66.2933 94.9334 67.1562 94.8892 68.0285C94.8274 67.9187 94.7668 67.8069 94.709 67.6958C94.5316 67.4788 94.3493 67.2481 94.0781 67.1387C94.0672 67.0601 94.0649 66.981 94.0706 66.9018C94.0796 66.8574 94.0986 66.7683 94.1085 66.7236C94.1088 66.6016 94.1138 66.4805 94.1196 66.3591C94.147 65.6146 93.8836 64.9134 93.6367 64.2263Z" fill="#A79CEE"/>
<path d="M93.9131 67.5818C93.9462 67.5754 94.0111 67.5638 94.0434 67.5577C94.4456 67.9905 94.7159 68.5484 94.7507 69.1407C94.7338 69.6669 94.4615 70.1383 94.1439 70.5516C94.0685 70.1702 93.8991 69.7727 93.4981 69.6289C93.5809 69.9364 93.7528 70.2403 93.6942 70.5708C93.6151 71.1008 93.2137 71.6001 92.6776 71.7526C92.3119 71.8943 91.9127 71.8383 91.5463 71.7476C91.7109 71.5096 91.5915 71.2364 91.4921 71.0024C92.2181 71.0823 92.9093 70.5948 93.1924 69.9557C93.4009 69.4688 93.522 68.9474 93.5742 68.426C93.5778 68.113 93.8063 67.8656 93.9131 67.5818Z" fill="#A79CEE"/>
<path d="M77.9844 75.9113C78.0949 75.8408 78.198 75.7369 78.3404 75.742C78.8773 75.7044 79.4034 75.5889 79.9297 75.4786C79.6542 75.9888 79.2047 76.4192 78.6634 76.6524C78.3543 76.5082 78.1885 76.1687 77.9844 75.9113Z" fill="#A79CEE"/>
<path d="M81.6597 74.7228C81.9127 74.575 82.1656 74.4272 82.4152 74.272C82.6817 75.4057 82.1665 76.6902 81.114 77.2895C80.9647 77.3649 80.814 77.4391 80.6758 77.5339C80.5895 77.5675 80.5029 77.6004 80.4174 77.6337C80.2077 77.6135 80.0033 77.5632 79.8102 77.4822C79.7929 77.4556 79.7588 77.4015 79.7422 77.3746C80.4869 77.114 81.1487 76.563 81.4459 75.8365C81.6077 75.4853 81.6405 75.0995 81.6597 74.7228Z" fill="#A79CEE"/>
<path d="M76.6293 76.6808C76.9121 76.5423 77.1864 76.3871 77.4539 76.2231C78.0217 77.0701 78.8095 77.841 79.8486 78.0912C79.9138 78.0881 79.9798 78.0848 80.0453 78.0824C79.9876 78.1044 79.8704 78.148 79.8116 78.1694C78.5533 78.366 77.2782 77.7176 76.6293 76.6808Z" fill="#A79CEE"/>
<path d="M80.3522 75.3451C80.6714 75.1793 81.0133 75.058 81.3348 74.8965C81.1793 75.8894 80.436 76.7205 79.5483 77.19C79.2783 77.3446 79.066 77.0463 78.8638 76.9196C79.5333 76.6037 80.2269 76.1102 80.3522 75.3451Z" fill="#A79CEE"/>
<path d="M82.7404 74.2928C83.0859 74.3119 83.4326 74.2918 83.778 74.2706C83.8315 75.1164 83.3179 75.9393 82.6465 76.4602C82.5539 76.5312 82.4621 76.6046 82.3752 76.6814C82.3363 76.6967 82.2582 76.7283 82.2196 76.7444C82.7728 76.0562 83.0365 75.1294 82.7404 74.2928Z" fill="#A79CEE"/>
<path d="M75.8974 77.2005C75.9759 77.137 76.1323 76.9913 76.209 77.1361C76.9295 77.9168 77.9138 78.5305 79.0148 78.6105C79.3889 78.6453 79.7607 78.5787 80.1284 78.5153C80.211 78.6065 80.3143 78.676 80.4232 78.7366C80.3495 78.9264 80.0896 78.9092 79.9219 78.9679C78.5881 79.3136 77.1804 78.7108 76.3126 77.7352C76.2072 77.6322 76.1099 77.522 76.0148 77.4102C75.9713 77.3447 75.8814 77.2903 75.8974 77.2005Z" fill="#A79CEE"/>
<path d="M84.3186 74.1968C85.0582 74.0393 85.7891 73.8246 86.4725 73.4979C86.6494 73.4102 86.8321 73.3291 87.0284 73.2939C87.7639 73.1472 88.5041 72.9766 89.2581 72.9977C90.0993 73.0107 90.9364 72.8336 91.7 72.4762C91.7565 72.5611 91.8162 72.645 91.8803 72.7265C91.9442 72.8372 92.0051 72.9498 92.0619 73.0656L92.0885 73.0082C92.1311 73.1289 92.1737 73.2497 92.2171 73.3701C91.6704 73.2069 91.0875 73.2194 90.5188 73.2244C88.9207 73.2875 87.3356 73.6328 85.8318 74.1789C85.3146 74.3522 84.8191 74.5823 84.3029 74.7561C84.3447 74.5714 84.3486 74.382 84.3186 74.1968Z" fill="#A79CEE"/>
<path d="M84.2881 75.1871C85.4417 74.664 86.6368 74.226 87.8754 73.9487C88.0703 73.9269 88.2599 73.8752 88.4522 73.8336C88.734 73.7976 89.0133 73.742 89.2957 73.7127C89.4077 73.6992 89.5208 73.6837 89.6338 73.6682C89.9256 73.6579 90.2157 73.6302 90.508 73.6241C90.6186 73.6266 90.7291 73.6265 90.8415 73.6267C90.9941 73.6231 91.1474 73.6287 91.3014 73.6392C91.6233 73.6364 91.9395 73.7129 92.2621 73.7047C92.3723 73.9117 92.3964 74.1454 92.3905 74.3767C91.9801 74.2817 91.5609 74.224 91.1389 74.2086C90.7021 74.1915 90.2634 74.1991 89.8268 74.2351C89.6882 74.2433 89.5491 74.2576 89.4115 74.2663C89.1549 74.2986 88.8994 74.3416 88.6428 74.3713C88.3073 74.4381 87.9679 74.4813 87.6394 74.5783C86.3957 74.8135 85.2029 75.2679 84.0153 75.6999C84.1039 75.5272 84.1916 75.3549 84.2881 75.1871Z" fill="#A79CEE"/>
<path d="M84.2714 76.057C84.6295 75.8836 85.0124 75.7633 85.398 75.6653C85.6155 75.6476 85.8238 75.5712 86.0419 75.555C86.1568 75.5422 86.2714 75.5287 86.3879 75.518C86.5002 75.5053 86.613 75.4916 86.7271 75.4843C86.9395 75.4846 87.1527 75.4822 87.3659 75.4848C88.3888 75.5037 89.3952 75.6838 90.4131 75.7585C91.0558 75.8101 91.6916 75.6571 92.3307 75.6257C92.2403 75.8935 92.113 76.2094 91.7771 76.2376C90.7132 76.4383 89.6283 76.2616 88.5857 76.0616C87.9125 75.9735 87.229 75.9766 86.5505 75.9763C86.0891 75.9746 85.6281 76.0141 85.1674 76.007C84.869 76.0385 84.5698 76.0428 84.2714 76.057Z" fill="#A79CEE"/>
<path d="M83.4832 76.4264C83.6269 76.2825 83.8407 76.3493 84.0177 76.3621C84.165 76.356 84.3119 76.3638 84.4597 76.3765C84.6102 76.3719 84.7603 76.3786 84.9107 76.3887C85.0599 76.388 85.2086 76.3934 85.3587 76.4027C85.8049 76.4114 86.2515 76.4311 86.6992 76.4418C87.3262 76.449 87.9545 76.4524 88.5821 76.4388C89.6564 76.6458 90.7927 76.7804 91.8721 76.4858C91.5938 76.84 91.1474 77.0237 90.7087 77.0888C90.0169 77.1962 89.3329 77.0148 88.6471 76.9689C88.0755 76.9106 87.5056 77.0199 86.9361 77.0604C85.6426 77.1671 84.3222 77.2274 83.0546 76.9413C83.0396 76.9165 83.01 76.8676 82.9953 76.8435C83.1772 76.7275 83.3257 76.5716 83.4832 76.4264Z" fill="#A79CEE"/>
<path d="M87.4598 75.1016C87.6174 75.0369 87.7809 74.9737 87.9536 74.9794C88.3438 74.8797 88.7463 74.8496 89.1426 74.7873C89.4833 74.7626 89.8219 74.717 90.1637 74.7159C90.879 74.6724 91.5965 74.7132 92.3078 74.7837C92.3574 74.9621 92.335 75.1442 92.2631 75.3162C91.4867 75.472 90.686 75.4664 89.9106 75.3419C89.3414 75.2604 88.7699 75.1822 88.1954 75.1532C87.9499 75.1318 87.7045 75.1232 87.4598 75.1016Z" fill="#A79CEE"/>
<path d="M82.284 77.3626C82.3787 77.3029 82.4974 77.2631 82.5539 77.16C84.3003 77.7053 86.2095 77.7669 88.0037 77.3295C88.2149 77.2839 88.4202 77.3795 88.627 77.4067C88.9719 77.4792 89.3266 77.4666 89.6769 77.4994C88.9899 77.8034 88.2416 77.9211 87.5034 78.0223C85.7602 78.253 83.9727 78.0526 82.3353 77.4606C82.3222 77.436 82.2971 77.3873 82.284 77.3626Z" fill="#A79CEE"/>
<path d="M81.4652 77.8181C81.6233 77.7498 81.7799 77.6796 81.9369 77.6083C83.3699 78.3681 85.0616 78.5478 86.6812 78.4454C87.8533 78.3632 89.0135 78.122 90.1341 77.7658C90.1943 78.0092 89.8504 77.9948 89.7293 78.1402C89.3911 78.2921 89.0381 78.4122 88.6799 78.5075C88.4585 78.5317 88.2453 78.5969 88.0283 78.6437C87.6928 78.6727 87.3653 78.7624 87.0317 78.8019C85.1304 79.1213 83.0779 78.8592 81.4652 77.8181Z" fill="#A79CEE"/>
<path d="M80.5608 78.201C80.7653 78.114 80.975 78.0415 81.1847 77.9664C82.7598 79.1992 84.9257 79.4895 86.8966 79.1869C87.1163 79.2156 87.3966 78.9596 87.5402 79.1986C86.5909 79.5111 85.585 79.6709 84.5862 79.6452C83.1918 79.6164 81.7575 79.2212 80.7088 78.3072C80.672 78.2806 80.5976 78.2277 80.5608 78.201Z" fill="#A79CEE"/>
<path d="M79.5176 79.5466C79.9609 79.4971 80.3888 79.3688 80.7958 79.1886C81.1996 79.3881 81.5975 79.5983 82.0084 79.785C82.2603 80.5065 82.6953 81.1828 83.3478 81.6155C83.738 82.1272 84.062 82.6895 84.4378 83.2131C84.6206 83.5131 84.8774 83.7744 84.9926 84.111C84.8029 84.18 84.6169 84.2795 84.4136 84.2948C84.2204 84.2637 84.0528 84.1498 83.936 84.0017C83.3778 83.3222 82.7854 82.671 82.1689 82.0419C81.2937 81.2011 80.2457 80.5273 79.5176 79.5466Z" fill="#A79CEE"/>
<path d="M83.6635 81.394C83.1157 81.0499 82.6242 80.5342 82.5021 79.8875C82.9122 80.0221 83.3464 80.0694 83.773 80.1356C83.8671 80.1464 83.9614 80.1581 84.056 80.1705C84.2329 80.6417 84.3056 81.1409 84.2851 81.6443C84.5432 82.0271 84.8844 82.3498 85.1759 82.7097C85.3526 82.9398 85.6029 83.1252 85.6893 83.4127C85.645 83.5303 85.5892 83.6452 85.5029 83.7415C85.4464 83.7896 85.3971 83.8429 85.3537 83.9028C85.2792 83.8722 85.2159 83.8231 85.1805 83.7504C84.6722 82.9667 84.1825 82.1705 83.6635 81.394Z" fill="#A79CEE"/>
<path d="M68.4979 53.9081C68.9125 53.4212 69.5146 53.1349 70.14 53.0173C70.4738 52.9932 70.8124 53.0001 71.1334 53.0929C71.6047 52.8894 72.0967 52.712 72.6147 52.6913C72.8895 52.6578 73.188 52.7645 73.4372 52.5983C73.9987 52.2996 74.7145 52.1049 75.3058 52.4096C76.1782 51.9317 77.2393 51.8608 78.1746 52.1525C78.6333 52.2719 79.051 52.4957 79.4609 52.7223C79.7112 52.6373 79.9737 52.6115 80.2345 52.5786C80.4745 52.5745 80.7145 52.5703 80.9551 52.5729C82.4246 52.6492 83.8825 53.244 84.8612 54.3207C85.0831 54.6036 85.4782 54.6353 85.7647 54.833C86.067 54.9753 86.2452 55.3174 86.5989 55.355C88.0017 55.6608 89.2079 56.5849 89.9198 57.7902C90.6588 58.0948 91.2271 58.6926 91.6422 59.3475C91.8785 59.6212 92.1944 59.8171 92.449 60.0749C93.7205 61.3367 94.6392 62.935 95.0655 64.6644C95.1227 64.8942 95.1419 65.1391 95.2705 65.3456C95.8855 66.4492 95.9716 67.7808 95.6756 69.0023C95.5988 69.2833 95.6157 69.577 95.5473 69.8594C95.4277 70.3675 95.125 70.8332 94.7125 71.1656C94.5428 71.2911 94.4927 71.5001 94.3839 71.6678C94.0314 72.248 93.4127 72.7281 92.7008 72.7283C92.9664 73.4132 93.1127 74.1562 93.03 74.8943C93.0069 75.142 92.9073 75.3812 92.9234 75.6323C92.9392 76.2836 92.5631 76.902 92.0406 77.2961C91.6544 77.6554 91.0687 77.7376 90.7499 78.1703C90.6447 78.2706 90.5369 78.3685 90.4234 78.4606C90.3329 78.53 90.2422 78.5987 90.1544 78.6706C89.2016 79.3244 88.0968 79.7274 86.9672 79.9553C86.1986 80.093 85.4207 80.1669 84.6412 80.1813C84.7372 80.6113 84.7847 81.0566 84.745 81.4981C85.0771 81.8953 85.4194 82.2838 85.7448 82.6868C85.9332 82.9651 86.1749 83.2188 86.2459 83.558C86.1952 83.7526 86.1022 83.9354 85.9444 84.0696C85.8547 84.1362 85.7663 84.2041 85.6785 84.2735C85.5816 84.3323 85.485 84.3918 85.3908 84.4532C85.2937 84.5163 85.1976 84.58 85.1061 84.649C84.8136 84.7977 84.4727 84.9419 84.1494 84.8104C83.5733 84.5887 83.2954 84.0043 82.8823 83.5933C82.6485 83.3618 82.4241 83.1218 82.1962 82.8847C81.5264 82.2322 80.8466 81.5892 80.1507 80.9631C79.7069 80.5577 79.3243 80.0975 78.9286 79.6504C77.7583 79.5097 76.6469 78.9894 75.8128 78.1849C75.6583 78.0252 75.4987 77.8664 75.3884 77.6715C75.2184 77.7086 75.0761 77.8091 74.9361 77.9062C74.1472 78.4476 73.289 78.8879 72.3944 79.2328C70.7124 79.8327 68.8344 79.8168 67.1669 79.2422C66.9276 79.1654 66.7028 79.0346 66.445 79.0235C65.6941 78.9635 64.9774 78.5919 64.5264 78.0053C64.2507 77.6828 64.1112 77.2775 63.987 76.8805C62.4788 77.3388 60.8617 77.2626 59.3514 76.918C58.6065 76.7545 57.9423 76.3336 57.4392 75.7825C57.2539 75.5657 57.0979 75.3293 56.9395 75.0936C56.8733 74.9536 56.8103 74.8126 56.7504 74.6704C55.7595 74.2685 54.8939 73.5 54.5398 72.494C54.3608 72.0269 54.3031 71.5225 54.3188 71.0233C53.7179 70.4008 53.547 69.4328 53.909 68.639C53.7554 68.0257 53.8264 67.3672 54.1129 66.7955C54.0041 65.9862 54.2552 65.1462 54.7457 64.4808C54.9935 64.133 55.2978 63.8273 55.6157 63.5401C55.6539 62.6784 56.1955 61.9325 56.7613 61.3026C56.9176 61.144 57.072 60.9826 57.2405 60.8361C57.5871 60.5147 57.9599 60.2202 58.3452 59.9437C58.4872 59.554 58.7327 59.2096 59.0053 58.8944C59.7191 58.12 60.6125 57.5162 61.5715 57.0707C61.7644 56.9731 61.913 56.8129 62.0849 56.6858C62.8801 56.0744 63.7833 55.6114 64.7137 55.2351C65.1496 55.0516 65.6526 55.031 66.0858 55.2159C66.6445 54.4683 67.52 53.8614 68.4979 53.9081ZM68.9954 54.1899C69.4149 54.286 69.8331 54.4084 70.1871 54.6545C70.2218 54.3041 70.3595 53.9751 70.5351 53.6681C69.9721 53.6291 69.454 53.8928 68.9954 54.1899ZM66.6772 55.4683C66.2522 55.9905 66.2797 56.7253 66.5806 57.2871C66.6753 57.2222 66.7674 57.1548 66.8584 57.0843C67.0738 56.8827 67.3377 56.7457 67.5829 56.5834C67.7659 56.5031 67.9565 56.4389 68.147 56.3774C68.1625 56.4038 68.194 56.4554 68.2095 56.4818C67.8428 56.6281 67.5272 56.8717 67.2468 57.1424C66.4177 57.9709 65.8538 59.0749 65.7454 60.2265C65.7503 60.3982 65.7523 60.5692 65.7511 60.7414C65.7661 60.8288 65.7803 60.9166 65.7944 61.0044C65.8862 61.5827 66.0922 62.1563 66.3826 62.666C66.4481 62.789 66.5108 62.9139 66.5917 63.0281C66.7067 63.1784 66.8146 63.3339 66.9108 63.496C66.933 63.4813 66.978 63.451 67 63.4355C67.1826 62.8152 67.3822 62.1126 67.9497 61.7157C67.8535 62.0395 67.6876 62.3389 67.5885 62.662C67.3494 63.418 67.2238 64.2175 67.3047 65.0032L67.1607 65.0639C67.0591 64.756 66.8617 64.4498 66.911 64.1132C66.8374 64.0325 66.7622 63.9523 66.6866 63.8732C66.4614 63.6137 66.2572 63.3383 66.053 63.0629C65.9917 62.9694 65.9298 62.8768 65.8659 62.7859C65.6959 62.5071 65.5585 62.198 65.3076 61.9784C64.9459 61.6602 64.4306 61.5332 63.9491 61.615C63.281 61.7544 62.6329 62.0783 62.1891 62.6003C61.4774 63.4306 61.2137 64.5206 61.1026 65.5666C61.3268 65.6307 61.5511 65.6998 61.7604 65.8017C61.7732 65.4744 61.8191 65.1484 61.8917 64.8277C62.0796 65.32 62.113 65.8509 62.2852 66.3487C62.1269 66.4342 61.9967 66.3132 61.8586 66.2653C61.2055 65.9711 60.4151 65.8768 59.7322 66.1647C59.1489 66.4067 58.7036 66.9042 58.4465 67.4613C58.2168 67.9684 58.2728 68.5533 58.4782 69.0524C58.8593 70.0472 59.6723 70.7869 60.435 71.5048C60.4659 71.5068 60.5291 71.5105 60.5599 71.5126C60.5331 71.5245 60.4804 71.5481 60.4537 71.5601C59.9454 71.4632 59.4767 71.1902 59.1552 70.7953C59.0351 71.3122 58.6847 71.8057 58.1324 71.9398C58.2429 71.659 58.5206 71.4759 58.6219 71.1889C58.7686 70.8001 58.8005 70.3116 58.509 69.9843C58.0167 69.3263 57.6572 68.4905 57.8317 67.6567C56.9113 68.0836 56.2494 68.9901 56.1101 69.9688C56.0048 70.5199 56.2253 71.0695 56.4982 71.5372C57.1415 72.4703 58.2789 73.1644 59.4721 73.0267C59.2404 72.8339 59.0324 72.6104 58.8985 72.3413C59.6775 72.729 60.531 73.1377 61.4381 73.0211C62.302 72.8879 62.9844 72.2601 63.4367 71.5592C63.6611 71.2102 63.5954 70.7507 63.3406 70.4423C62.817 69.773 62.0152 69.3908 61.2376 69.0671C60.6382 68.8424 60.0104 68.6423 59.3595 68.64C59.6369 68.4785 59.9519 68.3812 60.2744 68.3979C60.5892 68.4251 60.9074 68.4623 61.1975 68.59C60.9279 68.2447 60.6221 67.9044 60.5339 67.464C60.9018 67.7345 61.1755 68.1066 61.523 68.4022C62.0412 68.8554 62.5858 69.3662 63.3022 69.4838C64.0523 69.6017 64.8064 69.1522 65.2164 68.5494C65.6486 67.8744 65.4023 67.041 65.0982 66.3799C64.67 65.2444 63.9506 64.2384 63.1026 63.3692C63.0693 63.3551 63.0038 63.3274 62.9713 63.313C63.0688 63.2935 63.1753 63.2493 63.2694 63.3057C63.6902 63.4478 64.0274 63.7367 64.3562 64.0166C64.4343 63.6389 64.4643 63.2077 64.7489 62.9115C64.7026 63.6876 64.9181 64.4484 65.2096 65.1569C65.4587 65.7248 65.6614 66.3141 65.9576 66.8604C66.1554 67.2153 66.5406 67.4823 66.9651 67.4797C67.4691 67.4767 67.93 67.2313 68.3367 66.9576C68.7051 67.009 69.0914 67.006 69.4434 66.8656C70.1485 66.5905 70.6949 66.0283 71.1087 65.4216C71.0552 65.2875 70.9052 65.2309 70.8023 65.1398C70.4748 64.9059 70.2064 64.6066 69.8995 64.3508C69.4587 64.0217 68.881 63.9887 68.3593 63.8587C68.8246 63.6083 69.3553 63.7136 69.8404 63.8126C69.7144 63.4454 69.649 63.0622 69.5495 62.6875C69.5404 62.549 69.5187 62.4123 69.4963 62.2759C69.5181 62.2502 69.5614 62.1999 69.5825 62.1745C69.8243 62.8446 70.1721 63.4818 70.6311 64.033C70.6635 64.0671 70.7291 64.1352 70.7615 64.1693C71.0538 64.4388 71.4286 64.6614 71.8483 64.6424C72.2387 64.5933 72.5968 64.4002 72.9025 64.161C73.3691 63.7916 73.8199 63.2844 73.8165 62.6682C73.8017 61.9522 73.4968 61.2913 73.2985 60.6163C73.5103 60.8358 73.7371 61.0423 73.9143 61.2911C74.1178 61.0233 74.3526 60.7488 74.6937 60.6526C74.3837 61.0599 74.1923 61.5553 74.268 62.0629C74.3586 62.4776 74.6634 62.85 75.1119 62.9129C75.3119 62.9055 75.5115 62.8898 75.7114 62.8748C76.0854 62.7893 76.4266 62.6107 76.706 62.3523C77.1827 61.8558 77.3927 61.1727 77.4452 60.5121C77.4995 59.9891 77.5386 59.4534 77.7542 58.9615C77.7809 59.0646 77.8065 59.1699 77.8127 59.2776C77.8609 59.6574 77.8789 60.0417 77.9666 60.4155C78.3357 59.8123 78.7324 59.2047 79.2865 58.7446C79.4851 58.5703 79.7342 58.4694 79.9917 58.4119C79.9498 58.4661 79.9081 58.5184 79.8595 58.5663C79.2317 59.1458 78.7851 59.8851 78.4289 60.6452C78.2118 61.1153 78.1063 61.7137 78.4679 62.1367C78.8127 62.4598 79.3224 62.5081 79.7822 62.5077C79.7098 62.1321 79.7373 61.7464 79.8276 61.3731C79.9422 61.6704 80.0407 61.9794 80.2489 62.2285C80.5114 62.4964 80.8976 62.6282 81.2776 62.5897C82.1103 62.5206 82.8288 62.0553 83.5256 61.6389C83.2773 62.2461 82.717 62.686 82.1036 62.9127C82.3941 63.1494 82.8249 63.2948 82.8991 63.7058C82.7102 63.6492 82.5383 63.5531 82.3608 63.4735C81.4685 63.0904 80.4142 63.0954 79.5061 63.4621C79.6505 63.8263 79.7748 64.2009 79.8034 64.5953C79.7837 64.6623 79.7651 64.7298 79.7475 64.7978C79.6004 64.4062 79.3983 64.0339 79.1148 63.7218C78.5972 63.2075 77.7908 62.8098 77.0421 63.089C76.6162 63.208 76.2395 63.5064 76.0443 63.8959C75.882 64.333 75.8654 64.83 75.5535 65.207C75.5057 64.7807 75.453 64.2805 75.0584 64.0246C74.8253 63.8701 74.5329 63.9689 74.3017 64.0833C73.4641 64.5019 72.6846 65.04 72.0148 65.6883C71.6817 66.0101 71.5685 66.4764 71.5249 66.9141C71.4291 67.7856 71.6101 68.6469 71.7096 69.5051C71.3628 68.9662 71.1366 68.3653 70.9325 67.7619C70.4473 67.6776 69.9514 67.676 69.4587 67.6708C68.5853 67.6845 67.681 67.7589 66.8784 68.1386C65.5746 68.8001 64.61 70.0392 64.2435 71.4168C64.2029 71.5649 64.1933 71.7408 64.0494 71.8367C63.441 72.3407 62.9104 73.0528 62.9293 73.8583C62.9454 74.6632 63.4555 75.3519 64.041 75.8682C64.1563 75.5908 64.3308 75.3409 64.5607 75.1402C64.7179 75.0517 64.8766 74.9652 65.0415 74.8912C65.0175 74.9159 64.968 74.9659 64.9429 74.9901C64.7252 75.3883 64.4652 75.7918 64.4575 76.2564C64.3982 76.8902 64.8536 77.4314 65.3838 77.7284C65.9391 78.0913 66.6345 78.1519 67.2898 78.0942C67.9344 78.0034 68.5513 77.7866 69.1479 77.5297L69.0431 77.4007C68.5436 77.1179 67.9213 76.866 67.7361 76.2784C68.6012 76.8075 69.6037 77.092 70.6125 77.2361C70.6209 77.27 70.6373 77.3364 70.6455 77.3696C70.3554 77.4574 70.0557 77.5305 69.7517 77.5365C69.389 77.8119 69.0096 78.065 68.6229 78.3051C68.4423 78.3923 68.2587 78.4737 68.0768 78.5571C69.0645 78.8923 70.153 78.7887 71.1606 78.5511C72.6756 78.1625 74.0763 77.3846 75.2797 76.4062C74.7161 76.4257 74.0493 76.1628 73.8918 75.5912C74.5542 75.9792 75.3975 76.0756 76.1247 75.773C76.6142 75.5459 77.0683 75.2538 77.5268 74.9715C77.676 74.8729 77.856 74.8468 78.0309 74.8285C79.1989 74.6996 80.344 74.3177 81.3369 73.6877C81.4443 73.6638 81.4613 73.5214 81.3415 73.5152C81.0059 73.449 80.68 73.2625 80.573 72.9265C80.9522 73.0187 81.3406 73.0665 81.7261 73.1265C81.8236 73.1344 81.9213 73.1432 82.0206 73.1513C83.2911 73.2828 84.6325 73.2065 85.8106 72.6551C86.2914 72.4061 86.7485 72.0598 87.0182 71.5885C87.2345 71.2363 87.0718 70.7352 86.6917 70.5754C86.0159 70.2444 85.2181 70.2996 84.4857 70.4022C83.3679 70.6106 82.2494 70.9651 81.305 71.6099C81.4366 71.7021 81.5664 71.7992 81.6928 71.8992C81.733 72.0079 81.7734 72.1174 81.813 72.2272C81.3747 72.0655 80.9221 71.9157 80.4457 71.9141C79.3695 71.8924 78.2923 72.2333 77.3782 72.7911C76.8623 73.3366 76.2163 73.7542 75.5301 74.0656C75.6671 74.1455 75.8145 74.2073 75.9655 74.2592C75.9863 74.2931 76.0285 74.3625 76.0493 74.3964C75.0447 74.3668 74.0125 74.6148 73.1559 75.1498C72.9293 75.3425 72.7285 75.5604 72.5062 75.7576C72.4675 75.7832 72.3908 75.834 72.3521 75.8596C72.2409 75.9432 72.1244 76.0191 72.0117 76.0981C71.8185 76.1898 71.6317 76.2921 71.4494 76.4022C71.8212 76.631 72.3061 76.6115 72.733 76.706C72.7827 76.7066 72.8825 76.7086 72.9323 76.7092C72.7808 76.7914 72.6176 76.8477 72.45 76.8814C72.2689 76.8873 72.0872 76.9011 71.9067 76.9084C71.3068 76.8626 70.71 76.7254 70.1732 76.4625C69.9065 76.3258 69.6374 76.1323 69.5572 75.8324C69.913 76.2213 70.5251 76.2415 71.0025 76.0606C71.8237 75.8187 72.4989 75.2106 72.9142 74.4875C72.4432 74.3861 71.9316 74.2647 71.6042 73.8959C72.5594 74.1815 73.5928 74.1023 74.5542 73.8465C75.8636 73.5118 76.9857 72.6537 77.798 71.6096C78.0211 71.3246 78.1686 70.963 78.4896 70.7648C78.3979 70.966 78.4338 71.1982 78.3186 71.393C78.5733 71.4756 78.845 71.5788 79.1183 71.5063C79.4757 71.4113 79.8113 71.2518 80.1538 71.1147C80.4031 71.0241 80.6221 70.8401 80.7237 70.5967C80.8738 70.2901 80.7569 69.9515 80.7576 69.6327C81.0531 69.8658 81.1651 70.231 81.2342 70.5821C82.0034 70.5687 82.8113 70.3744 83.4063 69.8648C83.6802 69.6461 83.8071 69.3012 84.0986 69.0996C84.1782 69.3078 84.1933 69.6511 84.49 69.6623C85.3388 69.7619 86.2599 69.7778 87.0399 69.364C87.9683 68.9146 88.7885 68.2789 89.5505 67.5984C89.8001 67.3633 90.0627 67.1375 90.2757 66.8689C90.2865 66.9072 90.3093 66.9842 90.3204 67.0232C90.0332 67.8132 89.2672 68.2994 88.9286 69.0593C89.1305 69.278 89.3215 69.5185 89.3622 69.8219C88.9879 69.5932 88.5184 69.3883 88.0683 69.5338C87.7002 69.6412 87.501 70.0114 87.4162 70.3502C87.4985 70.6159 87.6927 70.8656 87.6507 71.1576C87.6024 71.6021 87.3054 71.9662 87.01 72.2894C87.6726 72.1494 88.3496 72.0953 89.0213 72.0113C89.5069 71.9435 90.0043 71.9772 90.4829 71.8595C90.6985 71.8115 90.8798 71.6759 91.0075 71.5016C91.0405 71.2367 90.8962 71.0108 90.7306 70.8172C90.4697 70.4912 90.107 70.2756 89.7517 70.0608C90.5076 69.9121 91.0415 70.7633 91.7972 70.5864C92.3695 70.4711 92.6666 69.912 92.8282 69.415C93.0568 68.6241 93.1589 67.7581 92.8851 66.9722C92.7156 66.3815 92.2696 65.9323 91.7945 65.5585C92.3915 65.5059 92.8219 66.0086 93.1088 66.4508C93.2867 66.8144 93.394 67.2062 93.5298 67.5862C93.5755 67.1993 93.6699 66.8177 93.6834 66.4274C93.6841 66.3164 93.6844 66.2047 93.6877 66.0937C93.6315 65.338 93.3954 64.5209 92.7696 64.0333C92.4749 64.7597 91.6332 65.2518 90.8496 65.0341C91.1701 65.887 91.5316 66.7358 91.6751 67.6412C91.7076 67.8788 91.7421 68.1269 91.667 68.3627C91.4784 67.8758 91.3343 67.3724 91.1179 66.8969C90.6613 65.7937 90.1564 64.6311 89.1908 63.8623C88.8144 63.618 88.3434 63.3733 87.877 63.5004C88.0726 64.6761 87.7822 65.9085 87.1339 66.9262C87.2652 67.5113 87.2554 68.1252 87.1025 68.7093C86.9638 68.2161 86.8847 67.7088 86.7608 67.2122C86.6258 67.4037 86.4646 67.576 86.3023 67.7453C85.953 68.0762 85.5429 68.3828 85.0454 68.4368C85.8635 67.7074 86.6233 66.8653 87.0279 65.8463C87.3712 64.9018 87.4475 63.8422 87.0997 62.8993C86.9939 62.5869 86.7937 62.3178 86.6771 62.0101C86.9582 62.0722 87.1592 62.2784 87.3477 62.4742C87.437 62.6044 87.5032 62.7469 87.5694 62.8895C87.6721 62.8346 87.7719 62.774 87.8682 62.7085C88.5716 62.1103 89.1459 61.2387 89.0832 60.3042C88.9945 59.4062 88.3219 58.7109 87.5977 58.2251C87.6278 58.6989 87.759 59.2162 87.5447 59.669C87.3156 58.5136 86.9609 57.343 86.2068 56.4092C85.7087 55.7472 85.0146 55.1462 84.138 55.0632C83.3656 55.0373 82.5676 55.5132 82.3434 56.2588C82.0894 57.0003 82.39 57.7717 82.7405 58.4192C82.7616 58.4264 82.8028 58.4403 82.8239 58.4475C83.1578 58.128 83.4744 57.7442 83.9492 57.6312C83.4019 58.4186 82.9733 59.2968 82.7978 60.2331C82.7657 60.3628 82.7992 60.5254 82.6586 60.6081C82.4944 60.2431 82.4103 59.8493 82.4516 59.4476C82.4625 59.4034 82.4849 59.314 82.4967 59.2695C82.5034 58.9503 82.3188 58.6526 82.1693 58.3795C82.1137 58.272 82.0606 58.1643 82.0068 58.0569C81.9275 57.9473 81.8531 57.8343 81.7779 57.7215C81.6919 57.6056 81.6022 57.4919 81.5094 57.3819C81.133 56.9693 80.6568 56.6174 80.09 56.5049C79.3865 56.3261 78.653 56.5511 78.0209 56.8702C77.6118 57.1344 77.2441 57.4684 76.9923 57.8828C76.771 58.2006 76.6472 58.5865 76.342 58.8445C76.4187 58.3376 76.541 57.8321 76.5053 57.3174C76.4693 57.0449 76.4432 56.7604 76.3032 56.5166C76.0816 55.9915 75.54 55.6521 74.9809 55.5465C74.9691 55.5231 74.9458 55.4772 74.9343 55.4546C75.0298 55.4495 75.1252 55.4367 75.2192 55.4124C75.7265 55.2658 76.2628 55.5323 76.5698 55.9185C76.6194 55.9939 76.6726 56.0671 76.7285 56.1377C76.8911 56.4405 76.9873 56.7709 77.0867 57.0976C77.4618 56.6692 77.9499 56.343 78.473 56.1135C79.272 55.8012 80.2057 55.8505 80.9524 56.2494C81.0596 56.2926 81.1662 56.3918 81.2916 56.3385C81.4575 56.0443 81.5294 55.7092 81.6128 55.3864C81.5848 55.2519 81.5647 55.1147 81.5141 54.9865C81.3956 54.6458 81.0088 54.5245 80.6949 54.4095C79.9285 54.2003 79.1156 54.1199 78.3195 54.2148C77.6366 54.295 76.9668 54.635 76.6113 55.2317C76.5983 55.1899 76.5726 55.107 76.5596 55.0652C76.6369 54.7728 76.7822 54.4953 77.0234 54.2967C77.5851 53.9009 78.2802 53.7778 78.9516 53.718C79.0529 53.7066 79.2556 53.6845 79.3568 53.6732C78.4837 53.1339 77.4822 52.6267 76.406 52.7501C75.5469 52.837 74.8282 53.4646 74.4935 54.2231C74.5407 54.2014 74.6356 54.1571 74.6833 54.1343C75.1371 53.8038 75.6421 53.518 76.1975 53.3949C76.3551 53.3955 76.5681 53.2746 76.6735 53.4481C76.3811 53.5667 76.1066 53.7238 75.8355 53.883C75.7381 53.9454 75.6415 54.005 75.5468 54.0699C75.2505 54.2604 74.9731 54.4768 74.7111 54.7093C73.8514 55.5314 73.5055 56.7695 73.6531 57.9044C73.8356 58.4492 73.977 59.0102 74.0553 59.5804C74.0518 59.7336 74.0379 59.887 73.9809 60.0314C73.8531 59.6718 73.745 59.3052 73.5986 58.9529C73.29 58.2564 72.7483 57.6287 72.0108 57.3484C71.6742 57.1966 71.298 57.1858 70.938 57.1255C71.6258 56.8015 72.5738 56.8311 73.1034 57.397C73.1123 57.357 73.1316 57.2764 73.1405 57.2364C73.0766 56.2233 73.5237 55.2245 74.2023 54.4632C74.2784 54.2202 74.2862 53.9591 74.3473 53.711C73.3607 53.2913 72.1561 53.2639 71.1937 53.7974C70.7651 54.0315 70.5461 54.5014 70.5143 54.9624C70.7105 55.1651 70.8853 55.3872 71.0494 55.6166C71.2384 55.5006 71.4264 55.3816 71.609 55.255C71.9412 55.0786 72.2653 54.8665 72.647 54.8153C72.5659 54.8712 72.4853 54.926 72.4036 54.9803C72.2422 55.0995 72.0753 55.2129 71.908 55.3229C71.7936 55.4196 71.6796 55.5153 71.563 55.6085C71.3434 55.8082 71.1203 56.0056 70.9126 56.2165C70.5504 56.6112 70.1253 56.9858 69.9439 57.4992C69.7922 57.9266 69.7575 58.387 69.7973 58.8332C69.8137 58.9923 69.8366 59.15 69.8503 59.3092C69.9731 59.9102 70.1843 60.4862 70.332 61.0802L70.1628 61.1798C70.0869 61.0071 70.0159 60.8311 69.9046 60.6786C69.7563 60.4162 69.6111 60.1528 69.4453 59.9009C69.2067 59.4529 68.9646 58.995 68.5949 58.6341C68.2231 58.3049 67.7274 58.1934 67.2383 58.1585C67.9183 57.7419 68.7835 58.0933 69.2675 58.6151C69.2946 58.6116 69.3495 58.6044 69.3766 58.601C69.3509 57.9566 69.5458 57.3011 69.8819 56.7421C69.917 56.1348 69.3311 55.7526 68.8152 55.5666C69.4265 55.4015 70.0307 55.7954 70.2926 56.3168C70.3646 56.2426 70.4379 56.1697 70.5129 56.0989C70.5447 56.0663 70.6086 56.0018 70.6407 55.97C70.6796 55.9349 70.7575 55.8647 70.7967 55.8304C70.5371 55.4507 70.2209 55.0935 69.8039 54.8745C68.8122 54.3124 67.3985 54.5771 66.6772 55.4683ZM62.3215 57.3388C62.0493 57.6127 61.754 57.8937 61.6229 58.2616C62.4389 57.9872 63.3391 58.1847 64.0429 58.6226C64.527 58.7589 65.027 58.9024 65.4237 59.2195C65.611 58.6224 65.9419 58.0765 66.3005 57.5612C66.1794 57.3108 66.0476 57.065 65.9611 56.7999C64.9209 56.86 63.9505 57.2855 63.0115 57.7026C63.3195 57.3046 63.7817 57.063 64.2361 56.8619C64.782 56.6493 65.3499 56.4489 65.9409 56.4343C65.959 56.2125 65.9924 55.9913 66.0345 55.7722C65.5881 55.6778 65.1374 55.8218 64.7176 55.9704C63.8432 56.2722 63.0002 56.7106 62.3215 57.3388ZM73.7797 53.1001C74.0184 53.1599 74.2422 53.2704 74.4855 53.3132C74.6444 53.2095 74.765 53.06 74.8989 52.9281C74.5216 52.9494 74.1367 52.9588 73.7797 53.1001ZM59.2488 59.6395C59.1633 59.7055 59.1928 59.799 59.2114 59.8844C59.402 59.8254 59.592 59.7675 59.7813 59.7072C59.938 59.4446 60.149 59.2205 60.3704 59.0082C60.6144 58.7897 60.885 58.604 61.1587 58.4224C61.2736 58.2242 61.3457 58.0049 61.4456 57.7991C60.5717 58.22 59.8343 58.885 59.2488 59.6395ZM60.6489 59.261C60.2944 59.6324 60.0186 60.0664 59.7966 60.5227C59.9897 60.5109 60.2189 60.5938 60.3688 60.4297C60.6029 60.2259 60.8753 60.0704 61.1849 60.0153C61.2759 60.0127 61.3672 60.0082 61.459 60.0027C61.7173 60.0102 61.963 60.0899 62.2042 60.1694C62.3771 59.9149 62.6003 59.7002 62.8166 59.4811C62.7562 59.7736 62.6108 60.0434 62.5686 60.3398C62.5029 60.6625 62.5562 60.989 62.5319 61.3134C62.3683 61.0178 62.2068 60.7206 62.065 60.4139C61.6306 60.341 61.1575 60.3263 60.7718 60.5841C60.1471 61.0371 59.893 61.9211 60.21 62.6087C60.3878 63.0624 60.7541 63.3961 61.0897 63.738C61.2794 62.8697 61.8064 62.037 62.6089 61.5844C63.2975 61.2146 64.129 61.012 64.8915 61.2354C65.0368 61.2687 65.1717 61.37 65.3292 61.3278C65.3178 61.1326 65.2738 60.9428 65.2325 60.7529C65.245 60.3647 65.2662 59.9486 65.0496 59.608C64.7956 59.2968 64.3675 59.1916 63.9762 59.1603C63.659 59.1313 63.3411 59.1653 63.0279 59.22C62.7733 59.2482 62.5336 59.3432 62.2913 59.4212L62.2793 59.282C62.554 58.9901 62.9869 58.9261 63.3554 58.8074C63.3887 58.8216 63.4548 58.8508 63.4873 58.8652C63.4424 58.7856 63.3784 58.7196 63.2866 58.6925C62.9297 58.5435 62.538 58.4736 62.1479 58.496C61.5707 58.5521 61.0508 58.8585 60.6489 59.261ZM57.7874 61.1976C57.1234 61.8198 56.6094 62.5741 56.1835 63.3645C56.4214 63.2469 56.6589 63.1277 56.9044 63.0264C57.0851 62.6437 57.2682 62.2577 57.5404 61.9263C58.0121 61.3181 58.6719 60.882 59.3695 60.558C59.4077 60.4708 59.4836 60.2974 59.5221 60.2109C58.86 60.3723 58.2826 60.7461 57.7874 61.1976ZM79.7071 53.3222C79.7393 53.3409 79.8049 53.3789 79.838 53.3974C80.0042 53.5376 80.1438 53.7403 80.3781 53.7725C80.9473 53.8867 81.5404 54.0586 81.9621 54.4639C82.1695 54.6558 82.2503 54.9348 82.2445 55.2091C82.6925 54.7243 83.4001 54.6088 84.0315 54.5862C82.9732 53.7803 81.6432 53.3048 80.2904 53.276C80.2028 53.2758 80.1159 53.2752 80.0293 53.2729C79.9196 53.2701 79.8121 53.2966 79.7071 53.3222ZM59.1342 61.0842C58.2937 61.5347 57.6829 62.3151 57.2749 63.1465C56.6188 64.4829 56.6556 66.0558 57.1488 67.4184C57.5583 67.1651 58.0579 67.047 58.3603 66.6483C57.9384 66.5856 57.5436 66.3315 57.3692 65.9452C57.8188 66.0986 58.3453 66.3024 58.805 66.0488C59.3092 65.7504 59.8697 65.5568 60.4433 65.4428C60.627 65.0788 60.7667 64.6625 60.6688 64.2597C60.5631 63.8777 60.2121 63.6348 59.8737 63.4579C59.3324 63.1846 58.687 63.213 58.1069 63.3636C58.3062 63.0912 58.6509 62.998 58.9578 62.8975C58.9321 62.509 58.9071 62.1048 59.0808 61.7374C59.151 62.1267 59.1913 62.5393 59.3723 62.8967C59.6467 62.9826 59.9321 63.0468 60.1732 63.2088C60.0061 62.868 59.7972 62.5368 59.7476 62.1531C59.6543 61.7084 59.758 61.2377 60.0095 60.8526C59.7045 60.858 59.403 60.9386 59.1342 61.0842ZM54.6504 66.191C54.6629 66.2012 54.6878 66.2217 54.6995 66.2322C54.7881 66.0973 54.9034 65.9831 55.017 65.8686C55.1298 65.7699 55.2437 65.6716 55.3569 65.5737C55.4294 65.526 55.5008 65.4778 55.5725 65.4278C55.8349 65.2466 56.116 65.0907 56.4183 64.9824C56.5465 64.461 56.5938 63.9207 56.7974 63.4175C55.7389 64.0147 54.9451 65.036 54.6504 66.191ZM56.0338 65.5068C55.3513 66.0015 54.7633 66.7087 54.6689 67.554C54.6008 68.1908 54.7899 68.8519 55.2075 69.3411C55.3445 69.5112 55.5241 69.639 55.7015 69.7658C55.8656 68.9828 56.3034 68.2809 56.8395 67.6821C56.5155 66.9145 56.4161 66.0813 56.388 65.2548C56.278 65.3492 56.1603 65.4341 56.0338 65.5068ZM86.8622 56.2665C87.1626 56.6791 87.4594 57.0938 87.7048 57.5411C87.8633 57.5243 88.0241 57.5187 88.1849 57.5156C88.41 57.4892 88.6504 57.697 88.8527 57.5833L88.707 57.5716C88.5668 57.2995 88.3076 57.1189 88.0853 56.9177C87.726 56.6313 87.334 56.3401 86.8622 56.2665ZM54.3472 69.1339C54.3249 69.6019 54.4672 70.0552 54.6865 70.4636C54.7935 70.2656 54.9047 70.0695 54.9787 69.8582C54.8088 69.5897 54.5755 69.3571 54.3472 69.1339ZM88.0787 57.9641C88.6767 58.4382 89.2346 59.0191 89.4607 59.7573C89.6299 60.2768 89.5431 60.843 89.3624 61.3535C89.1472 61.9517 88.9702 62.5932 89.0698 63.2263C89.6837 63.4871 90.1895 63.9429 90.5706 64.4741C90.8838 64.5319 91.205 64.5998 91.5242 64.5318C91.9459 64.4538 92.2479 64.1291 92.5321 63.8391C92.512 63.7044 92.4937 63.57 92.4907 63.4337C92.3687 62.9149 92.1762 62.4121 91.8735 61.9703C91.8459 61.9748 91.7907 61.9838 91.7639 61.9881C91.6797 62.5516 91.5001 63.2206 90.9547 63.5248C91.2978 62.9231 91.4785 62.2296 91.4411 61.5447C91.3841 60.7541 91.0679 59.9933 90.582 59.3683C90.4866 59.2583 90.3875 59.1531 90.2837 59.052C89.7018 58.4632 88.9034 58.1004 88.0787 57.9641ZM55.1146 70.6392C54.9347 71.3049 55.1213 72.0191 55.5019 72.5762C55.932 73.2586 56.6213 73.8158 57.4494 73.9518C58.3826 74.1026 59.3526 73.8335 60.1675 73.3731C60.0964 73.3448 60.0269 73.2832 59.9445 73.3103C59.6095 73.3761 59.2734 73.4388 58.9328 73.461C58.7822 73.4527 58.6318 73.4478 58.4808 73.4534C57.7163 73.3724 57.0041 72.9984 56.5181 72.4232C56.1405 71.9397 55.8524 71.3889 55.6821 70.8011C55.6148 70.5628 55.6441 70.2649 55.3905 70.1253C55.2144 70.2428 55.1641 70.451 55.1146 70.6392ZM91.9078 61.456C92.1654 61.7574 92.3796 62.0885 92.5704 62.4339C92.7111 62.7573 92.8621 63.0874 92.8914 63.4437C92.8821 63.6779 93.1264 63.7787 93.2718 63.9202C93.249 63.3392 93.1927 62.7561 93.0269 62.1985C92.7999 61.6229 92.4525 61.0997 92.0377 60.6387C91.9247 60.5366 91.8149 60.4333 91.7087 60.3254C91.8352 60.6915 91.8007 61.09 91.9078 61.456ZM57.3892 74.4305C57.4657 74.6021 57.577 74.7546 57.6998 74.8971C58.5935 75.9357 60.0491 76.2634 61.3879 76.3477C62.2178 76.3835 63.073 76.3933 63.8814 76.1627C63.5029 75.9174 63.2037 75.5808 62.9103 75.2482C62.885 75.209 62.8346 75.1313 62.8087 75.0931C62.7728 75.0465 62.701 74.9531 62.6642 74.9067C62.5993 74.9406 62.4685 75.0087 62.4035 75.0426L62.3692 75.0959C61.8552 75.3711 61.2502 75.7271 60.6616 75.4651C61.2641 75.1573 61.8944 74.8757 62.394 74.4115C62.4809 74.2944 62.3949 74.1459 62.3898 74.0188C62.403 73.991 62.4312 73.9357 62.4444 73.9079C61.7975 74.0373 61.137 73.9276 60.5419 73.6774C59.9001 74.0566 59.2142 74.4014 58.4661 74.5044C58.6543 74.757 58.8449 75.014 59.1042 75.2023C59.3279 75.3902 59.6149 75.4966 59.822 75.7049C59.082 75.6282 58.3214 75.2247 58.0815 74.5025C57.8916 74.4831 57.702 74.4696 57.5104 74.4705C57.4803 74.4605 57.4193 74.4406 57.3892 74.4305ZM93.62 64.2327C93.867 64.9199 94.1303 65.6211 94.103 66.3656C94.0972 66.487 94.0921 66.6081 94.0919 66.7301C94.082 66.7748 94.063 66.8638 94.0539 66.9082C94.0483 66.9875 94.0505 67.0665 94.0614 67.1451C94.3327 67.2546 94.5149 67.4853 94.6923 67.7022C94.7501 67.8134 94.8108 67.9252 94.8725 68.035C94.9167 67.1626 94.7007 66.2998 94.3573 65.5047C94.1534 65.2352 94.1817 64.8844 94.077 64.5777C93.9278 64.0924 93.7642 63.6087 93.5332 63.1547C93.6005 63.5106 93.6138 63.8717 93.62 64.2327ZM93.8978 67.5888C93.791 67.8726 93.5625 68.12 93.5589 68.4329C93.5067 68.9543 93.3856 69.4758 93.1771 69.9626C92.8941 70.6017 92.2029 71.0892 91.4768 71.0093C91.5762 71.2433 91.6956 71.5166 91.5311 71.7545C91.8974 71.8452 92.2966 71.9013 92.6623 71.7595C93.1984 71.6071 93.5998 71.1077 93.679 70.5777C93.7375 70.2473 93.5657 69.9434 93.4828 69.6358C93.8838 69.7797 94.0532 70.1771 94.1286 70.5586C94.4462 70.1452 94.7185 69.6738 94.7354 69.1476C94.7006 68.5553 94.4303 67.9974 94.0282 67.5646C93.9958 67.5708 93.9309 67.5823 93.8978 67.5888ZM77.967 75.9181C78.171 76.1755 78.3368 76.515 78.646 76.6592C79.1873 76.426 79.6368 75.9956 79.9123 75.4854C79.386 75.5957 78.8598 75.7112 78.323 75.7489C78.1805 75.7438 78.0775 75.8477 77.967 75.9181ZM81.6387 74.7309C81.6195 75.1076 81.5868 75.4935 81.425 75.8446C81.1277 76.5711 80.466 77.1221 79.7212 77.3828C79.7378 77.4096 79.7719 77.4638 79.7893 77.4903C79.9824 77.5713 80.1868 77.6217 80.3964 77.6419C80.4819 77.6085 80.5685 77.5756 80.6548 77.542C80.793 77.4472 80.9437 77.373 81.0931 77.2976C82.1455 76.6983 82.6607 75.4138 82.3942 74.2801C82.1447 74.4353 81.8917 74.5831 81.6387 74.7309ZM76.6257 76.6838C77.2746 77.7205 78.5497 78.3689 79.808 78.1724C79.8667 78.1509 79.984 78.1073 80.0417 78.0854C79.9762 78.0877 79.9102 78.0911 79.8449 78.0942C78.8058 77.844 78.0181 77.073 77.4503 76.226C77.1827 76.3901 76.9085 76.5453 76.6257 76.6838ZM80.3485 75.3481C80.2232 76.1132 79.5296 76.6067 78.8601 76.9226C79.0623 77.0493 79.2746 77.3476 79.5446 77.193C80.4323 76.7235 81.1756 75.8924 81.3312 74.8995C81.0096 75.061 80.6677 75.1823 80.3485 75.3481ZM82.7325 74.2965C83.0286 75.133 82.7649 76.0599 82.2117 76.7481C82.2503 76.732 82.3284 76.7003 82.3672 76.685C82.4542 76.6082 82.546 76.5349 82.6386 76.4639C83.31 75.9429 83.8236 75.1201 83.7701 74.2742C83.4247 74.2955 83.078 74.3156 82.7325 74.2965ZM75.8887 77.2044C75.8726 77.2942 75.9626 77.3486 76.006 77.4141C76.1012 77.5259 76.1985 77.6361 76.3038 77.7392C77.1717 78.7147 78.5794 79.3176 79.9132 78.9718C80.0809 78.9131 80.3408 78.9303 80.4145 78.7406C80.3055 78.68 80.2023 78.6105 80.1196 78.5192C79.752 78.5826 79.3801 78.6492 79.0061 78.6144C77.905 78.5345 76.9207 77.9208 76.2003 77.14C76.1235 76.9952 75.9671 77.1409 75.8887 77.2044ZM84.308 74.2019C84.338 74.3871 84.3341 74.5765 84.2922 74.7612C84.8084 74.5874 85.3039 74.3573 85.8212 74.184C87.3249 73.6379 88.9101 73.2926 90.5082 73.2295C91.0769 73.2245 91.6598 73.212 92.2065 73.3752C92.1631 73.2548 92.1205 73.134 92.0779 73.0133L92.0513 73.0707C91.9945 72.9549 91.9335 72.8423 91.8697 72.7316C91.8055 72.6501 91.7459 72.5662 91.6894 72.4813C90.9257 72.8387 90.0887 73.0158 89.2474 73.0028C88.4934 72.9817 87.7532 73.1523 87.0178 73.2989C86.8215 73.3342 86.6387 73.4153 86.4618 73.503C85.7784 73.8297 85.0475 74.0443 84.308 74.2019ZM84.2785 75.191C84.182 75.3587 84.0943 75.5311 84.0057 75.7037C85.1933 75.2718 86.3861 74.8174 87.6298 74.5821C87.9583 74.4852 88.2977 74.442 88.6332 74.3752C88.8898 74.3455 89.1453 74.3024 89.4019 74.2701C89.5395 74.2615 89.6786 74.2471 89.8172 74.239C90.2538 74.2029 90.6925 74.1953 91.1293 74.2125C91.5513 74.2279 91.9705 74.2855 92.3808 74.3806C92.3868 74.1493 92.3627 73.9156 92.2525 73.7086C91.9299 73.7167 91.6137 73.6403 91.2918 73.643C91.1377 73.6325 90.9845 73.6269 90.8319 73.6305C90.7195 73.6304 90.609 73.6304 90.4984 73.6279C90.2061 73.6341 89.916 73.6618 89.6242 73.672C89.5112 73.6875 89.3981 73.7031 89.2861 73.7165C89.0037 73.7458 88.7244 73.8015 88.4426 73.8375C88.2502 73.879 88.0607 73.9308 87.8658 73.9526C86.6272 74.2298 85.4321 74.6679 84.2785 75.191ZM84.2591 76.0633C84.5574 76.049 84.8566 76.0447 85.1551 76.0132C85.6157 76.0203 86.0768 75.9809 86.5382 75.9825C87.2167 75.9829 87.9002 75.9797 88.5734 76.0678C89.616 76.2678 90.7008 76.4445 91.7648 76.2439C92.1006 76.2156 92.2279 75.8997 92.3183 75.632C91.6793 75.6633 91.0434 75.8163 90.4008 75.7648C89.3829 75.69 88.3765 75.5099 87.3536 75.491C87.1404 75.4884 86.9272 75.4909 86.7148 75.4905C86.6006 75.4979 86.4878 75.5116 86.3756 75.5243C86.2591 75.535 86.1444 75.5485 86.0295 75.5612C85.8115 75.5774 85.6031 75.6538 85.3856 75.6715C85.0001 75.7696 84.6171 75.8899 84.2591 76.0633ZM83.4794 76.428C83.322 76.5733 83.1735 76.7291 82.9916 76.8452C83.0063 76.8692 83.0359 76.9181 83.0508 76.9429C84.3184 77.2291 85.6389 77.1687 86.9324 77.062C87.5018 77.0215 88.0718 76.9122 88.6434 76.9706C89.3292 77.0165 90.0132 77.1978 90.705 77.0904C91.1437 77.0253 91.5901 76.8416 91.8684 76.4875C90.7889 76.782 89.6526 76.6474 88.5784 76.4404C87.9508 76.454 87.3225 76.4507 86.6955 76.4434C86.2477 76.4327 85.8012 76.413 85.355 76.4043C85.2049 76.395 85.0562 76.3896 84.9069 76.3903C84.7566 76.3803 84.6065 76.3735 84.456 76.3781C84.3082 76.3655 84.1613 76.3576 84.0139 76.3637C83.837 76.3509 83.6232 76.2841 83.4794 76.428ZM87.4566 75.1038C87.7013 75.1255 87.9467 75.1341 88.1921 75.1555C88.7667 75.1845 89.3382 75.2626 89.9074 75.3442C90.6828 75.4686 91.4834 75.4743 92.2599 75.3184C92.3318 75.1464 92.3542 74.9643 92.3045 74.7859C91.5933 74.7155 90.8758 74.6747 90.1605 74.7181C89.8186 74.7193 89.48 74.7648 89.1394 74.7896C88.743 74.8519 88.3406 74.882 87.9504 74.9817C87.7777 74.976 87.6142 75.0392 87.4566 75.1038ZM82.2791 77.365C82.2922 77.3896 82.3173 77.4383 82.3304 77.4629C83.9678 78.055 85.7553 78.2553 87.4985 78.0247C88.2367 77.9234 88.985 77.8058 89.672 77.5018C89.3217 77.469 88.967 77.4815 88.6221 77.409C88.4153 77.3818 88.21 77.2863 87.9988 77.3319C86.2046 77.7692 84.2954 77.7076 82.549 77.1624C82.4925 77.2654 82.3738 77.3052 82.2791 77.365ZM81.4458 77.8258C83.0585 78.8669 85.111 79.129 87.0122 78.8096C87.3459 78.7701 87.6733 78.6804 88.0089 78.6514C88.2259 78.6046 88.4391 78.5395 88.6605 78.5152C89.0187 78.4199 89.3716 78.2998 89.7099 78.1479C89.831 78.0025 90.1749 78.0169 90.1146 77.7736C88.9941 78.1297 87.8339 78.3709 86.6618 78.4532C85.0422 78.5556 83.3504 78.3758 81.9175 77.6161C81.7604 77.6873 81.6039 77.7576 81.4458 77.8258ZM80.5523 78.2038C80.5891 78.2304 80.6635 78.2833 80.7003 78.3099C81.749 79.2239 83.1833 79.6191 84.5777 79.648C85.5765 79.6736 86.5824 79.5139 87.5317 79.2014C87.3881 78.9623 87.1078 79.2183 86.8881 79.1897C84.9172 79.4922 82.7513 79.202 81.1762 77.9691C80.9665 78.0442 80.7568 78.1167 80.5523 78.2038ZM79.5081 79.5506C80.2362 80.5313 81.2842 81.2051 82.1594 82.0459C82.7758 82.675 83.3683 83.3262 83.9265 84.0057C84.0433 84.1538 84.2109 84.2677 84.4041 84.2988C84.6074 84.2834 84.7934 84.184 84.9831 84.115C84.8679 83.7784 84.6111 83.5171 84.4283 83.2171C84.0525 82.6935 83.7284 82.1312 83.3383 81.6195C82.6858 81.1868 82.2508 80.5105 81.9988 79.789C81.588 79.6023 81.1901 79.3921 80.7862 79.1926C80.3793 79.3728 79.9514 79.5011 79.5081 79.5506ZM83.6485 81.401C84.1676 82.1776 84.6573 82.9738 85.1656 83.7575C85.201 83.8301 85.2643 83.8792 85.3388 83.9098C85.3822 83.85 85.4315 83.7967 85.4879 83.7486C85.5742 83.6523 85.6301 83.5374 85.6744 83.4197C85.588 83.1323 85.3377 82.9469 85.161 82.7168C84.8695 82.3569 84.5283 82.0342 84.2702 81.6514C84.2907 81.1479 84.218 80.6488 84.0411 80.1775C83.9465 80.1651 83.8522 80.1535 83.7581 80.1426C83.3315 80.0764 82.8973 80.0292 82.4872 79.8946C82.6093 80.5413 83.1008 81.057 83.6485 81.401Z" fill="#070707"/>
<path d="M85.2965 57.4649L85.4057 57.3933C85.8261 58.2661 85.9378 59.247 85.852 60.2069C86.3974 60.2762 86.9344 60.4016 87.4556 60.5704C87.7069 60.6584 87.9809 60.7531 88.1313 60.9838C87.3076 60.8754 86.473 60.8439 85.6398 60.8736C85.4523 61.5179 85.2145 62.155 84.8687 62.7388C84.7831 62.8924 84.6552 63.0161 84.5055 63.1106C85.1617 61.2985 85.2558 59.3595 85.2965 57.4649Z" fill="#070707"/>
<path d="M73.8129 65.8729C74.282 65.9714 74.558 66.3926 74.7212 66.8C74.8534 66.3476 75.1078 65.873 75.5923 65.7043C75.5712 65.7323 75.5293 65.7865 75.5079 65.8137C75.2136 66.4834 74.9277 67.2222 75.1052 67.9534C75.1481 68.19 75.3436 68.4032 75.602 68.4037C76.0668 68.3948 76.4929 68.1761 76.9253 68.0282C77.8265 67.6819 78.7714 67.2515 79.3284 66.4367C79.5215 66.1742 79.6334 65.8697 79.7253 65.5637C79.9113 65.8927 79.8026 66.269 79.6722 66.5988C79.5677 66.844 79.6801 67.1773 79.9586 67.2447C80.5436 67.4237 81.1334 67.0825 81.6196 66.7836C82.8239 66.0306 83.5834 64.8143 84.3559 63.6776C84.3711 63.723 84.4024 63.8142 84.4175 63.8596C84.3821 64.3107 84.1582 64.7162 83.928 65.1016C84.5362 64.8552 85.2056 64.5789 85.8684 64.753C85.1436 64.9972 84.3722 65.2174 83.7968 65.7425C83.4573 66.0562 83.2427 66.5357 83.3708 66.9863C83.5216 67.544 84.0239 68.0001 83.993 68.6042C83.9783 68.6051 83.9496 68.6065 83.9357 68.6071C83.6011 68.0073 83.0387 67.464 82.308 67.3935C81.4732 67.3388 80.6707 67.6737 79.9366 68.0372C80.1526 68.3007 80.3956 68.5659 80.4426 68.917C79.818 68.3302 78.9094 67.9536 78.031 68.1787C77.4188 68.3637 76.8208 68.6065 76.2628 68.9177C75.9444 69.1133 75.5632 69.3764 75.5495 69.7787C75.6339 70.2609 76.034 70.6051 76.3973 70.9029C75.8489 70.9404 75.5022 70.4117 75.1852 70.0547C74.0368 70.4146 72.8884 70.8097 71.8391 71.4053C71.4794 71.6265 71.0919 71.9622 71.1102 72.4126C71.1589 72.7209 71.321 72.9948 71.4261 73.2851C71.0034 73.1325 70.6807 72.7492 70.2065 72.734C69.6808 72.7231 69.1926 72.9738 68.7161 73.1672C68.5618 73.2865 68.4049 73.4032 68.2681 73.5421C67.8982 73.9274 67.661 74.4132 67.5036 74.9121C67.3193 75.4926 67.1121 76.0683 66.9668 76.6592C66.9407 76.6829 66.8885 76.7304 66.8623 76.7542C66.7814 76.427 66.7546 76.0878 66.7988 75.7521C66.9021 75.1725 66.9969 74.5915 67.1144 74.0146C67.1525 73.8545 66.9476 73.8077 66.8412 73.7444C65.9508 73.3091 64.9274 73.6295 64.0074 73.8271C64.4554 73.3071 65.1755 73.1598 65.8283 73.0695C65.8623 73.0731 65.9292 73.0797 65.9631 73.0833C65.6809 72.9228 65.3803 72.7575 65.2372 72.4547L65.2084 72.5086C65.1561 72.3629 65.1054 72.2167 65.0597 72.0695C65.7149 72.4249 66.3623 72.8509 67.123 72.9589C67.8319 73.0354 68.5174 72.7422 69.1172 72.3915L69.152 72.345C69.6391 72.0509 70.0566 71.6575 70.4344 71.2393C69.7879 70.9839 69.3915 70.2967 69.4363 69.6216C69.7014 70.0998 70.0147 70.6289 70.5714 70.8204C70.9622 70.9704 71.3978 70.8866 71.7768 70.7325C72.5289 70.4401 73.3172 70.1676 73.9432 69.6455C74.3328 69.3236 74.6024 68.8644 74.6577 68.3694C74.771 67.4599 74.3957 66.5593 73.8129 65.8729Z" fill="#070707"/>
</g>
</g>
</g>
<defs>
<clipPath id="clip0_2243_27631">
<rect width="154" height="208" fill="white" transform="translate(0 141)"/>
</clipPath>
<clipPath id="clip1_2243_27631">
<rect width="77" height="126" fill="white" transform="translate(27)"/>
</clipPath>
<clipPath id="clip2_2243_27631">
<rect width="45" height="44" fill="white" transform="translate(52 46)"/>
</clipPath>
<clipPath id="clip3_2243_27631">
<rect width="44.9797" height="44.02" fill="white" transform="matrix(0.943858 -0.330352 0.332785 0.943003 45.9434 54.6741)"/>
</clipPath>
</defs>
</svg>
