<svg width="184" height="225" viewBox="0 0 184 225" fill="none" xmlns="http://www.w3.org/2000/svg">
<path d="M22.0642 68.8799C22.0642 68.8799 0.441017 72.0801 1.01108 96.8647C1.58439 121.646 -1.34083 133.568 25.2305 136.768C41.1433 138.683 56.2547 106.014 50.261 85.8682C46.2445 72.371 22.0642 68.8799 22.0642 68.8799Z" fill="white" stroke="black" stroke-width="1.4" stroke-miterlimit="10" stroke-linecap="round" stroke-linejoin="round"/>
<path d="M91.9223 95.5182C80.0813 81.5634 79.925 70.58 71.7324 71.5999C61.3899 72.8845 59.0901 83.3449 63.7027 90.3697C68.3185 97.3945 78.1236 108.512 79.635 109.666C86.9807 115.265 99.004 123.196 103.135 122.084L111.545 109.65C108.734 106.371 93.7074 97.6201 91.9223 95.5182Z" fill="white" stroke="black" stroke-width="1.4" stroke-miterlimit="10" stroke-linecap="round" stroke-linejoin="round"/>
<path d="M103.133 122.084L108.889 124.886L117.326 112.467L111.544 109.649L103.133 122.084Z" fill="white" stroke="black" stroke-width="1.4" stroke-miterlimit="10" stroke-linecap="round" stroke-linejoin="round"/>
<path d="M109.458 123.679C109.458 123.679 111.233 124.885 115.957 128.435C120.68 131.989 125.341 132.776 129.817 128.703C134.29 124.637 134.088 121.486 128.938 119.25C127.035 118.426 123.794 118.256 123.794 118.256C123.794 118.256 128.465 118.305 128.488 115.765C128.521 112.274 119.393 114.866 115.716 114.464L109.458 123.679Z" fill="white" stroke="black" stroke-width="1.4" stroke-miterlimit="10" stroke-linecap="round" stroke-linejoin="round"/>
<path d="M121.664 121.779C121.664 121.779 128.993 123.966 133 123.59" stroke="black" stroke-width="1.4" stroke-miterlimit="10" stroke-linecap="round" stroke-linejoin="round"/>
<path d="M131.377 127.106C131.377 127.106 127.494 128.172 120.312 124.438" stroke="black" stroke-width="1.4" stroke-miterlimit="10" stroke-linecap="round" stroke-linejoin="round"/>
<path d="M128.101 130.023C128.101 130.023 122.85 129.925 118.573 126.467" stroke="black" stroke-width="1.4" stroke-miterlimit="10" stroke-linecap="round" stroke-linejoin="round"/>
<path d="M77.801 138.664C80.2246 119.315 85.2574 72.1453 73.2145 66.8563C66.3314 63.8293 32.219 63.9143 32.219 63.9143C32.219 63.9143 29.9551 65.6076 24.8995 68.5201C10.9835 76.5354 19.7005 117.991 22.9678 140.631C26.108 166.253 22.5899 197.392 22.5899 197.392L34.2224 200.824C34.2224 200.824 37.6688 196.294 41.5061 185.134C45.6301 173.147 50.1873 154.249 50.7606 147.221C52.6597 154.88 56.6339 170.806 59.318 204.093H73.563C73.5663 204.093 75.3774 158.012 77.801 138.664Z" fill="white" stroke="black" stroke-width="1.4" stroke-miterlimit="10" stroke-linecap="round" stroke-linejoin="round"/>
<path d="M74.1268 204.109L75.7914 183.761C75.7914 183.761 74.1268 185.807 66.8235 185.807C62.3575 185.807 56.6406 183.78 56.6406 183.78C56.6406 183.78 57.6732 199.971 57.5397 201.965C56.9989 210.095 56.6406 209.186 56.6406 217.891H90.4598C93.7922 209.503 88.1047 200.893 74.1268 204.109Z" fill="white" stroke="black" stroke-width="1.4" stroke-miterlimit="10" stroke-linecap="round" stroke-linejoin="round"/>
<path d="M90.4996 220.16C89.7275 220.16 89.7275 220.853 88.9588 220.853C88.1867 220.853 88.1868 220.16 87.418 220.16C86.646 220.16 86.646 220.853 85.8772 220.853C85.1084 220.853 85.1084 220.16 84.3364 220.16C83.5676 220.16 83.5676 220.853 82.7989 220.853C82.0301 220.853 82.0301 220.16 81.2581 220.16C80.4893 220.16 80.4893 220.853 79.7173 220.853C78.9453 220.853 78.9485 220.16 78.1765 220.16C77.4077 220.16 77.4077 220.853 76.639 220.853C75.8702 220.853 75.8702 220.16 75.1014 220.16C74.3327 220.16 74.3327 220.853 73.5606 220.853C72.7919 220.853 72.7919 220.16 72.0231 220.16C71.2543 220.16 71.2543 220.853 70.4823 220.853C69.7136 220.853 69.7136 220.16 68.9448 220.16C68.176 220.16 68.176 220.853 67.404 220.853C66.6352 220.853 66.6352 220.16 65.8665 220.16C65.0977 220.16 65.0977 220.853 64.3257 220.853C63.5569 220.853 63.5569 220.16 62.7882 220.16C62.0194 220.16 62.0194 220.853 61.2506 220.853C60.4819 220.853 60.4819 220.16 59.7131 220.16C58.9443 220.16 58.9443 220.853 58.1723 220.853C57.4035 220.853 57.4035 220.16 56.6348 220.16V217.895H90.4963V220.16H90.4996Z" fill="white" stroke="black" stroke-width="1.4" stroke-miterlimit="10" stroke-linecap="round" stroke-linejoin="round"/>
<path d="M36.2758 204.866L41.5073 185.135C41.5073 185.135 39.5072 186.854 32.3212 185.553C27.9236 184.759 22.6562 181.745 22.6562 181.745C22.6562 181.745 20.8125 197.864 20.3271 199.806C18.3596 207.71 18.1707 206.752 16.6299 215.323L49.9148 221.334C54.6805 213.669 50.5989 204.186 36.2758 204.866Z" fill="white" stroke="black" stroke-width="1.4" stroke-miterlimit="10" stroke-linecap="round" stroke-linejoin="round"/>
<path d="M49.5539 223.571C48.7949 223.433 48.6744 224.12 47.9154 223.983C47.1564 223.842 47.2801 223.162 46.5212 223.021C45.7622 222.884 45.6384 223.571 44.8826 223.433C44.1236 223.296 44.2474 222.613 43.4917 222.472C42.736 222.335 42.6122 223.021 41.8532 222.887C41.0942 222.747 41.218 222.06 40.4622 221.926C39.7032 221.786 39.5827 222.472 38.8237 222.338C38.0647 222.198 38.1885 221.515 37.4328 221.377C36.6738 221.24 36.5533 221.926 35.7943 221.789C35.0385 221.652 35.1591 220.965 34.4033 220.828C33.6476 220.691 33.5238 221.377 32.7648 221.24C32.0091 221.103 32.1296 220.419 31.3739 220.282C30.6181 220.145 30.4943 220.831 29.7353 220.691C28.9796 220.557 29.1001 219.87 28.3444 219.733C27.5854 219.596 27.4649 220.282 26.7059 220.145C25.9502 220.008 26.0739 219.324 25.3149 219.184C24.5592 219.047 24.4354 219.733 23.6764 219.596C22.9207 219.458 23.0412 218.775 22.2855 218.635C21.5297 218.497 21.406 219.187 20.647 219.05C19.8912 218.909 20.0118 218.226 19.256 218.089C18.5003 217.948 18.3765 218.638 17.6175 218.501C16.8618 218.363 16.9823 217.677 16.2266 217.54L16.6272 215.313L49.9513 221.331L49.5539 223.571Z" fill="white" stroke="black" stroke-width="1.4" stroke-miterlimit="10" stroke-linecap="round" stroke-linejoin="round"/>
<path d="M23.3888 106.209C27.3466 88.3152 30.2327 75.6255 30.2327 75.6255C22.9783 68.1234 13.2743 72.5854 10.4696 80.5124C7.66489 88.4394 4.73641 102.996 4.7299 104.898C4.70709 114.156 5.64525 128.565 9.02 131.2L23.9784 130.438C24.8937 126.211 22.7926 108.906 23.3888 106.209Z" fill="white" stroke="black" stroke-width="1.4" stroke-miterlimit="10" stroke-linecap="round" stroke-linejoin="round"/>
<path d="M9.02441 131.203L10.2688 137.502L25.2271 136.77L23.9828 130.441L9.02441 131.203Z" fill="white" stroke="black" stroke-width="1.4" stroke-miterlimit="10" stroke-linecap="round" stroke-linejoin="round"/>
<path d="M11.5713 137.231C11.5713 137.231 11.682 139.382 11.7081 145.302C11.7342 151.222 13.9199 155.429 19.8518 156.56C25.7837 157.691 28.1649 155.625 26.8391 150.156C26.3472 148.136 24.5296 145.443 24.5296 145.443C24.5296 145.443 27.3082 149.215 29.3409 147.701C32.139 145.619 24.5752 139.872 22.6761 136.688L11.5713 137.231Z" fill="white" stroke="black" stroke-width="1.4" stroke-miterlimit="10" stroke-linecap="round" stroke-linejoin="round"/>
<path d="M20.4414 145.857C20.4414 145.857 23.1191 153.046 25.8293 156.027" stroke="black" stroke-width="1.4" stroke-miterlimit="10" stroke-linecap="round" stroke-linejoin="round"/>
<path d="M22.0614 156.84C22.0614 156.84 18.8724 154.375 17.5107 146.373" stroke="black" stroke-width="1.4" stroke-miterlimit="10" stroke-linecap="round" stroke-linejoin="round"/>
<path d="M17.7669 155.985C17.7669 155.985 14.6821 151.722 14.8515 146.211" stroke="black" stroke-width="1.4" stroke-miterlimit="10" stroke-linecap="round" stroke-linejoin="round"/>
<path d="M17.7441 49.3262C17.7441 49.3262 19.2914 60.3651 23.0994 64.9252C26.9042 69.4886 17.6985 68.9002 17.8907 71.7277C18.1774 75.9021 33.4126 85.3589 46.081 85.8427C71.4861 86.8103 79.5256 73.3981 79.5256 73.3981C79.7927 70.0377 75.5091 68.2856 75.5091 68.2856C75.5091 68.2856 77.0368 64.072 75.5091 61.5975L17.7441 49.3262Z" fill="white" stroke="black" stroke-width="1.4" stroke-miterlimit="10" stroke-linecap="round" stroke-linejoin="round"/>
<path d="M85.2967 34.9461C85.9743 54.3599 70.8433 70.6519 51.4938 71.3319C32.1476 72.0118 15.9123 56.8279 15.2348 37.4108C14.5572 17.997 29.6882 1.70823 49.0377 1.02177C68.3839 0.345109 84.6159 15.529 85.2967 34.9461Z" fill="white" stroke="black" stroke-width="1.4" stroke-miterlimit="10" stroke-linecap="round" stroke-linejoin="round"/>
<path d="M48.6683 14.9106C30.2342 29.0093 32.508 47.9883 32.508 47.9883C32.508 47.9883 53.864 75.3749 81.3442 52.4373C81.3442 52.4373 88.3999 41.2545 85.2271 27.8227C82.0576 14.3843 71.3144 7.16015 71.3144 7.16015C71.3144 7.16015 60.6754 5.73492 48.6683 14.9106Z" fill="black"/>
<path d="M76.128 59.9125C48.3351 78.2377 27.624 48.1641 27.624 48.1641C27.624 48.1641 29.8489 9.79416 64.2056 3.90039" stroke="black" stroke-width="1.4" stroke-miterlimit="10" stroke-linecap="round" stroke-linejoin="round"/>
<path d="M42.1128 28.7532C38.1973 33.8756 37.0116 43.6103 39.6697 45.0028C42.3278 46.3921 42.9793 35.3727 47.1033 31.6004C51.439 27.6418 46.0674 23.5786 42.1128 28.7532Z" fill="white"/>
<path d="M47.9127 19.434C46.5608 20.0943 45.981 21.7778 46.639 23.1311L46.7693 23.3959C47.4273 24.7524 49.1049 25.3343 50.4568 24.674C51.8086 24.0137 52.3852 22.3269 51.7272 20.9736L51.5969 20.7089C50.9454 19.3523 49.2678 18.7704 47.9127 19.434Z" fill="white"/>
<path d="M76.6618 48.4334C76.2481 47.6881 75.3197 47.4069 74.6226 47.9757C72.7105 49.5317 65.1531 52.9509 67.2314 56.3963C68.8178 59.0278 71.6909 57.6385 73.8441 55.4287C76.3035 53.7551 78.1277 51.104 76.6618 48.4334Z" fill="white"/>
<path d="M21.7555 47.2141C17.8824 45.4783 13.374 40.0814 12.1948 33.4162C11.3446 28.6109 13.8952 24.1456 16.9703 25.1492C16.9703 25.1492 13.2144 37.4794 24.9055 42.8534L21.7555 47.2141Z" fill="white" stroke="black" stroke-width="1.4" stroke-miterlimit="10" stroke-linecap="round" stroke-linejoin="round"/>
<path d="M33.4984 47.1832C34.0391 50.4358 31.8468 53.5118 28.6056 54.0511C25.3644 54.5938 22.3024 52.3971 21.7616 49.1413C21.2209 45.892 23.4132 42.816 26.6544 42.2767C29.8956 41.734 32.9576 43.9307 33.4984 47.1832Z" fill="white" stroke="black" stroke-width="1.4" stroke-miterlimit="10" stroke-linecap="round" stroke-linejoin="round"/>
<path d="M30.1266 47.7448C30.3579 49.1308 29.423 50.4383 28.0451 50.6704C26.6672 50.9025 25.3642 49.9643 25.1329 48.5816C24.9016 47.1989 25.8332 45.8913 27.2144 45.6592C28.5923 45.4239 29.8953 46.362 30.1266 47.7448Z" fill="white" stroke="black" stroke-width="1.4" stroke-miterlimit="10" stroke-linecap="round" stroke-linejoin="round"/>
<path d="M23.6895 65.834C23.6895 65.834 34.4196 79.7822 52.5247 79.2462" stroke="black" stroke-width="1.4" stroke-miterlimit="10" stroke-linecap="round" stroke-linejoin="round"/>
<path d="M75.5058 68.2852C75.5058 68.2852 69.2123 75.1596 63.0752 77.1046" stroke="black" stroke-width="1.4" stroke-miterlimit="10" stroke-linecap="round" stroke-linejoin="round"/>
<path d="M76.1185 89.3938C76.1185 89.3938 74.1216 86.9716 69.8641 87.6286C65.6098 88.289 43.5045 91.7147 43.5045 91.7147C41.7227 91.7147 40.2764 93.1628 40.2764 94.9542V124.439C40.2764 126.227 41.7227 127.679 43.5045 127.679L72.887 123.125C73.7698 123.125 76.6038 119.896 76.6038 119.896L76.1185 89.3938Z" fill="white" stroke="black" stroke-width="1.4" stroke-miterlimit="10" stroke-linecap="round" stroke-linejoin="round"/>
<path d="M77.3526 117.965C77.3526 119.557 76.0692 120.845 74.4828 120.845L48.3708 124.888C46.7844 124.888 45.501 123.6 45.501 122.011V95.8082C45.501 94.2196 46.7844 92.9316 48.3708 92.9316L74.4828 88.8848C76.0659 88.8848 77.3526 90.1727 77.3526 91.7646V117.965Z" fill="white" stroke="black" stroke-width="1.4" stroke-miterlimit="10" stroke-linecap="round" stroke-linejoin="round"/>
<path d="M41.9639 126.47L46.2279 123.914" stroke="black" stroke-width="1.4" stroke-miterlimit="10" stroke-linecap="round" stroke-linejoin="round"/>
<path d="M41.1709 92.7188L45.8486 94.4414" stroke="black" stroke-width="1.4" stroke-miterlimit="10" stroke-linecap="round" stroke-linejoin="round"/>
<path d="M168.463 71.8197L172.104 78.895V80.3589L144.187 98.4131L135.448 103.293L132.534 96.2174L125.009 78.895L117.726 62.5486L130.835 57.9131H145.643L154.626 60.8408L156.811 61.8167L162.394 65.9643L168.463 71.8197Z" fill="white"/>
<path d="M143.059 47.3435C143.244 47.8309 143.244 49.3362 143.045 50.8558C142.816 52.7338 142.759 52.6908 142.189 50.0673C141.961 48.9778 141.775 47.8596 141.804 47.5729C141.846 47.0855 141.875 47.0568 142.389 47.0138C142.845 46.9708 142.931 47.0138 143.059 47.3435Z" fill="black"/>
<path d="M129.469 48.3059C129.983 48.8506 130.353 49.8685 130.582 51.3737C130.696 52.1479 130.838 52.9507 130.881 53.1514L130.967 53.5098L130.667 53.1657C130.496 52.9937 129.868 52.0475 129.269 51.087C128.328 49.6104 128.171 49.252 128.171 48.7073C128.157 48.0765 128.157 48.0622 128.656 48.0191C129.041 47.9905 129.241 48.0622 129.469 48.3059Z" fill="black"/>
<path d="M155.142 48.8631C155.684 49.0638 155.556 49.6946 154.6 51.5439C153.687 53.3216 153.33 53.8377 153.33 53.3933C153.33 53.2499 153.459 52.5188 153.63 51.7446C154.186 49.0925 154.443 48.5908 155.142 48.8631Z" fill="black"/>
<path d="M118.212 50.1682C118.412 50.2685 119.011 51.1287 119.681 52.2612C120.737 54.0675 120.937 54.5406 120.494 54.1965C119.196 53.2217 117.256 51.4871 117.128 51.2003C116.843 50.5982 116.914 50.3258 117.399 50.1538C117.656 50.0678 117.856 49.9961 117.87 50.0105C117.884 50.0105 118.027 50.0821 118.212 50.1682Z" fill="black"/>
<path d="M165.914 53.7963C166.028 54.04 166.028 54.2837 165.943 54.513C165.786 54.9144 163.033 57.925 162.919 57.8103C162.833 57.7243 163.889 55.4305 164.574 54.255C164.944 53.6099 165.116 53.4379 165.401 53.4379C165.629 53.4379 165.8 53.5525 165.914 53.7963Z" fill="black"/>
<path d="M109.482 55.7592C110.109 56.1892 112.392 58.655 112.392 58.9274C112.392 59.1711 108.811 57.3934 108.255 56.8774C107.784 56.4329 107.699 55.8882 108.055 55.5298C108.383 55.1857 108.711 55.2431 109.482 55.7592Z" fill="black"/>
<path d="M134.217 56.5481C146.741 57.4656 146.014 57.3796 148.981 58.2541C152.547 59.3149 154.515 60.0174 155.771 60.6482C157.111 61.322 163.859 65.8951 165.642 67.343C166.612 68.1315 167.125 68.7193 168.837 71.0703C169.949 72.6043 171.476 74.8837 172.232 76.1452C173.829 78.826 173.901 79.1271 173.073 80.1306C171.889 81.5642 170.563 82.7827 168.252 84.5173C163.202 88.3307 159.665 90.6101 151.548 95.2979C147.155 97.8353 145.457 98.8962 139.966 102.509C136.485 104.788 135.701 105.19 135.144 104.932C134.488 104.631 133.975 103.67 133.204 101.276C132.234 98.2941 131.649 96.7028 130.009 92.6458C129.267 90.8251 128.112 87.9293 127.441 86.1946C125.459 81.1484 124.061 78.2096 118.997 68.5186C116.13 63.0279 115.973 62.5979 116.515 62.0531C116.757 61.8094 118.212 61.1786 118.54 61.1786C118.612 61.1786 120.837 60.3615 123.49 59.358C126.129 58.3545 128.74 57.3796 129.296 57.1932C130.366 56.8205 132.434 56.4334 133.147 56.4765C133.375 56.4908 133.86 56.5195 134.217 56.5481ZM133.661 58.4405C133.661 58.4835 134.574 59.1716 135.686 59.9601C136.799 60.7485 138.582 62.0531 139.666 62.8559C140.736 63.6587 141.863 64.4472 142.177 64.6049C143.104 65.078 148.753 66.6549 149.765 66.7266C150.279 66.7552 152.732 66.6549 155.229 66.4972C157.725 66.3252 160.15 66.1961 160.621 66.1961C161.077 66.1961 161.462 66.1531 161.462 66.0815C161.448 65.9524 155.785 62.3398 154.829 61.8524C154.43 61.666 152.632 60.9779 150.821 60.3471L147.512 59.1859L143.118 58.8275C140.693 58.6268 138.382 58.4405 137.997 58.4118C136.742 58.3258 133.646 58.3401 133.661 58.4405ZM129.824 58.8849C128.782 59.1716 125.601 60.5335 123.447 61.6087C122.135 62.2681 121.878 62.2825 126.514 61.4653C128.283 61.1643 130.451 60.8059 131.35 60.6769C133.062 60.4188 133.361 60.3471 133.361 60.1751C133.361 60.1178 133.019 59.745 132.591 59.3293C131.678 58.4835 131.435 58.4405 129.824 58.8849ZM131.421 61.666C130.794 61.7807 129.324 62.0531 128.155 62.2538C124.318 62.9276 119.91 63.7734 119.781 63.8451C119.724 63.8881 119.667 63.9884 119.667 64.0601C119.667 64.2035 131.036 69.9235 131.336 69.9235C131.521 69.9235 131.835 68.9773 132.791 65.5654C134.017 61.1643 134.032 61.1929 131.421 61.666ZM135.03 61.9384C134.916 62.2395 133.104 69.6511 132.99 70.2388C132.948 70.5399 132.933 70.7836 132.976 70.7836C133.019 70.7836 134.674 69.8088 136.671 68.6189C140.151 66.5259 141.121 65.8521 141.021 65.5797C140.964 65.379 135.601 61.7807 135.344 61.7664C135.216 61.752 135.073 61.8381 135.03 61.9384ZM142.533 66.6549C142.319 66.7552 141.421 67.2857 140.565 67.8304C139.695 68.3752 138.097 69.3644 136.999 70.0382C134.845 71.3427 134.502 71.5864 134.502 71.8731C134.502 72.2745 137.341 73.149 145.629 75.2994C153.089 77.2204 152.846 77.1631 153.103 76.9624C153.232 76.8477 153.331 76.6756 153.331 76.561C153.331 76.3172 150.421 70.841 149.694 69.7084C148.881 68.4469 148.553 68.2318 145.957 67.3287C143.375 66.4399 143.147 66.3969 142.533 66.6549ZM120.452 66.7696C120.409 66.8413 120.837 67.8161 121.393 68.9486C121.95 70.0812 123.405 73.063 124.617 75.5861C126.6 79.7148 127.213 80.8187 127.513 80.8187C127.57 80.8187 128.197 79.5141 128.911 77.9085C130.851 73.5504 131.079 72.9913 131.079 72.6473C131.079 71.9305 129.738 71.0847 124.161 68.3179C122.292 67.386 120.694 66.6262 120.637 66.6262C120.58 66.6262 120.509 66.6836 120.452 66.7696ZM160.849 67.7301C159.579 67.9021 159.037 68.0311 159.037 68.1602C159.037 68.2605 159.094 68.3465 159.166 68.3465C159.337 68.3465 165.228 72.3175 166.626 73.3784C167.282 73.8802 168.437 74.7833 169.193 75.3997C169.964 76.0305 170.591 76.4893 170.591 76.4463C170.591 76.3603 166.383 71.0847 164.344 68.5902C163.288 67.3143 163.502 67.3717 160.849 67.7301ZM153.36 68.3465C151.434 68.5472 151.334 68.5759 151.334 68.963C151.334 69.2353 154.173 75.8298 154.373 76.0449C154.473 76.1452 154.444 76.2599 155.328 72.0738C155.728 70.2245 156.042 68.5902 156.042 68.4612C156.042 68.1458 155.457 68.1315 153.36 68.3465ZM156.969 71.1707C156.598 72.5756 156.07 74.4966 155.828 75.4571L155.357 77.1917L156.598 77.2777C157.268 77.3351 160.435 77.4211 163.63 77.4784L169.436 77.5645L169.35 77.2491C169.251 76.8477 168.566 76.3029 166.169 74.683C165.114 73.9805 162.803 72.3175 161.034 71.013C159.265 69.7084 157.782 68.6332 157.739 68.6332C157.682 68.6332 157.34 69.7801 156.969 71.1707ZM134.103 74.3389C133.903 74.6113 133.889 74.8407 134.074 76.0879C134.588 79.7865 135.33 88.4884 135.857 97.0899C136.071 100.702 136.257 101.749 136.642 101.749C136.785 101.749 139.966 97.5056 144.288 91.5706C148.867 85.2915 152.476 79.9585 152.476 79.4568C152.476 79.2131 152.347 79.0411 152.076 78.8977C151.32 78.5106 136.999 74.3246 135.629 74.0952C134.745 73.9518 134.36 74.0092 134.103 74.3389ZM131.222 75.7581C130.351 77.7508 128.797 82.1949 128.797 82.6967C128.797 82.9404 129.011 83.6572 129.282 84.3023C129.695 85.3201 132.42 92.7031 133.989 97.0899L134.502 98.5234L134.431 96.7315C134.217 92.2157 132.562 74.9123 132.263 74.1382C132.177 73.9232 132.163 73.9232 131.992 74.1525C131.892 74.2816 131.55 75.0127 131.222 75.7581ZM155.628 79.2561C154.829 79.7578 154.316 81.3778 153.488 86.0226C152.718 90.352 152.675 90.7391 152.975 91.0545C153.117 91.1835 153.317 91.2695 153.431 91.2265C154.159 90.9398 162.646 85.4205 165.185 83.5855C169.094 80.7614 169.75 80.0732 169.108 79.5285C168.965 79.4281 167.753 79.3134 165.57 79.2274C163.744 79.1414 161.191 79.0411 159.893 78.9837C157.325 78.869 156.127 78.955 155.628 79.2561ZM151.449 84.331C150.935 84.9617 149.551 86.8684 148.339 88.56C147.141 90.2517 144.958 93.2192 143.489 95.1545C140.75 98.7815 140.436 99.2116 140.593 99.3549C140.736 99.4983 141.421 99.0825 145.129 96.5738C149.551 93.6063 150.236 93.0615 150.536 92.2587C150.664 91.9146 151.149 89.8216 151.62 87.5995C152.09 85.3775 152.518 83.4422 152.575 83.3131C152.761 82.84 152.347 83.1984 151.449 84.331Z" fill="black"/>
<path d="M175.555 60.0608C175.783 60.2902 175.769 60.7776 175.54 61.0787C175.298 61.4227 171.703 63.4728 171.532 63.3724C171.289 63.2147 174.884 59.8888 175.298 59.8888C175.341 59.8888 175.455 59.9605 175.555 60.0608Z" fill="black"/>
<path d="M106.914 65.1918C108.198 65.3782 110.965 66.0663 110.965 66.2097C110.965 66.2813 110.936 66.3387 110.908 66.3387C110.865 66.3387 110.18 66.4677 109.367 66.6397C108.554 66.7974 107.37 66.9408 106.714 66.9551C105.673 66.9838 105.502 66.9408 105.316 66.6971C104.532 65.6362 105.259 64.9624 106.914 65.1918Z" fill="black"/>
<path d="M182.545 69.8089C182.816 70.0813 182.745 70.6261 182.36 70.9988C182.046 71.3285 181.918 71.3572 180.62 71.3428C179.849 71.3285 178.608 71.2855 177.867 71.2282C176.155 71.1135 176.297 71.0131 179.307 70.2247C181.632 69.6082 182.26 69.5222 182.545 69.8089Z" fill="black"/>
<path d="M180.22 78.8267C183.815 79.2854 184 79.3427 184 79.9449C184 80.7763 182.702 80.6903 180.691 79.7155C179.478 79.142 178.694 78.626 179.093 78.6833C179.164 78.6976 179.664 78.7693 180.22 78.8267Z" fill="black"/>
<path d="M179.122 87.0983C180.235 87.7004 181.276 88.3169 181.433 88.4459C181.818 88.79 181.789 89.22 181.361 89.5068C180.677 89.9512 179.892 89.4207 177.653 87.0123C177.111 86.4532 176.768 85.9801 176.882 85.9801C176.996 85.9945 177.995 86.4819 179.122 87.0983Z" fill="black"/>
</svg>
