<svg width="266" height="202" viewBox="0 0 266 202" fill="none" xmlns="http://www.w3.org/2000/svg">
<path d="M241.72 80.2921C241.72 80.2921 259.457 82.9101 258.991 103.201C258.517 123.493 260.915 133.247 239.124 135.874C226.068 137.447 213.675 110.697 218.593 94.2027C221.884 83.152 241.72 80.2921 241.72 80.2921Z" fill="white" stroke="black" stroke-width="1.4" stroke-miterlimit="10" stroke-linecap="round" stroke-linejoin="round"/>
<path d="M188.958 102.294C188.958 102.294 194.259 81.6826 200.983 82.5163C209.459 83.5704 211.348 92.1328 207.565 97.8828C203.778 103.633 197.765 114.364 193.948 116.831C190.14 119.297 169.699 110.091 168.491 106.791L172.826 95.2778C176.35 95.6234 188.958 102.294 188.958 102.294Z" fill="white" stroke="black" stroke-width="1.4" stroke-miterlimit="10" stroke-linecap="round" stroke-linejoin="round"/>
<path d="M168.488 106.796L163.895 104.248L168.208 92.7259L172.823 95.2834L168.488 106.796Z" fill="white" stroke="black" stroke-width="1.4" stroke-miterlimit="10" stroke-linecap="round" stroke-linejoin="round"/>
<path d="M164.435 103.296C164.435 103.296 162.788 102.674 158.185 101.171C153.579 99.6718 150.853 96.9113 151.461 91.9864C152.065 87.0659 154.269 85.718 158.194 88.12C159.643 89.0099 161.287 91.1052 161.287 91.1052C161.287 91.1052 159.044 87.9904 160.73 86.7765C163.051 85.1046 165.63 92.4617 167.636 94.7427L164.435 103.296Z" fill="white" stroke="black" stroke-width="1.4" stroke-miterlimit="10" stroke-linecap="round" stroke-linejoin="round"/>
<path d="M159.938 94.2004C159.938 94.2004 155.016 90.3123 153.368 87.4438" stroke="black" stroke-width="1.4" stroke-miterlimit="10" stroke-linecap="round" stroke-linejoin="round"/>
<path d="M151.788 90.1885C151.788 90.1885 152.91 93.299 158.802 96.3619" stroke="black" stroke-width="1.4" stroke-miterlimit="10" stroke-linecap="round" stroke-linejoin="round"/>
<path d="M151.388 93.7626C151.388 93.7626 153.929 97.2446 158.264 98.4845" stroke="black" stroke-width="1.4" stroke-miterlimit="10" stroke-linecap="round" stroke-linejoin="round"/>
<path d="M194.581 126.401C192.593 110.56 189.884 82.9632 199.766 78.6301C205.408 76.1547 233.392 76.2239 233.392 76.2239C233.392 76.2239 235.247 77.6106 239.396 79.9953C250.809 86.5575 246.742 125.52 244.672 132.38C242.605 139.241 223.562 154.374 223.088 156.357C222.618 158.34 228.777 178.251 228.777 178.251L221.626 182.303C221.626 182.303 206.835 159.821 207.387 152.555C207.939 145.289 214.358 137.858 214.358 137.858C214.358 137.858 197.35 149.436 196.971 151.609C196.285 155.497 202.543 172.557 202.543 172.557L191.139 175.75C191.139 175.75 183.323 156.435 182.09 147.764C181.106 140.865 195.168 131.076 194.581 126.401Z" fill="white" stroke="black" stroke-width="1.4" stroke-miterlimit="10" stroke-linecap="round" stroke-linejoin="round"/>
<path d="M189.404 173.814L187.247 167.912C190.038 167.779 192.846 167.204 195.167 166.608C197.09 166.111 199.195 165.42 201.054 164.4C201.503 166.392 201.887 168.016 202.051 168.5C204.242 174.799 204.332 173.999 206.222 180.873L179.475 188.256C175.024 182.363 177.655 174.328 189.404 173.814Z" fill="white" stroke="black" stroke-width="1.4" stroke-miterlimit="10" stroke-linecap="round" stroke-linejoin="round"/>
<path d="M179.942 190.059C180.551 189.89 180.706 190.439 181.314 190.27C181.922 190.106 181.771 189.553 182.384 189.385C182.988 189.216 183.143 189.765 183.751 189.601C184.359 189.432 184.208 188.883 184.821 188.715C185.425 188.546 185.58 189.099 186.188 188.931C186.796 188.762 186.645 188.21 187.258 188.045C187.866 187.877 188.017 188.426 188.629 188.261C189.238 188.093 189.087 187.544 189.695 187.376C190.303 187.207 190.454 187.756 191.062 187.587C191.67 187.419 191.519 186.87 192.128 186.702C192.736 186.533 192.887 187.082 193.495 186.918C194.107 186.749 193.952 186.201 194.565 186.032C195.168 185.864 195.324 186.412 195.932 186.248C196.54 186.08 196.389 185.531 197.002 185.363C197.61 185.194 197.761 185.747 198.369 185.579C198.977 185.41 198.83 184.861 199.439 184.693C200.042 184.525 200.198 185.073 200.802 184.905C201.41 184.736 201.263 184.188 201.871 184.019C202.475 183.851 202.63 184.399 203.234 184.231C203.843 184.062 203.696 183.514 204.3 183.345C204.908 183.177 205.063 183.73 205.667 183.561C206.275 183.393 206.124 182.844 206.732 182.676L206.241 180.891L179.468 188.283L179.942 190.059Z" fill="white" stroke="black" stroke-width="1.4" stroke-miterlimit="10" stroke-linecap="round" stroke-linejoin="round"/>
<path d="M217.91 179.547L214.407 173.262C215.563 173.016 216.629 172.722 217.435 172.493C221.257 171.4 224.621 169.819 227.554 167.46C228.469 169.775 229.28 171.776 229.569 172.303C232.726 178.174 232.683 177.374 235.629 183.863L210.383 195.38C205.056 190.261 206.389 181.911 217.91 179.547Z" fill="white" stroke="black" stroke-width="1.4" stroke-miterlimit="10" stroke-linecap="round" stroke-linejoin="round"/>
<path d="M211.123 197.078C211.697 196.818 211.934 197.333 212.508 197.073C213.086 196.81 212.848 196.291 213.422 196.028C214 195.764 214.233 196.287 214.807 196.024C215.385 195.764 215.147 195.242 215.721 194.978C216.29 194.715 216.532 195.233 217.106 194.974C217.675 194.71 217.442 194.192 218.02 193.928C218.594 193.665 218.827 194.183 219.405 193.924C219.978 193.66 219.737 193.142 220.315 192.879C220.888 192.619 221.126 193.138 221.699 192.879C222.273 192.615 222.036 192.092 222.609 191.833C223.179 191.574 223.42 192.092 223.994 191.829C224.563 191.565 224.33 191.047 224.904 190.783C225.478 190.524 225.715 191.043 226.289 190.779C226.862 190.515 226.625 189.997 227.199 189.734C227.777 189.47 228.014 189.988 228.583 189.729C229.161 189.466 228.924 188.947 229.498 188.684C230.071 188.425 230.309 188.943 230.882 188.679C231.452 188.42 231.219 187.898 231.792 187.634C232.366 187.37 232.603 187.893 233.177 187.63C233.751 187.366 233.513 186.848 234.087 186.584C234.665 186.321 234.898 186.843 235.472 186.58C236.045 186.321 235.812 185.798 236.382 185.539L235.614 183.85L210.338 195.384L211.123 197.078Z" fill="white" stroke="black" stroke-width="1.4" stroke-miterlimit="10" stroke-linecap="round" stroke-linejoin="round"/>
<path d="M197.372 97.0869C197.372 97.0869 199.016 95.104 202.505 95.644C205.995 96.184 224.124 98.9877 224.124 98.9877C225.59 98.9877 226.768 100.176 226.768 101.64V125.781C226.768 127.245 225.59 128.433 224.124 128.433L200.025 124.705C199.296 124.705 196.971 122.061 196.971 122.061L197.372 97.0869Z" fill="white" stroke="black" stroke-width="1.4" stroke-miterlimit="10" stroke-linecap="round" stroke-linejoin="round"/>
<path d="M196.359 120.476C196.359 121.776 197.411 122.834 198.714 122.834L220.134 126.148C221.432 126.148 222.484 125.089 222.484 123.789V102.336C222.484 101.031 221.432 99.9769 220.134 99.9769L198.714 96.6634C197.411 96.6634 196.359 97.7175 196.359 99.0221V120.476Z" fill="white" stroke="black" stroke-width="1.4" stroke-miterlimit="10" stroke-linecap="round" stroke-linejoin="round"/>
<path d="M225.398 127.44L221.896 125.35" stroke="black" stroke-width="1.4" stroke-miterlimit="10" stroke-linecap="round" stroke-linejoin="round"/>
<path d="M226.044 99.8114L222.205 101.22" stroke="black" stroke-width="1.4" stroke-miterlimit="10" stroke-linecap="round" stroke-linejoin="round"/>
<path d="M239.809 87.3306C247.927 84.6608 251.955 93.059 250.985 99.876C250.014 106.693 244.541 123.295 242.216 125.395C239.9 127.494 218.613 126.09 216.521 123.265L217.44 110.992C220.917 110.326 232.843 113.519 233.266 111.951C233.49 111.121 235.31 104.252 236.975 97.9795" fill="white"/>
<path d="M239.809 87.3306C247.927 84.6608 251.955 93.059 250.985 99.876C250.014 106.693 244.541 123.295 242.216 125.395C239.9 127.494 218.613 126.09 216.521 123.265L217.44 110.992C220.917 110.326 232.843 113.519 233.266 111.951C233.49 111.121 235.31 104.252 236.975 97.9795" stroke="black" stroke-width="1.4" stroke-miterlimit="10" stroke-linecap="round" stroke-linejoin="round"/>
<path d="M216.523 123.266L211.398 122.121L212.287 109.848L217.441 110.993L216.523 123.266Z" fill="white" stroke="black" stroke-width="1.4" stroke-miterlimit="10" stroke-linecap="round" stroke-linejoin="round"/>
<path d="M211.643 121.053C211.643 121.053 209.887 120.919 205.052 120.786C200.213 120.652 196.818 118.772 196.011 113.882C195.205 108.987 196.934 107.074 201.377 108.27C203.025 108.715 205.19 110.262 205.19 110.262C205.19 110.262 202.162 107.907 203.439 106.266C205.194 104.011 209.741 110.331 212.303 111.955L211.643 121.053Z" fill="white" stroke="black" stroke-width="1.4" stroke-miterlimit="10" stroke-linecap="round" stroke-linejoin="round"/>
<path d="M204.77 113.601C204.77 113.601 198.955 111.264 196.57 108.979" stroke="black" stroke-width="1.4" stroke-miterlimit="10" stroke-linecap="round" stroke-linejoin="round"/>
<path d="M195.825 112.061C195.825 112.061 197.779 114.726 204.292 116.001" stroke="black" stroke-width="1.4" stroke-miterlimit="10" stroke-linecap="round" stroke-linejoin="round"/>
<path d="M196.44 115.602C196.44 115.602 199.86 118.22 204.372 118.185" stroke="black" stroke-width="1.4" stroke-miterlimit="10" stroke-linecap="round" stroke-linejoin="round"/>
<path d="M245.268 64.2824C245.268 64.2824 243.999 73.32 240.881 77.0525C237.758 80.7893 245.311 80.3055 245.151 82.6211C244.918 86.0382 232.418 93.7798 222.027 94.1772C201.186 94.9721 194.595 83.9948 194.595 83.9948C194.375 81.2429 197.886 79.8044 197.886 79.8044C197.886 79.8044 196.635 76.357 197.886 74.3265L245.268 64.2824Z" fill="white" stroke="black" stroke-width="1.4" stroke-miterlimit="10" stroke-linecap="round" stroke-linejoin="round"/>
<path d="M189.859 52.5061C189.298 68.3997 201.716 81.74 217.58 82.2973C233.449 82.8546 246.764 70.4215 247.325 54.5236C247.881 38.6344 235.472 25.2941 219.603 24.7368C203.73 24.1795 190.415 36.6126 189.859 52.5061Z" fill="white" stroke="black" stroke-width="1.4" stroke-miterlimit="10" stroke-linecap="round" stroke-linejoin="round"/>
<path d="M219.894 36.1074C235.016 47.6507 233.153 63.1899 233.153 63.1899C233.153 63.1899 215.636 85.6111 193.086 66.8317C193.086 66.8317 187.307 57.6775 189.908 46.6786C192.504 35.6798 201.316 29.7613 201.316 29.7613C201.316 29.7613 210.051 28.5905 219.894 36.1074Z" fill="#101210"/>
<path d="M197.374 72.9507C220.174 87.9586 237.164 63.3342 237.164 63.3342C237.164 63.3342 235.34 31.9231 207.156 27.0932" stroke="black" stroke-width="1.4" stroke-miterlimit="10" stroke-linecap="round" stroke-linejoin="round"/>
<path d="M225.281 47.4382C228.494 51.633 229.465 59.6035 227.282 60.744C225.104 61.8845 224.569 52.8599 221.179 49.7711C217.629 46.531 222.037 43.2046 225.281 47.4382Z" fill="white"/>
<path d="M220.521 39.8086C221.63 40.3486 222.104 41.7267 221.565 42.8369L221.462 43.0529C220.923 44.1632 219.547 44.6384 218.438 44.0984C217.33 43.5584 216.855 42.1803 217.399 41.07L217.502 40.854C218.037 39.7438 219.417 39.2642 220.521 39.8086Z" fill="white"/>
<path d="M196.939 63.5524C197.275 62.9433 198.038 62.71 198.608 63.1766C200.174 64.451 206.376 67.2504 204.672 70.0714C203.37 72.2271 201.015 71.091 199.25 69.2809C197.232 67.9071 195.735 65.7384 196.939 63.5524Z" fill="white"/>
<path d="M241.975 62.5531C245.154 61.1318 248.85 56.7124 249.821 51.2562C250.52 47.3206 248.428 43.6658 245.904 44.4866C245.904 44.4866 248.98 54.5826 239.391 58.9848L241.975 62.5531Z" fill="white" stroke="black" stroke-width="1.4" stroke-miterlimit="10" stroke-linecap="round" stroke-linejoin="round"/>
<path d="M232.345 62.5281C231.901 65.1936 233.7 67.7078 236.357 68.1528C239.018 68.5978 241.533 66.7963 241.973 64.1352C242.417 61.474 240.614 58.9554 237.961 58.5104C235.304 58.0655 232.79 59.8626 232.345 62.5281Z" fill="white" stroke="black" stroke-width="1.4" stroke-miterlimit="10" stroke-linecap="round" stroke-linejoin="round"/>
<path d="M235.111 62.9893C234.921 64.1211 235.685 65.1925 236.815 65.3826C237.945 65.5727 239.015 64.8037 239.204 63.6719C239.394 62.54 238.631 61.4643 237.501 61.2785C236.366 61.0885 235.301 61.8531 235.111 62.9893Z" fill="white" stroke="black" stroke-width="1.4" stroke-miterlimit="10" stroke-linecap="round" stroke-linejoin="round"/>
<path d="M240.389 77.795C240.389 77.795 231.59 89.2129 216.734 88.7723" stroke="black" stroke-width="1.4" stroke-miterlimit="10" stroke-linecap="round" stroke-linejoin="round"/>
<path d="M197.878 79.8034C197.878 79.8034 203.041 85.4324 208.07 87.0222" stroke="black" stroke-width="1.4" stroke-miterlimit="10" stroke-linecap="round" stroke-linejoin="round"/>
<g clip-path="url(#clip0_2243_27316)">
<path d="M49.08 61.516C49.08 61.516 30.0529 64.3661 30.5526 86.4157C31.0524 108.47 28.4843 119.077 51.8656 121.927C65.8629 123.636 79.1661 94.5622 73.8865 76.6352C70.3559 64.6243 49.08 61.516 49.08 61.516Z" fill="white" stroke="black" stroke-width="1.73451" stroke-miterlimit="10" stroke-linecap="round" stroke-linejoin="round"/>
<path d="M107.739 60.3493C93.7371 68.3502 84.2559 66.6223 83.7562 73.9753C83.1269 83.2581 91.7428 87.052 98.5633 84.2066C105.384 81.3565 116.605 74.6514 117.849 73.5245C123.907 68.0356 132.758 58.8514 132.495 55.0388L123.208 45.5493C119.913 47.4604 109.849 59.1425 107.739 60.3493Z" fill="white" stroke="black" stroke-width="1.73451" stroke-miterlimit="10" stroke-linecap="round" stroke-linejoin="round"/>
<path d="M132.493 55.0391L135.875 50.4705L126.607 40.9623L123.206 45.5544L132.493 55.0391Z" fill="white" stroke="black" stroke-width="1.73451" stroke-miterlimit="10" stroke-linecap="round" stroke-linejoin="round"/>
<path d="M134.933 49.7666C134.933 49.7666 136.275 48.4143 140.12 44.8787C143.97 41.343 145.432 37.3895 142.684 32.7739C139.935 28.163 137.187 27.8062 134.396 31.9381C133.365 33.4688 132.675 36.2767 132.675 36.2767C132.675 36.2767 133.503 32.1917 131.324 31.7362C128.316 31.1164 129.015 39.5541 128.048 42.7094L134.933 49.7666Z" fill="white" stroke="black" stroke-width="1.73451" stroke-miterlimit="10" stroke-linecap="round" stroke-linejoin="round"/>
<path d="M135.348 38.7425C135.348 38.7425 138.462 32.6948 138.818 29.1169" stroke="black" stroke-width="1.73451" stroke-miterlimit="10" stroke-linecap="round" stroke-linejoin="round"/>
<path d="M141.564 31.1394C141.564 31.1394 141.828 34.722 137.409 40.3847" stroke="black" stroke-width="1.73451" stroke-miterlimit="10" stroke-linecap="round" stroke-linejoin="round"/>
<path d="M143.525 34.5025C143.525 34.5025 142.558 39.0852 138.865 42.2499" stroke="black" stroke-width="1.73451" stroke-miterlimit="10" stroke-linecap="round" stroke-linejoin="round"/>
<path d="M99.6454 113.84C99.6454 95.9688 104.684 64.4251 94.0881 59.7156C88.0311 57.0252 58.0144 57.1003 58.0144 57.1003C58.0144 57.1003 56.0293 58.6075 51.5733 61.1947C39.3251 68.327 52.7209 135.485 52.8042 141.289C52.818 142.388 49.269 151.206 49.269 151.206L45.2988 170.663C45.2988 170.663 50.2268 169.813 59.3748 164.893C63.9095 162.456 73.6174 153.708 75.0749 147.806C76.7685 140.923 78.1196 122 78.1196 122C79.0358 125.728 87.3787 137.612 91.9966 145.98C95.8095 152.901 97.8871 163.925 103.398 176.157L110.936 154.131C110.936 154.131 109.798 140.143 108.122 134.8C105.878 127.714 99.6454 115.765 99.6454 113.84Z" fill="white" stroke="black" stroke-width="1.73451" stroke-miterlimit="10" stroke-linecap="round" stroke-linejoin="round"/>
<path d="M115.641 171.664L110.93 154.136C110.93 154.136 110.167 156.357 104.128 158.582C100.431 159.939 95.0957 159.986 95.0957 159.986C95.0957 159.986 100.792 173.218 101.282 174.927C103.263 181.89 102.694 181.238 105.303 188.525L133.275 178.223C133.52 170.18 126.241 164.715 115.641 171.664Z" fill="white" stroke="black" stroke-width="1.73451" stroke-miterlimit="10" stroke-linecap="round" stroke-linejoin="round"/>
<path d="M133.984 180.097C133.35 180.332 133.559 180.914 132.92 181.149C132.282 181.383 132.073 180.801 131.435 181.036C130.796 181.271 131.004 181.853 130.371 182.088C129.732 182.322 129.528 181.74 128.89 181.975C128.256 182.21 128.46 182.792 127.826 183.027C127.192 183.262 126.979 182.679 126.345 182.914C125.711 183.149 125.915 183.731 125.276 183.966C124.642 184.201 124.434 183.618 123.795 183.848C123.161 184.083 123.374 184.665 122.736 184.9C122.097 185.135 121.889 184.553 121.255 184.788C120.616 185.022 120.829 185.605 120.191 185.839C119.552 186.074 119.344 185.492 118.71 185.727C118.071 185.961 118.28 186.544 117.646 186.778C117.012 187.013 116.804 186.431 116.165 186.666C115.526 186.9 115.735 187.483 115.096 187.717C114.467 187.952 114.254 187.37 113.62 187.605C112.986 187.84 113.19 188.422 112.556 188.657C111.917 188.891 111.709 188.309 111.07 188.544C110.437 188.779 110.649 189.361 110.011 189.596C109.372 189.83 109.164 189.248 108.53 189.478C107.892 189.713 108.1 190.295 107.466 190.53C106.827 190.765 106.624 190.183 105.985 190.417L105.31 188.525L133.318 178.209L133.984 180.097Z" fill="white" stroke="black" stroke-width="1.73451" stroke-miterlimit="10" stroke-linecap="round" stroke-linejoin="round"/>
<path d="M44.2117 174.544L59.3797 164.895C59.3797 164.895 57.0615 164.791 53.2163 159.57C50.8657 156.377 49.2739 151.208 49.2739 151.208C49.2739 151.208 38.4416 160.57 36.9748 161.538C30.9779 165.482 31.4314 164.74 25.3096 169.379L43.1243 193.57C50.7824 191.485 53.8317 182.827 44.2117 174.544Z" fill="white" stroke="black" stroke-width="1.73451" stroke-miterlimit="10" stroke-linecap="round" stroke-linejoin="round"/>
<path d="M41.5571 194.805C41.1499 194.256 40.6594 194.627 40.2522 194.073C39.8496 193.524 40.3355 193.153 39.9329 192.599C39.5257 192.049 39.0399 192.42 38.628 191.866C38.2208 191.317 38.7113 190.946 38.3041 190.392C37.9016 189.842 37.4065 190.213 37.0039 189.664C36.5967 189.115 37.0872 188.744 36.68 188.19C36.2774 187.64 35.7823 188.011 35.3797 187.462C34.9772 186.912 35.463 186.542 35.0558 185.987C34.6533 185.438 34.1674 185.809 33.7556 185.26C33.353 184.71 33.8389 184.339 33.4317 183.79C33.0291 183.241 32.5386 183.607 32.1314 183.058C31.7289 182.508 32.2147 182.137 31.8075 181.588C31.405 181.038 30.9099 181.409 30.5073 180.855C30.1001 180.306 30.5906 179.935 30.1834 179.386C29.7808 178.836 29.2903 179.207 28.8831 178.658C28.4806 178.109 28.9664 177.738 28.5592 177.184C28.1567 176.634 27.6662 177.005 27.259 176.456C26.8564 175.906 27.3423 175.535 26.9397 174.986C26.5325 174.437 26.042 174.808 25.6348 174.258C25.2323 173.709 25.7181 173.338 25.3156 172.784C24.9084 172.235 24.4225 172.606 24.0153 172.051C23.6081 171.502 24.094 171.131 23.6914 170.582L25.2785 169.375L43.1164 193.594L41.5571 194.805Z" fill="white" stroke="black" stroke-width="1.73451" stroke-miterlimit="10" stroke-linecap="round" stroke-linejoin="round"/>
<path d="M35.2513 59.037C48.4666 68.3198 57.8922 74.8558 57.8922 74.8558C57.6794 84.1574 48.7489 87.1296 42.2153 83.655C35.6816 80.1804 25.1177 72.4517 23.9841 71.2121C18.4545 65.1832 10.4772 55.2055 11.0834 51.4398L21.1985 42.8613C24.3033 45.0681 33.2616 57.6424 35.2513 59.037Z" fill="white" stroke="black" stroke-width="1.73451" stroke-miterlimit="10" stroke-linecap="round" stroke-linejoin="round"/>
<path d="M11.084 51.4341L8.13184 46.565L18.2284 37.9677L21.1991 42.8556L11.084 51.4341Z" fill="white" stroke="black" stroke-width="1.73451" stroke-miterlimit="10" stroke-linecap="round" stroke-linejoin="round"/>
<path d="M9.13281 45.9541C9.13281 45.9541 7.92511 44.4844 4.41306 40.6013C0.905632 36.7182 -0.195644 32.6473 2.96474 28.3088C6.12512 23.9749 8.88757 23.8716 11.2891 28.2524C12.1775 29.8723 12.6078 32.7318 12.6078 32.7318C12.6078 32.7318 12.1544 28.5858 14.3708 28.3369C17.4201 27.9989 15.9579 36.3379 16.6289 39.5683L9.13281 45.9541Z" fill="white" stroke="black" stroke-width="1.73451" stroke-miterlimit="10" stroke-linecap="round" stroke-linejoin="round"/>
<path d="M9.72456 34.9384C9.72456 34.9384 7.17497 28.6231 7.14258 25.0311" stroke="black" stroke-width="1.73451" stroke-miterlimit="10" stroke-linecap="round" stroke-linejoin="round"/>
<path d="M4.22464 26.783C4.22464 26.783 3.63235 30.328 7.52384 36.3757" stroke="black" stroke-width="1.73451" stroke-miterlimit="10" stroke-linecap="round" stroke-linejoin="round"/>
<path d="M1.96582 29.9511C1.96582 29.9511 2.51183 34.6042 5.90358 38.0976" stroke="black" stroke-width="1.73451" stroke-miterlimit="10" stroke-linecap="round" stroke-linejoin="round"/>
<path d="M45.2754 44.1186C45.2754 44.1186 46.6358 53.9414 49.9905 57.9982C53.336 62.0597 45.2384 61.5338 45.405 64.0506C45.6548 67.7646 59.0645 76.1788 70.2114 76.6108C92.5701 77.47 99.6405 65.539 99.6405 65.539C99.8765 62.548 96.1053 60.9892 96.1053 60.9892C96.1053 60.9892 97.4564 57.2375 96.1053 55.0354L45.2754 44.1186Z" fill="white" stroke="black" stroke-width="1.73451" stroke-miterlimit="10" stroke-linecap="round" stroke-linejoin="round"/>
<path d="M104.717 31.3183C105.318 48.5974 91.9967 63.0921 74.9686 63.6978C57.9405 64.3035 43.6609 50.7902 43.0593 33.5111C42.4624 16.2367 55.7796 1.7373 72.8077 1.13159C89.8266 0.530579 104.115 14.0393 104.717 31.3183Z" fill="white" stroke="black" stroke-width="1.73451" stroke-miterlimit="10" stroke-linecap="round" stroke-linejoin="round"/>
<path d="M72.4972 13.4934C56.2696 26.0395 58.2685 42.9288 58.2685 42.9288C58.2685 42.9288 77.0596 67.298 101.251 46.8871C101.251 46.8871 107.46 36.9375 104.666 24.9783C101.875 13.0238 92.422 6.59581 92.422 6.59581C92.422 6.59581 83.0565 5.32335 72.4972 13.4934Z" fill="#101210"/>
<path d="M96.6511 53.5374C72.1963 69.8492 53.9697 43.0807 53.9697 43.0807C53.9697 43.0807 55.9317 8.94046 86.1659 3.691" stroke="black" stroke-width="1.73451" stroke-miterlimit="10" stroke-linecap="round" stroke-linejoin="round"/>
<path d="M66.7116 25.8125C63.2736 30.3717 62.2278 39.0347 64.5646 40.2743C66.9013 41.5139 67.4751 31.7052 71.1074 28.3527C74.9249 24.8218 70.1959 21.211 66.7116 25.8125Z" fill="white"/>
<path d="M71.8284 17.5192C70.6345 18.1061 70.1302 19.604 70.7086 20.8107L70.8243 21.0455C71.4027 22.2522 72.8787 22.7687 74.0679 22.1818C75.2571 21.5948 75.7661 20.097 75.1877 18.8903L75.0767 18.6555C74.4936 17.4441 73.0176 16.9276 71.8284 17.5192Z" fill="white"/>
<path d="M97.1185 43.3243C96.7575 42.6622 95.9385 42.4087 95.3231 42.9158C93.6434 44.3009 86.9941 47.3436 88.8219 50.405C90.2193 52.7527 92.7457 51.5131 94.6383 49.5457C96.8038 48.0573 98.4094 45.7002 97.1185 43.3243Z" fill="white"/>
<path d="M48.8031 42.239C45.3975 40.6943 41.4273 35.8909 40.3862 29.9606C39.6366 25.6831 41.8854 21.7107 44.5877 22.6029C44.5877 22.6029 41.2885 33.576 51.5748 38.3606L48.8031 42.239Z" fill="white" stroke="black" stroke-width="1.73451" stroke-miterlimit="10" stroke-linecap="round" stroke-linejoin="round"/>
<path d="M59.129 42.2107C59.6056 45.1077 57.6761 47.8405 54.8257 48.3194C51.98 48.803 49.2777 46.845 48.8057 43.9527C48.3291 41.0556 50.2587 38.3229 53.109 37.8439C55.9594 37.3603 58.6524 39.3136 59.129 42.2107Z" fill="white" stroke="black" stroke-width="1.73451" stroke-miterlimit="10" stroke-linecap="round" stroke-linejoin="round"/>
<path d="M56.1632 42.7093C56.3668 43.9442 55.5432 45.1087 54.3309 45.3106C53.1185 45.5125 51.971 44.6814 51.7674 43.4512C51.5638 42.221 52.3828 41.0518 53.5951 40.8499C54.8121 40.648 55.9596 41.4791 56.1632 42.7093Z" fill="white" stroke="black" stroke-width="1.73451" stroke-miterlimit="10" stroke-linecap="round" stroke-linejoin="round"/>
<path d="M50.5049 58.8042C50.5049 58.8042 59.949 71.2188 75.8805 70.7352" stroke="black" stroke-width="1.73451" stroke-miterlimit="10" stroke-linecap="round" stroke-linejoin="round"/>
<path d="M96.0994 60.9883C96.0994 60.9883 90.5652 67.1065 85.1699 68.8297" stroke="black" stroke-width="1.73451" stroke-miterlimit="10" stroke-linecap="round" stroke-linejoin="round"/>
<path d="M96.6448 79.7703C96.6448 79.7703 94.8911 77.6151 91.143 78.2021C87.3996 78.789 67.9515 81.8363 67.9515 81.8363C66.3828 81.8363 65.1104 83.1229 65.1104 84.7193V110.957C65.1104 112.549 66.3828 113.84 67.9515 113.84L93.8083 109.788C94.5811 109.788 97.0751 106.914 97.0751 106.914L96.6448 79.7703Z" fill="white" stroke="black" stroke-width="1.73451" stroke-miterlimit="10" stroke-linecap="round" stroke-linejoin="round"/>
<path d="M97.7418 105.192C97.7418 106.605 96.6128 107.755 95.2154 107.755L72.2367 111.357C70.8485 111.357 69.7148 110.211 69.7148 108.793V85.4757C69.7148 84.0624 70.8485 82.912 72.2367 82.912L95.2154 79.3106C96.6128 79.3106 97.7418 80.4563 97.7418 81.8743V105.192Z" fill="white" stroke="black" stroke-width="1.73451" stroke-miterlimit="10" stroke-linecap="round" stroke-linejoin="round"/>
<path d="M66.5879 112.765L70.3406 110.488" stroke="black" stroke-width="1.73451" stroke-miterlimit="10" stroke-linecap="round" stroke-linejoin="round"/>
<path d="M65.8994 82.7331L70.013 84.2591" stroke="black" stroke-width="1.73451" stroke-miterlimit="10" stroke-linecap="round" stroke-linejoin="round"/>
</g>
<defs>
<clipPath id="clip0_2243_27316">
<rect width="145.202" height="195.916" fill="white"/>
</clipPath>
</defs>
</svg>
