<svg width="128" height="127" viewBox="0 0 128 127" fill="none" xmlns="http://www.w3.org/2000/svg">
<path d="M47.4883 4.94833C48.7397 3.68828 50.6102 3.35807 52.296 3.76432C53.9319 4.15102 55.596 4.40521 57.2775 4.45952C58.0097 4.53338 58.9699 4.52252 59.3545 5.28289C59.0112 5.80864 59.1003 6.45169 58.9482 7.03609C58.6962 7.72695 58.1835 8.28528 57.6034 8.72412C57.0429 9.09996 56.4477 9.43235 55.9284 9.87119C55.3397 10.3839 55.0768 11.1986 54.3946 11.6135C53.5126 12.1197 52.4047 12.0741 51.5748 12.6933C50.8187 13.2255 50.2322 14.0837 49.2676 14.2531C47.9728 14.4682 46.6606 14.5898 45.3679 14.8158C44.8878 14.8788 44.6402 15.3394 44.3295 15.65C42.8544 17.0513 40.6667 16.645 38.8309 16.8883C37.6665 17.1903 36.88 18.207 35.7742 18.6329C34.7445 19.0413 33.5366 17.8573 33.9754 16.8232C34.4056 15.7174 35.633 15.2438 36.1979 14.2249C37.3297 12.8519 38.0532 11.0509 39.6956 10.1862C40.5602 9.66264 41.6095 9.54749 42.4633 9.01306C42.8913 8.41128 43.0173 7.60311 43.6169 7.12299C44.2665 6.60594 45.1268 6.54728 45.8937 6.317C46.628 6.15623 46.9843 5.42628 47.4883 4.94833ZM47.2276 6.63418C46.4238 7.15341 45.4114 7.17948 44.6054 7.69001C43.8668 8.21793 44.034 9.33459 43.3519 9.9103C42.8131 10.36 42.0897 10.436 41.4444 10.6446C40.3647 10.9401 39.4262 11.5896 38.605 12.3305C37.573 13.3059 36.9495 14.6029 36.1653 15.7652C35.7764 16.3604 35.1247 16.8362 35.0855 17.6009C36.1957 17.1708 36.9561 16.0889 38.1705 15.8608C39.5848 15.4045 41.0795 16.3778 42.4503 15.7261C43.3779 15.3524 43.5474 13.9164 44.7075 13.9859C46.0566 14.0359 47.4687 14.1271 48.7266 13.534C49.3262 13.1169 49.789 12.4825 50.5254 12.2914C51.6617 11.9372 52.8066 11.5136 53.7451 10.7619C54.3012 10.2861 54.6076 9.57356 55.2159 9.1521C55.9827 8.62636 56.8648 8.24834 57.5209 7.5727C57.9467 7.09692 58.0596 6.443 58.2291 5.84991C55.6699 5.48928 53.1672 4.31613 50.5428 4.75063C49.2111 4.89184 48.3421 6.02371 47.2276 6.63418Z" fill="black"/>
<path d="M43.446 10.8832C44.2803 10.5422 45.1036 9.986 46.0508 10.1381C46.2029 10.9419 45.3187 11.1418 44.7191 11.2048C43.6155 11.2938 42.6248 11.8131 41.582 12.1281C42.0144 11.4828 42.7747 11.2091 43.446 10.8832Z" fill="black"/>
<path d="M84.9284 10.7577C84.8654 9.98643 85.9582 10.3275 86.258 10.7273C87.1226 11.9373 87.468 13.4755 87.3898 14.9506C86.6707 14.2771 87.1965 12.9562 86.4861 12.2415C85.9516 11.77 85.2239 11.4442 84.9284 10.7577Z" fill="black"/>
<path d="M87.1397 11.3197C87.0941 10.9569 87.5894 11.0308 87.7045 11.2524C88.1064 11.7629 88.2151 12.4364 88.126 13.0686C87.5307 12.7079 87.2809 11.9628 87.1397 11.3197Z" fill="black"/>
<path d="M42.6523 12.5148C42.9717 12.0369 43.517 11.8305 44.0427 11.6719C43.9949 12.328 43.1194 12.2802 42.6523 12.5148Z" fill="black"/>
<path d="M47.8663 15.9649C49.109 15.5152 50.6297 16.4254 50.7905 17.7485C51.0924 18.9151 50.1061 20.01 49.0286 20.2925C48.2334 20.4554 47.4448 20.173 46.654 20.1274C46.0305 20.1513 45.3071 20.6227 44.7466 20.1599C44.2317 19.7059 43.7864 18.9347 44.1274 18.2503C44.4837 17.5638 45.2636 17.314 45.9176 17.0098C46.5954 16.7122 47.1667 16.2169 47.8663 15.9649ZM46.2261 18.1634C45.6438 18.5306 44.7227 18.8934 45.1246 19.7602C45.633 19.5451 46.1066 19.2475 46.6345 19.0802C47.5187 18.9586 48.379 19.4278 49.2654 19.2757C49.7716 19.1497 50.0214 18.6718 50.2256 18.2416C49.6543 17.6246 49.1546 16.6275 48.1791 16.6948C47.371 16.9381 46.9299 17.742 46.2261 18.1634Z" fill="black"/>
<path d="M86.1949 32.3C86.7467 31.9589 87.3854 32.2804 87.9394 32.4499C88.628 32.7301 89.3993 32.5346 90.0988 32.7845C91.7173 33.3189 92.9709 34.7723 93.2946 36.4429C93.4792 37.1316 93.514 38.0332 94.2266 38.4134C95.1303 38.8957 96.2339 39.2802 96.6836 40.2882C97.0877 41.0725 96.7771 41.9502 96.6076 42.7519C96.2035 43.8729 97.5353 44.7983 97.0703 45.9324C95.769 46.3452 94.2722 46.3495 93.0817 45.6217C92.1757 45.0482 91.8868 43.9445 91.1938 43.1885C90.2075 42.7171 89.0452 42.3152 88.5803 41.2202C87.8742 39.8494 88.7953 38.346 88.4738 36.9383C88.2196 35.8998 87.0074 35.8086 86.2492 35.3002C85.2281 34.6702 85.1369 32.9365 86.1949 32.3ZM86.6619 33.8533C87.2072 35.2263 88.7823 35.789 89.597 36.9687C90.3726 38.2526 89.1494 39.8494 90.0054 41.1008C90.3161 41.6135 90.894 41.8285 91.4197 42.0436C92.4038 42.3977 92.7688 43.4666 93.4054 44.2031C93.9984 44.9743 94.9978 45.2437 95.9254 45.3154C95.8299 44.9309 95.743 44.5507 95.6387 44.1705C95.5518 43.258 95.8885 42.3413 95.6843 41.4375C95.5257 40.8205 94.9522 40.4729 94.5046 40.0753C93.5748 39.3019 93.0578 38.1722 92.5885 37.086C91.8194 35.2546 89.988 34.0358 88.0762 33.6839L88.0675 33.6578C87.6005 33.5666 86.5033 32.9148 86.6619 33.8533Z" fill="black"/>
<path d="M49.0993 47.7854C50.4918 47.1206 52.1103 47.0229 53.5941 47.4161C54.7781 47.8115 56.3184 47.3357 57.157 48.498C57.9717 49.291 57.1266 50.5119 57.7805 51.3613C58.1585 51.9131 58.882 52.0044 59.4512 52.2694C61.8409 53.1688 63.9243 54.6635 66.2293 55.7389C66.8941 54.9525 66.8051 53.7533 67.6523 53.1015C68.1954 52.6127 68.9515 52.4128 69.6706 52.4889C71.5172 52.6344 73.0184 53.9987 74.8824 54.0596C76.2119 54.1791 77.6936 53.5512 78.8841 54.3963C79.6597 55.0328 80.8155 54.6809 81.5302 55.4C82.4253 56.219 82.3883 57.5421 82.9836 58.5371C83.492 59.393 83.82 60.3337 84.1872 61.2549C84.8172 62.7691 86.0751 63.8771 86.9875 65.2088C87.9369 66.5688 87.8369 68.3198 88.467 69.8058C88.7146 70.3402 89.3968 70.3076 89.8639 70.5423C91.1739 71.131 91.8517 72.4888 92.8988 73.4013C93.5919 73.9922 94.2393 74.6331 94.8823 75.2805C95.7904 75.1827 96.7137 75.1306 97.5827 74.8221C98.4626 74.5331 99.3425 74.0182 100.303 74.1855C100.868 74.2746 101.293 74.7069 101.604 75.1588C102.093 76.5905 101.472 78.0765 100.92 79.3952C99.9508 81.6785 98.2345 83.5033 96.7637 85.4651C95.9968 86.4167 95.9512 87.7267 95.2169 88.6956C94.5999 89.5342 93.7483 90.149 92.9271 90.7725C92.473 91.1136 92.0255 91.5329 91.9017 92.1129C91.6627 93.2144 91.8365 94.4093 91.2955 95.439C90.8502 96.4232 89.9747 97.3943 90.331 98.5522C90.8133 99.9708 91.478 101.405 91.3303 102.945C91.163 104.355 90.722 105.819 89.6531 106.812C88.5669 107.855 87.1765 108.472 85.823 109.082C84.6825 109.571 84.0742 110.712 83.5484 111.765C82.9684 112.964 82.1885 114.059 81.25 115.002C80.5548 115.828 79.5011 116.217 78.7929 117.025C78.1846 117.579 77.6284 118.248 76.8311 118.533C75.684 118.971 74.4327 119.178 73.4181 119.916C72.6404 120.481 71.6323 120.427 70.7394 120.229C69.1709 119.867 67.5546 119.908 65.96 119.788C64.9237 119.669 64.2806 118.748 63.8027 117.913C63.2248 116.875 62.447 115.902 61.3456 115.393C60.2941 114.92 60.0964 113.688 59.6228 112.762C59.1231 111.657 58.1064 110.898 57.5698 109.819C57.1331 108.961 57.2265 107.963 57.3591 107.044C57.4416 106.454 57.913 106.043 58.1564 105.526C58.2215 104.592 58.126 103.601 58.5713 102.741C58.8494 102.126 59.2882 101.463 59.0905 100.759C58.7668 99.8036 58.2215 98.9432 57.7849 98.0395C57.1071 96.6426 56.0056 95.5172 54.8564 94.5027C54.159 93.8422 53.3443 93.084 53.3617 92.0434C53.4138 90.7942 54.4631 89.5863 53.8505 88.3306C53.3182 87.0141 51.6802 87.0336 50.5266 86.6513C49.4034 86.3819 48.9841 85.0393 47.8457 84.8155C46.1534 84.4136 44.4566 85.1262 42.7534 84.9676C41.2218 84.796 39.6598 84.9589 38.1499 84.6048C37.0224 84.3615 35.8557 84.2355 34.7825 83.7945C34.0287 83.4295 33.2965 83.0189 32.6231 82.5257C31.5629 81.6002 30.1573 80.8659 29.6815 79.4582C29.423 78.7934 29.3144 78.083 29.1036 77.4052C28.919 76.8403 28.504 76.3971 28.2346 75.8779L28.0978 75.9018C27.9609 75.3609 27.4026 75.1067 27.1223 74.6526C26.6227 73.8879 26.2099 72.9907 26.2968 72.0565C26.3663 71.2179 26.8203 70.4793 26.9941 69.6667C27.2288 68.3589 26.7139 67.0446 26.9637 65.7367C27.0789 64.9307 27.4916 64.2181 27.8545 63.5034C28.4323 62.3824 28.226 61.0311 28.7821 59.9036C29.3426 58.9303 30.3876 58.4198 31.1849 57.6768C31.8366 57.1054 32.3841 56.4189 33.0858 55.9062C34.1395 55.2066 35.2822 54.644 36.338 53.9444C37.2809 53.2384 37.0875 51.911 37.6915 50.9964C38.1021 50.2686 38.932 50.0035 39.6185 49.619C40.2594 49.2671 40.7743 48.6718 41.5107 48.511C42.9554 48.1613 44.3415 49.3409 45.771 48.8304C46.8942 48.5241 48.0478 48.3025 49.0993 47.7854ZM51.7149 48.2612C49.8205 48.4611 48.1086 49.3974 46.2229 49.6212C44.7521 49.9362 43.34 49.1802 41.8714 49.1932C41.174 49.2519 40.7982 49.9101 40.3224 50.3316C39.7402 50.9529 38.8712 51.1658 38.2411 51.7198C37.4438 52.5432 37.6763 53.8706 36.9224 54.7287C36.1816 55.7194 34.8825 55.8953 33.8679 56.4776C33.0163 56.9751 31.9844 57.2857 31.4087 58.1395C30.8221 58.9976 30.2464 59.8666 29.549 60.6401C29.0276 61.2136 28.5692 61.9305 28.6192 62.7365C28.6539 63.5599 28.5692 64.3876 28.2412 65.1523C27.3809 67.3009 28.0999 69.6537 27.5308 71.8566C27.2701 72.9928 27.7285 74.1747 28.5475 74.9698C29.9618 76.3884 30.5961 78.3285 31.3956 80.1143C31.9974 81.4264 33.479 81.9261 34.6869 82.517C37.1006 83.499 39.6772 84.2963 42.3124 84.1355C43.2705 84.0943 44.1525 83.6076 45.1171 83.6185C46.149 83.6163 47.1288 83.9813 48.1412 84.1247C48.706 84.2268 49.323 84.2311 49.8183 84.5614C50.3267 84.9068 50.6309 85.4738 51.137 85.8236C52.0756 86.3384 53.2639 86.1234 54.1633 86.7382C55.0693 87.3595 55.3691 88.6674 54.8737 89.6428C54.5891 90.5075 53.9461 91.5285 54.55 92.3975C55.7949 94.2333 57.4069 95.791 58.706 97.5854C59.4859 98.9346 60.5287 100.438 60.0986 102.08C59.9335 102.936 59.1144 103.479 58.9341 104.331C58.7451 104.948 59.0623 105.556 59.0666 106.175C58.9689 107.021 58.0152 107.485 57.9587 108.344C57.9826 109.137 58.656 109.654 59.1622 110.175C59.7466 110.727 60.1225 111.448 60.4244 112.182C60.822 113.162 61.4325 114.033 62.0364 114.894C62.5383 115.632 63.3856 116.01 64.0025 116.636C64.739 117.268 65.2561 118.165 66.1359 118.624C68.1129 119.299 70.2311 119.297 72.2971 119.191C73.0119 118.963 73.5984 118.446 74.3197 118.222C75.3256 117.783 76.5356 117.694 77.333 116.871C77.9326 116.288 78.7385 115.986 79.3599 115.43C81.0957 113.929 82.2906 111.937 83.4529 109.986C84.5043 108.124 86.7507 107.659 88.2975 106.349C89.3186 105.5 90.5851 104.407 90.3657 102.93C89.9204 101.353 89.1209 99.8253 89.1535 98.1459C89.2143 96.8533 90.016 95.7736 90.4309 94.5852C90.8133 93.638 90.7046 92.5909 90.9805 91.6176C91.1717 90.6617 91.9386 89.9861 92.6316 89.3691C93.6592 88.5261 94.6673 87.6202 95.395 86.4949C97.1808 83.297 99.6705 80.3771 100.424 76.7013C100.513 76.1864 100.618 75.426 99.992 75.2109C99.2338 74.9828 98.5082 75.4521 97.8043 75.6715C96.818 76.1125 95.7253 76.2407 94.6564 76.1799C93.5636 75.8453 92.9227 74.8308 92.3231 73.9335C91.226 72.3172 89.0796 71.8936 87.9586 70.3011C87.3633 69.3952 87.1048 68.3263 86.8376 67.29C86.5595 66.0626 85.7057 65.098 85.0844 64.0378C84.2045 62.5518 83.0596 61.2136 82.3862 59.6125C81.943 58.5784 82.1168 57.2271 81.1413 56.4732C80.1116 55.6759 78.8428 55.009 77.5024 55.1589C75.973 55.287 74.4935 54.8004 72.9967 54.581C71.4629 54.3377 69.953 53.4817 68.3736 53.8814C67.8001 54.0161 67.761 54.657 67.6741 55.1306C67.548 55.9431 66.8681 56.7795 65.9904 56.7578C64.3176 56.4254 63.5333 54.6092 61.8974 54.1921C60.1485 53.6207 57.8348 53.3948 56.9897 51.4917C56.5987 50.8899 56.7008 50.1708 56.6726 49.4952C56.5227 48.9542 55.9687 48.6609 55.469 48.5067C54.2459 48.2069 52.9663 48.0961 51.7149 48.2612Z" fill="black"/>
<path d="M3.03711 68.1546C2.86548 67.7049 3.61282 67.7266 3.81269 67.9569C4.89459 68.6847 4.90545 70.0903 5.28129 71.2113C5.70058 72.3453 5.92001 73.5424 6.00256 74.7459C5.20526 73.5858 5.47682 72.0412 4.88373 70.7942C4.34061 69.8687 3.44554 69.1561 3.03711 68.1546Z" fill="black"/>
<path d="M30.6226 70.5964C30.8442 70.138 31.4569 70.4596 31.5568 70.8463C32.0196 72.2149 31.9153 73.8204 32.8755 74.9914C33.7206 75.956 35.0133 76.3101 36.1169 76.8836C35.5433 77.6005 34.5071 77.1378 33.8119 76.8706C32.2259 76.0211 31.9913 74.0898 31.3504 72.5886C31.118 71.9282 30.4945 71.3351 30.6226 70.5964Z" fill="black"/>
<path d="M3.72656 71.3021C4.00464 70.9849 4.29793 71.352 4.3631 71.6366C4.57166 72.0494 4.53038 72.5143 4.45217 72.9553C4.12196 72.4513 3.8026 71.9125 3.72656 71.3021Z" fill="black"/>
<path d="M37.8789 70.1316C37.7594 69.8905 37.9224 69.4278 38.2547 69.5342C38.7979 69.8275 39.0412 70.4836 39.593 70.7769C39.9797 70.9963 40.3751 71.1962 40.7422 71.446C39.6603 71.7045 38.2439 71.2809 37.8789 70.1316Z" fill="black"/>
<path d="M37.7148 76.8164C38.3427 77.0119 38.8945 77.3813 39.5028 77.6246C39.3725 78.0395 38.9032 77.7875 38.6099 77.7288C38.1493 77.6202 37.7496 77.3183 37.7148 76.8164Z" fill="black"/>
<path d="M92.9239 79.2255C93.089 78.9235 93.5973 79.1538 93.48 79.4862C93.2736 80.6202 92.5828 81.5979 91.8767 82.4842C91.3944 83.0513 91.0121 83.7573 90.293 84.0593C90.4733 83.1186 91.1272 82.3843 91.5617 81.5566C92.031 80.7897 92.409 79.9641 92.9239 79.2255Z" fill="black"/>
<path d="M92.9001 81.6265C93.0891 81.1508 93.2933 80.6098 93.8125 80.4121C93.8886 81.1768 93.4866 81.9176 92.9153 82.4021C92.5525 82.2566 92.8675 81.8699 92.9001 81.6265Z" fill="black"/>
<path d="M94.1942 82.3457C94.1746 81.9438 94.1681 81.4029 94.62 81.2334C95.0306 81.6071 94.4766 82.0894 94.1942 82.3457Z" fill="black"/>
<path d="M97.7893 100.447C98.5171 100.171 99.3318 99.9341 100.107 100.136C100.314 100.438 100.518 100.781 100.455 101.168C100.353 102.474 99.41 103.545 99.3361 104.859C99.2731 105.826 99.0993 106.825 98.504 107.62C97.5308 109.163 95.5082 109.541 94.5023 111.049C93.8853 111.989 93.1793 112.91 92.1843 113.48C91.6433 113.669 90.9329 113.821 90.4484 113.427C90.1725 113.18 90.5462 112.869 90.4854 112.582C90.329 111.385 90.1247 110.13 90.4702 108.948C90.7526 108.009 91.5781 107.429 92.282 106.821C93.0163 106.208 92.7448 105.105 93.3009 104.377C94.0005 103.093 95.4995 102.682 96.5075 101.72C96.9507 101.311 97.37 100.877 97.7893 100.447ZM97.7285 101.865C97.168 102.391 96.7508 103.065 96.1034 103.495C95.3843 104.018 94.4762 104.255 93.8332 104.885C93.2401 105.535 93.4595 106.482 93.1358 107.245C92.7578 108.296 91.6585 108.863 91.2653 109.904C90.8677 110.901 91.3283 111.959 91.198 112.989C92.206 112.498 92.6709 111.388 93.579 110.768C94.7217 109.971 95.7797 109.056 96.7639 108.072C97.798 106.995 98.1478 105.5 98.73 104.168C99.1384 103.119 99.7902 102.098 99.7033 100.927C99.0146 101.162 98.2955 101.39 97.7285 101.865Z" fill="black"/>
<path d="M61.2047 0.892038C63.3881 0.968075 65.554 0.359777 67.7395 0.648719C69.3993 0.900728 71.0852 0.750826 72.7471 0.976765C74.0528 1.10277 75.3281 1.41995 76.5968 1.748C78.6976 2.3324 80.9483 2.20422 82.9817 3.06453C82.6407 3.50337 82.267 3.92049 81.8129 4.24637C81.1177 4.76125 80.2205 4.92853 79.5622 5.50206C79.1755 5.8149 78.9626 6.27764 78.652 6.65349C78.5347 6.6448 78.3022 6.62742 78.1871 6.61873C78.5586 5.67152 79.1038 4.78297 79.9663 4.20726C77.2551 3.38389 74.4113 3.17533 71.6088 2.85597C69.8143 2.60613 68.0089 2.86466 66.2058 2.84076C63.5293 3.01022 60.8462 2.96025 58.1697 3.13839C56.2145 3.23398 54.1723 3.05149 52.3083 3.76407C50.6225 3.35782 48.752 3.68803 47.5006 4.94808C46.9162 4.96329 46.3253 4.99587 45.7648 5.17185C42.6147 6.07343 39.5102 7.21399 36.6903 8.90201C35.7713 9.50597 34.6482 9.50597 33.6097 9.73408C32.9558 9.86008 32.3823 10.2099 31.7957 10.5053C29.7188 10.9246 28.6499 13.3013 26.4883 13.4403C26.4883 13.2796 26.4905 12.9602 26.4905 12.7995C28.1307 11.761 29.8491 10.8464 31.4437 9.73408C33.9247 8.02215 36.712 6.80991 39.5906 5.94525C43.2643 4.88508 46.7641 3.31219 50.4248 2.2216C52.5104 1.59593 54.6872 1.46992 56.838 1.26353C58.2914 1.12449 59.7383 0.829035 61.2047 0.892038Z" fill="#A79CEE"/>
<path d="M72.1279 4.39849C72.8362 4.32463 73.6052 4.34635 74.2309 4.72871C74.761 5.15452 75.152 6.06697 74.5981 6.62095C73.9659 7.42695 72.7927 7.16407 71.9281 6.99462C70.3769 6.47757 68.715 6.6883 67.1356 6.34505C66.7358 6.22121 66.2731 6.12997 66.0124 5.77585C66.4056 5.15886 67.2572 4.97203 67.9481 4.88079C69.3428 4.74175 70.7419 4.62226 72.1279 4.39849ZM66.0835 6.65637C65.6425 6.68896 67.0334 5.79323 66.6315 5.97138C68.2891 6.20383 69.9663 6.01265 71.6283 6.16038C72.4864 6.19949 73.3597 6.33635 74.2092 6.17559C74.559 6.15387 74.1164 7.17928 73.8274 6.99462C73.5189 6.80127 71.8909 7.13362 71.5498 7.11189C69.7228 7.16838 67.9041 6.5043 66.0835 6.65637Z" fill="#A79CEE"/>
<path d="M55.9271 9.87071C56.4463 9.43186 57.0415 9.09947 57.602 8.72363C57.5868 9.295 57.1936 9.73819 56.909 10.2009C56.4093 10.9331 56.0226 11.7629 55.3513 12.356C54.7039 12.8231 53.9392 13.0925 53.2918 13.5639C52.3272 14.2896 51.1085 14.4981 50.0635 15.0738C48.899 15.6995 47.5325 15.5822 46.279 15.8972C45.6142 16.0232 44.7539 16.4229 44.3281 15.6495C44.6388 15.3389 44.8865 14.8783 45.3666 14.8153C46.6592 14.5894 47.9714 14.4677 49.2662 14.2526C50.2308 14.0832 50.8174 13.225 51.5734 12.6928C52.4033 12.0736 53.5112 12.1192 54.3933 11.613C55.0754 11.1981 55.3383 10.3834 55.9271 9.87071Z" fill="#A79CEE"/>
<path d="M54.7429 24.7716C55.3838 24.4414 56.205 24.3719 56.8589 24.6956C57.6497 25.2952 57.4346 26.6052 56.5526 27.0049C55.5228 27.3873 54.3736 27.4829 53.3004 27.2374C54.1889 26.7877 55.1948 26.6986 56.1268 26.3858C56.5396 26.2902 56.9782 26.5792 56.5176 26.6987C55.1337 26.9529 52.8125 28.481 51.5068 28.9763C50.2316 29.4477 49.5949 30.1764 48.7737 31.2539C48.3501 31.3234 48.0821 29.8813 47.6562 29.9291C47.9626 29.147 47.996 28.3846 48.7737 28.0653C49.571 27.8589 48.2624 27.4916 48.9293 27.0049C48.8555 26.9115 51.3669 26.8072 51.293 26.7116C52.4184 26.023 53.5502 25.3365 54.7429 24.7716Z" fill="#A79CEE"/>
<path d="M86.6523 33.8532C86.4937 32.9147 87.5908 33.5664 88.0579 33.6577L88.0665 33.6837C88.1991 34.1139 88.2903 34.5679 88.5249 34.9612C89.4005 35.6042 90.8604 35.652 91.2297 36.8447C91.5556 37.5942 91.2232 38.3763 90.8104 39.0129C91.1385 39.5408 91.4578 40.073 91.7685 40.6118C92.3529 40.8595 93.0155 41.0507 93.413 41.5829C94.1278 42.4671 94.6557 43.5273 95.629 44.1704C95.7333 44.5505 95.8202 44.9307 95.9158 45.3153C94.9881 45.2436 93.9888 44.9742 93.3957 44.2029C92.7591 43.4665 92.3941 42.3976 91.41 42.0435C90.8843 41.8284 90.3064 41.6133 89.9957 41.1006C89.1398 39.8493 90.3629 38.2525 89.5873 36.9685C88.7726 35.7889 87.1975 35.2262 86.6523 33.8532Z" fill="#A79CEE"/>
<path d="M4.91119 47.47C4.93074 47.0159 5.13496 46.3512 5.7237 46.5011C6.17558 46.7596 6.43411 47.2419 6.76433 47.6308C7.51166 47.7133 8.03306 48.2065 8.3068 48.8843C8.60443 48.9864 9.08455 48.9321 9.18231 49.3166C9.29311 49.9814 9.43432 50.7961 8.90206 51.324C8.96506 50.6809 9.05848 50.0118 8.82168 49.3926C8.58705 49.8597 8.57401 50.3855 8.59791 50.8982C8.52404 51.5108 8.50232 52.1865 8.06782 52.6688C7.94399 52.4971 7.6985 52.1539 7.57684 51.9801C7.67895 51.0416 7.82016 50.0726 7.62029 49.1385C7.57032 48.7996 9.45126 48.241 9.14929 48.1085C9.08628 49.0362 10.4963 51.2806 10.5159 52.2082C10.5506 52.6753 7.44598 52.2901 7.78272 52.6637C7.08969 53.4871 6.46318 56.5824 5.50511 57.219C5.37476 56.9561 4.72224 55.6576 4.59406 55.3969C4.93297 53.5568 4.41545 51.825 4.1352 49.9306C4.00702 49.1941 4.59401 49.0196 4.91119 47.47Z" fill="#A79CEE"/>
<path d="M123.475 50.6372C123.256 50.2244 123.154 49.6487 123.677 49.4336C124.631 50.472 125.022 51.8646 125.513 53.1529C125.691 53.683 126.187 53.9741 126.654 54.2196C126.764 55.6708 126.782 57.1264 126.843 58.582C127.132 61.9689 127.314 65.421 126.66 68.7796C126.113 71.895 125.843 75.0581 125.087 78.1365C124.677 79.9962 123.962 81.7668 123.419 83.5873C122.663 85.9271 121.985 88.3016 121.031 90.5697L121.036 90.4546C121.209 87.6673 122.107 84.9886 122.973 82.3534C123.421 80.8478 123.538 79.2771 123.725 77.726C123.877 76.1379 124.49 74.6432 124.731 73.0703C124.84 72.197 125.259 71.3019 124.955 70.4286L124.959 70.4242C125.355 69.9854 125.292 69.364 125.328 68.8166C125.357 67.5109 125.355 66.2052 125.333 64.8996C125.313 63.444 124.953 62.0145 124.996 60.5589C124.998 59.0881 125.172 57.6 124.924 56.1444C124.522 55.0017 124.19 53.8307 123.714 52.7141L123.677 52.5403C123.688 51.8994 123.786 51.2302 123.475 50.6372Z" fill="#A79CEE"/>
<path d="M96.5788 52.6689C97.9518 53.2533 98.8056 54.7263 100.302 55.1217C101.404 55.5084 102.505 55.0217 103.559 54.7285C104.584 54.4526 105.377 55.4367 106.39 55.3346C107.993 55.3541 109.347 54.4113 110.696 53.69C110.802 54.509 110.872 55.4584 111.567 56.0189C112.34 56.8488 113.687 55.9668 114.43 56.864C115.238 58.0307 116.194 59.1299 116.694 60.4791C117.144 61.5979 117.732 62.682 117.911 63.892C116.881 62.6537 116.485 61.0048 115.351 59.8447C114.628 59.1147 113.841 58.4391 112.975 57.8894C111.973 57.2008 110.615 57.4723 109.662 56.6772C109.008 57.1117 108.299 57.4549 107.552 57.6983C107.281 57.0552 106.724 56.4317 105.966 56.4751C104.865 56.4947 103.613 56.3252 102.705 57.0965C102.064 57.5331 101.775 58.3696 101.056 58.6911C100.437 58.9496 99.9983 58.3022 99.7985 57.8112C99.3401 56.6815 98.6688 55.6518 97.8476 54.7545C97.4 54.1071 96.3681 53.5423 96.5788 52.6689Z" fill="#A79CEE"/>
<path d="M3.87112 59.0301C3.46486 56.9858 4.28389 55.0045 4.86829 53.084C4.95302 53.5207 5.03992 53.9573 5.10292 54.3983C5.0812 54.5982 5.05296 54.8003 5.0182 55.0001C4.60977 55.8539 4.68146 56.8142 4.66843 57.7353C4.66843 59.0279 4.60542 60.3466 4.96823 61.6045C5.47007 63.4446 6.09141 65.2717 7.05382 66.9293C7.85764 68.3653 8.8005 69.7318 9.43704 71.2569C10.1713 72.9471 10.432 74.7807 10.8644 76.5578C11.1663 78.009 12.5198 78.8454 13.1694 80.1098C13.9319 81.5349 14.8053 82.9992 14.8618 84.659C14.8444 85.6822 14.6619 86.6946 14.688 87.72C14.7662 88.8562 13.9059 89.7252 13.6213 90.768C13.3128 91.7609 13.5669 92.8688 14.1774 93.6944C15.0942 94.9892 15.7633 96.7141 15.2137 98.2848C15.0508 98.0785 14.8878 97.8742 14.7271 97.67C14.8683 95.6409 12.8631 94.5655 12.1548 92.8819C11.4705 91.0548 12.1939 89.1539 12.9239 87.4702C13.6256 86.0146 13.6473 84.2397 12.8631 82.8102C11.9984 80.8875 10.0062 79.7014 9.37404 77.6527C8.93954 76.2319 8.71578 74.7524 8.19221 73.3598C7.42314 71.2656 6.72143 69.1039 5.37666 67.2943C4.1731 65.7496 3.67994 63.7857 3.44531 61.8782C3.48224 60.5791 3.41055 59.2691 3.59521 57.9808C3.63215 58.3306 3.53438 58.7955 3.87112 59.0301Z" fill="#A79CEE"/>
<path d="M104.287 73.3965C104.048 72.0365 106.142 71.917 106.62 72.9272C107.324 74.2546 106.952 75.8622 106.483 77.2048C106.961 77.3852 107.467 77.6676 107.596 78.2085C107.808 79.2948 107.359 80.633 106.314 81.1284C105.453 81.426 105.28 80.2746 104.912 79.7619C105.323 78.9037 111.188 75.9751 110.726 74.9844C110.017 76.1054 105.657 79.6462 105.259 80.9062C105.04 81.5623 102.254 82.9839 101.615 83.1838C101.393 83.06 100.012 81.9389 99.793 81.8172C100.688 80.6376 100.296 79.381 101.154 78.1731C101.958 77.0738 103.48 75.3942 102.976 74.0734C102.852 73.6193 104.758 73.164 104.287 73.3965ZM109.814 77.7175C110.438 77.0853 106.924 79.3165 106.776 78.3497C106.033 78.9124 110.027 76.842 109.814 77.7175Z" fill="#A79CEE"/>
<path d="M101.612 75.1589C102.177 75.1111 102.724 75.4022 103.022 75.8845C103.376 76.4928 103.196 77.2489 103.508 77.8745C102.798 79.4366 101.694 80.8356 101.31 82.5345C100.973 84.0422 99.9043 85.2132 99.1005 86.4863C98.1793 87.7615 97.5363 89.2149 96.5652 90.4576C95.5072 91.5743 94.3362 92.591 93.3217 93.7511C93.0588 94.3681 93.2261 95.0959 93.0566 95.7476C92.7025 96.9056 92.3484 98.0678 91.9899 99.2214C92.1854 100.256 93.0762 101.133 92.8481 102.261C92.5504 104.296 92.0377 106.441 90.6321 108.018C89.7305 109.022 88.6269 109.828 87.4538 110.486C86.5956 110.975 85.9308 111.728 85.3834 112.539C84.6621 113.605 83.7192 114.596 82.4853 115.048C82.0899 115.165 81.5967 115.363 81.2578 115.002C82.1963 114.06 82.9763 112.965 83.5563 111.765C84.082 110.712 84.6903 109.571 85.8309 109.082C87.1844 108.472 88.5748 107.855 89.661 106.812C90.7299 105.819 91.1709 104.355 91.3382 102.945C91.4859 101.405 90.8211 99.9709 90.3388 98.5523C89.9825 97.3944 90.8581 96.4233 91.3034 95.4391C91.8444 94.4094 91.6706 93.2145 91.9095 92.113C92.0334 91.533 92.4809 91.1137 92.935 90.7726C93.7562 90.1491 94.6078 89.5343 95.2248 88.6957C95.9591 87.7268 96.0047 86.4168 96.7716 85.4652C98.2424 83.5035 99.9586 81.6786 100.928 79.3953C101.479 78.0766 102.101 76.5906 101.612 75.1589Z" fill="#A79CEE"/>
<path d="M122.073 75.1806C122.645 74.883 123.257 75.3501 123.433 75.8975C123.796 76.9295 123.366 78.0092 123.101 79.0129C122.545 81.1528 121.113 82.906 120.325 84.9503C119.808 86.0713 119.364 87.2379 118.673 88.2677L118.547 88.3025C118.454 88.3307 119.022 89.5334 118.929 89.5616C118.479 90.2394 117.684 90.1048 117.562 90.9282H117.107C116.811 91.3605 115.284 92.2948 114.829 92.7503C114.783 92.4353 112.142 91.241 112.096 90.9282C113.108 89.288 110.425 88.6034 111.185 86.8285C112.132 84.5582 110.351 85.049 111.188 82.7288C111.409 81.9402 116.954 78.9774 116.648 78.1736C116.548 77.8086 121.367 76.5688 121.324 76.7752C120.896 77.7485 120.579 78.7674 120.186 79.7537C120.023 78.9455 120.461 78.2112 120.627 77.4443C120.835 76.5754 121.213 75.5869 122.073 75.1806Z" fill="#A79CEE"/>
<path d="M26.1621 77.01C26.7074 76.6689 27.3048 77.1946 27.6177 77.6226C28.7104 79.3258 29.4578 81.2246 30.5462 82.9278C31.4065 84.2487 35.4519 86.1521 36.4752 87.284C34.4461 86.4063 30.6033 88.5513 29.1868 86.8285C28.2613 85.7835 26.5836 79.6696 26.1621 78.4225C26.1034 78.0597 26.6183 77.5487 26.5553 78.1223C26.7487 79.8081 27.6568 81.3071 28.4215 82.7888C27.1158 82.2783 26.5532 80.8488 26.0231 79.6561C25.7493 78.8305 25.3974 77.6726 26.1621 77.01Z" fill="#A79CEE"/>
<path d="M32.6168 82.5254C33.2902 83.0185 34.0224 83.4291 34.7762 83.7941C34.9848 84.4502 35.6735 84.7153 36.0297 85.2649C34.5568 85.7906 33.0643 84.8326 32.0258 83.8615C31.5761 83.327 32.1019 82.7318 32.6168 82.5254ZM32.375 83.6393C32.6227 84.2498 33.4249 84.3264 33.9528 84.6045C33.9594 84.548 32.8241 84.6068 32.8306 84.5503C32.3266 84.2831 31.9195 84.0948 32.375 83.6393Z" fill="#A79CEE"/>
<path d="M35.2127 86.2515C35.6211 86.4426 36.0209 86.6512 36.4141 86.875C36.3576 86.9706 36.2468 87.1639 36.1903 87.2595C35.4343 87.2465 34.5045 87.2595 33.9961 86.5925C34.4132 86.523 34.8173 86.397 35.2127 86.2515Z" fill="#A79CEE"/>
<path d="M100.091 100.135C100.419 100.068 100.86 99.7856 101.125 100.135C101.807 100.863 101.612 102.056 101.012 102.771C100.419 103.425 100.775 104.322 100.873 105.087C101.032 105.797 100.667 106.479 100.317 107.068C98.4139 109.523 95.6548 111.083 93.5236 113.303C93.1565 113.614 92.5243 114.055 92.168 113.479C93.163 112.91 93.869 111.989 94.486 111.048C95.4919 109.54 97.5145 109.162 98.4878 107.62C99.083 106.825 99.2568 105.825 99.3198 104.858C99.3937 103.544 100.337 102.473 100.439 101.167C100.502 100.781 100.297 100.437 100.091 100.135Z" fill="#A79CEE"/>
<path d="M28.1941 108.039C28.2723 107.679 28.5199 107.201 28.9653 107.333C30.0211 107.796 30.7945 108.704 31.4876 109.595C32.1458 110.418 33.0409 110.996 33.7904 111.722C34.5725 112.695 32.095 111.591 33.2877 111.882C32.4839 111.071 34.3023 111.798 33.2877 111.268C34.2262 110.909 35.766 111.426 36.4764 111.882C37.0347 112.249 37.6661 113.077 38.2005 113.483C37.8921 113.523 37.5836 113.564 37.2751 113.605C38.1832 114.259 39.3433 114.604 40.0298 115.532C39.2586 116.162 38.231 115.83 37.3663 115.639L37.3359 115.454C37.3207 115.369 36.9471 116.066 36.9319 115.981C35.6327 114.713 30.6446 114.637 29.1825 113.605C27.803 112.515 29.113 109.871 27.8182 108.693C27.6162 108.493 28.7002 108.157 28.433 108.096L28.1941 108.039Z" fill="#A79CEE"/>
<path d="M58.1639 3.13819C60.8404 2.96005 63.5234 3.01002 66.1999 2.84056C68.0031 2.86446 69.8084 2.60593 71.6029 2.85577C74.4054 3.17513 77.2492 3.38368 79.9605 4.20706C79.098 4.78277 78.5527 5.67132 78.1812 6.61852C78.2964 6.62721 78.5288 6.64459 78.6461 6.65328C78.5679 7.08126 78.3789 7.52663 78.5288 7.96112C78.7461 8.46731 79.2305 8.83229 79.3152 9.39931C79.5477 10.1879 79.2479 11.0504 79.526 11.8216C80.3341 13.06 82.1873 12.1627 83.1475 13.2077C83.745 13.8768 83.5342 14.8392 83.2779 15.6083C82.1504 15.4171 81.3118 14.5807 80.3146 14.1028C79.4499 13.69 78.3941 14.1527 77.9835 14.9826C77.6381 15.7147 77.5121 16.5794 76.8886 17.1508C76.3324 17.7764 75.4721 17.9307 74.6857 18.0393C75.0224 17.1942 75.5916 16.2383 75.1615 15.3215C74.7747 14.5698 73.8905 13.9811 73.0259 14.2027C71.5703 14.5351 70.2516 13.5748 68.8308 13.4271C67.9314 13.2425 66.9559 13.3098 66.1673 13.816C64.879 14.6307 63.2584 14.6633 61.9918 15.5192C61.0251 16.1623 60.5971 17.2898 59.9453 18.2022C59.1915 19.3406 57.9749 20.0815 57.2449 21.2372C56.843 21.889 56.6692 22.847 57.2558 23.4445C57.8641 24.1266 58.8156 24.2309 59.6716 24.3048C59.7998 25.0108 59.8519 25.8255 60.4254 26.3382C61.2684 27.1095 62.5784 27.0899 63.5712 26.6359C64.4554 26.2731 65.5395 26.0623 66.0001 25.1129C66.6844 23.8703 65.2223 22.7167 65.5395 21.448C65.6438 20.9396 66.0631 20.6007 66.4389 20.2857C66.5714 21.1807 66.2716 22.2909 67.0537 22.96C68.0053 23.6682 69.261 23.5096 70.3733 23.6031C70.7817 24.7806 69.4261 25.2954 68.7504 25.9559C67.145 27.1638 65.8632 28.9539 63.8254 29.4558C62.7782 29.7664 61.8854 28.9778 60.9621 28.6324C59.7302 28.1914 58.4398 27.5765 57.1015 27.885C56.0718 28.0263 55.3896 28.8822 54.5032 29.3298C53.5061 29.9359 52.259 29.9511 51.2966 30.6332C50.5341 31.159 49.6977 31.6065 49.059 32.293C48.5072 32.8948 47.6143 33.2772 47.4448 34.1505C47.1298 35.2932 47.9488 36.373 47.7446 37.5157C47.6642 37.9024 47.347 38.4129 46.8821 38.2522C45.8589 37.9741 45.6677 36.7857 45.0985 36.0384C44.5663 35.1694 43.4822 34.8805 42.5198 34.9652C41.6225 35.0347 40.5406 35.0152 39.8997 35.7603C39.324 36.436 39.5044 37.3745 39.5217 38.187C39.6564 39.988 39.5413 41.7933 39.4761 43.5943C39.4261 44.3373 39.815 45.1889 40.5884 45.3845C41.4009 45.5061 42.2938 45.2411 43.0412 45.6951C43.9536 46.2317 44.8313 47.1724 45.9914 46.9639C47.1798 46.6749 47.6382 45.4084 48.2052 44.4677C48.5658 43.8659 49.3349 44.1679 49.9019 44.0918C50.986 44.1157 51.7768 43.0903 51.8658 42.0823C51.9245 41.487 52.0744 40.7266 52.7413 40.5376C53.4387 40.6332 53.9883 41.1763 54.6944 41.2654C56.1174 41.5848 57.5469 40.8678 58.5267 39.8707C58.846 39.5991 59.1046 39.2146 59.5173 39.0799C60.2734 39.3449 60.5797 40.1509 61.062 40.7179C61.6833 41.4718 62.6913 41.6695 63.4821 42.18C64.1035 42.5515 64.11 43.3554 64.4033 43.9463C64.8812 44.9956 65.0724 46.2904 66.0891 46.9899C66.8473 47.5678 67.8575 47.2984 68.7178 47.5722C69.526 47.8481 70.4906 47.5939 70.9968 46.8878C71.7789 45.7516 71.8136 44.3265 72.1982 43.0447C72.4589 42.117 73.4495 41.6738 73.7906 40.7875C74.0709 40.3095 74.1816 39.6621 74.6965 39.3688C75.6959 39.4405 76.6322 39.8555 77.612 40.051C78.3615 40.1357 78.9459 41.487 78.0509 41.7955C77.1037 41.8064 76.1369 41.4457 75.1984 41.7564C74.4532 42.0106 73.6885 42.3777 73.2062 43.0251C72.7608 43.6595 73.304 44.3221 73.5386 44.9174C73.6581 45.5865 73.4539 46.2926 73.6907 46.9487C74.0187 47.8046 74.7813 48.4151 75.6025 48.7735C76.4106 49.1342 77.2144 49.7903 78.1595 49.5013C79.5195 49.0082 80.2168 47.6352 81.3226 46.7987C81.8527 46.3816 82.1352 47.1464 82.2633 47.5504C82.6804 49.3232 81.5247 50.9808 81.6507 52.747C81.7289 53.7811 82.4328 54.6545 83.2887 55.1846C83.8145 55.5669 84.6118 55.8863 84.577 56.6619C84.6009 57.596 84.3272 58.6084 84.8334 59.4666C85.3765 60.555 86.7321 60.7657 87.4686 61.6586C88.1768 62.9186 88.0943 64.4741 88.8481 65.719C89.9344 67.5569 92.5653 67.8567 93.3474 69.9271C93.7037 70.7831 93.5711 71.8041 94.1816 72.5667C94.5987 73.2727 95.3352 73.9136 96.2172 73.7333C97.3143 73.6529 97.9378 72.6492 98.7808 72.0931C100.121 71.3045 101.829 71.2654 103.017 70.1943C104.112 69.3275 104.642 67.9328 105.789 67.1202C106.421 66.6749 107.251 66.4598 107.675 65.7603C108.292 64.7262 108.527 63.4227 108.172 62.2582C107.975 61.45 107.551 60.7222 107.33 59.9271C107.301 59.1798 107.568 58.4498 107.558 57.6981C108.305 57.4548 109.013 57.1116 109.667 56.6771C110.621 57.4722 111.979 57.2006 112.98 57.8893C113.847 58.439 114.633 59.1146 115.357 59.8446C116.491 61.0047 116.886 62.6536 117.916 63.8919C118.37 65.0629 118.568 66.3273 118.959 67.5243C119.419 68.6584 120.999 69.5621 122.035 68.5758C122.398 69.3405 122.548 70.1704 122.557 71.0112C122.567 71.7824 123.467 72.4363 124.186 72.0518C124.725 71.6955 124.783 70.9916 124.964 70.4289C125.268 71.3023 124.848 72.1973 124.74 73.0707C124.499 74.6436 123.886 76.1383 123.734 77.7263C123.547 79.2775 123.43 80.8482 122.982 82.3537C122.116 84.989 121.218 87.6677 121.044 90.455C120.527 92.4276 119.428 94.209 118.268 95.871C117.366 97.1962 116.61 98.6105 115.83 100.01C115.285 101.009 114.468 101.817 113.775 102.712C112.422 104.437 111.168 106.284 109.443 107.67C107.162 109.438 105.214 111.589 102.976 113.407C101.203 114.663 99.2153 115.578 97.3926 116.757C94.564 118.567 91.5312 120.01 88.5809 121.6C87.4165 122.184 86.1456 122.497 84.8899 122.812C82.9672 123.305 81.1684 124.176 79.2414 124.652C75.5438 125.586 71.7528 126.166 67.9466 126.392C64.4641 126.542 60.9881 126.192 57.51 126.112C55.2136 126.064 52.9716 125.521 50.7796 124.88C47.1667 124.011 43.4322 123.373 40.1235 121.593C37.4448 120.075 34.6315 118.815 31.8702 117.457C30.3973 116.749 28.9135 116.023 27.6186 115.013C25.9328 113.74 24.4533 112.223 22.8348 110.872C22.1049 110.225 21.3315 109.625 20.6254 108.954C18.5116 106.414 16.011 104.222 13.9233 101.656C14.1709 100.32 14.3447 98.9733 14.7336 97.6698C14.8944 97.874 15.0573 98.0782 15.2202 98.2846C15.7699 96.7139 15.1008 94.989 14.184 93.6942C13.5735 92.8686 13.3193 91.7606 13.6278 90.7678C13.9124 89.725 14.7727 88.856 14.6945 87.7198C14.6684 86.6944 14.8509 85.682 14.8683 84.6588C14.8118 82.999 13.9385 81.5347 13.1759 80.1096C12.5264 78.8452 11.1729 78.0088 10.8709 76.5575C10.4386 74.7804 10.1779 72.9469 9.44359 71.2567C8.80705 69.7316 7.86419 68.3651 7.06037 66.9291C6.09795 65.2714 5.47662 63.4444 4.97477 61.6043C4.61197 60.3464 4.67497 59.0277 4.67497 57.7351C4.68801 56.8139 4.61631 55.8537 5.02474 54.9999C5.02257 55.4931 5.06385 55.9906 5.16813 56.475C5.31151 55.8515 5.43969 55.2258 5.58307 54.6045C5.71125 54.8652 5.83943 55.1281 5.96977 55.391C6.92784 54.7544 6.65411 53.4183 7.34713 52.595C7.40579 52.4429 7.52528 52.1344 7.58394 51.9801C7.7056 52.1539 7.95109 52.4972 8.07492 52.6688C8.50942 52.1865 8.53114 51.5109 8.60501 50.8982C8.61587 51.1003 8.63759 51.5065 8.64846 51.7108C8.71363 51.613 8.84398 51.4218 8.90916 51.3241C9.44142 50.7961 9.3002 49.9814 9.18941 49.3167C9.09164 48.9321 8.61152 48.9865 8.31389 48.8843C8.04016 48.2065 7.51876 47.7134 6.77142 47.6308C6.44121 47.2419 6.18268 46.7596 5.7308 46.5011C5.14206 46.3512 4.93784 47.016 4.91829 47.4701C4.88353 48.4629 5.29413 49.4014 5.3441 50.3899C5.50703 51.7325 5.25503 53.0686 5.10947 54.3981C5.04647 53.9571 4.95957 53.5204 4.87484 53.0838C4.29044 55.0042 3.47141 56.9856 3.87767 59.0299C3.54093 58.7953 3.63869 58.3303 3.60176 57.9806C3.61262 57.2463 3.64304 56.5141 3.64955 55.7798C3.6539 53.9332 4.05146 52.0736 3.67562 50.24C3.50617 49.5231 3.2433 48.8322 3.01953 48.1327C3.90156 45.2976 4.95957 42.5146 6.13054 39.7859C7.73601 36.2556 9.23503 32.6015 11.6552 29.5318C12.3938 29.7795 13.0955 29.295 13.7125 28.9452C14.6988 28.3804 15.4983 27.3832 16.6932 27.2615C17.6122 27.1594 18.6571 27.4484 19.4544 26.8336C20.1431 26.3882 20.4494 25.6126 20.7427 24.887C21.1186 24.522 21.6139 24.2461 21.7899 23.7182C22.0419 23.3163 22.0636 22.6559 22.5611 22.4799C23.4018 22.7037 23.9667 23.7378 24.9487 23.5292C26.7692 23.086 27.9228 21.2633 28.1857 19.4927C28.3725 18.6867 28.3356 17.6461 29.1329 17.1595C30.0562 16.6598 31.2836 16.9965 32.0896 16.2209C33.0151 15.3737 32.863 14.0093 32.863 12.8753L33.1411 12.9448L33.0499 12.5885C33.1498 12.6211 33.3519 12.6819 33.4518 12.7124C33.5561 12.2149 34.1122 11.7912 33.8733 11.259C33.4605 10.5312 32.5154 10.5573 31.7898 10.5051C32.3764 10.2097 32.9499 9.85988 33.6039 9.73388C34.6423 9.50576 35.7655 9.50576 36.6845 8.90181C39.5044 7.21379 42.6088 6.07323 45.7589 5.17164C46.3195 4.99567 46.9104 4.96309 47.4948 4.94788C46.9908 5.42583 46.6345 6.15578 45.9002 6.31655C45.1333 6.54683 44.273 6.60549 43.6234 7.12254C43.0238 7.60266 42.8978 8.41083 42.4698 9.01261C41.616 9.54704 40.5667 9.66218 39.702 10.1858C38.0596 11.0504 37.3362 12.8514 36.2043 14.2244C35.6395 15.2433 34.412 15.7169 33.9819 16.8227C33.543 17.8568 34.7509 19.0408 35.7807 18.6324C36.8865 18.2066 37.6729 17.1899 38.8374 16.8879C40.6731 16.6446 42.8609 17.0508 44.336 15.6496C44.7618 16.423 45.6221 16.0232 46.2869 15.8972C47.5404 15.5822 48.9069 15.6995 50.0713 15.0739C51.1163 14.4982 52.3351 14.2896 53.2997 13.564C53.9471 13.0925 54.7118 12.8232 55.3592 12.3561C56.0305 11.763 56.4172 10.9331 56.9169 10.201C57.2015 9.73822 57.5947 9.29503 57.6099 8.72367C58.1899 8.28482 58.7027 7.72649 58.9547 7.03564C59.1067 6.45124 59.0177 5.80819 59.3609 5.28244C58.9764 4.52207 58.0162 4.53293 57.284 4.45907C55.6025 4.40476 53.9384 4.15057 52.3025 3.76387C54.1665 3.05129 56.2086 3.23378 58.1639 3.13819ZM67.8988 4.10712C68.5592 4.24399 69.2349 4.27658 69.9105 4.27658C69.2767 4.39824 66.9665 4.46318 66.9991 4.37846C66.2908 4.26983 68.5592 3.78125 67.8988 4.10712ZM72.1395 4.39824C70.7535 4.622 69.3544 4.74149 67.9596 4.88053C67.2688 4.97178 66.4172 5.15861 66.024 5.7756C66.2846 6.12971 66.7474 6.22096 67.1471 6.34479C68.7265 6.68804 70.3885 6.47731 71.9396 6.99436C72.8043 7.16382 73.9774 7.42669 74.6096 6.6207C75.1636 6.06671 74.7726 5.15426 74.2425 4.72846C73.6168 4.3461 72.8477 4.32437 72.1395 4.39824ZM47.8641 15.9646C47.1646 16.2166 46.5932 16.7119 45.9154 17.0095C45.2615 17.3137 44.4815 17.5635 44.1252 18.25C43.7842 18.9344 44.2295 19.7056 44.7444 20.1597C45.3049 20.6224 46.0283 20.151 46.6518 20.1271C47.4426 20.1727 48.2312 20.4551 49.0264 20.2922C50.1039 20.0098 51.0902 18.9148 50.7883 17.7482C50.6275 16.4251 49.1068 15.5149 47.8641 15.9646ZM54.7552 24.7719C53.5625 25.3367 52.4307 26.0232 51.3053 26.7119C50.5602 27.0095 49.7346 27.3441 49.3827 28.1284C48.6049 28.4477 47.9749 29.1473 47.6686 29.9294C48.0944 29.8816 48.518 29.8207 48.9417 29.7512C48.8156 29.9641 48.707 30.1857 48.6114 30.416C49.1307 30.1423 49.5261 29.7034 49.9627 29.3232C50.949 28.4412 52.107 27.7699 53.3127 27.2376C54.3859 27.4831 55.5352 27.3875 56.5649 27.0052C57.447 26.6054 57.662 25.2954 56.8712 24.6958C56.2173 24.3721 55.3961 24.4416 54.7552 24.7719ZM61.0773 43.5534C61.0447 43.1232 61.4682 44.5372 61.3683 44.1179C60.8274 44.422 60.8405 43.2036 61.0773 43.5534ZM61.9883 44.4644C61.871 45.3986 63.0324 42.7778 63.4821 43.5534C64.1556 44.7678 66.0891 48.5641 69.2767 49.0196C70.2478 49.1391 68.6657 49.9901 69.3826 49.1233C69.3826 50.0899 66.4824 48.7475 65.118 48.2196C64.0991 47.8133 63.5625 46.7705 63.2671 45.7755C63.0781 45.2845 61.0773 44.9199 61.9883 44.4644ZM49.1024 47.7851C48.0509 48.3021 46.8973 48.5237 45.7742 48.83C44.3447 49.3406 42.9586 48.1609 41.5139 48.5107C40.7774 48.6714 40.2625 49.2667 39.6217 49.6186C38.9352 50.0032 38.1053 50.2682 37.6947 50.996C37.0907 51.9106 37.2841 53.238 36.3412 53.9441C35.2854 54.6436 34.1426 55.2063 33.089 55.9058C32.3873 56.4185 31.8398 57.1051 31.1881 57.6764C30.3907 58.4194 29.3458 58.9299 28.7853 59.9032C28.2291 61.0307 28.4355 62.382 27.8576 63.503C27.4948 64.2178 27.082 64.9304 26.9669 65.7364C26.7171 67.0442 27.2319 68.3586 26.9973 69.6664C26.8235 70.4789 26.3695 71.2176 26.2999 72.0561C26.213 72.9903 26.6258 73.8876 27.1255 74.6523C27.4057 75.1063 27.9641 75.3605 28.1009 75.9015L28.2378 75.8776C28.5072 76.3968 28.9221 76.84 29.1068 77.4048C29.3175 78.0826 29.4262 78.793 29.6847 79.4578C30.1605 80.8656 31.5661 81.5999 32.6262 82.5254C32.1114 82.7318 31.5856 83.327 32.0353 83.8615C33.0738 84.8326 34.5663 85.7906 36.0392 85.2649C35.6829 84.7152 34.9943 84.4502 34.7857 83.7941C35.8589 84.2351 37.0255 84.3611 38.1531 84.6045C39.6629 84.9586 41.225 84.7956 42.7566 84.9673C44.4598 85.1258 46.1565 84.4133 47.8489 84.8152C48.9873 85.0389 49.4066 86.3816 50.5297 86.6509C51.6833 87.0333 53.3214 87.0137 53.8537 88.3303C54.4663 89.586 53.417 90.7939 53.3648 92.0431C53.3475 93.0837 54.1622 93.8419 54.8595 94.5023C56.0088 95.5169 57.1102 96.6422 57.788 98.0391C58.2247 98.9429 58.77 99.8032 59.0937 100.759C59.2914 101.463 58.8526 102.126 58.5745 102.74C58.1291 103.601 58.2247 104.591 58.1595 105.526C57.9162 106.043 57.4448 106.453 57.3622 107.044C57.2297 107.963 57.1363 108.96 57.573 109.818C58.1096 110.898 59.1263 111.656 59.626 112.762C60.0996 113.688 60.2973 114.919 61.3487 115.393C62.4502 115.901 63.228 116.875 63.8058 117.913C64.2838 118.747 64.9268 119.668 65.9631 119.788C67.5577 119.907 69.1741 119.866 70.7426 120.229C71.6355 120.427 72.6435 120.481 73.4213 119.916C74.4358 119.177 75.6872 118.971 76.8343 118.532C77.6316 118.248 78.1877 117.579 78.796 117.025C79.5043 116.216 80.5579 115.827 81.2531 115.002C81.592 115.363 82.0852 115.165 82.4806 115.048C83.7145 114.596 84.6574 113.605 85.3787 112.538C85.9261 111.728 86.5909 110.974 87.4491 110.485C88.6222 109.827 89.7258 109.021 90.6274 108.017C92.033 106.44 92.5457 104.296 92.8434 102.26C93.0715 101.133 92.1807 100.255 91.9852 99.221C92.3437 98.0674 92.6978 96.9051 93.0519 95.7472C93.2214 95.0954 93.0541 94.3676 93.317 93.7506C94.3315 92.5905 95.5025 91.5738 96.5605 90.4571C97.5316 89.2145 98.1746 87.7611 99.0958 86.4858C99.8996 85.2127 100.968 84.0418 101.305 82.5341C101.577 82.2104 101.82 81.8649 102.07 81.5239C102.289 81.6455 102.513 81.7672 102.735 81.891C103.373 81.6911 103.969 81.2653 104.188 80.6092C104.494 80.3855 104.738 80.09 104.925 79.762C105.292 80.2747 105.466 81.4261 106.326 81.1285C107.371 80.6331 107.821 79.2949 107.608 78.2086C107.479 77.6677 106.973 77.3853 106.495 77.2049C106.965 75.8623 107.336 74.2547 106.632 72.9273C106.154 71.9171 104.06 72.0366 104.299 73.3966C104.29 74.107 104.449 74.8217 104.31 75.5278C104.14 76.3403 103.83 77.1137 103.504 77.8741C103.191 77.2484 103.371 76.4924 103.017 75.8841C102.719 75.4018 102.172 75.1107 101.607 75.1585C101.297 74.7066 100.871 74.2742 100.306 74.1852C99.3456 74.0179 98.4658 74.5328 97.5859 74.8217C96.7169 75.1302 95.7936 75.1824 94.8855 75.2801C94.2424 74.6327 93.595 73.9918 92.902 73.4009C91.8549 72.4885 91.1771 71.1307 89.8671 70.5419C89.4 70.3073 88.7178 70.3399 88.4701 69.8054C87.8401 68.3195 87.94 66.5684 86.9907 65.2084C86.0782 63.8767 84.8204 62.7687 84.1903 61.2545C83.8232 60.3334 83.4951 59.3927 82.9868 58.5367C82.3915 57.5417 82.4284 56.2187 81.5334 55.3996C80.8186 54.6805 79.6629 55.0325 78.8873 54.396C77.6968 53.5509 76.2151 54.1787 74.8855 54.0592C73.0215 53.9984 71.5203 52.6341 69.6737 52.4885C68.9546 52.4125 68.1986 52.6123 67.6555 53.1012C66.8082 53.7529 66.8973 54.9521 66.2325 55.7385C63.9275 54.6632 61.8441 53.1685 59.4543 52.2691C58.8852 52.004 58.1617 51.9128 57.7837 51.361C57.1298 50.5115 57.9749 49.2906 57.1602 48.4976C56.3216 47.3354 54.7813 47.8111 53.5973 47.4157C52.1135 47.0225 50.495 47.1203 49.1024 47.7851ZM61.3683 48.4778C61.3118 48.6864 61.8962 47.7329 62.0461 47.9371C62.4828 48.6997 63.9046 50.0582 64.7215 50.3862C64.4033 50.9355 62.1395 49.1426 61.3683 48.4778ZM122.079 75.1802C121.218 75.5864 120.84 76.5749 120.632 77.4439C120.467 78.2108 120.028 78.9451 120.191 79.7533C119.632 81.4261 119.207 83.1554 118.414 84.7413C117.154 87.1984 115.794 89.6099 114.62 92.1104C115.111 91.7845 115.466 91.3044 115.785 90.8178C115.83 91.1306 115.874 91.4456 115.92 91.7606C116.38 91.5152 116.782 91.1806 117.077 90.7483L117.099 90.6114C117.692 89.9184 118.209 89.1515 118.553 88.302L118.679 88.2673C119.369 87.2375 119.813 86.0709 120.33 84.9499C121.118 82.9056 122.55 81.1524 123.106 79.0125C123.371 78.0088 123.801 76.929 123.439 75.8971C123.263 75.3496 122.65 74.8826 122.079 75.1802ZM26.1739 77.0094C25.4092 77.672 25.7612 78.83 26.0349 79.6555C26.565 80.8482 27.1277 82.2777 28.4333 82.7883C29.6651 84.7587 31.7181 86.1665 34.0014 86.5923C34.5098 87.2592 35.4396 87.2462 36.1956 87.2592C36.2521 87.1637 36.3629 86.9703 36.4194 86.8747C36.0262 86.6509 35.6265 86.4424 35.218 86.2512C34.8378 86.1143 34.4511 86.0035 34.0731 85.8645C33.0499 84.7326 31.4183 84.2482 30.558 82.9273C29.4696 81.2241 28.7223 79.3253 27.6295 77.6221C27.3167 77.1941 26.7192 76.6683 26.1739 77.0094ZM100.104 100.136C99.3282 99.9335 98.5136 100.17 97.7858 100.446C97.3665 100.876 96.9472 101.311 96.504 101.719C95.496 102.682 93.9969 103.092 93.2974 104.376C92.7412 105.104 93.0128 106.208 92.2785 106.82C91.5746 107.429 90.7491 108.009 90.4667 108.947C90.1212 110.129 90.3254 111.385 90.4819 112.582C90.5427 112.869 90.169 113.179 90.4449 113.427C90.9294 113.82 91.6398 113.668 92.1807 113.479C92.537 114.055 93.1692 113.614 93.5364 113.303C95.6676 111.083 98.4267 109.523 100.33 107.068C100.68 106.479 101.045 105.797 100.886 105.087C100.788 104.322 100.432 103.425 101.025 102.771C101.625 102.056 101.82 100.863 101.138 100.136C100.873 99.7858 100.432 100.068 100.104 100.136ZM28.2031 108.039L28.442 108.096C28.9026 109.658 30.0518 110.97 31.3879 111.874C33.1672 113.342 34.9617 115.111 37.3449 115.454L37.3753 115.638C38.24 115.83 39.2676 116.162 40.0388 115.532C39.3523 114.604 38.1922 114.259 37.2841 113.605C37.5926 113.564 37.9011 113.522 38.2095 113.483C37.6751 113.077 37.0864 112.753 36.528 112.386C35.8176 111.93 35.1572 111.139 34.2187 111.498C34.1144 111.463 33.9037 111.393 33.7994 111.359V111.721C33.0499 110.996 32.1548 110.418 31.4965 109.595C30.8035 108.704 30.0301 107.796 28.9743 107.333C28.5289 107.201 28.2813 107.678 28.2031 108.039Z" fill="#A79CEE"/>
<path d="M88.0781 33.6831C89.9899 34.035 91.8213 35.2538 92.5904 37.0852C93.0596 38.1715 93.5767 39.3012 94.5065 40.0746C94.9541 40.4721 95.5276 40.8197 95.6862 41.4367C95.8904 42.3405 95.5537 43.2573 95.6406 44.1697C94.6673 43.5267 94.1394 42.4665 93.4246 41.5823C93.0271 41.05 92.3645 40.8588 91.7801 40.6112C91.4694 40.0724 91.15 39.5401 90.822 39.0122C91.2348 38.3757 91.5671 37.5936 91.2413 36.8441C90.8719 35.6514 89.412 35.6036 88.5365 34.9605C88.3019 34.5673 88.2106 34.1133 88.0781 33.6831Z" fill="#A79CEE"/>
<path d="M123.625 52.7301L123.725 52.7148C124.201 53.8315 124.533 55.0025 124.935 56.1452C125.183 57.6008 125.009 59.0889 125.007 60.5597C124.963 62.0153 125.324 63.4448 125.344 64.9003C125.365 66.206 125.368 67.5117 125.339 68.8173C125.302 69.3648 125.365 69.9861 124.97 70.425C124.994 68.5784 125.118 66.6818 124.548 64.896C124.255 63.8728 123.742 62.9342 123.165 62.0479C122.895 61.6003 122.517 61.1289 122.613 60.5684C122.737 59.6755 123.01 58.813 123.243 57.944C123.723 56.2343 123.021 54.4203 123.625 52.7301Z" fill="#A79CEE"/>
<path d="M83.4459 4.56872C83.7587 4.27978 83.9499 3.88873 84.1671 3.53027C86.1202 4.25806 88.1363 4.80553 90.0437 5.65714C92.088 6.44141 93.8282 7.79705 95.7378 8.83767C98.6881 10.5148 101.456 12.4875 104.048 14.673C104.773 15.3247 105.342 16.1286 106.064 16.7868C106.915 17.6015 107.947 18.212 108.747 19.0853C109.879 20.341 111.019 21.5902 112.125 22.8698C113.098 24.0212 113.896 25.3052 114.778 26.5239C116.485 28.8224 118.199 31.1296 119.655 33.6019C120.745 35.3986 121.271 37.4516 122.168 39.3416C123.229 41.8291 124.519 44.2254 125.384 46.7954C125.962 48.6551 126.185 50.5995 126.483 52.5178C125.551 51.8443 125.249 50.6907 124.93 49.6523C124.778 49.0288 124.206 48.4813 123.539 48.5095C123.124 48.4791 122.735 48.8506 122.707 49.2569C122.748 49.6979 122.9 50.1194 122.924 50.5604C122.614 51.5467 122.086 52.5352 122.318 53.604C122.555 54.6881 122.809 55.846 122.331 56.9084C121.738 58.2923 121.169 59.9086 121.905 61.3577C123.433 64.2405 124.347 67.5688 123.963 70.8471C123.57 70.4778 123.148 70.0541 123.142 69.4784C122.992 68.768 123.22 67.7209 122.407 67.3602C121.847 67.1082 121.441 67.6579 121.121 68.0185C120.5 67.6362 120 67.0909 119.555 66.5195C118.899 65.5245 119.012 64.2797 118.905 63.1456C118.849 62.0724 118.451 61.047 117.945 60.1106C117.267 58.931 116.246 57.9707 115.718 56.6998C115.362 55.7722 114.313 55.2008 113.344 55.4441C112.996 55.4376 112.509 55.7113 112.316 55.2986C112.008 54.6251 111.997 53.8256 111.532 53.2217C111.204 52.9523 110.739 52.7655 110.317 52.9001C109.826 53.1239 109.477 53.5888 108.955 53.7496C107.35 54.271 105.653 53.8539 104.008 54.0342C103.048 54.0559 102.062 54.4622 101.123 54.1081C99.8286 53.6127 99.0943 52.3005 97.856 51.7161C97.2912 51.4359 96.4786 51.4511 96.1071 52.029C95.6596 52.7807 95.7378 53.7409 96.1441 54.4948C96.7285 55.6201 97.6779 56.5065 98.2449 57.6427C98.6794 58.4509 99.0574 59.4741 100.033 59.7522C101.126 60.0846 102.201 59.3763 102.879 58.566C103.598 57.6948 104.843 57.0757 105.955 57.5232C106.568 57.8752 106.307 58.6725 106.357 59.2482C106.211 60.6233 107.124 61.8095 107.128 63.1673C107.109 64.0841 106.776 65.0618 106.001 65.6092C104.836 66.463 103.998 67.6557 102.983 68.6637C102.058 69.5957 100.632 69.5545 99.5679 70.2475C98.4947 70.8015 97.7713 71.9029 96.5938 72.2592C95.8877 72.4743 95.3468 71.8291 95.0405 71.2859C94.7276 70.5821 94.4647 69.8478 93.9825 69.2351C92.9006 67.6622 91.0822 66.765 90.0502 65.1508C89.2138 63.6192 88.8076 61.7878 87.491 60.5603C86.9414 60.0194 86.2788 59.5414 85.9725 58.8093C85.5597 57.8317 85.601 56.7498 85.3968 55.7266C84.9557 54.1884 82.8919 53.8908 82.5052 52.3157C82.3944 50.9297 83.2047 49.7109 83.5415 48.4096C83.7196 47.6731 83.6501 46.8128 83.12 46.2328C82.705 45.7461 81.9338 45.6397 81.4037 45.996C80.2045 46.7172 79.316 47.9512 77.9321 48.3509C77.1543 48.2727 76.3527 48.1793 75.6249 47.8773C74.8232 47.3929 74.8537 46.3566 74.8211 45.5376C74.8254 44.8098 74.304 44.2515 73.9586 43.6605C74.6169 43.2021 75.3577 42.7633 76.1897 42.785C77.074 42.7742 78.0559 43.1413 78.8532 42.5873C79.9004 41.9747 79.9091 40.2389 78.8402 39.6458C78.0472 39.3699 77.2347 39.1352 76.4961 38.7225C75.7683 38.3966 74.8428 37.9121 74.0998 38.4596C73.3416 38.9375 73.5393 40.0129 73.0136 40.6495C72.477 41.1274 71.7774 41.462 71.4429 42.1333C70.8302 43.2065 71.1865 44.5339 70.6043 45.6201C70.3979 46.148 69.8417 46.6064 69.2508 46.4587C68.5469 46.2675 67.817 46.2458 67.1022 46.135C66.4809 46.0155 66.2701 45.3529 66.0203 44.8598C65.6314 44.1124 65.4837 43.2695 65.0927 42.5265C64.5691 41.714 63.5871 41.4381 62.8115 40.9449C61.8991 40.4192 61.8404 39.1982 61.0366 38.5639C60.4153 38.0338 59.3051 37.8578 58.7359 38.5487C58.1255 39.2352 57.389 39.9195 56.4136 39.9478C55.1883 40.1498 54.0368 39.4307 52.8203 39.6001C51.7362 39.8674 51.167 40.9623 50.8542 41.9443C50.5956 42.8328 49.4485 42.483 48.8098 42.9045C47.5932 43.3781 47.5194 44.9684 46.4049 45.5484C45.8661 45.8287 45.3686 45.3334 44.8907 45.1465C43.6741 44.4774 42.238 44.8902 40.9563 44.5013C40.839 42.2615 41.3386 39.9869 40.8129 37.7687C40.7716 37.2908 40.4718 36.5456 41.028 36.261C41.834 35.9721 42.7508 36.0242 43.5611 36.2719C44.1629 36.639 44.3497 37.3842 44.7386 37.936C45.2187 38.7768 46.1159 39.3677 47.0827 39.4502C48.1494 39.4655 49.0206 38.5269 49.1792 37.5146C49.379 36.6043 48.825 35.7939 48.6404 34.938C48.4144 34.069 49.4333 33.7344 49.8439 33.1392C50.4001 32.3549 51.2865 31.9399 52.1055 31.4881C53.2548 30.9688 54.6169 31.0232 55.6749 30.2758C56.4874 29.711 57.3369 29.0766 58.3753 29.0809C60.198 29.0223 61.3451 30.9167 63.1461 30.9384C64.1042 30.908 64.9753 30.4149 65.7596 29.9021C66.8828 29.1744 67.6301 27.9925 68.7968 27.3212C69.5593 26.8455 70.4348 26.5478 71.1322 25.9678C72.0403 25.2009 72.0903 23.5672 71.1018 22.8524C70.2176 22.4331 69.19 22.9893 68.284 22.6439C67.9995 22.57 67.8756 22.3897 67.9126 22.1007C67.9234 21.3382 68.0538 20.4931 67.5736 19.8348C67.2565 19.296 66.5721 19.0245 65.979 19.2461C64.9601 19.5915 64.1368 20.5583 64.0824 21.6532C63.9934 22.5895 64.5017 23.4216 64.7299 24.2971C64.7125 24.7533 64.1259 24.7707 63.8218 24.9619C63.1483 25.1531 62.6138 25.8113 61.8926 25.7614C61.0931 25.3204 61.3734 24.2124 60.8302 23.5824C60.1177 22.7155 58.7729 23.9691 58.1668 22.898C58.6708 21.575 59.8722 20.7364 60.6912 19.6263C61.3234 18.7964 61.7644 17.8405 62.351 16.9802C63.1179 15.9026 64.4518 15.5203 65.6054 15.0075C66.6069 14.5079 67.754 14.7077 68.8207 14.8142C70.1567 14.9836 71.5015 15.0467 72.8463 15.0597C73.3177 15.2639 73.7826 15.5833 74.0564 16.0264C74.1997 16.8064 73.611 17.4646 73.5241 18.212C73.4807 18.855 74.0955 19.3286 74.6907 19.3721C75.7835 19.4481 76.9371 18.9441 77.5215 17.9947C78.1906 17.0084 78.6642 15.6528 79.9047 15.2639C81.0713 15.29 81.9816 16.1025 82.9636 16.6217C83.422 16.9106 84.0629 16.802 84.3822 16.3588C85.3142 15.1075 85.0014 13.1175 83.6848 12.2572C82.818 11.6272 81.7144 11.5794 80.7389 11.2209C80.702 10.1238 80.5651 9.01581 80.0524 8.02516C79.6809 7.40165 80.0915 6.70211 80.4913 6.20678C81.2451 5.29434 82.5986 5.35517 83.4459 4.56872ZM84.9253 10.7582C85.2208 11.4447 83.8478 8.00776 84.3822 8.47919C85.0926 9.19394 84.9519 8.71676 85.671 9.39023C85.7492 7.91511 87.1195 11.9378 86.2549 10.7277C85.9551 10.328 84.8623 9.98692 84.9253 10.7582ZM87.1261 11.3208C87.2673 11.9639 86.4423 9.94064 87.0376 10.3013C87.1267 9.66908 88.0928 11.764 87.6909 11.2535C87.5758 11.0319 87.0804 10.958 87.1261 11.3208ZM111.232 26.5218C111.008 26.802 111.46 27.3038 111.76 27.1127C111.877 26.8346 111.536 26.3762 111.232 26.5218ZM108.01 27.067C109.814 25.789 109.511 26.4908 110.269 27.1556C111.121 27.9051 111.763 30.8819 112.547 31.6836H112.288C111.501 30.2867 110.785 28.8376 109.866 27.5189C109.466 26.9823 108.503 26.2458 108.01 27.067ZM110.745 27.9599C112.547 27.6111 113.002 29.4332 112.136 29.8413C112.071 29.107 111.69 27.7579 110.745 27.9599ZM86.1897 32.3006C85.1317 32.9371 85.223 34.6708 86.244 35.3008C87.0022 35.8092 88.2145 35.9004 88.4687 36.9388C88.7902 38.3466 87.8691 39.85 88.5751 41.2208C89.04 42.3158 90.2023 42.7177 91.1886 43.1891C91.8817 43.9451 92.1706 45.0488 93.0765 45.6223C94.2671 46.3501 95.7639 46.3457 97.0652 45.933C97.5301 44.7989 96.1984 43.8734 96.6025 42.7524C96.7719 41.9508 97.0826 41.0731 96.6785 40.2888C96.2288 39.2808 95.1252 38.8963 94.2214 38.414C93.5088 38.0338 93.4741 37.1322 93.2894 36.4435C92.9657 34.7729 91.7122 33.3195 90.0937 32.785C89.3941 32.5352 88.6229 32.7307 87.9342 32.4505C87.3802 32.281 86.7415 31.9595 86.1897 32.3006Z" fill="white"/>
<path d="M112.094 25.3334C111.001 24.6045 106.172 24.1186 103.895 23.9668C105.109 27.3073 107.721 34.1705 108.45 34.8993C109.179 35.6282 113.612 34.5957 115.738 33.9883C114.979 31.407 113.187 26.0622 112.094 25.3334Z" fill="white"/>
<path d="M82.9336 8.02384L84.3002 7.11279L88.3999 8.93488L89.3109 13.0346L85.6667 12.1235L84.3002 11.2125L82.9336 8.02384Z" fill="white"/>
<path d="M47.2241 6.635C48.3386 6.02453 49.2076 4.89267 50.5393 4.75145C53.1637 4.31695 55.6664 5.4901 58.2256 5.85073C58.0561 6.44382 57.9432 7.09774 57.5174 7.57352C56.8613 8.24916 55.9792 8.62718 55.2123 9.15292C54.604 9.57438 54.2977 10.287 53.7416 10.7627C52.803 11.5144 51.6581 11.9381 50.5219 12.2922C49.7855 12.4833 49.3227 13.1177 48.7231 13.5348C47.4652 14.1279 46.0531 14.0367 44.704 13.9867C43.5439 13.9172 43.3744 15.3532 42.4468 15.7269C41.0759 16.3786 39.5813 15.4053 38.167 15.8616C36.9525 16.0897 36.1922 17.1716 35.082 17.6017C35.1211 16.837 35.7729 16.3612 36.1618 15.766C36.946 14.6037 37.5695 13.3067 38.6015 12.3313C39.4227 11.5905 40.3612 10.9409 41.4409 10.6454C42.0861 10.4369 42.8096 10.3608 43.3484 9.91112C44.0305 9.33541 43.8632 8.21875 44.6019 7.69083C45.4079 7.1803 46.4203 7.15423 47.2241 6.635ZM43.4353 10.8844C42.764 11.2103 42.0036 11.484 41.5713 12.1292C41.4807 10.7571 44.9323 9.93512 46.0359 9.84605C46.6355 9.78305 46.1922 10.9431 46.0401 10.1392C45.0929 9.98716 44.2695 10.5433 43.4353 10.8844ZM44.2138 11.6681C44.6809 11.4335 43.9849 12.3291 44.0327 11.673C43.507 11.8316 44.5332 11.1902 44.2138 11.6681Z" fill="white"/>
<path d="M31.0613 11.9666C31.5328 11.6689 32.1063 11.7037 32.6408 11.6689C32.367 12.3468 32.0325 13.0072 31.939 13.7415C31.8043 14.8625 30.9962 15.927 29.8665 16.1703C29.13 16.3528 28.3349 16.5657 27.8482 17.1958C27.0031 18.219 27.3768 19.7093 26.6208 20.7782C26.0516 21.5799 25.2152 22.2403 24.2636 22.5118C23.4337 22.3924 22.8059 21.3735 21.8934 21.7276C20.9527 22.0643 21.6393 23.4352 20.7116 23.7697C19.7514 24.1369 19.7492 25.373 18.8932 25.8531C18.374 26.1747 17.7483 26.2007 17.1726 26.3506C15.4824 26.7221 14.0507 27.7432 12.4844 28.4275C13.9399 26.4549 15.7236 24.7126 16.8924 22.5357C17.4746 21.3756 18.4696 20.5132 19.2539 19.4986C21.0418 17.2631 23.2773 15.4534 25.4389 13.5981C25.6584 13.8067 25.8474 14.1391 26.2015 14.113C28.0742 14.1673 29.5102 12.8008 31.0613 11.9666Z" fill="white"/>
<path d="M46.2272 18.1642C46.9311 17.7428 47.3721 16.9389 48.1803 16.6956C49.1557 16.6283 49.6554 17.6255 50.2268 18.2424C50.0226 18.6726 49.7727 19.1505 49.2665 19.2765C48.3802 19.4286 47.5199 18.9594 46.6357 19.081C46.1077 19.2483 45.6341 19.5459 45.1258 19.761C44.7239 18.8942 45.645 18.5314 46.2272 18.1642Z" fill="white"/>
<path d="M51.7066 48.2622C52.9579 48.0971 54.2375 48.2078 55.4606 48.5077C55.9603 48.6619 56.5143 48.9552 56.6642 49.4961C56.6701 49.6374 56.6703 49.7806 56.6705 49.9242C56.6713 50.4674 56.6721 51.0167 56.9814 51.4927C57.6628 53.0271 59.2989 53.4712 60.8238 53.8852C61.1903 53.9846 61.5502 54.0824 61.889 54.1931C62.6853 54.3961 63.2798 54.9306 63.8732 55.4641C64.4989 56.0267 65.1234 56.5882 65.982 56.7588C66.8597 56.7805 67.5397 55.9441 67.6657 55.1316C67.6752 55.08 67.6841 55.0265 67.6931 54.9718C67.7674 54.5244 67.8542 54.0024 68.3652 53.8824C69.4284 53.6133 70.46 53.9132 71.4886 54.2122C71.9881 54.3574 72.4869 54.5024 72.9883 54.5819C73.4408 54.6483 73.8916 54.739 74.3428 54.8298C75.3841 55.0394 76.4269 55.2493 77.494 55.1598C78.8345 55.0099 80.1032 55.6769 81.133 56.4742C81.7679 56.9649 81.9159 57.7087 82.0641 58.4534C82.1436 58.8528 82.2231 59.2524 82.3778 59.6134C82.8089 60.6384 83.4332 61.5556 84.0575 62.4728C84.4085 62.9884 84.7594 63.5041 85.076 64.0388C85.2518 64.3387 85.4461 64.6309 85.6408 64.9236C86.1343 65.6657 86.6298 66.4108 86.8292 67.291C86.8408 67.3357 86.8523 67.3805 86.8638 67.4253C87.1194 68.4192 87.3807 69.4352 87.9502 70.3021C88.5048 71.0899 89.3103 71.5916 90.1156 72.0932C90.9381 72.6055 91.7604 73.1177 92.3148 73.9345C92.3383 73.9697 92.3619 74.005 92.3855 74.0405C92.9653 74.9102 93.5981 75.8594 94.648 76.1809C95.7169 76.2417 96.8097 76.1135 97.796 75.6725C97.9744 75.6169 98.1542 75.5452 98.3356 75.4729C98.8698 75.26 99.4176 75.0416 99.9837 75.2119C100.609 75.427 100.505 76.1874 100.416 76.7022C99.8765 79.3329 98.448 81.5763 97.0247 83.8116C96.4592 84.6997 95.8945 85.5865 95.3867 86.4958C94.6589 87.6212 93.6509 88.5271 92.6233 89.37L92.6048 89.3865C91.9167 89.9991 91.1617 90.6712 90.9722 91.6186C90.8511 92.0458 90.8041 92.4872 90.7571 92.9281C90.697 93.4918 90.6371 94.0547 90.4225 94.5862C90.2805 94.993 90.0931 95.3871 89.9056 95.7814C89.5455 96.5388 89.1851 97.2968 89.1451 98.1469C89.1222 99.3298 89.512 100.437 89.9002 101.54C90.0631 102.003 90.2257 102.464 90.3574 102.931C90.5768 104.408 89.3102 105.501 88.2892 106.35C87.7099 106.841 87.0325 107.213 86.3564 107.584C85.2274 108.204 84.1022 108.822 83.4445 109.987C82.2822 111.938 81.0873 113.93 79.3515 115.431C79.0567 115.695 78.7202 115.902 78.384 116.108C78.0117 116.337 77.6396 116.566 77.3246 116.872C76.7855 117.428 76.0577 117.649 75.332 117.87C74.9843 117.975 74.6371 118.081 74.3113 118.223C73.9467 118.336 73.6166 118.524 73.2868 118.712C72.9643 118.896 72.6422 119.079 72.2888 119.192C70.2227 119.298 68.1045 119.3 66.1276 118.625C65.5791 118.339 65.1717 117.883 64.7642 117.427C64.5179 117.151 64.2716 116.875 63.9942 116.637C63.7448 116.384 63.4578 116.172 63.1712 115.96C62.7487 115.647 62.3271 115.335 62.0281 114.895C61.4241 114.034 60.8137 113.163 60.4161 112.183C60.1141 111.449 59.7383 110.728 59.1539 110.176C59.0751 110.095 58.9923 110.014 58.9085 109.932C58.4538 109.487 57.9705 109.014 57.9503 108.345C57.9792 107.906 58.2422 107.57 58.5057 107.234C58.7579 106.912 59.0105 106.59 59.0583 106.176C59.0566 105.939 59.0091 105.704 58.9617 105.469C58.8853 105.09 58.8091 104.713 58.9258 104.332C59.015 103.911 59.2605 103.565 59.5058 103.219C59.7564 102.866 60.0068 102.514 60.0902 102.081C60.4776 100.602 59.6704 99.236 58.9365 97.9935C58.8554 97.8563 58.7752 97.7206 58.6977 97.5864C58.1 96.7609 57.4362 95.9856 56.7724 95.2102C55.9931 94.3 55.2139 93.3898 54.5417 92.3985C54.0584 91.7031 54.3736 90.9104 54.6647 90.1783C54.7373 89.9955 54.8085 89.8165 54.8654 89.6438C55.3607 88.6683 55.0609 87.3605 54.155 86.7392C53.6763 86.4119 53.1157 86.3198 52.5545 86.2276C52.0613 86.1465 51.5677 86.0654 51.1287 85.8245C50.8775 85.651 50.6761 85.4239 50.4748 85.197C50.2704 84.9666 50.0661 84.7363 49.81 84.5623C49.4308 84.3095 48.9803 84.2477 48.5365 84.1868C48.4005 84.1682 48.2653 84.1496 48.1328 84.1257C47.7515 84.0716 47.3748 83.9862 46.9983 83.9008C46.375 83.7594 45.752 83.6181 45.1087 83.6195C44.6001 83.6137 44.1143 83.7464 43.6283 83.8791C43.1927 83.998 42.7569 84.117 42.304 84.1365C39.6688 84.2973 37.0922 83.5 34.6786 82.518C34.4956 82.4285 34.3062 82.341 34.1147 82.2525C33.0419 81.757 31.8979 81.2286 31.3873 80.1152C31.2376 79.781 31.0938 79.4413 30.9495 79.1007C30.323 77.6215 29.6887 76.1239 28.5391 74.9708C27.7201 74.1756 27.2617 72.9938 27.5224 71.8576C27.7781 70.8679 27.7738 69.848 27.7695 68.8299C27.7642 67.5819 27.759 66.3366 28.2328 65.1533C28.5608 64.3886 28.6456 63.5608 28.6108 62.7375C28.5609 61.9315 29.0192 61.2146 29.5406 60.641C30.1759 59.9365 30.7102 59.1527 31.2437 58.37C31.2959 58.2935 31.348 58.2169 31.4003 58.1405C31.8239 57.5123 32.4945 57.1781 33.1585 56.8472C33.3969 56.7284 33.6345 56.61 33.8596 56.4785C34.1982 56.2842 34.5686 56.1351 34.9393 55.9859C35.6792 55.688 36.4205 55.3896 36.9141 54.7297C37.2823 54.3105 37.4152 53.7794 37.5477 53.2497C37.6865 52.695 37.8249 52.142 38.2328 51.7208C38.5194 51.4687 38.8555 51.2873 39.1915 51.1059C39.5941 50.8885 39.9967 50.6712 40.314 50.3325C40.441 50.2201 40.5609 50.0907 40.6817 49.9604C41.0133 49.6024 41.3518 49.2372 41.863 49.1942C42.4782 49.1887 43.0835 49.3182 43.6874 49.4474C44.525 49.6266 45.3599 49.8052 46.2145 49.6221C47.1413 49.5122 48.0261 49.2301 48.9112 48.9479C49.827 48.6559 50.7432 48.3638 51.7066 48.2622ZM30.6204 70.5975C30.5357 71.0853 30.7788 71.5095 31.0207 71.9316C31.1451 72.1488 31.2692 72.3654 31.3482 72.5897C31.504 72.9547 31.6358 73.3452 31.7689 73.7393C32.183 74.9662 32.6093 76.2288 33.8096 76.8717C33.8506 76.8875 33.8927 76.9039 33.9359 76.9207C34.6254 77.1894 35.5749 77.5594 36.1146 76.8847C35.8137 76.7284 35.4987 76.5883 35.1826 76.4477C34.3393 76.0727 33.4879 75.6941 32.8732 74.9925C32.2471 74.2289 32.0736 73.2806 31.9003 72.3336C31.8079 71.8284 31.7155 71.3235 31.5545 70.8474C31.4546 70.4607 30.842 70.1392 30.6204 70.5975ZM33.4316 74.2061C33.7966 75.3553 35.213 75.7789 36.2949 75.5204C36.0272 75.3382 35.7445 75.1826 35.461 75.0266C35.3558 74.9687 35.2504 74.9107 35.1457 74.8513C34.8678 74.7036 34.6681 74.4639 34.469 74.2248C34.2728 73.9892 34.077 73.7542 33.8074 73.6086C33.475 73.5022 33.3121 73.9649 33.4316 74.2061ZM37.7049 76.8174C37.7396 77.3192 38.1394 77.6212 38.5999 77.7298C38.6585 77.7415 38.724 77.7609 38.7924 77.7812C39.067 77.8625 39.3885 77.9577 39.4928 77.6256C39.2365 77.523 38.9902 77.3981 38.744 77.2733C38.406 77.1019 38.0682 76.9305 37.7049 76.8174ZM92.91 79.2267C92.6015 79.6693 92.3421 80.1431 92.0828 80.6168C91.9094 80.9336 91.736 81.2504 91.5479 81.5578C91.4108 81.8189 91.2518 82.0708 91.0928 82.3228C90.7479 82.8694 90.4026 83.4166 90.2792 84.0605C90.8242 83.8316 91.1758 83.3706 91.524 82.9139C91.6353 82.7681 91.7462 82.6227 91.8629 82.4854C92.569 81.599 93.2598 80.6214 93.4662 79.4874C93.5835 79.155 93.0751 78.9247 92.91 79.2267ZM92.8883 81.6273C92.8792 81.6953 92.8481 81.7744 92.8158 81.8564C92.7326 82.0679 92.6421 82.298 92.9035 82.4029C93.4749 81.9184 93.8768 81.1776 93.8008 80.4129C93.2935 80.606 93.0869 81.1267 92.9014 81.5942L92.8883 81.6273ZM94.1875 82.3464L94.2096 82.3263C94.4976 82.0654 95.0134 81.5982 94.6133 81.2341C94.1614 81.4035 94.1679 81.9445 94.1875 82.3464Z" fill="white"/>
<path d="M51.7066 48.2622C52.9579 48.0971 54.2375 48.2078 55.4606 48.5077C55.9603 48.6619 56.5143 48.9552 56.6642 49.4961C56.6701 49.6374 56.6703 49.7806 56.6705 49.9242C56.6713 50.4674 56.6721 51.0167 56.9814 51.4927C57.6628 53.0271 59.2989 53.4712 60.8238 53.8852C61.1903 53.9846 61.5502 54.0824 61.889 54.1931C62.6853 54.3961 63.2798 54.9306 63.8732 55.4641C64.4989 56.0267 65.1234 56.5882 65.982 56.7588C66.8597 56.7805 67.5397 55.9441 67.6657 55.1316C67.6752 55.08 67.6841 55.0265 67.6931 54.9718C67.7674 54.5244 67.8542 54.0024 68.3652 53.8824C69.4284 53.6133 70.46 53.9132 71.4886 54.2122C71.9881 54.3574 72.4869 54.5024 72.9883 54.5819C73.4408 54.6483 73.8916 54.739 74.3428 54.8298C75.3841 55.0394 76.4269 55.2493 77.494 55.1598C78.8345 55.0099 80.1032 55.6769 81.133 56.4742C81.7679 56.9649 81.9159 57.7087 82.0641 58.4534C82.1436 58.8528 82.2231 59.2524 82.3778 59.6134C82.8089 60.6384 83.4332 61.5556 84.0575 62.4728C84.4085 62.9884 84.7594 63.5041 85.076 64.0388C85.2518 64.3387 85.4461 64.6309 85.6408 64.9236C86.1343 65.6657 86.6298 66.4108 86.8292 67.291C86.8408 67.3357 86.8523 67.3805 86.8638 67.4253C87.1194 68.4192 87.3807 69.4352 87.9502 70.3021C88.5048 71.0899 89.3103 71.5916 90.1156 72.0932C90.9381 72.6055 91.7604 73.1177 92.3148 73.9345C92.3383 73.9697 92.3619 74.005 92.3855 74.0405C92.9653 74.9102 93.5981 75.8594 94.648 76.1809C95.7169 76.2417 96.8097 76.1135 97.796 75.6725C97.9744 75.6169 98.1542 75.5452 98.3356 75.4729C98.8698 75.26 99.4176 75.0416 99.9837 75.2119C100.609 75.427 100.505 76.1874 100.416 76.7022C99.8765 79.3329 98.448 81.5763 97.0247 83.8116C96.4592 84.6997 95.8945 85.5865 95.3867 86.4958C94.6589 87.6212 93.6509 88.5271 92.6233 89.37L92.6048 89.3865C91.9167 89.9991 91.1617 90.6712 90.9722 91.6186C90.8511 92.0458 90.8041 92.4872 90.7571 92.9281C90.697 93.4918 90.6371 94.0547 90.4225 94.5862C90.2805 94.993 90.0931 95.3871 89.9056 95.7814C89.5455 96.5388 89.1851 97.2968 89.1451 98.1469C89.1222 99.3298 89.512 100.437 89.9002 101.54C90.0631 102.003 90.2257 102.464 90.3574 102.931C90.5768 104.408 89.3102 105.501 88.2892 106.35C87.7099 106.841 87.0325 107.213 86.3564 107.584C85.2274 108.204 84.1022 108.822 83.4445 109.987C82.2822 111.938 81.0873 113.93 79.3515 115.431C79.0567 115.695 78.7202 115.902 78.384 116.108C78.0117 116.337 77.6396 116.566 77.3246 116.872C76.7855 117.428 76.0577 117.649 75.332 117.87C74.9843 117.975 74.6371 118.081 74.3113 118.223C73.9467 118.336 73.6166 118.524 73.2868 118.712C72.9643 118.896 72.6422 119.079 72.2888 119.192C70.2227 119.298 68.1045 119.3 66.1276 118.625C65.5791 118.339 65.1717 117.883 64.7642 117.427C64.5179 117.151 64.2716 116.875 63.9942 116.637C63.7448 116.384 63.4578 116.172 63.1712 115.96C62.7487 115.647 62.3271 115.335 62.0281 114.895C61.4241 114.034 60.8137 113.163 60.4161 112.183C60.1141 111.449 59.7383 110.728 59.1539 110.176C59.0751 110.095 58.9923 110.014 58.9085 109.932C58.4538 109.487 57.9705 109.014 57.9503 108.345C57.9792 107.906 58.2422 107.57 58.5057 107.234C58.7579 106.912 59.0105 106.59 59.0583 106.176C59.0566 105.939 59.0091 105.704 58.9617 105.469C58.8853 105.09 58.8091 104.713 58.9258 104.332C59.015 103.911 59.2605 103.565 59.5058 103.219C59.7564 102.866 60.0068 102.514 60.0902 102.081C60.4776 100.602 59.6704 99.236 58.9365 97.9935C58.8554 97.8563 58.7752 97.7206 58.6977 97.5864C58.1 96.7609 57.4362 95.9856 56.7724 95.2102C55.9931 94.3 55.2139 93.3898 54.5417 92.3985C54.0584 91.7031 54.3736 90.9104 54.6647 90.1783C54.7373 89.9955 54.8085 89.8165 54.8654 89.6438C55.3607 88.6683 55.0609 87.3605 54.155 86.7392C53.6763 86.4119 53.1157 86.3198 52.5545 86.2276C52.0613 86.1465 51.5677 86.0654 51.1287 85.8245C50.8775 85.651 50.6761 85.4239 50.4748 85.197C50.2704 84.9666 50.0661 84.7363 49.81 84.5623C49.4308 84.3095 48.9803 84.2477 48.5365 84.1868C48.4005 84.1682 48.2653 84.1496 48.1328 84.1257C47.7515 84.0716 47.3748 83.9862 46.9983 83.9008C46.375 83.7594 45.752 83.6181 45.1087 83.6195C44.6001 83.6137 44.1143 83.7464 43.6283 83.8791C43.1927 83.998 42.7569 84.117 42.304 84.1365C39.6688 84.2973 37.0922 83.5 34.6786 82.518C34.4956 82.4285 34.3062 82.341 34.1147 82.2525C33.0419 81.757 31.8979 81.2286 31.3873 80.1152C31.2376 79.781 31.0938 79.4413 30.9495 79.1007C30.323 77.6215 29.6887 76.1239 28.5391 74.9708C27.7201 74.1756 27.2617 72.9938 27.5224 71.8576C27.7781 70.8679 27.7738 69.848 27.7695 68.8299C27.7642 67.5819 27.759 66.3366 28.2328 65.1533C28.5608 64.3886 28.6456 63.5608 28.6108 62.7375C28.5609 61.9315 29.0192 61.2146 29.5406 60.641C30.1759 59.9365 30.7102 59.1527 31.2437 58.37C31.2959 58.2935 31.348 58.2169 31.4003 58.1405C31.8239 57.5123 32.4945 57.1781 33.1585 56.8472C33.3969 56.7284 33.6345 56.61 33.8596 56.4785C34.1982 56.2842 34.5686 56.1351 34.9393 55.9859C35.6792 55.688 36.4205 55.3896 36.9141 54.7297C37.2823 54.3105 37.4152 53.7794 37.5477 53.2497C37.6865 52.695 37.8249 52.142 38.2328 51.7208C38.5194 51.4687 38.8555 51.2873 39.1915 51.1059C39.5941 50.8885 39.9967 50.6712 40.314 50.3325C40.441 50.2201 40.5609 50.0907 40.6817 49.9604C41.0133 49.6024 41.3518 49.2372 41.863 49.1942C42.4782 49.1887 43.0835 49.3182 43.6874 49.4474C44.525 49.6266 45.3599 49.8052 46.2145 49.6221C47.1413 49.5122 48.0261 49.2301 48.9112 48.9479C49.827 48.6559 50.7432 48.3638 51.7066 48.2622ZM30.6204 70.5975C30.5357 71.0853 30.7788 71.5095 31.0207 71.9316C31.1451 72.1488 31.2692 72.3654 31.3482 72.5897C31.504 72.9547 31.6358 73.3452 31.7689 73.7393C32.183 74.9662 32.6093 76.2288 33.8096 76.8717C33.8506 76.8875 33.8927 76.9039 33.9359 76.9207C34.6254 77.1894 35.5749 77.5594 36.1146 76.8847C35.8137 76.7284 35.4987 76.5883 35.1826 76.4477C34.3393 76.0727 33.4879 75.6941 32.8732 74.9925C32.2471 74.2289 32.0736 73.2806 31.9003 72.3336C31.8079 71.8284 31.7155 71.3235 31.5545 70.8474C31.4546 70.4607 30.842 70.1392 30.6204 70.5975ZM33.4316 74.2061C33.7966 75.3553 35.213 75.7789 36.2949 75.5204C36.0272 75.3382 35.7445 75.1826 35.461 75.0266C35.3558 74.9687 35.2504 74.9107 35.1457 74.8513C34.8678 74.7036 34.6681 74.4639 34.469 74.2248C34.2728 73.9892 34.077 73.7542 33.8074 73.6086C33.475 73.5022 33.3121 73.9649 33.4316 74.2061ZM37.7049 76.8174C37.7396 77.3192 38.1394 77.6212 38.5999 77.7298C38.6585 77.7415 38.724 77.7609 38.7924 77.7812C39.067 77.8625 39.3885 77.9577 39.4928 77.6256C39.2365 77.523 38.9902 77.3981 38.744 77.2733C38.406 77.1019 38.0682 76.9305 37.7049 76.8174ZM92.91 79.2267C92.6015 79.6693 92.3421 80.1431 92.0828 80.6168C91.9094 80.9336 91.736 81.2504 91.5479 81.5578C91.4108 81.8189 91.2518 82.0708 91.0928 82.3228C90.7479 82.8694 90.4026 83.4166 90.2792 84.0605C90.8242 83.8316 91.1758 83.3706 91.524 82.9139C91.6353 82.7681 91.7462 82.6227 91.8629 82.4854C92.569 81.599 93.2598 80.6214 93.4662 79.4874C93.5835 79.155 93.0751 78.9247 92.91 79.2267ZM92.8883 81.6273C92.8792 81.6953 92.8481 81.7744 92.8158 81.8564C92.7326 82.0679 92.6421 82.298 92.9035 82.4029C93.4749 81.9184 93.8768 81.1776 93.8008 80.4129C93.2935 80.606 93.0869 81.1267 92.9014 81.5942L92.8883 81.6273ZM94.1875 82.3464L94.2096 82.3263C94.4976 82.0654 95.0134 81.5982 94.6133 81.2341C94.1614 81.4035 94.1679 81.9445 94.1875 82.3464Z" stroke="black"/>
<path d="M2.439 50.3105C2.79529 51.4641 3.1733 52.6286 3.28193 53.8387C3.41445 55.6201 2.51504 57.256 2.40859 59.0114C2.26303 60.2671 2.54328 61.5097 2.83439 62.722C3.19068 64.1819 3.36883 65.7113 4.0662 67.0626C4.85047 68.6181 6.25172 69.7761 6.91433 71.4011C7.66819 73.2086 7.59649 75.2247 8.1961 77.0735C8.95213 79.2612 10.9769 80.6972 11.7655 82.8653C12.5128 84.7228 12.5976 86.9431 11.5895 88.7224C11.0073 89.7912 10.4816 91.0274 10.7792 92.2657C10.953 93.1934 11.9502 93.6192 12.2435 94.4882C12.5715 95.3745 13.0386 96.1957 13.4492 97.0452C14.0358 98.2292 13.3254 99.5066 13.308 100.734C11.6265 97.736 9.1759 95.2333 7.6986 92.1093C6.65798 89.876 5.72598 87.5948 4.65929 85.3724C3.70339 83.1847 2.73229 80.9622 2.34341 78.592C2.1153 76.2979 1.23979 74.1297 1.01819 71.8356C0.800942 69.5328 0.475068 67.2277 0.596728 64.9097C0.622798 62.3527 1.06599 59.8261 1.28758 57.2821C1.47441 54.9293 1.98278 52.6199 2.439 50.3105ZM3.03644 68.1554C3.44486 69.1569 4.33993 69.8695 4.88305 70.795C5.47614 72.042 5.20458 73.5866 6.00189 74.7467C5.91933 73.5432 5.69991 72.3461 5.28062 71.2121C4.90478 70.0911 4.89392 68.6855 3.81202 67.9577C3.61215 67.7274 2.86481 67.7057 3.03644 68.1554ZM3.72294 71.3033C3.79898 71.9138 4.11834 72.4526 4.44855 72.9566C4.52676 72.5156 4.56804 72.0507 4.35948 71.6379C4.29431 71.3533 4.00102 70.9861 3.72294 71.3033Z" fill="white"/>
<path d="M97.7146 101.866C98.2817 101.39 99.0008 101.162 99.6894 100.927C99.7763 102.098 99.1246 103.119 98.7162 104.169C98.1339 105.5 97.7842 106.995 96.7501 108.073C95.7659 109.057 94.7079 109.971 93.5652 110.769C92.6571 111.388 92.1922 112.498 91.1841 112.989C91.3145 111.959 90.8539 110.901 91.2515 109.904C91.6447 108.863 92.744 108.296 93.122 107.245C93.4457 106.482 93.2263 105.535 93.8194 104.886C94.4624 104.256 95.3705 104.019 96.0896 103.495C96.737 103.065 97.1541 102.392 97.7146 101.866Z" fill="white"/>
<path d="M29.1914 70.886V68.1528L35.5687 72.2525L41.946 78.6298L37.8463 79.5409L33.2911 78.6298L29.1914 70.886Z" fill="white"/>
<path d="M86.6488 89.9072L83.918 90.0195L87.7522 83.4792L93.8621 76.8452L96.1459 80.9075L94.2177 85.4928L86.6488 89.9072Z" fill="white"/>
</svg>
