<svg width="32" height="32" viewBox="0 0 32 32" fill="none" xmlns="http://www.w3.org/2000/svg">
<path d="M15.9987 18.667L14.938 19.7277L15.9987 20.7883L17.0594 19.7277L15.9987 18.667ZM17.4987 6.66699C17.4987 5.83856 16.8271 5.16699 15.9987 5.16699C15.1703 5.16699 14.4987 5.83856 14.4987 6.66699L17.4987 6.66699ZM8.27137 13.061L14.938 19.7277L17.0594 17.6063L10.3927 10.9397L8.27137 13.061ZM17.0594 19.7277L23.726 13.061L21.6047 10.9397L14.938 17.6063L17.0594 19.7277ZM17.4987 18.667L17.4987 6.66699L14.4987 6.66699L14.4987 18.667L17.4987 18.667Z" fill="#383737"/>
<path d="M6.66797 21.333L6.66797 22.6663C6.66797 24.1391 7.86188 25.333 9.33464 25.333L22.668 25.333C24.1407 25.333 25.3346 24.1391 25.3346 22.6663V21.333" stroke="#383737" stroke-width="3"/>
</svg>
