<svg width="520" height="117" viewBox="0 0 520 117" fill="none" xmlns="http://www.w3.org/2000/svg">
<path d="M177.438 11.41H175.058V2.06H170.898V0H181.568V2.06H177.428V11.41H177.438ZM198.148 11.41H195.758V6.28998H190.228V11.41H187.838V0.00997925H190.228V4.28H195.758V0.00997925H198.148V11.41ZM214.448 11.41H205.068V0.00997925H214.448V2.07001H207.448V4.69998H214.288V6.73999H207.448V9.38H214.448V11.41ZM233.498 11.41H231.408L226.158 0.00997925H228.858L232.398 8.35001L232.418 8.38998H232.608L236.168 0.019989H238.758L233.498 11.41ZM248.428 2.89999L246.678 7.01999L246.638 7.10999H250.418L248.638 2.94L248.618 2.89999H248.428ZM254.868 11.41H252.258L251.228 9.00998L251.208 8.97H245.828L244.788 11.4H242.288L247.538 0H249.608L254.868 11.41ZM271.828 11.41H269.108L266.808 7.20999L266.788 7.16998H265.158V5.16H267.448C268.378 5.16 269.108 4.45999 269.108 3.57999C269.108 3.16999 268.958 2.8 268.688 2.53C268.278 2.08 267.768 2.01999 267.268 2.01999H263.278V11.42H260.898V0.019989H267.178C268.668 0.019989 269.778 0.419979 270.568 1.25998C271.168 1.89998 271.498 2.73001 271.498 3.60001C271.498 4.35001 271.248 5.02999 270.798 5.60999C270.418 6.08999 269.888 6.49998 269.228 6.78998L269.158 6.82001L271.828 11.41ZM281.288 11.41H278.908V0.00997925H281.288V11.41ZM293.808 2.89999L292.058 7.01999L292.018 7.10999H295.788L294.018 2.94L293.998 2.89999H293.808ZM300.258 11.41H297.648L296.618 9.00998L296.598 8.97H291.218L290.188 11.4H287.688L292.938 0H295.008L300.258 11.41ZM308.608 1.97998V4.63998H312.708C313.228 4.63998 313.588 4.52 313.858 4.25C314.118 3.99 314.268 3.63999 314.268 3.26999C314.268 2.93999 314.138 2.63998 313.898 2.38998C313.828 2.31998 313.758 2.25999 313.678 2.20999C313.438 2.04999 313.138 1.98999 312.718 1.98999H308.608V1.97998ZM308.608 6.41V9.45999H313.128C313.668 9.45999 314.118 9.3 314.438 9C314.708 8.71 314.858 8.31998 314.858 7.94998C314.858 7.57998 314.708 7.22999 314.438 6.92999C314.098 6.57999 313.668 6.41998 313.128 6.41998H308.608V6.41ZM313.208 11.41H306.208V0.00997925H312.998C314.298 0.00997925 315.348 0.390006 316.018 1.10001C316.478 1.58001 316.718 2.16 316.718 2.78C316.718 3.13 316.648 3.47 316.508 3.78C316.268 4.3 315.858 4.76 315.318 5.03L315.178 5.10001L315.318 5.14999C315.798 5.31999 316.198 5.56 316.518 5.88C317.048 6.4 317.328 7.11998 317.328 7.94998C317.328 8.29998 317.278 8.63 317.178 8.94C317.008 9.46 316.708 9.93999 316.278 10.37C315.528 11.12 314.638 11.41 313.208 11.41ZM333.478 11.41H324.368V0.00997925H326.748V9.37H333.478V11.41ZM349.078 11.41H339.698V0.00997925H349.078V2.07001H342.078V4.69998H348.918V6.73999H342.078V9.38H349.078V11.41Z" fill="white"/>
<path d="M513.359 71.03C513.359 88.5 507.099 104.49 496.719 116.86H505.149C514.479 104.01 519.989 88.17 519.989 71.03C519.989 53.89 514.479 38.05 505.149 25.21H496.719C507.099 37.57 513.359 53.56 513.359 71.03Z" fill="#009ACD"/>
<path d="M6.63 71.03C6.63 53.56 12.89 37.57 23.27 25.21H14.84C5.50997 38.06 0 53.9 0 71.03C0 88.16 5.50997 104.01 14.84 116.86H23.27C12.89 104.48 6.63 88.49 6.63 71.03Z" fill="#009ACD"/>
<path d="M179.193 78.0199L169.423 36.1899H166.283H163.023V105.86H169.563V64.6599L179.763 105.86H182.483H185.733V36.1899H179.193V78.0199Z" fill="white"/>
<path d="M230.841 68.44H236.071H239.721C241.891 68.44 243.181 69.64 243.181 72.32V97.7C243.181 102.48 239.331 106.36 234.591 106.56H230.251C225.411 106.56 221.461 102.58 221.461 97.7V44.36C221.461 39.48 225.411 35.5 230.251 35.5H234.591C239.331 35.7 243.181 39.58 243.181 44.36V54.15V55.21V61.48H236.071V45.56C236.071 43.47 234.391 41.78 232.321 41.78C230.251 41.78 228.571 43.47 228.571 45.56V96.51C228.571 98.6 230.251 100.29 232.321 100.29C234.391 100.29 236.071 98.6 236.071 96.51V75.81H233.981L230.841 68.44Z" fill="white"/>
<path d="M294.491 96.3999C294.491 98.4899 292.811 100.18 290.741 100.18H289.651C287.581 100.18 286.001 98.4899 286.001 96.3999V36.1899H280.961H278.891V38.1799V38.8999V97.6899C278.891 102.57 282.841 106.25 287.681 106.25H293.111V106.15C297.751 106.05 301.601 102.47 301.601 97.6899V36.1899H294.491V96.3999Z" fill="white"/>
<path d="M405.723 65.16C405.723 68.34 403.943 69.14 402.073 69.14H398.323V42.87H402.073C403.953 42.87 405.723 43.87 405.723 46.45V65.16ZM412.823 66.45V44.96C412.823 40.08 408.873 36.2 404.133 36.2H391.203V105.86H398.313V75.9H402.063C403.943 75.9 405.713 76.99 405.713 80.38V105.86H412.823V79.19C412.823 79.19 413.023 74.02 410.253 72.62C413.123 71.92 412.823 66.45 412.823 66.45Z" fill="white"/>
<path d="M464.338 95.11C464.338 97.8 462.558 98.7899 460.588 98.7899H455.948V43.36H460.588C462.568 43.36 464.338 44.35 464.338 46.94V95.11ZM462.558 36.2H448.828V105.86H462.558C467.398 105.86 471.248 101.98 471.348 97.1V44.95C471.248 40.08 467.398 36.2 462.558 36.2Z" fill="white"/>
<path d="M66.5507 105.88L77.8606 36.2201L77.8906 36.05H71.3105L63.2706 84.8701L55.2206 36.05H48.6406L59.9806 105.88H66.5507Z" fill="white"/>
<path d="M110.707 105.88L118.717 57.1801L126.747 105.88H133.327L122.007 36.17L121.987 36.05H115.457L104.127 105.84L104.117 105.88H110.707Z" fill="white"/>
<path d="M341.239 88.22L346.489 56.3L351.749 88.22H341.239ZM354.659 105.86H360.949L349.639 36.2H343.349L332.039 105.86H338.329L340.099 95.12H352.889L354.659 105.86Z" fill="white"/>
</svg>
