<svg width="122" height="123" viewBox="0 0 122 123" fill="none" xmlns="http://www.w3.org/2000/svg">
<g clip-path="url(#clip0_1837_30864)">
<path d="M40.265 36.5716C40.4191 36.3685 40.553 36.1486 40.7235 35.9578C42.329 35.876 43.7773 36.735 45.0435 37.6243C45.2175 37.7752 45.3934 37.9263 45.5797 38.0608C45.7704 38.218 45.9632 38.3754 46.1697 38.5115C47.2164 39.4426 48.2306 40.4568 48.9156 41.6928C49.0656 42.0046 49.2239 42.3129 49.3717 42.6265C49.4405 42.8114 49.5186 42.994 49.5936 43.1773C50.1897 44.5867 50.477 46.1056 51.0511 47.5246C51.3606 48.2535 51.7075 48.9709 52.1376 49.6355C52.658 50.2599 53.1846 50.8827 53.744 51.4734C53.9721 51.5927 54.1539 51.7747 54.3358 51.9546C54.8425 52.322 55.3321 52.7135 55.8536 53.0585C56.1266 53.2583 56.355 53.5118 56.6359 53.701C57.5744 54.4719 58.3636 55.3944 59.1174 56.3438C59.7652 57.449 60.3437 58.599 60.7485 59.8176C61.3902 60.6175 62.3905 61.0148 63.1422 61.7009C63.3588 61.8509 63.5444 62.0372 63.7386 62.216C64.1204 62.4431 64.346 62.86 64.7435 63.0659C66.0494 64.3717 67.0504 65.9845 67.6021 67.7504C68.7443 71.1427 69.3791 74.8445 68.528 78.3807C67.983 80.7341 66.7323 83.0094 64.8041 84.5025C64.9031 84.7049 65.0096 84.9027 65.1212 85.0999C65.6156 84.6899 66.1061 84.2776 66.5761 83.8394C66.853 83.3882 67.2565 83.0264 67.5172 82.5607C67.6236 82.4252 67.7301 82.2897 67.8357 82.1511C68.6477 80.6221 69.2918 78.9711 69.4803 77.24C69.6706 76.3749 69.6985 75.4796 69.6491 74.598C69.6806 72.8188 69.2384 71.0833 68.8997 69.3513C68.7353 68.819 68.5764 68.282 68.3694 67.7638C68.3327 67.627 68.2959 67.4901 68.2603 67.3524C67.8295 66.3229 67.3567 65.3108 66.7504 64.3742C65.7251 62.9984 64.4648 61.8332 63.1093 60.7879C62.7973 60.5802 62.4924 60.3587 62.1859 60.1442C61.8981 59.925 61.6191 59.6963 61.3266 59.4849C61.004 58.2408 60.3778 57.0904 59.7075 56.0007C59.0603 55.1923 58.3527 54.4322 57.6893 53.6378C58.856 53.4975 60.0744 53.4565 61.1898 53.8927C61.3106 53.9646 61.4333 54.0366 61.5584 54.1046C62.1817 54.3921 62.7344 54.8105 63.2106 55.3026C63.7408 55.627 64.0651 56.1801 64.4881 56.6216C64.6522 56.4761 64.8203 56.3309 64.9885 56.1857C64.227 55.2449 63.4032 54.3371 62.3547 53.7086C61.8754 53.3972 61.3292 53.2099 60.8476 52.9023C61.2637 52.4653 61.7848 52.1629 62.3355 51.9278C63.2016 51.5907 64.1096 51.3746 64.9517 50.9769C66.1714 50.4726 67.427 50.0624 68.6449 49.5559C69.7594 49.0592 70.9019 48.6386 72.0428 48.2119C72.2708 48.1381 72.4989 48.0623 72.7238 47.9741C72.9541 47.9097 73.1862 47.8494 73.4201 47.7913C73.5568 47.7281 73.6945 47.666 73.834 47.6061C73.9822 47.5672 74.1325 47.5263 74.2829 47.4855C75.0846 47.2779 75.9151 47.2461 76.7375 47.1873C78.6628 47.3749 80.6197 48.213 81.8016 49.7964C82.5797 50.5656 83.0779 51.6183 83.1124 52.7173C83.0233 52.9496 82.882 53.1588 82.7684 53.3781C82.8242 53.434 82.936 53.5459 82.9918 53.6018C82.7045 54.0431 82.483 54.5432 82.0339 54.8477C81.5046 55.2348 81.0929 55.8063 80.4688 56.0442C80.12 56.3114 79.7889 56.6012 79.4655 56.8956C79.3944 56.9097 79.2532 56.937 79.182 56.9511C78.5543 57.5444 77.7515 57.8912 77.0372 58.3623C75.2371 59.4664 73.063 59.5544 71.13 60.3074C70.9714 60.3913 70.8156 60.4785 70.6618 60.5678C70.5245 60.6238 70.3892 60.682 70.2548 60.7413C69.9165 60.8365 69.5794 60.9307 69.2413 61.0239C69.3663 60.8288 69.4915 60.6316 69.6215 60.4379C69.9451 59.3762 69.5944 58.2094 68.8836 57.382C68.7544 56.9387 68.301 56.747 67.997 56.4432C67.7336 56.1953 67.392 56.087 67.0365 56.0834C67.0157 56.2851 66.9948 56.4868 66.976 56.6887C68.1026 57.1664 68.832 58.3244 69.0148 59.5074C69.088 59.9518 68.9258 60.446 68.5392 60.7023C68.3349 60.9393 68.0184 60.779 67.8086 60.6458C67.3331 60.172 66.855 59.6645 66.654 59.0086C66.4932 58.5527 66.3753 58.0807 66.3107 57.6024C66.2846 56.6666 66.2246 55.5972 66.9125 54.861C67.3728 54.5694 67.9157 54.4414 68.4504 54.3698C68.8899 54.2932 69.3324 54.2178 69.7657 54.1011C69.8637 54.5961 69.8448 55.1048 69.9449 55.5979C70.0964 56.1527 70.3901 56.6528 70.6074 57.1829C70.9146 57.5691 71.2444 57.9357 71.5657 58.3098C71.645 58.3227 71.8026 58.3495 71.8819 58.3624C72.0034 58.2158 72.126 58.0683 72.2467 57.9186C71.7857 57.6217 71.4272 57.1869 71.1612 56.7122C70.6848 55.8187 70.4614 54.7881 70.5799 53.7785C70.8688 53.5802 71.1815 53.4181 71.486 53.2422C72.1628 52.9644 72.8633 53.1549 73.5342 53.333C73.6248 53.1923 73.7173 53.0517 73.8099 52.9111C73.555 52.6729 73.2384 52.5279 72.9135 52.4126C73.0794 52.1026 73.2786 51.8113 73.4746 51.5208C73.842 51.069 74.2245 50.6325 74.6004 50.1885C75.3151 49.5182 76.0853 48.9079 76.8151 48.2529C76.6351 48.1148 76.4551 47.9787 76.2716 47.8474C75.1448 48.8452 73.9203 49.7475 72.9961 50.9492C72.6792 51.4199 72.3331 51.8722 72.0413 52.3611C71.78 52.4314 71.519 52.4997 71.2571 52.5649C70.9401 52.7439 70.6177 52.9145 70.2947 53.0799C69.5016 53.405 68.6535 53.5523 67.8129 53.6931C67.4884 52.8635 66.8991 52.1263 66.1363 51.662C65.9733 51.8066 65.8123 51.9513 65.6524 52.0951C66.2336 52.6102 66.8779 53.0973 67.1112 53.8806C66.6214 54.2147 66.1556 54.5942 65.8999 55.1446C65.395 56.1717 65.5726 57.3554 65.7433 58.441C65.9741 59.342 66.4049 60.1631 66.9497 60.9122C67.2722 61.0883 67.5491 61.3321 67.8541 61.5383C68.3401 61.7436 68.8641 61.8876 69.3944 61.7932C70.1103 61.7033 70.7522 61.3458 71.3731 60.9989C71.9454 60.6637 72.5943 60.5161 73.2422 60.411C73.2345 60.448 73.2159 60.5209 73.2081 60.5579C72.9506 60.6478 72.706 60.7681 72.4606 60.8853C71.5876 61.2209 70.7347 61.6128 69.9433 62.1108C69.8186 62.2317 69.7093 62.364 69.6125 62.5063C69.0068 63.2303 69.1656 64.2693 69.5133 65.0731C69.9894 65.6354 70.4544 66.211 70.963 66.7472C71.3401 67.0369 71.7691 67.2573 72.203 67.4526C72.803 67.7242 73.447 67.882 74.1009 67.9593C73.5788 68.9424 73.3483 70.0658 73.429 71.1722C73.6016 71.883 73.6878 72.6779 74.24 73.2142C74.2527 73.2903 74.2783 73.4406 74.2912 73.5147C74.7442 73.9208 75.1957 74.3338 75.7126 74.6582C75.9302 74.7676 76.1452 74.885 76.3626 74.9964C76.2759 75.238 76.1823 75.4761 76.0818 75.7106C76.0392 76.4046 75.874 77.1344 76.1514 77.802C76.323 78.3602 76.7574 78.7711 77.1271 79.2036C77.4493 79.5919 77.9402 79.7589 78.3851 79.9561C78.5281 79.9879 78.6709 80.0217 78.8135 80.0596C79.9225 80.3612 81.1016 80.1628 82.2018 79.9171C83.276 79.7639 84.294 79.3221 85.385 79.2586C86.566 79.0909 87.7655 79.2101 88.9387 79.3843C88.7427 79.5082 88.5507 79.6323 88.3416 79.7258C88.113 79.8778 87.8937 80.0426 87.6435 80.1564C87.1142 80.4602 86.6055 80.8011 86.0565 81.0688C84.9243 81.6964 83.7546 82.2521 82.5666 82.7668C82.1561 82.9888 81.7244 83.1666 81.2929 83.3424C80.6293 83.6749 79.906 83.8527 79.2324 84.1561C79.078 84.1967 78.9266 84.2384 78.7752 84.2802C77.0055 84.8845 75.2529 85.546 73.5782 86.3788C71.8688 87.145 70.3246 88.2231 68.8161 89.312C68.2048 89.8475 67.5861 90.3744 66.9709 90.9077C66.81 91.0372 66.6841 91.2028 66.5913 91.387C65.2656 92.6457 63.827 93.7936 62.1804 94.604C61.422 94.8728 60.6187 95.0742 59.809 94.9459C58.555 94.904 57.501 94.1135 56.5802 93.3369C56.2544 93.122 56.0245 92.7922 55.683 92.5985C55.4144 92.3248 55.1737 92.0176 54.8598 91.7924C54.2785 91.3759 53.9812 90.6479 53.3426 90.3055C52.611 89.4848 51.8871 88.6554 51.1878 87.8086C50.8176 86.8954 49.8415 86.3748 49.4681 85.4644C49.0229 84.7978 48.3025 84.3101 47.9987 83.5593C47.5652 82.928 46.8955 82.4553 46.5962 81.7403C46.3016 81.3774 45.986 81.023 45.8172 80.5798C45.7197 80.1621 45.5917 79.7442 45.6032 79.3101C45.7139 79.0459 45.8031 78.7719 45.9031 78.5018C46.3703 77.7555 46.9743 77.1106 47.5671 76.466C48.6986 75.252 49.2201 73.6235 49.4467 72.0111C49.502 70.8932 49.6433 69.7806 49.6641 68.6623C49.6581 67.605 49.5754 66.5532 49.4314 65.5072C49.3775 65.1882 49.3226 64.8681 49.2543 64.5522C49.1823 63.8549 48.9424 63.189 48.8035 62.504C48.6793 62.1454 48.531 61.7961 48.3901 61.4444C48.2925 61.237 48.2021 61.0272 48.1056 60.8189C48.038 60.631 47.9664 60.4429 47.9041 60.2524C47.8513 60.1825 47.7446 60.0436 47.6918 59.9736C48.0681 59.9971 48.4462 60.0095 48.8178 59.931C49.3317 59.6993 49.758 59.331 50.1668 58.9514C50.2825 58.6337 50.4099 58.3229 50.5404 58.0113C50.5061 57.897 50.4354 57.6682 50.4011 57.5539C49.8349 57.5847 49.708 58.1658 49.5502 58.6014C49.3591 58.7684 49.1712 58.9345 48.9812 59.1005C48.6616 59.1625 48.3419 59.2265 48.0182 59.2618C47.923 59.327 47.7305 59.4572 47.6353 59.5224C47.4338 59.0544 47.3644 58.5443 47.2428 58.0527C48.0976 58.5227 49.1882 57.9368 49.6554 57.162C49.568 57.0652 49.3922 56.8704 49.3037 56.7745C49.0422 56.9455 48.7943 57.1387 48.5551 57.3397C48.0854 57.5086 47.5878 57.5596 47.1174 57.3636C47.0962 56.7361 47.3991 56.1373 47.3078 55.5097C47.1436 55.074 46.8852 54.674 46.793 54.212C46.6862 53.7682 46.5412 53.3328 46.4613 52.8829C46.3638 52.0618 46.0403 51.2881 45.6784 50.5534C45.636 50.4801 45.5521 50.3348 45.5107 50.2627C45.2302 49.734 44.9476 49.2073 44.6628 48.6824C44.4885 48.2175 44.2502 47.7793 44.0116 47.3452C44.256 47.3387 44.4992 47.3199 44.742 47.294C44.9475 47.0956 45.1495 46.8908 45.3285 46.6661C45.2632 46.5862 45.1316 46.4271 45.0652 46.3481C44.9931 46.3479 44.8466 46.3494 44.7735 46.3481C44.703 46.409 44.5642 46.5289 44.4927 46.5888C44.2483 46.5821 44.0022 46.5844 43.7617 46.6217C43.6451 46.3266 43.5252 46.0343 43.3875 45.7498C43.71 45.7856 44.0346 45.8083 44.3588 45.8351C44.5411 45.6777 44.7244 45.5194 44.9096 45.3632C44.8284 45.2648 44.6628 45.0687 44.5816 44.9703C44.1009 45.1374 43.5931 45.1745 43.1303 44.9303C42.9492 44.4749 42.8087 44.0053 42.6588 43.5401C42.4244 42.8127 42.4712 41.9919 42.7435 41.2832C43.174 40.7334 43.2278 40.0107 43.1956 39.3397C43.0343 38.2802 42.2483 37.4097 41.3066 36.9466C40.9655 36.8037 40.6166 36.6827 40.265 36.5716ZM79.0056 48.8287C79.3045 49.2164 79.743 49.4324 80.1563 49.672C80.4019 49.8576 80.6374 50.0557 80.902 50.2174C81.1943 50.6808 81.032 51.2888 81.3376 51.7238C81.547 51.6811 81.7337 51.5728 81.9229 51.4739C81.905 51.1484 81.8708 50.8237 81.8418 50.4985C81.626 50.0996 81.4362 49.6518 81.0147 49.4268C80.5337 49.0279 79.9948 48.6978 79.4093 48.4782C79.2737 48.5953 79.1392 48.7115 79.0056 48.8287Z" fill="white"/>
<path d="M40.7955 39.6369C40.4391 38.8822 40.0865 38.0902 40.0149 37.2486C40.5783 37.5347 41.2293 37.6656 41.7018 38.1097C42.1534 38.411 42.3152 38.9909 42.466 39.4857C42.6784 40.2095 42.1627 40.8273 41.7923 41.3896C41.4951 40.7846 41.0471 40.2681 40.7955 39.6369Z" fill="white"/>
<path d="M70.534 62.6767C70.5831 62.6721 70.6804 62.662 70.7295 62.6574C71.1441 62.2538 71.7011 62.072 72.1996 61.8005C72.3568 61.7216 72.513 61.6415 72.6705 61.5585C72.5683 62.5541 72.4909 63.7516 73.3529 64.4559C73.5071 64.4042 73.6613 64.3524 73.8156 64.2987C73.7941 64.0369 73.8944 63.6947 73.5664 63.5935C73.3606 62.7807 73.1989 61.8238 73.6953 61.0806C73.9941 60.4816 74.7602 60.4979 75.2536 60.1438C75.7154 59.7619 76.2963 59.5859 76.8231 59.3165C77.5957 58.8405 78.3899 58.3894 79.0666 57.7784C79.6013 57.6234 79.9042 57.0947 80.3899 56.8457C80.8276 56.6551 81.1173 56.2231 81.5815 56.0873C82.1441 55.6336 82.6928 55.1615 83.2217 54.6687C83.3207 54.4961 83.4333 54.3325 83.5508 54.1704C83.6415 53.9728 83.7311 53.7761 83.8258 53.5787C84.1083 53.5923 84.3938 53.6071 84.6785 53.6187C84.9747 53.7512 85.2757 53.8738 85.5793 53.9885C85.9612 54.1851 86.3131 54.4323 86.674 54.666C86.8747 54.8677 87.0849 55.065 87.3141 55.2382C88.122 55.9324 88.6565 56.878 89.1284 57.819C89.6654 58.8968 89.8345 60.2811 89.1418 61.332C88.9317 61.5931 88.7557 61.8871 88.4998 62.1062C86.4771 63.503 83.9463 63.6888 81.7557 64.7116C81.5634 64.7849 81.3748 64.8626 81.1854 64.9371C80.755 65.18 80.3109 65.4026 79.8462 65.5729C79.4605 65.7754 79.0703 65.9704 78.6768 66.153C77.6193 66.593 76.5346 67.0015 75.3924 67.1395C74.9721 67.2033 74.543 67.0682 74.1309 67.2007C73.9906 67.1589 73.8515 67.1162 73.7123 67.0735C73.6423 66.3632 73.4676 65.6543 73.1506 65.0132C72.9085 64.4325 72.4251 64.011 72.0375 63.5315C71.7378 63.1539 71.3136 62.9105 70.8996 62.679C70.7994 62.7713 70.5998 62.9569 70.5016 63.0493C70.6477 63.4705 71.1073 63.6057 71.4211 63.8726C72.2896 64.6698 72.8246 65.7892 72.9742 66.9535C72.1612 66.6481 71.3309 66.2592 70.7847 65.5567C70.4378 65.1594 70.2698 64.6491 70.0103 64.1952C69.9713 63.6304 70.1821 63.1113 70.534 62.6767ZM84.3718 55.4784C84.8205 55.7215 85.2713 55.9628 85.7256 56.1993C85.9553 56.463 86.1966 56.7205 86.4958 56.909C86.7224 57.3402 86.9882 57.7489 87.2382 58.1655C87.2692 58.3263 87.3001 58.4871 87.331 58.6479C87.4068 58.7378 87.5592 58.9186 87.6359 59.0096C87.771 58.8985 88.116 58.9055 88.0728 58.6625C88.0082 58.0175 87.6661 57.4285 87.2794 56.9216C87.4516 56.9433 87.6239 56.9631 87.7983 56.9829C87.8458 56.8187 88.0494 56.6202 87.8854 56.4588C87.6097 56.1155 87.3378 55.7613 87.0043 55.4717C86.631 55.421 86.5482 55.8031 86.5322 56.0916C86.1059 55.4863 85.4043 55.187 84.7542 54.8905C84.6202 55.0839 84.4911 55.2788 84.3718 55.4784Z" fill="white"/>
<path d="M74.9771 67.9116C75.6689 67.9145 76.3307 67.7027 76.9872 67.5088C77.2896 67.3897 77.6015 67.2926 77.9217 67.2225C77.6014 67.9613 77.472 68.7587 77.4703 69.5593C77.5336 69.8759 77.5886 70.194 77.6652 70.5085C77.8109 71.1553 77.9979 71.795 78.2895 72.3935C78.3899 72.4659 78.4969 72.5306 78.6107 72.5877C78.7387 72.4772 78.8676 72.3677 78.9976 72.2573C78.89 71.9639 78.7813 71.6714 78.6746 71.379C78.4989 70.8774 78.3042 70.3713 78.2784 69.8349C78.2613 69.7777 78.2249 69.6633 78.2068 69.6051C78.3077 68.9763 78.2198 68.3022 78.5097 67.7147C78.6828 67.3208 78.9668 66.9941 79.2387 66.6664C79.5124 66.5228 79.7907 66.3866 80.0752 66.2621C80.299 66.1616 80.5193 66.0527 80.7459 65.9555C81.9126 65.3853 83.113 64.8542 84.3946 64.6014C85.1517 64.4626 85.8587 64.1475 86.6072 63.9725C87.1463 63.7853 87.6443 63.5067 88.1554 63.2565C88.3925 63.0726 88.6232 62.8771 88.8549 62.6827C89.0481 62.8757 89.2339 63.0864 89.4864 63.2055C90.2858 64.0301 91.0533 64.9297 91.3941 66.0501C91.5134 66.754 91.4384 67.4741 91.2261 68.1536C90.5831 69.5822 89.2421 70.5207 87.8247 71.0877C87.5589 71.1923 87.296 71.3001 87.0349 71.4101C86.0337 71.7332 85.0403 72.0742 84.045 72.413C82.7899 72.9421 81.5782 73.572 80.3198 74.0907C79.2319 74.4868 78.0379 74.6108 76.9009 74.3864C76.3702 74.1535 75.7832 73.9673 75.3882 73.5187C74.0885 72.3231 73.8261 70.1994 74.6616 68.669C75.044 68.5944 75.1925 69.1215 75.4521 69.3234C75.6016 69.8079 75.862 70.2629 75.9109 70.7756C75.9572 71.2129 75.8916 71.6522 75.8788 72.0913C75.8387 72.1391 75.7596 72.234 75.7186 72.2807C75.8717 72.4515 76.0269 72.6224 76.1844 72.7894C76.4372 72.5426 76.656 72.2324 76.6515 71.8632C76.686 70.9603 76.6106 70.0178 76.2 69.1982C75.8334 68.7364 75.4843 68.2292 74.9771 67.9116ZM87.5641 65.3809C87.7414 65.6672 87.8995 65.9643 88.0693 66.2552C88.325 66.97 88.2976 67.719 88.2048 68.4601C88.3587 68.5242 88.5103 68.5902 88.6639 68.6583C88.7409 68.5918 88.896 68.4578 88.9741 68.3904C89.1298 67.4699 88.9885 66.5256 88.5772 65.6877C88.4289 65.4238 88.2397 65.1894 88.0493 64.958C87.8866 65.0986 87.7239 65.2391 87.5641 65.3809ZM89.2223 65.0245C89.1907 65.1086 89.1268 65.2736 89.0953 65.3577C89.3828 65.8726 89.6661 66.4177 89.6512 67.0253C89.7811 67.1801 89.913 67.3351 90.0461 67.4891C90.1917 67.3046 90.4706 67.1452 90.4054 66.8701C90.3206 66.1668 90.0542 65.4877 89.6228 64.9247C89.4872 64.9585 89.3548 64.9915 89.2223 65.0245Z" fill="white"/>
<path d="M76.6829 76.5936C76.8018 76.2334 76.7732 75.7486 77.0889 75.5024C77.3854 75.7974 77.6598 76.1173 77.9139 76.4509C78.2258 77.0773 78.2879 77.8115 78.0814 78.4824C77.9636 78.8 78.4462 78.9968 78.6297 78.7379C78.9439 78.4438 78.9454 77.9785 78.9797 77.5796C78.92 77.2978 78.8779 77.0122 78.8336 76.7285C78.4885 76.2083 78.3549 75.4506 77.7049 75.2222C78.1261 75.2581 78.5455 75.2064 78.9624 75.1475C79.3975 75.0198 79.8386 74.9077 80.2775 74.7843C80.2799 75.0985 80.264 75.4134 80.1928 75.7212C80.1555 76.4806 80.2802 77.2499 80.6214 77.9344C80.7122 78.0812 80.8799 78.1504 81.0181 78.2489C81.1577 78.1321 81.2983 78.0164 81.4409 77.9008C81.3949 77.8344 81.303 77.7017 81.257 77.6353C81.1415 77.2976 81.0269 76.961 80.9289 76.6195C80.7812 75.8455 80.9809 75.0746 81.2798 74.3637C81.5443 74.2621 81.806 74.1573 82.0698 74.0526C82.812 73.741 83.5368 73.3916 84.2861 73.0948C85.5373 72.6466 86.8079 72.2538 88.0533 71.7879C88.4961 71.5968 88.9287 71.3784 89.3488 71.1368C89.5787 71.0083 89.7905 70.85 90.0013 70.6906C90.2948 71.0413 90.6372 71.3611 90.8756 71.7555C91.7413 73.5647 91.7083 75.739 90.942 77.5752C90.7437 77.7995 90.5722 78.0461 90.3854 78.2794C90.1745 78.3422 89.974 78.417 89.7739 78.4989C89.2947 78.7006 88.767 78.6773 88.2618 78.6231C87.4837 78.5489 86.7034 78.5051 85.9251 78.4482C85.2716 78.3933 84.6478 78.6403 84.0077 78.7084C82.8071 79.0067 81.6162 79.4085 80.369 79.4402C79.8724 79.4354 79.3778 79.3759 78.883 79.3468C78.3551 79.0887 77.7489 78.9153 77.358 78.4518C77.1122 78.2001 76.9659 77.8795 76.8012 77.5748C76.756 77.2483 76.7353 76.9196 76.6829 76.5936ZM88.7204 73.4353C88.8655 73.9936 89.0167 74.5524 89.0373 75.1332C89.0302 75.3969 89.0026 75.6631 89.0443 75.9263C89.1714 75.9946 89.304 76.0581 89.439 76.1158C89.5565 75.9953 89.675 75.8759 89.7935 75.7565C89.6729 74.8209 89.8429 73.746 89.2037 72.9686C88.9673 73.0041 88.6091 73.1222 88.7204 73.4353ZM89.8037 73.4484C89.9221 73.6776 90.0373 73.9096 90.1619 74.1372C90.3127 74.5903 90.0906 75.0283 90.0749 75.4793C90.1762 75.5813 90.291 75.6659 90.4201 75.7343C90.6269 75.6162 90.7369 75.4038 90.855 75.2071C91.1167 74.5322 90.9333 73.6906 90.4001 73.2004C90.1554 73.1276 89.9869 73.3338 89.8037 73.4484Z" fill="white"/>
<mask id="path-6-outside-1_1837_30864" maskUnits="userSpaceOnUse" x="18.6052" y="18.6746" width="83.8019" height="85.4519" fill="black">
<rect fill="white" x="18.6052" y="18.6746" width="83.8019" height="85.4519"/>
<path d="M39.0985 36.5138C39.466 36.1301 39.7291 35.6301 40.2145 35.3719C41.0652 35.0367 42.0025 35.2821 42.8049 35.6344C44.4293 36.3508 45.8981 37.389 47.2515 38.5306C47.8492 39.1546 48.3965 39.8277 48.9593 40.4837C49.6179 41.4962 50.2164 42.5684 50.5831 43.7232C50.6371 43.8603 50.6891 43.9972 50.74 44.1351C50.8951 44.6962 51.1126 45.2375 51.2438 45.806C51.4663 46.432 51.6117 47.0849 51.8968 47.6891C52.1231 48.2076 52.2937 48.7648 52.6427 49.2171C53.2726 49.942 53.8504 50.7271 54.6381 51.2949C55.4718 51.9422 56.3848 52.4927 57.1616 53.21C57.6363 52.8189 58.27 52.8947 58.834 52.7693C59.2491 52.7763 59.662 52.8421 60.0775 52.8298C60.4294 52.3951 60.8073 51.9665 61.2911 51.6736C61.7329 51.4681 62.1921 51.3025 62.6425 51.12C63.2531 50.8578 63.895 50.6821 64.5004 50.4073C64.8343 50.261 65.1728 50.1201 65.5054 49.9635C67.5931 49.1945 69.676 48.4068 71.7632 47.6305C72.515 47.3542 73.2852 47.1341 74.0336 46.8494C74.3378 46.7609 74.6436 46.6786 74.9504 46.5974C75.7848 46.5263 76.6413 46.3206 77.467 46.5639C79.6688 46.8743 81.6515 48.1808 82.965 49.9516C83.3557 50.6956 83.7458 51.4476 83.9125 52.2809C83.9016 52.4305 83.8907 52.5801 83.8808 52.7288C84.325 52.8527 84.7841 52.9107 85.2351 53.0118C85.9492 53.3495 86.6694 53.701 87.2659 54.2293C87.8165 54.5927 88.1563 55.1857 88.6131 55.6509C89 56.0308 89.2335 56.5205 89.5322 56.9651C89.9117 57.6127 90.1109 58.3346 90.2887 59.0579C90.2957 59.408 90.3382 59.7576 90.3359 60.1081C90.1855 60.9009 89.7912 61.5956 89.3776 62.2767C90.0778 62.6796 90.4982 63.3922 91.0438 63.9646C91.3979 64.3329 91.6863 64.7524 91.9141 65.2091C92.0535 65.8595 92.3018 66.5087 92.2067 67.1836C92.1303 68.3955 91.4499 69.5286 90.4895 70.2521C91.2999 70.8987 91.7752 71.8897 92.0422 72.8808C92.3022 73.6752 92.1883 74.5103 92.2403 75.3271C92.0822 76.1417 92.0019 76.9895 91.6237 77.7423C91.3766 78.3421 90.8425 78.739 90.4448 79.2302C89.6529 79.6794 88.9643 80.2988 88.1665 80.7302C87.8836 80.9443 87.6138 81.1736 87.3421 81.4006C86.3551 81.8345 85.3677 82.2745 84.4107 82.7716C83.5225 83.3001 82.5777 83.726 81.5911 84.0308C80.7352 84.3951 79.8476 84.6787 78.9694 84.9865C77.6067 85.4722 76.2186 85.889 74.8925 86.4718C74.7646 86.5255 74.6396 86.5804 74.5145 86.6373C73.1719 87.2515 71.8371 87.912 70.6517 88.7938C70.1759 89.2824 69.5222 89.5232 69.0391 90.001C68.3441 90.6524 67.5276 91.1872 66.9578 91.9616C66.2813 92.5686 65.6294 93.2282 64.8252 93.6653C64.5115 93.8965 64.2297 94.1645 63.9198 94.3999C63.2135 94.7903 62.5172 95.2099 61.748 95.4728C60.7322 95.8558 59.6102 95.787 58.5844 95.4874C58.0509 95.3061 57.6207 94.9221 57.125 94.6683C56.519 94.1596 55.9287 93.6297 55.2866 93.1691C55.0173 92.8903 54.7901 92.5505 54.4318 92.379C53.9787 91.9729 53.69 91.3776 53.1409 91.0905C52.2913 90.1596 51.4905 89.1864 50.6592 88.2415C50.4208 88.0005 50.2913 87.6862 50.1011 87.4111C49.6505 86.8324 49.1221 86.3172 48.69 85.7226C48.2305 84.7388 47.2261 84.1176 46.7411 83.1351C46.267 82.573 45.8902 81.9438 45.4665 81.3458C45.1563 80.8485 45.0219 80.2544 44.6286 79.81C44.7294 79.3346 44.8812 78.8701 45.148 78.4598C45.6285 77.6281 46.3233 76.9523 46.9945 76.2778C47.1896 75.9445 47.4129 75.6285 47.6612 75.3327C47.7616 75.0982 47.8671 74.865 47.9794 74.6355C48.4129 73.78 48.5753 72.8234 48.7252 71.8852C48.918 71.1524 48.9186 70.3791 48.9219 69.6263C48.9681 66.52 48.5604 63.3399 47.2951 60.4782C47.1604 60.1248 47.0435 59.7637 46.9015 59.4128C46.6316 58.7671 46.4311 58.0767 46.4207 57.3717C46.2828 56.8108 46.6546 56.2851 46.6192 55.7399C46.3512 55.1949 46.1497 54.6284 45.985 54.0452C45.788 52.9729 45.5222 51.8976 45.0118 50.9274C44.7333 50.3593 44.4347 49.8009 44.1698 49.2267C43.7739 48.5666 43.5572 47.8201 43.1728 47.1559C42.5215 45.4874 41.8782 43.8062 41.5128 42.0479C41.3234 41.8176 41.1329 41.5882 40.953 41.3515C40.8134 40.9815 40.5143 40.7076 40.3473 40.3519C39.6807 39.1701 39.3286 37.8416 39.0985 36.5138ZM40.266 36.5717C40.6176 36.6828 40.9664 36.8038 41.3076 36.9467C42.2493 37.4098 43.0352 38.2803 43.1966 39.3398C43.2288 40.0108 43.175 40.7335 42.7445 41.2833C42.4722 41.992 42.4254 42.8127 42.6598 43.5402C42.8097 44.0054 42.9502 44.475 43.1313 44.9303C43.5941 45.1745 44.1019 45.1375 44.5826 44.9704C44.6638 45.0688 44.8293 45.2649 44.9106 45.3633C44.7254 45.5194 44.542 45.6778 44.3598 45.8352C44.0356 45.8084 43.711 45.7857 43.3884 45.7499C43.5262 46.0344 43.646 46.3267 43.7627 46.6218C44.0032 46.5845 44.2493 46.5822 44.4937 46.5888C44.5652 46.529 44.704 46.4091 44.7745 46.3482C44.8476 46.3495 44.994 46.348 45.0662 46.3482C45.1325 46.4272 45.2642 46.5862 45.3295 46.6662C45.1505 46.8909 44.9485 47.0957 44.743 47.294C44.5002 47.32 44.257 47.3388 44.0126 47.3453C44.2512 47.7794 44.4895 48.2175 44.6638 48.6825C44.9486 49.2074 45.2312 49.7341 45.5116 50.2627C45.5531 50.3349 45.637 50.4802 45.6794 50.5535C46.0413 51.2882 46.3648 52.0619 46.4623 52.883C46.5422 53.3329 46.6872 53.7683 46.7939 54.2121C46.8862 54.6741 47.1445 55.0741 47.3088 55.5098C47.4001 56.1374 47.0972 56.7362 47.1184 57.3637C47.5888 57.5597 48.0864 57.5087 48.556 57.3398C48.7953 57.1388 49.0432 56.9455 49.3047 56.7746C49.3932 56.8705 49.569 57.0653 49.6564 57.1621C49.1892 57.9369 48.0986 58.5228 47.2438 58.0528C47.3654 58.5444 47.4348 59.0545 47.6363 59.5225C47.7315 59.4573 47.924 59.327 48.0192 59.2618C48.3429 59.2266 48.6626 59.1626 48.9822 59.1006C49.1721 58.9346 49.3601 58.7685 49.5511 58.6015C49.709 58.1659 49.8358 57.5848 50.4021 57.554C50.4364 57.6683 50.5071 57.8971 50.5414 58.0114C50.4109 58.3229 50.2835 58.6337 50.1678 58.9515C49.759 59.3311 49.3327 59.6993 48.8188 59.9311C48.4472 60.0096 48.0691 59.9972 47.6927 59.9737C47.7456 60.0436 47.8523 60.1825 47.9051 60.2525C47.9674 60.443 48.039 60.6311 48.1065 60.819C48.2031 61.0273 48.2934 61.2371 48.3911 61.4445C48.532 61.7962 48.6803 62.1455 48.8044 62.5041C48.9434 63.189 49.1833 63.8549 49.2553 64.5523C49.3236 64.8682 49.3785 65.1883 49.4324 65.5072C49.5764 66.5533 49.6591 67.6051 49.6651 68.6624C49.6443 69.7807 49.503 70.8933 49.4477 72.0112C49.221 73.6236 48.6995 75.2521 47.5681 76.4661C46.9753 77.1107 46.3712 77.7556 45.9041 78.5019C45.804 78.772 45.7149 79.0459 45.6041 79.3102C45.5927 79.7443 45.7207 80.1622 45.8182 80.5799C45.987 81.0231 46.3025 81.3774 46.5971 81.7404C46.8965 82.4554 47.5661 82.9281 47.9996 83.5594C48.3035 84.3102 49.0239 84.7979 49.469 85.4645C49.8425 86.3749 50.8186 86.8955 51.1888 87.8087C51.8881 88.6555 52.6119 89.4849 53.3436 90.3056C53.9821 90.648 54.2795 91.376 54.8608 91.7925C55.1746 92.0177 55.4154 92.3249 55.684 92.5986C56.0255 92.7923 56.2554 93.1221 56.5812 93.3369C57.502 94.1136 58.5559 94.9041 59.8099 94.9459C60.6196 95.0743 61.423 94.8728 62.1814 94.6041C63.828 93.7936 65.2666 92.6458 66.5923 91.3871C66.685 91.2028 66.811 91.0373 66.9718 90.9078C67.587 90.3745 68.2058 89.8476 68.8171 89.3121C70.3255 88.2232 71.8698 87.1451 73.5792 86.3789C75.2539 85.5461 77.0064 84.8846 78.7762 84.2803C78.9276 84.2385 79.079 84.1967 79.2334 84.1562C79.907 83.8528 80.6303 83.675 81.2938 83.3425C81.7254 83.1667 82.1571 82.9889 82.5676 82.7669C83.7556 82.2522 84.9253 81.6965 86.0575 81.0689C86.6065 80.8011 87.1152 80.4603 87.6445 80.1565C87.8947 80.0427 88.114 79.8779 88.3426 79.7259C88.5517 79.6324 88.7437 79.5083 88.9397 79.3844C87.7665 79.2102 86.5669 79.091 85.386 79.2587C84.295 79.3222 83.277 79.764 82.2028 79.9172C81.1026 80.1629 79.9235 80.3613 78.8145 80.0597C78.6719 80.0218 78.5291 79.988 78.3861 79.9562C77.9411 79.759 77.4503 79.592 77.1281 79.2036C76.7583 78.7711 76.324 78.3603 76.1524 77.8021C75.875 77.1344 76.0401 76.4047 76.0827 75.7107C76.1832 75.4762 76.2768 75.2381 76.3636 74.9965C76.1462 74.885 75.9312 74.7677 75.7136 74.6583C75.1967 74.3339 74.7452 73.9208 74.2922 73.5148C74.2793 73.4407 74.2537 73.2904 74.241 73.2143C73.6887 72.678 73.6025 71.8831 73.4299 71.1723C73.3493 70.0659 73.5798 68.9425 74.1018 67.9594C73.448 67.8821 72.804 67.7242 72.204 67.4527C71.7701 67.2574 71.3411 67.037 70.9639 66.7472C70.4554 66.2111 69.9904 65.6355 69.5142 65.0732C69.1665 64.2694 69.0078 63.2304 69.6135 62.5064C69.7103 62.3641 69.8196 62.2318 69.9443 62.1109C70.7357 61.6129 71.5885 61.221 72.4616 60.8854C72.707 60.7682 72.9515 60.6479 73.2091 60.558C73.2169 60.5209 73.2354 60.4481 73.2432 60.4111C72.5953 60.5161 71.9463 60.6638 71.3741 60.999C70.7532 61.3458 70.1112 61.7034 69.3953 61.7933C68.8651 61.8876 68.3411 61.7436 67.8551 61.5384C67.5501 61.3322 67.2732 61.0883 66.9507 60.9123C66.4059 60.1632 65.9751 59.3421 65.7442 58.4411C65.5736 57.3555 65.396 56.1718 65.9009 55.1447C66.1566 54.5943 66.6223 54.2148 67.1122 53.8807C66.8788 53.0974 66.2346 52.6103 65.6534 52.0952C65.8133 51.9514 65.9743 51.8067 66.1373 51.6621C66.9 52.1264 67.4894 52.8636 67.8139 53.6932C68.6544 53.5524 69.5026 53.4051 70.2956 53.08C70.6187 52.9146 70.9411 52.744 71.2581 52.565C71.5199 52.4998 71.781 52.4315 72.0422 52.3611C72.3341 51.8723 72.6801 51.42 72.9971 50.9493C73.9213 49.7476 75.1458 48.8453 76.2726 47.8474C76.456 47.9787 76.6361 48.1149 76.816 48.253C76.0863 48.908 75.3161 49.5183 74.6014 50.1886C74.2255 50.6326 73.843 51.0691 73.4756 51.5209C73.2796 51.8114 73.0804 52.1027 72.9145 52.4127C73.2394 52.5279 73.556 52.673 73.8109 52.9112C73.7183 53.0518 73.6257 53.1923 73.5352 53.3331C72.8643 53.155 72.1638 52.9645 71.487 53.2423C71.1825 53.4182 70.8698 53.5803 70.5809 53.7786C70.4624 54.7882 70.6858 55.8188 71.1621 56.7123C71.4282 57.187 71.7867 57.6217 72.2477 57.9187C72.127 58.0684 72.0044 58.2159 71.8829 58.3625C71.8036 58.3496 71.646 58.3228 71.5666 58.3099C71.2454 57.9358 70.9155 57.5692 70.6084 57.183C70.3911 56.6529 70.0974 56.1527 69.9459 55.598C69.8458 55.1049 69.8647 54.5961 69.7667 54.1012C69.3334 54.2179 68.8909 54.2933 68.4514 54.3698C67.9167 54.4415 67.3738 54.5695 66.9135 54.861C66.2255 55.5973 66.2855 56.6667 66.3116 57.6025C66.3762 58.0808 66.4942 58.5528 66.6549 59.0087C66.856 59.6646 67.3341 60.1721 67.8096 60.6459C68.0193 60.7791 68.3359 60.9394 68.5402 60.7023C68.9268 60.4461 69.0889 59.9518 69.0157 59.5075C68.8329 58.3244 68.1036 57.1665 66.977 56.6888C66.9958 56.4869 67.0167 56.2852 67.0375 56.0835C67.3929 56.0871 67.7346 56.1954 67.998 56.4433C68.302 56.7471 68.7554 56.9387 68.8846 57.3821C69.5954 58.2095 69.946 59.3763 69.6225 60.438C69.4925 60.6317 69.3673 60.8289 69.2422 61.024C69.5803 60.9308 69.9175 60.8366 70.2558 60.7414C70.3902 60.6821 70.5255 60.6239 70.6627 60.5679C70.8166 60.4786 70.9724 60.3914 71.131 60.3074C73.064 59.5545 75.238 59.4665 77.0382 58.3624C77.7525 57.8913 78.5553 57.5445 79.183 56.9512C79.2542 56.9371 79.3954 56.9098 79.4665 56.8957C79.7899 56.6013 80.121 56.3115 80.4698 56.0443C81.0939 55.8064 81.5056 55.2349 82.0349 54.8478C82.484 54.5433 82.7055 54.0432 82.9928 53.6019C82.9369 53.5459 82.8252 53.4341 82.7693 53.3782C82.8829 53.1589 83.0242 52.9497 83.1134 52.7174C83.0789 51.6184 82.5807 50.5657 81.8026 49.7965C80.6207 48.2131 78.6637 47.375 76.7385 47.1874C75.9161 47.2462 75.0856 47.278 74.2838 47.4856C74.1335 47.5264 73.9832 47.5672 73.835 47.6062C73.6955 47.6661 73.5578 47.7282 73.4211 47.7914C73.1871 47.8495 72.9551 47.9097 72.7248 47.9742C72.4998 48.0624 72.2718 48.1382 72.0438 48.212C70.9029 48.6387 69.7604 49.0592 68.6459 49.556C67.428 50.0624 66.1724 50.4727 64.9526 50.9769C64.1106 51.3747 63.2025 51.5908 62.3365 51.9279C61.7857 52.163 61.2647 52.4654 60.8486 52.9024C61.3301 53.21 61.8764 53.3972 62.3556 53.7087C63.4042 54.3372 64.228 55.2449 64.9895 56.1858C64.8213 56.331 64.6532 56.4762 64.4891 56.6217C64.0661 56.1802 63.7417 55.6271 63.2116 55.3027C62.7354 54.8106 62.1827 54.3922 61.5594 54.1047C61.4343 54.0366 61.3115 53.9647 61.1908 53.8928C60.0754 53.4566 58.857 53.4976 57.6902 53.6379C58.3537 54.4323 59.0613 55.1924 59.7084 56.0008C60.3787 57.0905 61.005 58.2409 61.3276 59.485C61.6201 59.6964 61.8991 59.9251 62.1869 60.1443C62.4934 60.3588 62.7983 60.5803 63.1103 60.788C64.4658 61.8332 65.726 62.9985 66.7514 64.3743C67.3577 65.3108 67.8304 66.323 68.2612 67.3525C68.2969 67.4902 68.3336 67.627 68.3704 67.7639C68.5774 68.282 68.7363 68.8191 68.9006 69.3514C69.2394 71.0834 69.6816 72.8189 69.6501 74.5981C69.6994 75.4797 69.6716 76.375 69.4813 77.2401C69.2927 78.9712 68.6487 80.6222 67.8367 82.1512C67.731 82.2898 67.6246 82.4253 67.5181 82.5608C67.2575 83.0265 66.854 83.3882 66.5771 83.8395C66.1071 84.2777 65.6166 84.69 65.1222 85.1C65.0106 84.9028 64.9041 84.705 64.8051 84.5026C66.7333 83.0095 67.984 80.7342 68.529 78.3808C69.38 74.8446 68.7453 71.1428 67.6031 67.7505C67.0513 65.9846 66.0504 64.3718 64.7445 63.066C64.347 62.8601 64.1214 62.4432 63.7396 62.2161C63.5454 62.0373 63.3598 61.851 63.1432 61.701C62.3915 61.0149 61.3911 60.6176 60.7494 59.8177C60.3447 58.5991 59.7662 57.4491 59.1183 56.3439C58.3646 55.3945 57.5754 54.4719 56.6369 53.7011C56.356 53.5119 56.1276 53.2584 55.8546 53.0586C55.3331 52.7135 54.8435 52.3221 54.3368 51.9547C54.1548 51.7748 53.973 51.5928 53.745 51.4735C53.1855 50.8828 52.6589 50.26 52.1386 49.6355C51.7085 48.971 51.3616 48.2536 51.0521 47.5247C50.478 46.1057 50.1907 44.5868 49.5946 43.1774C49.5196 42.9941 49.4415 42.8115 49.3727 42.6266C49.2249 42.313 49.0666 42.0047 48.9166 41.6929C48.2316 40.4569 47.2174 39.4427 46.1707 38.5115C45.9641 38.3755 45.7714 38.2181 45.5807 38.0609C45.3944 37.9263 45.2184 37.7753 45.0445 37.6244C43.7783 36.735 42.33 35.8761 40.7244 35.9579C40.554 36.1487 40.42 36.3686 40.266 36.5717ZM40.7999 39.6371C41.0515 40.2683 41.4995 40.7847 41.7967 41.3898C42.1671 40.8275 42.6828 40.2097 42.4705 39.4859C42.3197 38.9911 42.1578 38.4112 41.7063 38.1099C41.2337 37.6658 40.5827 37.5349 40.0193 37.2488C40.0909 38.0904 40.4435 38.8824 40.7999 39.6371ZM70.537 62.6765C70.1851 63.1112 69.9744 63.6303 70.0134 64.1951C70.2729 64.649 70.4408 65.1593 70.7878 65.5566C71.334 66.2591 72.1642 66.648 72.9773 66.9534C72.8276 65.789 72.2926 64.6697 71.4241 63.8725C71.1103 63.6056 70.6507 63.4704 70.5047 63.0492C70.6029 62.9568 70.8024 62.7711 70.9027 62.6789C71.3166 62.9104 71.7409 63.1538 72.0405 63.5314C72.4282 64.0109 72.9116 64.4324 73.1537 65.0131C73.4706 65.6542 73.6454 66.3631 73.7154 67.0734C73.8546 67.1161 73.9937 67.1588 74.1339 67.2006C74.5461 67.0681 74.9752 67.2031 75.3955 67.1394C76.5377 67.0013 77.6224 66.5929 78.6799 66.1529C79.0733 65.9703 79.4636 65.7753 79.8493 65.5728C80.314 65.4025 80.7581 65.1799 81.1884 64.937C81.3778 64.8624 81.5664 64.7848 81.7588 64.7114C83.9493 63.6887 86.4801 63.5028 88.5029 62.1061C88.7588 61.887 88.9347 61.593 89.1449 61.3319C89.8375 60.281 89.6684 58.8967 89.1314 57.8189C88.6596 56.8779 88.1251 55.9323 87.3171 55.2381C87.0879 55.0649 86.8778 54.8676 86.6771 54.6659C86.3161 54.4322 85.9643 54.185 85.5824 53.9883C85.2788 53.8737 84.9778 53.7511 84.6816 53.6186C84.3969 53.607 84.1114 53.5922 83.8288 53.5786C83.7341 53.776 83.6445 53.9727 83.5539 54.1703C83.4363 54.3324 83.3238 54.4959 83.2248 54.6686C82.6959 55.1614 82.1471 55.6334 81.5845 56.0872C81.1203 56.223 80.8306 56.655 80.3929 56.8456C79.9072 57.0946 79.6044 57.6233 79.0697 57.7783C78.3929 58.3893 77.5988 58.8404 76.8262 59.3164C76.2994 59.5858 75.7185 59.7618 75.2566 60.1437C74.7633 60.4978 73.9972 60.4815 73.6983 61.0805C73.2019 61.8237 73.3637 62.7806 73.5695 63.5934C73.8974 63.6946 73.7972 64.0368 73.8187 64.2986C73.6644 64.3523 73.5102 64.404 73.356 64.4558C72.4939 63.7515 72.5713 62.554 72.6736 61.5584C72.5161 61.6414 72.3598 61.7214 72.2026 61.8004C71.7042 62.0719 71.1472 62.2537 70.7325 62.6573C70.6834 62.6618 70.5861 62.672 70.537 62.6765ZM74.9793 67.9118C75.4865 68.2293 75.8356 68.7365 76.2022 69.1983C76.6128 70.0179 76.6882 70.9604 76.6537 71.8633C76.6582 72.2325 76.4394 72.5427 76.1866 72.7895C76.0291 72.6225 75.8739 72.4516 75.7207 72.2809C75.7618 72.2341 75.8409 72.1392 75.8809 72.0914C75.8937 71.6523 75.9594 71.213 75.9131 70.7757C75.8642 70.263 75.6038 69.808 75.4543 69.3235C75.1947 69.1216 75.0462 68.5945 74.6637 68.6691C73.8283 70.1995 74.0907 72.3232 75.3904 73.5189C75.7854 73.9674 76.3724 74.1536 76.9031 74.3866C78.0401 74.6109 79.2341 74.4869 80.322 74.0908C81.5804 73.5721 82.7921 72.9422 84.0472 72.4131C85.0424 72.0743 86.0358 71.7333 87.0371 71.4102C87.2982 71.3002 87.5611 71.1924 87.8269 71.0879C89.2443 70.5208 90.5852 69.5823 91.2283 68.1537C91.4406 67.4742 91.5156 66.7541 91.3963 66.0502C91.0555 64.9298 90.288 64.0302 89.4885 63.2056C89.2361 63.0865 89.0503 62.8758 88.8571 62.6828C88.6254 62.8772 88.3946 63.0727 88.1576 63.2566C87.6465 63.5068 87.1485 63.7854 86.6094 63.9726C85.8608 64.1476 85.1539 64.4628 84.3968 64.6015C83.1152 64.8543 81.9148 65.3854 80.7481 65.9556C80.5215 66.0528 80.3012 66.1617 80.0773 66.2622C79.7928 66.3867 79.5146 66.5229 79.2409 66.6665C78.969 66.9942 78.6849 67.3209 78.5118 67.7148C78.2219 68.3023 78.3098 68.9764 78.209 69.6052C78.2271 69.6634 78.2634 69.7778 78.2806 69.835C78.3064 70.3714 78.5011 70.8775 78.6768 71.3792C78.7835 71.6715 78.8922 71.964 78.9998 72.2574C78.8698 72.3678 78.7408 72.4773 78.6128 72.5878C78.4991 72.5308 78.3921 72.466 78.2917 72.3936C78.0001 71.7951 77.8131 71.1554 77.6673 70.5086C77.5907 70.1941 77.5358 69.876 77.4725 69.5594C77.4742 68.7588 77.6036 67.9614 77.9239 67.2226C77.6037 67.2927 77.2917 67.3898 76.9893 67.5089C76.3329 67.7028 75.6711 67.9146 74.9793 67.9118ZM76.6808 76.5938C76.7331 76.9198 76.7538 77.2485 76.799 77.575C76.9638 77.8797 77.11 78.2003 77.3558 78.452C77.7467 78.9156 78.3529 79.0889 78.8808 79.347C79.3756 79.3761 79.8702 79.4357 80.3668 79.4405C81.614 79.4087 82.8049 79.007 84.0055 78.7086C84.6457 78.6406 85.2694 78.3935 85.9229 78.4484C86.7012 78.5053 87.4815 78.5491 88.2596 78.6233C88.7648 78.6775 89.2925 78.7009 89.7717 78.4991C89.9718 78.4172 90.1724 78.3424 90.3832 78.2796C90.57 78.0463 90.7415 77.7997 90.9398 77.5754C91.7061 75.7392 91.7391 73.5649 90.8735 71.7557C90.635 71.3613 90.2926 71.0415 89.9991 70.6908C89.7883 70.8502 89.5765 71.0085 89.3466 71.137C88.9265 71.3786 88.4939 71.597 88.0511 71.7882C86.8057 72.254 85.5351 72.6469 84.2839 73.095C83.5346 73.3918 82.8099 73.7412 82.0676 74.0528C81.8038 74.1575 81.5421 74.2623 81.2776 74.3639C80.9787 75.0748 80.779 75.8457 80.9267 76.6197C81.0247 76.9612 81.1393 77.2978 81.2548 77.6355C81.3008 77.7019 81.3927 77.8346 81.4387 77.901C81.2961 78.0166 81.1555 78.1323 81.0159 78.2491C80.8778 78.1506 80.7101 78.0815 80.6192 77.9346C80.278 77.2501 80.1533 76.4808 80.1906 75.7214C80.2618 75.4136 80.2778 75.0987 80.2753 74.7845C79.8364 74.9079 79.3953 75.02 78.9602 75.1477C78.5433 75.2067 78.1239 75.2583 77.7027 75.2224C78.3527 75.4508 78.4863 76.2086 78.8314 76.7287C78.8757 77.0124 78.9178 77.298 78.9775 77.5798C78.9432 77.9787 78.9417 78.444 78.6276 78.7381C78.444 78.997 77.9615 78.8002 78.0792 78.4826C78.2857 77.8117 78.2236 77.0775 77.9117 76.4511C77.6576 76.1175 77.3833 75.7976 77.0868 75.5026C76.771 75.7488 76.7996 76.2336 76.6808 76.5938Z"/>
</mask>
<path d="M39.0985 36.5138C39.466 36.1301 39.7291 35.6301 40.2145 35.3719C41.0652 35.0367 42.0025 35.2821 42.8049 35.6344C44.4293 36.3508 45.8981 37.389 47.2515 38.5306C47.8492 39.1546 48.3965 39.8277 48.9593 40.4837C49.6179 41.4962 50.2164 42.5684 50.5831 43.7232C50.6371 43.8603 50.6891 43.9972 50.74 44.1351C50.8951 44.6962 51.1126 45.2375 51.2438 45.806C51.4663 46.432 51.6117 47.0849 51.8968 47.6891C52.1231 48.2076 52.2937 48.7648 52.6427 49.2171C53.2726 49.942 53.8504 50.7271 54.6381 51.2949C55.4718 51.9422 56.3848 52.4927 57.1616 53.21C57.6363 52.8189 58.27 52.8947 58.834 52.7693C59.2491 52.7763 59.662 52.8421 60.0775 52.8298C60.4294 52.3951 60.8073 51.9665 61.2911 51.6736C61.7329 51.4681 62.1921 51.3025 62.6425 51.12C63.2531 50.8578 63.895 50.6821 64.5004 50.4073C64.8343 50.261 65.1728 50.1201 65.5054 49.9635C67.5931 49.1945 69.676 48.4068 71.7632 47.6305C72.515 47.3542 73.2852 47.1341 74.0336 46.8494C74.3378 46.7609 74.6436 46.6786 74.9504 46.5974C75.7848 46.5263 76.6413 46.3206 77.467 46.5639C79.6688 46.8743 81.6515 48.1808 82.965 49.9516C83.3557 50.6956 83.7458 51.4476 83.9125 52.2809C83.9016 52.4305 83.8907 52.5801 83.8808 52.7288C84.325 52.8527 84.7841 52.9107 85.2351 53.0118C85.9492 53.3495 86.6694 53.701 87.2659 54.2293C87.8165 54.5927 88.1563 55.1857 88.6131 55.6509C89 56.0308 89.2335 56.5205 89.5322 56.9651C89.9117 57.6127 90.1109 58.3346 90.2887 59.0579C90.2957 59.408 90.3382 59.7576 90.3359 60.1081C90.1855 60.9009 89.7912 61.5956 89.3776 62.2767C90.0778 62.6796 90.4982 63.3922 91.0438 63.9646C91.3979 64.3329 91.6863 64.7524 91.9141 65.2091C92.0535 65.8595 92.3018 66.5087 92.2067 67.1836C92.1303 68.3955 91.4499 69.5286 90.4895 70.2521C91.2999 70.8987 91.7752 71.8897 92.0422 72.8808C92.3022 73.6752 92.1883 74.5103 92.2403 75.3271C92.0822 76.1417 92.0019 76.9895 91.6237 77.7423C91.3766 78.3421 90.8425 78.739 90.4448 79.2302C89.6529 79.6794 88.9643 80.2988 88.1665 80.7302C87.8836 80.9443 87.6138 81.1736 87.3421 81.4006C86.3551 81.8345 85.3677 82.2745 84.4107 82.7716C83.5225 83.3001 82.5777 83.726 81.5911 84.0308C80.7352 84.3951 79.8476 84.6787 78.9694 84.9865C77.6067 85.4722 76.2186 85.889 74.8925 86.4718C74.7646 86.5255 74.6396 86.5804 74.5145 86.6373C73.1719 87.2515 71.8371 87.912 70.6517 88.7938C70.1759 89.2824 69.5222 89.5232 69.0391 90.001C68.3441 90.6524 67.5276 91.1872 66.9578 91.9616C66.2813 92.5686 65.6294 93.2282 64.8252 93.6653C64.5115 93.8965 64.2297 94.1645 63.9198 94.3999C63.2135 94.7903 62.5172 95.2099 61.748 95.4728C60.7322 95.8558 59.6102 95.787 58.5844 95.4874C58.0509 95.3061 57.6207 94.9221 57.125 94.6683C56.519 94.1596 55.9287 93.6297 55.2866 93.1691C55.0173 92.8903 54.7901 92.5505 54.4318 92.379C53.9787 91.9729 53.69 91.3776 53.1409 91.0905C52.2913 90.1596 51.4905 89.1864 50.6592 88.2415C50.4208 88.0005 50.2913 87.6862 50.1011 87.4111C49.6505 86.8324 49.1221 86.3172 48.69 85.7226C48.2305 84.7388 47.2261 84.1176 46.7411 83.1351C46.267 82.573 45.8902 81.9438 45.4665 81.3458C45.1563 80.8485 45.0219 80.2544 44.6286 79.81C44.7294 79.3346 44.8812 78.8701 45.148 78.4598C45.6285 77.6281 46.3233 76.9523 46.9945 76.2778C47.1896 75.9445 47.4129 75.6285 47.6612 75.3327C47.7616 75.0982 47.8671 74.865 47.9794 74.6355C48.4129 73.78 48.5753 72.8234 48.7252 71.8852C48.918 71.1524 48.9186 70.3791 48.9219 69.6263C48.9681 66.52 48.5604 63.3399 47.2951 60.4782C47.1604 60.1248 47.0435 59.7637 46.9015 59.4128C46.6316 58.7671 46.4311 58.0767 46.4207 57.3717C46.2828 56.8108 46.6546 56.2851 46.6192 55.7399C46.3512 55.1949 46.1497 54.6284 45.985 54.0452C45.788 52.9729 45.5222 51.8976 45.0118 50.9274C44.7333 50.3593 44.4347 49.8009 44.1698 49.2267C43.7739 48.5666 43.5572 47.8201 43.1728 47.1559C42.5215 45.4874 41.8782 43.8062 41.5128 42.0479C41.3234 41.8176 41.1329 41.5882 40.953 41.3515C40.8134 40.9815 40.5143 40.7076 40.3473 40.3519C39.6807 39.1701 39.3286 37.8416 39.0985 36.5138ZM40.266 36.5717C40.6176 36.6828 40.9664 36.8038 41.3076 36.9467C42.2493 37.4098 43.0352 38.2803 43.1966 39.3398C43.2288 40.0108 43.175 40.7335 42.7445 41.2833C42.4722 41.992 42.4254 42.8127 42.6598 43.5402C42.8097 44.0054 42.9502 44.475 43.1313 44.9303C43.5941 45.1745 44.1019 45.1375 44.5826 44.9704C44.6638 45.0688 44.8293 45.2649 44.9106 45.3633C44.7254 45.5194 44.542 45.6778 44.3598 45.8352C44.0356 45.8084 43.711 45.7857 43.3884 45.7499C43.5262 46.0344 43.646 46.3267 43.7627 46.6218C44.0032 46.5845 44.2493 46.5822 44.4937 46.5888C44.5652 46.529 44.704 46.4091 44.7745 46.3482C44.8476 46.3495 44.994 46.348 45.0662 46.3482C45.1325 46.4272 45.2642 46.5862 45.3295 46.6662C45.1505 46.8909 44.9485 47.0957 44.743 47.294C44.5002 47.32 44.257 47.3388 44.0126 47.3453C44.2512 47.7794 44.4895 48.2175 44.6638 48.6825C44.9486 49.2074 45.2312 49.7341 45.5116 50.2627C45.5531 50.3349 45.637 50.4802 45.6794 50.5535C46.0413 51.2882 46.3648 52.0619 46.4623 52.883C46.5422 53.3329 46.6872 53.7683 46.7939 54.2121C46.8862 54.6741 47.1445 55.0741 47.3088 55.5098C47.4001 56.1374 47.0972 56.7362 47.1184 57.3637C47.5888 57.5597 48.0864 57.5087 48.556 57.3398C48.7953 57.1388 49.0432 56.9455 49.3047 56.7746C49.3932 56.8705 49.569 57.0653 49.6564 57.1621C49.1892 57.9369 48.0986 58.5228 47.2438 58.0528C47.3654 58.5444 47.4348 59.0545 47.6363 59.5225C47.7315 59.4573 47.924 59.327 48.0192 59.2618C48.3429 59.2266 48.6626 59.1626 48.9822 59.1006C49.1721 58.9346 49.3601 58.7685 49.5511 58.6015C49.709 58.1659 49.8358 57.5848 50.4021 57.554C50.4364 57.6683 50.5071 57.8971 50.5414 58.0114C50.4109 58.3229 50.2835 58.6337 50.1678 58.9515C49.759 59.3311 49.3327 59.6993 48.8188 59.9311C48.4472 60.0096 48.0691 59.9972 47.6927 59.9737C47.7456 60.0436 47.8523 60.1825 47.9051 60.2525C47.9674 60.443 48.039 60.6311 48.1065 60.819C48.2031 61.0273 48.2934 61.2371 48.3911 61.4445C48.532 61.7962 48.6803 62.1455 48.8044 62.5041C48.9434 63.189 49.1833 63.8549 49.2553 64.5523C49.3236 64.8682 49.3785 65.1883 49.4324 65.5072C49.5764 66.5533 49.6591 67.6051 49.6651 68.6624C49.6443 69.7807 49.503 70.8933 49.4477 72.0112C49.221 73.6236 48.6995 75.2521 47.5681 76.4661C46.9753 77.1107 46.3712 77.7556 45.9041 78.5019C45.804 78.772 45.7149 79.0459 45.6041 79.3102C45.5927 79.7443 45.7207 80.1622 45.8182 80.5799C45.987 81.0231 46.3025 81.3774 46.5971 81.7404C46.8965 82.4554 47.5661 82.9281 47.9996 83.5594C48.3035 84.3102 49.0239 84.7979 49.469 85.4645C49.8425 86.3749 50.8186 86.8955 51.1888 87.8087C51.8881 88.6555 52.6119 89.4849 53.3436 90.3056C53.9821 90.648 54.2795 91.376 54.8608 91.7925C55.1746 92.0177 55.4154 92.3249 55.684 92.5986C56.0255 92.7923 56.2554 93.1221 56.5812 93.3369C57.502 94.1136 58.5559 94.9041 59.8099 94.9459C60.6196 95.0743 61.423 94.8728 62.1814 94.6041C63.828 93.7936 65.2666 92.6458 66.5923 91.3871C66.685 91.2028 66.811 91.0373 66.9718 90.9078C67.587 90.3745 68.2058 89.8476 68.8171 89.3121C70.3255 88.2232 71.8698 87.1451 73.5792 86.3789C75.2539 85.5461 77.0064 84.8846 78.7762 84.2803C78.9276 84.2385 79.079 84.1967 79.2334 84.1562C79.907 83.8528 80.6303 83.675 81.2938 83.3425C81.7254 83.1667 82.1571 82.9889 82.5676 82.7669C83.7556 82.2522 84.9253 81.6965 86.0575 81.0689C86.6065 80.8011 87.1152 80.4603 87.6445 80.1565C87.8947 80.0427 88.114 79.8779 88.3426 79.7259C88.5517 79.6324 88.7437 79.5083 88.9397 79.3844C87.7665 79.2102 86.5669 79.091 85.386 79.2587C84.295 79.3222 83.277 79.764 82.2028 79.9172C81.1026 80.1629 79.9235 80.3613 78.8145 80.0597C78.6719 80.0218 78.5291 79.988 78.3861 79.9562C77.9411 79.759 77.4503 79.592 77.1281 79.2036C76.7583 78.7711 76.324 78.3603 76.1524 77.8021C75.875 77.1344 76.0401 76.4047 76.0827 75.7107C76.1832 75.4762 76.2768 75.2381 76.3636 74.9965C76.1462 74.885 75.9312 74.7677 75.7136 74.6583C75.1967 74.3339 74.7452 73.9208 74.2922 73.5148C74.2793 73.4407 74.2537 73.2904 74.241 73.2143C73.6887 72.678 73.6025 71.8831 73.4299 71.1723C73.3493 70.0659 73.5798 68.9425 74.1018 67.9594C73.448 67.8821 72.804 67.7242 72.204 67.4527C71.7701 67.2574 71.3411 67.037 70.9639 66.7472C70.4554 66.2111 69.9904 65.6355 69.5142 65.0732C69.1665 64.2694 69.0078 63.2304 69.6135 62.5064C69.7103 62.3641 69.8196 62.2318 69.9443 62.1109C70.7357 61.6129 71.5885 61.221 72.4616 60.8854C72.707 60.7682 72.9515 60.6479 73.2091 60.558C73.2169 60.5209 73.2354 60.4481 73.2432 60.4111C72.5953 60.5161 71.9463 60.6638 71.3741 60.999C70.7532 61.3458 70.1112 61.7034 69.3953 61.7933C68.8651 61.8876 68.3411 61.7436 67.8551 61.5384C67.5501 61.3322 67.2732 61.0883 66.9507 60.9123C66.4059 60.1632 65.9751 59.3421 65.7442 58.4411C65.5736 57.3555 65.396 56.1718 65.9009 55.1447C66.1566 54.5943 66.6223 54.2148 67.1122 53.8807C66.8788 53.0974 66.2346 52.6103 65.6534 52.0952C65.8133 51.9514 65.9743 51.8067 66.1373 51.6621C66.9 52.1264 67.4894 52.8636 67.8139 53.6932C68.6544 53.5524 69.5026 53.4051 70.2956 53.08C70.6187 52.9146 70.9411 52.744 71.2581 52.565C71.5199 52.4998 71.781 52.4315 72.0422 52.3611C72.3341 51.8723 72.6801 51.42 72.9971 50.9493C73.9213 49.7476 75.1458 48.8453 76.2726 47.8474C76.456 47.9787 76.6361 48.1149 76.816 48.253C76.0863 48.908 75.3161 49.5183 74.6014 50.1886C74.2255 50.6326 73.843 51.0691 73.4756 51.5209C73.2796 51.8114 73.0804 52.1027 72.9145 52.4127C73.2394 52.5279 73.556 52.673 73.8109 52.9112C73.7183 53.0518 73.6257 53.1923 73.5352 53.3331C72.8643 53.155 72.1638 52.9645 71.487 53.2423C71.1825 53.4182 70.8698 53.5803 70.5809 53.7786C70.4624 54.7882 70.6858 55.8188 71.1621 56.7123C71.4282 57.187 71.7867 57.6217 72.2477 57.9187C72.127 58.0684 72.0044 58.2159 71.8829 58.3625C71.8036 58.3496 71.646 58.3228 71.5666 58.3099C71.2454 57.9358 70.9155 57.5692 70.6084 57.183C70.3911 56.6529 70.0974 56.1527 69.9459 55.598C69.8458 55.1049 69.8647 54.5961 69.7667 54.1012C69.3334 54.2179 68.8909 54.2933 68.4514 54.3698C67.9167 54.4415 67.3738 54.5695 66.9135 54.861C66.2255 55.5973 66.2855 56.6667 66.3116 57.6025C66.3762 58.0808 66.4942 58.5528 66.6549 59.0087C66.856 59.6646 67.3341 60.1721 67.8096 60.6459C68.0193 60.7791 68.3359 60.9394 68.5402 60.7023C68.9268 60.4461 69.0889 59.9518 69.0157 59.5075C68.8329 58.3244 68.1036 57.1665 66.977 56.6888C66.9958 56.4869 67.0167 56.2852 67.0375 56.0835C67.3929 56.0871 67.7346 56.1954 67.998 56.4433C68.302 56.7471 68.7554 56.9387 68.8846 57.3821C69.5954 58.2095 69.946 59.3763 69.6225 60.438C69.4925 60.6317 69.3673 60.8289 69.2422 61.024C69.5803 60.9308 69.9175 60.8366 70.2558 60.7414C70.3902 60.6821 70.5255 60.6239 70.6627 60.5679C70.8166 60.4786 70.9724 60.3914 71.131 60.3074C73.064 59.5545 75.238 59.4665 77.0382 58.3624C77.7525 57.8913 78.5553 57.5445 79.183 56.9512C79.2542 56.9371 79.3954 56.9098 79.4665 56.8957C79.7899 56.6013 80.121 56.3115 80.4698 56.0443C81.0939 55.8064 81.5056 55.2349 82.0349 54.8478C82.484 54.5433 82.7055 54.0432 82.9928 53.6019C82.9369 53.5459 82.8252 53.4341 82.7693 53.3782C82.8829 53.1589 83.0242 52.9497 83.1134 52.7174C83.0789 51.6184 82.5807 50.5657 81.8026 49.7965C80.6207 48.2131 78.6637 47.375 76.7385 47.1874C75.9161 47.2462 75.0856 47.278 74.2838 47.4856C74.1335 47.5264 73.9832 47.5672 73.835 47.6062C73.6955 47.6661 73.5578 47.7282 73.4211 47.7914C73.1871 47.8495 72.9551 47.9097 72.7248 47.9742C72.4998 48.0624 72.2718 48.1382 72.0438 48.212C70.9029 48.6387 69.7604 49.0592 68.6459 49.556C67.428 50.0624 66.1724 50.4727 64.9526 50.9769C64.1106 51.3747 63.2025 51.5908 62.3365 51.9279C61.7857 52.163 61.2647 52.4654 60.8486 52.9024C61.3301 53.21 61.8764 53.3972 62.3556 53.7087C63.4042 54.3372 64.228 55.2449 64.9895 56.1858C64.8213 56.331 64.6532 56.4762 64.4891 56.6217C64.0661 56.1802 63.7417 55.6271 63.2116 55.3027C62.7354 54.8106 62.1827 54.3922 61.5594 54.1047C61.4343 54.0366 61.3115 53.9647 61.1908 53.8928C60.0754 53.4566 58.857 53.4976 57.6902 53.6379C58.3537 54.4323 59.0613 55.1924 59.7084 56.0008C60.3787 57.0905 61.005 58.2409 61.3276 59.485C61.6201 59.6964 61.8991 59.9251 62.1869 60.1443C62.4934 60.3588 62.7983 60.5803 63.1103 60.788C64.4658 61.8332 65.726 62.9985 66.7514 64.3743C67.3577 65.3108 67.8304 66.323 68.2612 67.3525C68.2969 67.4902 68.3336 67.627 68.3704 67.7639C68.5774 68.282 68.7363 68.8191 68.9006 69.3514C69.2394 71.0834 69.6816 72.8189 69.6501 74.5981C69.6994 75.4797 69.6716 76.375 69.4813 77.2401C69.2927 78.9712 68.6487 80.6222 67.8367 82.1512C67.731 82.2898 67.6246 82.4253 67.5181 82.5608C67.2575 83.0265 66.854 83.3882 66.5771 83.8395C66.1071 84.2777 65.6166 84.69 65.1222 85.1C65.0106 84.9028 64.9041 84.705 64.8051 84.5026C66.7333 83.0095 67.984 80.7342 68.529 78.3808C69.38 74.8446 68.7453 71.1428 67.6031 67.7505C67.0513 65.9846 66.0504 64.3718 64.7445 63.066C64.347 62.8601 64.1214 62.4432 63.7396 62.2161C63.5454 62.0373 63.3598 61.851 63.1432 61.701C62.3915 61.0149 61.3911 60.6176 60.7494 59.8177C60.3447 58.5991 59.7662 57.4491 59.1183 56.3439C58.3646 55.3945 57.5754 54.4719 56.6369 53.7011C56.356 53.5119 56.1276 53.2584 55.8546 53.0586C55.3331 52.7135 54.8435 52.3221 54.3368 51.9547C54.1548 51.7748 53.973 51.5928 53.745 51.4735C53.1855 50.8828 52.6589 50.26 52.1386 49.6355C51.7085 48.971 51.3616 48.2536 51.0521 47.5247C50.478 46.1057 50.1907 44.5868 49.5946 43.1774C49.5196 42.9941 49.4415 42.8115 49.3727 42.6266C49.2249 42.313 49.0666 42.0047 48.9166 41.6929C48.2316 40.4569 47.2174 39.4427 46.1707 38.5115C45.9641 38.3755 45.7714 38.2181 45.5807 38.0609C45.3944 37.9263 45.2184 37.7753 45.0445 37.6244C43.7783 36.735 42.33 35.8761 40.7244 35.9579C40.554 36.1487 40.42 36.3686 40.266 36.5717ZM40.7999 39.6371C41.0515 40.2683 41.4995 40.7847 41.7967 41.3898C42.1671 40.8275 42.6828 40.2097 42.4705 39.4859C42.3197 38.9911 42.1578 38.4112 41.7063 38.1099C41.2337 37.6658 40.5827 37.5349 40.0193 37.2488C40.0909 38.0904 40.4435 38.8824 40.7999 39.6371ZM70.537 62.6765C70.1851 63.1112 69.9744 63.6303 70.0134 64.1951C70.2729 64.649 70.4408 65.1593 70.7878 65.5566C71.334 66.2591 72.1642 66.648 72.9773 66.9534C72.8276 65.789 72.2926 64.6697 71.4241 63.8725C71.1103 63.6056 70.6507 63.4704 70.5047 63.0492C70.6029 62.9568 70.8024 62.7711 70.9027 62.6789C71.3166 62.9104 71.7409 63.1538 72.0405 63.5314C72.4282 64.0109 72.9116 64.4324 73.1537 65.0131C73.4706 65.6542 73.6454 66.3631 73.7154 67.0734C73.8546 67.1161 73.9937 67.1588 74.1339 67.2006C74.5461 67.0681 74.9752 67.2031 75.3955 67.1394C76.5377 67.0013 77.6224 66.5929 78.6799 66.1529C79.0733 65.9703 79.4636 65.7753 79.8493 65.5728C80.314 65.4025 80.7581 65.1799 81.1884 64.937C81.3778 64.8624 81.5664 64.7848 81.7588 64.7114C83.9493 63.6887 86.4801 63.5028 88.5029 62.1061C88.7588 61.887 88.9347 61.593 89.1449 61.3319C89.8375 60.281 89.6684 58.8967 89.1314 57.8189C88.6596 56.8779 88.1251 55.9323 87.3171 55.2381C87.0879 55.0649 86.8778 54.8676 86.6771 54.6659C86.3161 54.4322 85.9643 54.185 85.5824 53.9883C85.2788 53.8737 84.9778 53.7511 84.6816 53.6186C84.3969 53.607 84.1114 53.5922 83.8288 53.5786C83.7341 53.776 83.6445 53.9727 83.5539 54.1703C83.4363 54.3324 83.3238 54.4959 83.2248 54.6686C82.6959 55.1614 82.1471 55.6334 81.5845 56.0872C81.1203 56.223 80.8306 56.655 80.3929 56.8456C79.9072 57.0946 79.6044 57.6233 79.0697 57.7783C78.3929 58.3893 77.5988 58.8404 76.8262 59.3164C76.2994 59.5858 75.7185 59.7618 75.2566 60.1437C74.7633 60.4978 73.9972 60.4815 73.6983 61.0805C73.2019 61.8237 73.3637 62.7806 73.5695 63.5934C73.8974 63.6946 73.7972 64.0368 73.8187 64.2986C73.6644 64.3523 73.5102 64.404 73.356 64.4558C72.4939 63.7515 72.5713 62.554 72.6736 61.5584C72.5161 61.6414 72.3598 61.7214 72.2026 61.8004C71.7042 62.0719 71.1472 62.2537 70.7325 62.6573C70.6834 62.6618 70.5861 62.672 70.537 62.6765ZM74.9793 67.9118C75.4865 68.2293 75.8356 68.7365 76.2022 69.1983C76.6128 70.0179 76.6882 70.9604 76.6537 71.8633C76.6582 72.2325 76.4394 72.5427 76.1866 72.7895C76.0291 72.6225 75.8739 72.4516 75.7207 72.2809C75.7618 72.2341 75.8409 72.1392 75.8809 72.0914C75.8937 71.6523 75.9594 71.213 75.9131 70.7757C75.8642 70.263 75.6038 69.808 75.4543 69.3235C75.1947 69.1216 75.0462 68.5945 74.6637 68.6691C73.8283 70.1995 74.0907 72.3232 75.3904 73.5189C75.7854 73.9674 76.3724 74.1536 76.9031 74.3866C78.0401 74.6109 79.2341 74.4869 80.322 74.0908C81.5804 73.5721 82.7921 72.9422 84.0472 72.4131C85.0424 72.0743 86.0358 71.7333 87.0371 71.4102C87.2982 71.3002 87.5611 71.1924 87.8269 71.0879C89.2443 70.5208 90.5852 69.5823 91.2283 68.1537C91.4406 67.4742 91.5156 66.7541 91.3963 66.0502C91.0555 64.9298 90.288 64.0302 89.4885 63.2056C89.2361 63.0865 89.0503 62.8758 88.8571 62.6828C88.6254 62.8772 88.3946 63.0727 88.1576 63.2566C87.6465 63.5068 87.1485 63.7854 86.6094 63.9726C85.8608 64.1476 85.1539 64.4628 84.3968 64.6015C83.1152 64.8543 81.9148 65.3854 80.7481 65.9556C80.5215 66.0528 80.3012 66.1617 80.0773 66.2622C79.7928 66.3867 79.5146 66.5229 79.2409 66.6665C78.969 66.9942 78.6849 67.3209 78.5118 67.7148C78.2219 68.3023 78.3098 68.9764 78.209 69.6052C78.2271 69.6634 78.2634 69.7778 78.2806 69.835C78.3064 70.3714 78.5011 70.8775 78.6768 71.3792C78.7835 71.6715 78.8922 71.964 78.9998 72.2574C78.8698 72.3678 78.7408 72.4773 78.6128 72.5878C78.4991 72.5308 78.3921 72.466 78.2917 72.3936C78.0001 71.7951 77.8131 71.1554 77.6673 70.5086C77.5907 70.1941 77.5358 69.876 77.4725 69.5594C77.4742 68.7588 77.6036 67.9614 77.9239 67.2226C77.6037 67.2927 77.2917 67.3898 76.9893 67.5089C76.3329 67.7028 75.6711 67.9146 74.9793 67.9118ZM76.6808 76.5938C76.7331 76.9198 76.7538 77.2485 76.799 77.575C76.9638 77.8797 77.11 78.2003 77.3558 78.452C77.7467 78.9156 78.3529 79.0889 78.8808 79.347C79.3756 79.3761 79.8702 79.4357 80.3668 79.4405C81.614 79.4087 82.8049 79.007 84.0055 78.7086C84.6457 78.6406 85.2694 78.3935 85.9229 78.4484C86.7012 78.5053 87.4815 78.5491 88.2596 78.6233C88.7648 78.6775 89.2925 78.7009 89.7717 78.4991C89.9718 78.4172 90.1724 78.3424 90.3832 78.2796C90.57 78.0463 90.7415 77.7997 90.9398 77.5754C91.7061 75.7392 91.7391 73.5649 90.8735 71.7557C90.635 71.3613 90.2926 71.0415 89.9991 70.6908C89.7883 70.8502 89.5765 71.0085 89.3466 71.137C88.9265 71.3786 88.4939 71.597 88.0511 71.7882C86.8057 72.254 85.5351 72.6469 84.2839 73.095C83.5346 73.3918 82.8099 73.7412 82.0676 74.0528C81.8038 74.1575 81.5421 74.2623 81.2776 74.3639C80.9787 75.0748 80.779 75.8457 80.9267 76.6197C81.0247 76.9612 81.1393 77.2978 81.2548 77.6355C81.3008 77.7019 81.3927 77.8346 81.4387 77.901C81.2961 78.0166 81.1555 78.1323 81.0159 78.2491C80.8778 78.1506 80.7101 78.0815 80.6192 77.9346C80.278 77.2501 80.1533 76.4808 80.1906 75.7214C80.2618 75.4136 80.2778 75.0987 80.2753 74.7845C79.8364 74.9079 79.3953 75.02 78.9602 75.1477C78.5433 75.2067 78.1239 75.2583 77.7027 75.2224C78.3527 75.4508 78.4863 76.2086 78.8314 76.7287C78.8757 77.0124 78.9178 77.298 78.9775 77.5798C78.9432 77.9787 78.9417 78.444 78.6276 78.7381C78.444 78.997 77.9615 78.8002 78.0792 78.4826C78.2857 77.8117 78.2236 77.0775 77.9117 76.4511C77.6576 76.1175 77.3833 75.7976 77.0868 75.5026C76.771 75.7488 76.7996 76.2336 76.6808 76.5938Z" fill="black"/>
<path d="M39.0985 36.5138C39.466 36.1301 39.7291 35.6301 40.2145 35.3719C41.0652 35.0367 42.0025 35.2821 42.8049 35.6344C44.4293 36.3508 45.8981 37.389 47.2515 38.5306C47.8492 39.1546 48.3965 39.8277 48.9593 40.4837C49.6179 41.4962 50.2164 42.5684 50.5831 43.7232C50.6371 43.8603 50.6891 43.9972 50.74 44.1351C50.8951 44.6962 51.1126 45.2375 51.2438 45.806C51.4663 46.432 51.6117 47.0849 51.8968 47.6891C52.1231 48.2076 52.2937 48.7648 52.6427 49.2171C53.2726 49.942 53.8504 50.7271 54.6381 51.2949C55.4718 51.9422 56.3848 52.4927 57.1616 53.21C57.6363 52.8189 58.27 52.8947 58.834 52.7693C59.2491 52.7763 59.662 52.8421 60.0775 52.8298C60.4294 52.3951 60.8073 51.9665 61.2911 51.6736C61.7329 51.4681 62.1921 51.3025 62.6425 51.12C63.2531 50.8578 63.895 50.6821 64.5004 50.4073C64.8343 50.261 65.1728 50.1201 65.5054 49.9635C67.5931 49.1945 69.676 48.4068 71.7632 47.6305C72.515 47.3542 73.2852 47.1341 74.0336 46.8494C74.3378 46.7609 74.6436 46.6786 74.9504 46.5974C75.7848 46.5263 76.6413 46.3206 77.467 46.5639C79.6688 46.8743 81.6515 48.1808 82.965 49.9516C83.3557 50.6956 83.7458 51.4476 83.9125 52.2809C83.9016 52.4305 83.8907 52.5801 83.8808 52.7288C84.325 52.8527 84.7841 52.9107 85.2351 53.0118C85.9492 53.3495 86.6694 53.701 87.2659 54.2293C87.8165 54.5927 88.1563 55.1857 88.6131 55.6509C89 56.0308 89.2335 56.5205 89.5322 56.9651C89.9117 57.6127 90.1109 58.3346 90.2887 59.0579C90.2957 59.408 90.3382 59.7576 90.3359 60.1081C90.1855 60.9009 89.7912 61.5956 89.3776 62.2767C90.0778 62.6796 90.4982 63.3922 91.0438 63.9646C91.3979 64.3329 91.6863 64.7524 91.9141 65.2091C92.0535 65.8595 92.3018 66.5087 92.2067 67.1836C92.1303 68.3955 91.4499 69.5286 90.4895 70.2521C91.2999 70.8987 91.7752 71.8897 92.0422 72.8808C92.3022 73.6752 92.1883 74.5103 92.2403 75.3271C92.0822 76.1417 92.0019 76.9895 91.6237 77.7423C91.3766 78.3421 90.8425 78.739 90.4448 79.2302C89.6529 79.6794 88.9643 80.2988 88.1665 80.7302C87.8836 80.9443 87.6138 81.1736 87.3421 81.4006C86.3551 81.8345 85.3677 82.2745 84.4107 82.7716C83.5225 83.3001 82.5777 83.726 81.5911 84.0308C80.7352 84.3951 79.8476 84.6787 78.9694 84.9865C77.6067 85.4722 76.2186 85.889 74.8925 86.4718C74.7646 86.5255 74.6396 86.5804 74.5145 86.6373C73.1719 87.2515 71.8371 87.912 70.6517 88.7938C70.1759 89.2824 69.5222 89.5232 69.0391 90.001C68.3441 90.6524 67.5276 91.1872 66.9578 91.9616C66.2813 92.5686 65.6294 93.2282 64.8252 93.6653C64.5115 93.8965 64.2297 94.1645 63.9198 94.3999C63.2135 94.7903 62.5172 95.2099 61.748 95.4728C60.7322 95.8558 59.6102 95.787 58.5844 95.4874C58.0509 95.3061 57.6207 94.9221 57.125 94.6683C56.519 94.1596 55.9287 93.6297 55.2866 93.1691C55.0173 92.8903 54.7901 92.5505 54.4318 92.379C53.9787 91.9729 53.69 91.3776 53.1409 91.0905C52.2913 90.1596 51.4905 89.1864 50.6592 88.2415C50.4208 88.0005 50.2913 87.6862 50.1011 87.4111C49.6505 86.8324 49.1221 86.3172 48.69 85.7226C48.2305 84.7388 47.2261 84.1176 46.7411 83.1351C46.267 82.573 45.8902 81.9438 45.4665 81.3458C45.1563 80.8485 45.0219 80.2544 44.6286 79.81C44.7294 79.3346 44.8812 78.8701 45.148 78.4598C45.6285 77.6281 46.3233 76.9523 46.9945 76.2778C47.1896 75.9445 47.4129 75.6285 47.6612 75.3327C47.7616 75.0982 47.8671 74.865 47.9794 74.6355C48.4129 73.78 48.5753 72.8234 48.7252 71.8852C48.918 71.1524 48.9186 70.3791 48.9219 69.6263C48.9681 66.52 48.5604 63.3399 47.2951 60.4782C47.1604 60.1248 47.0435 59.7637 46.9015 59.4128C46.6316 58.7671 46.4311 58.0767 46.4207 57.3717C46.2828 56.8108 46.6546 56.2851 46.6192 55.7399C46.3512 55.1949 46.1497 54.6284 45.985 54.0452C45.788 52.9729 45.5222 51.8976 45.0118 50.9274C44.7333 50.3593 44.4347 49.8009 44.1698 49.2267C43.7739 48.5666 43.5572 47.8201 43.1728 47.1559C42.5215 45.4874 41.8782 43.8062 41.5128 42.0479C41.3234 41.8176 41.1329 41.5882 40.953 41.3515C40.8134 40.9815 40.5143 40.7076 40.3473 40.3519C39.6807 39.1701 39.3286 37.8416 39.0985 36.5138ZM40.266 36.5717C40.6176 36.6828 40.9664 36.8038 41.3076 36.9467C42.2493 37.4098 43.0352 38.2803 43.1966 39.3398C43.2288 40.0108 43.175 40.7335 42.7445 41.2833C42.4722 41.992 42.4254 42.8127 42.6598 43.5402C42.8097 44.0054 42.9502 44.475 43.1313 44.9303C43.5941 45.1745 44.1019 45.1375 44.5826 44.9704C44.6638 45.0688 44.8293 45.2649 44.9106 45.3633C44.7254 45.5194 44.542 45.6778 44.3598 45.8352C44.0356 45.8084 43.711 45.7857 43.3884 45.7499C43.5262 46.0344 43.646 46.3267 43.7627 46.6218C44.0032 46.5845 44.2493 46.5822 44.4937 46.5888C44.5652 46.529 44.704 46.4091 44.7745 46.3482C44.8476 46.3495 44.994 46.348 45.0662 46.3482C45.1325 46.4272 45.2642 46.5862 45.3295 46.6662C45.1505 46.8909 44.9485 47.0957 44.743 47.294C44.5002 47.32 44.257 47.3388 44.0126 47.3453C44.2512 47.7794 44.4895 48.2175 44.6638 48.6825C44.9486 49.2074 45.2312 49.7341 45.5116 50.2627C45.5531 50.3349 45.637 50.4802 45.6794 50.5535C46.0413 51.2882 46.3648 52.0619 46.4623 52.883C46.5422 53.3329 46.6872 53.7683 46.7939 54.2121C46.8862 54.6741 47.1445 55.0741 47.3088 55.5098C47.4001 56.1374 47.0972 56.7362 47.1184 57.3637C47.5888 57.5597 48.0864 57.5087 48.556 57.3398C48.7953 57.1388 49.0432 56.9455 49.3047 56.7746C49.3932 56.8705 49.569 57.0653 49.6564 57.1621C49.1892 57.9369 48.0986 58.5228 47.2438 58.0528C47.3654 58.5444 47.4348 59.0545 47.6363 59.5225C47.7315 59.4573 47.924 59.327 48.0192 59.2618C48.3429 59.2266 48.6626 59.1626 48.9822 59.1006C49.1721 58.9346 49.3601 58.7685 49.5511 58.6015C49.709 58.1659 49.8358 57.5848 50.4021 57.554C50.4364 57.6683 50.5071 57.8971 50.5414 58.0114C50.4109 58.3229 50.2835 58.6337 50.1678 58.9515C49.759 59.3311 49.3327 59.6993 48.8188 59.9311C48.4472 60.0096 48.0691 59.9972 47.6927 59.9737C47.7456 60.0436 47.8523 60.1825 47.9051 60.2525C47.9674 60.443 48.039 60.6311 48.1065 60.819C48.2031 61.0273 48.2934 61.2371 48.3911 61.4445C48.532 61.7962 48.6803 62.1455 48.8044 62.5041C48.9434 63.189 49.1833 63.8549 49.2553 64.5523C49.3236 64.8682 49.3785 65.1883 49.4324 65.5072C49.5764 66.5533 49.6591 67.6051 49.6651 68.6624C49.6443 69.7807 49.503 70.8933 49.4477 72.0112C49.221 73.6236 48.6995 75.2521 47.5681 76.4661C46.9753 77.1107 46.3712 77.7556 45.9041 78.5019C45.804 78.772 45.7149 79.0459 45.6041 79.3102C45.5927 79.7443 45.7207 80.1622 45.8182 80.5799C45.987 81.0231 46.3025 81.3774 46.5971 81.7404C46.8965 82.4554 47.5661 82.9281 47.9996 83.5594C48.3035 84.3102 49.0239 84.7979 49.469 85.4645C49.8425 86.3749 50.8186 86.8955 51.1888 87.8087C51.8881 88.6555 52.6119 89.4849 53.3436 90.3056C53.9821 90.648 54.2795 91.376 54.8608 91.7925C55.1746 92.0177 55.4154 92.3249 55.684 92.5986C56.0255 92.7923 56.2554 93.1221 56.5812 93.3369C57.502 94.1136 58.5559 94.9041 59.8099 94.9459C60.6196 95.0743 61.423 94.8728 62.1814 94.6041C63.828 93.7936 65.2666 92.6458 66.5923 91.3871C66.685 91.2028 66.811 91.0373 66.9718 90.9078C67.587 90.3745 68.2058 89.8476 68.8171 89.3121C70.3255 88.2232 71.8698 87.1451 73.5792 86.3789C75.2539 85.5461 77.0064 84.8846 78.7762 84.2803C78.9276 84.2385 79.079 84.1967 79.2334 84.1562C79.907 83.8528 80.6303 83.675 81.2938 83.3425C81.7254 83.1667 82.1571 82.9889 82.5676 82.7669C83.7556 82.2522 84.9253 81.6965 86.0575 81.0689C86.6065 80.8011 87.1152 80.4603 87.6445 80.1565C87.8947 80.0427 88.114 79.8779 88.3426 79.7259C88.5517 79.6324 88.7437 79.5083 88.9397 79.3844C87.7665 79.2102 86.5669 79.091 85.386 79.2587C84.295 79.3222 83.277 79.764 82.2028 79.9172C81.1026 80.1629 79.9235 80.3613 78.8145 80.0597C78.6719 80.0218 78.5291 79.988 78.3861 79.9562C77.9411 79.759 77.4503 79.592 77.1281 79.2036C76.7583 78.7711 76.324 78.3603 76.1524 77.8021C75.875 77.1344 76.0401 76.4047 76.0827 75.7107C76.1832 75.4762 76.2768 75.2381 76.3636 74.9965C76.1462 74.885 75.9312 74.7677 75.7136 74.6583C75.1967 74.3339 74.7452 73.9208 74.2922 73.5148C74.2793 73.4407 74.2537 73.2904 74.241 73.2143C73.6887 72.678 73.6025 71.8831 73.4299 71.1723C73.3493 70.0659 73.5798 68.9425 74.1018 67.9594C73.448 67.8821 72.804 67.7242 72.204 67.4527C71.7701 67.2574 71.3411 67.037 70.9639 66.7472C70.4554 66.2111 69.9904 65.6355 69.5142 65.0732C69.1665 64.2694 69.0078 63.2304 69.6135 62.5064C69.7103 62.3641 69.8196 62.2318 69.9443 62.1109C70.7357 61.6129 71.5885 61.221 72.4616 60.8854C72.707 60.7682 72.9515 60.6479 73.2091 60.558C73.2169 60.5209 73.2354 60.4481 73.2432 60.4111C72.5953 60.5161 71.9463 60.6638 71.3741 60.999C70.7532 61.3458 70.1112 61.7034 69.3953 61.7933C68.8651 61.8876 68.3411 61.7436 67.8551 61.5384C67.5501 61.3322 67.2732 61.0883 66.9507 60.9123C66.4059 60.1632 65.9751 59.3421 65.7442 58.4411C65.5736 57.3555 65.396 56.1718 65.9009 55.1447C66.1566 54.5943 66.6223 54.2148 67.1122 53.8807C66.8788 53.0974 66.2346 52.6103 65.6534 52.0952C65.8133 51.9514 65.9743 51.8067 66.1373 51.6621C66.9 52.1264 67.4894 52.8636 67.8139 53.6932C68.6544 53.5524 69.5026 53.4051 70.2956 53.08C70.6187 52.9146 70.9411 52.744 71.2581 52.565C71.5199 52.4998 71.781 52.4315 72.0422 52.3611C72.3341 51.8723 72.6801 51.42 72.9971 50.9493C73.9213 49.7476 75.1458 48.8453 76.2726 47.8474C76.456 47.9787 76.6361 48.1149 76.816 48.253C76.0863 48.908 75.3161 49.5183 74.6014 50.1886C74.2255 50.6326 73.843 51.0691 73.4756 51.5209C73.2796 51.8114 73.0804 52.1027 72.9145 52.4127C73.2394 52.5279 73.556 52.673 73.8109 52.9112C73.7183 53.0518 73.6257 53.1923 73.5352 53.3331C72.8643 53.155 72.1638 52.9645 71.487 53.2423C71.1825 53.4182 70.8698 53.5803 70.5809 53.7786C70.4624 54.7882 70.6858 55.8188 71.1621 56.7123C71.4282 57.187 71.7867 57.6217 72.2477 57.9187C72.127 58.0684 72.0044 58.2159 71.8829 58.3625C71.8036 58.3496 71.646 58.3228 71.5666 58.3099C71.2454 57.9358 70.9155 57.5692 70.6084 57.183C70.3911 56.6529 70.0974 56.1527 69.9459 55.598C69.8458 55.1049 69.8647 54.5961 69.7667 54.1012C69.3334 54.2179 68.8909 54.2933 68.4514 54.3698C67.9167 54.4415 67.3738 54.5695 66.9135 54.861C66.2255 55.5973 66.2855 56.6667 66.3116 57.6025C66.3762 58.0808 66.4942 58.5528 66.6549 59.0087C66.856 59.6646 67.3341 60.1721 67.8096 60.6459C68.0193 60.7791 68.3359 60.9394 68.5402 60.7023C68.9268 60.4461 69.0889 59.9518 69.0157 59.5075C68.8329 58.3244 68.1036 57.1665 66.977 56.6888C66.9958 56.4869 67.0167 56.2852 67.0375 56.0835C67.3929 56.0871 67.7346 56.1954 67.998 56.4433C68.302 56.7471 68.7554 56.9387 68.8846 57.3821C69.5954 58.2095 69.946 59.3763 69.6225 60.438C69.4925 60.6317 69.3673 60.8289 69.2422 61.024C69.5803 60.9308 69.9175 60.8366 70.2558 60.7414C70.3902 60.6821 70.5255 60.6239 70.6627 60.5679C70.8166 60.4786 70.9724 60.3914 71.131 60.3074C73.064 59.5545 75.238 59.4665 77.0382 58.3624C77.7525 57.8913 78.5553 57.5445 79.183 56.9512C79.2542 56.9371 79.3954 56.9098 79.4665 56.8957C79.7899 56.6013 80.121 56.3115 80.4698 56.0443C81.0939 55.8064 81.5056 55.2349 82.0349 54.8478C82.484 54.5433 82.7055 54.0432 82.9928 53.6019C82.9369 53.5459 82.8252 53.4341 82.7693 53.3782C82.8829 53.1589 83.0242 52.9497 83.1134 52.7174C83.0789 51.6184 82.5807 50.5657 81.8026 49.7965C80.6207 48.2131 78.6637 47.375 76.7385 47.1874C75.9161 47.2462 75.0856 47.278 74.2838 47.4856C74.1335 47.5264 73.9832 47.5672 73.835 47.6062C73.6955 47.6661 73.5578 47.7282 73.4211 47.7914C73.1871 47.8495 72.9551 47.9097 72.7248 47.9742C72.4998 48.0624 72.2718 48.1382 72.0438 48.212C70.9029 48.6387 69.7604 49.0592 68.6459 49.556C67.428 50.0624 66.1724 50.4727 64.9526 50.9769C64.1106 51.3747 63.2025 51.5908 62.3365 51.9279C61.7857 52.163 61.2647 52.4654 60.8486 52.9024C61.3301 53.21 61.8764 53.3972 62.3556 53.7087C63.4042 54.3372 64.228 55.2449 64.9895 56.1858C64.8213 56.331 64.6532 56.4762 64.4891 56.6217C64.0661 56.1802 63.7417 55.6271 63.2116 55.3027C62.7354 54.8106 62.1827 54.3922 61.5594 54.1047C61.4343 54.0366 61.3115 53.9647 61.1908 53.8928C60.0754 53.4566 58.857 53.4976 57.6902 53.6379C58.3537 54.4323 59.0613 55.1924 59.7084 56.0008C60.3787 57.0905 61.005 58.2409 61.3276 59.485C61.6201 59.6964 61.8991 59.9251 62.1869 60.1443C62.4934 60.3588 62.7983 60.5803 63.1103 60.788C64.4658 61.8332 65.726 62.9985 66.7514 64.3743C67.3577 65.3108 67.8304 66.323 68.2612 67.3525C68.2969 67.4902 68.3336 67.627 68.3704 67.7639C68.5774 68.282 68.7363 68.8191 68.9006 69.3514C69.2394 71.0834 69.6816 72.8189 69.6501 74.5981C69.6994 75.4797 69.6716 76.375 69.4813 77.2401C69.2927 78.9712 68.6487 80.6222 67.8367 82.1512C67.731 82.2898 67.6246 82.4253 67.5181 82.5608C67.2575 83.0265 66.854 83.3882 66.5771 83.8395C66.1071 84.2777 65.6166 84.69 65.1222 85.1C65.0106 84.9028 64.9041 84.705 64.8051 84.5026C66.7333 83.0095 67.984 80.7342 68.529 78.3808C69.38 74.8446 68.7453 71.1428 67.6031 67.7505C67.0513 65.9846 66.0504 64.3718 64.7445 63.066C64.347 62.8601 64.1214 62.4432 63.7396 62.2161C63.5454 62.0373 63.3598 61.851 63.1432 61.701C62.3915 61.0149 61.3911 60.6176 60.7494 59.8177C60.3447 58.5991 59.7662 57.4491 59.1183 56.3439C58.3646 55.3945 57.5754 54.4719 56.6369 53.7011C56.356 53.5119 56.1276 53.2584 55.8546 53.0586C55.3331 52.7135 54.8435 52.3221 54.3368 51.9547C54.1548 51.7748 53.973 51.5928 53.745 51.4735C53.1855 50.8828 52.6589 50.26 52.1386 49.6355C51.7085 48.971 51.3616 48.2536 51.0521 47.5247C50.478 46.1057 50.1907 44.5868 49.5946 43.1774C49.5196 42.9941 49.4415 42.8115 49.3727 42.6266C49.2249 42.313 49.0666 42.0047 48.9166 41.6929C48.2316 40.4569 47.2174 39.4427 46.1707 38.5115C45.9641 38.3755 45.7714 38.2181 45.5807 38.0609C45.3944 37.9263 45.2184 37.7753 45.0445 37.6244C43.7783 36.735 42.33 35.8761 40.7244 35.9579C40.554 36.1487 40.42 36.3686 40.266 36.5717ZM40.7999 39.6371C41.0515 40.2683 41.4995 40.7847 41.7967 41.3898C42.1671 40.8275 42.6828 40.2097 42.4705 39.4859C42.3197 38.9911 42.1578 38.4112 41.7063 38.1099C41.2337 37.6658 40.5827 37.5349 40.0193 37.2488C40.0909 38.0904 40.4435 38.8824 40.7999 39.6371ZM70.537 62.6765C70.1851 63.1112 69.9744 63.6303 70.0134 64.1951C70.2729 64.649 70.4408 65.1593 70.7878 65.5566C71.334 66.2591 72.1642 66.648 72.9773 66.9534C72.8276 65.789 72.2926 64.6697 71.4241 63.8725C71.1103 63.6056 70.6507 63.4704 70.5047 63.0492C70.6029 62.9568 70.8024 62.7711 70.9027 62.6789C71.3166 62.9104 71.7409 63.1538 72.0405 63.5314C72.4282 64.0109 72.9116 64.4324 73.1537 65.0131C73.4706 65.6542 73.6454 66.3631 73.7154 67.0734C73.8546 67.1161 73.9937 67.1588 74.1339 67.2006C74.5461 67.0681 74.9752 67.2031 75.3955 67.1394C76.5377 67.0013 77.6224 66.5929 78.6799 66.1529C79.0733 65.9703 79.4636 65.7753 79.8493 65.5728C80.314 65.4025 80.7581 65.1799 81.1884 64.937C81.3778 64.8624 81.5664 64.7848 81.7588 64.7114C83.9493 63.6887 86.4801 63.5028 88.5029 62.1061C88.7588 61.887 88.9347 61.593 89.1449 61.3319C89.8375 60.281 89.6684 58.8967 89.1314 57.8189C88.6596 56.8779 88.1251 55.9323 87.3171 55.2381C87.0879 55.0649 86.8778 54.8676 86.6771 54.6659C86.3161 54.4322 85.9643 54.185 85.5824 53.9883C85.2788 53.8737 84.9778 53.7511 84.6816 53.6186C84.3969 53.607 84.1114 53.5922 83.8288 53.5786C83.7341 53.776 83.6445 53.9727 83.5539 54.1703C83.4363 54.3324 83.3238 54.4959 83.2248 54.6686C82.6959 55.1614 82.1471 55.6334 81.5845 56.0872C81.1203 56.223 80.8306 56.655 80.3929 56.8456C79.9072 57.0946 79.6044 57.6233 79.0697 57.7783C78.3929 58.3893 77.5988 58.8404 76.8262 59.3164C76.2994 59.5858 75.7185 59.7618 75.2566 60.1437C74.7633 60.4978 73.9972 60.4815 73.6983 61.0805C73.2019 61.8237 73.3637 62.7806 73.5695 63.5934C73.8974 63.6946 73.7972 64.0368 73.8187 64.2986C73.6644 64.3523 73.5102 64.404 73.356 64.4558C72.4939 63.7515 72.5713 62.554 72.6736 61.5584C72.5161 61.6414 72.3598 61.7214 72.2026 61.8004C71.7042 62.0719 71.1472 62.2537 70.7325 62.6573C70.6834 62.6618 70.5861 62.672 70.537 62.6765ZM74.9793 67.9118C75.4865 68.2293 75.8356 68.7365 76.2022 69.1983C76.6128 70.0179 76.6882 70.9604 76.6537 71.8633C76.6582 72.2325 76.4394 72.5427 76.1866 72.7895C76.0291 72.6225 75.8739 72.4516 75.7207 72.2809C75.7618 72.2341 75.8409 72.1392 75.8809 72.0914C75.8937 71.6523 75.9594 71.213 75.9131 70.7757C75.8642 70.263 75.6038 69.808 75.4543 69.3235C75.1947 69.1216 75.0462 68.5945 74.6637 68.6691C73.8283 70.1995 74.0907 72.3232 75.3904 73.5189C75.7854 73.9674 76.3724 74.1536 76.9031 74.3866C78.0401 74.6109 79.2341 74.4869 80.322 74.0908C81.5804 73.5721 82.7921 72.9422 84.0472 72.4131C85.0424 72.0743 86.0358 71.7333 87.0371 71.4102C87.2982 71.3002 87.5611 71.1924 87.8269 71.0879C89.2443 70.5208 90.5852 69.5823 91.2283 68.1537C91.4406 67.4742 91.5156 66.7541 91.3963 66.0502C91.0555 64.9298 90.288 64.0302 89.4885 63.2056C89.2361 63.0865 89.0503 62.8758 88.8571 62.6828C88.6254 62.8772 88.3946 63.0727 88.1576 63.2566C87.6465 63.5068 87.1485 63.7854 86.6094 63.9726C85.8608 64.1476 85.1539 64.4628 84.3968 64.6015C83.1152 64.8543 81.9148 65.3854 80.7481 65.9556C80.5215 66.0528 80.3012 66.1617 80.0773 66.2622C79.7928 66.3867 79.5146 66.5229 79.2409 66.6665C78.969 66.9942 78.6849 67.3209 78.5118 67.7148C78.2219 68.3023 78.3098 68.9764 78.209 69.6052C78.2271 69.6634 78.2634 69.7778 78.2806 69.835C78.3064 70.3714 78.5011 70.8775 78.6768 71.3792C78.7835 71.6715 78.8922 71.964 78.9998 72.2574C78.8698 72.3678 78.7408 72.4773 78.6128 72.5878C78.4991 72.5308 78.3921 72.466 78.2917 72.3936C78.0001 71.7951 77.8131 71.1554 77.6673 70.5086C77.5907 70.1941 77.5358 69.876 77.4725 69.5594C77.4742 68.7588 77.6036 67.9614 77.9239 67.2226C77.6037 67.2927 77.2917 67.3898 76.9893 67.5089C76.3329 67.7028 75.6711 67.9146 74.9793 67.9118ZM76.6808 76.5938C76.7331 76.9198 76.7538 77.2485 76.799 77.575C76.9638 77.8797 77.11 78.2003 77.3558 78.452C77.7467 78.9156 78.3529 79.0889 78.8808 79.347C79.3756 79.3761 79.8702 79.4357 80.3668 79.4405C81.614 79.4087 82.8049 79.007 84.0055 78.7086C84.6457 78.6406 85.2694 78.3935 85.9229 78.4484C86.7012 78.5053 87.4815 78.5491 88.2596 78.6233C88.7648 78.6775 89.2925 78.7009 89.7717 78.4991C89.9718 78.4172 90.1724 78.3424 90.3832 78.2796C90.57 78.0463 90.7415 77.7997 90.9398 77.5754C91.7061 75.7392 91.7391 73.5649 90.8735 71.7557C90.635 71.3613 90.2926 71.0415 89.9991 70.6908C89.7883 70.8502 89.5765 71.0085 89.3466 71.137C88.9265 71.3786 88.4939 71.597 88.0511 71.7882C86.8057 72.254 85.5351 72.6469 84.2839 73.095C83.5346 73.3918 82.8099 73.7412 82.0676 74.0528C81.8038 74.1575 81.5421 74.2623 81.2776 74.3639C80.9787 75.0748 80.779 75.8457 80.9267 76.6197C81.0247 76.9612 81.1393 77.2978 81.2548 77.6355C81.3008 77.7019 81.3927 77.8346 81.4387 77.901C81.2961 78.0166 81.1555 78.1323 81.0159 78.2491C80.8778 78.1506 80.7101 78.0815 80.6192 77.9346C80.278 77.2501 80.1533 76.4808 80.1906 75.7214C80.2618 75.4136 80.2778 75.0987 80.2753 74.7845C79.8364 74.9079 79.3953 75.02 78.9602 75.1477C78.5433 75.2067 78.1239 75.2583 77.7027 75.2224C78.3527 75.4508 78.4863 76.2086 78.8314 76.7287C78.8757 77.0124 78.9178 77.298 78.9775 77.5798C78.9432 77.9787 78.9417 78.444 78.6276 78.7381C78.444 78.997 77.9615 78.8002 78.0792 78.4826C78.2857 77.8117 78.2236 77.0775 77.9117 76.4511C77.6576 76.1175 77.3833 75.7976 77.0868 75.5026C76.771 75.7488 76.7996 76.2336 76.6808 76.5938Z" stroke="black" stroke-width="0.4" mask="url(#path-6-outside-1_1837_30864)"/>
<path d="M79.0037 48.8288C79.1373 48.7116 79.2718 48.5954 79.4074 48.4783C79.9929 48.6979 80.5318 49.028 81.0128 49.4269C81.4343 49.6519 81.6241 50.0997 81.8399 50.4986C81.8689 50.8238 81.9031 51.1485 81.921 51.474C81.7318 51.5729 81.5451 51.6812 81.3357 51.7238C81.0301 51.2889 81.1924 50.6809 80.9001 50.2174C80.6355 50.0558 80.4 49.8577 80.1544 49.6721C79.7411 49.4325 79.3026 49.2165 79.0037 48.8288Z" fill="black"/>
<path d="M84.3774 55.4781C84.4967 55.2785 84.6258 55.0837 84.7598 54.8902C85.4099 55.1867 86.1115 55.486 86.5378 56.0913C86.5538 55.8029 86.6366 55.4207 87.0099 55.4714C87.3434 55.761 87.6153 56.1152 87.891 56.4585C88.055 56.6199 87.8514 56.8184 87.8039 56.9826C87.6295 56.9628 87.4572 56.9431 87.285 56.9213C87.6717 57.4283 88.0138 58.0173 88.0784 58.6622C88.1216 58.9052 87.7766 58.8983 87.6415 59.0093C87.5648 58.9184 87.4124 58.7375 87.3366 58.6476C87.3057 58.4868 87.2748 58.326 87.2438 58.1652C86.9938 57.7486 86.728 57.3399 86.5014 56.9088C86.2022 56.7202 85.9609 56.4627 85.7312 56.199C85.2769 55.9625 84.8261 55.7213 84.3774 55.4781Z" fill="black"/>
<path d="M87.5644 65.3809C87.7242 65.2391 87.8869 65.0986 88.0496 64.958C88.24 65.1894 88.4292 65.4238 88.5775 65.6877C88.9888 66.5256 89.1301 67.4699 88.9744 68.3904C88.8963 68.4578 88.7412 68.5918 88.6642 68.6583C88.5106 68.5902 88.359 68.5242 88.2051 68.4601C88.2979 67.719 88.3253 66.97 88.0696 66.2552C87.8998 65.9643 87.7417 65.6672 87.5644 65.3809Z" fill="black"/>
<path d="M89.2239 65.0244C89.3564 64.9914 89.4889 64.9584 89.6245 64.9246C90.0559 65.4876 90.3223 66.1667 90.407 66.87C90.4723 67.1451 90.1934 67.3045 90.0478 67.489C89.9147 67.335 89.7828 67.18 89.6528 67.0252C89.6678 66.4176 89.3845 65.8725 89.0969 65.3576C89.1285 65.2735 89.1924 65.1085 89.2239 65.0244Z" fill="black"/>
<path d="M88.7145 73.4356C88.6033 73.1226 88.9615 73.0044 89.1978 72.9689C89.8371 73.7463 89.667 74.8212 89.7877 75.7568C89.6692 75.8762 89.5507 75.9956 89.4331 76.1161C89.2981 76.0584 89.1656 75.9949 89.0385 75.9266C88.9967 75.6634 89.0243 75.3972 89.0314 75.1335C89.0109 74.5527 88.8597 73.9939 88.7145 73.4356Z" fill="black"/>
<path d="M89.8025 73.4485C89.9856 73.3339 90.1542 73.1277 90.3988 73.2005C90.9321 73.6907 91.1155 74.5323 90.8537 75.2072C90.7357 75.4039 90.6256 75.6164 90.4188 75.7344C90.2897 75.666 90.175 75.5814 90.0737 75.4795C90.0894 75.0284 90.3114 74.5904 90.1606 74.1373C90.036 73.9097 89.9209 73.6777 89.8025 73.4485Z" fill="black"/>
<path d="M64.1826 24.2655L62.0977 27.2556L60.6027 26.2132L59.8236 24.7812L58.1652 24.2915L56.57 25.6234L56.2436 26.7289L56.4699 27.9977L58.0281 30.8617L59.7495 33.1729L60.6918 34.0521L61.4709 35.4841L62.9029 34.705L63.6189 34.3155L65.2141 32.9836L67.3621 31.815L68.4045 30.3199L69.447 28.8248L70.4895 27.3297L70.0999 26.6137L69.8736 25.345L69.484 24.629L69.0945 23.913L66.8834 23.2601L64.1826 24.2655Z" fill="#FB3E2D"/>
<path d="M62.7509 25.3167L62.7509 25.3167L62.7515 25.3155C63.1662 24.4869 63.4151 24.0179 63.8301 23.7021C64.244 23.3871 64.8176 23.2287 65.8616 22.9914C67.5527 22.584 68.862 22.7518 69.7147 23.4874C70.5672 24.2229 70.9425 25.5081 70.8083 27.2861C70.7611 27.9444 70.4454 28.7117 69.9434 29.5134C69.4407 30.3163 68.7477 31.1592 67.9386 31.9698C66.3208 33.5906 64.2328 35.0883 62.2594 35.8813L62.2594 35.8813L62.2581 35.8818C62.0496 35.9605 61.8823 36.0219 61.738 36.0428C61.5886 36.0645 61.4602 36.0435 61.3314 35.9582C61.2071 35.8758 61.0862 35.7358 60.9423 35.5301C60.7979 35.3235 60.6257 35.0435 60.4008 34.675C59.8889 33.8555 58.7604 32.3806 57.8375 31.401L57.8375 31.401L57.8367 31.4001C56.9328 30.4052 56.2685 29.3004 55.9208 28.2935C55.5743 27.2901 55.5372 26.3684 55.9134 25.7533C56.1674 25.3381 56.633 24.9056 57.1331 24.575C57.631 24.2457 58.1764 24.0086 58.5945 23.9974C58.8276 23.9799 59.1064 24.0469 59.3959 24.1675C59.6872 24.289 59.995 24.4672 60.2872 24.678C60.8689 25.0979 61.3998 25.6555 61.6126 26.1676C61.7183 26.3956 61.7947 26.5547 61.8628 26.6445C61.8969 26.6895 61.922 26.7074 61.9388 26.713C61.9502 26.7167 61.9654 26.7176 61.9929 26.6986C62.023 26.6779 62.0606 26.6377 62.1078 26.5698C62.1543 26.5028 62.207 26.4134 62.2684 26.2989C62.3913 26.0698 62.5456 25.7471 62.7509 25.3167ZM68.6359 29.6892L68.6366 29.6882C69.3092 28.778 69.662 28.255 69.8221 27.7716C69.9809 27.2926 69.9519 26.8477 69.84 26.0856C69.678 25.0002 69.299 24.2907 68.6918 23.9193C68.0831 23.547 67.2268 23.503 66.0838 23.7927L66.083 23.7929C65.3247 23.9757 64.8811 24.1332 64.4932 24.4561C64.1025 24.7812 63.7633 25.2779 63.2269 26.1549L62.0118 28.1415L61.9547 28.2349L61.898 28.1413L61.1837 26.9642L61.1835 26.9639C60.6619 26.0956 59.9886 25.5041 59.3154 25.2391C58.6439 24.9747 57.9742 25.0351 57.4439 25.4661C57.1041 25.7444 56.8744 26.0575 56.7529 26.4098C56.6314 26.7621 56.6164 27.1584 56.7137 27.6057C56.9088 28.5032 57.5539 29.5984 58.6778 30.9324C59.7121 32.1213 60.7912 33.6155 61.1672 34.2176L61.1673 34.2175L61.1696 34.2217L61.7151 35.2522L64.4105 33.508C64.4105 33.508 64.4106 33.5079 64.4107 33.5079C66.3399 32.2409 67.6352 31.0998 68.6359 29.6892Z" fill="black" stroke="black" stroke-width="0.133333"/>
</g>
<defs>
<clipPath id="clip0_1837_30864">
<rect width="86" height="86" fill="white" transform="translate(0 57) rotate(-40.8181)"/>
</clipPath>
</defs>
</svg>
