<svg width="219" height="263" viewBox="0 0 219 263" fill="none" xmlns="http://www.w3.org/2000/svg">
<path d="M64.9374 5.87802C64.9374 9.13347 65.2982 11.7559 65.6589 11.7559C66.1099 11.7559 67.1921 10.1282 68.094 8.22917C68.9056 6.33017 70.529 4.34073 71.521 3.88858L73.4149 2.98428L71.4309 2.53214C70.3486 2.17041 69.6271 2.35129 69.8977 2.71301C70.1682 3.16516 69.9879 3.7077 69.4468 4.06943C68.9958 4.34073 68.5449 4.15985 68.5449 3.61728C68.5449 3.07471 68.1842 2.89386 67.643 3.16516C67.1921 3.43646 66.7412 4.15985 66.7412 4.612C66.7412 5.15457 67.1019 5.33545 67.5528 5.06415C68.0038 4.70242 68.1842 5.42587 67.8234 6.51102C67.3725 8.41003 67.2823 8.41005 66.651 6.69189C66.2902 5.7876 65.9295 4.15988 65.9295 3.16516C65.8393 1.44699 66.3804 1.26614 73.9561 1.17572L82.0728 1.08527V9.13347V17.1817H79.1869H76.3009L78.5556 14.6497C80.1789 12.8411 80.8102 11.2133 80.72 8.5909C80.6298 6.51102 80.1789 5.06415 79.6378 5.15457C79.0967 5.245 78.1046 4.79285 77.5635 4.06943C76.9322 3.34601 76.0303 2.71301 75.4892 2.71301C74.9481 2.71301 75.4892 3.43643 76.6617 4.25031C77.9243 5.1546 79.1869 5.78757 79.6378 5.60672C80.5397 5.33542 80.4495 5.78757 78.8261 9.94733C77.7439 12.5698 76.6617 13.7454 74.9481 14.1071C73.6855 14.3784 72.2425 14.7401 71.7014 14.8305C71.2505 15.0114 70.0781 14.0167 69.2664 12.7507C67.8234 10.6708 67.1019 11.1229 67.5528 13.8358C67.643 14.6497 68.9056 14.9209 41.7596 8.13875C23.6322 3.61728 12.7197 1.71829 12.6295 2.89386C12.6295 3.07471 12.3589 30.6556 12.0884 64.2049C11.6374 120.271 11.4571 125.697 9.83371 131.123C7.9398 137.724 8.12018 139.442 10.1945 133.655L11.5472 129.766L11.6374 134.288C11.7276 137.543 11.4571 138.447 10.8258 137.453C10.2846 136.548 9.9239 136.458 9.9239 137.181C9.9239 137.905 8.57111 138.357 6.22627 138.357C3.79124 138.357 2.79919 138.719 3.25012 139.352C3.61087 139.985 5.23422 140.165 7.3085 139.894C9.2926 139.623 10.6454 139.804 10.3748 140.165C10.1043 140.618 10.465 141.07 11.0061 141.341C11.908 141.612 11.908 141.974 10.9159 143.15C10.1043 144.144 10.0141 144.687 10.7356 144.687C12.0884 144.687 11.9982 148.304 10.6454 148.395C10.0141 148.485 9.11222 148.575 8.57111 148.756C8.12018 148.847 6.22627 149.028 4.51273 149.118C0.815097 149.389 1.53659 149.751 7.48887 150.565C13.5313 151.379 12.7197 152.826 6.22627 152.826C2.88938 152.826 0.99547 153.187 1.35621 153.73C1.62677 154.182 2.70901 154.634 3.61087 154.634C5.05385 154.634 5.3244 155.177 5.05385 158.07C4.87347 159.969 4.24217 162.501 3.61087 163.677C2.52863 165.757 2.52863 165.847 3.88143 164.672C5.86552 163.134 5.86552 164.4 4.0618 168.922C2.88938 171.906 2.88938 172.087 4.0618 170.55C5.32441 168.832 5.41459 168.832 5.41459 171.364C5.41459 172.72 5.68515 173.624 6.04589 173.353C6.31645 172.991 6.58701 171.183 6.49683 169.193C6.40664 166.842 7.21831 164.129 9.02204 160.874C11.6374 156.171 12.7197 156.533 10.8258 161.416C10.1945 163.134 10.1945 163.587 11.0061 163.134C11.7276 162.682 11.8178 162.954 11.4571 163.948C11.0963 164.853 10.5552 166.119 10.1945 167.023C9.83371 168.018 9.9239 168.289 10.6454 167.837C12.0884 167.023 11.9982 167.565 10.3748 171.544C8.75148 175.433 8.66129 176.608 10.1945 174.076C11.0963 172.539 11.3669 173.082 11.8178 178.598C12.0884 182.034 12.3589 161.507 12.4491 132.931C12.5393 104.355 12.9 63.5719 13.2608 42.2306L13.8019 3.61728H16.0566H18.221L17.6799 44.9435C16.778 114.303 16.4173 262.516 17.1388 240.542C17.4995 229.329 18.1308 171.635 18.4014 112.223C18.7621 52.8108 19.0327 4.06943 19.2131 3.979C19.3033 3.88858 30.7569 6.60144 44.6456 10.0378C66.7412 15.5539 70.3486 16.187 73.5051 15.4635C75.399 14.921 77.2028 14.7401 77.3831 14.921C77.6537 15.1018 76.5715 15.554 75.2187 15.9157C72.6935 16.6391 72.6935 16.6391 76.6617 17.6338L80.72 18.6286L81.171 42.5019L81.6219 66.4656L82.0728 44.3105L82.5238 22.1553L86.1312 22.4266C88.1153 22.6074 90.0092 22.9691 90.3699 23.3309C90.6405 23.6926 90.7307 70.2636 90.4601 126.872L89.919 229.781L87.5742 230.956C86.3116 231.68 84.3275 232.494 83.2452 232.765L81.171 233.398L80.9906 154.001L80.72 74.6042L80.2691 155.9L79.8182 237.196L48.7941 249.675C31.7489 256.548 17.4094 261.974 16.9584 261.702C16.5977 261.431 16.2369 261.702 16.2369 262.335C16.2369 262.968 17.229 263.149 19.2131 262.878C23.1813 262.245 28.5924 260.617 27.5102 260.436C27.0593 260.346 30.0354 259.17 34.2742 257.723C38.5129 256.277 41.3087 255.101 40.5872 255.011C38.4227 254.83 42.4811 253.383 45.3671 253.292C46.81 253.202 47.7119 252.84 47.3512 252.388C47.0806 251.846 48.7039 251.213 51.0488 250.851C53.4838 250.489 54.7464 249.947 54.1151 249.585C53.3936 249.133 53.9347 248.681 55.8287 248.228C57.3618 247.957 58.895 247.686 59.2557 247.686C59.7067 247.686 60.6085 247.053 61.4202 246.329C62.2319 245.606 65.208 244.611 68.094 244.159C73.1444 243.345 75.5794 242.441 72.964 242.26C72.2425 242.26 72.6935 241.808 73.9561 241.265C75.2187 240.723 84.1471 239.999 93.797 239.638C110.932 239.095 111.113 239.005 99.118 238.914C92.354 238.824 85.4999 238.462 83.9667 238.191C79.728 237.286 80.2691 234.754 85.049 232.946C88.5662 231.68 93.3461 231.499 125.452 231.68C145.474 231.77 166.036 232.042 171.177 232.222C180.195 232.494 180.376 232.584 180.376 234.664V236.925L159.002 237.196L137.537 237.377L159.903 237.648C178.752 237.829 182.179 238.01 182.179 239.185C182.179 240.18 180.286 240.542 172.98 240.813C166.036 240.994 167.389 241.084 178.392 241.265L193.002 241.446L192.821 235.749L192.641 230.143L192.37 235.297C192.01 240.09 191.829 240.542 189.845 240.542C188.583 240.542 187.591 239.909 187.32 239.005C186.959 237.467 186.869 237.467 186.779 238.914C186.779 239.818 185.967 240.542 185.065 240.542C183.442 240.542 183.352 239.185 182.811 220.828C182.45 210.067 182.27 188.183 182.36 172.268L182.63 143.33L183.081 175.885C183.442 193.79 183.442 166.028 183.262 114.122L182.811 19.8946H185.156H187.591L187.861 128.138L188.042 236.473L188.312 127.686C188.492 24.8682 188.583 18.9903 190.116 18.9903C193.994 19.0807 193.904 14.921 194.174 131.213L194.355 241.898L194.625 129.947L194.806 18.086H188.492C183.081 18.086 182.179 17.8147 182.179 16.4583C182.179 15.554 181.909 15.2827 181.458 15.9157C181.007 16.6391 166.397 16.9104 132.036 16.82C83.6962 16.7295 83.2452 16.7295 83.6962 14.921C83.9667 13.9262 84.598 12.8411 85.049 12.4794C85.5901 12.2081 95.8713 12.0272 107.956 12.2081C120.222 12.3889 130.142 12.1176 130.413 11.6655C130.683 11.2133 120.853 10.8516 106.964 10.8516H82.9747L83.1551 8.5909L83.3354 6.33017L110.932 6.42059C126.084 6.51102 147.999 6.78232 159.633 7.14403C180.736 7.6866 180.827 7.6866 181.097 9.67604C181.368 11.7559 181.368 11.7559 168.02 11.8463C160.715 11.9368 149.171 12.2985 142.498 12.6602C132.036 13.2028 133.93 13.2932 155.304 13.2932C169.012 13.3837 180.646 13.655 181.187 14.0167C181.909 14.3784 182.179 12.4793 182.179 8.22917C182.179 1.80869 182.179 1.80872 184.705 1.80872C186.057 1.80872 188.673 2.17041 190.477 2.62256C192.641 3.16513 193.723 3.07471 193.363 2.53214C193.002 2.07999 194.084 1.80872 195.798 1.98956L198.864 2.26086L199.134 9.94733C199.315 16.3678 199.134 17.8147 197.872 18.719C196.339 19.8041 196.339 19.8946 197.782 19.8946C199.225 19.8946 199.315 26.0437 199.225 110.957C199.134 161.145 198.864 210.972 198.503 221.823C198.142 236.382 198.233 241.446 199.044 241.446C199.585 241.446 199.856 240.632 199.585 239.638C199.315 238.643 199.405 230.685 199.766 222.004L200.397 206.179L205.538 206.36L210.588 206.541L205.898 206.812C197.691 207.445 200.758 208.44 209.776 208.168C215.819 207.987 218.254 207.535 217.983 206.812C217.803 206.088 214.646 205.636 208.965 205.455C204.185 205.365 200.217 204.822 200.217 204.37C200.217 203.918 204.185 203.375 209.055 203.195L217.803 202.923L209.055 202.742C201.84 202.562 200.217 202.29 200.217 201.205C200.217 200.301 201.119 199.849 203.193 199.849H206.079L205.808 178.236L205.538 156.533L210.768 156.171C215.909 155.9 215.909 155.9 209.506 155.719C202.201 155.538 200.217 154.996 200.217 153.187C200.217 152.283 201.569 151.921 204.997 151.831L209.686 151.74L204.726 150.565L199.766 149.48L207.432 149.028L215.097 148.666L207.702 148.485C201.84 148.304 200.217 148.033 200.217 146.948C200.217 145.953 201.93 145.591 208.153 145.32L215.999 145.049L208.063 144.868C202.111 144.777 200.126 144.416 200.487 143.511C200.758 142.788 203.103 142.426 207.973 142.426C217.983 142.426 218.074 140.708 208.153 140.346L200.217 140.075V70.6254V1.17572L157.649 0.633118C134.2 0.271393 103.717 0.00012207 90.0092 0.00012207H64.9374V5.87802ZM146.826 1.53741L181.278 2.07999V4.15985V6.14929L133.299 5.69717C106.874 5.51633 84.6882 5.15457 84.1471 4.97372C83.5158 4.70242 82.9747 3.70773 82.9747 2.71301C82.9747 0.994843 83.5158 0.904419 97.675 0.904419C105.702 0.904419 127.797 1.17569 146.826 1.53741ZM201.84 171.997C202.02 159.698 202.201 157.347 203.373 157.347C204.546 157.347 204.726 160.241 204.726 177.965C204.726 195.779 204.546 198.673 203.373 198.673C202.652 198.673 202.02 198.04 201.93 197.226C201.93 196.141 201.66 196.232 201.119 197.588C200.668 198.673 200.397 190.444 200.487 177.694L200.577 155.991L201.119 171.364L201.66 186.737L201.84 171.997Z" fill="black"/>
<path d="M151.897 123.689C148.053 123.471 144.82 120.617 142.255 117.98C139.698 115.36 137.543 112.207 136.586 108.635C136.57 108.587 136.546 108.555 136.506 108.539C136.401 108.466 136.232 108.482 136.184 108.635C135.139 112.135 133.056 115.247 130.37 117.698C128.947 119.004 127.371 120.149 125.738 121.173C124.13 122.181 122.393 123.278 120.6 123.907C120.23 124.036 120.471 124.6 120.809 124.399C120.841 124.382 120.881 124.358 120.914 124.342C123.487 125.463 125.98 126.697 128.191 128.454C130.443 130.244 132.429 132.437 133.916 134.905C134.777 136.34 135.412 137.856 135.975 139.428C136.136 139.879 136.843 139.702 136.707 139.226C136.699 139.202 136.691 139.186 136.683 139.162C138.5 131.994 144.555 125.777 151.84 124.229C151.856 124.229 151.873 124.229 151.889 124.237C152.25 124.27 152.25 123.713 151.897 123.689Z" fill="#A79CEE"/>
<path d="M164.426 98.7019C162.608 98.5971 161.072 97.2425 159.858 96.0008C158.652 94.7591 157.631 93.2674 157.172 91.5742C157.164 91.55 157.148 91.5339 157.132 91.5258C157.084 91.4936 157.004 91.5017 156.979 91.5742C156.489 93.2352 155.5 94.7026 154.229 95.8637C153.554 96.4846 152.806 97.0248 152.034 97.5086C151.27 97.9843 150.45 98.5084 149.598 98.8067C149.421 98.8712 149.533 99.1373 149.694 99.0405C149.71 99.0325 149.726 99.0244 149.742 99.0163C150.965 99.5485 152.139 100.129 153.192 100.968C154.262 101.814 155.202 102.854 155.902 104.023C156.312 104.701 156.61 105.418 156.875 106.168C156.955 106.386 157.285 106.297 157.221 106.071C157.221 106.063 157.213 106.047 157.213 106.039C158.073 102.645 160.936 99.7017 164.385 98.968C164.394 98.968 164.402 98.968 164.41 98.968C164.595 98.976 164.595 98.718 164.426 98.7019Z" fill="#A79CEE"/>
<path d="M126.498 84.8096C125.05 84.729 123.836 83.6486 122.871 82.6568C121.906 81.6731 121.102 80.4879 120.74 79.1414C120.732 79.1252 120.716 79.1172 120.7 79.1091C120.668 79.0849 120.603 79.0849 120.579 79.1494C120.193 80.4637 119.405 81.6328 118.4 82.5601C117.861 83.0519 117.274 83.4792 116.655 83.8663C116.052 84.2452 115.393 84.6564 114.717 84.8983C114.58 84.9467 114.669 85.1563 114.798 85.0838C114.814 85.0757 114.822 85.0676 114.838 85.0596C115.803 85.4789 116.744 85.9465 117.58 86.6077C118.424 87.285 119.172 88.1074 119.735 89.0346C120.057 89.5748 120.298 90.1473 120.515 90.7359C120.579 90.9052 120.845 90.8407 120.788 90.6633C120.788 90.6553 120.78 90.6472 120.78 90.6392C121.464 87.9381 123.739 85.5998 126.482 85.0193C126.49 85.0193 126.49 85.0193 126.498 85.0193C126.626 85.0273 126.626 84.8177 126.498 84.8096Z" fill="#A79CEE"/>
<path d="M163.105 151.643C162.116 151.587 161.287 150.853 160.628 150.176C159.969 149.499 159.422 148.692 159.173 147.781C159.173 147.765 159.165 147.757 159.148 147.757C159.124 147.741 159.076 147.741 159.068 147.781C158.803 148.676 158.264 149.475 157.58 150.112C157.219 150.442 156.808 150.74 156.39 151.007C155.98 151.265 155.53 151.547 155.072 151.708C154.975 151.74 155.039 151.885 155.128 151.837C155.136 151.829 155.144 151.829 155.152 151.821C155.811 152.111 156.455 152.426 157.018 152.877C157.596 153.337 158.103 153.901 158.489 154.53C158.714 154.901 158.875 155.288 159.02 155.691C159.06 155.804 159.245 155.764 159.205 155.643C159.205 155.635 159.205 155.635 159.197 155.627C159.663 153.788 161.215 152.192 163.089 151.797H163.097C163.193 151.789 163.193 151.652 163.105 151.643Z" fill="#A79CEE"/>
<path d="M146.959 169.406C146.468 169.374 146.05 169.011 145.72 168.673C145.391 168.334 145.117 167.931 144.997 167.471C144.997 167.463 144.989 167.463 144.989 167.455C144.972 167.447 144.956 167.447 144.948 167.471C144.812 167.923 144.546 168.318 144.201 168.632C144.016 168.802 143.815 168.947 143.605 169.076C143.396 169.205 143.179 169.35 142.946 169.43C142.898 169.447 142.93 169.519 142.97 169.495C142.978 169.495 142.978 169.487 142.986 169.487C143.316 169.632 143.638 169.785 143.919 170.011C144.209 170.245 144.466 170.519 144.651 170.841C144.763 171.027 144.844 171.22 144.916 171.422C144.94 171.478 145.029 171.454 145.013 171.398V171.39C145.246 170.471 146.026 169.672 146.959 169.471H146.967C147.007 169.479 147.007 169.406 146.959 169.406Z" fill="#A79CEE"/>
<path d="M127.809 157.82C125.991 157.715 124.455 156.361 123.241 155.119C122.035 153.877 121.014 152.386 120.555 150.692C120.547 150.668 120.531 150.652 120.515 150.644C120.467 150.612 120.386 150.62 120.362 150.692C119.872 152.353 118.883 153.821 117.612 154.982C116.937 155.603 116.189 156.143 115.417 156.627C114.653 157.102 113.833 157.627 112.98 157.925C112.803 157.989 112.916 158.255 113.077 158.159C113.093 158.151 113.109 158.143 113.125 158.134C114.347 158.667 115.521 159.247 116.575 160.086C117.644 160.932 118.585 161.972 119.285 163.142C119.695 163.819 119.992 164.536 120.258 165.286C120.338 165.504 120.668 165.415 120.604 165.19C120.604 165.182 120.595 165.165 120.595 165.157C121.456 161.763 124.319 158.82 127.768 158.086C127.776 158.086 127.784 158.086 127.792 158.086C127.977 158.094 127.977 157.828 127.809 157.82Z" fill="#A79CEE"/>
<path d="M29.7545 28.1238C29.7545 51.9067 28.6723 141.703 28.4017 142.607C28.1312 143.24 27.1391 143.692 26.0569 143.511C23.8924 143.331 21.4574 146.676 20.3752 151.198C19.9242 153.278 20.1046 153.64 21.8181 153.459C22.9906 153.368 24.3434 152.735 24.8845 152.012C25.4256 151.288 26.5078 151.017 27.4097 151.288C28.5821 151.741 28.8527 153.187 28.8527 158.704C28.8527 165.305 28.9429 165.486 30.9269 165.034C32.0092 164.762 35.9774 164.039 39.675 163.406L46.439 162.23L46.7997 116.654C46.9801 91.5147 47.3408 60.7687 47.5212 48.2895L47.8819 25.5918L40.1259 24.0544C35.797 23.1502 31.7386 22.2459 31.0171 21.9746C30.0251 21.6129 29.7545 22.8789 29.7545 28.1238ZM36.5185 26.3152C35.1657 26.9482 35.6166 27.0386 38.3222 26.6769C40.5769 26.4056 41.4787 26.5865 40.667 27.0386C39.675 27.6716 39.8554 27.9429 41.5689 28.2142C43.6432 28.4855 43.7334 28.7568 44.2745 38.8848C44.6352 44.5819 44.8156 74.0618 44.7254 104.446L44.6352 159.608L44.1843 107.159L43.7334 54.71L43.2824 106.707L42.8315 158.704L40.7572 158.975C39.675 159.156 38.9535 159.608 39.2241 160.06C39.4946 160.512 38.1418 160.603 36.3381 160.331C32.0092 159.698 32.7307 160.603 37.5105 161.869L41.0278 162.773L37.0596 162.23C34.8951 162.049 32.7307 161.597 32.2797 161.326C31.2877 160.693 31.3779 151.65 32.4601 148.847C32.911 147.581 33.0012 146.496 32.5503 146.496C32.0994 146.496 31.5582 147.309 31.2877 148.395C30.5662 151.017 28.4919 150.113 28.1312 147.129C27.8606 144.597 30.2956 142.607 31.4681 144.506C31.7386 144.958 31.919 118.643 31.7386 85.908L31.5582 26.3152L33.5423 25.9535C37.24 25.23 38.4124 25.4109 36.5185 26.3152Z" fill="black"/>
<path d="M56.5454 27.6716C56.1846 28.0334 55.9141 57.9654 55.9141 94.2276V160.06H57.8982C61.8663 160.06 71.6966 157.98 72.3279 156.985C73.32 155.539 73.2298 154.453 72.1476 155.086C71.5163 155.448 71.3359 150.746 71.6065 140.437C71.9672 126.33 71.9672 125.968 71.2457 135.102C70.7948 140.618 70.1635 145.501 69.9831 145.953C69.8027 146.496 69.5322 123.346 69.5322 94.5893C69.442 65.7424 69.6224 42.4116 69.8027 42.5925C70.0733 42.7733 70.3438 55.7951 70.434 71.4394C70.6144 87.0837 70.9751 101.552 71.2457 103.542C71.5163 105.531 71.6966 90.4295 71.6065 70.083C71.5163 37.438 71.6065 35.8103 72.0574 56.9707L72.5985 80.9345L72.8691 55.5239L73.0494 30.1132L67.4579 29.0281C64.3014 28.4855 60.7841 27.7621 59.5215 27.4908C58.2589 27.3099 56.9061 27.3099 56.5454 27.6716ZM68.4499 33.0974C68.6303 33.1878 68.6303 60.4975 68.6303 93.7754C68.5401 135.644 68.1794 154.273 67.4579 154.544C66.8266 154.725 66.8266 155.086 67.4579 155.448C67.9088 155.719 65.9247 155.991 63.0388 156.081L57.7178 156.172V122.532C57.7178 104.084 57.9883 76.0513 58.3491 60.3166L58.8902 31.6505L63.4897 32.1931C66.0149 32.5548 68.2696 32.9165 68.4499 33.0974Z" fill="black"/>
<path d="M63.3077 179.051C59.7002 179.864 56.5437 180.769 56.3633 181.04C55.8222 181.583 54.5596 225.169 55.1007 225.169C55.2811 225.169 59.1591 223.994 63.5782 222.547L71.695 220.015L71.7852 214.227L71.8754 208.44L71.3343 213.414L70.7931 218.387L70.1618 212.057C69.7109 208.53 69.5305 200.03 69.6207 193.067L69.7109 180.407L70.3422 190.535C70.6128 196.142 71.2441 201.025 71.6048 201.387C72.0557 201.748 72.1459 197.046 71.8754 190.806C71.5146 183.753 71.6048 180.317 72.1459 181.763C72.8674 183.843 72.9576 183.753 72.7772 180.859C72.5969 177.061 71.9656 176.88 63.3077 179.051ZM68.2679 182.125C68.7189 182.577 68.8992 215.855 68.4483 215.584C68.0875 215.403 67.6366 215.765 67.3661 216.488C67.0955 217.212 65.5623 218.026 63.939 218.387C62.1353 218.839 61.504 219.292 62.2255 219.744C62.7666 220.105 62.0451 220.377 60.5119 220.286L57.7161 220.196V201.839V183.572H59.7904C61.4138 183.572 61.504 183.391 60.4217 182.577C59.4297 181.944 60.061 181.854 62.6764 182.216C65.4722 182.577 65.9231 182.487 64.4801 181.763C62.9469 180.95 63.1273 180.95 65.382 181.402C66.8249 181.673 68.1777 181.944 68.2679 182.125Z" fill="black"/>
<path d="M37.3325 184.747L29.1255 186.646L28.4942 194.694C28.2237 199.216 27.9531 209.977 27.9531 218.658C27.9531 230.866 28.2237 234.302 29.1255 234.031C29.6667 233.759 33.6349 232.403 37.8736 231.047C42.1123 229.69 45.81 228.062 46.1707 227.52C47.0726 226.163 47.0726 182.667 46.2609 182.757C45.81 182.848 41.8418 183.752 37.3325 184.747ZM42.1123 187.369C42.5633 188.002 42.7437 196.774 42.5633 206.902C42.2025 224.717 42.1123 225.35 40.3086 226.163C38.5951 226.887 38.5951 226.977 40.8497 226.525C44.9983 225.711 43.5553 226.796 38.3245 228.243C35.6189 229.057 32.733 229.961 31.8311 230.233C30.4783 230.685 30.3882 230.594 31.5606 229.781C32.4624 229.148 32.5526 228.786 31.8311 228.786C30.9293 228.786 30.6587 224.264 30.6587 209.344V189.992L33.9054 189.359C36.2502 188.907 36.7914 188.545 35.8895 187.912C35.168 187.46 35.9797 187.279 38.3245 187.641C40.9399 188.002 41.481 187.912 40.1283 187.279C38.6853 186.555 38.6853 186.375 39.7675 186.375C40.5792 186.284 41.6614 186.827 42.1123 187.369Z" fill="black"/>
<path d="M10.9125 188.997C10.642 190.715 10.5518 193.247 10.642 194.604C10.7322 196.051 10.4616 197.136 9.92048 197.136C9.46955 197.136 9.28917 197.769 9.55973 198.492C10.0107 199.578 9.19899 199.849 5.32098 200.03L0.450931 200.211L4.96024 200.482C11.5438 201.024 12.2653 202.562 5.95229 202.562C3.06633 202.562 0.992048 202.923 1.26261 203.376C1.62335 203.828 1.26261 204.461 0.721489 204.642C0 204.913 0.0901861 205.184 1.08223 205.184C2.25465 205.275 2.70558 206.269 2.97614 209.525L3.2467 213.865L3.42707 209.525C3.60745 205.094 4.96024 203.737 5.68173 207.264L6.04247 209.344L6.22284 207.264C6.22284 206.179 6.94433 205.275 7.66582 205.275C8.74806 205.275 9.01861 206.812 9.19899 212.69L9.37936 220.195L9.92048 212.509C10.3714 206.269 10.5518 207.716 10.642 220.557L10.8223 236.201L5.41117 235.84C2.43503 235.659 0 235.749 0 236.201C0 236.563 2.43503 236.925 5.41117 236.925H10.8223V247.867C10.8223 253.835 10.3714 259.532 9.92048 260.527C9.28917 261.612 9.28917 262.245 9.83029 262.245C11.5438 262.245 11.8144 256.186 11.5438 221.1C11.3635 201.657 11.0929 187.279 10.9125 188.997Z" fill="black"/>
</svg>
