<svg width="133" height="58" viewBox="0 0 133 58" fill="none" xmlns="http://www.w3.org/2000/svg">
<g clip-path="url(#clip0_1837_30793)">
<path d="M46.1551 29.8076C46.1759 29.7983 46.1952 29.7943 46.2145 29.7904C46.2774 29.5973 46.3402 29.4056 46.403 29.2139C44.2505 29.9044 42.2336 30.9153 40.1966 31.8834C39.7739 32.0848 39.3485 32.2793 38.9232 32.4738C39.1389 32.6605 39.3546 32.8457 39.573 33.0283C40.6392 32.3544 41.7807 31.8477 42.9332 31.3369C44.022 30.8571 45.0609 30.2791 46.1551 29.8076Z" fill="#A79CEE"/>
<path d="M40.4599 33.7642C40.6785 33.9426 40.897 34.121 41.1155 34.2995C41.8715 33.9918 42.5831 33.5902 43.3554 33.3089C44.0184 33.0676 44.6709 32.653 45.3749 32.5606C45.4568 32.2577 45.5402 31.9562 45.629 31.6562C44.8336 32.0376 43.9838 32.3428 43.1803 32.7035C42.2923 33.1031 41.3881 33.4682 40.4599 33.7642Z" fill="#A79CEE"/>
<path d="M55.717 15.7959C53.7243 14.9115 51.6039 14.4684 49.4823 14.0156C47.2162 13.5322 44.9911 12.8391 42.7755 12.1653C38.2686 10.7962 33.7774 9.38878 29.2361 8.13751C27.5639 7.67602 25.8888 7.2255 24.2137 6.77635C23.5535 7.13729 22.8703 7.4636 22.173 7.69216C22.0098 7.74531 21.9067 7.48022 22.0632 7.41188C22.5688 7.19216 23.0339 6.89087 23.4963 6.58406C23.3095 6.53384 23.1226 6.48362 22.9357 6.4334C22.5601 6.61748 22.1872 6.80159 21.8375 7.01208C21.6599 7.11867 21.5196 6.84629 21.6863 6.73545C21.9099 6.5854 22.1376 6.43264 22.3695 6.28268C20.0925 5.67553 17.814 5.06974 15.5385 4.45161C13.3536 3.85788 11.1874 3.20387 9.03832 2.49232C7.07463 1.84335 5.03388 0.939207 2.95312 0.77002C5.57887 1.37835 9.03501 3.27443 11.7269 4.73988C14.9859 6.51551 18.2772 8.24065 21.5841 9.92885C21.9034 9.84585 22.2905 9.86672 22.6103 9.86345C22.7357 9.86212 22.7406 10.045 22.6164 10.056C22.4315 10.0745 22.2451 10.0971 22.0616 10.1212C22.0367 10.125 22.0105 10.1289 21.9856 10.1327C22.1638 10.2241 22.3433 10.3141 22.5215 10.404C22.9022 10.3795 23.2817 10.3343 23.6523 10.2312C23.785 10.1942 23.8489 10.397 23.7161 10.4354C23.4506 10.5121 23.184 10.5641 22.9162 10.6037C23.0697 10.6824 23.2232 10.7597 23.378 10.8385C23.9961 10.7877 24.6155 10.737 25.2348 10.7C25.3355 10.6942 25.338 10.8427 25.24 10.854C24.7583 10.9118 24.2777 10.9929 23.7947 11.048C23.9495 11.1267 24.1044 11.2054 24.2593 11.2841C24.3429 11.3263 24.4265 11.3685 24.5101 11.4107C25.414 11.3082 26.3089 11.1574 27.2129 11.0494C27.3151 11.0368 27.3175 11.1922 27.218 11.2076C26.4448 11.3253 25.675 11.5132 24.8952 11.6061C25.1611 11.7397 25.4283 11.8747 25.6942 12.0083C26.6144 11.8111 27.5787 11.7409 28.5065 11.6001C28.5976 11.586 28.6248 11.743 28.5336 11.7599C27.7243 11.9061 26.9007 12.0878 26.078 12.2023C26.2822 12.3049 26.485 12.4076 26.6892 12.5102C27.8155 12.3676 28.9341 12.1823 30.0553 12.0066C30.1782 11.9874 30.1829 12.1799 30.0614 12.1991C29.0617 12.3597 28.0683 12.5643 27.0661 12.7C27.3018 12.8195 27.539 12.9377 27.7747 13.0572C29.0655 12.8724 30.3584 12.7454 31.6247 12.4188C31.7588 12.3846 31.8226 12.5874 31.6885 12.623C30.5424 12.9303 29.3688 13.1082 28.1954 13.2695C28.4901 13.4171 28.7834 13.5662 29.0781 13.7138C30.5063 13.4468 31.933 13.0697 33.3763 12.9279C33.477 12.9181 33.4781 13.0679 33.3815 13.082C32.0713 13.2734 30.8028 13.6728 29.5043 13.9276C29.7949 14.0738 30.0868 14.2201 30.3774 14.3663C30.3871 14.3595 30.3954 14.3527 30.4079 14.3501C31.1865 14.1156 32.0188 14.0123 32.8134 13.8288C33.5652 13.6545 34.3029 13.5089 35.0775 13.5093C35.1767 13.5091 35.1833 13.6604 35.0827 13.6634C33.599 13.714 32.1839 14.2808 30.7255 14.542C30.9749 14.6672 31.2257 14.7924 31.4766 14.9175C33.1815 14.6825 34.918 14.21 36.6376 14.1373C36.6776 14.135 36.6879 14.1956 36.6492 14.2075C35.1445 14.6551 33.509 14.9693 31.9316 15.1453C32.3044 15.331 32.6786 15.5167 33.0528 15.7023C34.7751 15.3905 36.5153 15.1998 38.2365 14.8687C38.3097 14.8544 38.3471 14.9593 38.2724 14.9818C36.7454 15.4567 35.0921 15.757 33.4859 15.9175C33.8341 16.0892 34.1822 16.2608 34.5304 16.4324C36.1748 16.1802 37.8077 15.8508 39.4637 15.6798C39.5106 15.6749 39.5235 15.7534 39.4779 15.7611C37.9669 16.0368 36.4717 16.3787 34.9594 16.6435C35.2487 16.7856 35.5379 16.9263 35.8271 17.067C36.5922 16.9409 37.3455 16.7542 38.1171 16.6543C38.9922 16.5419 39.8684 16.4597 40.7228 16.2274C40.7864 16.2102 40.8157 16.3027 40.7534 16.324C39.8943 16.6084 39.02 16.7635 38.1267 16.8978C37.4916 16.9923 36.8696 17.1461 36.2411 17.2669C36.6455 17.4625 37.0486 17.6581 37.4544 17.8524C38.9014 17.6254 40.3607 17.4123 41.7943 17.155C41.8813 17.1394 41.9241 17.2609 41.8355 17.2888C40.9102 17.5766 39.8979 17.6339 38.9448 17.8073C38.5692 17.876 38.1948 17.9528 37.8204 18.0283C41.7796 19.9246 45.777 21.7388 49.859 23.3808C49.9043 23.3991 49.9412 23.4229 49.9768 23.4494C51.7342 20.7558 54.5297 18.7805 55.8641 15.836C55.8159 15.83 55.7678 15.8185 55.717 15.7959ZM46.5835 21.4744C47.0699 20.8833 47.4934 20.242 47.9989 19.6621C48.0729 19.5777 48.2231 19.699 48.1518 19.7876C47.8722 20.1363 47.6254 20.5074 47.354 20.8617C47.1512 21.1261 47.0003 21.4296 46.7742 21.6758C46.6514 21.8105 46.4731 21.6092 46.5835 21.4744ZM47.1406 21.8229C47.4457 21.1666 48.0737 20.6032 48.5402 20.0586C48.6869 19.8871 49.0688 19.2604 49.3256 19.2235C49.3436 19.2209 49.3544 19.2362 49.3474 19.2526C48.881 20.2673 47.8915 20.9915 47.3883 21.9755C47.301 22.1436 47.0643 21.9884 47.1406 21.8229ZM47.5928 21.9339C47.8804 21.3639 48.4359 20.8712 48.8739 20.4157C49.4108 19.8568 49.9791 19.3367 50.5678 18.8334C50.6666 18.7493 50.8028 18.8896 50.7067 18.9806C50.1453 19.5104 49.5824 20.0456 49.07 20.6241C48.6595 21.0895 48.158 21.5567 47.8528 22.0962C47.7558 22.2711 47.5054 22.1088 47.5928 21.9339ZM48.3075 22.3626C48.9233 21.5296 49.5266 20.7158 50.2326 19.9554C50.654 19.501 51.2757 18.6338 51.9046 18.4842C51.9446 18.475 51.9798 18.5304 51.9451 18.5575C50.6034 19.587 49.5818 21.192 48.5949 22.5417C48.4661 22.7149 48.1787 22.5384 48.3075 22.3626ZM48.8872 22.534C49.9622 20.8334 51.4958 19.4088 52.9407 18.0299C53.0229 17.9511 53.1386 18.0761 53.0619 18.1577C51.6977 19.5925 50.2479 21.0415 49.1554 22.7006C49.0433 22.8698 48.7777 22.706 48.8872 22.534ZM54.1311 17.7079C53.6012 18.616 52.7417 19.2991 52.0505 20.0845C51.2574 20.9869 50.4258 22.0084 49.8049 23.042C49.6982 23.2195 49.4258 23.0501 49.5312 22.8726C50.0481 22.0083 50.732 21.139 51.3966 20.3768C52.2136 19.4389 53.2784 18.6385 53.9777 17.6141C54.045 17.5186 54.1901 17.6082 54.1311 17.7079Z" fill="#A79CEE"/>
<path d="M45.3902 28.6363C43.9149 27.9489 42.5379 26.978 41.2364 26.0355C39.388 24.695 37.513 23.39 35.5974 22.145C31.9358 19.7641 28.0965 17.7496 24.3127 15.579C20.4412 13.358 16.7058 10.9199 13.0252 8.39863C9.68241 6.10795 6.23806 3.89998 2.97656 1.48926C4.83839 4.32543 6.93077 7.00612 8.66487 9.92333C10.6398 13.2446 12.641 16.5525 14.5188 19.9291C16.2925 23.1189 18.1087 26.3325 19.6565 29.638C20.4048 31.2355 21.004 32.8629 21.5751 34.5285C22.0889 36.0243 22.435 37.5953 23.2244 38.9788C24.625 37.9746 26.2302 37.2972 27.8038 36.6002C29.8526 35.6927 31.8813 34.7314 33.9208 33.7991C36.0835 32.8104 38.2664 31.8632 40.4076 30.8289C42.043 30.0377 43.6824 29.2521 45.3902 28.6363ZM11.9101 8.64309C9.43052 7.29825 7.34034 5.39973 4.99536 3.85022C4.73132 3.67541 4.99102 3.25772 5.25643 3.43391C7.59032 4.9888 9.62816 7.00632 12.0379 8.43972C12.172 8.51959 12.0457 8.71748 11.9101 8.64309ZM36.9358 31.6695C38.2413 31.0395 39.5791 30.4773 40.8792 29.8363C41.7732 29.3955 42.631 28.8691 43.5532 28.4891C41.3875 27.4255 39.6138 25.6886 37.6597 24.3153C37.5476 24.2371 37.65 24.0774 37.7706 24.1379C40.087 25.2885 41.8787 27.3719 44.3185 28.3424C44.5902 28.45 44.4556 28.8897 44.184 28.778C44.1387 28.7597 44.0948 28.7385 44.0496 28.7188C44.0255 28.779 43.978 28.8321 43.9019 28.8587C42.6952 29.2863 41.5846 29.9858 40.4114 30.4977C39.2922 30.9868 38.1528 31.4317 37.0108 31.8628C36.8987 31.9055 36.8291 31.7205 36.9358 31.6695Z" fill="#A79CEE"/>
<path d="M41.2965 34.4497C41.5095 34.6253 41.7212 34.8009 41.9314 34.9806C41.9396 34.9876 41.9464 34.9945 41.9546 35.0015C43.0089 34.6533 44.0713 34.1828 45.0868 33.7241C45.1361 33.5089 45.1882 33.2923 45.243 33.0771C44.5533 33.2466 43.8368 33.589 43.1742 33.8043C42.5448 34.0075 41.9299 34.2589 41.2965 34.4497Z" fill="#A79CEE"/>
<path d="M39.7332 33.1652C39.9271 33.3268 40.1224 33.4871 40.3177 33.6474C42.1809 32.9399 43.9991 31.9528 45.7803 31.063C45.7914 31.0576 45.801 31.0549 45.8121 31.0509C45.8822 30.8222 45.9537 30.5934 46.0266 30.3661C44.9501 30.8529 43.91 31.4144 42.8094 31.8459C41.7669 32.2548 40.7245 32.6527 39.7332 33.1652Z" fill="#A79CEE"/>
<path d="M49.5915 24.2508C45.3353 22.7842 41.2327 20.7667 37.207 18.7721C33.0649 16.7185 28.9356 14.6279 24.8258 12.51C20.5928 10.3261 16.3922 8.07797 12.2436 5.74108C10.7028 4.8742 8.9322 4.21229 7.41665 3.30307C6.21872 2.58439 5.17195 1.9059 3.86719 1.37158C7.15032 3.33031 10.2641 5.63627 13.4437 7.73954C17.0623 10.135 20.706 12.5088 24.4805 14.6532C28.2714 16.8073 32.1318 18.7904 35.8018 21.1549C37.7189 22.3903 39.6066 23.6707 41.4578 25.0016C43.0397 26.1384 44.7334 27.3878 46.5741 28.0628C46.6784 28.1011 46.7549 28.1625 46.8078 28.2359C47.1568 28.332 47.2342 28.928 46.8107 29.0813C46.5277 30.4665 46.2805 31.852 46.047 33.2391C46.4408 32.4243 46.8372 31.615 47.2034 30.804C48.1661 28.6733 49.0681 26.5418 49.7714 24.3133C49.7619 24.3008 49.7538 24.2884 49.7456 24.2759C49.6974 24.2753 49.6465 24.2693 49.5915 24.2508Z" fill="#A79CEE"/>
<path d="M42.2233 35.2479C42.4278 35.4454 42.6184 35.6538 42.8076 35.8648C43.4806 35.5879 44.1483 35.2985 44.8226 35.0216C44.8653 34.7801 44.9122 34.5387 44.9617 34.2974C44.516 34.4655 44.0568 34.6061 43.6124 34.7784C43.1556 34.956 42.7001 35.1378 42.2233 35.2479Z" fill="#A79CEE"/>
<path d="M44.3013 37.2864C44.3897 37.0304 44.4823 36.7757 44.5803 36.5226C44.314 36.6556 44.0313 36.7679 43.7462 36.8499C43.9182 37.0086 44.1042 37.1536 44.3013 37.2864Z" fill="#A79CEE"/>
<path d="M43.0481 36.136C43.187 36.2901 43.3258 36.4429 43.4703 36.5902C43.8952 36.4287 44.2688 36.1841 44.6709 35.9701C44.6889 35.8383 44.7084 35.7052 44.7278 35.5721C44.4772 35.6669 44.2118 35.7326 43.9655 35.8192C43.6597 35.9271 43.3566 36.0377 43.0481 36.136Z" fill="#A79CEE"/>
<path d="M44.9302 38.0383C45.0955 38.0484 45.2563 37.9691 45.2902 37.7702C45.3404 37.4725 45.3907 37.1748 45.4395 36.877C46.228 35.0398 46.9616 33.1718 47.7542 31.3374C48.7109 29.1241 49.6077 26.8483 50.1539 24.4943C50.2602 24.4845 50.3614 24.4279 50.4331 24.305C52.3079 21.1041 55.6187 18.9037 56.7364 15.2489C56.8423 14.905 56.3621 14.7072 56.2005 14.9858C56.1515 14.9275 56.0887 14.8773 56.0064 14.8406C54.0122 13.9617 51.889 13.5213 49.7659 13.0781C47.497 12.6044 45.2719 11.9112 43.0534 11.247C38.4213 9.85997 33.8062 8.4333 29.1369 7.17234C27.8548 6.8266 26.5726 6.48773 25.2877 6.1502C25.3543 6.10971 25.4209 6.06923 25.4875 6.02874C25.7762 5.85193 25.5436 5.45892 25.2418 5.57923C24.9856 5.6808 24.7416 5.80726 24.503 5.94478C24.3655 5.90886 24.2281 5.87295 24.0921 5.83842C24.3834 5.67263 24.6624 5.49434 24.9184 5.28966C25.1187 5.12835 24.878 4.83697 24.6645 4.94177C24.2321 5.15408 23.7993 5.39525 23.3719 5.6516C20.7209 4.96463 18.0683 4.28864 15.4144 3.61263C13.2236 3.05319 11.0559 2.40604 8.8881 1.76988C6.87826 1.1795 4.68061 0.25434 2.55225 0.517612C2.50256 0.523924 2.4774 0.555256 2.4687 0.593646C2.3902 0.587262 2.32363 0.623625 2.28027 0.679493C2.16141 0.708393 2.06765 0.833797 2.13487 0.984386C3.58162 4.20351 6.05277 6.9091 7.81991 9.95176C9.76009 13.2947 11.728 16.6228 13.6071 20.0021C15.3877 23.2016 17.154 26.4422 18.739 29.7426C19.5659 31.4633 20.1951 33.2368 20.806 35.0403C21.3209 36.5581 21.6656 38.1332 22.4838 39.528C22.4892 39.5377 22.4974 39.546 22.5041 39.5557C22.3568 39.7863 22.6925 40.0884 22.9428 39.8906C24.4851 38.6736 26.3537 37.9826 28.1538 37.2469C30.1159 36.4443 32.0395 35.523 33.9788 34.6638C35.4708 34.003 36.9708 33.356 38.4573 32.6841C39.2818 33.7601 40.3612 34.6052 41.3585 35.5127C42.2971 36.3673 42.9184 37.496 44.0581 38.1274C44.1088 38.1555 44.1582 38.1698 44.2064 38.1786C44.3931 38.3663 44.7805 38.3528 44.9302 38.0383ZM47.1951 30.8033C46.829 31.6129 46.4325 32.4236 46.0388 33.2384C46.2722 31.8499 46.5194 30.4644 46.8024 29.0806C47.2259 28.9287 47.1486 28.3326 46.7996 28.2352C46.7466 28.1617 46.6701 28.1004 46.5658 28.0621C44.7265 27.3871 43.0328 26.1377 41.4495 25.0009C39.5983 23.67 37.7107 22.3896 35.7935 21.1542C32.1235 18.7897 28.2632 16.8066 24.4722 14.6525C20.6964 12.5081 17.0541 10.1329 13.4354 7.73881C10.2559 5.63417 7.14345 3.3296 3.85893 1.37086C5.1637 1.90518 6.21184 2.58368 7.4084 3.30235C8.92395 4.21156 10.6945 4.87348 12.2354 5.74036C16.3853 8.07726 20.5846 10.324 24.8176 12.5065C28.9273 14.6258 33.0553 16.715 37.1988 18.7686C41.2244 20.7646 45.3284 22.7821 49.5833 24.2473C49.6382 24.2658 49.6892 24.2732 49.7374 24.2738C49.7455 24.2863 49.7537 24.2987 49.7632 24.3112C49.0599 26.5411 48.1578 28.6739 47.1951 30.8033ZM9.03293 2.49318C11.182 3.20472 13.3482 3.86011 15.5331 4.45247C17.8086 5.0706 20.0857 5.675 22.3641 6.28353C22.1322 6.43487 21.9045 6.58625 21.6809 6.73631C21.5156 6.84854 21.6559 7.11954 21.8321 7.01294C22.1804 6.8038 22.5533 6.61832 22.9303 6.43425C23.1172 6.48447 23.3041 6.53469 23.4909 6.58491C23.0285 6.89035 22.5634 7.19164 22.0578 7.41274C21.8999 7.48106 22.003 7.74615 22.1677 7.69302C22.8635 7.46582 23.5481 7.13814 24.2083 6.7772C25.8834 7.22635 27.5585 7.67688 29.2307 8.13837C33.772 9.39101 38.2632 10.797 42.7701 12.1661C44.9858 12.8386 47.2108 13.5317 49.4769 14.0164C51.5985 14.4692 53.7203 14.9124 55.7116 15.7968C55.7638 15.8193 55.8105 15.8295 55.8573 15.8355C54.5216 18.7799 51.7275 20.7539 49.97 23.4489C49.9358 23.4224 49.8975 23.3986 49.8522 23.3802C45.7702 21.7369 41.7729 19.9241 37.8136 18.0278C38.188 17.9523 38.5624 17.8741 38.9381 17.8068C39.8925 17.6334 40.9034 17.5761 41.8288 17.2882C41.9173 17.2604 41.8732 17.1389 41.7876 17.1544C40.3526 17.4118 38.8946 17.6263 37.4476 17.8519C37.0432 17.6576 36.6388 17.462 36.2344 17.2663C36.8629 17.1456 37.4863 16.9918 38.12 16.8972C39.0133 16.763 39.8875 16.6079 40.7467 16.3234C40.8089 16.3035 40.7796 16.2097 40.716 16.2269C39.8616 16.4578 38.9855 16.54 38.1103 16.6538C37.3387 16.7537 36.5854 16.9404 35.8204 17.0665C35.5311 16.9257 35.2419 16.785 34.9527 16.6429C36.4649 16.3782 37.9601 16.0377 39.4712 15.7606C39.5181 15.7515 39.5038 15.6743 39.4569 15.6793C37.801 15.8503 36.1681 16.1797 34.5236 16.4319C34.1755 16.2603 33.8273 16.09 33.4792 15.917C35.084 15.7578 36.7386 15.4562 38.2656 14.9813C38.3403 14.9574 38.3043 14.8539 38.2297 14.8682C36.5086 15.1993 34.767 15.3899 33.046 15.7018C32.6719 15.5161 32.299 15.3305 31.9248 15.1448C33.5036 14.9688 35.1378 14.6546 36.6424 14.207C36.6812 14.195 36.6708 14.1358 36.6308 14.1367C34.9112 14.2094 33.1747 14.6806 31.4698 14.917C31.219 14.7918 30.9695 14.668 30.7187 14.5415C32.1758 14.2803 33.5922 13.7134 35.0759 13.6628C35.1766 13.6598 35.17 13.5086 35.0707 13.5088C34.2947 13.5097 33.5585 13.6539 32.8067 13.8283C32.0121 14.0131 31.1797 14.1165 30.4011 14.3496C30.3887 14.3536 30.3803 14.3604 30.3706 14.3658C30.0801 14.2195 29.7881 14.0733 29.4976 13.927C30.7975 13.6723 32.0645 13.2728 33.3747 13.0814C33.4714 13.0674 33.4703 12.9175 33.3696 12.9274C31.9276 13.0692 30.4995 13.4462 29.0713 13.7133C28.7766 13.5656 28.4834 13.4166 28.1887 13.2689C29.3635 13.1076 30.537 12.9312 31.6818 12.6224C31.8159 12.5868 31.752 12.3841 31.6179 12.4183C30.3517 12.7449 29.0588 12.8719 27.7679 13.0566C27.5322 12.9371 27.2951 12.819 27.0594 12.6995C28.0629 12.5637 29.0563 12.3591 30.0546 12.1986C30.1761 12.1793 30.1714 11.9855 30.0485 12.0061C28.9273 12.1817 27.8088 12.3684 26.6825 12.5097C26.4783 12.407 26.2754 12.3044 26.0712 12.2017C26.8926 12.0887 27.7161 11.9055 28.5269 11.7593C28.618 11.7425 28.5909 11.5855 28.4997 11.5996C27.5719 11.7403 26.6077 11.8105 25.6875 12.0077C25.4216 11.8728 25.1543 11.7392 24.8884 11.6056C25.6668 11.514 26.4367 11.3248 27.2113 11.207C27.3093 11.1916 27.3083 11.0377 27.2062 11.0489C26.3035 11.1569 25.4073 11.3076 24.5033 11.4102C24.4197 11.368 24.3361 11.3258 24.2525 11.2836C24.0976 11.2063 23.9428 11.1262 23.7879 11.0474C24.271 10.9924 24.7529 10.9112 25.2332 10.8534C25.3312 10.8422 25.3288 10.6923 25.2281 10.6994C24.6088 10.735 23.9907 10.7858 23.3713 10.8379C23.2178 10.7606 23.0643 10.6819 22.9094 10.6032C23.1787 10.5636 23.4453 10.5102 23.7094 10.4349C23.8421 10.3965 23.7783 10.1937 23.6455 10.2307C23.275 10.3351 22.8954 10.3789 22.5147 10.4035C22.3366 10.3121 22.157 10.2221 21.9789 10.1322C22.0037 10.1283 22.03 10.1231 22.0548 10.1206C22.2398 10.0966 22.4247 10.074 22.6096 10.0554C22.7338 10.0431 22.729 9.86021 22.6035 9.86292C22.2837 9.86618 21.8966 9.84532 21.5773 9.92832C18.2718 8.24013 14.9819 6.51501 11.7215 4.73936C9.02964 3.27391 5.5735 1.37783 2.94775 0.769501C5.0285 0.938689 7.06926 1.84283 9.03293 2.49318ZM33.9183 33.7999C31.8789 34.7322 29.8501 35.6921 27.8013 36.601C26.2277 37.298 24.6225 37.9768 23.2219 38.9796C22.4325 37.5961 22.0864 36.0252 21.5726 34.5293C21.0001 32.8637 20.401 31.2363 19.654 29.6389C18.1076 26.332 16.29 23.1197 14.5163 19.9299C12.6385 16.5519 10.6373 13.2455 8.66238 9.92416C6.9283 7.00558 4.83591 4.32488 2.97409 1.48871C6.23421 3.89942 9.67993 6.1074 13.0241 8.3981C16.7047 10.9194 20.4401 13.3575 24.3116 15.5785C28.0954 17.7491 31.9334 19.7635 35.5963 22.1444C37.5105 23.3894 39.3855 24.6958 41.2353 26.0349C42.5368 26.9788 43.9138 27.9483 45.3892 28.6358C43.68 29.2516 42.0405 30.0372 40.4052 30.8284C38.2626 31.864 36.081 32.8112 33.9183 33.7999ZM38.9159 32.4734C39.3413 32.2789 39.7666 32.083 40.1893 31.883C42.2263 30.9149 44.2446 29.9026 46.3957 29.2135C46.3329 29.4052 46.2701 29.5969 46.2073 29.79C46.1879 29.794 46.1672 29.7978 46.1478 29.8072C45.055 30.2801 44.0161 30.8567 42.9273 31.3379C41.7748 31.8473 40.6333 32.3554 39.5671 33.0293C39.3473 32.8467 39.1316 32.6601 38.9159 32.4734ZM39.731 33.1644C40.7223 32.6519 41.7661 32.2527 42.8044 31.8452C43.9051 31.4122 44.9465 30.8521 46.0216 30.3653C45.9487 30.5926 45.8772 30.8214 45.8071 31.0502C45.796 31.0542 45.7864 31.0568 45.7753 31.0622C43.9941 31.952 42.1759 32.9391 40.3127 33.6466C40.1188 33.4863 39.9249 33.3261 39.731 33.1644ZM40.4575 33.7637C41.3857 33.4677 42.2899 33.1026 43.1779 32.703C43.9814 32.3423 44.8297 32.0385 45.6266 31.6557C45.5391 31.9557 45.4544 32.2572 45.3724 32.56C44.6684 32.6524 44.0159 33.0685 43.353 33.3084C42.5807 33.5897 41.8691 33.99 41.1131 34.299C40.8945 34.1205 40.676 33.9421 40.4575 33.7637ZM41.9269 34.9789C41.7166 34.7992 41.505 34.6237 41.2919 34.4481C41.9254 34.2586 42.5402 34.0071 43.1682 33.8025C43.8309 33.5873 44.5487 33.2449 45.2371 33.0754C45.1823 33.2906 45.1302 33.5058 45.0809 33.7224C44.0668 34.1825 43.0043 34.6516 41.9487 34.9998C41.9419 34.9942 41.9351 34.9859 41.9269 34.9789ZM44.2936 37.2861C44.0953 37.1533 43.9108 37.0082 43.7389 36.851C44.0238 36.7676 44.3062 36.6567 44.5724 36.5236C44.4758 36.7754 44.382 37.03 44.2936 37.2861ZM44.6682 35.9693C44.2661 36.1834 43.8926 36.4279 43.4676 36.5895C43.3232 36.4421 43.1829 36.2893 43.0454 36.1352C43.3539 36.037 43.657 35.9277 43.9628 35.8198C44.2091 35.7332 44.4745 35.6675 44.7251 35.5727C44.7057 35.7045 44.6863 35.8376 44.6682 35.9693ZM42.8018 35.863C42.6139 35.6534 42.4219 35.445 42.2174 35.2461C42.6942 35.136 43.1497 34.9542 43.6066 34.7766C44.051 34.6029 44.5088 34.4637 44.9559 34.2956C44.9049 34.5369 44.8595 34.7783 44.8168 35.0198C44.1424 35.2967 43.4748 35.5875 42.8018 35.863Z" fill="black"/>
<path d="M132.186 39.5086C125.081 37.8284 117.081 37.7422 110.044 39.7687C107.071 40.6245 104.064 42.0284 101.943 44.3357C101.252 44.2661 100.563 44.2377 99.8957 44.2425C96.7832 44.2624 93.6425 44.9555 90.7598 46.1065C89.1675 46.7428 87.6785 47.6387 86.1549 48.4174C84.16 49.4369 82.1285 50.3968 80.03 51.1896C76.0766 52.6831 71.3807 53.7821 67.3534 51.9345C66.5745 51.578 65.8094 51.1006 65.1322 50.5266C68.6676 49.1851 71.7854 46.3748 72.3252 42.5087C72.8171 38.9871 69.648 35.9561 66.1404 36.2986C63.4152 36.5648 62.0545 39.2766 61.6002 41.6743C61.1019 44.3037 61.3596 47.4833 62.9469 49.7253C63.0392 49.8556 63.1356 49.9817 63.2335 50.1066C63.0067 50.1672 62.78 50.2238 62.5548 50.2735C58.9623 51.0618 54.8338 50.3609 51.6367 48.5901C48.3644 46.7772 46.1559 43.6375 45.0778 40.1118C44.9688 39.7573 44.4105 39.8885 44.5125 40.2498C45.6233 44.1717 48.0349 47.5103 51.6263 49.5151C55.2505 51.5381 59.8899 52.0386 63.8788 50.9386C63.905 50.932 63.9313 50.9227 63.9576 50.9161C66.3594 53.2896 69.94 54.1727 73.2657 53.9463C77.5846 53.6527 81.7123 51.8533 85.5461 49.9652C88.5982 48.4615 91.4067 46.8011 94.7457 46.003C96.7843 45.5147 98.9708 45.2232 101.104 45.3586C99.2756 47.9002 98.54 51.283 99.7774 54.24C101.232 57.7176 105.819 57.9137 108.537 55.8302C111.295 53.7156 110.144 49.1775 108.11 46.9799C106.829 45.5964 105.056 44.8657 103.205 44.5163C103.288 44.4361 103.372 44.3574 103.457 44.28C105.823 42.1389 109 41.0229 112.062 40.322C118.433 38.8626 125.517 39.0209 131.867 40.5332C132.543 40.692 132.859 39.6674 132.186 39.5086ZM63.3377 48.3194C62.6864 47.0433 62.4593 45.5493 62.4284 44.1331C62.3771 41.7201 63.0685 38.0976 65.8126 37.3753C67.1329 37.0287 68.6285 37.6257 69.705 38.354C71.2398 39.3913 71.5721 41.3346 71.218 43.0309C70.5172 46.3866 67.4925 48.6426 64.3428 49.7603C63.9453 49.3201 63.602 48.8378 63.3377 48.3194ZM104.362 45.9452C107.422 46.9227 109.858 50.2231 108.87 53.5219C108.247 55.6015 105.541 56.2844 103.638 56.065C101.773 55.8488 100.704 54.2216 100.338 52.5322C99.7909 49.9899 100.72 47.445 102.32 45.4809C103.012 45.5836 103.696 45.7329 104.362 45.9452Z" fill="white"/>
<path d="M32.9388 36.1367C31.2645 36.7061 29.575 37.1654 27.9395 37.8494C26.0907 38.623 24.3259 39.6505 22.5309 40.5403C22.5115 40.5497 22.4948 40.5605 22.4795 40.5727C21.9215 39.578 21.6449 38.4354 21.2006 37.3857C20.6542 36.0915 20.0095 34.8389 19.4271 33.5622C18.2232 30.9259 17.2509 28.1712 15.9181 25.5953C15.8898 25.54 15.7957 25.5747 15.8143 25.6354C16.6554 28.2937 17.7702 30.8878 18.8923 33.4393C19.4621 34.7337 20.0651 36.0134 20.646 37.3024C21.1745 38.4782 21.4644 39.7804 22.1286 40.8904C22.2098 41.0274 22.3641 41.0264 22.4655 40.9574C22.5418 41.0407 22.6639 41.0861 22.7969 41.0271C24.4233 40.2991 25.9486 39.3719 27.5358 38.5665C29.277 37.683 31.1326 36.9191 32.9638 36.2414C33.0274 36.2174 33.0038 36.114 32.9388 36.1367Z" fill="black"/>
<path d="M31.7429 37.3947C30.0047 37.7668 28.4552 38.7638 26.8469 39.4824C25.1333 40.2479 23.4367 41.0865 21.792 41.9766C21.7684 41.9901 21.7489 42.005 21.7308 42.0213C21.2909 41.3098 21.1236 40.4969 20.9122 39.6917C20.673 38.7804 20.2314 37.9713 19.8122 37.1336C18.7891 35.0917 17.8914 33.0472 17.0955 30.9062C17.0727 30.8469 16.9912 30.8666 17.0001 30.9299C17.2887 33.0817 18.2731 35.1354 19.2272 37.0624C19.7204 38.059 20.2129 39.0048 20.5039 40.083C20.7329 40.9254 20.9608 41.7349 21.482 42.4473C21.558 42.5527 21.6892 42.5335 21.7782 42.463C21.8548 42.5189 21.9579 42.5365 22.0675 42.4787C23.6082 41.6479 25.1913 40.8466 26.7847 40.1085C28.4418 39.3409 30.0589 38.2183 31.8352 37.7655C32.0716 37.7035 31.9833 37.3424 31.7429 37.3947Z" fill="black"/>
<path d="M43.901 28.8583C43.9771 28.8317 44.0246 28.7786 44.0487 28.7184C44.094 28.7382 44.1378 28.7593 44.1831 28.7777C44.4548 28.8893 44.5893 28.451 44.3176 28.3421C41.8792 27.373 40.0861 25.2881 37.7697 24.1375C37.6491 24.0771 37.5467 24.2367 37.6588 24.315C39.613 25.6883 41.3866 27.4238 43.5523 28.4888C42.6301 28.8687 41.7723 29.3952 40.8783 29.8359C39.5782 30.4769 38.2391 31.0378 36.9349 31.6691C36.8296 31.7202 36.8978 31.9051 37.0099 31.8624C38.1519 31.4299 39.2913 30.9864 40.4105 30.4973C41.5837 29.9841 42.6943 29.2846 43.901 28.8583Z" fill="black"/>
<path d="M12.0395 8.43916C9.62982 7.00576 7.59199 4.98823 5.2581 3.43335C4.99407 3.25717 4.73436 3.67486 4.99703 3.84965C7.34199 5.40054 9.43217 7.29906 11.9118 8.64253C12.0474 8.71691 12.1737 8.51902 12.0395 8.43916Z" fill="black"/>
<path d="M3.26497 3.60188C2.59048 2.42312 1.8358 1.26682 1.25558 0.039638C1.21923 -0.0363747 1.09875 0.0131256 1.11853 0.093075C1.42065 1.291 2.17016 2.417 2.75759 3.49306C3.44362 4.74756 4.29481 5.9022 4.91011 7.19576C5.02184 7.43207 5.36448 7.238 5.26376 7.00318C4.74401 5.7918 3.91783 4.74191 3.26497 3.60188Z" fill="black"/>
<path d="M2.9064 4.24814C2.32084 3.37279 1.47234 2.46836 1.17098 1.44776C1.13513 1.32639 0.967831 1.37261 0.984382 1.49377C1.09722 2.36515 1.71845 3.13369 2.17889 3.85917C2.82351 4.87539 3.489 5.87398 4.10031 6.91045C4.24503 7.15539 4.6375 6.94263 4.48863 6.69902C3.98254 5.86581 3.44722 5.057 2.9064 4.24814Z" fill="black"/>
<path d="M51.391 20.3764C50.7263 21.1387 50.0425 22.0079 49.5255 22.8722C49.4187 23.0497 49.6925 23.2205 49.7992 23.0416C50.4201 22.0081 51.2504 20.9865 52.0448 20.0841C52.736 19.2988 53.5941 18.6157 54.1254 17.7076C54.1844 17.6079 54.0379 17.5183 53.9734 17.6138C53.2727 18.6382 52.2092 19.4385 51.391 20.3764Z" fill="black"/>
<path d="M48.8874 22.5338C48.778 22.7058 49.0435 22.8696 49.1557 22.7004C50.2481 21.0412 51.698 19.5923 53.0622 18.1575C53.1403 18.0759 53.0245 17.9509 52.9409 18.0296C51.4947 19.4085 49.9624 20.8332 48.8874 22.5338Z" fill="black"/>
<path d="M48.3075 22.3622C48.1787 22.5367 48.4662 22.7145 48.5936 22.54C49.5805 21.1903 50.6021 19.5853 51.9438 18.5558C51.9799 18.5287 51.9433 18.4733 51.9032 18.4825C51.2744 18.6334 50.6527 19.4993 50.2313 19.9537C49.5266 20.7155 48.9234 21.5307 48.3075 22.3622Z" fill="black"/>
<path d="M47.5912 21.9337C47.5038 22.1073 47.7528 22.2696 47.8512 22.0961C48.1564 21.5566 48.6579 21.088 49.0684 20.6239C49.5794 20.0455 50.1436 19.5103 50.7051 18.9805C50.8012 18.8909 50.665 18.7491 50.5662 18.8332C49.9761 19.3352 49.4092 19.8553 48.8722 20.4155C48.4343 20.8711 47.8788 21.3652 47.5912 21.9337Z" fill="black"/>
<path d="M47.3803 21.9751C47.8848 20.9911 48.8744 20.2669 49.3393 19.2522C49.3464 19.2357 49.3355 19.2205 49.3176 19.223C49.0608 19.26 48.6788 19.8866 48.5322 20.0582C48.0656 20.6041 47.439 21.1661 47.1325 21.8225C47.0576 21.988 47.2943 22.1432 47.3803 21.9751Z" fill="black"/>
<path d="M46.7736 21.6752C46.9997 21.429 47.1506 21.1269 47.3534 20.8612C47.6248 20.5068 47.8716 20.1344 48.1512 19.787C48.2225 19.6984 48.0722 19.5772 47.9982 19.6615C47.4927 20.24 47.0692 20.8827 46.5829 21.4738C46.4725 21.6086 46.6508 21.8099 46.7736 21.6752Z" fill="black"/>
<path d="M54.2206 20.322C53.5556 20.9894 52.9559 21.7359 52.31 22.4255C51.6933 23.0839 51.0222 23.8076 50.5914 24.6C50.5717 24.6355 50.57 24.6685 50.5752 24.7002C50.3067 25.5246 50.0534 26.352 49.8015 27.1822C49.5968 27.8534 49.3207 28.5005 49.2508 29.2035C49.2445 29.2653 49.3464 29.2815 49.3581 29.2212C49.6588 27.7332 50.3584 26.2001 50.8995 24.7808C50.9123 24.7466 50.9113 24.7177 50.9033 24.6901C51.7992 23.1057 53.3135 21.9241 54.3026 20.3903C54.3362 20.337 54.2638 20.2785 54.2206 20.322Z" fill="black"/>
</g>
<defs>
<clipPath id="clip0_1837_30793">
<rect width="132" height="56" fill="white" transform="translate(1) rotate(0.646543)"/>
</clipPath>
</defs>
</svg>
