<svg width="120" height="223" viewBox="0 0 120 223" fill="none" xmlns="http://www.w3.org/2000/svg">
<g clip-path="url(#clip0_2192_35212)">
<path d="M52.3017 98.4009C46.2681 109.31 39.3179 112.043 41.9342 117.032C45.2407 123.328 52.4485 122.292 55.809 117.661C59.1721 113.032 63.2099 102.329 63.2099 102.329C63.2099 102.329 67.9533 84.7769 66.931 82.0413L57.967 77.1317C55.93 79.2568 53.2107 96.76 52.3017 98.4009Z" fill="white" stroke="#101210" stroke-width="1.4" stroke-miterlimit="10" stroke-linecap="round" stroke-linejoin="round"/>
<path d="M66.9354 82.0387L68.4547 77.9456L59.501 73.0205L57.9688 77.1316L66.9354 82.0387Z" fill="white" stroke="#101210" stroke-width="1.4" stroke-miterlimit="10" stroke-linecap="round" stroke-linejoin="round"/>
<path d="M68.557 67.9617C67.1226 67.5289 62.9947 68.2502 62.9947 68.2502C62.9947 68.2502 62.7243 65.0715 61.0041 65.2209C58.635 65.427 60.9861 71.4572 60.9552 73.9816L67.6016 77.6393C67.6016 77.6393 68.3046 76.354 70.3982 72.9151C71.2712 71.4829 71.8145 70.0868 71.9355 68.7473C70.7664 68.5799 69.6128 68.2837 68.557 67.9617Z" fill="white" stroke="#101210" stroke-width="1.4" stroke-miterlimit="10" stroke-linecap="round" stroke-linejoin="round"/>
<path d="M17.8404 113.229C17.8404 113.229 3.08746 115.406 3.4763 132.263C3.86515 149.122 1.872 157.226 20.0035 159.405C30.8602 160.708 41.1736 138.486 37.0818 124.785C34.3392 115.604 17.8404 113.229 17.8404 113.229Z" fill="white" stroke="#101210" stroke-width="1.4" stroke-miterlimit="10" stroke-linecap="round" stroke-linejoin="round"/>
<path d="M55.8714 160.693C57.5246 147.533 60.9573 115.448 52.7426 111.852C48.0456 109.793 24.769 109.853 24.769 109.853C24.769 109.853 23.2239 111.004 19.7758 112.985C10.2787 118.436 16.2272 146.631 18.4573 162.03C20.5998 179.459 20.4118 201.29 20.4118 201.29L30.272 202.518C30.272 202.518 29.9501 197.797 32.5716 190.205C35.3862 182.053 37.0292 171.293 37.4231 166.515C38.7184 171.723 42.6661 191.365 42.6661 191.365L51.1692 206.336C51.1692 206.341 54.2182 173.856 55.8714 160.693Z" fill="white" stroke="#101210" stroke-width="1.4" stroke-miterlimit="10" stroke-linecap="round" stroke-linejoin="round"/>
<path d="M51.4488 206.596L54.4926 191.367C54.4926 191.367 53.3569 192.758 48.3741 192.758C45.3251 192.756 41.4238 191.378 41.4238 191.378C41.4238 191.378 41.9826 194.507 40.6873 198.394C39.392 202.281 36.2812 206.073 36.2812 206.073L53.9286 220.946C59.3493 218.051 60.1501 211.068 51.4488 206.596Z" fill="white" stroke="#101210" stroke-width="1.4" stroke-miterlimit="10" stroke-linecap="round" stroke-linejoin="round"/>
<path d="M52.9622 222.147C52.5605 221.809 52.254 222.173 51.8523 221.833C51.4506 221.495 51.757 221.132 51.3527 220.792C50.951 220.455 50.6446 220.815 50.2454 220.478C49.8437 220.14 50.1501 219.774 49.7458 219.437C49.3441 219.1 49.0403 219.46 48.6385 219.123C48.2368 218.783 48.5407 218.422 48.1415 218.085C47.7398 217.747 47.4334 218.108 47.0317 217.77C46.6299 217.433 46.9338 217.07 46.5321 216.732C46.1329 216.395 45.8265 216.758 45.4248 216.418C45.0231 216.081 45.3295 215.717 44.9252 215.38C44.5235 215.043 44.2196 215.401 43.8179 215.066C43.4162 214.728 43.7226 214.365 43.3209 214.028C42.9192 213.69 42.6127 214.051 42.211 213.713C41.8093 213.373 42.1132 213.013 41.714 212.673C41.3123 212.333 41.0059 212.698 40.6067 212.358C40.205 212.021 40.5089 211.658 40.1071 211.318C39.7054 210.98 39.4015 211.341 38.9998 211.006C38.5981 210.666 38.9045 210.305 38.5028 209.965C38.1011 209.628 37.7947 209.989 37.3955 209.651C36.9938 209.314 37.2977 208.951 36.8959 208.611C36.4942 208.273 36.1878 208.636 35.7886 208.296C35.3869 207.959 35.6908 207.596 35.2891 207.256L36.2805 206.078L53.9485 220.972L52.9622 222.147Z" fill="white" stroke="#101210" stroke-width="1.4" stroke-miterlimit="10" stroke-linecap="round" stroke-linejoin="round"/>
<path d="M30.0712 206.596L33.1176 191.367C33.1176 191.367 31.982 192.758 26.9991 192.758C23.9501 192.756 20.0488 191.377 20.0488 191.377C20.0488 191.377 20.6076 194.507 19.3123 198.394C18.017 202.281 14.9062 206.073 14.9062 206.073L32.5536 220.946C37.9717 218.051 38.7726 211.068 30.0712 206.596Z" fill="white" stroke="#101210" stroke-width="1.4" stroke-miterlimit="10" stroke-linecap="round" stroke-linejoin="round"/>
<path d="M31.5873 222.147C31.1855 221.809 30.8791 222.173 30.4774 221.833C30.0757 221.495 30.3821 221.132 29.9778 220.792C29.5761 220.454 29.2696 220.815 28.8679 220.478C28.4662 220.14 28.7726 219.774 28.3709 219.437C27.9692 219.099 27.6628 219.46 27.2636 219.123C26.8619 218.783 27.1658 218.422 26.7666 218.085C26.3649 217.747 26.0585 218.108 25.6567 217.77C25.255 217.433 25.5589 217.07 25.1597 216.732C24.758 216.395 24.4516 216.758 24.0499 216.418C23.6507 216.081 23.9546 215.717 23.5529 215.38C23.1511 215.042 22.8447 215.4 22.4456 215.066C22.0438 214.728 22.3503 214.365 21.9486 214.028C21.5468 213.69 21.2404 214.051 20.8412 213.713C20.4395 213.373 20.7434 213.013 20.3417 212.673C19.94 212.333 19.6335 212.698 19.2344 212.358C18.8326 212.021 19.1365 211.658 18.7374 211.318C18.3356 210.98 18.0292 211.341 17.6301 211.006C17.2283 210.666 17.5348 210.305 17.1331 209.965C16.7313 209.628 16.4275 209.989 16.0258 209.651C15.624 209.314 15.9305 208.95 15.5288 208.61C15.127 208.273 14.8206 208.636 14.4214 208.296C14.0197 207.959 14.3236 207.595 13.9219 207.255L14.9133 206.078L32.5838 220.972L31.5873 222.147Z" fill="white" stroke="#101210" stroke-width="1.4" stroke-miterlimit="10" stroke-linecap="round" stroke-linejoin="round"/>
<path d="M18.7448 138.621C21.4461 126.45 23.416 117.815 23.416 117.815C18.4641 112.713 11.8434 115.75 9.93009 121.141C8.01677 126.535 6.01847 136.434 6.0159 137.727C6.00045 144.025 6.64165 153.827 8.94382 155.619L19.1516 155.102C19.7697 152.224 18.3379 140.452 18.7448 138.621Z" fill="white" stroke="#101210" stroke-width="1.4" stroke-miterlimit="10" stroke-linecap="round" stroke-linejoin="round"/>
<path d="M8.9375 155.617L9.78729 159.904L19.9925 159.407L19.1453 155.1L8.9375 155.617Z" fill="white" stroke="#101210" stroke-width="1.4" stroke-miterlimit="10" stroke-linecap="round" stroke-linejoin="round"/>
<path d="M10.6797 159.718C10.6797 159.718 10.7544 161.181 10.7724 165.207C10.7904 169.236 12.2788 172.098 16.3295 172.863C20.3776 173.63 22.0025 172.229 21.0961 168.51C20.7613 167.134 19.5201 165.303 19.5201 165.303C19.5201 165.303 21.4154 167.866 22.8034 166.838C24.7116 165.421 19.551 161.516 18.2557 159.35L10.6797 159.718Z" fill="white" stroke="#101210" stroke-width="1.4" stroke-miterlimit="10" stroke-linecap="round" stroke-linejoin="round"/>
<path d="M16.7344 165.586C16.7344 165.586 18.5601 170.472 20.4117 172.5" stroke="#101210" stroke-width="1.4" stroke-miterlimit="10" stroke-linecap="round" stroke-linejoin="round"/>
<path d="M17.8374 173.058C17.8374 173.058 15.6614 171.379 14.7344 165.938" stroke="#101210" stroke-width="1.4" stroke-miterlimit="10" stroke-linecap="round" stroke-linejoin="round"/>
<path d="M14.9093 172.474C14.9093 172.474 12.8028 169.573 12.9187 165.825" stroke="#101210" stroke-width="1.4" stroke-miterlimit="10" stroke-linecap="round" stroke-linejoin="round"/>
<path d="M6.33594 102.829C6.33594 102.829 9.37202 109.776 12.7068 112.063C16.0416 114.353 9.88447 115.657 10.5283 117.473C11.4785 120.154 23.2211 123.552 31.634 121.545C48.5089 117.514 53.8265 111.921 53.8265 111.921C53.8265 105.26 47.7646 104.639 47.7646 104.639C47.7646 104.639 47.999 101.6 46.5415 100.258L6.33594 102.829Z" fill="white" stroke="#101210" stroke-width="1.4" stroke-miterlimit="10" stroke-linecap="round" stroke-linejoin="round"/>
<path d="M44.2868 73.595C52.2363 84.1485 50.1272 99.1531 39.5743 107.105C29.024 115.054 14.0213 112.944 6.07447 102.388C-1.87496 91.835 0.234071 76.8303 10.787 68.8785C21.3398 60.9293 36.3374 63.039 44.2868 73.595Z" fill="white" stroke="#101210" stroke-width="1.4" stroke-miterlimit="10" stroke-linecap="round" stroke-linejoin="round"/>
<path d="M16.0001 76.7631C11.1897 91.8347 19.8627 101.523 19.8627 101.523C19.8627 101.523 42.4801 108.429 48.9051 84.8875C48.9051 84.8875 48.4879 75.895 41.4784 69.6485C34.4663 63.3993 25.6439 63.5796 25.6439 63.5796C25.6439 63.5796 19.134 66.9463 16.0001 76.7631Z" fill="#101210"/>
<path d="M48.8946 91.0976C40.4997 112.192 17.1922 103.531 17.1922 103.531C17.1922 103.531 3.47965 81.2757 20.3905 64.54" stroke="#101210" stroke-width="1.4" stroke-miterlimit="10" stroke-linecap="round" stroke-linejoin="round"/>
<path d="M17.7271 87.0436C17.5365 91.4329 20.6679 97.3189 22.6971 97.0536C24.7263 96.7908 20.7966 90.3923 21.6284 86.6778C22.5091 82.7754 17.9202 82.6156 17.7271 87.0436Z" fill="white"/>
<path d="M17.3416 79.5787C16.8421 80.4751 17.1768 81.642 18.073 82.1366L18.2481 82.2344C19.1442 82.7316 20.3108 82.4019 20.8078 81.5029C21.3073 80.6065 20.9752 79.4396 20.0764 78.9424L19.9013 78.8471C19.0052 78.3474 17.8386 78.6797 17.3416 79.5787Z" fill="white"/>
<path d="M44.7186 84.4934C44.1959 84.2358 43.5676 84.4444 43.3976 85.0343C42.9367 86.6468 40.0422 91.5101 42.5478 92.6203C44.4637 93.4678 45.5272 91.5694 45.8672 89.4932C46.5933 87.5999 46.583 85.4052 44.7186 84.4934Z" fill="white"/>
<path d="M13.5435 105.302C10.7006 105.851 6.07564 104.609 2.8181 101.353C0.467009 99.0064 0.152844 95.5186 2.26188 94.8721C2.26188 94.8721 4.97091 103.221 13.6027 101.636L13.5435 105.302Z" fill="white" stroke="#101210" stroke-width="1.4" stroke-miterlimit="10" stroke-linecap="round" stroke-linejoin="round"/>
<path d="M20.0926 100.688C21.6635 102.291 21.6351 104.861 20.036 106.43C18.4343 108.001 15.8643 107.976 14.2934 106.373C12.7226 104.774 12.7509 102.2 14.3501 100.632C15.9544 99.0629 18.5244 99.0861 20.0926 100.688Z" fill="white" stroke="#101210" stroke-width="1.4" stroke-miterlimit="10" stroke-linecap="round" stroke-linejoin="round"/>
<path d="M18.429 102.322C19.0985 103.002 19.0856 104.096 18.4058 104.766C17.7234 105.433 16.6289 105.426 15.962 104.743C15.295 104.06 15.3053 102.966 15.9877 102.298C16.6676 101.631 17.7594 101.642 18.429 102.322Z" fill="white" stroke="#101210" stroke-width="1.4" stroke-miterlimit="10" stroke-linecap="round" stroke-linejoin="round"/>
<path d="M13.2578 112.556C13.2578 112.556 22.8656 119.724 34.6649 116.046" stroke="#101210" stroke-width="1.4" stroke-miterlimit="10" stroke-linecap="round" stroke-linejoin="round"/>
<path d="M47.7672 104.64C47.7672 104.64 44.8882 110.301 41.2109 112.697" stroke="#101210" stroke-width="1.4" stroke-miterlimit="10" stroke-linecap="round" stroke-linejoin="round"/>
<path d="M54.7269 127.182C54.7269 127.182 53.3621 125.531 50.4599 125.981C47.5551 126.429 32.4752 128.761 32.4752 128.761C31.2571 128.761 30.2734 129.747 30.2734 130.963V151.019C30.2734 152.237 31.2597 153.221 32.4752 153.221L52.5252 150.123C53.1277 150.123 55.0617 147.928 55.0617 147.928L54.7269 127.182Z" fill="white" stroke="#101210" stroke-width="1.4" stroke-miterlimit="10" stroke-linecap="round" stroke-linejoin="round"/>
<path d="M55.5753 146.614C55.5753 147.696 54.6997 148.575 53.6182 148.575L35.8008 151.326C34.7193 151.326 33.8438 150.447 33.8438 149.368V131.545C33.8438 130.463 34.7193 129.588 35.8008 129.588L53.6182 126.834C54.6997 126.834 55.5753 127.712 55.5753 128.794V146.614Z" fill="white" stroke="#101210" stroke-width="1.4" stroke-miterlimit="10" stroke-linecap="round" stroke-linejoin="round"/>
<path d="M31.4219 152.4L34.3292 150.661" stroke="#101210" stroke-width="1.4" stroke-miterlimit="10" stroke-linecap="round" stroke-linejoin="round"/>
<path d="M30.8828 129.445L34.0734 130.615" stroke="#101210" stroke-width="1.4" stroke-miterlimit="10" stroke-linecap="round" stroke-linejoin="round"/>
<path d="M73.8823 70.5893C72.0926 72.8998 69.538 73.2038 66.6359 71.5449C63.059 69.5048 62.4693 66.9675 65.8324 65.1387L63.2109 65.9629C65.938 61.5891 67.6273 62.027 72.4891 65.1052C75.1904 66.813 74.9896 69.1596 73.8823 70.5893Z" fill="white" stroke="#2D1C07" stroke-width="1.4" stroke-miterlimit="10" stroke-linecap="round" stroke-linejoin="round"/>
<path d="M69.1984 65.9629C69.1984 65.9629 68.3563 68.6805 63.9297 68.6186" stroke="#2D1C07" stroke-width="1.4" stroke-miterlimit="10" stroke-linecap="round" stroke-linejoin="round"/>
<path d="M65.3672 70.7159C65.3672 70.7159 69.0702 71.1692 71.1329 67.1895" stroke="#2D1C07" stroke-width="1.4" stroke-miterlimit="10" stroke-linecap="round" stroke-linejoin="round"/>
<path d="M67.9766 72.1707C67.9766 72.1707 72.4753 71.6323 73.1114 67.9668" stroke="#2D1C07" stroke-width="1.4" stroke-miterlimit="10" stroke-linecap="round" stroke-linejoin="round"/>
<g clip-path="url(#clip1_2192_35212)">
<path d="M53.0834 25.3891C51.1993 23.9362 49.2995 22.503 47.4214 21.0422C48.95 21.6562 50.4731 22.2816 51.9994 22.9014C52.0218 22.2505 52.0306 21.6 52.054 20.9484C53.9467 22.2265 55.8375 23.5053 57.7303 24.7826C56.2 24.2017 54.6945 23.5534 53.1726 22.9494C53.1437 23.7624 53.1182 24.5767 53.0834 25.3891Z" fill="#A79CEE"/>
<path d="M55.2048 16.2642C53.6854 13.3667 52.1463 10.4792 50.6251 7.58234C52.1803 9.23345 53.727 10.8922 55.2795 12.5447C55.6776 11.7474 56.0684 10.946 56.4633 10.1466C58.0985 12.8377 59.7336 15.5296 61.3587 18.2274C59.8037 16.5822 58.2637 14.925 56.7123 13.2786C56.2152 14.2763 55.7019 15.2665 55.2048 16.2642Z" fill="#A79CEE"/>
<path d="M61.4471 10.7931C60.5792 6.72178 59.6861 2.65556 58.8287 -1.41807C60.1485 1.2236 61.4538 3.87232 62.7727 6.51474C63.4192 5.66364 64.0896 4.82947 64.7529 3.99031C65.888 7.99952 67.0406 12.0037 68.1705 16.0141C66.7547 13.3609 65.3644 10.6932 63.9684 8.03003C63.1202 8.94315 62.2915 9.87531 61.4471 10.7931Z" fill="#A79CEE"/>
<path d="M72.1418 14.7336C71.7916 11.7736 71.4146 8.81774 71.0618 5.85838C71.6054 6.21863 72.1502 6.5756 72.6957 6.93434C73.3693 4.69777 74.0339 2.45856 74.7184 0.224804C74.4099 3.61339 74.087 7.00134 73.7735 10.3894C73.3249 10.0833 72.9215 9.71865 72.5149 9.36053C72.3883 11.151 72.293 12.9447 72.1418 14.7336Z" fill="#A79CEE"/>
<path d="M77.0469 16.1963C77.7906 13.6173 78.5675 11.0477 79.3344 8.47542C79.6539 8.967 79.9772 9.45555 80.2951 9.94696C81.6551 8.34882 83.0018 6.73908 84.3713 5.14873C82.9041 7.8333 81.4189 10.5092 79.9436 13.1895C79.6805 12.7788 79.4852 12.3315 79.2717 11.8943C78.5295 13.3283 77.7849 14.7611 77.0469 16.1963Z" fill="#A79CEE"/>
<path fill-rule="evenodd" clip-rule="evenodd" d="M69.5475 18.4974C67.8531 18.7568 66.6823 19.1187 65.5043 19.7468C62.179 21.5203 59.9124 24.6524 59.11 28.5829C58.9031 29.5966 58.9003 32.498 59.1051 33.5247C59.4495 35.2503 60.177 37.0329 61.0947 38.4003C61.968 39.7015 63.4908 41.1879 64.656 41.8766L65.051 42.11L64.9864 42.7382C64.9508 43.0837 64.9217 43.7244 64.9217 44.1621C64.9217 44.8707 64.9466 45.012 65.1493 45.453C65.2744 45.7253 65.5457 46.1352 65.752 46.3639L66.1272 46.7797L65.8686 47.0414C65.0284 47.8915 65.0446 49.3608 65.9027 50.1304C66.1988 50.396 66.2 50.3994 66.0633 50.6094C65.3184 51.7544 65.9928 53.4679 67.2687 53.6722C67.5888 53.7236 67.6156 53.748 67.6644 54.0331C67.9609 55.7664 69.396 56.0754 70.9037 56.1409C72.5231 56.2114 74.1796 55.7605 74.4761 54.0272C74.5249 53.742 74.5517 53.7177 74.8718 53.6663C76.1478 53.4619 76.8221 51.7485 76.0772 50.6035C75.9405 50.3934 75.9417 50.3901 76.2378 50.1245C77.0959 49.3548 77.1121 47.8856 76.272 47.0355L76.0134 46.7738L76.3885 46.358C76.5948 46.1293 76.8661 45.7194 76.9912 45.4471C77.1939 45.0061 77.2188 44.8648 77.2188 44.1562C77.2188 43.7185 77.1897 43.0778 77.1541 42.7323L77.0895 42.1041L77.4845 41.8706C78.6498 41.182 80.1725 39.6956 81.0458 38.3944C81.9636 37.027 82.691 35.2444 83.0354 33.5188C83.2403 32.4922 83.2375 29.5907 83.0305 28.577C82.2282 24.6465 79.9615 21.5144 76.6362 19.741C75.4582 19.1128 74.2874 18.7509 72.593 18.4915C70.9025 18.3662 69.8583 18.4432 69.5475 18.4974ZM68.493 53.9765C68.7852 55.065 69.8221 55.2909 70.9037 55.3484C72.101 55.4121 73.3553 55.0591 73.6476 53.9706L73.7189 53.7047L71.2975 53.7098L68.4216 53.7106L68.493 53.9765ZM66.6873 49.6272C66.9353 49.7603 68.2222 49.7679 71.5346 49.7697C74.847 49.7679 75.2053 49.7544 75.4532 49.6213C76.2313 49.2036 76.2907 48.0437 75.56 47.532C75.3611 47.3927 75.0552 47.379 71.6382 47.3561C68.2213 47.379 66.7794 47.3986 66.5805 47.5379C65.8498 48.0497 65.9092 49.2096 66.6873 49.6272ZM66.99 46.2748C67.3477 46.4631 67.3988 46.466 71.0764 46.5073C74.7539 46.466 74.7929 46.4572 75.1505 46.2689C75.665 45.9981 76.1314 45.4613 76.3275 44.9141C76.5029 44.4249 76.5007 44.324 76.2672 42.2564C76.2218 41.8537 76.2345 41.8066 76.4441 41.6014C76.5684 41.4798 77.0581 41.112 77.5324 40.7841C79.5471 39.3915 81.186 37.0919 81.9053 34.6487C82.3092 33.2769 82.3905 32.6625 82.3876 31.006C82.3851 29.6323 82.3613 29.3498 82.1782 28.5163C81.3985 24.9667 79.2459 22.0642 76.2277 20.4924C74.7284 19.7116 73.1887 19.3388 71.4562 19.3371C69.7237 19.3388 67.4121 19.7175 65.9128 20.4983C62.8946 22.0701 60.742 24.9726 59.9623 28.5222C59.7792 29.3557 59.7555 29.6382 59.753 31.0119C59.75 32.6684 59.8314 33.2828 60.2352 34.6546C60.9545 37.0978 62.5934 39.3973 64.6081 40.79C65.0824 41.1179 65.5721 41.4857 65.6964 41.6074C65.9061 41.8126 65.9188 41.8596 65.8733 42.2624C65.6399 44.3299 65.6376 44.4308 65.813 44.92C66.0092 45.4672 66.4755 46.004 66.99 46.2748ZM71.5722 52.8492L71.6371 52.8497C74.574 52.8275 74.8935 52.8116 75.0848 52.6775C75.582 52.3292 75.7403 51.6679 75.4403 51.1919C75.0686 50.602 75.0952 50.6059 71.4157 50.6058C67.7363 50.6059 67.0719 50.6079 66.7002 51.1978C66.4002 51.6738 66.5585 52.3351 67.0557 52.6834C67.2457 52.8165 68.6788 52.8273 71.5722 52.8492Z" fill="white"/>
<path d="M71.0764 46.5073C67.3988 46.466 67.3477 46.4631 66.99 46.2748C66.4755 46.004 66.0092 45.4672 65.813 44.92C65.6376 44.4308 65.6399 44.3299 65.8733 42.2624C65.9188 41.8596 65.9061 41.8126 65.6964 41.6074C65.5721 41.4857 65.0824 41.1179 64.6081 40.79C62.5934 39.3973 60.9545 37.0978 60.2352 34.6546C59.8314 33.2828 59.75 32.6684 59.753 31.0119C59.7555 29.6382 59.7792 29.3557 59.9623 28.5222C60.742 24.9726 62.8946 22.0701 65.9128 20.4983C67.4121 19.7175 69.7237 19.3388 71.4562 19.3371C73.1887 19.3388 74.7284 19.7116 76.2277 20.4924C79.2459 22.0642 81.3985 24.9667 82.1782 28.5163C82.3613 29.3498 82.3851 29.6323 82.3876 31.006C82.3905 32.6625 82.3092 33.2769 81.9053 34.6487C81.186 37.0919 79.5471 39.3915 77.5324 40.7841C77.0581 41.112 76.5684 41.4798 76.4441 41.6014C76.2345 41.8066 76.2218 41.8537 76.2672 42.2564C76.5007 44.324 76.5029 44.4249 76.3275 44.9141C76.1314 45.4613 75.665 45.9981 75.1505 46.2689C74.7929 46.4572 74.7539 46.466 71.0764 46.5073Z" fill="white"/>
<path d="M71.5346 49.7697C68.2222 49.7679 66.9353 49.7603 66.6873 49.6272C65.9092 49.2096 65.8498 48.0497 66.5805 47.5379C66.7794 47.3986 68.2213 47.379 71.6382 47.3561C75.0552 47.379 75.3611 47.3927 75.56 47.532C76.2907 48.0437 76.2313 49.2036 75.4532 49.6213C75.2053 49.7544 74.847 49.7679 71.5346 49.7697Z" fill="white"/>
<path d="M67.0557 52.6834C66.5585 52.3351 66.4002 51.6738 66.7002 51.1978C67.0719 50.6079 67.7363 50.6059 71.4157 50.6058C75.0952 50.6059 75.0686 50.602 75.4403 51.1919C75.7403 51.6679 75.582 52.3292 75.0848 52.6775C74.8935 52.8116 74.574 52.8275 71.6371 52.8497L71.5722 52.8492C68.6788 52.8273 67.2457 52.8165 67.0557 52.6834Z" fill="white"/>
<path d="M70.9037 55.3484C69.8221 55.2909 68.7852 55.065 68.493 53.9765L68.4216 53.7106L71.2975 53.7098L73.7189 53.7047L73.6476 53.9706C73.3553 55.0591 72.101 55.4121 70.9037 55.3484Z" fill="white"/>
<path fill-rule="evenodd" clip-rule="evenodd" d="M69.5475 18.4974C67.8531 18.7568 66.6823 19.1187 65.5043 19.7468C62.179 21.5203 59.9124 24.6524 59.11 28.5829C58.9031 29.5966 58.9003 32.498 59.1051 33.5247C59.4495 35.2503 60.177 37.0329 61.0947 38.4003C61.968 39.7015 63.4908 41.1879 64.656 41.8766L65.051 42.11L64.9864 42.7382C64.9508 43.0837 64.9217 43.7244 64.9217 44.1621C64.9217 44.8707 64.9466 45.012 65.1493 45.453C65.2744 45.7253 65.5457 46.1352 65.752 46.3639L66.1272 46.7797L65.8686 47.0414C65.0284 47.8915 65.0446 49.3608 65.9027 50.1304C66.1988 50.396 66.2 50.3994 66.0633 50.6094C65.3184 51.7544 65.9928 53.4679 67.2687 53.6722C67.5888 53.7236 67.6156 53.748 67.6644 54.0331C67.9609 55.7664 69.396 56.0754 70.9037 56.1409C72.5231 56.2114 74.1796 55.7605 74.4761 54.0272C74.5249 53.742 74.5517 53.7177 74.8718 53.6663C76.1478 53.4619 76.8221 51.7485 76.0772 50.6035C75.9405 50.3934 75.9417 50.3901 76.2378 50.1245C77.0959 49.3548 77.1121 47.8856 76.272 47.0355L76.0134 46.7738L76.3885 46.358C76.5948 46.1293 76.8661 45.7194 76.9912 45.4471C77.1939 45.0061 77.2188 44.8648 77.2188 44.1562C77.2188 43.7185 77.1897 43.0778 77.1541 42.7323L77.0895 42.1041L77.4845 41.8706C78.6498 41.182 80.1725 39.6956 81.0458 38.3944C81.9636 37.027 82.691 35.2444 83.0354 33.5188C83.2403 32.4922 83.2375 29.5907 83.0305 28.577C82.2282 24.6465 79.9615 21.5144 76.6362 19.741C75.4582 19.1128 74.2874 18.7509 72.593 18.4915C70.9025 18.3662 69.8583 18.4432 69.5475 18.4974ZM68.493 53.9765C68.7852 55.065 69.8221 55.2909 70.9037 55.3484C72.101 55.4121 73.3553 55.0591 73.6476 53.9706L73.7189 53.7047L71.2975 53.7098L68.4216 53.7106L68.493 53.9765ZM66.6873 49.6272C66.9353 49.7603 68.2222 49.7679 71.5346 49.7697C74.847 49.7679 75.2053 49.7544 75.4532 49.6213C76.2313 49.2036 76.2907 48.0437 75.56 47.532C75.3611 47.3927 75.0552 47.379 71.6382 47.3561C68.2213 47.379 66.7794 47.3986 66.5805 47.5379C65.8498 48.0497 65.9092 49.2096 66.6873 49.6272ZM66.99 46.2748C67.3477 46.4631 67.3988 46.466 71.0764 46.5073C74.7539 46.466 74.7929 46.4572 75.1505 46.2689C75.665 45.9981 76.1314 45.4613 76.3275 44.9141C76.5029 44.4249 76.5007 44.324 76.2672 42.2564C76.2218 41.8537 76.2345 41.8066 76.4441 41.6014C76.5684 41.4798 77.0581 41.112 77.5324 40.7841C79.5471 39.3915 81.186 37.0919 81.9053 34.6487C82.3092 33.2769 82.3905 32.6625 82.3876 31.006C82.3851 29.6323 82.3613 29.3498 82.1782 28.5163C81.3985 24.9667 79.2459 22.0642 76.2277 20.4924C74.7284 19.7116 73.1887 19.3388 71.4562 19.3371C69.7237 19.3388 67.4121 19.7175 65.9128 20.4983C62.8946 22.0701 60.742 24.9726 59.9623 28.5222C59.7792 29.3557 59.7555 29.6382 59.753 31.0119C59.75 32.6684 59.8314 33.2828 60.2352 34.6546C60.9545 37.0978 62.5934 39.3973 64.6081 40.79C65.0824 41.1179 65.5721 41.4857 65.6964 41.6074C65.9061 41.8126 65.9188 41.8596 65.8733 42.2624C65.6399 44.3299 65.6376 44.4308 65.813 44.92C66.0092 45.4672 66.4755 46.004 66.99 46.2748ZM71.5722 52.8492L71.6371 52.8497C74.574 52.8275 74.8935 52.8116 75.0848 52.6775C75.582 52.3292 75.7403 51.6679 75.4403 51.1919C75.0686 50.602 75.0952 50.6059 71.4157 50.6058C67.7363 50.6059 67.0719 50.6079 66.7002 51.1978C66.4002 51.6738 66.5585 52.3351 67.0557 52.6834C67.2457 52.8165 68.6788 52.8273 71.5722 52.8492Z" fill="black"/>
<path fill-rule="evenodd" clip-rule="evenodd" d="M75.1923 22.0141C75.1923 21.9153 75.2154 21.8098 75.2436 21.7797C75.3617 21.6535 75.5951 21.7486 76.1493 22.1486C78.2142 23.6388 79.5652 26.1111 79.8202 28.8661C79.9234 29.9811 79.8672 30.5562 79.6426 30.6846C79.3387 30.8584 79.2678 30.663 79.2678 29.6512C79.2678 27.7086 78.7156 25.9646 77.6184 24.4413C77.1715 23.8208 76.372 23.0317 75.7231 22.5708C75.3361 22.2959 75.1923 22.145 75.1923 22.0141ZM61.5315 29.5885C61.619 28.2489 62.153 26.5892 62.786 25.6886C62.907 25.5165 62.9583 25.4433 63.0191 25.4345C63.0641 25.4279 63.1142 25.4566 63.2017 25.5066C63.4126 25.6272 63.3926 25.7251 63.0114 26.4397C62.5728 27.262 62.2123 28.4567 62.0941 29.4806C61.996 30.3288 61.899 30.5171 61.6192 30.4025C61.496 30.3519 61.487 30.2687 61.5315 29.5885ZM61.7025 33.3059C61.4982 32.8195 61.4211 31.9943 61.5419 31.5876C61.5977 31.3998 61.8283 31.362 61.9473 31.5211C61.9895 31.5776 62.0402 31.901 62.0599 32.2399C62.0836 32.6474 62.1519 32.973 62.2617 33.2018C62.4652 33.626 62.4671 33.6902 62.2794 33.7975C62.0453 33.9313 61.9206 33.8251 61.7025 33.3059ZM79.2262 32.2502C79.2282 31.9961 79.2576 31.7419 79.2918 31.6854C79.3856 31.53 79.6366 31.5624 79.7264 31.7416C79.9071 32.1022 79.7281 33.2972 79.4488 33.5956C79.3024 33.7519 79.1226 33.7293 79.0115 33.5408C78.9517 33.4395 78.9686 33.3145 79.0768 33.0582C79.1623 32.856 79.2242 32.5205 79.2262 32.2502ZM72.6502 33.8101C72.7407 33.6206 72.9258 33.3933 73.0615 33.3049C74.1266 32.6111 74.7385 34.182 74.0076 35.7335C73.7228 36.3379 73.7251 36.3445 74.3402 36.675C74.5813 36.8046 74.8157 36.8573 75.1476 36.8564C75.7751 36.8548 75.8844 36.8951 75.8844 37.1283C75.8844 37.3767 75.8174 37.4175 75.3191 37.4725C74.8037 37.5293 74.1813 37.3433 73.7374 36.9998L73.4074 36.7444L72.8456 37.049C72.3711 37.3063 72.2073 37.3536 71.7908 37.3536C71.3019 37.3536 70.7048 37.1489 70.4276 36.8863C70.3254 36.7895 70.2495 36.8328 69.8663 37.2069L69.4231 37.6395L69.5738 38.3283C69.8269 39.4843 69.908 40.3463 69.9128 41.9333C69.9219 44.9401 69.7674 45.8197 69.3152 45.3366C69.2224 45.2374 69.2078 45.1278 69.2521 44.8642C69.2838 44.6755 69.3095 43.4859 69.309 42.2209C69.3084 40.3763 69.2818 39.7742 69.1745 39.1814C68.9771 38.0904 68.8919 37.8063 68.7761 37.8538C68.4933 37.9697 67.935 37.9954 67.5511 37.9103C66.9512 37.7772 66.4542 37.3939 66.1635 36.8402C65.9613 36.4549 65.9265 36.3037 65.9267 35.8133C65.9269 35.3585 65.9653 35.1668 66.11 34.8965C66.4761 34.2127 67.0167 33.9868 67.5676 34.287C67.9753 34.5092 68.3229 35.0095 68.8416 36.1205L69.2536 37.0026L69.5768 36.6955L69.9 36.3883L69.6817 35.9395C69.5019 35.5696 69.4636 35.3878 69.4636 34.9066C69.4636 34.4118 69.4948 34.2721 69.6682 33.9923C69.874 33.6601 70.2763 33.3899 70.565 33.3899C70.816 33.3899 71.1826 33.7771 71.2398 34.1024C71.2996 34.4433 71.1293 35.1698 70.8325 35.8403C70.6381 36.2791 70.6367 36.2939 70.7787 36.41C71.3493 36.8761 72.3193 36.8614 72.8182 36.379C72.9406 36.2607 72.9359 36.2258 72.7442 35.8311C72.4572 35.2403 72.4137 34.3054 72.6502 33.8101ZM73.5472 35.4026C73.7266 34.998 73.7999 34.1694 73.6846 33.8485C73.6132 33.6498 73.4578 33.6925 73.2383 33.9713C72.9825 34.296 72.9683 34.9036 73.2038 35.4436L73.365 35.8133L73.5472 35.4026ZM70.1825 35.6749C70.2774 35.832 70.5817 35.0327 70.6344 34.4878C70.6731 34.0877 70.6629 34.0471 70.5243 34.0471C70.0511 34.0471 69.8313 35.0941 70.1825 35.6749ZM68.6288 37.2086C68.6936 37.0283 68.0089 35.6033 67.6457 35.1625C67.2839 34.7234 67.0163 34.6706 66.7408 34.9839C66.1781 35.6238 66.5372 36.9083 67.3732 37.2456C67.7162 37.3842 68.5749 37.3588 68.6288 37.2086ZM72.8369 40.1261C73.0797 39.0343 73.527 37.6592 73.6988 37.4768C73.8741 37.2907 74.1567 37.5549 74.0938 37.846C74.0718 37.9479 73.9301 38.3907 73.7791 38.83C73.3042 40.2107 73.1627 41.1096 73.1616 42.7548C73.1611 43.5455 73.2014 44.4052 73.2511 44.6652C73.3541 45.2026 73.3233 45.3544 73.0957 45.4315C72.8488 45.5153 72.7582 45.2999 72.6525 44.3785C72.5109 43.143 72.5944 41.2171 72.8369 40.1261Z" fill="black"/>
</g>
</g>
<defs>
<clipPath id="clip0_2192_35212">
<rect width="120" height="223" fill="white"/>
</clipPath>
<clipPath id="clip1_2192_35212">
<rect width="58.6667" height="58.6842" fill="white" transform="translate(45.3359 -1.06738)"/>
</clipPath>
</defs>
</svg>
