<svg width="19" height="14" viewBox="0 0 19 14" fill="none" xmlns="http://www.w3.org/2000/svg">
<path d="M17.2411 7.25304L17.5081 6.99933L17.2411 6.74562C16.4158 5.96132 15.591 5.17527 14.766 4.389C13.4904 3.17325 12.2141 1.95697 10.9345 0.745806L10.6947 0.518803L10.4541 0.745046C10.2241 0.961391 9.99583 1.18011 9.76966 1.39815L9.50828 1.65013L9.76966 1.90211C10.6541 2.75475 11.5536 3.60966 12.4519 4.46347C13.0553 5.03694 13.6581 5.60992 14.2556 6.18138C10.8615 6.1837 9.25947 6.18336 7.41763 6.18296C5.85977 6.18263 4.13034 6.18226 0.99987 6.18343L0.650001 6.18356L0.650001 6.53343L0.650001 7.46524L0.650001 7.8151L0.99987 7.81524C3.92136 7.81633 5.62216 7.81608 7.10241 7.81586C9.08232 7.81557 10.6676 7.81534 14.2517 7.81845C13.4815 8.55693 12.7089 9.29121 11.9356 10.0261C11.214 10.7119 10.4918 11.3983 9.77049 12.0891L9.50981 12.3387L9.76737 12.5916C9.99462 12.8147 10.2233 13.0351 10.4548 13.2542L10.6958 13.4824L10.9364 13.2537C11.9881 12.2543 13.0387 11.2536 14.0891 10.2531C15.1395 9.25252 16.1898 8.2521 17.2411 7.25304Z" fill="#383737" stroke="#383737" stroke-width="0.7"/>
</svg>
