<svg width="30" height="37" viewBox="0 0 30 37" fill="none" xmlns="http://www.w3.org/2000/svg">
<path d="M14.8941 36.3547L15.0015 36.4649L15.109 36.3547C16.9078 34.5091 18.7097 32.6657 20.5117 30.8221C23.297 27.9727 26.0825 25.123 28.8576 22.2644L28.9587 22.1602L28.858 22.0557C28.3648 21.5445 27.8657 21.0365 27.3668 20.532L27.2601 20.4241L27.1535 20.532C25.1921 22.5157 23.2413 24.517 21.2912 26.5175C19.6041 28.2482 17.9176 29.9783 16.2251 31.6963C16.2185 23.0117 16.2193 19.2302 16.2203 14.839C16.2211 11.3579 16.2219 7.49369 16.2192 0.499946L16.2192 0.350002L16.0692 0.350002L13.9338 0.350002L13.7839 0.350002L13.7838 0.499946C13.7813 7.02709 13.7819 10.8273 13.7824 14.1349C13.7831 18.8388 13.7837 22.5464 13.775 31.6844C11.7031 29.5867 9.64562 27.4759 7.5877 25.3647C6.01598 23.7523 4.44402 22.1396 2.86524 20.5324L2.75955 20.4248L2.65253 20.531C2.14404 21.036 1.64167 21.5441 1.14237 22.0585L1.04075 22.1632L1.14258 22.2677C3.43213 24.6168 5.72473 26.9635 8.01726 29.3101L8.01847 29.3113C10.3114 31.6584 12.6043 34.0054 14.8941 36.3547Z" fill="#383737" stroke="#383737" stroke-width="0.3"/>
</svg>
