<svg width="140" height="140" viewBox="0 0 140 140" fill="none" xmlns="http://www.w3.org/2000/svg">
<path d="M45.0213 81.2837C44.3074 83.4549 43.0975 85.3847 41.6435 87.2392C40.7538 88.3741 39.7829 89.4684 38.7863 90.5717C38.6227 90.7529 38.4582 90.9345 38.2932 91.1165C37.4605 92.0358 36.6165 92.9675 35.8187 93.9161L35.5421 94.2449L35.5903 94.6719C36.2035 100.103 39.4503 105.166 42.3068 109.621C42.5921 110.065 42.8735 110.504 43.1479 110.937L43.7824 111.936L44.6618 111.144C55.7236 101.171 65.1101 87.9503 66.7125 72.5615C67.9911 60.8202 62.4302 48.1423 51.5732 42.5679C41.8763 37.009 28.6072 40.974 22.8287 50.2665C17.2355 58.9606 19.2836 71.3481 27.386 77.7687C32.4329 81.9593 39.0712 82.3025 45.0213 81.2837Z" fill="white" stroke="black" stroke-width="2"/>
<path d="M93.623 70.6768C93.0609 73.0462 91.7527 75.1103 90.1167 77.125C89.28 78.1554 88.3775 79.1495 87.4568 80.1638C87.2809 80.3577 87.1043 80.5522 86.9273 80.7479C85.8352 81.9558 84.7369 83.1997 83.7811 84.5136L83.3903 85.0507L83.734 85.6191C84.8301 87.4326 85.7663 89.329 86.7242 91.2694C87.0011 91.8305 87.2799 92.3953 87.5649 92.9628C88.8225 95.4668 90.186 97.9903 91.991 100.277L92.6419 101.102L93.4335 100.411C107.007 88.5622 119.162 70.0084 114.534 50.8598C113.315 44.3646 109.293 38.3176 103.918 34.3516C98.5378 30.3822 91.7182 28.441 84.9131 30.3272C78.4701 31.6337 73.3078 36.2478 70.5623 41.9319C67.8178 47.6137 67.436 54.4765 70.7037 60.3301C74.421 69.1024 84.764 73.2667 93.623 70.6768Z" fill="white" stroke="black" stroke-width="2"/>
</svg>
