<svg width="117" height="137" viewBox="0 0 117 137" fill="none" xmlns="http://www.w3.org/2000/svg">
<path fill-rule="evenodd" clip-rule="evenodd" d="M27.9382 32.0055C26.4921 32.3468 25.396 33.1571 24.2447 34.0235C22.6339 35.2352 18.3495 39.7228 18.3495 40.1985C18.3495 40.35 18.2589 40.4738 18.1482 40.4738C17.9665 40.4738 16.5074 43.2189 16.0065 44.5031C15.8223 44.9752 15.3518 46.6352 14.7172 49.0523C14.4928 49.9078 14.1086 52.2906 13.8165 54.6414C13.7454 55.2133 13.5414 58.2547 13.3628 61.4002L13.0382 67.1192L12.1702 68.354C10.9314 70.1157 9.34754 71.6593 8.11688 73.4795C7.47235 74.4328 6.87637 75.352 6.53364 76.4636C5.43324 80.0326 4.94802 83.6596 4.7 87.3957C3.88393 99.6833 3.79026 105.218 4.37779 106.378C4.52114 106.661 4.98952 107.659 5.41879 108.596C6.38463 110.704 8.45066 113.03 10.0586 113.819C12.2047 114.872 16.4644 114.908 21.5664 113.916C25.5845 113.136 27.0802 113.006 29.2376 113.252C32.0113 113.568 34.8528 114.009 35.3348 114.198C35.5471 114.282 36.2999 114.448 37.0076 114.568C37.7153 114.688 39.0471 114.976 39.9671 115.207C44.0071 116.224 44.3131 116.234 46.1372 115.406C47.1764 114.935 47.6638 114.486 48.1559 113.547C48.6788 112.549 49.2319 110.261 49.2319 109.097V108.076L50.969 108.938C54.0737 110.478 55.6783 110.927 58.9148 111.161C62.8275 111.443 68.3098 111.379 71.3784 108.33C72.801 106.916 74.2054 104.394 74.9769 101.867C75.2917 100.836 75.3761 100.757 75.9804 100.923C76.3432 101.022 78.5912 101.159 80.9758 101.226C85.259 101.347 88.0407 101.071 91.0517 100.229C93.6095 99.5138 95.5363 98.0183 96.363 96.1074C96.6419 95.4624 96.9711 94.7005 97.0941 94.4145C97.2174 94.1286 97.3919 93.5437 97.4822 93.1148C97.5725 92.6858 97.7743 91.7206 97.9308 90.9701L98.2149 89.6054H100.106C101.145 89.6054 102.197 89.4957 102.443 89.3618C102.689 89.2276 103.469 88.8476 104.177 88.5169C106.577 87.3956 109.155 83.7178 109.915 81.2868C110.538 79.2963 110.997 75.1508 111.001 71.4763C111.006 66.6703 110.353 57.6423 109.736 53.9915C109.496 52.5742 108.355 48.3624 107.939 47.3626C106.329 43.4923 103.328 37.4907 99.3642 35.3968C98.2203 34.7925 94.8876 34.6339 92.4672 35.069C90.7846 35.3714 90.2565 35.3618 88.3495 34.9934C86.3954 34.6162 83.4616 33.7758 82.0444 33.1875C81.7613 33.07 80.3986 32.7786 79.0161 32.5397C77.0507 32.2002 76.2367 32.1656 75.2845 32.3814C74.6146 32.5329 73.283 32.7333 72.3257 32.8267C71.3683 32.92 70.5219 33.0996 70.4447 33.2257C70.2656 33.5187 66.9151 33.5272 66.5903 33.2353C66.456 33.1147 65.5931 32.7523 64.673 32.4302C63.753 32.1082 62.7686 31.7479 62.4855 31.6298C60.1446 30.6537 54.8941 30.8344 51.0333 32.0239C47.9695 32.9681 47.5351 33.0253 45.842 32.7089C44.9464 32.5412 43.2291 32.2202 42.026 31.9951C36.6385 30.9876 32.924 30.8277 27.9382 32.0055ZM38.056 33.0497C41.5198 33.6146 41.7467 33.6559 43.8274 34.0973C47.6522 34.9089 48.406 34.8704 51.162 33.7235C52.4887 33.1716 55.0043 32.8051 57.4671 32.8051C60.4715 32.8051 61.9132 33.1022 64.673 34.2907C66.9105 35.2541 68.0047 35.3644 70.5922 34.8876C75.7971 33.9281 77.6454 33.8431 79.5995 34.4737C79.9534 34.5881 80.9377 34.8871 81.787 35.1382C82.6363 35.3896 83.5627 35.6896 83.8458 35.805C84.8294 36.2061 87.2009 36.8102 88.8207 37.0723C90.0588 37.2724 91.1088 37.242 93.1957 36.9449C96.1736 36.5209 97.5723 36.6259 98.7723 37.3642C101.606 39.1075 103.761 42.6872 105.107 45.6729C106.689 49.1842 107.578 52.5552 108.124 56.3311C108.919 61.8452 109.23 73.7769 108.671 77.3661C108.167 80.6041 104.334 90.3254 99.1378 87.5145C98.612 87.2304 98.5916 87.0905 98.7453 84.8357C99.1347 79.126 99.2077 72.9667 98.9275 69.4921C98.5976 65.4035 97.8775 60.22 97.5916 59.8782C97.169 59.3728 97.0321 64.3538 97.1901 74.4658C97.2964 81.2675 97.107 85.6439 97.107 85.6439C97.107 85.6439 97.0941 87.6556 96.8421 89.0854C96.3187 92.0544 96.2766 94.1279 94.1399 96.2341C92.9885 97.3691 92.1771 97.8018 90.537 98.2517C86.5941 99.3334 79.9539 99.6927 76.833 98.9931C74.9291 98.5666 75.068 99.4278 75.6296 91.5314C75.9425 87.1314 76.0022 83.5206 75.8918 75.6556C75.8316 71.3671 76.8972 66.3392 74.581 62.5698C74.0316 61.9246 73.1657 61.5226 73.1657 61.9518C73.1657 63.5546 74.1207 65.4722 74.195 67.249C74.4509 73.3665 74.0644 70.1493 74.0541 82.5866C74.0443 94.1543 73.9637 97.8574 73.6969 98.9638C72.2559 104.942 70.4174 107.472 66.6032 108.725C64.4898 109.419 58.1154 109.413 55.7944 108.714C52.266 107.652 50.6602 106.745 47.9999 104.309C46.9005 103.302 46.2863 102.364 46.4009 100.393C46.4551 99.461 46.8766 95.8469 47.1854 92.8548C47.8596 86.3239 46.8984 67.1741 46.8984 67.1741C46.8984 67.1741 47.0111 64.2674 48.8457 62.9598C50.1245 62.0486 51.0524 61.4628 50.688 61.0947C50.1684 60.57 47.1641 62.9522 46.7919 63.3447L46.0561 64.1204L45.1348 63.1333C44.1846 62.1153 42.5795 61.0103 42.0509 61.0103C41.8857 61.0103 42.1891 61.3903 42.7247 61.8551C44.0457 63.001 44.2945 63.3124 44.8543 64.5197C45.2838 65.4467 45.3523 66.4912 45.4838 74.138C45.5648 78.8562 45.6974 83.7109 45.7779 84.9262C45.8587 86.1415 45.8016 89.5339 45.651 92.4649C45.248 100.316 44.9562 101.406 44.6945 101.563C43.8274 102.083 42.6444 102.263 41.7686 102.503C39.4473 103.142 35.6907 103.633 32.0664 102.517C30.5066 102.037 29.5107 101.418 28.2576 100.788C25.015 99.1593 22.9876 97.2051 20.6348 94.7286C19.2209 93.2405 18.2833 91.3721 17.4812 89.5146C15.4011 84.6978 15.856 78.8814 15.2615 73.7187C14.9272 70.8142 14.9293 60.9861 15.2646 58.2942C15.4082 57.1429 15.6398 55.2068 15.7796 53.9915C16.1908 50.4142 16.7822 47.4242 17.3474 46.0628C17.466 45.7769 17.8016 44.9154 18.0929 44.1485C18.3842 43.3816 18.9628 42.2545 19.3789 41.6433C20.6464 39.7828 24.8132 35.7044 26.5611 34.6139C29.4972 32.782 33.2677 32.2688 38.056 33.0497ZM34.2439 52.8859C35.029 53.4476 37.0242 51.0832 38.2943 49.832C38.897 49.2382 44.5242 39.174 42.5018 39.174C40.8497 39.174 40.347 43.0277 38.5516 46.1927C36.3268 50.1146 33.7906 52.5616 34.2439 52.8859ZM89.6378 39.637C89.6741 43.261 91.1872 45.8895 89.7979 49.8972C89.3941 51.0618 89.2909 51.6519 89.4911 51.6519C89.864 51.6519 90.7525 49.8671 91.1804 48.5561C92.2764 45.198 89.6007 35.2906 89.6378 39.637ZM51.8466 41.2173C51.4217 42.6496 51.4641 46.9677 51.9135 48.0458C52.7025 49.938 54.8483 51.5294 56.352 51.3376L57.0811 51.2445L56.1804 50.8377C55.685 50.6139 54.9091 50.1153 54.4561 49.7295C53.0306 48.5152 52.7723 47.7076 52.6027 43.939C52.518 42.0559 52.3806 40.4467 52.2969 40.3628C52.2135 40.2791 52.0108 40.6635 51.8466 41.2173ZM66.9622 40.3438C66.9272 40.4868 66.8873 41.7736 66.8731 43.2033C66.8394 46.6173 66.4784 47.7645 64.9108 49.4389C64.2139 50.1834 63.6436 50.8663 63.6436 50.9565C63.6436 51.0469 63.9622 50.9786 64.3513 50.8047C65.4973 50.2931 67.2041 48.5386 67.5433 47.5238C67.9723 46.2404 67.8948 42.4112 67.4138 41.1237C67.2002 40.5518 66.9969 40.2008 66.9622 40.3438ZM75.1643 40.5226C75.0446 40.8814 75.7977 43.6048 76.5182 45.4743C77.4288 47.8366 77.8173 49.4515 79.5995 51.1709C80.0241 51.5809 80.3716 51.8016 80.3716 51.661C80.3716 50.1901 78.9574 48.4049 78.042 46.3228C77.0001 43.9529 76.4392 41.4054 75.3552 40.2627C75.3128 40.218 75.2268 40.335 75.1643 40.5226ZM96.6221 44.3237C98.5407 48.3866 100.65 51.3919 101.583 51.3919C102.14 51.3919 102.093 51.1587 101.404 50.512C99.5754 48.7931 98.3388 41.7736 95.7821 41.7736C95.156 41.7736 96.5136 44.0939 96.6221 44.3237ZM21.2329 45.0927C21.5561 48.4913 24.8446 51.8593 28.2576 52.2877L29.5443 52.4491L27.8131 51.5299C24.7203 49.8881 21.9524 46.5591 21.9524 44.4815C21.9524 44.0744 21.805 43.8532 21.5337 43.8532C21.1889 43.8532 21.1359 44.0723 21.2329 45.0927ZM13.2022 71.9934C13.2009 77.8783 13.2501 85.3037 15.776 90.8162C17.0552 93.608 18.7426 95.6792 20.6994 97.9809L20.0532 98.3196C19.698 98.5057 18.5901 98.8109 17.5916 98.9973C16.3658 99.2263 15.776 99.4548 15.776 99.7007C15.776 99.9994 16.1761 100.031 17.9995 99.878L20.2233 99.6909C19.9035 100.153 17.3439 103.587 18.6907 103.075C19.2501 102.863 19.8709 101.78 20.5771 100.908C21.309 100.003 22.0966 99.4921 23.5279 100.402C23.9701 100.683 24.6359 101.114 25.0077 101.36C26.991 102.668 29.6892 103.104 31.5229 104.513C31.9215 104.819 31.8945 104.92 31.1976 105.74C29.6689 107.536 29.0011 109.462 29.409 110.898C29.6354 111.696 29.63 111.702 28.6578 111.702C28.1191 111.702 27.3167 111.629 26.8743 111.539C26.1416 111.391 26.0701 111.288 26.0701 110.382C26.0701 108.557 28.3298 104.769 27.3568 105.188C25.8126 105.852 25.0052 108.903 25.0052 108.903C25.0052 108.903 24.7833 109.881 24.7833 110.523C24.7833 111.589 24.721 111.705 24.0756 111.839C23.6862 111.921 22.9625 112.09 22.4671 112.215C18.1943 113.294 13.239 113.571 11.3418 112.836C9.18386 111.999 6.65202 108.692 5.69853 105.463C5.13724 103.562 5.47206 91.7752 6.28555 84.7962C6.43559 83.5094 6.39655 82.435 6.69474 80.9577C7.32664 77.8271 9.85684 73.4257 9.85684 73.4257C9.85684 73.4257 11.8714 69.5888 12.9965 69.5888C13.1098 69.5888 13.2022 70.6707 13.2022 71.9934ZM103.921 84.2305C102.852 84.803 101.911 85.4329 100.767 85.8438C100.024 86.1105 99.4157 86.4225 99.4157 86.5374C99.4157 86.9764 102.022 86.7396 103.056 86.2064C104.27 85.581 105.592 84.2989 105.592 83.7475C105.592 82.9047 104.295 84.0305 103.921 84.2305ZM88.3665 96.2134C84.9645 97.0897 83.6896 97.2733 81.0904 97.2608C78.8565 97.2501 78.3874 97.3117 78.6126 97.5857C78.7654 97.7719 79.2235 97.9239 79.2235 97.9239C79.2235 97.9239 84.5137 99.0783 87.3201 98.2195C89.0686 97.6845 90.8234 97.4059 92.5276 95.9855C92.8531 95.7142 92.8531 95.5842 92.7206 95.5194C92.2971 95.312 88.7593 96.1122 88.3665 96.2134ZM26.5848 98.8944C26.5848 99.1239 27.3275 99.5505 28.901 100.225C32.4125 101.729 38.2261 101.708 41.8288 100.179C43.4373 99.4961 42.7234 99.354 38.1433 99.4436C34.1564 99.5219 31.4547 99.3545 27.5499 98.7873C27.0133 98.7093 26.5848 98.7568 26.5848 98.8944ZM46.0991 105.358C47.6149 107.014 47.7806 107.479 46.6444 106.885C45.0304 106.042 42.4468 105.79 40.6749 105.591C39.8611 105.5 39.1951 105.33 39.1951 105.214C39.1951 105.01 42.5882 102.987 44.4906 103.945C45.2358 104.32 45.3669 104.558 46.0991 105.358ZM53.8019 105.092C53.3613 105.537 58.1193 108.021 61.2435 108.061C63.0864 108.084 64.7549 107.611 65.87 107.12C66.1614 106.991 69.3577 105.429 68.9587 105.026C68.8694 104.936 68.2029 105.056 67.4771 105.292C63.34 106.643 58.6678 106.446 54.5012 105.083C54.2145 104.989 53.8997 104.993 53.8019 105.092ZM37.7796 106.245C42.6259 106.794 45.8942 107.473 46.3366 108.022C47.0418 108.897 46.3389 112.221 45.2251 113.278C44.6754 113.8 44.5406 113.817 43.2659 113.527C40.1771 112.825 38.7071 112.504 36.7502 112.103C35.6179 111.872 34.3357 111.57 33.9011 111.432C33.4664 111.294 32.7929 111.182 32.4043 111.182C30.1741 111.182 30.1713 109.435 32.3971 106.638C33.1373 105.708 33.1661 105.697 34.5627 105.868C35.3412 105.963 36.7888 106.132 37.7796 106.245Z" fill="white"/>
<path fill-rule="evenodd" clip-rule="evenodd" d="M38.056 33.0497C41.5198 33.6146 41.7467 33.6559 43.8274 34.0973C47.6522 34.9089 48.406 34.8704 51.162 33.7235C52.4887 33.1716 55.0043 32.8051 57.4671 32.8051C60.4715 32.8051 61.9132 33.1022 64.673 34.2907C66.9105 35.2541 68.0047 35.3644 70.5922 34.8876C75.7971 33.9281 77.6454 33.8431 79.5995 34.4737C79.9534 34.5881 80.9377 34.8871 81.787 35.1382C82.6363 35.3896 83.5627 35.6896 83.8458 35.805C84.8294 36.2061 87.2009 36.8102 88.8207 37.0723C90.0588 37.2724 91.1088 37.242 93.1957 36.9449C96.1736 36.5209 97.5723 36.6259 98.7723 37.3642C101.606 39.1075 103.761 42.6872 105.107 45.6729C106.689 49.1842 107.578 52.5552 108.124 56.3311C108.919 61.8452 109.23 73.7769 108.671 77.3661C108.167 80.6041 104.334 90.3254 99.1378 87.5145C98.612 87.2304 98.5916 87.0905 98.7453 84.8357C99.1347 79.126 99.2077 72.9667 98.9275 69.4921C98.5976 65.4035 97.8775 60.22 97.5916 59.8782C97.169 59.3728 97.0321 64.3538 97.1901 74.4658C97.2964 81.2675 97.107 85.6439 97.107 85.6439C97.107 85.6439 97.0941 87.6556 96.8421 89.0854C96.3187 92.0544 96.2766 94.1279 94.1399 96.2341C92.9885 97.3691 92.1771 97.8018 90.537 98.2517C86.5941 99.3334 79.9539 99.6927 76.833 98.9931C74.9291 98.5666 75.068 99.4278 75.6296 91.5314C75.9425 87.1314 76.0022 83.5206 75.8918 75.6556C75.8316 71.3671 76.8972 66.3392 74.581 62.5698C74.0316 61.9246 73.1657 61.5226 73.1657 61.9518C73.1657 63.5546 74.1207 65.4722 74.195 67.249C74.4509 73.3665 74.0644 70.1493 74.0541 82.5866C74.0443 94.1543 73.9637 97.8574 73.6969 98.9638C72.2559 104.942 70.4174 107.472 66.6032 108.725C64.4898 109.419 58.1154 109.413 55.7944 108.714C52.266 107.652 50.6602 106.745 47.9999 104.309C46.9005 103.302 46.2863 102.364 46.4009 100.393C46.4551 99.461 46.8766 95.8469 47.1854 92.8548C47.8596 86.3239 46.8984 67.1741 46.8984 67.1741C46.8984 67.1741 47.0111 64.2674 48.8457 62.9598C50.1245 62.0486 51.0524 61.4628 50.688 61.0947C50.1684 60.57 47.1641 62.9522 46.7919 63.3447L46.0561 64.1204L45.1348 63.1333C44.1846 62.1153 42.5795 61.0103 42.0509 61.0103C41.8857 61.0103 42.1891 61.3903 42.7247 61.8551C44.0457 63.001 44.2945 63.3124 44.8543 64.5197C45.2838 65.4467 45.3523 66.4912 45.4838 74.138C45.5648 78.8562 45.6974 83.7109 45.7779 84.9262C45.8587 86.1415 45.8016 89.5339 45.651 92.4649C45.248 100.316 44.9562 101.406 44.6945 101.563C43.8274 102.083 42.6444 102.263 41.7686 102.503C39.4473 103.142 35.6907 103.633 32.0664 102.517C30.5066 102.037 29.5107 101.418 28.2576 100.788C25.015 99.1593 22.9876 97.2051 20.6348 94.7286C19.2209 93.2405 18.2833 91.3721 17.4812 89.5146C15.4011 84.6978 15.856 78.8814 15.2615 73.7187C14.9272 70.8142 14.9293 60.9861 15.2646 58.2942C15.4082 57.1429 15.6398 55.2068 15.7796 53.9915C16.1908 50.4142 16.7822 47.4242 17.3474 46.0628C17.466 45.7769 17.8016 44.9154 18.0929 44.1485C18.3842 43.3816 18.9628 42.2545 19.3789 41.6433C20.6464 39.7828 24.8132 35.7044 26.5611 34.6139C29.4972 32.782 33.2677 32.2688 38.056 33.0497ZM38.2943 49.832C37.0242 51.0832 35.029 53.4476 34.2439 52.8859C33.7906 52.5616 36.3268 50.1146 38.5516 46.1927C40.347 43.0277 40.8497 39.174 42.5018 39.174C44.5242 39.174 38.897 49.2382 38.2943 49.832ZM89.4911 51.6519C89.2909 51.6519 89.3941 51.0618 89.7979 49.8972C91.1872 45.8895 89.6741 43.261 89.6378 39.637C89.6007 35.2906 92.2764 45.198 91.1804 48.5561C90.7525 49.8671 89.864 51.6519 89.4911 51.6519ZM51.9135 48.0458C51.4641 46.9677 51.4217 42.6496 51.8466 41.2173C52.0108 40.6635 52.2135 40.2791 52.2969 40.3628C52.3806 40.4467 52.518 42.0559 52.6027 43.939C52.7723 47.7076 53.0306 48.5152 54.4561 49.7295C54.9091 50.1153 55.685 50.6139 56.1804 50.8377L57.0811 51.2445L56.352 51.3376C54.8483 51.5294 52.7025 49.938 51.9135 48.0458ZM66.8731 43.2033C66.8873 41.7736 66.9272 40.4868 66.9622 40.3438C66.9969 40.2008 67.2002 40.5518 67.4138 41.1237C67.8948 42.4112 67.9723 46.2404 67.5433 47.5238C67.2041 48.5386 65.4973 50.2931 64.3513 50.8047C63.9622 50.9786 63.6436 51.0469 63.6436 50.9565C63.6436 50.8663 64.2139 50.1834 64.9108 49.4389C66.4784 47.7645 66.8394 46.6173 66.8731 43.2033ZM76.5182 45.4743C75.7977 43.6048 75.0446 40.8814 75.1643 40.5226C75.2268 40.335 75.3128 40.218 75.3552 40.2627C76.4392 41.4054 77.0001 43.9529 78.042 46.3228C78.9574 48.4049 80.3716 50.1901 80.3716 51.661C80.3716 51.8016 80.0241 51.5809 79.5995 51.1709C77.8173 49.4515 77.4288 47.8366 76.5182 45.4743ZM101.583 51.3919C100.65 51.3919 98.5407 48.3866 96.6221 44.3237C96.5136 44.0939 95.156 41.7736 95.7821 41.7736C98.3388 41.7736 99.5754 48.7931 101.404 50.512C102.093 51.1587 102.14 51.3919 101.583 51.3919ZM28.2576 52.2877C24.8446 51.8593 21.5561 48.4913 21.2329 45.0927C21.1359 44.0723 21.1889 43.8532 21.5337 43.8532C21.805 43.8532 21.9524 44.0744 21.9524 44.4815C21.9524 46.5591 24.7203 49.8881 27.8131 51.5299L29.5443 52.4491L28.2576 52.2877ZM99.4157 86.5374C99.4157 86.4225 100.024 86.1105 100.767 85.8438C101.911 85.4329 102.852 84.803 103.921 84.2305C104.295 84.0305 105.592 82.9047 105.592 83.7475C105.592 84.2989 104.27 85.581 103.056 86.2064C102.022 86.7396 99.4157 86.9764 99.4157 86.5374ZM81.0904 97.2608C83.6896 97.2733 84.9645 97.0897 88.3665 96.2134C88.7593 96.1122 92.2971 95.312 92.7206 95.5194C92.8531 95.5842 92.8531 95.7142 92.5276 95.9855C90.8234 97.4059 89.0686 97.6845 87.3201 98.2195C84.5137 99.0783 79.2235 97.9239 79.2235 97.9239C79.2235 97.9239 78.7654 97.7719 78.6126 97.5857C78.3874 97.3117 78.8565 97.2501 81.0904 97.2608ZM28.901 100.225C27.3275 99.5505 26.5848 99.1239 26.5848 98.8944C26.5848 98.7568 27.0133 98.7093 27.5499 98.7873C31.4547 99.3545 34.1564 99.5219 38.1433 99.4436C42.7234 99.354 43.4373 99.4961 41.8288 100.179C38.2261 101.708 32.4125 101.729 28.901 100.225ZM65.87 107.12C64.7549 107.611 63.0864 108.084 61.2435 108.061C58.1193 108.021 53.3613 105.537 53.8019 105.092C53.8997 104.993 54.2145 104.989 54.5012 105.083C58.6678 106.446 63.34 106.643 67.4771 105.292C68.2029 105.056 68.8694 104.936 68.9587 105.026C69.3577 105.429 66.1614 106.991 65.87 107.12Z" fill="white"/>
<path d="M20.6994 97.9809L20.0532 98.3196C19.698 98.5057 18.5901 98.8109 17.5916 98.9973C16.3658 99.2263 15.776 99.4548 15.776 99.7007C15.776 99.9994 16.1761 100.031 17.9995 99.878L20.2233 99.6909C19.9035 100.153 17.3439 103.587 18.6907 103.075C19.2501 102.863 19.8709 101.78 20.5771 100.908C21.309 100.003 22.0966 99.4921 23.5279 100.402C23.9701 100.683 24.6359 101.114 25.0077 101.36C26.991 102.668 29.6892 103.104 31.5229 104.513C31.9215 104.819 31.8945 104.92 31.1976 105.74C29.6689 107.536 29.0011 109.462 29.409 110.898C29.6354 111.696 29.63 111.702 28.6578 111.702C28.1191 111.702 27.3167 111.629 26.8743 111.539C26.1416 111.391 26.0701 111.288 26.0701 110.382C26.0701 108.557 28.3298 104.769 27.3568 105.188C25.8126 105.852 25.0052 108.903 25.0052 108.903C25.0052 108.903 24.7833 109.881 24.7833 110.523C24.7833 111.589 24.721 111.705 24.0756 111.839C23.6862 111.921 22.9625 112.09 22.4671 112.215C18.1943 113.294 13.239 113.571 11.3418 112.836C9.18386 111.999 6.65202 108.692 5.69853 105.463C5.13724 103.562 5.47206 91.7752 6.28555 84.7962C6.43559 83.5094 6.39655 82.435 6.69474 80.9577C7.32664 77.8271 9.85684 73.4257 9.85684 73.4257C9.85684 73.4257 11.8714 69.5888 12.9965 69.5888C13.1098 69.5888 13.2022 70.6707 13.2022 71.9934C13.2009 77.8783 13.2501 85.3037 15.776 90.8162C17.0552 93.608 18.7426 95.6792 20.6994 97.9809Z" fill="white"/>
<path d="M46.0991 105.358C47.6149 107.014 47.7806 107.479 46.6444 106.885C45.0304 106.042 42.4468 105.79 40.6749 105.591C39.8611 105.5 39.1951 105.33 39.1951 105.214C39.1951 105.01 42.5882 102.987 44.4906 103.945C45.2358 104.32 45.3669 104.558 46.0991 105.358Z" fill="white"/>
<path d="M37.7796 106.245C42.6259 106.794 45.8942 107.473 46.3366 108.022C47.0418 108.897 46.3389 112.221 45.2251 113.278C44.6754 113.8 44.5406 113.817 43.2659 113.527C40.1771 112.825 38.7071 112.504 36.7502 112.103C35.6179 111.872 34.3357 111.57 33.9011 111.432C33.4664 111.294 32.7929 111.182 32.4043 111.182C30.1741 111.182 30.1713 109.435 32.3971 106.638C33.1373 105.708 33.1661 105.697 34.5627 105.868C35.3412 105.963 36.7888 106.132 37.7796 106.245Z" fill="white"/>
<path fill-rule="evenodd" clip-rule="evenodd" d="M27.9382 32.0055C26.4921 32.3468 25.396 33.1571 24.2447 34.0235C22.6339 35.2352 18.3495 39.7228 18.3495 40.1985C18.3495 40.35 18.2589 40.4738 18.1482 40.4738C17.9665 40.4738 16.5074 43.2189 16.0065 44.5031C15.8223 44.9752 15.3518 46.6352 14.7172 49.0523C14.4928 49.9078 14.1086 52.2906 13.8165 54.6414C13.7454 55.2133 13.5414 58.2547 13.3628 61.4002L13.0382 67.1192L12.1702 68.354C10.9314 70.1157 9.34754 71.6593 8.11688 73.4795C7.47235 74.4328 6.87637 75.352 6.53364 76.4636C5.43324 80.0326 4.94802 83.6596 4.7 87.3957C3.88393 99.6833 3.79026 105.218 4.37779 106.378C4.52114 106.661 4.98952 107.659 5.41879 108.596C6.38463 110.704 8.45066 113.03 10.0586 113.819C12.2047 114.872 16.4644 114.908 21.5664 113.916C25.5845 113.136 27.0802 113.006 29.2376 113.252C32.0113 113.568 34.8528 114.009 35.3348 114.198C35.5471 114.282 36.2999 114.448 37.0076 114.568C37.7153 114.688 39.0471 114.976 39.9671 115.207C44.0071 116.224 44.3131 116.234 46.1372 115.406C47.1764 114.935 47.6638 114.486 48.1559 113.547C48.6788 112.549 49.2319 110.261 49.2319 109.097V108.076L50.969 108.938C54.0737 110.478 55.6783 110.927 58.9148 111.161C62.8275 111.443 68.3098 111.379 71.3784 108.33C72.801 106.916 74.2054 104.394 74.9769 101.867C75.2917 100.836 75.3761 100.757 75.9804 100.923C76.3432 101.022 78.5912 101.159 80.9758 101.226C85.259 101.347 88.0407 101.071 91.0517 100.229C93.6095 99.5138 95.5363 98.0183 96.363 96.1074C96.6419 95.4624 96.9711 94.7005 97.0941 94.4145C97.2174 94.1286 97.3919 93.5437 97.4822 93.1148C97.5725 92.6858 97.7743 91.7206 97.9308 90.9701L98.2149 89.6054H100.106C101.145 89.6054 102.197 89.4957 102.443 89.3618C102.689 89.2276 103.469 88.8476 104.177 88.5169C106.577 87.3956 109.155 83.7178 109.915 81.2868C110.538 79.2963 110.997 75.1508 111.001 71.4763C111.006 66.6703 110.353 57.6423 109.736 53.9915C109.496 52.5742 108.355 48.3624 107.939 47.3626C106.329 43.4923 103.328 37.4907 99.3642 35.3968C98.2203 34.7925 94.8876 34.6339 92.4672 35.069C90.7846 35.3714 90.2565 35.3618 88.3495 34.9934C86.3954 34.6162 83.4616 33.7758 82.0444 33.1875C81.7613 33.07 80.3986 32.7786 79.0161 32.5397C77.0507 32.2002 76.2367 32.1656 75.2845 32.3814C74.6146 32.5329 73.283 32.7333 72.3257 32.8267C71.3683 32.92 70.5219 33.0996 70.4447 33.2257C70.2656 33.5187 66.9151 33.5272 66.5903 33.2353C66.456 33.1147 65.5931 32.7523 64.673 32.4302C63.753 32.1082 62.7686 31.7479 62.4855 31.6298C60.1446 30.6537 54.8941 30.8344 51.0333 32.0239C47.9695 32.9681 47.5351 33.0253 45.842 32.7089C44.9464 32.5412 43.2291 32.2202 42.026 31.9951C36.6385 30.9876 32.924 30.8277 27.9382 32.0055ZM38.056 33.0497C41.5198 33.6146 41.7467 33.6559 43.8274 34.0973C47.6522 34.9089 48.406 34.8704 51.162 33.7235C52.4887 33.1716 55.0043 32.8051 57.4671 32.8051C60.4715 32.8051 61.9132 33.1022 64.673 34.2907C66.9105 35.2541 68.0047 35.3644 70.5922 34.8876C75.7971 33.9281 77.6454 33.8431 79.5995 34.4737C79.9534 34.5881 80.9377 34.8871 81.787 35.1382C82.6363 35.3896 83.5627 35.6896 83.8458 35.805C84.8294 36.2061 87.2009 36.8102 88.8207 37.0723C90.0588 37.2724 91.1088 37.242 93.1957 36.9449C96.1736 36.5209 97.5723 36.6259 98.7723 37.3642C101.606 39.1075 103.761 42.6872 105.107 45.6729C106.689 49.1842 107.578 52.5552 108.124 56.3311C108.919 61.8452 109.23 73.7769 108.671 77.3661C108.167 80.6041 104.334 90.3254 99.1378 87.5145C98.612 87.2304 98.5916 87.0905 98.7453 84.8357C99.1347 79.126 99.2077 72.9667 98.9275 69.4921C98.5976 65.4035 97.8775 60.22 97.5916 59.8782C97.169 59.3728 97.0321 64.3538 97.1901 74.4658C97.2964 81.2675 97.107 85.6439 97.107 85.6439C97.107 85.6439 97.0941 87.6556 96.8421 89.0854C96.3187 92.0544 96.2766 94.1279 94.1399 96.2341C92.9885 97.3691 92.1771 97.8018 90.537 98.2517C86.5941 99.3334 79.9539 99.6927 76.833 98.9931C74.9291 98.5666 75.068 99.4278 75.6296 91.5314C75.9425 87.1314 76.0022 83.5206 75.8918 75.6556C75.8316 71.3671 76.8972 66.3392 74.581 62.5698C74.0316 61.9246 73.1657 61.5226 73.1657 61.9518C73.1657 63.5546 74.1207 65.4722 74.195 67.249C74.4509 73.3665 74.0644 70.1493 74.0541 82.5866C74.0443 94.1543 73.9637 97.8574 73.6969 98.9638C72.2559 104.942 70.4174 107.472 66.6032 108.725C64.4898 109.419 58.1154 109.413 55.7944 108.714C52.266 107.652 50.6602 106.745 47.9999 104.309C46.9005 103.302 46.2863 102.364 46.4009 100.393C46.4551 99.461 46.8766 95.8469 47.1854 92.8548C47.8596 86.3239 46.8984 67.1741 46.8984 67.1741C46.8984 67.1741 47.0111 64.2674 48.8457 62.9598C50.1245 62.0486 51.0524 61.4628 50.688 61.0947C50.1684 60.57 47.1641 62.9522 46.7919 63.3447L46.0561 64.1204L45.1348 63.1333C44.1846 62.1153 42.5795 61.0103 42.0509 61.0103C41.8857 61.0103 42.1891 61.3903 42.7247 61.8551C44.0457 63.001 44.2945 63.3124 44.8543 64.5197C45.2838 65.4467 45.3523 66.4912 45.4838 74.138C45.5648 78.8562 45.6974 83.7109 45.7779 84.9262C45.8587 86.1415 45.8016 89.5339 45.651 92.4649C45.248 100.316 44.9562 101.406 44.6945 101.563C43.8274 102.083 42.6444 102.263 41.7686 102.503C39.4473 103.142 35.6907 103.633 32.0664 102.517C30.5066 102.037 29.5107 101.418 28.2576 100.788C25.015 99.1593 22.9876 97.2051 20.6348 94.7286C19.2209 93.2405 18.2833 91.3721 17.4812 89.5146C15.4011 84.6978 15.856 78.8814 15.2615 73.7187C14.9272 70.8142 14.9293 60.9861 15.2646 58.2942C15.4082 57.1429 15.6398 55.2068 15.7796 53.9915C16.1908 50.4142 16.7822 47.4242 17.3474 46.0628C17.466 45.7769 17.8016 44.9154 18.0929 44.1485C18.3842 43.3816 18.9628 42.2545 19.3789 41.6433C20.6464 39.7828 24.8132 35.7044 26.5611 34.6139C29.4972 32.782 33.2677 32.2688 38.056 33.0497ZM34.2439 52.8859C35.029 53.4476 37.0242 51.0832 38.2943 49.832C38.897 49.2382 44.5242 39.174 42.5018 39.174C40.8497 39.174 40.347 43.0277 38.5516 46.1927C36.3268 50.1146 33.7906 52.5616 34.2439 52.8859ZM89.6378 39.637C89.6741 43.261 91.1872 45.8895 89.7979 49.8972C89.3941 51.0618 89.2909 51.6519 89.4911 51.6519C89.864 51.6519 90.7525 49.8671 91.1804 48.5561C92.2764 45.198 89.6007 35.2906 89.6378 39.637ZM51.8466 41.2173C51.4217 42.6496 51.4641 46.9677 51.9135 48.0458C52.7025 49.938 54.8483 51.5294 56.352 51.3376L57.0811 51.2445L56.1804 50.8377C55.685 50.6139 54.9091 50.1153 54.4561 49.7295C53.0306 48.5152 52.7723 47.7076 52.6027 43.939C52.518 42.0559 52.3806 40.4467 52.2969 40.3628C52.2135 40.2791 52.0108 40.6635 51.8466 41.2173ZM66.9622 40.3438C66.9272 40.4868 66.8873 41.7736 66.8731 43.2033C66.8394 46.6173 66.4784 47.7645 64.9108 49.4389C64.2139 50.1834 63.6436 50.8663 63.6436 50.9565C63.6436 51.0469 63.9622 50.9786 64.3513 50.8047C65.4973 50.2931 67.2041 48.5386 67.5433 47.5238C67.9723 46.2404 67.8948 42.4112 67.4138 41.1237C67.2002 40.5518 66.9969 40.2008 66.9622 40.3438ZM75.1643 40.5226C75.0446 40.8814 75.7977 43.6048 76.5182 45.4743C77.4288 47.8366 77.8173 49.4515 79.5995 51.1709C80.0241 51.5809 80.3716 51.8016 80.3716 51.661C80.3716 50.1901 78.9574 48.4049 78.042 46.3228C77.0001 43.9529 76.4392 41.4054 75.3552 40.2627C75.3128 40.218 75.2268 40.335 75.1643 40.5226ZM96.6221 44.3237C98.5407 48.3866 100.65 51.3919 101.583 51.3919C102.14 51.3919 102.093 51.1587 101.404 50.512C99.5754 48.7931 98.3388 41.7736 95.7821 41.7736C95.156 41.7736 96.5136 44.0939 96.6221 44.3237ZM21.2329 45.0927C21.5561 48.4913 24.8446 51.8593 28.2576 52.2877L29.5443 52.4491L27.8131 51.5299C24.7203 49.8881 21.9524 46.5591 21.9524 44.4815C21.9524 44.0744 21.805 43.8532 21.5337 43.8532C21.1889 43.8532 21.1359 44.0723 21.2329 45.0927ZM13.2022 71.9934C13.2009 77.8783 13.2501 85.3037 15.776 90.8162C17.0552 93.608 18.7426 95.6792 20.6994 97.9809L20.0532 98.3196C19.698 98.5057 18.5901 98.8109 17.5916 98.9973C16.3658 99.2263 15.776 99.4548 15.776 99.7007C15.776 99.9994 16.1761 100.031 17.9995 99.878L20.2233 99.6909C19.9035 100.153 17.3439 103.587 18.6907 103.075C19.2501 102.863 19.8709 101.78 20.5771 100.908C21.309 100.003 22.0966 99.4921 23.5279 100.402C23.9701 100.683 24.6359 101.114 25.0077 101.36C26.991 102.668 29.6892 103.104 31.5229 104.513C31.9215 104.819 31.8945 104.92 31.1976 105.74C29.6689 107.536 29.0011 109.462 29.409 110.898C29.6354 111.696 29.63 111.702 28.6578 111.702C28.1191 111.702 27.3167 111.629 26.8743 111.539C26.1416 111.391 26.0701 111.288 26.0701 110.382C26.0701 108.557 28.3298 104.769 27.3568 105.188C25.8126 105.852 25.0052 108.903 25.0052 108.903C25.0052 108.903 24.7833 109.881 24.7833 110.523C24.7833 111.589 24.721 111.705 24.0756 111.839C23.6862 111.921 22.9625 112.09 22.4671 112.215C18.1943 113.294 13.239 113.571 11.3418 112.836C9.18386 111.999 6.65202 108.692 5.69853 105.463C5.13724 103.562 5.47206 91.7752 6.28555 84.7962C6.43559 83.5094 6.39655 82.435 6.69474 80.9577C7.32664 77.8271 9.85684 73.4257 9.85684 73.4257C9.85684 73.4257 11.8714 69.5888 12.9965 69.5888C13.1098 69.5888 13.2022 70.6707 13.2022 71.9934ZM103.921 84.2305C102.852 84.803 101.911 85.4329 100.767 85.8438C100.024 86.1105 99.4157 86.4225 99.4157 86.5374C99.4157 86.9764 102.022 86.7396 103.056 86.2064C104.27 85.581 105.592 84.2989 105.592 83.7475C105.592 82.9047 104.295 84.0305 103.921 84.2305ZM88.3665 96.2134C84.9645 97.0897 83.6896 97.2733 81.0904 97.2608C78.8565 97.2501 78.3874 97.3117 78.6126 97.5857C78.7654 97.7719 79.2235 97.9239 79.2235 97.9239C79.2235 97.9239 84.5137 99.0783 87.3201 98.2195C89.0686 97.6845 90.8234 97.4059 92.5276 95.9855C92.8531 95.7142 92.8531 95.5842 92.7206 95.5194C92.2971 95.312 88.7593 96.1122 88.3665 96.2134ZM26.5848 98.8944C26.5848 99.1239 27.3275 99.5505 28.901 100.225C32.4125 101.729 38.2261 101.708 41.8288 100.179C43.4373 99.4961 42.7234 99.354 38.1433 99.4436C34.1564 99.5219 31.4547 99.3545 27.5499 98.7873C27.0133 98.7093 26.5848 98.7568 26.5848 98.8944ZM46.0991 105.358C47.6149 107.014 47.7806 107.479 46.6444 106.885C45.0304 106.042 42.4468 105.79 40.6749 105.591C39.8611 105.5 39.1951 105.33 39.1951 105.214C39.1951 105.01 42.5882 102.987 44.4906 103.945C45.2358 104.32 45.3669 104.558 46.0991 105.358ZM53.8019 105.092C53.3613 105.537 58.1193 108.021 61.2435 108.061C63.0864 108.084 64.7549 107.611 65.87 107.12C66.1614 106.991 69.3577 105.429 68.9587 105.026C68.8694 104.936 68.2029 105.056 67.4771 105.292C63.34 106.643 58.6678 106.446 54.5012 105.083C54.2145 104.989 53.8997 104.993 53.8019 105.092ZM37.7796 106.245C42.6259 106.794 45.8942 107.473 46.3366 108.022C47.0418 108.897 46.3389 112.221 45.2251 113.278C44.6754 113.8 44.5406 113.817 43.2659 113.527C40.1771 112.825 38.7071 112.504 36.7502 112.103C35.6179 111.872 34.3357 111.57 33.9011 111.432C33.4664 111.294 32.7929 111.182 32.4043 111.182C30.1741 111.182 30.1713 109.435 32.3971 106.638C33.1373 105.708 33.1661 105.697 34.5627 105.868C35.3412 105.963 36.7888 106.132 37.7796 106.245Z" fill="black"/>
<path d="M97.4459 15.2582C103.863 10.1885 110.246 5.07471 116.661 0.000931325C113.324 4.58375 109.964 9.14931 106.623 13.7261C108.767 14.3365 110.918 14.9271 113.066 15.5286C107.21 20.7877 101.352 26.047 95.4756 31.2844C98.7978 26.7049 102.157 22.1564 105.484 17.5851C102.801 16.8239 100.129 16.0193 97.4459 15.2582Z" fill="#A79CEE"/>
<path d="M85.9745 106.172C88.2895 114.886 90.6643 123.586 92.9845 132.299C89.796 126.894 86.6352 121.474 83.4549 116.067C81.8788 117.944 80.3197 119.837 78.751 121.722C75.9934 113.486 73.2366 105.247 70.5105 97.0002C73.7021 102.389 76.8457 107.801 80.0269 113.191C81.9963 110.841 84.0051 108.522 85.9745 106.172Z" fill="#A79CEE"/>
<path d="M32.6808 125.969C28.2017 129.355 23.7451 132.771 19.2677 136.16C21.6254 133.064 23.9986 129.979 26.3595 126.887C24.8966 126.437 23.4287 126.001 21.9633 125.557C26.0601 122.033 30.1583 118.509 34.2691 115C31.9214 118.095 29.549 121.167 27.1981 124.256C29.0284 124.817 30.8504 125.408 32.6808 125.969Z" fill="#A79CEE"/>
<path d="M17.3752 38.1208C11.6012 31.1961 5.7789 24.3092 0.00047563 17.3874C5.1711 20.9436 10.323 24.5252 15.487 28.0868C16.1244 25.7199 16.7397 23.346 17.3672 20.9754C23.3409 27.2802 29.3149 33.5873 35.2649 39.9156C30.0983 36.3753 24.9655 32.794 19.8078 29.2482C19.0132 32.2095 18.1698 35.1595 17.3752 38.1208Z" fill="#A79CEE"/>
<path d="M57.0267 11.6648C59.9371 8.11724 62.8238 4.54954 65.7323 1.00002C64.4519 3.91145 63.1569 6.81617 61.8731 9.7249C63.1215 9.80222 64.3713 9.86791 65.6206 9.93999C63.0404 13.5241 60.459 17.1085 57.8648 20.6832C59.1376 17.7754 60.4342 14.8801 61.7107 11.9761C60.1491 11.8807 58.5884 11.7602 57.0267 11.6648Z" fill="#A79CEE"/>
</svg>
