<svg width="184" height="184" viewBox="0 0 184 184" fill="none" xmlns="http://www.w3.org/2000/svg">
<path d="M111.974 47.819L111.974 47.819L111.969 47.8215C108.055 49.761 104.532 52.6598 102.175 56.4022C100.332 59.317 99.3705 62.9771 100.24 66.4449C100.34 66.8519 100.48 67.3276 100.713 67.7583C100.948 68.1931 101.294 68.6099 101.816 68.8547L101.89 68.8895L101.971 68.8988C102.36 68.943 102.779 68.9237 103.145 68.9069C103.286 68.9003 103.421 68.8941 103.542 68.8922L103.556 68.8919L103.569 68.891C104.741 68.8077 105.843 69.3219 107.035 69.8781C107.088 69.903 107.142 69.928 107.196 69.9531C111.098 71.9527 114.84 74.3822 117.667 77.6953L117.675 77.7041L117.683 77.7126C118.111 78.1696 118.351 78.7345 118.536 79.3892C118.617 79.6761 118.685 79.9689 118.756 80.2753C118.766 80.3203 118.777 80.3656 118.787 80.4112C118.869 80.7614 118.957 81.127 119.071 81.4847L119.074 81.4954L119.078 81.5059C119.369 82.2932 119.928 82.847 120.543 83.2589C121.152 83.6668 121.848 83.9562 122.445 84.1989L122.455 84.2027L122.465 84.2062C126.419 85.6263 130.91 85.0635 134.534 83.0785C139.282 80.5101 142.759 75.6731 143.586 70.3204C144.192 67.1004 144.131 63.6422 142.86 60.525L142.86 60.5245C142.257 59.0493 141.539 57.3042 140.069 56.2134L139.961 56.1333L139.827 56.1181C139.532 56.0846 139.235 56.1013 138.97 56.1233C138.889 56.1299 138.813 56.1369 138.739 56.1437C138.556 56.1605 138.389 56.1758 138.22 56.1804C137.765 56.1927 137.461 56.1196 137.22 55.8529L137.202 55.8338L137.183 55.8166C135.046 53.8934 132.8 52.0454 130.308 50.5318C130.181 50.4531 130.057 50.3782 129.937 50.3053C129.518 50.0518 129.138 49.822 128.807 49.5371C128.841 49.3862 128.878 49.2335 128.917 49.0753L128.918 49.0697C128.978 48.8227 129.042 48.5617 129.094 48.2952L129.166 47.92L128.823 47.7519C123.565 45.1754 117.207 45.2988 111.974 47.819ZM121.375 50.4975C116.286 52.2028 111.793 55.5847 108.701 59.9602C108.348 59.8761 107.996 59.787 107.646 59.6937C109.941 54.4902 115.009 50.6298 120.645 49.8709C120.903 50.0558 121.134 50.267 121.375 50.4975Z" fill="#010101" stroke="black"/>
<path d="M26.0235 101.781L25.2556 101.781L25.5661 102.483C26.0913 103.671 26.9864 104.611 27.8216 105.442L27.8303 105.45L27.8393 105.459C28.673 106.211 29.6931 107.078 31.0036 107.307L31.8731 107.459L31.5562 106.635C31.0906 105.424 30.1364 104.534 29.3009 103.755C29.1713 103.634 29.0446 103.516 28.923 103.399L28.9099 103.387L28.896 103.375C28.7887 103.286 28.6685 103.18 28.5404 103.067C28.2813 102.838 27.9896 102.581 27.7047 102.379C27.2489 102.055 26.6982 101.781 26.0235 101.781Z" fill="#010101" stroke="black"/>
<path d="M97.392 122.007L97.0535 122.236L97.2106 122.613C97.2898 122.803 97.3692 122.994 97.4487 123.185C97.6522 123.675 97.8565 124.166 98.0623 124.657L98.3009 125.227L98.8084 124.875C100.784 123.505 102.771 122.14 104.758 120.775C107.186 119.108 109.615 117.44 112.026 115.759L112.397 115.5L112.176 115.105C112.039 114.859 111.897 114.602 111.755 114.342C111.579 114.021 111.4 113.696 111.225 113.386L110.961 112.918L110.513 113.215C106.129 116.128 101.753 119.056 97.392 122.007Z" fill="#010101" stroke="black"/>
<path d="M103.019 56.935C105.261 53.3749 108.63 50.591 112.409 48.7185C117.264 46.3811 123.131 46.2223 128.029 48.4823C128.002 48.5984 127.973 48.7161 127.943 48.8371L127.942 48.8427C127.882 49.0897 127.818 49.3506 127.767 49.6171L127.716 49.8782L127.905 50.0658C128.373 50.5321 128.948 50.8785 129.458 51.1862C129.569 51.2531 129.677 51.3182 129.781 51.3823L129.785 51.385C132.193 52.8475 134.381 54.6428 136.495 56.5435C137.022 57.1122 137.682 57.195 138.245 57.1797C138.449 57.1741 138.664 57.1544 138.858 57.1366C138.925 57.1305 138.99 57.1246 139.05 57.1195C139.248 57.1031 139.423 57.0941 139.582 57.1013C140.72 58.0047 141.33 59.4279 141.933 60.9027C143.111 63.7947 143.183 67.0495 142.6 70.1431L142.598 70.1513L142.597 70.1596C141.821 75.1998 138.537 79.7753 134.055 82.1993L134.052 82.2006C130.651 84.0638 126.462 84.576 122.81 83.2682C122.209 83.0238 121.608 82.7692 121.098 82.4277C120.595 82.0907 120.214 81.6902 120.018 81.1692C119.919 80.8569 119.84 80.5297 119.76 80.1842C119.749 80.1402 119.739 80.0958 119.729 80.0511C119.658 79.7468 119.585 79.4285 119.496 79.1166C119.294 78.4013 119.001 77.6621 118.419 77.0373C115.468 73.5833 111.595 71.0836 107.641 69.0585L107.633 69.0542L107.624 69.0502C107.549 69.015 107.472 68.9792 107.395 68.9429C106.267 68.4142 104.946 67.7948 103.51 67.8922C103.328 67.8954 103.161 67.9033 103.004 67.9107C102.707 67.9247 102.444 67.9372 102.169 67.9135C101.933 67.7824 101.746 67.5685 101.591 67.2822C101.419 66.9648 101.303 66.5876 101.209 66.2049L101.209 66.2024C100.421 63.0646 101.281 59.6835 103.019 56.9358L103.019 56.935ZM141.856 57.1526L141.855 57.1511C138.962 52.3826 134.413 48.6195 129.148 46.7431C118.959 42.9157 106.269 46.8609 100.466 56.2037C97.787 60.3655 96.8596 65.5684 97.8389 70.4066L97.9869 71.1376L98.6069 70.723C98.6608 70.687 98.7144 70.6511 98.7678 70.6154C98.9819 70.472 99.1928 70.3307 99.4052 70.1918C103.698 71.2262 107.545 73.5964 111.163 76.1999C115.885 79.6516 120.076 84.0484 122.243 89.482L122.39 89.8492L122.781 89.7914C125.003 89.4626 127.252 89.4849 129.537 89.5076C129.751 89.5098 129.966 89.5119 130.181 89.5137L130.276 89.5146L130.365 89.4803C137.673 86.6659 143.523 79.9326 144.771 72.1012C145.67 66.9689 144.524 61.5843 141.856 57.1526Z" fill="white" stroke="black"/>
<path d="M106.495 59.8401L106.289 60.3574L106.825 60.5069C107.477 60.6885 108.135 60.8585 108.801 61.0108L109.132 61.0866L109.324 60.8064C112.456 56.2445 117.161 52.7702 122.47 51.198L123.317 50.9472L122.666 50.3501C122.549 50.2428 122.428 50.1252 122.301 50.0027C121.926 49.6405 121.507 49.2359 121.038 48.9307L120.885 48.8315L120.705 48.8536C114.442 49.6193 108.831 53.9824 106.495 59.8401Z" fill="white" stroke="black"/>
<path d="M84.4824 57.1933L84.4727 57.1961L84.4631 57.1994C81.8049 58.1028 78.6762 59.6207 77.6613 62.7306C76.0361 66.853 77.7768 71.1909 79.4303 74.7371L80.1663 76.3154L80.3221 75.054C80.423 76.5162 81.1771 77.9069 82.3631 78.7849L82.654 79.0002C81.6991 79.9637 80.8429 81.0329 80.1892 82.2583L79.8237 82.9435L80.5987 82.9926C82.8002 83.1322 84.9772 83.6387 87.0078 84.49C82.9647 83.3397 78.6192 83.2083 74.5608 84.4742L74.5595 84.4746C70.9782 85.6025 67.8365 88.2393 66.4137 91.7935L66.1023 92.5712L66.9347 92.4761C70.0417 92.1208 73.2217 92.5453 76.2224 93.4816C81.5304 95.1888 86.1351 98.7209 89.5144 103.153L89.5152 103.154C93.1781 107.929 94.9018 114.033 94.6558 120.038L94.6176 120.97L95.415 120.486C98.2445 118.766 100.55 116.381 102.39 113.685L101.873 114.668L103.081 114.235C104.836 113.606 106.367 112.616 107.825 111.595C108.122 111.387 108.415 111.179 108.706 110.972C109.86 110.151 110.985 109.351 112.201 108.693C113.57 107.979 114.925 107.317 116.37 106.947L116.37 106.947L116.375 106.945C118.898 106.266 121.489 106.191 124.139 106.114C124.993 106.089 125.854 106.064 126.721 106.019L127.081 106L127.177 105.652C127.708 103.714 127.662 101.592 126.967 99.6953C127.044 99.8248 127.119 99.9584 127.193 100.095C128.023 101.683 127.896 103.56 127.683 105.463L127.62 106.032L128.192 106.019C128.413 106.014 128.634 106.009 128.855 106.004C131.274 105.949 133.719 105.894 136.151 105.648C139.036 105.423 142.173 105.169 144.872 103.634C146.767 102.62 148.775 100.925 149.028 98.4507L149.028 98.4504C149.401 94.7985 148.117 91.2176 146.463 88.1269C145.348 85.947 143.713 84.1159 142.144 82.358C142.001 82.1986 141.859 82.0397 141.719 81.8812L141.304 81.4153L140.94 81.9207C138.916 84.7234 136.305 87.1084 133.287 88.7861L132.978 88.9579L133.037 89.3064C133.057 89.422 133.094 89.6614 133.111 89.7784L133.152 90.0616L133.417 90.1698C133.504 90.2053 133.591 90.2395 133.679 90.2727C131.587 89.7474 129.434 89.3537 127.228 89.4445C126.286 89.403 125.299 89.5081 124.358 89.6083C123.941 89.6528 123.532 89.6963 123.14 89.7256C121.817 89.8247 120.594 89.7797 119.458 89.2263C118.426 88.6751 117.577 87.8746 116.758 86.9681C116.454 86.6319 116.145 86.2698 115.831 85.9015C115.324 85.3078 114.804 84.698 114.269 84.1547L113.872 83.7525L113.521 84.1944C113.489 84.2345 113.459 84.273 113.429 84.3101C113.197 84.6053 113.037 84.8076 112.809 84.9364L112.795 84.9442L112.782 84.9527C109.708 86.9535 106.991 89.4297 104.315 91.8696C103.731 92.4013 103.15 92.9313 102.567 93.4542C99.106 89.2802 94.9979 85.6804 90.6786 82.4709C90.5843 81.8449 90.5035 81.2922 90.5894 80.7699C92.8834 77.9963 95.8512 75.863 98.8492 73.7603L99.6509 73.198L98.7253 72.8783C97.9085 72.5962 97.0858 72.4862 96.2752 72.4615L96.4695 72.4303L96.2074 71.8372C95.3214 69.8322 94.1707 67.9778 92.8321 66.2724C93.7886 67.2968 94.6424 68.4255 95.388 69.6095L96.3435 71.1271L96.311 69.334C96.2318 64.9681 97.2642 60.602 99.4422 56.8219L99.8279 56.1525L99.0593 56.0748C94.2157 55.5848 89.2043 55.7998 84.4824 57.1933Z" fill="white" stroke="black"/>
<path d="M98.247 70.4936L97.326 71.0531L98.3479 71.395C104.502 73.4543 109.884 77.378 114.603 81.8437C116.964 84.1572 119.23 86.5911 120.473 89.5833L120.614 89.9224L120.98 89.8894C121.068 89.8815 121.2 89.8689 121.329 89.8565L121.329 89.8565C121.46 89.844 121.588 89.8318 121.673 89.8241L122.388 89.7597L122.079 89.1114C120.973 86.7846 119.438 84.7087 117.796 82.7897L117.796 82.7897L117.79 82.7826C112.894 77.273 106.851 72.5266 99.7929 70.0376C99.6083 69.944 99.4147 69.9098 99.2215 69.9344C99.0244 69.9596 98.8626 70.0415 98.7423 70.1182C98.6312 70.1891 98.5282 70.274 98.4522 70.3367C98.4476 70.3404 98.4432 70.3441 98.4388 70.3477C98.3506 70.4204 98.2954 70.4642 98.247 70.4936Z" fill="white" stroke="black"/>
<path d="M96.3259 71.9584L97.025 71.4929C97.303 71.3078 97.5855 71.1328 97.8647 70.9616L98.0627 70.8401L98.2833 70.9131C101.106 71.8481 103.648 73.3987 106.063 74.9902L106.073 74.9974L106.073 74.9975C109.636 77.4812 112.97 80.2833 116.046 83.3421L116.053 83.3489L116.053 83.349C116.114 83.4117 116.174 83.4745 116.236 83.5375C117.738 85.0887 119.362 86.7652 120.265 88.8878L120.807 90.1619L119.576 89.5281C119.532 89.5057 119.488 89.4829 119.442 89.4596C119.043 89.2565 118.575 89.0178 118.184 88.6652L96.3259 71.9584ZM96.3259 71.9584L97.0684 72.3511M96.3259 71.9584L97.0684 72.3511M97.0684 72.3511C97.6819 72.6755 98.334 72.8918 98.9403 73.0929C98.9793 73.1058 99.018 73.1187 99.0566 73.1315C99.7101 73.3488 100.31 73.5573 100.856 73.875L100.866 73.8811L100.877 73.8866C105.424 76.2505 109.617 79.2597 113.403 82.7158M97.0684 72.3511L113.403 82.7158M113.403 82.7158C113.412 82.9631 113.423 83.2104 113.435 83.4576L113.444 83.636L113.564 83.7684C113.894 84.1321 114.223 84.5018 114.554 84.8736C115.705 86.1672 116.878 87.4859 118.184 88.6652L113.403 82.7158Z" fill="white" stroke="black"/>
<path d="M90.5702 80.3617L90.1537 80.8126L90.6795 81.1293C94.9694 83.7135 98.8837 86.8806 102.448 90.4027L102.786 90.7359L103.136 90.4168C103.575 90.0179 104.027 89.639 104.487 89.2527C104.66 89.1078 104.834 88.9619 105.009 88.8135C105.558 88.348 106.109 87.8644 106.626 87.3366L106.634 87.3398L106.665 87.2962C106.733 87.2266 106.8 87.1561 106.867 87.0849L106.839 87.059L106.86 87.0302C106.873 87.0253 106.886 87.0203 106.899 87.0152L107.308 87.4646L107.432 86.7671C107.694 86.6265 107.943 86.464 108.177 86.2845C109.719 85.1193 111.336 84.0562 113.01 83.0872L113.618 82.7353L113.086 82.2762C109.996 79.6056 106.776 77.051 103.33 74.8208L103.329 74.8204C102.219 74.1046 101.058 73.4284 99.8232 72.8926L99.5673 72.7816L99.3384 72.9411C96.2074 75.1219 93.1866 77.5295 90.5702 80.3617ZM108.306 80.5362C108.288 80.5447 108.269 80.5532 108.25 80.5617L107.971 80.689L107.958 80.9961C107.941 81.3999 107.806 81.756 107.558 82.0498C107.374 81.9661 107.177 81.8821 106.977 81.8147L106.753 81.7396L106.553 81.8641C105.77 82.352 105.042 82.9303 104.343 83.4988L104.308 83.125C104.357 83.087 104.407 83.0491 104.457 83.0112C104.735 82.8115 105.013 82.6132 105.293 82.414L105.295 82.4132C105.576 82.2132 105.858 82.0124 106.14 81.81L106.502 81.55L106.285 81.1606C106.231 81.0643 106.152 80.9231 106.072 80.7797C106.232 80.6857 106.392 80.5927 106.554 80.5005C106.67 80.6098 106.79 80.7222 106.873 80.8005L106.891 80.8172L107.16 81.0699L107.481 80.8867C107.725 80.7471 107.973 80.6088 108.223 80.4701C108.251 80.4922 108.278 80.5142 108.306 80.5362ZM105.201 86.0115C105.178 85.9369 105.153 85.8624 105.127 85.789C105.161 85.8201 105.195 85.8511 105.229 85.882C105.276 85.9254 105.323 85.9687 105.37 86.012C105.326 86.05 105.281 86.0881 105.236 86.1263L105.201 86.0115ZM104.586 86.689C103.937 87.2577 103.297 87.8381 102.67 88.4349C102.609 88.3719 102.548 88.309 102.488 88.2461C103.088 87.6431 103.687 87.0446 104.298 86.4602L104.413 86.5513L104.586 86.689ZM100.696 86.6307C100.628 86.5686 100.561 86.5066 100.494 86.4448C101.416 85.4534 102.452 84.5735 103.536 83.7219L103.455 83.8788C103.151 84.4628 102.668 84.9322 102.093 85.4206C101.977 85.5192 101.855 85.6196 101.731 85.7222C101.39 86.0042 101.028 86.3033 100.696 86.6307ZM96.9409 80.4416C96.8112 80.2408 96.6946 80.06 96.6015 79.877C96.6887 80.0019 96.7988 80.1203 96.9375 80.2276L96.957 80.2426L96.9778 80.2557C97.5043 80.5856 98.0391 80.4958 98.4536 80.3169C98.7905 80.1715 99.111 79.9392 99.3458 79.7689C99.3843 79.741 99.4205 79.7147 99.4541 79.6908L99.6105 79.5794C99.172 80.5103 97.9336 80.877 96.9409 80.4416ZM99.6579 79.4783L99.6476 79.4966L99.6622 79.3261C99.7143 78.7159 99.5482 78.1739 99.2969 77.699C99.3828 77.7795 99.4611 77.8714 99.5303 77.9727C99.8474 78.4374 99.9137 79.0197 99.6579 79.4783ZM97.4936 78.2819C97.4951 78.272 97.4966 78.2618 97.4981 78.2514C97.7225 78.217 97.9466 78.1849 98.1702 78.1564C98.1941 78.2629 98.2185 78.3718 98.2409 78.4725C98.1994 78.5109 98.1609 78.5464 98.1306 78.5737C98.0225 78.6707 97.9271 78.7479 97.8376 78.8032C97.6759 78.9029 97.6 78.8981 97.5148 78.8509C97.4765 78.8267 97.47 78.8104 97.4661 78.8006L97.466 78.8004C97.4572 78.7783 97.4466 78.7309 97.4508 78.6345C97.4547 78.5437 97.469 78.4475 97.4879 78.3202C97.4898 78.3078 97.4917 78.295 97.4936 78.2819ZM100.499 81.7083C100.469 81.7105 100.438 81.713 100.405 81.716C100.362 81.6772 100.316 81.6364 100.27 81.5959L100.269 81.5948C100.221 81.5525 100.174 81.5106 100.13 81.4711C100.142 81.3779 100.17 81.3153 100.198 81.2728C100.243 81.2049 100.319 81.144 100.439 81.1017C100.626 81.036 100.879 81.0318 101.126 81.0908C101.127 81.0986 101.128 81.1062 101.128 81.1136C101.129 81.1247 101.13 81.1355 101.131 81.146C101.141 81.2556 101.148 81.337 101.147 81.4143C101.147 81.5603 101.12 81.5858 101.096 81.6035C101.041 81.6419 100.956 81.6702 100.785 81.6873C100.726 81.6932 100.672 81.6968 100.609 81.7008C100.575 81.703 100.539 81.7054 100.499 81.7083Z" fill="white" stroke="black"/>
<path d="M90.9167 80.8801L90.1681 80.4022L90.1478 81.29C90.144 81.4541 90.1391 81.6989 90.1342 81.9426L90.1342 81.9434C90.1293 82.188 90.1244 82.4314 90.1207 82.5939L90.1144 82.8693L90.3438 83.0217C94.6193 85.8642 98.5565 89.2213 101.902 93.1086L102.744 94.087L102.781 92.7968C102.784 92.6745 102.787 92.5527 102.791 92.4313C102.805 91.9149 102.819 91.405 102.841 90.8962L102.85 90.694L102.715 90.5427C99.3117 86.7121 95.1857 83.6053 90.9167 80.8801Z" fill="white" stroke="black"/>
<path d="M103.153 83.6138C103.014 83.7362 102.876 83.857 102.738 83.9758L102.311 83.6349C101.408 84.4006 100.569 85.2318 99.7793 86.1001L99.4548 86.4569L99.7997 86.7941C99.8695 86.8623 99.9744 86.9642 100.078 87.0651L100.079 87.0657C100.184 87.1674 100.288 87.2681 100.356 87.3349L100.704 87.6751L101.053 87.3364C102.081 86.3402 103.105 85.3685 104.208 84.5021L104.208 84.5022L104.211 84.4997C104.541 84.236 104.876 83.9883 105.22 83.7342C105.384 83.6134 105.549 83.4911 105.717 83.365C106.229 82.9803 106.747 82.5712 107.224 82.1023L106.721 81.2696C105.665 81.6085 104.793 82.2287 104.005 82.8812C103.706 83.1288 103.426 83.3742 103.153 83.6138Z" fill="white" stroke="black"/>
<path d="M30.1977 94.183L29.0904 94.1924L29.8297 95.0168C30.1501 95.374 30.477 95.7195 30.8018 96.0627C31.4558 96.7537 32.1009 97.4354 32.6652 98.1842C33.4887 99.2769 34.0707 100.432 34.136 101.784C34.0406 104.595 33.1572 107.317 32.2631 110.06C31.0606 113.533 29.8546 116.996 28.5456 120.419L28.3346 120.971L28.9138 121.088C29.1769 121.141 29.6941 121.247 29.9506 121.302L30.3542 121.389L30.5159 121.009C32.5679 116.19 34.5202 111.279 35.8182 106.16L35.8188 106.158C36.311 104.177 36.6761 101.954 36.0131 99.8374C35.4093 97.8277 34.0132 96.2375 32.7463 94.7943C32.6889 94.7289 32.6317 94.6638 32.5749 94.599C32.4082 94.3487 32.1889 94.1837 31.9363 94.0955C31.6853 94.0079 31.4323 94.0068 31.2199 94.0266C31.0368 94.0437 30.8487 94.0807 30.6924 94.1115C30.6699 94.1159 30.648 94.1202 30.627 94.1243C30.4431 94.16 30.3083 94.182 30.1977 94.183Z" fill="white" stroke="black"/>
<path d="M32.9499 93.8752L31.8254 93.8144L32.5345 94.6892C32.7478 94.9525 32.9624 95.2116 33.1752 95.4688C34.3325 96.8666 35.4411 98.2057 36.0518 99.8336L36.0517 99.8337L36.0556 99.8435C36.6282 101.277 36.7469 102.886 36.3418 104.368L36.3418 104.368L36.3398 104.375C35.0372 109.451 33.1348 114.345 31.2244 119.259C31.0268 119.768 30.8292 120.276 30.6321 120.785L30.3801 121.436L31.0774 121.465C31.7195 121.492 32.3564 121.519 32.9958 121.552L33.2235 121.563L33.3816 121.399C34.7966 119.929 36.7128 118.863 38.7112 118.806C40.9012 118.951 43.0247 119.948 44.5925 121.497L44.7361 121.639L44.9379 121.642C45.9703 121.654 47.3003 121.585 48.2525 120.677C49.6545 119.358 50.3083 117.499 50.6806 115.774L50.6825 115.766L50.684 115.757C51.2797 112.442 50.2607 109.124 48.9206 106.241L48.9203 106.24C48.0369 104.347 46.5676 102.862 45.028 101.605L44.8662 101.473L44.6586 101.495C44.5771 101.504 44.4548 101.516 44.3276 101.528L44.3193 101.529C44.1917 101.541 44.0598 101.554 43.9709 101.563L43.5381 101.61L43.5251 102.045C43.5097 102.562 43.4881 103.075 43.4498 103.581C43.4236 101.408 43.0557 99.2026 41.7412 97.3173C40.769 95.8033 39.2909 94.9863 37.7158 94.5274C36.1459 94.07 34.4338 93.9553 32.9499 93.8752Z" fill="white" stroke="black"/>
<path d="M25.8055 99.4369L25.8054 99.4369L25.8017 99.4465C24.3813 103.103 23.0696 106.804 21.9445 110.569L21.9444 110.569L21.9427 110.575C21.3773 112.56 21.1271 115.02 22.3687 116.993L22.3783 117.008L22.389 117.022C23.745 118.867 25.7127 120.343 27.9723 120.935L28.4182 121.052L28.5708 120.617C30.2925 115.709 31.9853 110.776 33.4294 105.761L33.4315 105.754L33.4333 105.746C33.9253 103.822 34.404 101.409 33.2836 99.3708L33.2837 99.3707L33.2784 99.3614C32.3086 97.6837 30.8378 96.3936 29.4714 95.1949C29.3888 95.1224 29.3065 95.0502 29.2247 94.9783L28.8961 94.6894L28.5662 94.9767C27.1717 96.1909 26.4399 97.8994 25.8055 99.4369ZM26.7778 116.443L26.7666 116.434L26.7548 116.426C25.7208 115.705 24.7569 114.893 24.0594 113.915C24.1716 113.979 24.2839 114.056 24.4081 114.142C24.471 114.185 24.537 114.23 24.6075 114.277C24.7345 114.379 24.8612 114.479 24.9869 114.579C25.466 114.958 25.9315 115.326 26.3465 115.741C26.6201 116.014 26.8606 116.298 27.0555 116.602C26.9499 116.558 26.8582 116.506 26.7778 116.443ZM29.6432 101.555C29.5268 101.419 29.4118 101.288 29.299 101.16C29.0093 100.831 28.734 100.517 28.4876 100.176C28.4467 100.12 28.407 100.063 28.3689 100.006C28.5847 100.183 28.7939 100.378 29 100.585C29.2444 100.833 29.4804 101.059 29.7112 101.28C30.0347 101.59 30.3481 101.891 30.6605 102.228C30.8796 102.464 31.0828 102.704 31.2641 102.953C30.6722 102.624 30.1394 102.12 29.6432 101.555ZM28.5152 104.724C28.0211 104.232 27.5515 103.743 27.1594 103.22C27.3911 103.388 27.5929 103.567 27.8099 103.759C27.9443 103.879 28.0847 104.003 28.2416 104.134C28.3738 104.26 28.5052 104.383 28.6347 104.505C29.11 104.951 29.5596 105.373 29.929 105.831C29.4429 105.536 28.9822 105.145 28.5152 104.724ZM26.3396 107.068C26.6986 107.351 27.0476 107.68 27.4119 108.026C27.5405 108.149 27.6684 108.271 27.795 108.391C28.2122 108.787 28.6144 109.17 28.9748 109.571C27.9267 108.994 27.0273 108.099 26.3396 107.068ZM26.5562 111.902C25.9781 111.361 25.4389 110.803 25.0132 110.193C25.3836 110.463 25.7414 110.794 26.1215 111.145C26.1715 111.191 26.2218 111.238 26.2726 111.285C26.8083 111.812 27.3237 112.338 27.7635 112.899C27.3466 112.61 26.9485 112.268 26.5562 111.902Z" fill="white" stroke="black"/>
<path d="M60.151 99.1386L59.4032 99.917L60.4512 99.9822C59.0285 99.9575 57.6067 99.9549 56.1902 99.9523C55.9729 99.9519 55.7557 99.9515 55.5386 99.951L53.8013 99.9472L55.2708 100.874C55.3868 100.947 55.5069 101.019 55.6287 101.091C55.5008 101.037 55.3702 100.988 55.2367 100.943C52.1026 99.6452 48.674 100.443 45.7182 101.174L44.5595 101.461L45.5768 102.086C48.3089 103.763 49.7603 106.945 50.5275 110.098C51.3047 113.692 51.1212 117.722 48.8524 120.605L48.5898 120.701L48.7213 121.669C49.7711 121.754 50.8481 121.792 51.9114 121.83C52.6405 121.856 53.3631 121.882 54.0662 121.923L54.079 121.923L54.0918 121.923C54.4181 121.925 54.7491 121.942 55.093 121.959L55.1257 121.961C55.4559 121.977 55.7982 121.995 56.1407 121.999C56.8488 122.007 57.5915 121.958 58.326 121.714L58.3367 121.71L58.3471 121.706C59.5235 121.255 60.7306 120.58 61.6101 119.569C61.2246 120.199 60.7474 120.778 60.2298 121.262L59.3893 122.049L60.538 122.126C63.6691 122.337 66.8051 122.517 69.9383 122.698L69.94 122.698L69.9477 122.699L69.9554 122.699C71.3051 122.735 72.9695 122.77 74.3196 121.887C74.9872 121.497 75.5038 120.944 75.9118 120.333C75.5524 120.928 75.0928 121.494 74.6051 122.046L73.9604 122.776L74.9293 122.874C77.7651 123.163 80.6063 123.356 83.4379 123.549L83.4422 123.55L83.4425 123.55C85.8443 123.712 88.3425 123.547 90.6607 122.644L90.9185 122.544L90.9704 122.272C91.5899 119.026 91.2379 115.628 90.0731 112.556L90.0718 112.553C88.1652 107.636 84.7208 103.39 80.5297 100.261L80.528 100.259C76.2531 97.0966 70.9248 95.2823 65.5675 95.4899C64.2914 95.5178 63.2711 96.0984 62.4139 96.8215C61.821 97.3215 61.2674 97.9274 60.7576 98.4851C60.5478 98.7147 60.3455 98.9361 60.151 99.1386Z" fill="white" stroke="black"/>
<path d="M109.621 110.477L109.621 110.477L109.613 110.483C107.561 112.115 105.364 113.565 102.951 114.516L102.942 114.519L102.934 114.523C102.825 114.571 102.71 114.614 102.579 114.662C102.567 114.667 102.554 114.672 102.542 114.676C102.401 114.729 102.243 114.789 102.088 114.861C101.781 115.004 101.447 115.211 101.204 115.572C99.8343 117.314 98.4098 118.98 96.6264 120.189L96.6164 120.195L96.6068 120.203C96.0341 120.632 95.4123 120.996 94.7606 121.351C94.5575 121.462 94.3493 121.573 94.1387 121.685C93.685 121.927 93.2206 122.175 92.7736 122.437L92.4512 122.626L92.5309 122.947L92.3895 122.582L91.9128 122.788C89.6696 123.758 87.2242 124.177 84.7705 124.128L84.5179 125.065C85.0012 125.333 85.4854 125.606 85.9715 125.88C88.429 127.265 90.9368 128.678 93.6368 129.656C93.852 129.755 94.0674 129.802 94.2771 129.808L94.2821 129.819L94.2869 129.809C94.731 129.821 95.149 129.654 95.4836 129.423C102.287 125.081 108.817 120.335 115.307 115.578L115.308 115.578L115.313 115.574C115.699 115.282 116.09 114.991 116.483 114.699C118.577 113.141 120.727 111.542 122.503 109.539L122.581 109.451L122.612 109.337C122.84 108.489 122.901 107.622 122.86 106.772L122.838 106.294L122.359 106.295C117.823 106.308 113.26 107.692 109.621 110.477ZM115.118 112.284C114.626 112.629 114.138 112.971 113.644 113.307C113.49 112.972 113.334 112.639 113.177 112.307C113.454 112.115 113.72 111.924 113.983 111.736C114.454 111.398 114.912 111.069 115.396 110.763C115.552 111.092 115.698 111.43 115.844 111.776C115.6 111.946 115.358 112.115 115.118 112.284ZM98.2893 122.604C102.386 119.833 106.496 117.082 110.615 114.345C110.7 114.499 110.785 114.653 110.869 114.807C110.94 114.936 111.01 115.065 111.082 115.195C108.791 116.789 106.495 118.366 104.198 119.944C102.381 121.192 100.563 122.44 98.7451 123.699C98.6201 123.399 98.4955 123.1 98.371 122.8C98.3438 122.735 98.3165 122.669 98.2893 122.604Z" fill="white" stroke="black"/>
<path d="M98.0368 122.377L97.7448 122.581L97.8423 122.923C97.859 122.982 97.8815 123.06 97.9049 123.141C97.939 123.258 97.975 123.383 97.9978 123.465L98.155 124.028L98.687 123.785C99.3232 123.495 99.9119 123.137 100.473 122.775C100.663 122.652 100.847 122.531 101.029 122.411C101.396 122.169 101.753 121.934 102.125 121.709L102.132 121.706L102.138 121.702C102.437 121.51 102.736 121.318 103.036 121.126C105.819 119.339 108.61 117.549 111.336 115.658L111.681 115.419L111.505 115.037C111.426 114.867 111.35 114.699 111.273 114.529C111.226 114.426 111.179 114.323 111.132 114.218L110.886 113.68L110.396 114.012C108.981 114.971 107.558 115.924 106.133 116.878C103.423 118.692 100.708 120.51 98.0368 122.377Z" fill="white" stroke="black"/>
<path d="M43.6146 121.036L43.6135 121.035C41.8439 119.823 39.4429 118.986 37.1979 119.804C34.9402 120.371 33.1878 122.073 32.1361 124.013L31.851 124.538L32.419 124.726C34.4417 125.393 36.4137 126.22 38.3435 127.14C40.6821 128.277 42.7242 130.019 44.0723 132.229L44.0779 132.238L44.0839 132.247C45.2141 133.932 45.9602 135.802 46.5801 137.759C46.89 138.738 47.1666 139.732 47.445 140.735L47.4544 140.769C47.7289 141.757 48.0058 142.754 48.3154 143.736L48.5866 144.596L49.1723 143.91C50.305 142.585 51.3794 141.213 52.4468 139.849C52.6577 139.58 52.8683 139.311 53.0791 139.042L53.0818 139.039C53.975 137.882 54.7946 136.675 55.603 135.481L55.6737 135.376C56.4608 134.214 57.239 133.064 58.0788 131.959L58.0788 131.959C58.18 131.826 58.3229 131.632 58.4128 131.405C58.5036 131.176 58.551 130.886 58.4396 130.578C57.7799 127.747 56.3014 125.102 54.1734 123.105L54.1661 123.098L54.1586 123.091C54.1091 123.048 54.0559 123.001 53.9997 122.951C53.7986 122.772 53.5585 122.558 53.3071 122.389C52.9754 122.167 52.5657 121.98 52.0705 121.99C50.0462 121.868 48.0248 121.757 46.0005 121.661L44.8263 121.605L45.6006 122.489C46.2481 123.229 46.8195 124.017 47.241 124.878C47.2503 124.898 47.2597 124.918 47.269 124.937C47.3724 125.154 47.4754 125.37 47.5728 125.587C46.5903 123.829 45.3218 122.212 43.6146 121.036Z" fill="white" stroke="black"/>
<path d="M54.6499 122.153L53.2649 122.084L54.2872 123.021C56.3563 124.917 57.7969 127.459 58.4175 130.199L58.6423 131.192L59.2906 130.407C61.2585 128.025 63.3976 125.777 65.6444 123.647L66.468 122.866L65.336 122.785C61.7747 122.531 58.2126 122.33 54.6499 122.153Z" fill="white" stroke="black"/>
<path d="M32.3867 126.698L31.557 126.346L31.6975 127.236C32.433 131.897 34.0861 136.406 36.4366 140.481L36.4364 140.481L36.4435 140.493C37.4163 142.079 38.6437 143.948 40.6844 144.677L40.6848 144.677C42.3752 145.28 44.1642 145.74 46.0051 145.815L46.7043 145.844L46.5048 145.173C45.8853 143.09 45.2128 141.024 44.5428 138.965C44.3615 138.408 44.1804 137.852 44.0006 137.295C43.2347 134.9 42.0093 132.558 40.1038 130.795C38.2622 129.091 35.9205 128.14 33.7106 127.243C33.2621 127.061 32.8191 126.881 32.3867 126.698ZM35.6541 130.849C35.3887 130.709 35.1347 130.572 34.8958 130.426C35.1261 130.533 35.3553 130.647 35.5901 130.763C35.6183 130.777 35.6466 130.79 35.675 130.804C35.9658 130.948 36.2649 131.094 36.5698 131.23C36.6554 131.273 36.7405 131.316 36.825 131.359C37.3818 131.639 37.9142 131.906 38.3877 132.219C38.3388 132.201 38.2897 132.181 38.2403 132.161C37.9637 132.047 37.688 131.911 37.402 131.765C37.3456 131.737 37.2886 131.707 37.231 131.678C37.0097 131.565 36.7807 131.448 36.5528 131.341C36.2944 131.187 36.0216 131.043 35.7599 130.905C35.7244 130.886 35.6891 130.868 35.6541 130.849ZM42.8754 142.984L42.8902 142.989L42.9053 142.993C42.9595 143.008 43.0124 143.026 43.064 143.047C42.4673 142.936 41.8632 142.699 41.2144 142.444C41.1218 142.407 41.0282 142.371 40.9336 142.334C40.9063 142.323 40.879 142.312 40.8519 142.301C40.8691 142.305 40.8862 142.31 40.9034 142.315C41.3425 142.436 41.7619 142.587 42.1978 142.744C42.4179 142.824 42.6422 142.905 42.8754 142.984ZM37.8106 134.215C37.5521 134.08 37.2887 133.942 37.011 133.805C36.8615 133.719 36.7161 133.639 36.5744 133.561C36.2403 133.377 35.927 133.204 35.6306 132.994C35.6178 132.985 35.605 132.976 35.5924 132.967C35.7375 133.021 35.8829 133.082 36.029 133.147C36.4177 133.32 36.7829 133.512 37.1607 133.711C37.3718 133.822 37.5868 133.935 37.812 134.048C38.0637 134.199 38.3238 134.341 38.5746 134.478C38.602 134.493 38.6293 134.508 38.6565 134.523C38.9417 134.679 39.2149 134.831 39.4749 134.994C39.4898 135.003 39.5047 135.012 39.5195 135.022C39.377 134.968 39.2343 134.91 39.091 134.847C38.649 134.653 38.2363 134.437 37.8106 134.215Z" fill="white" stroke="black"/>
<path d="M119.097 52.5751L119.089 52.5788L119.081 52.5829C116.025 54.1326 113.127 56.1731 110.919 58.873L110.919 58.8729L110.911 58.8827C110.856 58.9538 110.797 59.0274 110.736 59.1036C110.269 59.6897 109.68 60.4291 109.57 61.3681L109.436 62.5154L110.364 61.8281C110.759 61.5359 111.084 61.1897 111.374 60.8554C111.472 60.7425 111.564 60.6335 111.654 60.5276C111.84 60.3075 112.015 60.1005 112.209 59.8983C115.421 56.5859 119.432 54.0556 123.796 52.5649L124.235 52.4148L124.118 51.9655C124.069 51.7772 124.022 51.5891 123.974 51.4C123.964 51.357 123.953 51.3139 123.942 51.2708L123.825 50.8061L123.356 50.9029C122.063 51.1695 120.868 51.737 119.743 52.2711C119.525 52.3745 119.31 52.4766 119.097 52.5751Z" fill="#FDFDFD" stroke="black"/>
<path d="M100.515 80.4527L99.8824 80.2704L99.8761 80.9283C99.8753 81.0067 99.8746 81.1639 99.8739 81.3179C99.8733 81.4625 99.8727 81.6043 99.872 81.6759L99.8673 82.1918L100.383 82.1804C100.484 82.1781 100.637 82.1755 100.792 82.1728L100.794 82.1727C100.947 82.1701 101.102 82.1674 101.206 82.1651L101.971 82.1482L101.649 81.4547C101.584 81.3152 101.456 81.0361 101.396 80.9006L101.301 80.6873L101.077 80.6227C101.011 80.6036 100.911 80.5729 100.804 80.5401L100.8 80.5389C100.698 80.5075 100.59 80.4744 100.515 80.4527Z" fill="#FDFDFD" stroke="black"/>
<path d="M104.049 84.5294L104.288 85.5903L104.131 85.5261L103.896 85.7574C103.722 85.9288 103.539 86.1025 103.352 86.28C102.817 86.7876 102.25 87.3256 101.775 87.9265L101.477 88.3031L101.842 88.6158C101.913 88.6775 102.021 88.7714 102.131 88.8674L102.133 88.8686C102.241 88.9631 102.352 89.0593 102.426 89.1236L102.759 89.4093L103.086 89.1167C103.441 88.7981 103.772 88.4818 104.095 88.1722C104.491 87.7932 104.876 87.4242 105.285 87.0734L105.685 87.2368L105.591 86.8179C105.667 86.7562 105.744 86.6952 105.823 86.6349L106.349 86.2301L105.815 85.836C105.644 85.7101 105.304 85.4592 105.131 85.3311L104.049 84.5294Z" fill="#FDFDFD" stroke="black"/>
<path d="M115.141 110.51C114.579 110.811 113.915 111.166 113.412 111.725L112.694 111.538L112.824 112.301C112.862 112.519 112.935 112.952 112.969 113.165L113.111 114.062L113.793 113.463C113.953 113.323 114.157 113.194 114.403 113.048C114.444 113.024 114.486 112.999 114.529 112.974C114.734 112.854 114.961 112.721 115.168 112.575C115.684 112.208 116.195 111.671 116.151 110.778L116.111 109.98L115.41 110.365C115.324 110.412 115.234 110.461 115.141 110.51Z" fill="#FDFDFD" stroke="black"/>
<path d="M97.9039 76.7478C97.9037 77.0067 97.9095 77.2684 97.9212 77.53C97.5458 77.5824 97.1706 77.6466 96.8016 77.7224C96.8292 78.4367 96.587 79.3246 97.2454 79.8337C97.9167 80.2543 98.6332 79.6648 99.1661 79.2852C99.2479 78.3273 98.6687 77.5458 98.0886 76.8555C99.6299 76.5773 100.83 78.41 100.097 79.7236C99.5288 81.0512 97.8316 81.4653 96.5997 80.8335C96.2402 80.2737 95.8121 79.6742 95.9378 78.9712C96.037 77.8688 97.1075 77.3185 97.9039 76.7478Z" fill="black"/>
<path d="M97.0331 77.8206C97.5373 77.7389 98.0476 77.6629 98.5583 77.6104C98.617 77.8709 98.7344 78.389 98.7901 78.6496C98.3803 79.0058 97.8675 79.632 97.2597 79.2836C96.7259 78.96 97.044 78.3117 97.0331 77.8206Z" fill="black"/>
<path d="M27.3281 98.8145C28.1171 99.1059 28.7704 99.6445 29.3571 100.235C30.4465 101.34 31.7366 102.344 32.3255 103.829C31.0629 103.674 30.0728 102.802 29.267 101.884C28.4788 100.963 27.5469 100.06 27.3281 98.8145Z" fill="black"/>
<path d="M23.8809 109.104C24.9896 109.356 25.811 110.179 26.6188 110.923C27.5721 111.861 28.5296 112.855 29.0865 114.093C27.9706 113.782 27.0481 113.043 26.2161 112.267C25.2548 111.368 24.3324 110.364 23.8809 109.104Z" fill="black"/>
<path d="M23.1512 113.389C23.7663 112.999 24.399 113.541 24.9035 113.874C26.0956 114.834 27.4908 115.797 27.9427 117.343C27.437 117.225 26.8916 117.169 26.4694 116.838C25.1577 115.922 23.8979 114.826 23.1512 113.389Z" fill="black"/>
<path d="M33.1504 129.307C34.4586 129.531 35.5924 130.25 36.7868 130.78C37.9173 131.352 39.1357 131.904 39.9207 132.943C38.6004 133.108 37.4591 132.315 36.3206 131.784C35.1788 131.1 33.7147 130.615 33.1504 129.307Z" fill="black"/>
<path d="M34.2832 132.162C35.6559 132.244 36.8555 133.011 38.0544 133.611C39.1486 134.27 40.4245 134.762 41.1609 135.867C39.563 135.846 38.1689 134.933 36.777 134.249C35.8383 133.708 34.7217 133.232 34.2832 132.162Z" fill="black"/>
<path d="M105.399 80.6004C105.806 80.356 106.215 80.1175 106.631 79.8847C106.781 80.0285 107.082 80.3102 107.235 80.4539C107.578 80.258 107.927 80.065 108.275 79.8719C108.593 80.1267 108.916 80.3814 109.242 80.6331C108.986 80.7682 108.725 80.8975 108.459 81.0181C108.433 81.6659 108.16 82.2309 107.666 82.6508C107.387 82.5216 107.107 82.3866 106.82 82.29C105.795 82.9275 104.874 83.7216 103.935 84.4778L103.9 84.1108C104.889 83.3211 105.968 82.6383 106.875 81.7474C104.947 82.3667 103.622 84.0346 102.024 85.1938L102.636 84.0182C101.752 84.7673 100.929 85.5827 100.151 86.4384C100.289 86.5736 100.569 86.844 100.707 86.9792C101.735 85.9827 102.775 84.9947 103.9 84.1108C103.198 85.462 101.711 86.198 100.721 87.3348C100.411 87.0475 100.102 86.7631 99.7928 86.4787C101.081 85.0087 102.611 83.7922 104.161 82.6106C104.723 82.2069 105.288 81.809 105.85 81.4053C105.736 81.2019 105.513 80.8009 105.399 80.6004ZM105.832 80.4673C106.337 80.9533 106.842 81.454 107.456 81.8082C107.668 81.7976 107.809 81.6885 107.887 81.4838C107.299 80.9702 106.738 80.0883 105.832 80.4673ZM107.745 80.6427C107.766 81.057 108.478 81.0589 108.498 80.6407C108.477 80.2175 107.765 80.2274 107.745 80.6427Z" fill="#1F1F1F"/>
<path d="M99.1328 81.7368L99.1491 81.9345L99.2966 82.0673C99.3744 82.1374 99.4908 82.2408 99.6054 82.3425L99.6067 82.3437C99.7228 82.4468 99.8368 82.5481 99.9118 82.6156L100.099 82.7841L100.346 82.7341C100.407 82.7216 100.48 82.7138 100.574 82.7069C100.598 82.7052 100.625 82.7034 100.655 82.7015C100.726 82.6968 100.81 82.6913 100.886 82.6836C101.11 82.6613 101.41 82.6112 101.682 82.4167L101.682 82.4168L101.689 82.4118C101.797 82.332 101.88 82.2434 101.944 82.1506L101.971 82.15L101.96 82.1266C102.114 81.8906 102.148 81.6304 102.149 81.4211C102.15 81.294 102.139 81.1647 102.13 81.0634C102.129 81.0513 102.128 81.0397 102.127 81.0285C102.116 80.9104 102.111 80.8301 102.115 80.7639L102.136 80.4233L101.826 80.2801C101.316 80.0445 100.66 79.9662 100.11 80.1595C99.8259 80.2592 99.5552 80.4377 99.3673 80.72C99.1779 81.0046 99.1011 81.352 99.1328 81.7368Z" fill="#1F1F1F" stroke="black"/>
<path d="M109.423 81.9009C110.097 81.4948 110.728 81.6956 111.205 82.2352C111.055 82.6445 110.62 82.81 110.296 83.0525C109.234 83.7173 108.239 84.4807 107.211 85.1977C107.158 85.4931 107.048 86.0839 106.995 86.3792C106.398 85.7246 105.98 84.4953 104.96 84.5326L104.804 84.8037C105.381 85.3558 105.984 85.8809 106.556 86.4448L106.136 86.7807L105.745 86.3539C104.688 87.254 103.655 88.177 102.658 89.1434C102.366 88.841 102.077 88.5414 101.791 88.2418C102.609 87.4206 103.426 86.5964 104.27 85.8011L104.725 86.1617C104.58 85.6913 104.373 85.2634 104.283 84.7858C104.586 84.5232 104.923 84.3039 105.253 84.0789C105.432 84.1779 105.786 84.376 105.965 84.478C106.677 84.0739 107.312 83.5539 108.009 83.1237C108.399 82.815 108.793 82.5091 109.156 82.1687C109.29 82.2422 109.424 82.3216 109.558 82.401C108.552 83.447 107.235 84.1675 106.361 85.3401C107.966 84.5102 109.334 83.2944 110.884 82.3688C110.401 82.197 109.893 82.1112 109.423 81.9009ZM104.248 86.1164C103.542 86.8115 102.783 87.4608 102.168 88.2393C102.315 88.3655 102.606 88.6209 102.753 88.7471C103.679 87.9176 104.529 87.0015 105.518 86.2412C105.348 86.1156 105.007 85.8642 104.834 85.7357L104.987 86.4148C104.74 86.3143 104.494 86.2168 104.248 86.1164Z" fill="#1F1F1F"/>
<path d="M105.641 80.0061L104.939 80.2997L105.487 80.8276C105.517 80.8569 105.548 80.8864 105.579 80.9161C106.048 81.3683 106.572 81.8746 107.208 82.2414L107.336 82.315L107.483 82.3077C107.672 82.2982 107.861 82.2421 108.025 82.1177C108.188 81.9948 108.292 81.831 108.357 81.6617L108.48 81.3364L108.218 81.1074C108.117 81.0187 108.018 80.9194 107.903 80.8042C107.87 80.7712 107.836 80.7368 107.801 80.7011C107.649 80.5502 107.472 80.3796 107.275 80.2363C107.075 80.0917 106.835 79.9597 106.552 79.9036C106.26 79.846 105.955 79.875 105.641 80.0061Z" fill="#FEFEFE" stroke="black"/>
<path d="M102.944 90.0665L102.791 90.2001L102.775 90.4023C102.744 90.7836 102.709 91.1655 102.673 91.5507L102.673 91.5521C102.637 91.9358 102.601 92.3229 102.57 92.7103L102.459 94.0836L103.425 93.1014C106.43 90.0467 109.825 87.3883 113.461 85.1135L113.662 84.9874L113.692 84.7516C113.752 84.2684 113.809 83.7827 113.863 83.3003L113.966 82.391L113.145 82.796C109.358 84.6652 106.06 87.3396 102.944 90.0665Z" fill="#FEFEFE" stroke="black"/>
<path d="M66.1835 92.3389L64.7392 92.6346L66.0654 93.2785C66.7324 93.6024 67.4339 93.656 68.0624 93.6732C68.1996 93.6769 68.3321 93.6791 68.4609 93.6811C68.9512 93.6891 69.3868 93.6961 69.814 93.7874L69.8381 93.7926L69.8626 93.7953C79.3519 94.8645 87.5987 101.755 91.354 110.432L91.355 110.434C92.7965 113.722 93.3181 117.352 93.1893 120.953L93.1459 122.165L94.0308 121.336C94.4282 120.964 94.5621 120.503 94.6079 120.09C94.6306 119.886 94.633 119.684 94.6322 119.501C94.632 119.45 94.6316 119.4 94.6312 119.353C94.63 119.224 94.629 119.108 94.6329 118.992L94.6331 118.992L94.6332 118.979C94.6578 115.488 94.0354 111.954 92.5782 108.74L92.5782 108.74L92.5762 108.736C90.4607 104.185 87.2127 100.116 83.1363 97.1535L83.1346 97.1523C79.6229 94.6223 75.4533 93.148 71.2383 92.4657L71.2215 92.4629L71.2045 92.4614C70.9057 92.4337 70.5987 92.3991 70.2856 92.3639C68.9764 92.2164 67.5604 92.0569 66.1835 92.3389Z" fill="#FEFEFE" stroke="black"/>
<path d="M66.2491 93.2735L65.7818 93.2873L65.7642 93.7544C65.7585 93.9045 65.75 94.1963 65.7473 94.3473L65.7385 94.8414L66.2325 94.856C69.1717 94.9427 72.0368 95.7853 74.8539 96.7924L74.8551 96.7928C77.0748 97.5803 79.159 98.7315 81.0384 100.16L81.0384 100.16L81.0416 100.163C86.1693 103.996 90.259 109.517 91.3696 115.855L91.3709 115.863L91.3724 115.87C91.7 117.457 91.6909 119.075 91.6814 120.748C91.6797 121.06 91.6779 121.374 91.6783 121.69L91.6797 122.759L92.4992 122.073C92.9977 121.656 93.2529 121.11 93.2369 120.467C93.3392 118.27 93.1612 116.05 92.6333 113.905C91.1885 107.701 87.0553 102.442 82.102 98.6801L82.102 98.6801L82.0944 98.6745C77.5603 95.3642 71.9861 93.1045 66.2491 93.2735Z" fill="#FEFEFE" stroke="black"/>
<path d="M32.4371 124.721L31.9514 124.546L31.792 125.037L31.791 125.04C31.7307 125.226 31.609 125.601 31.5504 125.791L31.4103 126.244L31.8558 126.408C32.0484 126.478 32.2407 126.548 32.4326 126.618C34.4161 127.342 36.3537 128.049 38.075 129.168L38.075 129.168L38.0779 129.17C39.975 130.386 41.6515 131.986 42.6998 133.951L42.701 133.953C44.2274 136.778 45.1211 139.853 46.0288 142.976C46.2315 143.674 46.435 144.374 46.6464 145.074L46.8127 145.625L47.3349 145.384C47.5627 145.278 47.7863 145.175 48.0124 145.075L48.3995 144.903L48.2936 144.493C48.219 144.204 48.1447 143.914 48.0702 143.623C47.3229 140.71 46.5599 137.735 45.3556 134.924L45.3556 134.924L45.3545 134.921C44.1711 132.2 42.2849 129.691 39.6981 128.092C37.4172 126.664 34.9268 125.619 32.4371 124.721Z" fill="#FEFEFE" stroke="black"/>
<path d="M107.246 80.6186L107.244 80.6433L107.246 80.6681C107.259 80.9309 107.389 81.143 107.571 81.2778C107.741 81.4041 107.942 81.4541 108.122 81.4541C108.302 81.4541 108.503 81.4041 108.674 81.2767C108.856 81.1405 108.985 80.9274 108.998 80.665L108.999 80.6405L108.998 80.616C108.984 80.3544 108.857 80.1403 108.673 80.0032C108.501 79.8751 108.298 79.8261 108.117 79.8275C107.785 79.8302 107.274 80.0442 107.246 80.6186Z" fill="#EEEEEE" stroke="black"/>
<path d="M25.0938 105.822C26.1569 106.14 26.9713 106.916 27.7586 107.664C28.6995 108.57 29.7161 109.445 30.3394 110.622C27.9269 110.084 26.0514 108.019 25.0938 105.822Z" fill="#020202"/>
<path d="M112.265 111.718L111.905 111.959L112.091 112.349C112.393 112.982 112.691 113.617 112.979 114.256L113.221 114.792L113.711 114.467C114.384 114.021 115.05 113.554 115.709 113.092C116.057 112.848 116.403 112.605 116.747 112.368L117.081 112.137L116.924 111.763C116.912 111.734 116.9 111.705 116.888 111.676C116.631 111.064 116.365 110.43 116.046 109.822L115.804 109.361L115.353 109.622C114.661 110.021 113.986 110.504 113.336 110.969C112.971 111.23 112.613 111.486 112.265 111.718Z" fill="#020202" stroke="black"/>
<path d="M35.3223 135.371C37.0433 135.507 38.5413 136.465 40.0751 137.175C40.6953 137.55 41.5481 137.802 41.7711 138.573C40.775 138.763 39.9116 138.032 39.016 137.708C37.7445 137.015 36.0762 136.74 35.3223 135.371Z" fill="#020202"/>
<path d="M37.5508 138.553C39.0344 138.726 40.3823 139.414 41.7283 140.017C42.3283 140.277 42.8754 140.674 43.2176 141.246C41.8875 141.231 40.6994 140.584 39.5196 140.048C38.7761 139.685 37.8956 139.381 37.5508 138.553Z" fill="#030303"/>
<path d="M38.9556 141.637C40.3811 141.443 41.7216 142.064 43.0377 142.511C43.6089 142.666 44.027 143.081 44.3437 143.565C43.0835 143.781 41.8978 143.245 40.7524 142.8C40.0846 142.535 39.447 142.17 38.9556 141.637Z" fill="#030303"/>
</svg>
