<svg width="40" height="40" viewBox="0 0 40 40" fill="none" xmlns="http://www.w3.org/2000/svg">
<g clip-path="url(#clip0_1837_26334)">
<path d="M32.2933 20.6933L14.6283 32.4699C14.5028 32.5535 14.357 32.6014 14.2064 32.6086C14.0558 32.6158 13.9061 32.582 13.7733 32.5109C13.6404 32.4397 13.5293 32.3338 13.4518 32.2045C13.3743 32.0752 13.3333 31.9274 13.3333 31.7766V8.22328C13.3333 8.07255 13.3743 7.92465 13.4518 7.79536C13.5293 7.66606 13.6404 7.5602 13.7733 7.48905C13.9061 7.4179 14.0558 7.38413 14.2064 7.39133C14.357 7.39854 14.5028 7.44644 14.6283 7.52995L32.2933 19.3066C32.4074 19.3827 32.501 19.4858 32.5657 19.6068C32.6304 19.7277 32.6643 19.8628 32.6643 20C32.6643 20.1371 32.6304 20.2722 32.5657 20.3931C32.501 20.5141 32.4074 20.6172 32.2933 20.6933Z" fill="white"/>
</g>
<defs>
<clipPath id="clip0_1837_26334">
<rect width="40" height="40" fill="white"/>
</clipPath>
</defs>
</svg>
