<svg width="150" height="176" viewBox="0 0 150 176" fill="none" xmlns="http://www.w3.org/2000/svg">
<path d="M67.4197 168.301C68.7296 168.05 69.9586 167.477 71.0611 166.736C69.9023 167.624 68.4874 168.079 67.1067 168.474C66.5711 168.506 66.0091 168.512 65.5265 168.778C65.1357 169.01 64.62 169.06 64.3364 169.446L63.0171 169.771C62.4459 169.615 61.8623 169.808 61.2827 169.768C62.7012 169.714 64.1347 169.471 65.4042 168.806C66.0194 168.442 66.7592 168.526 67.4197 168.301Z" fill="#A79CEE"/>
<path d="M60.3784 166.721C60.4449 166.478 60.5655 166.448 60.7374 166.633C60.6674 166.867 60.5486 166.898 60.3784 166.721Z" fill="black"/>
<path d="M53.0124 14.5546L54.0646 14.2949C54.402 14.4642 54.7737 14.4109 55.1217 14.3112C55.9096 14.0598 56.7454 14.2585 57.5486 14.1064C57.907 14.018 58.266 14.1311 58.6164 14.2032C57.3185 14.1725 56.0019 14.1217 54.7295 14.4188C53.6711 14.4598 52.6898 14.8883 51.6897 15.1906C51.4967 15.4631 51.2777 15.7173 51.0482 15.9603C51.2629 15.6824 51.4809 15.4054 51.7206 15.1476C52.1282 14.8899 52.7441 15.0397 53.0124 14.5546Z" fill="#A79CEE"/>
<path d="M53.5823 15.8348C54.4777 15.389 55.5148 15.0745 56.5196 15.2838C57.8803 15.507 59.0385 16.3068 60.1937 17.0072C61.0207 17.6069 61.9146 18.1531 62.579 18.9424C63.486 20.1968 64.2839 21.5644 64.6514 23.0845C64.9008 23.4649 64.9545 23.932 65.1727 24.3294C65.267 25.2793 65.7543 26.1369 65.9016 27.0768C66.208 28.0314 66.5565 28.9694 66.8027 29.9419C67.1627 30.4459 67.1665 31.1287 67.342 31.7152C66.7405 31.8668 66.1375 32.0125 65.5302 32.1409C65.2569 31.8572 64.9958 31.4982 64.5747 31.4512C63.279 31.1858 61.9669 31.659 60.7699 32.1116C60.5087 32.0266 60.287 32.2138 60.0609 32.3019C59.76 32.4116 59.4437 32.4712 59.1374 32.5591C58.5126 32.9782 57.6883 32.926 57.0133 33.2481C56.8208 33.3727 56.6047 33.3644 56.3887 33.3376C56.1503 32.9206 55.9845 32.4673 55.9533 31.9853C55.0874 28.8451 53.304 26.0299 52.4922 22.8717C52.459 22.8368 52.3928 22.7684 52.3599 22.735C52.2739 22.0371 52.1705 21.3435 51.9778 20.6626C51.8812 19.5038 51.9254 18.298 52.2963 17.187C52.4559 16.5424 53.0777 16.1919 53.5823 15.8348Z" fill="#A79CEE"/>
<path d="M56.4457 35.5018C57.3463 34.7836 58.5352 34.6226 59.5598 34.1511C60.5249 33.9067 61.4841 33.5822 62.4824 33.5221C62.8759 33.4697 63.2586 33.2736 63.6616 33.3466C64.9887 33.1838 66.3292 33.1379 67.6623 33.2431C68.0585 33.6504 68.4452 34.0693 68.7657 34.5384C69.0181 34.8811 68.9929 35.3339 69.1759 35.7075C69.5322 36.3588 69.5451 37.1286 69.8241 37.8097C70.193 38.5933 70.2455 39.4796 70.5767 40.2787C70.7751 40.7333 70.7148 41.2502 70.8889 41.7123C71.3346 42.7819 71.3598 43.9568 71.6813 45.06C71.6049 45.8858 71.9129 46.6721 71.8768 47.4926C71.9148 47.8836 71.4801 48.1002 71.1552 48.1496C70.3736 48.1146 69.9469 47.3714 69.3891 46.9332C68.9411 47.0268 68.4971 47.2365 68.0317 47.1665C67.3951 47.2821 66.7774 47.4931 66.1362 47.5836C65.2382 47.6882 64.389 48.0595 63.4779 48.0734C62.4582 48.3589 61.3966 48.3992 60.3812 48.7022C60.0136 48.8221 59.6314 48.8333 59.2535 48.7742C59.0005 47.8988 58.8603 46.9879 58.4821 46.1542C58.0147 44.2169 57.2176 42.3532 57.0379 40.3526C56.6979 39.4556 56.6508 38.4909 56.597 37.5433C56.4627 36.8681 56.5764 36.1748 56.4457 35.5018Z" fill="#A79CEE"/>
<path d="M9.44131 48.2398C10.6753 46.8327 12.8609 46.1932 14.5753 47.082C14.8925 47.3256 15.1494 47.6364 15.4328 47.9175C16.6935 49.4758 17.5411 51.3131 18.2553 53.1649C19.2018 55.9018 19.827 58.7718 21.2642 61.3137C20.7089 61.6586 20.0804 61.8445 19.5038 62.1347C18.3375 62.5873 17.1532 63.0167 15.9921 63.4649C15.2119 63.7037 14.5112 64.1338 13.7512 64.423C13.4287 64.6012 13.0878 64.7423 12.7567 64.9041C12.1675 63.565 11.4248 62.3024 10.6348 61.0729C9.77389 59.3066 9.06805 57.4574 8.67352 55.5283C8.39765 54.6601 8.35539 53.7528 8.25726 52.8561C8.32654 51.2591 8.61961 49.633 9.44131 48.2398Z" fill="#A79CEE"/>
<path d="M59.9357 51.1989C61.1462 50.6261 62.4176 50.1629 63.7247 49.8695C64.9531 49.3754 66.2953 49.3675 67.5766 49.1067C67.921 49.1233 68.2683 49.1516 68.6121 49.1037C69.6146 48.9794 70.628 49.0743 71.6261 49.2006C72.0118 49.7029 72.0222 50.3625 72.2809 50.9238C72.4785 51.3817 72.6704 51.8409 72.7875 52.3279C73.2822 53.4839 73.6986 54.6716 74.2143 55.8193C74.3308 56.1478 74.3773 56.4982 74.5141 56.8217C74.9165 57.691 74.981 58.6699 75.354 59.551C75.4588 60.4122 75.7046 61.2462 75.8892 62.0938C75.4486 62.2425 74.9947 62.3499 74.5826 62.5702C74.218 62.7464 73.7971 62.6255 73.4302 62.7607C72.8488 63.0813 72.1785 63.1667 71.5374 63.308C71.0367 63.219 70.5651 63.5418 70.0606 63.4753C68.766 63.5762 67.3765 63.5111 66.2325 62.831C65.484 62.3936 64.7195 61.8478 64.375 61.0196C64.2926 60.8167 64.1543 60.6244 63.9224 60.5955C62.3029 60.1975 61.0734 58.7593 60.7243 57.1577C60.5933 56.4709 60.3371 55.8073 60.3008 55.1049C60.2771 54.5533 59.9675 54.0353 60.0489 53.4793C60.1418 52.7141 59.4427 51.8965 59.9357 51.1989Z" fill="#A79CEE"/>
<path d="M17.7917 63.9735C19.0526 63.6423 20.1972 62.9024 21.5219 62.8173C22.0077 62.8082 22.511 62.9011 22.9174 63.1812C23.682 63.7963 24.2855 64.5882 24.8065 65.4144C25.1645 65.9851 25.6209 66.5054 25.867 67.1407C25.8764 67.4971 25.8083 67.8512 25.6779 68.1836C25.1225 69.0214 24.1453 69.4104 23.2035 69.6367C22.3934 69.9229 21.5557 70.2158 20.8844 70.7711C19.6272 72.0901 18.3279 73.3701 17.0305 74.6512C16.0217 74.0948 15.312 73.0658 14.8438 72.0295C14.4028 70.5923 14.1324 69.1099 13.9889 67.6177C13.851 66.6908 14.3708 65.7587 15.1304 65.2494C15.9374 64.6699 16.9041 64.382 17.7917 63.9735Z" fill="#A79CEE"/>
<path d="M58.4564 62.055C58.5145 62.016 58.6293 61.9384 58.686 61.8997C59.6621 61.6188 60.6586 61.4206 61.6372 61.1559C62.5133 61.4864 63.0649 62.2927 63.7785 62.8572C65.2594 64.1286 66.2611 65.8417 67.0699 67.5962C67.3646 68.104 67.5072 68.6817 67.7928 69.1964C68.2134 69.8964 67.8369 70.6977 67.7908 71.4405C67.758 72.8484 67.5733 74.246 67.4796 75.6504C67.4978 76.5914 67.3083 77.5206 67.2377 78.4573C67.2422 78.544 67.2529 78.7184 67.2577 78.8065C67.234 79.4653 67.2567 80.1249 67.221 80.7851C67.2683 81.3448 67.2637 81.9064 67.2944 82.4671C67.4935 83.6545 67.5439 84.8693 67.8123 86.0443C68.0237 87.88 68.6337 89.6466 69.0184 91.455C69.0739 91.9479 69.5346 92.3485 69.3928 92.8655C69.3994 93.429 69.855 93.8648 69.7967 94.4274C69.871 95.2837 70.3168 96.0915 70.2707 96.959C70.5617 97.9821 70.6216 99.0422 70.6007 100.099C70.6206 101.465 70.557 102.86 70.0662 104.153C69.9796 104.139 69.8071 104.114 69.7208 104.101C69.3909 103.738 69.1543 103.309 68.9076 102.89C68.8375 102.681 68.7725 102.474 68.7017 102.268C68.4269 101.791 68.3361 101.223 68.0515 100.744C67.6272 99.3116 66.8719 97.7301 65.3299 97.2592C64.5872 97.2069 63.8564 97.0531 63.1114 97.0229C61.2921 97.2625 60.1312 98.9781 59.7474 100.648C59.5781 101.478 59.7656 102.338 59.5568 103.164C59.0995 103.082 58.8412 102.641 58.4878 102.382C57.9488 101.127 57.9203 99.7332 57.5141 98.4368C57.5526 97.782 57.2093 97.1707 57.2649 96.5226C57.1118 95.6841 56.8198 94.8754 56.7288 94.0262C56.6271 93.2522 56.2957 92.5209 56.2683 91.7361C56.2433 91.3604 56.1153 91.0039 56.0566 90.635C56.0427 89.83 55.7443 89.0705 55.5915 88.289C55.4315 87.3599 55.0839 86.4756 54.9402 85.544C54.9068 84.6852 54.6069 83.8692 54.4201 83.0376C53.9161 80.8521 53.3439 78.6835 52.7975 76.5069C52.3014 75.5699 52.3351 74.4529 51.838 73.5177C51.6122 72.7526 51.4357 71.9754 51.2535 71.1996C51.1385 70.4965 50.6682 69.9012 50.6432 69.1759C50.6056 68.2751 51.2306 67.5572 51.5466 66.7601C52.3488 65.575 53.3884 64.5593 54.5637 63.7441C55.801 63.0553 57.0953 62.4479 58.4564 62.055ZM59.9665 91.5795C59.6881 91.93 59.265 92.2808 59.3277 92.7781C60.218 92.9479 61.0996 92.7458 61.9859 92.6748C62.6472 92.5779 63.2153 92.2036 63.8395 91.9879C64.7135 91.4303 65.6723 90.7733 66.0548 89.7719C65.0384 90.2137 63.9237 90.264 62.8649 90.553C62.4705 90.6457 62.0429 90.5727 61.6708 90.7554C61.1004 91.0209 60.442 91.1418 59.9665 91.5795Z" fill="#A79CEE"/>
<path d="M21.5151 73.2935C22.6789 72.3133 23.9 71.3467 25.3344 70.7956C25.7807 70.67 26.2378 70.4509 26.709 70.5071C27.2829 71.622 27.6738 72.8252 28.2052 73.9614C28.5229 74.6622 28.8351 75.3659 29.094 76.0904C29.8341 77.7602 30.5618 79.4424 31.2304 81.1406C29.0803 81.9362 27.4012 83.5363 25.708 85.0167C25.1793 85.5507 24.5721 85.9978 24.0517 86.5404C23.7042 86.8295 23.4351 87.23 23.0057 87.4053C22.7832 86.9906 22.5833 86.5672 22.3706 86.1484C21.7724 84.904 21.0893 83.7021 20.5315 82.44C19.8485 81.2073 19.2951 79.9071 18.8186 78.5818C18.6144 77.7545 18.1548 76.9902 18.1331 76.1224C18.341 75.817 18.665 75.62 18.9387 75.3815C19.8278 74.7232 20.6238 73.9493 21.5151 73.2935Z" fill="#A79CEE"/>
<path d="M39.5962 67.9457C40.8203 67.2909 42.2949 67.1333 43.6387 67.4684C44.8836 67.7401 46.2162 67.6746 47.3896 68.2304C47.8227 68.4191 48.1457 68.786 48.4328 69.1509C48.7167 69.9955 48.8526 70.8829 49.1097 71.7372C49.6198 72.8247 49.7141 74.0488 50.1048 75.1766C50.4426 75.9586 50.5941 76.8036 50.7987 77.6262C51.5001 80.3805 52.1862 83.1416 52.8349 85.9073C52.9042 87.3669 53.3691 88.7644 53.4761 90.2209C53.7166 91.395 53.7892 92.5936 53.9467 93.7805C54.0452 94.9219 54.3159 96.0562 54.2719 97.2066C52.9943 97.4018 51.6966 97.3279 50.4094 97.3715C49.5072 97.5587 48.6841 98.0791 48.0747 98.7669C47.7563 100.515 47.4922 102.271 47.1897 104.021C47.1172 104.026 46.9758 104.04 46.9047 104.045C46.2829 102.468 45.501 100.959 44.889 99.3777C43.7368 96.7994 42.6402 94.1966 41.5686 91.583C41.1411 90.6182 40.7369 89.6354 40.382 88.6405C39.7966 87.3667 39.3801 86.0159 38.9258 84.6928C38.6698 84.2047 38.6065 83.649 38.45 83.1271C37.8606 81.6434 37.6144 80.0472 37.1991 78.5082C37.1648 77.8575 36.9934 77.2315 36.864 76.5952C36.8186 75.5253 36.3921 74.4711 36.5962 73.3951C36.7862 72.3935 37.0741 71.4077 37.5061 70.4819C37.907 69.4421 38.65 68.5349 39.5962 67.9457ZM45.11 89.5309C45.3895 90.1641 46.1217 90.3237 46.7477 90.2462C48.0632 90.0986 49.3772 89.9206 50.6499 89.5372L50.4303 89.3773C49.3538 89.3951 48.2763 89.3715 47.2021 89.4734C46.5053 89.4637 45.8049 89.4579 45.11 89.5309Z" fill="#A79CEE"/>
<path d="M68.426 65.8937C68.2457 65.6811 68.41 65.4111 68.4404 65.1787C69.3167 65.0548 70.2004 65.2417 71.0796 65.2418C72.1093 65.2341 73.1351 65.3228 74.1609 65.3991C74.5412 65.4054 74.9229 65.4482 75.3015 65.3917C75.7278 65.422 76.1596 65.4248 76.5799 65.512C76.8234 65.669 76.8853 65.9756 77.0158 66.2175C76.9418 66.8471 77.3873 67.3546 77.4856 67.9525C77.7768 69.2696 78.2465 70.5365 78.5294 71.8572C79.0776 73.3049 79.2913 74.8629 79.8689 76.2988C80.4908 78.931 81.3915 81.4697 82.0279 84.0983C82.5466 85.0082 82.4808 86.1516 82.9701 87.0857C82.9678 87.4944 83.0888 87.8726 83.2792 88.2321C83.5229 89.176 83.7623 90.1209 83.9901 91.0687C83.5558 91.2806 83.1961 90.9274 82.8097 90.7903C81.9946 90.4324 81.161 90.1177 80.3455 89.7584C79.7281 89.5336 79.1737 89.1653 78.5431 88.9745C79.8506 91.0032 81.6994 92.655 83.7419 93.9187C83.9669 94.0942 84.1886 94.275 84.4176 94.448C84.3594 94.5178 84.2433 94.6588 84.1855 94.7301C82.0736 94.5892 79.949 94.6208 77.8356 94.4925C76.7667 94.5285 75.7073 94.291 74.6382 94.3886C75.0913 94.9266 75.7291 95.2465 76.3336 95.5809C77.3458 95.9639 78.4291 96.0985 79.4681 96.3841C79.7143 96.8577 79.058 96.8872 78.7697 97.0169C77.71 97.4894 76.6064 97.8403 75.537 98.286C75.1516 98.5397 74.6747 98.5727 74.2713 98.7909C73.7388 98.9854 73.2483 99.3313 72.6674 99.3669C72.3589 98.3974 72.2516 97.3891 72.1553 96.3811C71.9539 95.6024 71.9113 94.7937 71.691 94.0196C71.5288 93.4375 71.4676 92.8274 71.4744 92.2251C71.4137 91.792 71.2152 91.3682 71.288 90.9268C71.1149 89.9886 70.7427 89.0795 70.7641 88.1118C70.7628 87.5516 70.4827 87.0341 70.4858 86.4728C70.4544 85.8091 70.1187 85.1913 70.1628 84.5214C70.2054 83.9703 69.9487 83.4608 69.8988 82.9219C69.9476 82.7266 70.1535 82.6373 70.288 82.5086C71.285 81.6635 72.3188 80.8678 73.326 80.0387C74.0336 79.3251 74.9385 78.843 75.6299 78.1134C76.428 77.3544 77.0784 76.3839 77.2553 75.2792C77.0346 75.7387 76.6895 76.1118 76.3132 76.4464C75.1862 76.9956 74.1035 77.6617 72.9149 78.0675C72.7208 77.618 72.9296 77.1538 72.9675 76.6963C73.5686 74.0348 74.6106 71.4447 74.6808 68.6848C73.8186 70.1634 73.3018 71.8185 72.4117 73.284C71.867 74.5641 71.1343 75.7628 70.2754 76.8556C69.9689 77.1484 69.714 77.544 69.2811 77.6492C69.1936 77.3321 69.1496 77.0041 69.2177 76.6809C69.4636 74.9325 69.8708 73.2135 70.1587 71.4732C70.2867 70.7564 70.2112 70.0266 70.2438 69.304C70.2923 68.4898 70.1635 67.6808 69.8855 66.9163C69.5216 66.4025 68.719 66.482 68.426 65.8937Z" fill="#A79CEE"/>
<path d="M30.8474 83.909C31.2455 83.532 31.782 83.803 32.1831 84.012C33.1873 84.7805 33.6728 85.9927 34.3902 86.9967C34.5785 87.2983 34.8906 87.5646 34.8924 87.9461C34.687 88.274 34.4279 88.5658 34.2286 88.8999C34.2343 88.9539 34.2474 89.0631 34.2534 89.1186C35.9083 89.1675 37.5579 89.769 38.7513 90.9358C40.0267 92.1609 40.7791 93.837 41.2107 95.5229C41.2502 96.2385 40.3709 96.4 39.816 96.3476C38.7106 96.217 37.5306 96.0401 36.4792 96.5213C35.9364 96.7985 35.3755 97.0524 34.7722 97.1659C33.6973 97.3835 32.6534 97.7705 31.5518 97.8299C30.3328 98.0938 29.1052 98.3598 27.9447 98.8233C27.4496 99.0256 27.0511 99.4011 26.5722 99.6317C25.8987 99.8288 25.0369 99.5687 24.7442 98.8879C24.2187 97.7257 24.0985 96.4341 23.6931 95.2345C23.255 94.451 22.8898 93.6079 22.7939 92.7077C22.7063 91.8161 23.0283 90.9375 23.4653 90.1751C24.6208 88.4501 26.3354 87.2124 28.0146 86.0372C28.938 85.2996 29.9218 84.6441 30.8474 83.909Z" fill="#A79CEE"/>
<path d="M34.0637 83.216C35.3511 83.0861 36.795 83.646 37.4361 84.8213C37.8621 85.5615 37.7402 86.4463 37.8879 87.2568C37.3544 87.4161 36.9521 86.9026 36.5006 86.7014C35.3255 86.089 34.4786 84.9845 34.049 83.7493C34.0525 83.5698 34.0581 83.3929 34.0637 83.216Z" fill="#A79CEE"/>
<path d="M115.81 75.5238C116.53 75.1782 117.308 74.9431 118.1 74.8353C119.31 74.4165 120.587 74.1259 121.871 74.1385C122.754 73.9516 123.662 73.8568 124.564 73.9175C125.334 73.8506 126.123 73.8791 126.882 74.0352C127.768 74.7098 128.544 75.5222 129.387 76.2503C129.749 76.569 129.633 77.1521 129.233 77.38C128.731 77.6766 128.214 77.9473 127.762 78.3176C127.618 78.5148 127.447 78.6865 127.245 78.824C126.408 79.3585 125.59 79.95 124.93 80.6982C124.335 81.3179 123.678 81.8895 123.165 82.5812C122.103 83.9182 121.068 85.2824 120.195 86.753C118.87 88.5721 117.75 90.5333 116.326 92.2814C116.191 92.4841 115.896 92.469 115.723 92.3362C115.168 91.8881 114.516 91.587 113.943 91.1664C113.719 91.5374 113.655 92.0104 113.346 92.3224C112.999 92.3663 112.65 92.3294 112.304 92.324C112.478 93.1494 112.714 93.9613 112.907 94.782C113.063 95.1241 112.686 95.3202 112.513 95.5507C109.323 98.8573 106.119 102.152 102.961 105.488C102.144 106.251 101.428 107.112 100.652 107.915C100.153 108.495 99.5463 108.97 99.0728 109.572C98.4716 110.111 98.0138 110.79 97.3977 111.313C97.3208 111.326 97.1685 111.351 97.0934 111.365C96.3664 110.546 95.8065 109.6 95.1812 108.708C94.6485 107.872 94.1133 107.039 93.6762 106.147C92.9757 104.956 92.4018 103.697 91.8327 102.44C91.2059 100.954 90.5726 99.4676 89.9858 97.9632C89.8076 97.1603 89.1928 96.5159 89.1605 95.6738C89.7915 94.899 90.5421 94.2287 91.3155 93.6005C91.8325 93.3682 92.4258 93.5698 92.67 94.0854C92.7474 93.5504 92.7055 93.0002 92.8662 92.4786C95.1947 90.5026 97.7164 88.736 100.39 87.26C100.93 86.9527 101.498 86.697 102.036 86.3857C102.673 86.099 103.306 85.7858 103.984 85.6077C104.133 85.577 104.264 85.5092 104.378 85.4073C104.664 85.3073 104.962 85.2368 105.261 85.1754C105.923 85.7528 106.734 86.1146 107.404 86.6823C108.131 86.9833 108.713 87.5511 109.486 87.7637C109.461 87.6882 109.413 87.5369 109.388 87.4599C109.04 86.8667 108.586 86.3566 108.094 85.8805C107.364 85.4033 106.645 84.9062 105.909 84.438C105.47 83.9765 104.752 83.6563 104.667 82.9675C105.639 81.9639 106.633 80.9839 107.656 80.0323C109.579 78.5522 111.606 77.1634 113.862 76.2431C114.481 75.9317 115.142 75.7085 115.81 75.5238Z" fill="#A79CEE"/>
<path d="M29.6468 99.5668C31.2932 98.9572 33.0508 98.7359 34.7818 98.4626C35.6602 98.2166 36.5715 98.1657 37.4611 97.9707C39.3568 97.6291 41.6229 98.0831 42.7323 99.8019C43.4155 101.085 43.637 102.557 44.2099 103.886C44.3337 104.313 44.4002 104.763 44.6133 105.158C44.7783 105.39 44.6984 105.666 44.6538 105.922C44.1064 106.492 43.724 107.207 43.2233 107.824C42.2849 109.187 41.0841 110.404 40.4718 111.966C40.2793 112.452 40.1948 112.971 40.1008 113.482C40.4394 113.369 40.6426 113.063 40.8616 112.803C41.54 111.946 42.1843 111.063 42.8385 110.189C43.5818 109.307 44.3178 108.316 45.4163 107.863C46.3731 107.604 47.3833 108.047 48.0196 108.767C48.145 109.655 48.4994 110.692 47.9144 111.49C47.4555 112.301 47.0589 113.146 46.6576 113.984C45.9787 115.394 45.3682 116.839 44.7983 118.297C44.308 119.561 43.8792 120.85 43.4918 122.149C43.368 122.565 43.2 122.976 43.1661 123.412C43.1824 123.672 43.4911 123.731 43.6603 123.868C44.8521 121.292 45.9305 118.668 47.0915 116.079C47.9266 114.091 48.8576 112.143 49.6619 110.143C50.1402 109.885 50.664 109.543 51.215 109.573C51.76 109.436 52.3092 109.334 52.8708 109.314C53.4244 109.074 54.0043 108.909 54.5816 108.741C55.2461 108.414 55.9293 108.106 56.6103 107.815C56.7717 108.306 56.4423 108.743 56.3242 109.201C56.1986 109.74 55.9805 110.266 56.0351 110.83C55.7081 112.406 55.5318 114.007 55.3686 115.61C55.2334 116.46 55.2939 117.322 55.2609 118.181C55.3277 118.152 55.4602 118.096 55.5274 118.069C56.2622 117.478 57.0007 116.895 57.7723 116.353C57.7933 115.752 57.8333 115.128 58.1879 114.619C58.5152 114.173 58.4955 113.6 58.65 113.091C59.0227 111.744 59.3079 110.341 60.0134 109.12C60.649 109.219 61.2842 109.341 61.9295 109.373C62.6457 109.324 63.3792 109.426 64.0767 109.208C64.8184 109.1 65.5892 109.104 66.3017 108.84C66.7257 108.668 67.1759 108.577 67.6124 108.443C69.118 107.762 70.4809 106.777 71.5744 105.537C72.5677 104.359 72.8461 102.779 72.9038 101.285C72.8475 100.851 72.7338 100.409 72.8029 99.9718C73.6318 99.6995 74.5009 99.565 75.3348 99.3069C75.6525 99.1592 75.9716 99.0111 76.3242 98.9672C76.5375 99.0516 76.7567 98.9605 76.9682 98.913C77.9132 98.3748 79.0997 98.4285 80.0732 97.9187C80.92 97.7128 81.7622 97.3632 82.6506 97.4443C83.4103 97.5093 84.2362 97.5056 84.8857 97.9659C85.8991 98.535 86.3543 99.7177 86.4989 100.815C86.4106 101.612 87.0066 102.242 87.1661 102.994C87.4047 103.325 87.4448 103.743 87.571 104.123C87.8613 104.495 87.8258 105 88.0435 105.408C88.3308 105.967 88.3579 106.613 88.5904 107.193C88.8992 107.727 89.323 108.215 89.8528 108.54C90.4264 108.787 91.0636 108.973 91.6917 108.916C91.7783 108.681 91.8233 108.433 91.8787 108.19C91.8622 107.542 91.604 106.933 91.5998 106.286C91.5896 105.689 91.1886 105.206 91.0928 104.631C90.9586 103.9 90.639 103.223 90.4998 102.497C90.8791 102.355 91.2036 102.703 91.3626 103.01C91.5042 103.447 91.6512 103.88 91.8087 104.312C92.1376 104.878 92.1581 105.572 92.5015 106.14C93.3452 108.33 94.5228 110.394 96.0682 112.163C96.2844 112.378 96.3527 112.717 96.2391 112.999C95.7984 114.526 95.2537 116.025 94.5899 117.471C93.3881 119.764 91.9162 121.947 89.9995 123.714C88.4505 125.254 86.6221 126.461 84.8646 127.744C83.9431 128.314 83.075 128.971 82.1063 129.462C80.241 130.651 78.3205 131.753 76.342 132.739C75.7578 133.048 75.1259 133.264 74.5907 133.659C73.841 133.991 73.1173 134.377 72.3676 134.709C71.2084 134.753 70.0707 134.997 68.9389 135.227C67.9007 135.038 66.846 134.92 65.7884 134.926C64.4834 134.873 63.3412 134.163 62.0763 133.929C61.5663 133.759 61.1639 133.37 60.813 132.978C60.5316 132.63 60.1331 132.4 59.8786 132.03C59.3811 131.343 58.6209 130.815 58.3722 129.969C58.231 129.522 57.9984 129.116 57.7799 128.705C57.79 128.34 57.6649 127.983 57.728 127.621C57.7877 127.064 57.7074 126.484 57.936 125.956C58.2452 125.244 58.2798 124.448 58.2679 123.683C57.4167 124.033 56.9258 124.882 56.132 125.322C56.1223 125.906 56.271 126.484 56.2787 127.07C56.3056 127.666 56.6635 128.23 56.5704 128.832C56.8476 129.849 56.9212 130.958 57.4521 131.887C57.3817 131.92 57.2412 131.987 57.1707 132.019C57.3438 132.465 57.3162 132.952 57.4516 133.407C57.9352 134.156 58.6936 134.79 58.8351 135.713C58.4875 136.182 58.3783 136.825 57.8668 137.167C57.2101 137.55 56.4706 137.754 55.7848 138.076C51.7402 139.643 47.7217 141.565 43.3346 141.874C42.1408 141.941 40.9447 141.83 39.7751 141.582C38.36 141.239 37.0598 140.537 35.8611 139.723C35.5319 139.481 35.3441 139.107 35.1286 138.77C34.7371 138.132 34.3083 137.517 33.9556 136.856C33.1235 135.549 32.3574 134.199 31.6396 132.825C31.4509 131.555 30.9752 130.339 30.8666 129.057C30.6683 127.972 30.2715 126.926 30.1917 125.823C29.9623 124.706 29.6403 123.608 29.4138 122.49C29.3444 121.305 28.8688 120.189 28.7001 119.018C28.5414 117.889 28.1095 116.813 28.0132 115.674C27.783 114.317 27.3003 113.01 27.1677 111.637C26.9938 110.608 26.556 109.608 26.5271 108.568C26.1859 106.879 25.5336 105.179 25.8278 103.432C26.2456 101.538 27.9751 100.31 29.6468 99.5668Z" fill="#A79CEE"/>
<path d="M50.4444 99.6051C51.0525 99.2055 51.8043 99.2571 52.4945 99.153C53.2611 99.2147 54.018 99.5238 54.6013 100.028C55.5158 101.082 55.403 102.565 55.736 103.84C55.2223 104.435 54.5708 104.902 53.8657 105.245C53.0479 105.462 52.2186 105.758 51.361 105.689C50.6904 105.636 50.0143 105.611 49.3549 105.472C49.3122 105.43 49.2247 105.343 49.1817 105.3C49.0939 104.096 48.8868 102.895 48.8447 101.689C48.8345 101.604 48.8158 101.435 48.807 101.349C48.9574 101.222 49.109 101.094 49.2591 100.966C49.343 100.308 49.9485 99.9477 50.4444 99.6051Z" fill="#A79CEE"/>
<path d="M61.4303 100.516C61.8676 100.118 62.3294 99.6802 62.9377 99.587C63.7302 99.4607 64.5969 99.2853 65.3514 99.6596C66.1243 100.046 66.8128 100.628 67.2511 101.38C67.5116 101.949 67.752 102.524 67.8463 103.149C67.7665 103.862 67.6945 104.793 66.9156 105.087C65.5725 105.752 64.1926 106.506 62.6599 106.571C62.3868 106.588 62.1119 106.61 61.8446 106.668C61.7276 106.612 61.615 106.549 61.509 106.481C61.225 105.811 60.914 105.144 60.7566 104.431C60.6454 103.544 60.7532 102.652 60.8255 101.765C60.9848 101.332 61.0567 100.83 61.4303 100.516Z" fill="#A79CEE"/>
<path d="M87.0348 98.6894C87.0809 98.658 87.1728 98.5937 87.219 98.5623C87.7692 99.3505 87.8634 100.35 88.281 101.206C88.4948 101.604 88.5293 102.069 88.7043 102.484C89.0069 103.155 89.2281 103.864 89.3797 104.584C88.7787 104.545 88.4381 103.97 88.164 103.508C87.8096 102.945 87.7758 102.259 87.4588 101.68C87.2834 100.789 87.1886 99.8803 86.9207 99.0071C86.9489 98.9277 87.0066 98.7687 87.0348 98.6894Z" fill="#A79CEE"/>
<path d="M60.2305 135.251C60.3611 135.219 60.6238 135.154 60.7541 135.121C61.3636 135.457 61.8558 135.991 62.5263 136.212C63.6199 136.638 64.7143 137.192 65.9169 137.186C66.5876 137.303 67.2524 137.488 67.9004 137.699C67.1708 137.981 66.3846 137.921 65.6207 137.92C64.9059 137.856 64.2514 138.249 63.5433 138.256C63.209 138.261 62.8846 138.351 62.5614 138.426C62.6191 139.258 63.2078 139.891 63.7165 140.498C64.013 142.704 63.9846 144.953 64.0324 147.18C63.9716 148.238 64.083 149.295 64.0157 150.351C63.9586 151.498 64.0346 152.648 63.9685 153.796C63.8921 154.965 64.0203 156.14 63.9022 157.308C63.8588 158.261 63.914 159.215 63.86 160.169C63.8665 160.682 63.7573 161.194 63.8181 161.708C63.3941 161.756 63.4745 161.177 63.43 160.903C62.8443 157.046 62.7265 153.137 62.4886 149.248C62.5263 148.29 62.2938 147.348 62.3318 146.391C62.267 145.393 62.1296 144.399 62.0658 143.405C62.0421 143.234 62.0208 143.067 62.001 142.899C62.0158 141.942 61.6331 141.028 61.5787 140.077C61.4018 139.205 61.2199 138.324 60.8634 137.504C60.6735 136.747 60.4665 135.995 60.2305 135.251Z" fill="#A79CEE"/>
<path d="M37.8256 144.247C38.7558 144.179 39.6842 144.335 40.6131 144.324C40.7769 144.726 40.8266 145.183 41.128 145.518C41.6063 146.096 42.406 146.142 43.0534 146.426C44.7124 147.178 46.6195 146.919 48.3245 146.478C49.3654 146.098 50.3617 145.606 51.3544 145.118C52.5296 144.452 53.7658 143.896 54.9121 143.182C55.0945 143.066 55.288 142.977 55.4945 142.915C55.7509 144.079 55.6527 145.284 55.7323 146.467C55.7934 148.088 55.8256 149.709 55.8287 151.331C55.8427 152.623 55.903 153.915 55.9032 155.207C55.9361 155.97 55.8917 156.739 56.0156 157.497C55.9633 159.262 56.1926 161.021 56.3415 162.778C56.358 163.089 56.4397 163.389 56.491 163.696C56.5063 164.538 56.7547 165.376 56.9074 166.207C56.8116 166.237 56.62 166.296 56.5242 166.326C56.5596 166.126 56.7679 165.816 56.4169 165.835C56.4416 165.941 56.4924 166.154 56.5171 166.26C51.4129 165.08 46.2944 163.968 41.1898 162.799C40.9926 162.774 40.8788 162.662 40.85 162.464C40.522 161.204 40.3054 159.921 39.9763 158.662C39.8692 157.623 39.4882 156.635 39.4111 155.593C39.1716 154.816 39.2212 153.993 38.9628 153.221C38.7978 151.885 38.5672 150.557 38.3442 149.23C38.2051 147.575 37.8682 145.916 37.8256 144.247Z" fill="#A79CEE"/>
<path d="M49.2008 143.28C50.4414 142.692 51.7036 142.154 52.9615 141.605C53.3296 141.444 53.6988 141.28 54.0989 141.211C53.7536 141.989 52.917 142.405 52.1717 142.729C51.2233 143.078 50.254 143.393 49.2411 143.481C49.2318 143.431 49.2115 143.33 49.2008 143.28Z" fill="#A79CEE"/>
<path d="M57.6145 141.152C58.4768 140.984 59.2604 140.59 60.1112 140.394C60.6019 141.072 60.5883 141.984 60.7353 142.786C60.9887 144 60.8705 145.242 60.9843 146.471C61.0299 149.55 61.1302 152.627 61.2219 155.705C61.3239 156.506 61.3317 157.317 61.3539 158.124C61.5009 159.787 61.6116 161.464 62.0781 163.073C62.3066 164.13 62.6001 165.17 62.8609 166.22C62.1586 166.606 61.3814 166.82 60.6596 167.152C60.5527 167.143 60.3381 167.122 60.2312 167.113C59.5901 163.617 60.7934 159.97 59.6796 156.537C59.2185 158.593 58.9154 160.683 58.5289 162.754C58.4755 162.782 58.3673 162.836 58.3121 162.862C58.1045 162.214 57.9313 161.556 57.6558 160.933C57.3781 158.747 57.1809 156.544 57.0547 154.342C57.0224 152.889 56.9187 151.433 57.0282 149.98C57.1352 147.033 57.3335 144.087 57.6145 141.152ZM60.3796 166.722C60.5494 166.899 60.6681 166.868 60.738 166.633C60.5664 166.449 60.4459 166.479 60.3796 166.722Z" fill="#A79CEE"/>
<path d="M65.2756 144.61C65.1927 143.22 65.4089 141.837 65.4547 140.451C65.6601 140.397 65.8674 140.395 66.0754 140.446C67.2153 140.697 68.3768 140.986 69.362 141.641C69.5744 141.909 69.8249 142.163 69.9396 142.496C70.0994 144.117 69.7175 145.739 69.9081 147.359C70.0875 148.373 70.1566 149.402 70.2238 150.429C70.3827 151.522 70.5516 152.612 70.7181 153.704C71.0055 154.825 71.371 155.925 71.6831 157.04C71.7791 157.186 71.8725 157.334 71.9656 157.486C72.2214 157.063 72.4985 156.651 72.6819 156.19C72.7417 156.189 72.8646 156.188 72.9263 156.188C73.3162 156.857 73.8189 157.528 73.7867 158.346C73.8363 159.594 73.0847 160.716 72.1084 161.433C70.3205 162.68 68.5312 163.921 66.7809 165.219C66.6756 165.161 66.4642 165.047 66.3592 164.989C66.5674 164.866 66.7866 164.762 67.0113 164.674C66.8267 164.594 66.638 164.522 66.4522 164.449C66.4385 163.701 66.2159 162.967 66.2373 162.218C66.1765 161.217 65.9561 160.231 65.9685 159.227C65.8085 158.273 65.8281 157.298 65.6558 156.344C65.6125 154.565 65.3654 152.797 65.3446 151.016C65.1922 149.6 65.2378 148.175 65.1981 146.754C65.1799 146.038 65.2267 145.323 65.2756 144.61ZM72.6929 156.758C72.8668 156.926 72.9927 156.894 73.0706 156.661C72.8935 156.492 72.7676 156.524 72.6929 156.758Z" fill="#A79CEE"/>
<path d="M71.3062 141.286C71.5977 141.188 71.9019 141.167 72.2076 141.152C72.3595 141.867 72.3008 142.602 72.287 143.327C72.3696 144.222 72.4206 145.121 72.3733 146.022C72.3994 147.356 72.5133 148.691 72.4568 150.028C72.5013 150.901 72.662 151.833 72.426 152.679C72.2784 152.206 72.149 151.725 72.0819 151.235C72.0464 150.006 71.7556 148.803 71.7048 147.574C71.7023 146.734 71.53 145.905 71.5597 145.064C71.5127 143.801 71.3935 142.545 71.3062 141.286Z" fill="#A79CEE"/>
<path d="M74.0931 145.628C74.0902 144.537 74.3185 143.466 74.3381 142.378C74.3812 142.503 74.4247 142.629 74.4703 142.758C74.4893 142.96 74.5058 143.164 74.5073 143.37C74.5975 144.365 74.5877 145.367 74.5738 146.365C74.6624 147.441 74.7041 148.528 74.6327 149.605C74.8032 150.67 74.7935 151.759 74.7558 152.836C74.8285 153.28 74.8964 153.73 74.8494 154.182C74.9266 154.912 74.8896 155.648 74.9135 156.382C74.9967 156.931 75.0121 157.486 75.0322 158.042C75.114 158.348 74.7993 158.476 74.5882 158.601C74.4219 157.858 74.4212 157.095 74.3615 156.341C74.108 155.151 74.1156 153.928 74.067 152.721C73.8646 151.508 74.059 150.281 73.9832 149.063C73.9493 147.915 74.0926 146.774 74.0931 145.628Z" fill="#A79CEE"/>
<path d="M51.6906 15.1891C52.6907 14.8868 53.672 14.4583 54.7304 14.4173C56.0028 14.1202 57.3195 14.1709 58.6173 14.2017C59.4695 14.3856 60.3232 14.6692 61.0326 15.1917C62.7266 16.603 64.1234 18.3818 65.0325 20.3933C66.1223 22.7067 67.1399 25.058 67.8959 27.5031C68.8796 30.1415 69.5273 32.8905 70.514 35.5282C71.1974 37.9727 72.0989 40.3465 72.9108 42.7501C73.1932 43.495 73.1233 44.3222 73.4372 45.0578C73.6767 45.6224 73.6451 46.2492 73.8123 46.8331C74.1115 47.8957 74.3371 48.978 74.6236 50.0453C74.7672 50.8768 75.1384 51.6445 75.2588 52.4817C75.6556 53.5218 75.7871 54.6412 76.1883 55.6801C78.2536 63.0686 80.816 70.3127 82.8755 77.7026C83.2758 78.7818 83.4581 79.9256 83.8689 81.0038C84.0919 82.0821 84.5073 83.1099 84.6918 84.1946C85.0347 84.9785 85.0916 85.8391 85.3742 86.641C85.651 87.5505 85.6383 88.5222 85.9979 89.4113C86.1102 90.3968 86.7761 91.1672 87.2511 92.0001C87.5973 92.5167 87.7966 93.1559 88.3241 93.5277C91.7942 90.9373 95.4181 88.5646 99.0096 86.1475C101.738 84.156 104.426 82.0528 106.607 79.4556C107 78.9198 107.415 78.3829 107.992 78.0311C109.83 76.8046 111.759 75.7139 113.751 74.7558C115.587 73.7929 117.539 73.0617 119.529 72.4919C120.236 72.4161 120.922 72.2282 121.624 72.1335C123.014 72.0967 124.413 72.0041 125.796 72.2201C126.858 72.2338 127.745 72.874 128.617 73.4042C129.672 74.1355 130.76 74.9155 131.404 76.0578L131.449 75.885L131.867 77.576C131.727 78.0756 131.797 78.6726 131.429 79.0838C129.605 81.305 127.079 82.7553 124.787 84.4312C124.176 84.9069 123.472 85.2608 122.911 85.7965C122.501 86.4153 122.283 87.142 121.9 87.7801C120.696 90.3578 118.809 92.5142 116.987 94.6673C115.435 96.3454 113.824 97.9686 112.148 99.5219C109.023 102.326 105.776 105.024 103.03 108.215C100.754 110.731 98.7752 113.539 97.4064 116.651C97.1891 117.424 96.8027 118.129 96.3023 118.753C95.866 119.518 95.2648 120.164 94.7501 120.873C93.6311 122.366 92.3422 123.719 91.075 125.085C90.2805 125.996 89.3327 126.753 88.4716 127.6C85.3025 130.53 81.827 133.111 78.2378 135.5C78.5137 135.882 78.9376 136.114 79.2414 136.466C79.1843 137.127 78.7696 137.748 78.9318 138.424C79.1268 139.42 79.0973 140.442 79.248 141.446C79.4625 142.733 79.4317 144.049 79.6733 145.334C79.7782 146.283 79.8018 147.239 79.9488 148.184C80.1191 149.18 80.0943 150.196 80.2458 151.197C80.4156 152.14 80.4073 153.105 80.539 154.056C80.6003 154.76 80.8002 155.464 80.7353 156.175C78.3628 158.845 75.9798 161.511 73.6557 164.228C72.8832 165.153 72.0468 166.031 71.061 166.735C69.9585 167.476 68.7295 168.049 67.4196 168.3C66.7591 168.525 66.0193 168.441 65.4041 168.805C64.1346 169.47 62.7011 169.713 61.2826 169.767C58.6764 169.7 56.1761 168.859 53.7131 168.081C52.6774 167.784 51.6663 167.381 50.5988 167.204C49.5592 167.015 48.5392 166.669 47.4692 166.695C46.5305 166.709 45.5995 166.599 44.6769 166.442C42.8389 166.144 40.8696 166.456 39.1493 165.605C38.6096 165.303 37.9654 165.032 37.6375 164.489C37.262 161.034 36.9383 157.571 36.5567 154.115C36.3384 151.565 35.9968 149.027 35.5521 146.508C35.2286 144.848 35.0023 143.164 34.4865 141.548C34.3091 141.222 34.0554 140.949 33.8412 140.649C32.4125 138.785 31.2915 136.694 30.4409 134.508C29.1043 131.176 28.0845 127.724 27.3441 124.213C27.2414 123.267 26.8975 122.366 26.8111 121.417C25.1082 112.621 24.005 103.716 22.2197 94.9353C22.1544 94.2154 21.9241 93.5254 21.8116 92.814C21.6547 91.5484 21.2106 90.3414 21.0447 89.0765C20.9838 88.5556 20.7696 88.0742 20.5095 87.6256C18.0434 83.1048 15.8675 78.4247 14.0062 73.6222C11.693 67.5377 9.63141 61.3618 7.59625 55.1809C7.47428 54.7429 7.39775 54.2644 7.01978 53.9619L6.92986 53.5976C7.04295 53.3633 7.06873 53.106 7.04121 52.851C6.92648 50.9513 7.2408 49.0059 8.0863 47.2912C8.50401 46.4196 9.29845 45.7832 10.1622 45.3837C11.4456 44.7697 12.9196 44.8217 14.2968 45.0053C14.6099 45.0512 14.948 45.111 15.1629 45.3705C15.8084 46.0643 16.4404 46.7722 17.0844 47.4664C17.5911 48.0035 17.7924 48.7315 18.0924 49.3858C19.3146 52.1978 20.5364 55.0084 21.7528 57.8219C22.433 59.2678 22.9356 60.8115 23.7367 62.1921C26.1572 64.3943 27.5276 67.4515 28.6593 70.4584C29.4118 72.7149 30.2876 74.9411 31.434 77.028C32.0374 78.0694 32.7099 79.0846 33.5979 79.9064C33.7859 79.5828 33.9189 79.2297 33.9846 78.8593C34.3262 77.1242 34.496 75.3607 34.7097 73.6063C34.8078 72.5442 35.0002 71.4835 35.3853 70.486C36.0493 68.753 37.2819 67.166 39.028 66.4302C39.8973 65.9908 40.891 66.0243 41.8141 65.7718C43.8821 65.4046 46.1339 65.1583 48.1046 66.0625C48.5791 66.238 48.9236 66.8228 49.4363 66.7917C50.1216 65.9065 50.7571 64.9689 51.6073 64.2278C53.0792 62.8113 54.8781 61.7467 56.8067 61.0828C57.6565 60.7206 58.5835 60.6212 59.4563 60.3272C59.3069 59.6157 59.2742 58.8846 59.0809 58.1824C58.6994 56.8799 58.6672 55.5081 58.3132 54.1987C58.068 53.3861 58.0742 52.5253 57.8337 51.7131C57.4398 50.3105 57.3905 48.8382 57.0187 47.4316C56.7903 46.5625 56.8032 45.6538 56.5882 44.783C56.4108 44.1015 56.3585 43.3968 56.2253 42.7074C55.9162 40.226 55.3785 37.7793 54.9558 35.3182C54.6438 34.3157 54.5885 33.2622 54.3044 32.2544C53.6707 29.793 53.148 27.2949 52.2676 24.9067C52.0416 23.8599 51.7194 22.8415 51.3007 21.8561C51.0017 20.7134 50.4294 19.6673 50.1054 18.5354C50.1915 17.6241 50.5531 16.7249 51.0492 15.9587C51.2787 15.7158 51.4977 15.4615 51.6906 15.1891ZM53.5802 15.833C53.0755 16.1901 52.4538 16.5406 52.2942 17.1852C51.9232 18.2962 51.879 19.502 51.9757 20.6608C52.1683 21.3417 52.2718 22.0353 52.3578 22.7332C52.3907 22.7666 52.4568 22.835 52.4901 22.8699C53.3019 26.0281 55.0853 28.8433 55.9512 31.9835C55.9824 32.4654 56.1482 32.9188 56.3866 33.3358C56.6026 33.3626 56.8186 33.3708 57.0112 33.2463C57.6861 32.9242 58.5104 32.9764 59.1353 32.5573C59.4415 32.4694 59.7578 32.4098 60.0587 32.3001C60.2849 32.212 60.5066 32.0248 60.7677 32.1097C61.9648 31.6572 63.2768 31.184 64.5726 31.4494C64.9937 31.4963 65.2548 31.8554 65.528 32.139C66.1353 32.0107 66.7383 31.865 67.3399 31.7134C67.1643 31.1269 67.1606 30.4441 66.8006 29.9401C66.5544 28.9676 66.2059 28.0296 65.8995 27.075C65.7521 26.1351 65.2649 25.2775 65.1705 24.3276C64.9524 23.9302 64.8987 23.463 64.6493 23.0826C64.2818 21.5626 63.4839 20.195 62.5769 18.9405C61.9125 18.1513 61.0186 17.6051 60.1915 17.0054C59.0363 16.305 57.8782 15.5052 56.5174 15.282C55.5127 15.0727 54.4756 15.3872 53.5802 15.833ZM56.4451 35.5003C56.5757 36.1734 56.462 36.8667 56.5963 37.5419C56.6501 38.4895 56.6972 39.4542 57.0372 40.3512C57.2169 42.3518 58.014 44.2155 58.4814 46.1528C58.8596 46.9865 58.9998 47.8974 59.2528 48.7727C59.6307 48.8319 60.0129 48.8207 60.3805 48.7007C61.3959 48.3978 62.4576 48.3575 63.4772 48.072C64.3883 48.058 65.2375 47.6868 66.1355 47.5822C66.7767 47.4917 67.3944 47.2807 68.0311 47.1651C68.4964 47.2351 68.9404 47.0254 69.3884 46.9318C69.9462 47.37 70.3729 48.1132 71.1545 48.1482C71.4795 48.0988 71.9141 47.8822 71.8761 47.4912C71.9123 46.6707 71.6042 45.8844 71.6807 45.0586C71.3591 43.9554 71.3339 42.7805 70.8883 41.7109C70.7142 41.2488 70.7744 40.7319 70.576 40.2773C70.2448 39.4782 70.1924 38.5919 69.8234 37.8083C69.5445 37.1272 69.5315 36.3573 69.1753 35.7061C68.9922 35.3325 69.0175 34.8796 68.7651 34.5369C68.4445 34.0679 68.0578 33.649 67.6616 33.2417C66.3285 33.1364 64.988 33.1824 63.6609 33.3452C63.2579 33.2722 62.8752 33.4683 62.4817 33.5207C61.4834 33.5808 60.5242 33.9053 59.5591 34.1497C58.5345 34.6212 57.3456 34.7822 56.4451 35.5003ZM9.4409 48.238C8.61919 49.6312 8.32613 51.2573 8.25685 52.8543C8.35498 53.751 8.39724 54.6583 8.6731 55.5265C9.06763 57.4556 9.77348 59.3048 10.6344 61.0711C11.4244 62.3006 12.1671 63.5632 12.7563 64.9023C13.0874 64.7405 13.4283 64.5994 13.7508 64.4212C14.5108 64.132 15.2115 63.7019 15.9917 63.4631C17.1528 63.0149 18.3371 62.5855 19.5033 62.1329C20.0799 61.8427 20.7085 61.6568 21.2638 61.3119C19.8266 58.77 19.2014 55.9 18.2549 53.1631C17.5407 51.3113 16.6931 49.474 15.4324 47.9157C15.149 47.6346 14.8921 47.3238 14.5749 47.0802C12.8604 46.1914 10.6749 46.8309 9.4409 48.238ZM59.9344 51.1977C59.4415 51.8953 60.1406 52.7129 60.0477 53.4781C59.9662 54.034 60.2758 54.5521 60.2995 55.1036C60.3359 55.8061 60.592 56.4697 60.7231 57.1565C61.0722 58.7581 62.3017 60.1963 63.9211 60.5942C64.1531 60.6232 64.2913 60.8154 64.3738 61.0184C64.7183 61.8465 65.4827 62.3924 66.2312 62.8298C67.3752 63.5098 68.7647 63.575 70.0593 63.4741C70.5638 63.5405 71.0354 63.2178 71.5362 63.3067C72.1772 63.1654 72.8475 63.0801 73.4289 62.7595C73.7958 62.6243 74.2168 62.7452 74.5813 62.569C74.9934 62.3487 75.4473 62.2413 75.8879 62.0925C75.7034 61.2449 75.4575 60.4109 75.3527 59.5498C74.9797 58.6686 74.9152 57.6898 74.5128 56.8205C74.376 56.497 74.3295 56.1466 74.2131 55.8181C73.6973 54.6704 73.281 53.4827 72.7862 52.3267C72.6691 51.8397 72.4773 51.3804 72.2796 50.9226C72.0209 50.3612 72.0106 49.7016 71.6248 49.1993C70.6267 49.073 69.6133 48.9782 68.6108 49.1025C68.267 49.1504 67.9197 49.1221 67.5754 49.1055C66.294 49.3663 64.9518 49.3742 63.7235 49.8683C62.4163 50.1617 61.1449 50.6248 59.9344 51.1977ZM17.7895 63.9726C16.9018 64.3811 15.9351 64.669 15.1282 65.2485C14.3686 65.7578 13.8488 66.6899 13.9867 67.6168C14.1302 69.109 14.4006 70.5914 14.8416 72.0286C15.3098 73.0649 16.0195 74.0939 17.0283 74.6503C18.3257 73.3692 19.625 72.0891 20.8822 70.7702C21.5535 70.2149 22.3912 69.9219 23.2013 69.6358C24.1431 69.4095 25.1203 69.0205 25.6757 68.1827C25.8061 67.8503 25.8742 67.4962 25.8648 67.1397C25.6187 66.5044 25.1623 65.9842 24.8043 65.4134C24.2833 64.5873 23.6798 63.7954 22.9152 63.1803C22.5088 62.9002 22.0055 62.8073 21.5197 62.8163C20.195 62.9015 19.0504 63.6414 17.7895 63.9726ZM58.4552 62.0541C57.0941 62.4471 55.7998 63.0545 54.5625 63.7433C53.3872 64.5585 52.3476 65.5742 51.5454 66.7593C51.2294 67.5564 50.6044 68.2743 50.642 69.1751C50.667 69.9004 51.1373 70.4957 51.2523 71.1988C51.4346 71.9746 51.611 72.7518 51.8368 73.5169C52.334 74.4521 52.3002 75.5691 52.7963 76.5061C53.3427 78.6827 53.9149 80.8513 54.4189 83.0368C54.6057 83.8684 54.9056 84.6844 54.939 85.5432C55.0827 86.4748 55.4303 87.3591 55.5903 88.2882C55.7432 89.0697 56.0415 89.8292 56.0554 90.6342C56.1141 91.0031 56.2421 91.3596 56.2671 91.7353C56.2945 92.5201 56.6259 93.2513 56.7276 94.0254C56.8187 94.8746 57.1107 95.6833 57.2637 96.5218C57.2081 97.1699 57.5515 97.7812 57.5129 98.4359C57.9191 99.7324 57.9476 101.127 58.4866 102.381C58.84 102.64 59.0983 103.082 59.5556 103.163C59.7644 102.337 59.577 101.478 59.7462 100.647C60.13 98.9773 61.291 97.2617 63.1103 97.0221C63.8552 97.0523 64.586 97.2061 65.3288 97.2584C66.8708 97.7293 67.626 99.3107 68.0503 100.743C68.3349 101.222 68.4257 101.79 68.7005 102.267C68.7713 102.473 68.8363 102.68 68.9064 102.889C69.1532 103.309 69.3897 103.737 69.7197 104.101C69.8059 104.113 69.9784 104.138 70.065 104.152C70.5558 102.859 70.6194 101.464 70.5995 100.098C70.6204 99.0414 70.5605 97.9813 70.2695 96.9582C70.3156 96.0907 69.8699 95.2829 69.7955 94.4266C69.8538 93.864 69.3982 93.4282 69.3916 92.8647C69.5334 92.3477 69.0727 91.9471 69.0173 91.4542C68.6325 89.6458 68.0225 87.8792 67.8111 86.0434C67.5427 84.8685 67.4923 83.6537 67.2932 82.4663C67.2626 81.9056 67.2671 81.344 67.2199 80.7843C67.2555 80.1241 67.2328 79.4645 67.2565 78.8057C67.2517 78.7176 67.241 78.5432 67.2366 78.4565C67.3071 77.5197 67.4966 76.5906 67.4784 75.6496C67.5721 74.2452 67.7568 72.8476 67.7896 71.4397C67.8357 70.6969 68.2122 69.8956 67.7916 69.1956C67.506 68.6809 67.3634 68.1032 67.0687 67.5954C66.26 65.8409 65.2582 64.1278 63.7773 62.8564C63.0637 62.2918 62.5121 61.4856 61.6361 61.1551C60.6575 61.4198 59.6609 61.618 58.6848 61.8989C58.6281 61.9376 58.5133 62.0152 58.4552 62.0541ZM21.5139 73.2922C20.6226 73.948 19.8267 74.7219 18.9376 75.3802C18.6638 75.6187 18.3399 75.8157 18.1319 76.1211C18.1536 76.9888 18.6133 77.7531 18.8175 78.5805C19.2939 79.9058 19.8473 81.2059 20.5303 82.4387C21.0882 83.7007 21.7713 84.9027 22.3694 86.1471C22.5821 86.5658 22.7821 86.9892 23.0045 87.404C23.434 87.2287 23.7031 86.8281 24.0505 86.5391C24.571 85.9964 25.1781 85.5494 25.7069 85.0154C27.4001 83.535 29.0791 81.9348 31.2293 81.1393C30.5607 79.441 29.8329 77.7589 29.0928 76.089C28.834 75.3645 28.5217 74.6608 28.204 73.9601C27.6726 72.8239 27.2817 71.6207 26.7079 70.5058C26.2367 70.4496 25.7796 70.6687 25.3333 70.7942C23.8988 71.3454 22.6777 72.312 21.5139 73.2922ZM39.5942 67.9443C38.648 68.5335 37.905 69.4407 37.5041 70.4805C37.0721 71.4063 36.7842 72.3921 36.5942 73.3938C36.3901 74.4697 36.8166 75.524 36.862 76.5938C36.9914 77.2302 37.1628 77.8562 37.1971 78.5068C37.6124 80.0458 37.8586 81.642 38.448 83.1257C38.6045 83.6476 38.6678 84.2033 38.9238 84.6914C39.3781 86.0145 39.7946 87.3653 40.38 88.6391C40.7349 89.6341 41.1391 90.6169 41.5666 91.5816C42.6382 94.1952 43.7348 96.798 44.887 99.3763C45.499 100.958 46.2809 102.466 46.9027 104.044C46.9738 104.038 47.1152 104.025 47.1877 104.019C47.4902 102.269 47.7543 100.513 48.0728 98.7656C48.6821 98.0777 49.5052 97.5574 50.4074 97.3701C51.6946 97.3265 52.9924 97.4004 54.2699 97.2052C54.3139 96.0548 54.0432 94.9205 53.9447 93.7791C53.7872 92.5922 53.7146 91.3936 53.4741 90.2195C53.3672 88.763 52.9022 87.3656 52.8329 85.9059C52.1842 83.1402 51.4981 80.3791 50.7967 77.6249C50.5921 76.8022 50.4406 75.9573 50.1028 75.1752C49.7121 74.0474 49.6178 72.8234 49.1077 71.7358C48.8506 70.8815 48.7147 69.9942 48.4308 69.1495C48.1437 68.7846 47.8207 68.4178 47.3876 68.229C46.2142 67.6732 44.8816 67.7388 43.6367 67.467C42.2929 67.1319 40.8183 67.2895 39.5942 67.9443ZM68.4235 65.892C68.7166 66.4803 69.5191 66.4008 69.8831 66.9146C70.1611 67.6791 70.2899 68.4881 70.2414 69.3024C70.2088 70.0249 70.2842 70.7547 70.1563 71.4715C69.8683 73.2119 69.4612 74.9308 69.2152 76.6792C69.1472 77.0025 69.1912 77.3304 69.2787 77.6476C69.7115 77.5423 69.9665 77.1467 70.273 76.8539C71.1319 75.7611 71.8646 74.5624 72.4093 73.2823C73.2994 71.8168 73.8162 70.1617 74.6784 68.6831C74.6082 71.443 73.5662 74.0331 72.9651 76.6946C72.9271 77.1521 72.7184 77.6163 72.9125 78.0658C74.101 77.66 75.1838 76.9939 76.3108 76.4448C76.687 76.1101 77.0322 75.737 77.2529 75.2775C77.076 76.3822 76.4256 77.3527 75.6275 78.1117C74.9361 78.8414 74.0312 79.3234 73.3235 80.037C72.3164 80.8661 71.2826 81.6618 70.2856 82.5069C70.1511 82.6356 69.9452 82.7249 69.8964 82.9202C69.9463 83.4591 70.2029 83.9687 70.1603 84.5197C70.1163 85.1896 70.452 85.8074 70.4834 86.4711C70.4803 87.0324 70.7604 87.5499 70.7617 88.1101C70.7403 89.0779 71.1125 89.9869 71.2855 90.9251C71.2128 91.3666 71.4113 91.7903 71.472 92.2234C71.4651 92.8257 71.5264 93.4358 71.6886 94.0179C71.9089 94.792 71.9514 95.6007 72.1529 96.3795C72.2492 97.3874 72.3564 98.3958 72.665 99.3652C73.2459 99.3296 73.7364 98.9837 74.2689 98.7892C74.6723 98.571 75.1492 98.538 75.5346 98.2843C76.604 97.8386 77.7076 97.4877 78.7673 97.0152C79.0555 96.8855 79.7118 96.856 79.4656 96.3824C78.4267 96.0968 77.3434 95.9622 76.3312 95.5792C75.7267 95.2448 75.0888 94.9249 74.6358 94.3869C75.7049 94.2893 76.7643 94.5268 77.8332 94.4909C79.9466 94.6191 82.0712 94.5875 84.1831 94.7284C84.2409 94.6571 84.357 94.5161 84.4152 94.4463C84.1862 94.2734 83.9645 94.0925 83.7395 93.917C81.697 92.6533 79.8482 91.0015 78.5407 88.9728C79.1713 89.1636 79.7256 89.5319 80.3431 89.7568C81.1585 90.116 81.9922 90.4308 82.8073 90.7886C83.1937 90.9257 83.5534 91.2789 83.9876 91.067C83.7599 90.1192 83.5205 89.1743 83.2768 88.2304C83.0864 87.8709 82.9653 87.4927 82.9676 87.084C82.4784 86.1499 82.5442 85.0065 82.0255 84.0966C81.3891 81.468 80.4884 78.9293 79.8665 76.2971C79.2888 74.8613 79.0752 73.3032 78.527 71.8555C78.2441 70.5348 77.7744 69.2679 77.4832 67.9508C77.3849 67.3529 76.9394 66.8454 77.0134 66.2158C76.8828 65.9739 76.821 65.6673 76.5775 65.5103C76.1572 65.4231 75.7254 65.4203 75.2991 65.39C74.9204 65.4465 74.5388 65.4037 74.1585 65.3974C73.1327 65.3211 72.1069 65.2324 71.0772 65.2402C70.198 65.24 69.3143 65.0531 68.438 65.177C68.4076 65.4094 68.2433 65.6794 68.4235 65.892ZM30.8469 83.9069C29.9213 84.642 28.9375 85.2975 28.0141 86.0351C26.3348 87.2103 24.6202 88.4481 23.4647 90.1731C23.0278 90.9354 22.7057 91.8141 22.7934 92.7056C22.8893 93.6059 23.2544 94.449 23.6926 95.2324C24.098 96.432 24.2182 97.7236 24.7437 98.8859C25.0364 99.5666 25.8982 99.8267 26.5717 99.6297C27.0506 99.3991 27.449 99.0235 27.9442 98.8213C29.1046 98.3578 30.3323 98.0917 31.5513 97.8278C32.6529 97.7684 33.6968 97.3814 34.7717 97.1639C35.3749 97.0504 35.9359 96.7964 36.4787 96.5193C37.5301 96.038 38.7101 96.2149 39.8155 96.3455C40.3704 96.398 41.2497 96.2364 41.2101 95.5209C40.7786 93.8349 40.0262 92.1589 38.7508 90.9338C37.5574 89.7669 35.9078 89.1655 34.2528 89.1166C34.2468 89.0611 34.2338 88.9519 34.2281 88.8978C34.4274 88.5638 34.6864 88.2719 34.8919 87.9441C34.8901 87.5626 34.578 87.2962 34.3897 86.9947C33.6722 85.9907 33.1868 84.7785 32.1826 84.01C31.7815 83.801 31.245 83.5299 30.8469 83.9069ZM34.0634 83.2147C34.0578 83.3916 34.0522 83.5686 34.0487 83.748C34.4783 84.9833 35.3252 86.0878 36.5003 86.7001C36.9518 86.9013 37.3541 87.4149 37.8876 87.2555C37.7399 86.445 37.8618 85.5603 37.4358 84.82C36.7947 83.6447 35.3508 83.0848 34.0634 83.2147ZM115.809 75.5228C115.142 75.7075 114.481 75.9307 113.862 76.2421C111.605 77.1624 109.579 78.5512 107.656 80.0313C106.633 80.9829 105.638 81.9629 104.667 82.9665C104.752 83.6554 105.47 83.9755 105.909 84.437C106.645 84.9052 107.363 85.4023 108.094 85.8795C108.586 86.3557 109.039 86.8658 109.387 87.459C109.413 87.5359 109.461 87.6873 109.486 87.7628C108.712 87.5501 108.13 86.9823 107.403 86.6813C106.734 86.1136 105.922 85.7518 105.261 85.1744C104.962 85.2358 104.664 85.3064 104.377 85.4063C104.264 85.5082 104.133 85.576 103.983 85.6067C103.305 85.7849 102.673 86.0981 102.035 86.3847C101.498 86.696 100.929 86.9518 100.389 87.2591C97.7159 88.7351 95.1941 90.5016 92.8657 92.4776C92.705 92.9993 92.7469 93.5495 92.6695 94.0844C92.4252 93.5688 91.832 93.3672 91.315 93.5995C90.5416 94.2277 89.7909 94.8981 89.16 95.6728C89.1923 96.5149 89.8071 97.1593 89.9852 97.9623C90.5721 99.4667 91.2054 100.953 91.8322 102.439C92.4013 103.696 92.9751 104.955 93.6757 106.146C94.1128 107.038 94.648 107.871 95.1807 108.707C95.806 109.599 96.3658 110.545 97.0929 111.364C97.168 111.35 97.3203 111.325 97.3972 111.312C98.0133 110.789 98.471 110.11 99.0723 109.571C99.5458 108.969 100.152 108.494 100.651 107.914C101.428 107.111 102.144 106.25 102.961 105.487C106.119 102.151 109.323 98.8563 112.513 95.5497C112.686 95.3192 113.062 95.1231 112.907 94.7811C112.713 93.9603 112.478 93.1484 112.303 92.323C112.649 92.3284 112.999 92.3654 113.345 92.3214C113.655 92.0095 113.718 91.5365 113.942 91.1655C114.516 91.586 115.167 91.8871 115.723 92.3352C115.896 92.4681 116.19 92.4831 116.325 92.2804C117.749 90.5323 118.869 88.5712 120.194 86.752C121.068 85.2814 122.103 83.9172 123.165 82.5803C123.678 81.8885 124.334 81.3169 124.929 80.6972C125.59 79.949 126.408 79.3575 127.244 78.8231C127.446 78.6855 127.618 78.5138 127.761 78.3166C128.214 77.9463 128.73 77.6756 129.233 77.3791C129.632 77.1511 129.749 76.568 129.387 76.2493C128.543 75.5212 127.767 74.7088 126.882 74.0342C126.122 73.8782 125.333 73.8497 124.563 73.9166C123.661 73.8558 122.753 73.9506 121.871 74.1376C120.587 74.125 119.31 74.4155 118.1 74.8343C117.307 74.9421 116.529 75.1773 115.809 75.5228ZM29.6445 99.5658C27.9727 100.309 26.2433 101.537 25.8255 103.431C25.5313 105.178 26.1836 106.878 26.5248 108.567C26.5536 109.607 26.9915 110.607 27.1654 111.636C27.298 113.009 27.7807 114.316 28.0109 115.673C28.1072 116.812 28.539 117.888 28.6977 119.017C28.8665 120.188 29.3421 121.304 29.4115 122.489C29.638 123.607 29.9599 124.705 30.1894 125.822C30.2691 126.925 30.6659 127.971 30.8643 129.056C30.9729 130.338 31.4486 131.554 31.6373 132.824C32.3551 134.197 33.1211 135.548 33.9533 136.855C34.3059 137.516 34.7348 138.131 35.1263 138.769C35.3417 139.106 35.5295 139.48 35.8587 139.722C37.0575 140.536 38.3577 141.238 39.7728 141.581C40.9424 141.829 42.1385 141.94 43.3322 141.873C47.7194 141.564 51.7379 139.642 55.7825 138.075C56.4683 137.753 57.2078 137.549 57.8645 137.166C58.3759 136.824 58.4852 136.181 58.8328 135.712C58.6913 134.789 57.9329 134.155 57.4492 133.406C57.3139 132.951 57.3415 132.464 57.1684 132.018C57.2388 131.986 57.3793 131.919 57.4498 131.886C56.9189 130.957 56.8453 129.848 56.5681 128.831C56.6612 128.229 56.3032 127.665 56.2764 127.069C56.2687 126.483 56.1199 125.905 56.1296 125.321C56.9235 124.881 57.4144 124.032 58.2656 123.682C58.2775 124.447 58.2429 125.243 57.9336 125.955C57.7051 126.482 57.7853 127.063 57.7257 127.62C57.6626 127.982 57.7877 128.339 57.7776 128.704C57.996 129.115 58.2287 129.521 58.3698 129.968C58.6186 130.814 59.3787 131.342 59.8763 132.029C60.1308 132.399 60.5293 132.629 60.8107 132.977C61.1616 133.369 61.564 133.758 62.0739 133.928C63.3389 134.162 64.481 134.872 65.7861 134.925C66.8437 134.919 67.8984 135.037 68.9365 135.226C70.0684 134.996 71.2061 134.752 72.3653 134.708C73.115 134.376 73.8387 133.99 74.5884 133.658C75.1236 133.263 75.7554 133.047 76.3397 132.738C78.3182 131.752 80.2387 130.65 82.1039 129.461C83.0727 128.97 83.9408 128.313 84.8623 127.743C86.6198 126.46 88.4481 125.253 89.9972 123.713C91.9138 121.946 93.3858 119.763 94.5876 117.47C95.2514 116.024 95.796 114.525 96.2367 112.998C96.3503 112.716 96.2821 112.377 96.0659 112.162C94.5205 110.392 93.3429 108.329 92.4992 106.139C92.1557 105.571 92.1353 104.877 91.8064 104.311C91.6488 103.879 91.5018 103.446 91.3603 103.009C91.2013 102.702 90.8768 102.354 90.4975 102.496C90.6367 103.222 90.9563 103.899 91.0904 104.63C91.1863 105.205 91.5873 105.688 91.5975 106.285C91.6017 106.932 91.8598 107.541 91.8764 108.189C91.8209 108.432 91.776 108.68 91.6893 108.915C91.0612 108.972 90.424 108.786 89.8505 108.539C89.3207 108.214 88.8968 107.726 88.5881 107.192C88.3556 106.612 88.3285 105.966 88.0412 105.407C87.8234 104.999 87.859 104.494 87.5686 104.122C87.4425 103.742 87.4024 103.324 87.1637 102.993C87.0043 102.241 86.4083 101.611 86.4966 100.814C86.3519 99.7167 85.8968 98.534 84.8833 97.9649C84.2339 97.5046 83.408 97.5083 82.6483 97.4433C81.7599 97.3622 80.9177 97.7118 80.0709 97.9177C79.0974 98.4274 77.9109 98.3738 76.9659 98.9119C76.7544 98.9595 76.5351 99.0506 76.3218 98.9662C75.9693 99.0101 75.6502 99.1581 75.3325 99.3058C74.4986 99.564 73.6295 99.6984 72.8006 99.9708C72.7315 100.408 72.8451 100.85 72.9015 101.284C72.8438 102.778 72.5653 104.358 71.5721 105.536C70.4785 106.776 69.1156 107.761 67.6101 108.442C67.1735 108.576 66.7233 108.667 66.2994 108.839C65.5869 109.103 64.8161 109.099 64.0744 109.207C63.3769 109.425 62.6434 109.323 61.9272 109.372C61.2819 109.34 60.6467 109.218 60.0111 109.119C59.3055 110.34 59.0204 111.743 58.6477 113.09C58.4932 113.599 58.5128 114.172 58.1856 114.618C57.8309 115.127 57.791 115.751 57.77 116.352C56.9983 116.894 56.2599 117.477 55.525 118.068C55.4579 118.095 55.3254 118.151 55.2586 118.18C55.2916 117.321 55.2311 116.459 55.3663 115.609C55.5295 114.006 55.7057 112.405 56.0327 110.829C55.9782 110.265 56.1962 109.739 56.3218 109.2C56.4399 108.742 56.7693 108.305 56.608 107.814C55.927 108.105 55.2437 108.413 54.5793 108.74C54.002 108.908 53.4221 109.073 52.8685 109.313C52.3068 109.333 51.7576 109.435 51.2127 109.572C50.6617 109.542 50.1378 109.884 49.6596 110.142C48.8553 112.142 47.9243 114.09 47.0892 116.078C45.9282 118.667 44.8498 121.291 43.658 123.867C43.4887 123.73 43.18 123.671 43.1638 123.411C43.1977 122.975 43.3657 122.564 43.4895 122.148C43.8769 120.849 44.3056 119.56 44.796 118.296C45.3659 116.838 45.9764 115.393 46.6553 113.983C47.0566 113.145 47.4532 112.3 47.912 111.489C48.497 110.691 48.1426 109.654 48.0173 108.766C47.381 108.046 46.3708 107.603 45.4139 107.862C44.3155 108.315 43.5795 109.306 42.8361 110.188C42.182 111.062 41.5377 111.945 40.8593 112.802C40.6403 113.062 40.4371 113.368 40.0985 113.481C40.1924 112.97 40.277 112.451 40.4695 111.965C41.0818 110.403 42.2826 109.186 43.2209 107.823C43.7217 107.206 44.1041 106.491 44.6514 105.921C44.6961 105.665 44.7759 105.389 44.6109 105.157C44.3978 104.762 44.3314 104.312 44.2076 103.885C43.6347 102.556 43.4132 101.084 42.7299 99.8009C41.6205 98.0821 39.3545 97.6281 37.4587 97.9697C36.5692 98.1646 35.6579 98.2155 34.7794 98.4616C33.0485 98.7349 31.2909 98.9561 29.6445 99.5658ZM50.4428 99.6035C49.9469 99.9461 49.3415 100.306 49.2576 100.965C49.1075 101.093 48.9559 101.221 48.8054 101.347C48.8142 101.433 48.8329 101.602 48.8432 101.688C48.8853 102.894 49.0924 104.095 49.1802 105.299C49.2232 105.342 49.3107 105.428 49.3533 105.47C50.0128 105.609 50.6889 105.635 51.3594 105.688C52.217 105.756 53.0464 105.461 53.8642 105.244C54.5693 104.9 55.2208 104.433 55.7345 103.838C55.4014 102.564 55.5142 101.08 54.5997 100.027C54.0164 99.5222 53.2596 99.2131 52.493 99.1514C51.8027 99.2555 51.0509 99.2039 50.4428 99.6035ZM61.4303 100.515C61.0567 100.829 60.9848 101.33 60.8255 101.764C60.7532 102.65 60.6454 103.542 60.7566 104.429C60.9141 105.142 61.225 105.809 61.509 106.48C61.6151 106.547 61.7276 106.61 61.8446 106.666C62.1119 106.608 62.3868 106.586 62.6599 106.57C64.1926 106.504 65.5726 105.751 66.9156 105.085C67.6945 104.791 67.7666 103.86 67.8463 103.148C67.752 102.523 67.5116 101.948 67.2511 101.379C66.8129 100.626 66.1243 100.045 65.3514 99.6581C64.5969 99.2838 63.7302 99.4592 62.9377 99.5855C62.3294 99.6787 61.8676 100.116 61.4303 100.515ZM87.0341 98.6876C87.0059 98.7669 86.9481 98.9259 86.92 99.0052C87.1879 99.8785 87.2827 100.787 87.4581 101.678C87.775 102.257 87.8089 102.944 88.1632 103.506C88.4374 103.968 88.778 104.543 89.379 104.583C89.2274 103.862 89.0061 103.153 88.7036 102.483C88.5286 102.067 88.4941 101.603 88.2803 101.204C87.8626 100.348 87.7684 99.3486 87.2182 98.5605C87.1721 98.5919 87.0802 98.6562 87.0341 98.6876ZM60.2278 135.25C60.4638 135.994 60.6708 136.745 60.8607 137.502C61.2172 138.323 61.3991 139.204 61.576 140.076C61.6305 141.027 62.0131 141.941 61.9983 142.898C62.0181 143.065 62.0394 143.232 62.0632 143.404C62.1269 144.398 62.2643 145.391 62.3291 146.39C62.2911 147.347 62.5236 148.289 62.486 149.246C62.7238 153.136 62.8417 157.045 63.4273 160.902C63.4718 161.176 63.3915 161.755 63.8154 161.707C63.7546 161.193 63.8638 160.681 63.8573 160.168C63.9113 159.214 63.8561 158.26 63.8996 157.307C64.0176 156.138 63.8895 154.964 63.9658 153.795C64.032 152.647 63.956 151.497 64.013 150.349C64.0803 149.293 63.9689 148.237 64.0297 147.179C63.9819 144.952 64.0104 142.703 63.7138 140.497C63.2052 139.89 62.6164 139.257 62.5587 138.425C62.882 138.349 63.2064 138.26 63.5407 138.255C64.2488 138.248 64.9033 137.855 65.618 137.919C66.3819 137.92 67.1681 137.98 67.8977 137.698C67.2497 137.487 66.585 137.301 65.9142 137.185C64.7116 137.191 63.6173 136.637 62.5236 136.211C61.8532 135.99 61.3609 135.456 60.7514 135.119C60.6211 135.153 60.3585 135.218 60.2278 135.25ZM37.8267 144.245C37.8692 145.915 38.2062 147.573 38.3452 149.228C38.5682 150.556 38.7988 151.884 38.9638 153.22C39.2222 153.992 39.1726 154.814 39.4121 155.591C39.4892 156.633 39.8702 157.622 39.9773 158.661C40.3064 159.919 40.523 161.203 40.851 162.463C40.8798 162.661 40.9937 162.773 41.1908 162.798C46.2954 163.966 51.4139 165.079 56.5181 166.259C56.4934 166.152 56.4426 165.94 56.4179 165.834C56.7689 165.815 56.5606 166.125 56.5252 166.325C56.621 166.295 56.8126 166.235 56.9084 166.205C56.7557 165.375 56.5073 164.537 56.492 163.695C56.4407 163.387 56.359 163.087 56.3425 162.777C56.1936 161.02 55.9643 159.261 56.0167 157.496C55.8927 156.738 55.9371 155.969 55.9042 155.206C55.904 153.914 55.8437 152.621 55.8298 151.33C55.8266 149.707 55.7944 148.086 55.7333 146.466C55.6538 145.283 55.752 144.077 55.4955 142.913C55.289 142.975 55.0955 143.065 54.9131 143.18C53.7668 143.895 52.5306 144.451 51.3554 145.116C50.3627 145.605 49.3664 146.097 48.3255 146.477C46.6205 146.918 44.7134 147.176 43.0544 146.425C42.407 146.141 41.6073 146.095 41.129 145.517C40.8277 145.182 40.7779 144.724 40.6141 144.323C39.6852 144.333 38.7568 144.178 37.8267 144.245ZM49.199 143.279C49.2097 143.328 49.23 143.43 49.2393 143.48C50.2522 143.391 51.2215 143.077 52.1699 142.727C52.9152 142.403 53.7518 141.987 54.0971 141.209C53.697 141.279 53.3278 141.442 52.9597 141.604C51.7018 142.153 50.4396 142.691 49.199 143.279ZM57.6133 141.151C57.3323 144.086 57.134 147.032 57.0269 149.979C56.9175 151.432 57.0212 152.888 57.0535 154.342C57.1797 156.543 57.3769 158.746 57.6546 160.932C57.9301 161.555 58.1033 162.213 58.3109 162.861C58.3661 162.835 58.4743 162.781 58.5277 162.754C58.9142 160.683 59.2173 158.592 59.6784 156.536C60.7921 159.97 59.5889 163.616 60.23 167.112C60.3369 167.121 60.5515 167.142 60.6584 167.151C61.3802 166.819 62.1574 166.605 62.8597 166.219C62.5989 165.169 62.3054 164.13 62.0769 163.073C61.6104 161.463 61.4997 159.786 61.3527 158.123C61.3305 157.316 61.3227 156.505 61.2207 155.705C61.129 152.626 61.0287 149.549 60.9831 146.47C60.8693 145.241 60.9875 143.999 60.7341 142.785C60.5871 141.983 60.6007 141.071 60.11 140.393C59.2592 140.589 58.4756 140.983 57.6133 141.151ZM65.2755 144.61C65.2266 145.322 65.1799 146.038 65.198 146.754C65.2377 148.175 65.1921 149.6 65.3445 151.016C65.3654 152.797 65.6124 154.565 65.6557 156.344C65.828 157.298 65.8084 158.273 65.9684 159.226C65.956 160.23 66.1764 161.217 66.2372 162.218C66.2158 162.967 66.4384 163.701 66.4521 164.449C66.6379 164.522 66.8266 164.594 67.0112 164.674C66.7866 164.762 66.5673 164.865 66.3592 164.989C66.4641 165.046 66.6755 165.161 66.7809 165.219C68.5311 163.92 70.3204 162.68 72.1083 161.433C73.0846 160.716 73.8362 159.594 73.7867 158.345C73.8188 157.527 73.3161 156.857 72.9262 156.188C72.8646 156.188 72.7416 156.189 72.6818 156.19C72.4984 156.651 72.2213 157.062 71.9655 157.486C71.8725 157.333 71.779 157.185 71.683 157.04C71.3709 155.925 71.0054 154.825 70.718 153.704C70.5516 152.612 70.3826 151.521 70.2238 150.429C70.1565 149.401 70.0874 148.373 69.908 147.359C69.7174 145.739 70.0993 144.117 69.9395 142.496C69.8249 142.163 69.5744 141.909 69.362 141.641C68.3767 140.986 67.2152 140.697 66.0753 140.445C65.8674 140.395 65.66 140.397 65.4546 140.451C65.4088 141.837 65.1926 143.22 65.2755 144.61ZM71.3049 141.284C71.3921 142.543 71.5113 143.799 71.5583 145.062C71.5286 145.903 71.7009 146.732 71.7035 147.572C71.7542 148.801 72.0451 150.004 72.0806 151.233C72.1476 151.723 72.2771 152.204 72.4247 152.677C72.6607 151.831 72.4999 150.899 72.4554 150.026C72.5119 148.689 72.3981 147.354 72.372 146.02C72.4192 145.119 72.3682 144.22 72.2857 143.324C72.2995 142.6 72.3582 141.865 72.2062 141.15C71.9005 141.165 71.5963 141.186 71.3049 141.284ZM74.0935 145.627C74.0929 146.773 73.9496 147.914 73.9835 149.062C74.0593 150.28 73.865 151.507 74.0673 152.72C74.1159 153.928 74.1083 155.151 74.3618 156.34C74.4216 157.094 74.4222 157.857 74.5886 158.6C74.7996 158.476 75.1143 158.347 75.0326 158.041C75.0125 157.485 74.9971 156.93 74.9139 156.381C74.89 155.648 74.9269 154.912 74.8497 154.181C74.8967 153.729 74.8288 153.279 74.7562 152.835C74.7938 151.759 74.8036 150.669 74.6331 149.604C74.7044 148.527 74.6627 147.441 74.5742 146.365C74.588 145.366 74.5979 144.365 74.5077 143.369C74.5061 143.163 74.4897 142.959 74.4707 142.757C74.425 142.629 74.3815 142.502 74.3384 142.377C74.3189 143.465 74.0905 144.536 74.0935 145.627Z" fill="black"/>
<path d="M45.1074 89.5298C45.8023 89.4568 46.5027 89.4626 47.1995 89.4723C48.2737 89.3704 49.3512 89.394 50.4277 89.3762L50.6473 89.5361C49.3746 89.9195 48.0606 90.0975 46.7451 90.2451C46.1191 90.3226 45.3869 90.163 45.1074 89.5298Z" fill="black"/>
<path d="M59.9652 91.5797C60.4407 91.142 61.0991 91.0211 61.6694 90.7556C62.0416 90.5729 62.4692 90.646 62.8636 90.5533C63.9224 90.2642 65.037 90.2139 66.0535 89.7721C65.6709 90.7735 64.7122 91.4306 63.8382 91.9881C63.214 92.2038 62.6458 92.5781 61.9846 92.6751C61.0983 92.746 60.2167 92.9482 59.3264 92.7783C59.2637 92.281 59.6868 91.9302 59.9652 91.5797Z" fill="black"/>
<path d="M72.6932 156.759C72.768 156.524 72.8941 156.492 73.0715 156.661C72.9935 156.894 72.8674 156.927 72.6932 156.759Z" fill="black"/>
</svg>
