<svg width="250" height="250" viewBox="0 0 250 250" fill="none" xmlns="http://www.w3.org/2000/svg">
<path d="M163.924 52.0038C166.048 51.8848 168.221 52.1218 170.147 53.0765C172.368 53.9443 173.993 55.753 175.67 57.3742C174.139 61.5129 171.791 65.3175 170.525 69.5659C175.176 73.016 178.477 78.4043 179.007 84.2506C179.238 86.3247 179.121 88.4128 178.912 90.4858C180.23 90.3274 181.557 90.2279 182.88 90.0918C185.528 91.6341 187.903 93.953 188.803 96.9665C189.508 99.2059 189.523 101.711 188.539 103.878C186.101 109.537 179.454 112.923 173.491 111.698C174.228 115.225 174.618 118.877 174.001 122.462C173.595 125.275 172.503 127.92 171.626 130.608C171.204 131.969 170.267 133.067 169.419 134.178C171.889 141.77 172.813 150.171 170.379 157.926C167.453 168.086 160.029 176.407 151.396 182.19C144.45 186.3 137.862 191 131.424 195.871C127.835 199.243 123.911 202.294 119.575 204.622C113.495 207.899 105.985 208.002 99.7001 205.348C97.216 204.251 94.5713 203.205 92.67 201.187C86.5876 194.473 81.2647 186.979 77.5603 178.667C73.6569 169.465 70.0081 159.778 70.1084 149.608C70.2217 145.709 70.8379 141.554 73.3152 138.4C73.7639 137.765 74.3917 137.083 74.1118 136.242C73.227 131.146 73.4788 125.658 75.9188 120.989C77.5666 116.741 80.6158 113.206 84.1175 110.376C85.7811 109.008 87.7024 107.972 89.2029 106.409C90.1545 105.437 90.5858 104 91.4069 103.654L91.4021 103.599C91.7715 102.85 92.1349 102.103 92.4959 101.35C88.5085 100.691 84.6198 99.5751 80.6571 98.8021C78.2617 93.2116 80.4376 86.5441 84.522 82.3128C85.0949 81.6316 86.0603 81.8401 86.8369 81.7869C89.9622 81.9072 93.0503 82.491 96.1261 83.0345C97.4412 80.0116 98.8189 77.0158 100.195 74.0242C100.861 72.624 101.747 71.209 103.209 70.5583C106.891 68.7412 111.236 69.285 114.999 70.4962C117.784 71.3334 120.099 73.2211 121.975 75.3987C122.213 74.862 122.871 74.3727 122.65 73.7171C121.445 69.0726 119.87 64.5419 118.461 59.9585C120.921 57.1972 124.574 55.2773 128.316 55.735C129.413 55.8355 129.97 56.8614 130.579 57.6401C132.464 60.3012 134.571 62.7833 136.615 65.3183C137.645 60.7227 138.57 56.1065 139.333 51.4649C139.475 50.1073 140.925 49.5414 141.973 48.9864C145.22 47.5453 148.958 47.4312 152.317 48.4873C153.102 52.7952 153.942 57.0917 155.003 61.3344C158.09 58.34 161.065 55.227 163.924 52.0038ZM165.342 54.7371C161.579 58.9477 157.483 62.8393 153.561 66.891C151.843 61.6591 150.978 56.1972 149.828 50.8216C147.188 50.4169 144.429 50.7552 142.104 52.1511C141.012 58.604 139.758 65.0315 138.158 71.3786C134.311 67.3876 131.001 62.9 127.588 58.5374C125.448 58.4646 123.49 59.3901 121.781 60.6129C123.168 65.5216 124.788 70.3614 126.067 75.303C124.357 76.8006 122.62 78.3265 121.392 80.2678C118.588 84.4044 117.386 89.3155 116.164 94.0924C115.384 100.535 115.653 107.188 117.935 113.304C122.69 107.205 128.863 102.455 135.201 98.1359C135.993 94.2164 137.814 90.5284 140.339 87.4354C143.56 83.6191 148.303 81.0926 153.264 80.719C157.209 80.9598 161.447 81.6923 164.5 84.4046C166.069 85.5194 166.956 87.2479 168.041 88.7824C170.497 89.897 173.232 90.1528 175.89 90.3903C176.525 87.3125 176.421 84.0642 175.465 81.0766C174.098 76.5912 170.772 73.056 167.008 70.4403C168.395 66.0844 170.488 62.0095 172.259 57.8098C170.228 56.2399 167.945 54.9758 165.342 54.7371ZM181.37 93.1301C176.506 93.5207 171.462 93.2635 166.9 91.4262C163.927 90.2677 162.442 87.2204 160.177 85.1843C157.974 84.0796 155.457 83.5734 152.994 83.6054C149.126 84.0777 145.336 85.9482 142.827 88.9932C141.902 91.3209 142.273 94.0102 141.137 96.301C140.544 98.103 138.952 99.2616 137.409 100.212C134.184 102.198 131.143 104.467 128.226 106.876C123.5 110.939 118.616 115.529 116.909 121.744C116.273 123.818 114.816 125.465 113.79 127.339C115.165 129.164 116.36 131.131 116.959 133.364C117.886 136.795 121.866 137.38 124.75 138.33C123.428 138.946 121.978 139.078 120.563 138.749C120.385 139.961 120.432 141.191 120.53 142.408C119.327 141.167 118.695 139.549 118.592 137.83C118.078 137.507 117.564 137.184 117.047 136.866C115.306 142.118 111.557 146.664 111.227 152.353C110.351 150.989 109.864 149.403 109.979 147.764C108.951 148.363 107.888 148.907 106.801 149.39C107.449 148.592 108.081 147.751 108.9 147.121C111.494 145.527 111.933 142.205 113.587 139.828C110.7 141.515 107.161 141.731 104.106 140.431C108.2 140.432 113.005 138.952 114.776 134.877C114.849 132.535 113.504 130.378 111.941 128.746C110.613 129.57 109.213 130.362 107.646 130.582C100.386 131.708 93.1174 132.776 85.9045 134.172C82.1399 134.829 78.4613 136.603 75.956 139.57C73.6092 142.445 72.9014 146.286 72.9694 149.903C72.8967 155.778 74.3229 161.524 76.1195 167.054C78.2911 173.173 80.6332 179.275 83.9921 184.838C86.9613 189.688 90.2967 194.322 94.1454 198.503C94.9206 199.334 95.7148 200.178 96.6979 200.769C101.248 203.286 106.524 204.963 111.778 204.176C116.714 203.562 120.944 200.663 124.849 197.749C127.175 196.088 129.055 193.89 131.4 192.253C136.539 188.598 141.583 184.783 146.984 181.527C154.29 177.343 160.689 171.341 164.849 163.949C167.574 159.504 168.499 154.268 169.122 149.171C169.376 149.191 169.886 149.238 170.145 149.259C169.843 149.099 169.238 148.777 168.936 148.616C169.008 144.31 168.19 140.032 166.971 135.926C162.379 137.234 157.698 135.58 153.526 133.732C148.498 131.553 144.358 127.62 141.499 122.962C141.155 123.653 140.815 124.335 140.479 125.029C140.334 124.836 140.051 124.449 139.911 124.258C140.422 125.274 140.023 126.401 140.226 127.453C141.453 129.873 143.174 132.078 143.834 134.763C144.864 138.758 143.858 142.979 142.15 146.646C143.325 148.44 144.822 150.098 145.389 152.232C145.991 154.057 145.304 155.953 145.24 157.804C146.017 159.865 147.41 161.603 148.775 163.304C148.025 162.954 147.276 162.6 146.535 162.239C146.407 162.488 146.155 162.978 146.027 163.228C146.048 161.658 145.206 160.443 143.952 159.575C143.449 163.115 144.095 166.713 145.817 169.832C142.029 167.501 141.148 162.327 142.568 158.33C143.813 154.977 143.177 151.024 140.664 148.45C139.044 150.482 137.26 152.402 135.089 153.855C132.593 155.486 131.252 158.453 131.185 161.387C130.938 164.314 132.315 167.004 132.589 169.871C132.818 171.185 132.624 172.56 132.97 173.854C133.852 175.525 135.144 176.935 136.278 178.436C134.771 178.003 133.457 177.133 132.315 176.074C131.464 178.368 130.198 180.718 127.807 181.671C129.733 179.102 130.658 175.905 130.567 172.708C128.773 174.319 126.503 175.428 124.072 175.5C126.706 174.147 128.848 172.018 130.342 169.462C129.813 166.979 129.059 164.509 129.019 161.948C128.964 160.21 129.432 158.514 129.856 156.849C126.473 158.66 122.354 158.924 119.417 161.594C113.487 166.754 111.56 174.964 111.317 182.514C110.768 187.908 106.981 192.163 103.362 195.881C105.424 193.112 107.338 190.194 108.447 186.892C105.954 188.185 102.996 188.822 100.37 187.539C103.76 187.334 107.014 185.566 109.132 182.921C109.266 175.339 111.24 167.559 116.105 161.583C112.072 162.733 107.819 162.494 103.761 161.7C101.574 162.021 99.6707 163.36 97.7405 164.382C98.7982 162.857 100.165 161.58 101.72 160.575C100.996 160.016 100.264 159.474 99.536 158.924C102.132 160.014 104.864 161.018 107.728 160.965C111.152 161.07 114.536 160.343 117.841 159.487C119.65 159.031 121.072 157.694 122.848 157.154C127.422 155.774 131.958 153.862 135.617 150.705C139.767 147.317 142.026 141.52 140.914 136.241C140.377 133.42 138.625 131.102 136.997 128.842C137.147 125.374 138.204 121.769 140.648 119.195C143.45 116.127 147.329 114.416 150.785 112.231C157.455 108.026 165.744 107.395 173.316 108.738C178.229 110.063 183.845 107.39 186.015 102.759C186.945 100.099 186.283 96.9936 184.423 94.9032C183.63 94.0449 182.652 92.9861 181.37 93.1301ZM110.879 72.4185C108.763 72.211 106.522 72.1441 104.536 73.0425C103.629 73.4888 103.011 74.8001 103.717 75.6758C104.901 77.4281 106.903 78.3209 108.798 79.0723C111.665 80.1447 114.928 80.4846 117.876 79.4935C118.833 79.1037 120.054 77.8641 119.209 76.8283C117.419 74.0634 113.934 73.0329 110.879 72.4185ZM101.575 77.6906C98.8796 83.7382 96.5463 90.0826 95.8226 96.7049C95.6314 98.1412 95.7432 99.5988 95.4946 101.03C95.3002 101.73 95.3802 102.169 94.7389 102.932C94.9318 102.956 94.7839 102.876 94.9751 102.904C93.4046 106.79 90.2463 109.674 86.8246 111.919C79.6414 116.941 75.1117 126.111 76.814 134.879C79.1139 133.313 81.6657 132.08 84.4033 131.562C91.8665 130.035 99.4037 128.954 106.927 127.792C109.14 127.477 111.066 126.063 112.348 124.25C114.028 121.78 114.959 118.866 115.836 116.042C113.279 109.293 112.145 101.865 113.381 94.6803C113.802 90.5506 115.103 86.577 116.852 82.8276C111.374 83.3768 105.305 81.9754 101.575 77.6906ZM155.866 112.849C153.732 113.688 151.824 114.98 149.849 116.128C147.604 117.443 145.284 118.701 143.388 120.523C147.382 127.881 155.136 132.97 163.48 133.549C165.17 133.561 166.973 132.844 167.978 131.43C171.133 125.567 172.556 118.418 170.458 111.982C170.322 111.244 169.508 111.131 168.893 111.064C164.507 110.832 159.986 111.176 155.866 112.849ZM86.2432 84.5978C83.6731 87.7714 81.5201 92.2701 82.9336 96.3058C86.1692 97.1784 89.481 97.7492 92.754 98.4782C93.0535 94.1956 93.9889 89.9787 95.2941 85.892C92.3397 85.0913 89.2818 84.8154 86.2432 84.5978Z" fill="black"/>
<path d="M111.957 73.4152C113.974 73.9647 116.104 74.768 117.403 76.4952C118.12 77.4707 117.251 78.6981 116.219 78.9405C114.332 79.4169 112.353 79.0436 110.5 78.5953C108.627 78.0785 106.674 77.2771 105.429 75.7129C104.783 74.9383 105.126 73.6778 106.075 73.3296C107.95 72.5032 110.056 72.9614 111.957 73.4152ZM110.162 74.1016C108.78 74.0771 107.012 73.6505 106.046 74.941C108.262 77.1256 111.442 78.0342 114.493 78.0624C115.211 77.9388 116.698 78.0084 116.418 76.903C114.735 75.3088 112.394 74.5443 110.162 74.1016Z" fill="black"/>
<path d="M165.347 54.7363C167.951 54.975 170.233 56.2392 172.264 57.8091C170.494 62.0088 168.401 66.0837 167.013 70.4395C170.777 73.0553 174.103 76.5905 175.47 81.0758C176.426 84.0635 176.53 87.3117 175.895 90.3896C173.237 90.152 170.502 89.8963 168.046 88.7817C166.961 87.2471 166.075 85.5186 164.505 84.4038C161.453 81.6915 157.214 80.9591 153.269 80.7182C148.309 81.0919 143.565 83.6184 140.345 87.4346C137.819 90.5277 135.998 94.2156 135.206 98.1351C128.868 102.454 122.695 107.204 117.94 113.304C115.658 107.188 115.389 100.535 116.169 94.0917C117.392 89.3147 118.593 84.4036 121.397 80.267C122.625 78.3257 124.362 76.7999 126.072 75.3022C124.793 70.3606 123.173 65.5208 121.786 60.6121C123.496 59.3893 125.453 58.4638 127.593 58.5366C131.006 62.8993 134.316 67.3869 138.163 71.3778C139.764 65.0307 141.018 58.6033 142.109 52.1504C144.434 50.7545 147.193 50.4161 149.833 50.8209C150.984 56.1964 151.848 61.6583 153.566 66.8902C157.489 62.8385 161.584 58.947 165.347 54.7363Z" fill="#FB3E2D"/>
<path d="M181.37 93.1292C182.652 92.9852 183.63 94.044 184.423 94.9023C186.283 96.9927 186.945 100.098 186.015 102.758C183.844 107.389 178.229 110.063 173.316 108.738C165.744 107.395 157.455 108.025 150.785 112.23C147.329 114.415 143.45 116.126 140.648 119.195C138.204 121.768 137.147 125.373 136.997 128.841C138.625 131.101 140.377 133.419 140.914 136.24C142.026 141.519 139.767 147.316 135.616 150.704C131.958 153.861 127.422 155.773 122.848 157.153C121.072 157.693 119.65 159.031 117.841 159.486C114.536 160.342 111.152 161.069 107.728 160.964C104.864 161.018 102.132 160.013 99.536 158.923C100.264 159.473 100.996 160.015 101.72 160.574C100.164 161.579 98.7982 162.856 97.7405 164.381C99.6707 163.359 101.574 162.02 103.761 161.699C107.819 162.493 112.072 162.732 116.105 161.582C111.24 167.558 109.266 175.338 109.132 182.921C107.014 185.566 103.76 187.333 100.37 187.538C102.996 188.821 105.954 188.184 108.447 186.891C107.338 190.193 105.424 193.112 103.362 195.881C106.981 192.162 110.768 187.907 111.317 182.513C111.56 174.963 113.487 166.753 119.417 161.593C122.353 158.923 126.473 158.66 129.856 156.848C129.432 158.513 128.964 160.209 129.019 161.947C129.059 164.508 129.813 166.978 130.342 169.461C128.848 172.017 126.706 174.147 124.072 175.499C126.502 175.428 128.773 174.318 130.567 172.707C130.658 175.904 129.733 179.102 127.807 181.67C130.198 180.717 131.464 178.368 132.315 176.073C133.457 177.132 134.771 178.002 136.278 178.435C135.144 176.934 133.852 175.525 132.97 173.853C132.624 172.559 132.818 171.184 132.589 169.87C132.315 167.003 130.938 164.313 131.185 161.386C131.252 158.452 132.593 155.485 135.089 153.854C137.26 152.401 139.044 150.481 140.664 148.449C143.177 151.023 143.813 154.976 142.568 158.33C141.148 162.326 142.029 167.5 145.817 169.832C144.095 166.712 143.449 163.114 143.952 159.574C145.206 160.442 146.048 161.657 146.027 163.227C146.155 162.977 146.407 162.487 146.535 162.238C147.276 162.599 148.024 162.953 148.775 163.303C147.41 161.602 146.017 159.864 145.24 157.803C145.304 155.952 145.991 154.057 145.389 152.232C144.822 150.097 143.325 148.439 142.15 146.645C143.858 142.978 144.864 138.757 143.834 134.762C143.174 132.078 141.453 129.873 140.226 127.452C140.023 126.4 140.422 125.273 139.911 124.257C140.051 124.448 140.334 124.835 140.479 125.028C140.814 124.334 141.155 123.652 141.499 122.961C144.358 127.619 148.498 131.552 153.526 133.731C157.698 135.579 162.379 137.233 166.971 135.925C168.19 140.031 169.008 144.309 168.936 148.615C169.238 148.776 169.843 149.098 170.145 149.259C169.886 149.237 169.376 149.19 169.122 149.17C168.499 154.267 167.574 159.503 164.849 163.948C160.688 171.34 154.29 177.342 146.984 181.526C141.583 184.782 136.538 188.597 131.4 192.252C129.055 193.889 127.175 196.087 124.849 197.748C120.944 200.662 116.714 203.561 111.778 204.175C106.524 204.962 101.248 203.285 96.6979 200.768C95.7148 200.177 94.9205 199.333 94.1454 198.502C90.2967 194.321 86.9612 189.687 83.9921 184.837C80.6332 179.274 78.291 173.172 76.1194 167.054C74.3228 161.523 72.8967 155.778 72.9694 149.903C72.9013 146.285 73.6092 142.444 75.956 139.569C78.4613 136.602 82.1398 134.828 85.9045 134.171C93.1174 132.775 100.386 131.708 107.646 130.581C109.213 130.361 110.613 129.569 111.941 128.745C113.504 130.377 114.849 132.534 114.776 134.876C113.005 138.951 108.2 140.431 104.106 140.431C107.161 141.73 110.7 141.514 113.587 139.828C111.933 142.204 111.494 145.527 108.899 147.121C108.081 147.75 107.449 148.591 106.801 149.389C107.888 148.906 108.951 148.362 109.979 147.763C109.864 149.402 110.351 150.988 111.227 152.352C111.556 146.663 115.306 142.117 117.047 136.865C117.563 137.184 118.078 137.506 118.592 137.829C118.695 139.548 119.327 141.166 120.529 142.407C120.432 141.19 120.385 139.961 120.563 138.749C121.978 139.077 123.427 138.945 124.75 138.329C121.866 137.379 117.886 136.794 116.959 133.363C116.36 131.13 115.165 129.163 113.79 127.338C114.816 125.464 116.273 123.817 116.909 121.744C118.616 115.528 123.5 110.938 128.226 106.875C131.143 104.467 134.184 102.197 137.409 100.211C138.951 99.2607 140.544 98.1021 141.137 96.3001C142.273 94.0094 141.902 91.32 142.827 88.9923C145.336 85.9473 149.126 84.0769 152.994 83.6045C155.457 83.5725 157.974 84.0787 160.177 85.1834C162.442 87.2196 163.927 90.2668 166.9 91.4253C171.462 93.2627 176.506 93.5198 181.37 93.1292Z" fill="#FB3E2D"/>
<path d="M110.886 72.418C113.941 73.0324 117.425 74.0628 119.216 76.8278C120.061 77.8636 118.839 79.1032 117.882 79.493C114.935 80.4841 111.671 80.1442 108.805 79.0718C106.91 78.3204 104.908 77.4276 103.724 75.6753C103.018 74.7996 103.636 73.4883 104.543 73.042C106.528 72.1436 108.77 72.2105 110.886 72.418ZM111.961 73.4137C110.061 72.96 107.954 72.5018 106.079 73.3282C105.13 73.6764 104.787 74.9369 105.433 75.7115C106.679 77.2757 108.631 78.0771 110.504 78.5939C112.357 79.0422 114.337 79.4155 116.224 78.9391C117.256 78.6967 118.125 77.4693 117.407 76.4938C116.109 74.7666 113.978 73.9632 111.961 73.4137Z" fill="#FB3E2D"/>
<path d="M110.157 74.1004C112.389 74.5431 114.729 75.3077 116.413 76.9018C116.692 78.0073 115.206 77.9376 114.488 78.0613C111.436 78.0331 108.256 77.1245 106.04 74.9398C107.006 73.6494 108.774 74.076 110.157 74.1004Z" fill="#FB3E2D"/>
<path d="M101.577 77.6892C105.306 81.974 111.376 83.3754 116.854 82.8262C115.105 86.5756 113.804 90.5491 113.383 94.6789C112.147 101.864 113.281 109.291 115.838 116.041C114.961 118.864 114.03 121.779 112.35 124.249C111.068 126.062 109.142 127.476 106.928 127.791C99.4055 128.953 91.8683 130.033 84.4051 131.561C81.6676 132.079 79.1158 133.311 76.8158 134.878C75.1136 126.11 79.6432 116.94 86.8264 111.918C90.2481 109.673 93.4064 106.789 94.9769 102.902C94.7858 102.874 94.9305 102.955 94.7375 102.931C95.3179 101.466 95.302 101.729 95.4965 101.029C95.7451 99.5974 95.6332 98.1397 95.8244 96.7035C96.5481 90.0812 98.8815 83.7368 101.577 77.6892Z" fill="#FB3E2D"/>
<path d="M155.865 112.848C159.985 111.176 164.507 110.831 168.893 111.063C169.508 111.13 170.322 111.243 170.458 111.981C172.556 118.418 171.133 125.566 167.977 131.429C166.973 132.843 165.17 133.561 163.48 133.548C155.135 132.969 147.382 127.88 143.388 120.523C145.283 118.7 147.603 117.442 149.849 116.127C151.824 114.979 153.732 113.687 155.865 112.848Z" fill="#FB3E2D"/>
<path d="M86.2507 84.5967C89.2893 84.8143 92.3472 85.0902 95.3016 85.8909C93.9964 89.9775 93.061 94.1945 92.7615 98.477C89.4885 97.7481 86.1767 97.1773 82.9411 96.3047C81.5276 92.269 83.6806 87.7703 86.2507 84.5967Z" fill="#FB3E2D"/>
</svg>
