<svg width="140" height="9" viewBox="0 0 140 9" fill="none" xmlns="http://www.w3.org/2000/svg">
<path d="M51.2957 8.96883e-06L53.292 9.31787e-06L49.1259 8.91261L47.4768 8.91261L43.3106 7.57267e-06L45.3937 7.93688e-06L48.1711 6.55339L48.3447 6.55339L51.2957 8.96883e-06ZM61.8847 1.08203e-05L66.0508 8.91261L63.9678 8.91261L63.1866 6.99028L58.9337 6.99028L58.1525 8.91261L56.1562 8.91261L60.2356 1.05319e-05L61.8847 1.08203e-05ZM62.4923 5.59223L61.1035 2.35923L60.93 2.35923L59.5412 5.59223L59.5412 5.67961L62.4923 5.59223ZM84.8853 8.99999L86.7948 8.99999L86.7948 1.51757e-05L84.8853 1.48418e-05L84.8853 8.99999ZM97.5574 1.70575e-05L101.724 8.91261L99.6404 8.91261L98.8593 6.99029L94.6063 6.99029L93.8252 8.91261L91.8289 8.91261L95.995 1.67843e-05L97.5574 1.70575e-05ZM98.1649 5.59224L96.7762 2.35923L96.6026 2.35923L95.2139 5.59223L95.2139 5.67961L98.1649 5.59224ZM114.396 4.63108C114.83 5.06797 115.003 5.59224 115.003 6.29126C115.003 6.5534 115.003 6.81553 114.916 7.07767C114.743 7.51456 114.569 7.86408 114.222 8.21359C113.614 8.82524 112.92 8.99999 111.792 8.99999L106.324 8.99999L106.324 1.85902e-05L111.618 1.95159e-05C112.66 1.9698e-05 113.441 0.262154 113.962 0.873803C114.309 1.22332 114.482 1.74759 114.482 2.18448C114.482 2.44661 114.396 2.70875 114.309 2.97089C114.135 3.40778 113.788 3.75729 113.354 3.93205L113.267 4.01943L113.354 4.01943C113.875 4.19418 114.222 4.36894 114.396 4.63108ZM108.233 3.66991L111.445 3.66991C111.878 3.66991 112.139 3.58253 112.312 3.40778C112.486 3.23302 112.66 2.88351 112.66 2.62137C112.66 2.35924 112.573 2.0971 112.399 1.92234C112.312 1.83497 112.312 1.83497 112.226 1.74759C112.052 1.66021 111.792 1.57283 111.445 1.57283L108.233 1.57283L108.233 3.66991ZM113.094 6.29126C113.094 6.02913 113.007 5.76699 112.746 5.50486C112.486 5.24272 112.139 5.06797 111.705 5.06797L108.146 5.06797L108.146 7.42718L111.705 7.42718C112.139 7.42718 112.486 7.3398 112.746 7.07767C113.007 6.90291 113.094 6.5534 113.094 6.29126ZM122.467 7.33981L122.467 2.14129e-05L120.645 2.10942e-05L120.645 8.91262L127.762 8.91262L127.762 7.33981L122.467 7.33981ZM134.532 1.66021L140 1.66021L140 0.0874024L132.622 0.0874011L132.622 9L140 9L140 7.42719L134.532 7.42719L134.532 5.33011L139.913 5.33011L139.913 3.7573L134.532 3.75729L134.532 1.66021ZM0.0867948 1.66019L3.385 1.66019L3.385 8.99998L5.20769 8.99998L5.20769 1.66019L8.41909 1.66019L8.4191 0.0873794L-1.52776e-08 0.0873779L-2.90277e-07 1.66019L0.0867948 1.66019ZM15.1891 3.40776L15.1891 0.0873806L13.3664 0.0873802L13.3664 8.99998L15.2759 8.99998L15.2759 4.98057L19.6156 4.98057L19.6156 8.99998L21.5251 8.99998L21.5251 3.76357e-06L19.6156 3.4297e-06L19.6156 3.32038L15.1891 3.32038L15.1891 3.40776ZM28.7291 7.33979L28.7291 5.24271L34.1104 5.24271L34.1104 3.6699L28.7291 3.6699L28.7291 1.57282L34.1972 1.57282L34.1972 5.97922e-06L26.8196 4.68929e-06L26.8196 8.9126L34.1971 8.9126L34.1971 7.33979L28.7291 7.33979ZM77.2474 5.3301C77.8549 5.06796 78.2021 4.71845 78.5493 4.36893C78.8965 3.93204 79.0701 3.40777 79.0701 2.79612C79.0701 2.0971 78.8097 1.48545 78.3757 0.961176C77.7681 0.349527 76.9002 1.34457e-05 75.6851 1.32332e-05L70.7378 1.23682e-05L70.7378 8.91261L72.5604 8.91261L72.5604 1.57282L75.6851 1.57282C76.0322 1.57282 76.4662 1.6602 76.8134 2.00972C76.987 2.18447 77.1606 2.53399 77.1606 2.79612C77.1606 3.49515 76.553 4.01942 75.8587 4.01942L74.1228 4.01942L74.1228 5.59223L75.4247 5.59223L77.2474 8.91261L79.4172 8.91261L77.2474 5.3301Z" fill="white"/>
</svg>
