<svg width="10" height="10" viewBox="0 0 10 10" fill="none" xmlns="http://www.w3.org/2000/svg">
<path d="M9.17726 1.56116L9.18223 1.20209L8.82316 1.20634C8.12134 1.21463 7.41869 1.22192 6.71572 1.22922C5.62852 1.2405 4.54057 1.25179 3.4538 1.26681L3.11514 1.27149L3.1087 1.61012C3.10498 1.80564 3.10308 2.00129 3.10178 2.19535L3.09942 2.54932L3.4534 2.54768C4.20914 2.54416 4.97706 2.53515 5.74342 2.52617C6.14999 2.52141 6.55612 2.51665 6.95977 2.51271C5.65191 3.81964 4.99281 4.47712 4.24105 5.22703C3.569 5.89743 2.82289 6.6417 1.47302 7.98988L1.22547 8.23712L1.47261 8.48476L1.884 8.89698L2.13114 9.14463L2.37888 8.89758C3.63961 7.64035 4.37312 6.90811 5.01148 6.27084C5.82181 5.46191 6.47883 4.80601 7.86634 3.42364C7.86045 3.97533 7.85285 4.52634 7.84524 5.07797C7.83677 5.69195 7.82829 6.30672 7.82214 6.92409L7.81864 7.276L8.17056 7.27757C8.36789 7.27846 8.56465 7.27753 8.76204 7.2748L9.10244 7.27007L9.10715 6.92967C9.11953 6.03497 9.13087 5.14016 9.1422 4.24559L9.14221 4.24501C9.15355 3.35017 9.16489 2.45558 9.17726 1.56116Z" fill="#383737" stroke="#383737" stroke-width="0.7"/>
</svg>
