<svg width="106" height="40" viewBox="0 0 106 40" fill="none" xmlns="http://www.w3.org/2000/svg">
<g clip-path="url(#clip0_2031_24461)">
<path d="M103.361 36.6954H103.792C103.979 36.6954 104.187 36.7698 104.187 37.024C104.187 37.3119 103.929 37.3379 103.693 37.3379H103.361V37.4611H103.767L104.237 38.2235H104.385L103.919 37.4652C104.142 37.4273 104.322 37.2968 104.322 37.0281C104.322 36.7287 104.166 36.5718 103.813 36.5718H103.227V38.2235H103.361V36.6954Z" fill="#383737"/>
<path d="M103.707 36.0002C104.438 36.0002 105.028 36.624 105.028 37.3978C105.028 38.1712 104.438 38.795 103.707 38.795C102.977 38.795 102.387 38.1712 102.387 37.3978C102.387 36.624 102.977 36.0002 103.707 36.0002L103.711 36.1239C103.03 36.1239 102.521 36.6765 102.521 37.3978C102.521 38.1037 103.037 38.6718 103.711 38.6718C104.385 38.6718 104.894 38.1001 104.894 37.3937C104.894 36.6801 104.389 36.1239 103.711 36.1239L103.707 36.0002Z" fill="#383737"/>
<path d="M90.5733 39.0622H84.3477V0.55249H90.5733V15.6371L93.7681 0.55249H100.425L96.2259 16.0026L100.65 39.0622H94.1777L91.9139 22.3792L90.5733 25.2925V39.0622Z" fill="#383737"/>
<path d="M71.3713 32.5807H65.3268V22.454H70.0941V15.9876H65.3268V6.56263H71.3713V0.55249H58.7549V39.0622H71.3713V32.5807Z" fill="#383737"/>
<path d="M83.8044 32.5807H78.0255V22.454H82.5833V15.9876H78.0255V6.56263H83.8044V0.55249H71.7412V39.0622H83.8044V32.5807Z" fill="#383737"/>
<path d="M33.3359 0.55249L37.7902 39.0622H44.5316L46.2301 14.3025L48.4391 39.0622H54.2392L58.3412 0.55249H53.2086L51.9413 22.1889L49.775 0.55249H43.1173L41.3817 21.8485L39.252 0.55249H33.3359Z" fill="#383737"/>
<path d="M27.17 30.8372C27.17 32.3042 26.5435 33.4933 25.7708 33.4933H24.6859V6.56262L25.7708 6.56308C26.5435 6.56308 27.17 7.75169 27.17 9.21909V30.8372ZM28.555 0.55249H18.2433V24.8805L18.2373 24.8175V39.0622L28.555 39.0617C31.1957 39.0617 33.3362 35.7911 33.3362 31.7571V7.85755C33.3362 3.82311 31.1957 0.55249 28.555 0.55249Z" fill="#383737"/>
<path d="M7.1385 25.1435L8.71669 8.69595L10.2949 25.1435H7.1385ZM13.8173 0.552246H4.39651L0.0332031 39.0861H5.66423L6.31923 30.472H10.2513L10.9068 39.0861H17.8758L13.8173 0.552246Z" fill="#383737"/>
</g>
<defs>
<clipPath id="clip0_2031_24461">
<rect width="106" height="40" fill="white"/>
</clipPath>
</defs>
</svg>
