<svg width="75" height="94" viewBox="0 0 75 94" fill="none" xmlns="http://www.w3.org/2000/svg">
<path d="M16.5907 44.5561L16.0988 46.518L18.0648 48.97L21.506 48.9695L23.9643 46.5169L25.4393 44.5549L27.8968 47.9877L41.1678 63.1893L40.1845 63.6804L36.7429 66.6236L36.7425 69.5663L35.7593 70.0569L33.7928 70.5476L33.7926 72.019L33.3007 73.9809L33.3007 74.4713L32.3175 74.4715L29.3677 75.4528L29.3665 84.2809L30.8405 90.1662L38.7061 89.1837L48.0466 88.2019L60.3365 88.2002L61.3207 80.8433L60.8301 73.977L59.847 73.4862L56.4059 72.9967L55.9149 68.5827L51.9821 68.5833L51.4909 65.6406L48.0501 63.1884L44.6091 62.6989L46.0843 59.756L52.9686 46.0223L53.4605 43.57L54.4438 42.589L55.4271 42.0984L56.4101 43.5696L59.8512 44.0596L62.3092 43.5688L63.7843 41.6067L63.7845 40.1354L62.3099 38.6642L60.3435 39.155L60.8353 37.6835L68.7025 25.9116L69.6865 20.026L68.7039 16.1025L66.2462 13.6506L63.2969 11.6892L59.364 12.6707L59.3645 9.23753L58.8734 5.80443L58.382 4.33314L56.4156 4.33342L52.9745 3.84345L33.8019 6.29841L16.1041 9.24362L12.6626 11.2059L13.1539 13.6581L13.6451 16.1103L13.1534 17.0913L7.74534 20.5252L5.77834 24.4491L6.26904 30.8249L10.6926 36.2192L17.5742 42.1037L18.5572 43.5749L16.5907 44.5561Z" fill="white"/>
<path d="M59.3639 14.6322L58.8725 13.1609L55.4305 18.5563L43.6303 32.2907L33.7973 40.1393L25.9311 44.5545L29.8631 49.9489L34.2879 47.0055L41.1709 42.1001L48.0541 36.2137L53.9542 29.837L56.9043 25.9129L58.3792 24.9318L59.3639 14.6322Z" fill="#A79CEE"/>
<path d="M25.441 29.841L19.5414 32.7845L21.9985 38.1792L30.3563 33.7639L43.631 22.4817L50.0228 14.6335L53.9564 8.74754L53.9566 7.76664L48.5489 8.7483L46.5819 12.6722L38.7153 20.5205L32.3238 25.9164L25.441 29.841Z" fill="#A79CEE"/>
<path d="M51.9855 45.5318L36.7443 57.7952L40.6762 63.1896L44.6091 62.6986L47.5593 57.7937L50.5097 52.3983L52.9687 45.0412L51.9855 45.5318Z" fill="#A79CEE"/>
<path d="M50.9147 3.47464C50.882 3.51151 49.4748 3.66615 47.8063 3.83654C44.2592 4.17256 42.8368 4.36301 40.3414 4.74028C39.3371 4.90551 37.4647 5.17543 36.1806 5.34009C28.1316 6.41862 20.8312 7.73114 16.5472 8.89667C12.9343 9.88215 11.2095 10.8585 11.4741 11.7672C11.539 11.9726 11.6823 12.6095 11.8214 13.1768C11.9606 13.7441 12.1977 14.7766 12.379 15.4635C12.6088 16.3743 12.6319 16.7567 12.4946 16.7999C12.3921 16.841 11.8614 17.03 11.3143 17.2374C10.2191 17.635 8.66959 18.6182 7.92954 19.3955C7.27347 20.1155 6.14919 21.7709 5.79771 22.612C4.81571 24.8869 4.80643 27.9231 5.75363 30.291C6.92393 33.1688 8.52654 35.096 12.5614 38.4989C16.0073 41.414 17.6761 42.9882 17.459 43.1583C17.4262 43.1952 17.0698 43.3737 16.6795 43.5717C15.6788 44.0856 15.3987 44.6608 15.4578 45.9308C15.5636 47.6865 16.5905 49.0551 18.3462 49.7518C20.462 50.6186 22.5478 49.8299 24.6223 47.4019C25.1627 46.7936 25.6561 46.2754 25.7258 46.2712C25.7955 46.267 25.9279 46.4334 26.0102 46.6378C26.075 46.8433 26.4581 47.3959 26.8174 47.8453C27.1778 48.312 27.6686 48.9105 27.8781 49.1945C30.2242 52.141 36.1577 58.9012 38.0154 60.7083C39.6145 62.2867 39.9881 62.6829 39.9965 62.8219C40.0007 62.8915 39.6495 63.1569 39.2265 63.3917C37.4341 64.407 36.0244 66.5507 36.1209 68.1499L36.1722 69.0017L35.3596 69.1553C33.5786 69.4895 33.4936 69.5296 33.2964 70.0299C33.1902 70.298 33.0683 71.1777 33.012 71.9836C32.9731 72.7885 32.8952 73.5259 32.8471 73.5986C32.8001 73.6887 32.1596 73.7971 31.4103 73.8423C29.2498 73.9725 28.9937 74.0752 28.8011 74.9417C28.535 76.0394 29.2223 87.1461 29.6812 89.2468C29.874 90.1249 30.1282 90.8598 30.2153 90.8545C30.4439 90.8757 30.4777 90.8562 31.1161 90.713C31.3917 90.644 33.054 90.3693 34.8217 90.1057C37.4217 89.7222 39.5104 89.5613 45.9614 89.2421C50.3205 89.0316 54.4029 88.8726 55.0334 88.887C58.9572 88.9993 60.8802 88.988 60.9774 88.86C61.0899 88.6962 61.4328 86.8437 61.6347 85.2614C61.9452 82.87 61.9876 80.0935 61.7442 76.6364L61.5066 72.987L60.2754 72.8693C59.606 72.7876 58.587 72.7094 58.0427 72.6725L57.0258 72.6291L56.9493 71.3602C56.8686 70.0217 56.3662 68.3597 56.0093 68.2416C55.8852 68.2142 55.0426 68.1604 54.1324 68.1455L52.4698 68.1236L52.4571 67.0427C52.4691 66.0824 52.4053 65.8944 51.8745 65.2111C51.1938 64.3624 50.1308 63.5542 48.8528 62.9508C47.8805 62.4861 46.6684 62.1056 46.2154 62.1329C45.6404 62.1676 45.7065 61.8147 46.4727 60.5996C47.2694 59.3128 49.4248 55.3273 50.6413 52.8812C51.3426 51.4607 53.7448 45.768 54.1614 44.5565C54.8444 42.5439 54.8936 42.4886 55.5248 43.096C56.0646 43.6392 57.5817 44.4375 58.5589 44.6926C59.7145 45.0067 61.2119 44.899 62.059 44.4466C62.9911 43.9543 63.8659 42.8024 64.1658 41.6852C64.38 40.8872 64.3838 40.6602 64.1575 40.0981C63.8891 39.4165 62.4995 38.122 62.0813 38.1472C61.9593 38.1546 61.7461 38.0977 61.6014 38.0192C61.384 37.8927 61.5589 37.603 62.3909 36.6107C66.908 31.1917 69.5915 25.8135 69.8759 21.5395C70.1193 18.0356 69.0609 15.2732 66.7181 13.2511C65.0587 11.8333 63.2201 11.2115 61.0421 11.3428L59.9792 11.4069L59.7947 8.34749C59.6228 5.49669 59.5907 5.25437 59.1955 4.78971C58.4203 3.82458 56.1175 3.33538 52.8909 3.4776C51.9664 3.51591 51.1618 3.51208 51.09 3.48152C51.0346 3.43252 50.9475 3.43778 50.9147 3.47464ZM57.6343 4.70939C59.6827 5.03947 57.1986 6.1837 51.6959 7.44016C47.7273 8.32497 41.5336 9.43119 36.0385 10.2336C34.8067 10.3951 32.8483 10.6876 31.7046 10.8613C28.4631 11.3359 18.3821 12.0659 16.5564 11.9492C14.4508 11.8319 13.6172 11.6379 13.666 11.2861C13.7248 10.8115 15.4758 10.2697 20.2429 9.28444C27.2366 7.81594 42.5432 5.58449 48.8454 5.11724C49.8897 5.03682 50.7916 4.91266 50.8407 4.85735C50.9553 4.72832 56.9094 4.57864 57.6343 4.70939ZM58.7721 9.36869L58.8437 12.2953L57.7626 14.0877C56.6499 15.9343 55.0173 18.4403 54.4013 19.2451C54.2069 19.5011 53.4763 20.4349 52.7969 21.3481C51.3542 23.2321 47.808 27.3539 45.9983 29.2425C45.3237 29.9461 43.736 31.455 42.4583 32.5963C39.8538 34.9341 40.0534 34.7651 37.6952 36.5472C36.7419 37.2676 35.7547 38.0076 35.5039 38.1971C35.253 38.3867 34.7666 38.7301 34.4132 38.9608C31.6194 40.7692 30.4549 41.4674 28.5437 42.5422C26.8352 43.5001 26.2892 43.725 26.1229 43.578C26.0111 43.4626 25.2397 42.2704 24.4219 40.8891L22.9437 38.4137L23.42 38.1931C24.4086 37.7671 28.3488 35.5406 29.9823 34.5C33.234 32.4547 38.0208 28.607 41.1584 25.5392C43.2897 23.4741 46.9362 19.2765 48.9263 16.6094C50.6728 14.2535 54.0784 9.25046 54.0648 9.02448C54.078 8.9539 54.2683 8.6284 54.5107 8.29974C54.8515 7.86048 55.2571 7.62668 56.3195 7.26603C57.0736 7.0112 57.843 6.72056 58.0305 6.63947C58.2169 6.541 58.4392 6.45781 58.5263 6.45256C58.6124 6.42992 58.7227 7.67939 58.7721 9.36869ZM53.666 8.21111C53.6765 8.38494 50.6517 13.0336 49.5375 14.5662C42.9168 23.6711 34.4796 31.0711 25.0059 36.0737C22.3622 37.4718 22.4678 37.4828 21.7557 36.1127C21.4196 35.47 20.9665 34.625 20.7681 34.2357C20.5698 33.8464 20.391 33.4908 20.3889 33.456C20.3857 33.4039 20.7913 33.1701 21.284 32.931C26.1045 30.5119 30.1478 27.9652 34.3737 24.6747C40.1703 20.173 45.8506 14.6141 48.3121 11.0636C48.8441 10.3163 49.3106 9.64264 49.3587 9.56995C49.4242 9.49621 50.3473 9.14397 51.4282 8.79966C53.6064 8.09258 53.6587 8.08942 53.666 8.21111ZM47.9906 9.79202C48.0063 10.0528 44.7591 13.9123 42.6874 16.0958C36.4385 22.666 29.4056 27.8355 21.771 31.4362C20.7507 31.9164 19.8994 32.2992 19.8799 32.2655C19.767 32.1327 19.0576 30.5181 18.6246 29.4277C18.3551 28.7286 18.0487 27.9969 17.9674 27.8099C17.8688 27.6239 17.6394 27.0097 17.4306 26.4466C17.2392 25.8824 16.9718 25.2181 16.8689 24.9626C16.7671 24.7245 16.5994 24.2636 16.4924 23.9386C16.3864 23.6309 16.1507 22.9124 15.9593 22.3482C15.2791 20.348 13.5025 13.215 13.6478 13.0143C13.6642 12.9959 15.1678 12.9925 16.9872 13.0049C23.0954 13.0902 31.8676 12.4042 38.9868 11.277C43.3688 10.5767 46.2249 10.0904 46.8622 9.92984C47.7916 9.68189 47.9833 9.67033 47.9906 9.79202ZM64.347 13.08C69.5888 15.3285 70.5781 21.5844 66.733 28.2888C65.831 29.861 65.0882 30.8828 63.1765 33.109C59.4512 37.451 58.5123 38.9905 58.8122 40.1937C59.0842 41.224 59.8676 41.4559 60.4836 40.6511C61.6501 39.1153 61.9727 38.9563 62.7935 39.5174C63.724 40.1592 63.3678 42.0823 62.1208 43.1519C61.6058 43.6017 61.3486 43.687 60.3729 43.7458C59.0661 43.8246 57.7268 43.3645 57.1406 42.6322C55.8367 41.0186 55.6075 39.8286 56.2819 38.2527C56.8327 36.9459 57.2368 36.3982 59.8189 33.3987C62.8094 29.9211 65.0262 26.6645 65.8915 24.4839C67.001 21.7129 66.5213 18.6887 64.7058 17.0012C63.6867 16.0508 62.6984 15.901 60.5752 16.3606L59.7288 16.5337L59.7977 15.9364C59.83 15.603 59.8916 14.884 59.9103 14.3246C59.9475 13.7815 59.9726 13.3264 59.99 13.3253C60.0074 13.3243 60.3137 13.1837 60.6886 13.0215C61.8657 12.5318 63.0906 12.5452 64.347 13.08ZM58.7204 15.1814C58.7048 15.7929 58.6405 16.7564 58.5706 17.3363C58.518 17.9152 58.3399 19.6008 58.2025 21.092C58.0275 22.8297 57.8311 23.9232 57.6377 24.1966C55.5345 27.3067 50.9228 32.6093 47.7953 35.5543C46.2567 37.0079 43.8508 39.1593 42.3867 40.399C40.9553 41.6019 36.6957 44.9118 36.5563 44.9202C36.5214 44.9223 35.866 45.3631 35.0939 45.8982C33.651 46.9098 30.2251 48.9657 29.9463 48.9825C29.8069 48.9909 28.3911 47.2619 28.3796 47.0707C28.3764 47.0185 28.0292 46.4812 27.5908 45.8796C27.1687 45.2595 26.8727 44.7016 26.9556 44.6269C27.0211 44.5531 28.0362 43.986 29.2049 43.3572C30.3736 42.7285 31.5053 42.0671 31.7398 41.8959C31.9743 41.7247 32.6482 41.3003 33.2556 40.9322C36.0599 39.2976 42.1306 34.413 45.0142 31.4826C45.3765 31.1118 46.1514 30.3324 46.7451 29.7383C48.1301 28.3463 51.4032 24.6248 52.9801 22.6456C54.2479 21.0513 57.3312 16.5038 58.183 14.9695C58.4509 14.4823 58.6729 14.1026 58.7077 14.1005C58.7426 14.0984 58.7371 14.5872 58.7204 15.1814ZM13.2786 19.073C13.4438 19.2026 13.6021 19.5071 13.6157 19.733C13.6294 19.959 13.719 20.2851 13.8155 20.4363C13.8947 20.5885 14.0428 21.0158 14.1335 21.3592L14.2953 22.0124L12.9711 22.0923C9.92191 22.2761 8.46697 24.248 8.90102 27.6762C9.04514 28.9062 9.19226 29.316 9.89814 30.5819C10.604 31.8478 11.0167 32.3114 13.0517 34.1601C14.3469 35.3382 16.5879 37.1221 18.0489 38.1506C22.5949 41.3308 23.3227 42.0894 23.5833 43.8009C23.8634 45.5461 23.0681 47.1467 21.4979 48.0788C20.315 48.7608 19.6191 48.8202 18.4878 48.3301C17.3566 47.84 16.6616 47.0445 16.6092 46.1754C16.5096 44.524 17.6735 44.1049 19.0895 45.2582C19.8622 45.892 20.2159 45.9579 20.5925 45.5339C20.9692 45.11 20.9753 44.342 20.5786 43.5634C20.3175 43.0034 17.7336 40.7516 16.2789 39.8275C13.6587 38.1362 10.4931 35.5182 9.17488 33.9578C8.23241 32.8283 6.81857 30.2617 6.40576 28.9258C5.51319 26.0138 6.07728 23.1884 7.99912 20.8394C8.66738 20.0314 10.0632 19.1099 10.9414 18.8824C11.7509 18.6766 12.8754 18.7658 13.2786 19.073ZM62.3255 17.546C62.6391 17.5271 63.0709 17.7279 63.586 18.1504C64.4695 18.8822 65.0503 20.1033 65.131 21.4418C65.2148 22.8325 64.3701 25.0642 62.7777 27.655C60.9939 30.5539 56.2746 35.8107 57.1075 33.9635C57.3855 33.3536 58.5919 26.3896 59.2873 21.3929C59.5289 19.5989 59.7862 18.0655 59.8506 17.9744C60.0471 17.7532 61.0789 17.4642 61.4849 17.5269C61.6787 17.5501 62.0467 17.5628 62.3255 17.546ZM14.8029 23.7613C14.9612 24.0658 15.5155 25.4281 16.0524 26.7914C16.5718 28.1558 17.085 29.4158 17.1836 29.6018C17.2823 29.7877 17.6504 30.6727 18.0011 31.5588C18.3518 32.4449 18.7775 33.4136 18.9357 33.7181C19.093 34.0052 19.2174 34.3292 19.2237 34.4335C19.23 34.5378 19.3133 34.7596 19.4109 34.9281C19.5075 35.0793 19.8846 35.8242 20.2259 36.5538C20.5857 37.2998 20.9628 38.0446 21.0768 38.1948C21.5163 38.8138 21.0386 38.7205 19.9264 37.9676C19.3057 37.534 18.5045 37.0065 18.1598 36.8005C16.1656 35.6298 12.7912 32.4487 11.413 30.4731C10.5513 29.2341 10.3014 28.5688 10.2227 27.265C10.0844 24.9705 11.4077 23.4252 13.6194 23.2744C14.4906 23.2219 14.545 23.2535 14.8029 23.7613ZM57.6174 25.8901C57.5899 26.0138 57.4719 26.6665 57.356 27.3539C56.8504 30.2804 55.1136 36.8577 53.7162 41.2337C52.7138 44.3298 52.9563 44.0011 49.796 46.9831C46.9337 49.6853 43.3358 52.6588 40.0507 55.0202C39.2632 55.5911 37.1977 57.0067 36.8269 57.2384C36.6579 57.3358 36.0441 56.7273 34.3297 54.6848C31.8822 51.7967 30.6284 50.1452 30.703 49.9313C30.7479 49.8065 31.3009 49.4068 31.9441 49.054C32.5689 48.6848 33.6975 47.9712 34.4379 47.4904C35.1773 46.9923 36.0355 46.4346 36.3376 46.2244C38.8098 44.5924 43.8966 40.4999 47.2105 37.4563C49.6144 35.2702 55.2322 28.9648 56.4485 27.0945C57.2986 25.8221 57.7756 25.3222 57.6174 25.8901ZM52.0958 45.9721C52.1095 46.198 49.6044 51.6353 49.1257 52.3969C48.9662 52.6508 48.8414 52.9025 48.8446 52.9547C48.8509 53.059 46.8888 56.7712 45.1556 59.9288L44.0217 62.0035L42.8431 62.1792L41.6472 62.356L40.6075 61.3545C38.5487 59.4025 37.4474 58.2477 37.4358 58.0565C37.4295 57.9522 38.0132 57.4809 38.7372 57.0185C40.6892 55.7493 43.0976 53.9293 45.9265 51.543C48.2067 49.626 51.3986 46.5898 51.6665 46.1026C51.7606 45.9225 52.0874 45.833 52.0958 45.9721ZM46.4466 63.3576C47.6984 63.5264 48.7045 63.9717 49.7532 64.8331C50.2499 65.2393 50.6573 65.616 50.6615 65.6855C50.6646 65.7377 48.8024 65.8848 46.5352 65.9867C44.2506 66.0895 41.3788 66.315 40.1295 66.4776C38.8987 66.6565 37.838 66.7553 37.801 66.7227C37.7467 66.6911 38.0034 66.3092 38.3637 65.9037C39.2786 64.8366 41.0916 63.8724 42.9566 63.4808C44.4763 63.1624 44.7376 63.1466 46.4466 63.3576ZM50.4177 66.5725C50.8749 66.6147 51.2819 66.6949 51.3189 66.7275C51.3732 66.7591 51.3789 67.1426 51.3518 67.563L51.2923 68.3167L50.4835 68.2434C50.0437 68.2001 46.8858 68.3207 43.486 68.4909L37.2985 68.8291L37.2137 68.2934C37.1053 67.6544 37.2579 67.5754 39.3557 67.2744C41.3653 66.9614 49.3618 66.4617 50.4177 66.5725ZM41.5302 71.4351L41.6016 73.4894L40.6095 73.5667L39.5999 73.645L39.4762 71.5938L39.3515 69.5252L40.3969 69.4622L41.4598 69.3981L41.5302 71.4351ZM43.9917 71.0773C44.0525 72.0855 44.105 72.9546 44.1091 73.0242C44.1144 73.1111 43.6994 73.1885 43.2115 73.2179L42.288 73.2736L42.1431 71.4505C42.0649 70.4433 42.0473 69.572 42.078 69.5004C42.125 69.4103 42.5401 69.333 43.0279 69.3036L43.8817 69.2521L43.9917 71.0773ZM46.6332 71.0925C46.6787 72.1365 46.6963 73.0077 46.6809 73.0436C46.6645 73.062 46.2485 73.122 45.7801 73.1851L44.9121 73.2898L44.7361 71.2418L44.5602 69.1937L45.5565 69.186L46.5528 69.1782L46.6332 71.0925ZM48.6621 69.0685C48.8938 69.1418 48.9671 69.4863 49.0614 71.0507L49.1757 72.9455L48.3045 72.998L47.4333 73.0505L47.3128 71.0515L47.1922 69.0525L47.7846 69.0167C48.1157 68.9968 48.5021 69.0258 48.6621 69.0685ZM38.7803 71.6532C38.9093 73.7913 39.035 73.557 37.593 73.7137L37.0714 73.7626L36.9613 71.9374L36.8513 70.1122L37.629 69.9606C38.0615 69.8822 38.458 69.7885 38.5452 69.7832C38.6138 69.7616 38.7164 70.5929 38.7803 71.6532ZM51.2969 71.0032L51.4666 72.9469L50.6281 72.9626L49.7907 72.9956L49.62 71.0345L49.4493 69.0734L50.2888 69.0751L51.1283 69.0768L51.2969 71.0032ZM53.0432 69.223C53.4882 69.3532 53.5078 69.3869 53.5561 71.0588L53.624 72.7645L52.8932 72.826C52.4751 72.8512 52.1419 72.8364 52.1213 72.7853C52.1182 72.7331 52.0494 71.8824 51.9722 70.8927C51.8336 69.1738 51.8479 69.1206 52.2138 69.0986C52.4229 69.086 52.793 69.1334 53.0432 69.223ZM55.6576 69.6585C55.6987 69.7607 55.7427 70.4908 55.7561 71.2925L55.7734 72.7395L55.0559 72.7305L54.3209 72.7224L54.1754 71.1785C54.0892 70.3288 54.0584 69.5282 54.1033 69.4033C54.1921 69.1363 55.5516 69.3509 55.6576 69.6585ZM36.362 72.148L36.4668 73.8863L35.613 73.9378C35.1252 73.9672 34.6854 73.9239 34.6268 73.8228C34.5693 73.739 34.5284 73.0611 34.5541 72.3268C34.5995 71.0505 34.6128 70.9799 35.1219 70.7224C36.2076 70.1684 36.2456 70.2185 36.362 72.148ZM50.9851 73.9529C55.2756 73.764 58.6356 73.8056 59.6835 74.0739C60.2167 74.2162 60.2547 74.2663 60.4438 75.3714C60.666 76.7363 60.7936 81.7531 60.6482 83.4018C60.4572 85.4545 60.2787 86.8435 60.1613 87.217C60.0603 87.572 59.9742 87.5946 59.1992 87.5018C58.742 87.4596 57.7241 87.3988 56.9543 87.3929C54.6439 87.3578 41.0665 88.1067 38.9154 88.3934C37.8219 88.5291 35.5816 88.7863 33.9479 88.9546L30.9758 89.256L30.8077 88.4985C30.5374 87.2063 29.9511 79.513 29.9874 77.5045L30.0115 75.584L31.5712 75.3504C33.4774 75.061 42.559 74.2866 44.9666 74.1937C45.927 74.1707 48.6308 74.06 50.9851 73.9529Z" fill="#383737"/>
</svg>
