<svg width="169" height="169" viewBox="0 0 169 169" fill="none" xmlns="http://www.w3.org/2000/svg">
<path d="M80.0059 45.4917C80.6563 45.6519 81.059 46.2305 81.4532 46.7258C81.9135 47.321 82.1695 48.0474 82.2384 48.794C82.5519 50.3674 82.3476 52.003 81.8952 53.5284C81.8503 53.7975 81.6275 53.9542 81.4267 54.1075C81.1645 53.6089 81.1891 53.0215 81.1101 52.4767C81.1161 51.4536 80.9424 50.4355 80.6494 49.4581C80.4545 48.2274 79.8629 47.0855 79.8053 45.8311C79.8665 45.7146 79.9324 45.6016 80.0059 45.4917Z" fill="#A79CEE"/>
<path d="M70.96 64.7018C71.1916 64.6213 71.4396 64.6018 71.6816 64.562C71.6905 64.7496 71.7267 64.94 71.7032 65.1283C71.0993 66.7967 70.0341 68.2507 69.4317 69.9202C69.1721 70.5195 69.0033 71.1501 68.8476 71.7829C68.7683 71.7993 68.6109 71.8303 68.5316 71.8467C68.2309 70.4954 68.2587 69.0334 68.8396 67.7591C69.0224 67.359 69.0618 66.8962 69.3389 66.5409C69.8156 65.8774 70.2708 65.1651 70.96 64.7018Z" fill="#A79CEE"/>
<path d="M103.241 73.1932C102.875 72.8825 102.436 72.5956 102.289 72.1133C103.737 72.6833 105.161 73.3146 106.541 74.0344C105.958 74.1671 105.364 74.0238 104.799 73.8788C104.253 73.721 103.685 73.5638 103.241 73.1932Z" fill="#A79CEE"/>
<path d="M108.389 75.058C109.593 75.7807 110.767 76.563 111.847 77.4641C112.465 77.9746 112.874 78.696 113.123 79.4503C113.449 80.5749 113.545 81.8234 113.07 82.9223C112.486 83.003 111.993 83.3715 111.41 83.4506C110.856 83.545 110.3 83.6229 109.747 83.7129C108.689 83.9152 107.611 83.678 106.589 83.4181C105.432 82.9518 104.291 82.3787 103.038 82.233C101.875 82.1864 100.798 82.7399 99.9748 83.5254C100.832 82.0312 102.051 80.7794 103.377 79.6944C104.606 78.8173 105.905 78.0214 107.004 76.978C107.516 76.3783 108.102 75.8095 108.389 75.058Z" fill="#A79CEE"/>
<path d="M111.641 86.3254C111.958 86.0937 112.281 85.8724 112.601 85.6431C114.096 86.9868 115.277 88.7621 115.591 90.7767C115.874 91.9178 115.283 93.0584 114.533 93.8847C114.221 92.7694 114.009 91.5891 113.316 90.6319C112.769 89.6116 111.883 88.8346 110.927 88.2079C111.197 87.6014 111.617 87.0368 111.637 86.3471L111.641 86.3254Z" fill="#A79CEE"/>
<path d="M46.1186 104.887C48.1826 102.782 50.4408 100.876 52.508 98.7733C52.4084 99.3214 51.961 99.697 51.6555 100.134C50.9265 101.149 50.0823 102.075 49.3469 103.085C48.9061 103.661 48.5545 104.304 48.0707 104.847C46.8921 106.482 45.985 108.289 44.9697 110.024C44.3499 111.311 43.5477 112.502 42.9465 113.801C42.4569 114.63 42.1255 115.543 41.5975 116.351C40.7726 117.939 40.0025 119.563 39.0096 121.056C38.6073 121.921 38.0477 122.827 37.0864 123.133C36.0079 123.374 34.9022 123.5 33.7967 123.472C32.9927 123.506 32.1908 123.332 31.388 123.439C31.0763 123.475 30.7615 123.473 30.4497 123.434C35.8296 117.384 40.4785 110.711 46.1186 104.887Z" fill="#A79CEE"/>
<path d="M115.743 97.5558C115.696 97.1175 116.095 96.8466 116.366 96.574C117.734 98.0331 118.158 100.337 117.339 102.165C117.048 101.155 117.172 100.025 116.627 99.0944C116.344 98.575 115.804 98.1753 115.743 97.5558Z" fill="#A79CEE"/>
<path d="M71.5763 35.2572C72.2299 34.2467 73.4452 33.7482 74.6111 33.683C76.6243 33.5815 78.5989 34.5293 79.9491 35.9952C81.9154 38.1538 83.2522 40.8061 84.2357 43.5363C85.2086 46.4189 85.7325 49.473 85.5534 52.5202C85.3189 56.4612 84.367 60.3299 83.0249 64.0339C82.5704 65.351 82.074 66.6618 81.7881 68.0307C81.555 69.3577 81.4081 70.7138 81.518 72.0617C83.6824 72.0176 85.951 71.9448 87.908 70.9116C89.8907 69.8984 92.0475 69.1208 94.2954 69.0696C96.6248 69.0354 98.9485 69.4618 101.15 70.2128C105.321 71.6062 109.375 73.5152 112.835 76.2607C113.97 77.1999 114.62 78.6162 114.875 80.045C115.162 81.7959 114.814 83.7819 113.464 85.0327C115.338 86.5399 116.686 88.735 116.991 91.1388C117.103 92.3806 116.595 93.603 115.832 94.5639C117.391 95.5188 118.643 97.0561 119.017 98.8712C119.334 100.382 119.238 102.062 118.388 103.393C120.604 103.5 122.825 103.332 125.039 103.5C127.023 103.716 128.966 104.214 130.953 104.42C135.735 105.037 140.568 103.795 145.338 104.612C146.359 104.821 147.414 105.171 148.142 105.957C148.869 106.703 149.28 107.76 149.19 108.804C149.093 110.192 148.24 111.449 147.102 112.21C145.568 113.3 143.644 113.592 141.807 113.682C139.897 113.836 137.982 113.917 136.067 113.947C134.378 113.993 132.69 113.907 131.001 113.957C125.58 114.035 120.197 113.256 114.786 113.056C112.358 112.97 109.913 112.872 107.496 113.186C106.018 113.276 104.673 113.958 103.306 114.461C98.1315 116.647 93.0877 119.135 87.8603 121.196C85.7898 122.013 83.6818 122.741 81.519 123.275C79.6772 123.724 77.827 124.183 76.0838 124.945C74.2902 125.738 72.3103 126.233 70.7918 127.535C69.0465 128.985 67.4058 130.567 65.9389 132.299C64.2562 134.317 62.7741 136.494 61.4105 138.737C61.1316 139.08 60.9865 139.598 60.5353 139.754L60.5401 139.666C60.5561 139.004 60.8271 138.387 61.0748 137.784C62.187 135.225 63.7602 132.887 65.5336 130.743C67.025 128.958 68.6947 127.318 70.5209 125.88C69.7243 124.734 69.0657 123.495 68.5456 122.203C67.84 120.499 67.48 118.676 66.7412 116.986C65.7168 114.689 63.8405 112.954 62.2461 111.061C61.3785 109.839 60.2807 108.65 60.0665 107.108C60.4017 107.411 60.6296 107.805 60.8858 108.171C62.8853 111.037 65.9205 113.049 67.661 116.112C68.5337 117.664 68.9356 119.41 69.5131 121.078C70.0045 122.543 70.6003 123.98 71.4145 125.297C72.126 124.915 72.8577 124.573 73.6092 124.278C75.3617 123.558 77.1047 122.794 78.9514 122.34C80.1545 122.012 81.3717 121.728 82.571 121.383C87.8728 119.782 92.8946 117.408 97.9934 115.271C99.92 114.472 101.84 113.64 103.84 113.033C104.003 112.984 104.166 112.938 104.335 112.897C105.369 112.618 106.424 112.423 107.479 112.24C107.715 112.198 107.952 112.156 108.191 112.117C108.562 110.98 108.938 109.839 109.487 108.774C109.598 108.54 109.773 108.349 109.974 108.187C109.78 109.476 109.297 110.706 109.118 111.999C111.817 111.69 114.543 111.739 117.253 111.87C121.008 111.974 124.749 112.375 128.506 112.433C130.065 112.475 131.623 112.358 133.184 112.388C136.497 112.433 139.814 112.33 143.114 112.011C143.901 111.916 144.684 111.731 145.413 111.408C145.851 111.194 146.259 110.918 146.636 110.608C147.279 109.989 147.794 109.09 147.596 108.17C147.487 107.355 146.822 106.711 146.075 106.437C145.2 106.108 144.26 106.009 143.336 105.939C139.967 105.702 136.6 106.178 133.23 106.046C132.913 106.028 132.597 106.012 132.283 105.986C130.564 105.845 128.865 105.545 127.184 105.166C126.18 104.933 125.163 104.753 124.134 104.667C123.609 104.617 123.086 104.575 122.561 104.545C121.12 104.453 119.675 104.419 118.238 104.276C118.039 104.275 117.799 104.2 117.658 104.385C117.257 104.785 116.838 105.169 116.369 105.491C115.685 105.959 114.942 106.335 114.172 106.643C111.88 107.53 109.417 107.852 106.977 107.994C105.216 108.123 103.452 108.205 101.69 108.295C102.586 109.449 103.565 110.67 103.791 112.158C103.566 112.033 103.37 111.866 103.234 111.65C102.41 110.446 101.443 109.342 100.376 108.351C97.0568 108.46 93.7317 108.529 90.4127 108.371C89.0268 108.287 87.6008 108.237 86.2919 107.725C85.871 107.591 85.4941 107.236 85.0288 107.329C84.0382 107.443 83.0069 107.374 82.0853 106.97C80.8252 106.455 79.9007 105.228 79.7275 103.881C79.4713 102.443 79.9405 100.945 80.8159 99.7988C81.6875 98.7479 82.8868 98.0432 84.0929 97.4376C83.437 96.7059 83.0023 95.7699 82.95 94.7811C82.7771 92.5673 83.8154 90.3364 85.5388 88.9553C87.5975 87.258 89.9529 85.9708 92.2489 84.6279C91.6427 82.9102 91.2269 81.1281 91.0005 79.3215C90.819 78.1875 90.8338 77.0376 90.7222 75.9C90.8072 74.6097 90.7489 73.2764 91.1646 72.0372C91.47 72.6899 91.3321 73.4398 91.4358 74.1373C91.5853 77.4911 92.2305 80.8312 93.4261 83.9716C94.0339 83.6223 94.64 83.2704 95.2405 82.9094C96.0124 82.48 96.5231 81.7338 97.0884 81.078C96.466 79.522 96.3401 77.8198 96.4025 76.1594C96.4731 75.689 96.5403 75.2149 96.684 74.7616C96.7488 74.6967 96.8771 74.5672 96.9419 74.5023C97.0376 75.5084 97.0054 76.5256 97.1764 77.5258C97.3246 78.414 97.5544 79.2911 97.8737 80.1362C98.1464 79.8351 98.4173 79.5316 98.6913 79.2303C99.1233 78.7541 99.5767 78.2972 100.047 77.8589C101.259 76.7786 102.575 75.6261 104.215 75.3138C103.752 75.7778 103.143 76.0498 102.641 76.4661C100.72 78.0015 99.1836 79.9433 97.7026 81.8879C97.1511 82.5882 96.6257 83.3395 95.8751 83.8432C93.3874 85.6115 90.6457 86.9817 88.1232 88.6976C87.1908 89.3502 86.2614 90.0405 85.5461 90.9336C84.801 91.9355 84.3539 93.181 84.3945 94.4352C84.4048 95.1033 84.6415 95.7763 85.0964 96.2722C84.9554 95.2744 84.8062 94.2045 85.2139 93.2457C85.6078 92.3904 86.5168 91.9725 87.3428 91.6392C88.9263 91.3171 90.7202 91.0165 92.1885 91.8892C93.356 92.5922 93.5672 94.1883 93.1018 95.3787C94.1949 94.9017 95.2929 94.4381 96.382 93.9532C97.8108 93.2924 99.1933 92.5316 100.531 91.7C100.317 90.7204 100.005 89.76 99.5424 88.8705C99.23 88.2274 98.782 87.6571 98.5235 86.9888C98.9671 87.1425 99.2558 87.5284 99.5506 87.8711C100.367 88.8518 101.014 89.9937 101.278 91.2533C101.662 91.0072 102.049 90.7648 102.44 90.5275C102.382 89.589 102.001 88.7124 101.904 87.7826C102.615 88.3198 102.878 89.2326 103.178 90.0341C103.615 89.8082 104.029 89.5405 104.445 89.2783C106.722 87.8508 108.928 86.3171 111.124 84.7681C111.839 84.2332 112.735 83.8172 113.07 82.9231C113.545 81.8242 113.449 80.5756 113.122 79.4511C112.873 78.6968 112.464 77.9754 111.846 77.4649C110.767 76.5638 109.593 75.7815 108.389 75.0588C107.782 74.6987 107.17 74.3524 106.541 74.0353C105.161 73.3155 103.736 72.6842 102.289 72.1142C99.7532 71.1041 97.0761 70.32 94.3243 70.3396C92.2843 70.3493 90.3151 70.9981 88.4694 71.8184C86.8263 72.581 84.9847 72.8184 83.1883 72.7894C82.9052 72.7819 82.622 72.7828 82.3398 72.7907C83.4135 73.4797 84.4214 74.2634 85.4075 75.0716C86.5233 76.2575 87.7868 77.3772 88.4957 78.872C88.4059 78.8378 88.2261 78.7679 88.1376 78.7335C86.3422 76.6785 84.1625 74.9782 81.7808 73.6542C81.7852 73.8862 81.7882 74.1183 81.7901 74.3521C81.4519 74.1316 81.347 73.7218 81.2075 73.3709C80.5348 71.4392 80.7186 69.3458 81.0293 67.364C81.5623 64.6026 82.5212 61.9439 83.1579 59.2061C83.8923 55.991 84.4059 52.6686 84.0205 49.3678C83.5619 45.7172 82.2849 42.1535 80.2437 39.0885C79.553 38.138 78.8789 37.13 77.8959 36.4538C76.8486 35.6973 75.4992 35.2068 74.2038 35.5131C73.6015 35.6219 72.9861 36.0514 72.8939 36.6943C72.7733 37.4373 72.8702 38.1923 72.9414 38.9357C73.3921 42.6368 74.0347 46.3481 73.8433 50.0908C73.773 52.1613 73.2959 54.1896 72.7599 56.1831C71.9019 59.1887 70.6281 62.0562 69.1865 64.8224C67.9908 67.2042 66.5701 69.4696 65.4809 71.9028C62.3341 79.0051 59.9399 86.4296 56.4712 93.3907C55.4647 95.3954 54.0524 97.1618 52.5081 98.7749C50.4409 100.878 48.1827 102.783 46.1187 104.889C40.4786 110.713 35.8297 117.386 30.4498 123.436C30.1863 123.723 29.9216 124.011 29.6485 124.291C29.4398 124.485 29.2552 124.735 28.9648 124.809C29.6563 123.539 30.5726 122.402 31.4079 121.224C33.2241 118.724 35.0864 116.257 36.9394 113.785C40.0354 109.693 43.1519 105.579 46.8563 102.009C48.6792 100.208 50.6162 98.5167 52.2853 96.5673C53.2636 95.3747 54.1686 94.1087 54.8719 92.7311C58.2447 85.779 60.636 78.41 63.7461 71.3443C64.9139 68.696 66.4734 66.2502 67.7558 63.6605C69.7421 59.8356 71.3367 55.7532 71.9313 51.4654C72.4241 47.1297 71.5554 42.8142 71.1066 38.5165C71.0441 37.4235 70.9621 36.2208 71.5763 35.2572ZM111.641 86.326L111.637 86.3477C111.056 86.7339 110.441 87.0942 109.925 87.5621C109.412 87.8039 108.979 88.1745 108.507 88.482C107.473 89.2109 106.368 89.8447 105.357 90.5997C104.465 91.0277 103.667 91.626 102.816 92.1281C101.329 93.0727 99.802 93.9514 98.2492 94.7792C97.125 95.385 95.9316 95.8421 94.7673 96.3609C93.1507 97.0476 91.5275 97.7465 89.8202 98.1805C88.2587 98.5725 86.5366 98.7339 85.0272 98.0634C83.6434 98.8526 82.1151 99.702 81.4023 101.202C82.5449 100.625 83.7555 100.141 85.0382 100.01C86.7485 99.7716 88.5289 100.767 89.2929 102.3C89.6575 102.971 89.6859 103.757 89.569 104.497C91.9489 103.86 94.3161 103.177 96.6295 102.326C96.468 101.767 96.2186 101.242 96.0078 100.701C95.7647 100.069 95.3228 99.5202 95.1957 98.8445C95.5482 98.9275 95.7685 99.235 95.9955 99.4936C96.6099 100.24 97.1498 101.08 97.3863 102.029C98.5121 101.711 99.5747 101.2 100.702 100.89L100.704 100.842C104.96 99.3448 109.408 98.0371 113.056 95.2753C112.777 93.7586 111.722 92.5183 111.436 91.0027C111.536 91.0763 111.633 91.1573 111.726 91.2445C112.354 92.1369 112.888 93.0945 113.517 93.9869C113.576 94.226 113.69 94.4482 113.774 94.6822C114.036 94.4335 114.286 94.1711 114.542 93.9136L114.533 93.8853C115.282 93.059 115.874 91.9184 115.591 90.7773C115.277 88.7627 114.096 86.9874 112.601 85.6437C112.281 85.873 111.958 86.0943 111.641 86.326ZM86.0638 93.3923C85.4864 94.4123 85.6915 95.6541 85.856 96.7596C86.121 96.8517 86.3958 96.9155 86.6762 96.9517C88.4708 97.1261 90.2157 96.5044 91.8684 95.8786C92.0082 95.8065 92.2011 95.777 92.2777 95.623C92.7063 94.8287 92.7833 93.7905 92.2636 93.0183C91.5439 92.1921 90.3591 92.105 89.3387 92.1536C88.1807 92.2698 86.8886 92.4966 86.0638 93.3923ZM113.307 96.9569C110.895 98.6645 108.177 99.883 105.398 100.861C100.576 102.442 95.895 104.46 90.9681 105.71C89.7481 106.095 88.4985 106.406 87.3121 106.881C87.8794 106.986 88.4572 107.012 89.0341 107.015C91.7215 107.034 94.4097 106.986 97.0956 106.895C97.2027 106.054 97.1515 105.21 97.1201 104.368C97.2691 104.43 97.3766 104.533 97.4401 104.681C97.7742 105.365 97.8409 106.134 97.8834 106.883C100.32 106.777 102.759 106.699 105.193 106.556C107.376 106.402 109.591 106.343 111.718 105.777L111.778 105.7C111.666 104.513 111.478 103.324 111.09 102.193C111 101.932 110.924 101.663 110.875 101.394C110.939 101.429 111.069 101.501 111.133 101.537C112.001 102.694 112.402 104.134 112.607 105.548C113.211 105.35 113.798 105.103 114.39 104.871L114.327 104.86C114.957 104.589 115.531 104.204 116.071 103.783C116.586 103.335 117.014 102.799 117.348 102.204L117.34 102.167C118.159 100.339 117.734 98.0351 116.366 96.576C116.142 96.334 115.905 96.105 115.657 95.8906C115.469 95.7374 115.279 95.5887 115.087 95.4446C114.537 95.9981 113.933 96.4907 113.307 96.9569ZM81.0987 102.224C80.8752 102.764 80.9745 103.396 81.1196 103.95C81.3703 104.9 82.2259 105.619 83.1823 105.789L83.212 105.845C84.9291 106.121 86.5779 105.424 88.1898 104.947C88.7407 104.862 88.9288 104.21 88.8962 103.728C88.7956 102.478 87.7959 101.47 86.6746 101.023C86.1149 100.765 85.4804 100.764 84.8833 100.861C83.5512 101.066 82.2723 101.573 81.0987 102.224Z" fill="black"/>
<path d="M76.2675 74.0847C76.8416 73.6432 77.3591 73.1173 78.0141 72.7903C77.8385 73.2655 77.4849 73.6367 77.1535 74.0058C76.1469 75.0956 75.0227 76.0807 73.7899 76.9075C71.9506 78.1399 69.7475 78.8907 67.521 78.8513C67.222 78.8137 66.7767 78.8888 66.6916 78.507C67.0193 78.3907 67.3441 78.265 67.6781 78.1717C70.8026 77.4904 73.7774 76.096 76.2675 74.0847Z" fill="black"/>
<path d="M77.8262 108.337C77.8723 108.381 77.9664 108.471 78.0141 108.516C78.31 109.152 78.4337 109.852 78.5899 110.533C79.2015 113.413 79.0303 116.512 77.7772 119.202C77.6339 119.473 77.4956 119.805 77.1614 119.878C77.1316 119.157 77.2946 118.451 77.4067 117.744C77.6733 116.092 77.9458 114.432 77.9719 112.756C77.9449 111.6 77.9383 110.439 77.7819 109.294C77.7824 108.974 77.7971 108.655 77.8262 108.337Z" fill="black"/>
<path d="M122.553 106.051C122.763 105.692 122.965 105.31 123.309 105.058C123.283 105.702 123.026 106.306 122.956 106.945C122.729 108.077 122.912 109.234 122.797 110.37C122.512 110.475 122.407 110.1 122.296 109.913C121.742 108.664 122.048 107.26 122.553 106.051Z" fill="black"/>
<path d="M81.344 115.629C81.4819 115.064 81.4908 114.476 81.652 113.916C81.9671 114.003 81.9849 114.388 82.0631 114.651C82.3356 116.39 81.9629 118.363 80.6368 119.604C80.3323 119.882 80.2046 119.387 80.2649 119.153C80.5107 117.947 81.0705 116.83 81.344 115.629Z" fill="black"/>
<path d="M131.713 109.595C131.921 108.712 132.149 107.742 132.813 107.084C132.853 107.726 132.679 108.352 132.618 108.988C132.464 109.869 132.589 110.788 132.34 111.652C131.684 111.198 131.662 110.313 131.713 109.595Z" fill="black"/>
<path d="M72.894 36.6948C72.9862 36.0519 73.6016 35.6224 74.2039 35.5136C75.4993 35.2073 76.8486 35.6978 77.896 36.4543C78.8789 37.1304 79.553 38.1385 80.2437 39.089C82.2849 42.154 83.562 45.7177 84.0205 49.3682C84.4059 52.6691 83.8923 55.9915 83.1579 59.2066C82.5213 61.9444 81.5624 64.6031 81.0294 67.3645C80.9789 67.3751 80.8766 67.3977 80.8262 67.4096C80.3304 66.8029 79.7149 66.2709 79.3945 65.5388C79.1855 65.0843 79.095 64.5835 79.095 64.0845C79.0523 62.7798 79.3823 61.5057 79.5571 60.2215C79.7966 58.5763 79.6248 56.8783 79.1171 55.2978C78.951 55.5488 78.992 55.8639 78.9581 56.1497C78.8357 58.0448 78.3493 59.9293 77.4265 61.5956C76.764 62.8528 75.8337 63.9436 74.8643 64.9727C74.2399 65.694 73.5146 66.401 73.2548 67.35C72.927 68.4997 73.0499 69.7118 72.9053 70.8885C72.8123 72.5423 72.225 74.1898 71.1423 75.4562C70.3692 76.2749 69.4881 77.0043 68.5035 77.555C68.2021 77.7236 67.9284 77.9346 67.6784 78.1715C67.3444 78.2648 67.0196 78.3905 66.6919 78.5068C66.4895 78.5758 66.2971 78.6728 66.1242 78.7965C66.9632 79.2408 67.8982 79.4914 68.8437 79.5529C69.3164 79.5837 69.7939 79.5249 70.2619 79.617C69.2205 80.2116 67.9556 80.4033 67.0543 81.2415C65.7476 82.4617 65.0396 84.1502 64.4111 85.7871C63.4554 88.2916 62.2669 90.7019 60.9663 93.0434C59.6952 95.2732 58.4607 97.5482 56.8022 99.5214C55.8728 100.757 54.7336 101.838 53.9724 103.196C53.4537 104.176 53.0465 105.267 53.087 106.392C53.1701 107.841 54.0423 109.076 54.8923 110.192C55.6995 111.112 56.3732 112.136 57.173 113.063C58.6242 115.005 60.0195 116.997 61.1613 119.139C63.0796 122.812 64.5484 126.717 65.5336 130.743C63.7603 132.887 62.1871 135.225 61.0749 137.785C60.8272 138.388 60.5561 139.005 60.5402 139.667C59.9879 139.872 59.3922 139.766 58.8189 139.797C57.557 139.851 56.3037 139.621 55.0716 139.372C54.0391 139.156 53.0574 138.738 52.1552 138.193C49.9566 136.6 48.4521 134.299 46.7488 132.229C45.4315 130.618 43.9598 129.04 42.0405 128.15C40.3942 127.423 38.5744 127.286 36.8243 126.959C34.3078 126.544 31.5745 126.121 29.6486 124.292C29.9216 124.012 30.1863 123.723 30.4499 123.436C30.7617 123.475 31.0765 123.478 31.3882 123.441C32.1909 123.334 32.9929 123.508 33.7969 123.474C34.9024 123.503 36.0081 123.376 37.0865 123.135C38.0479 122.829 38.6074 121.923 39.0097 121.058C40.0027 119.565 40.7728 117.941 41.5977 116.354C42.1257 115.545 42.4571 114.632 42.9467 113.803C43.5478 112.505 44.3501 111.313 44.9699 110.026C45.9851 108.291 46.8923 106.484 48.0709 104.85C48.5547 104.306 48.9063 103.663 49.347 103.087C50.0824 102.077 50.9267 101.151 51.6557 100.136C51.9612 99.6992 52.4086 99.3235 52.5082 98.7754C54.0524 97.1623 55.4647 95.3959 56.4713 93.3912C59.94 86.4301 62.3341 79.0056 65.4809 71.9033C66.5701 69.47 67.9909 67.2047 69.1866 64.8228C70.6282 62.0567 71.902 59.1892 72.76 56.1836C73.296 54.19 73.7731 52.1618 73.8433 50.0913C74.0348 46.3486 73.3922 42.6373 72.9414 38.9362C72.8703 38.1928 72.7734 37.4378 72.894 36.6948ZM80.006 45.4935C79.9326 45.6034 79.8666 45.7164 79.8055 45.8329C79.863 47.0873 80.4546 48.2292 80.6495 49.4598C80.9425 50.4373 81.1162 51.4554 81.1103 52.4785C81.1892 53.0233 81.1647 53.6107 81.4268 54.1092C81.6276 53.9559 81.8504 53.7993 81.8953 53.5302C82.3477 52.0048 82.552 50.3692 82.2385 48.7958C82.1697 48.0492 81.9136 47.3227 81.4534 46.7276C81.0591 46.2323 80.6564 45.6537 80.006 45.4935ZM70.9602 64.703C70.271 65.1663 69.8158 65.8786 69.339 66.5421C69.062 66.8974 69.0226 67.3602 68.8398 67.7603C68.2589 69.0346 68.2311 70.4966 68.5318 71.8479C68.6111 71.8316 68.7685 71.8005 68.8478 71.7841C69.0035 71.1513 69.1723 70.5207 69.4319 69.9214C70.0342 68.2519 71.0995 66.7979 71.7034 65.1295C71.7268 64.9412 71.6907 64.7508 71.6818 64.5632C71.4398 64.603 71.1918 64.6225 70.9602 64.703ZM56.5289 115.844C57.2536 117.322 58.0425 118.786 58.5482 120.363C59.1835 122.078 59.3318 123.917 59.8006 125.677C60.1494 126.715 60.5309 127.783 61.2649 128.62C61.6189 129.055 62.1024 129.544 62.7144 129.462C62.6621 128.676 62.1816 128.022 62.036 127.262C61.3854 125.022 61.2345 122.62 60.1421 120.526C59.3957 119.228 58.65 117.908 57.6121 116.816C57.2682 116.475 56.9978 116.025 56.5289 115.844ZM56.3065 120.123C56.4598 121.515 56.7278 122.892 56.9089 124.281C57.013 125.25 57.5473 126.303 58.511 126.649C58.7166 126.361 58.5468 126.025 58.4907 125.722C58.3076 124.984 58.2589 124.222 58.0774 123.486C57.809 122.586 57.4415 121.712 56.9061 120.938C56.6993 120.673 56.6271 120.274 56.3065 120.123Z" fill="#A79CEE"/>
<path d="M88.4699 71.8198C90.3156 70.9995 92.2848 70.3507 94.3248 70.3411C97.0766 70.3214 99.7537 71.1055 102.289 72.1157C102.436 72.598 102.875 72.8849 103.241 73.1956C103.685 73.5662 104.253 73.7234 104.799 73.8812C105.364 74.0262 105.958 74.1695 106.541 74.0368C107.17 74.3538 107.783 74.7002 108.389 75.0602C108.102 75.8118 107.516 76.3805 107.005 76.9803C105.905 78.0236 104.607 78.8195 103.377 79.6966C102.051 80.7816 100.832 82.0334 99.9749 83.5276C100.798 82.7422 101.875 82.1886 103.039 82.2352C104.292 82.3809 105.432 82.954 106.589 83.4203C107.611 83.6802 108.689 83.9175 109.747 83.7152C110.3 83.6251 110.856 83.5472 111.41 83.4529C111.993 83.3738 112.486 83.0052 113.07 82.9245C112.736 83.8186 111.839 84.2346 111.124 84.7695C108.929 86.3185 106.723 87.8522 104.445 89.2798C103.339 87.8357 102.11 86.3936 100.442 85.5894C101.192 86.6423 101.558 87.9215 101.574 89.2077C100.791 88.2614 100.145 87.1644 99.1126 86.4592C98.6229 86.142 98.1033 85.8505 97.5305 85.718C98.2998 87.1838 99.1979 88.6342 99.4671 90.2962C98.5907 89.0159 97.2136 88.1772 95.7638 87.6936C95.1003 87.4663 94.3916 87.3771 93.6931 87.4372C92.0307 87.5838 90.3953 87.9899 88.839 88.5912C88.6128 88.6892 88.3671 88.714 88.1237 88.699C90.6462 86.9831 93.3878 85.613 95.8756 83.8446C96.6262 83.3409 97.1516 82.5896 97.7031 81.8893C99.1841 79.9447 100.72 78.0029 102.642 76.4676C103.144 76.0512 103.752 75.7793 104.215 75.3152C102.576 75.6275 101.26 76.78 100.047 77.8603C99.5107 77.2627 98.8467 76.7733 98.4351 76.072C97.6827 74.8926 97.5192 73.4612 97.4797 72.0941C96.8794 72.4564 96.5159 73.0674 96.0901 73.6032C95.5189 74.322 95.227 75.2083 94.9514 76.0722C94.7019 76.8294 94.6487 77.6354 94.3815 78.3882C93.0998 76.032 91.9806 73.5763 91.2058 71.0032C89.8487 72.8542 89.7309 75.2506 89.5784 77.4563C88.6854 76.6311 87.8072 75.7726 86.7709 75.1258C85.6848 74.4386 84.6149 73.7194 83.4664 73.1404C83.314 73.0749 83.1943 72.9649 83.1888 72.7909C84.9852 72.8198 86.8268 72.5824 88.4699 71.8198Z" fill="#A79CEE"/>
<path d="M109.925 87.5633C110.441 87.0954 111.056 86.7351 111.637 86.3489C111.617 87.0386 111.197 87.6032 110.927 88.2097C111.883 88.8364 112.768 89.6134 113.316 90.6337C114.009 91.5909 114.22 92.7712 114.533 93.8865L114.541 93.9149C114.286 94.1724 114.036 94.4347 113.773 94.6834C113.69 94.4495 113.575 94.2272 113.516 93.9881C113.439 92.9793 112.84 92.1219 112.314 91.2942C111.787 90.6302 111.273 89.9206 110.549 89.4559C110.597 90.7175 110.737 91.9804 110.689 93.2439C110.663 94.0472 110.239 94.8493 109.488 95.1924C108.546 95.5984 107.494 95.4896 106.497 95.5841C105.725 95.6102 104.982 95.8223 104.246 96.0306C104.97 93.8462 106.178 91.8092 107.81 90.1785C108.575 89.361 109.378 88.5505 109.925 87.5633Z" fill="#A79CEE"/>
<path d="M114.645 96.7792C114.81 96.3296 115.26 96.1029 115.657 95.8902C115.905 96.1046 116.142 96.3336 116.366 96.5756C116.095 96.8483 115.696 97.1192 115.743 97.5575C115.804 98.177 116.344 98.5767 116.627 99.0961C117.172 100.027 117.048 101.156 117.339 102.167L117.348 102.203C117.014 102.798 116.586 103.335 116.07 103.783C116.187 102.163 115.912 100.528 115.294 99.0275C115.019 98.301 114.57 97.5843 114.645 96.7792Z" fill="#A79CEE"/>
<path d="M73.6403 109.715C73.6338 107.89 74.4893 106.161 75.6035 104.76C75.6545 105.602 75.6151 106.461 75.8518 107.282C76.2236 108.73 76.8563 110.15 76.8275 111.67C76.7764 113.09 75.6936 114.171 75.4143 115.527C75.2565 116.138 75.3095 116.771 75.3578 117.393C74.7153 116.776 74.5345 115.832 74.4247 114.983C74.3012 114.045 74.6196 113.083 74.3244 112.165C74.0996 111.348 73.6387 110.582 73.6403 109.715Z" fill="#A79CEE"/>
<path d="M117.658 104.385C117.799 104.2 118.039 104.275 118.238 104.276C119.675 104.419 121.12 104.453 122.561 104.545C120.805 105.874 118.444 106.063 116.369 105.491C116.838 105.169 117.257 104.785 117.658 104.385Z" fill="#A79CEE"/>
<path d="M125.408 105.945C124.908 105.614 124.326 105.275 124.135 104.668C125.163 104.754 126.18 104.934 127.184 105.167C128.865 105.546 130.564 105.846 132.283 105.987C131.721 106.691 130.799 106.941 129.933 106.937C128.381 106.959 126.779 106.699 125.408 105.945Z" fill="#A79CEE"/>
<path d="M134.026 106.691C133.729 106.522 133.372 106.38 133.229 106.047C136.599 106.178 139.967 105.702 143.336 105.939C144.26 106.01 145.2 106.109 146.075 106.438C146.822 106.711 147.487 107.356 147.596 108.171C147.794 109.091 147.278 109.99 146.635 110.608C146.256 110.081 145.841 109.576 145.534 109.001C145.113 108.199 144.461 107.476 143.602 107.145C142.963 106.918 142.278 106.899 141.61 106.863C139.695 106.822 137.786 107.008 135.877 107.105C135.234 107.144 134.588 107.003 134.026 106.691Z" fill="#A79CEE"/>
<path d="M78.9583 56.1487C78.9922 55.863 78.9511 55.5478 79.1173 55.2969C79.625 56.8774 79.7967 58.5754 79.5572 60.2206C79.3824 61.5048 79.0525 62.7789 79.0951 64.0835C79.0952 64.5826 79.1857 65.0834 79.3946 65.5379C79.7151 66.27 80.3306 66.802 80.8264 67.4087C80.8767 67.3968 80.979 67.3741 81.0296 67.3636C80.7188 69.3453 80.535 71.4388 81.2077 73.3705C81.3473 73.7214 81.4521 74.1311 81.7903 74.3516C81.7884 74.1179 81.7854 73.8857 81.781 73.6538C84.1627 74.9778 86.3424 76.6781 88.1378 78.7331C88.6768 80.1861 89.6854 81.4363 90.0815 82.9507C89.5918 82.532 89.2481 81.9796 88.819 81.5051C88.0061 80.5394 87.0787 79.6546 85.9959 78.998C85.2037 78.5 84.4399 77.93 83.5501 77.6146C83.9718 78.1974 84.42 78.769 84.7194 79.4283C85.3787 80.7276 85.7212 82.1584 86.4015 83.4475C86.7364 84.1267 87.1881 84.7401 87.5101 85.4269C87.2592 85.2706 87.0173 85.0989 86.8166 84.8828C86.073 84.094 85.3458 83.283 84.7476 82.3747C83.9179 81.2156 83.3986 79.8639 82.5239 78.7328C82.0535 78.1448 81.6201 77.5131 81.0295 77.0336C80.8069 78.6325 80.3067 80.2696 79.1343 81.4368C78.4378 82.2311 77.3426 82.3898 76.3665 82.6079C74.6256 82.9512 73.0793 83.9231 71.7533 85.0729C69.4741 87.0435 67.6995 89.5025 65.9172 91.9118C64.7512 93.5828 63.6407 95.2947 62.5893 97.0426C61.1788 99.4953 59.7693 101.963 58.7027 104.591C58.5041 105.119 58.2825 105.708 58.5045 106.266C58.96 107.57 59.917 108.602 60.7977 109.634C61.299 110.092 61.6514 110.71 62.2463 111.061C63.8407 112.953 65.717 114.689 66.7415 116.985C67.4802 118.676 67.8402 120.499 68.5458 122.203C69.066 123.495 69.7245 124.734 70.5211 125.88C68.6949 127.317 67.0252 128.958 65.5338 130.742C64.5486 126.717 63.0798 122.811 61.1615 119.138C60.0196 116.996 58.6244 115.004 57.1732 113.062C56.3733 112.135 55.6997 111.111 54.8924 110.191C54.0424 109.075 53.1703 107.84 53.0872 106.391C53.0467 105.266 53.4539 104.175 53.9726 103.195C54.7338 101.837 55.873 100.756 56.8023 99.5204C58.4608 97.5473 59.6954 95.2723 60.9665 93.0425C62.2671 90.701 63.4556 88.2907 64.4112 85.7862C65.0397 84.1493 65.7477 82.4608 67.0545 81.2406C67.9557 80.4024 69.2207 80.2107 70.262 79.6161C69.794 79.524 69.3166 79.5828 68.8438 79.552C67.8983 79.4905 66.9634 79.2399 66.1244 78.7955C66.2973 78.6719 66.4897 78.5748 66.6921 78.5059C66.7771 78.8876 67.2225 78.8126 67.5214 78.8502C69.7479 78.8896 71.9511 78.1388 73.7903 76.9064C75.0232 76.0796 76.1473 75.0945 77.154 74.0047C77.4853 73.6355 77.8389 73.2644 78.0145 72.7892C77.3595 73.1162 76.842 73.6421 76.2679 74.0836C73.7778 76.0949 70.803 77.4893 67.6785 78.1706C67.9285 77.9337 68.2023 77.7227 68.5036 77.5541C69.4882 77.0034 70.3694 76.2739 71.1425 75.4552C72.2251 74.1889 72.8125 72.5414 72.9055 70.8876C73.0501 69.7108 72.9271 68.4988 73.255 67.3491C73.5147 66.4001 74.24 65.6931 74.8644 64.9718C75.8338 63.9427 76.7642 62.8519 77.4266 61.5947C78.3495 59.9284 78.8359 58.0439 78.9583 56.1487Z" fill="#A79CEE"/>
<path d="M89.5784 77.4551C89.731 75.2494 89.8488 72.853 91.2059 71.002C91.9807 73.5751 93.0999 76.0308 94.3816 78.3869C94.6487 77.6342 94.7019 76.8281 94.9515 76.071C95.2271 75.207 95.519 74.3208 96.0902 73.602C96.516 73.0661 96.8795 72.4552 97.4798 72.0928C97.5192 73.46 97.6827 74.8914 98.4352 76.0708C98.8467 76.7721 99.5107 77.2614 100.047 77.8591C99.5772 78.2974 99.1239 78.7543 98.6919 79.2305C97.4277 77.7091 97.0896 75.6516 97.0807 73.7271C96.923 74.0614 96.7836 74.4041 96.6845 74.7618C96.5409 75.2151 96.4736 75.6892 96.403 76.1596C95.9916 76.8907 95.9547 77.7478 95.8274 78.5582C95.6814 79.5504 95.6867 80.5548 95.6943 81.5561C93.9323 80.5604 92.81 78.7495 92.1892 76.8719C91.8913 75.9728 91.7166 75.0407 91.4363 74.1375C91.3327 73.44 91.4706 72.69 91.1651 72.0374C90.7495 73.2766 90.8077 74.6099 90.7227 75.9002C90.3004 77.0869 90.4388 78.3811 90.2116 79.6085C89.3336 78.4187 88.3943 77.2622 87.2546 76.3069C86.6731 75.85 86.1314 75.2941 85.4081 75.0718C84.4219 74.2636 83.4141 73.4799 82.3404 72.7908C82.6226 72.783 82.9058 72.7821 83.1889 72.7896C83.1943 72.9636 83.314 73.0736 83.4664 73.1392C84.615 73.7181 85.6849 74.4374 86.771 75.1245C87.8073 75.7714 88.6855 76.6299 89.5784 77.4551Z" fill="#A79CEE"/>
<path d="M97.5302 85.7168C98.1031 85.8493 98.6227 86.1408 99.1124 86.458C100.145 87.1632 100.79 88.2602 101.573 89.2065C101.558 87.9204 101.192 86.6411 100.442 85.5882C102.11 86.3924 103.339 87.8345 104.445 89.2786C104.03 89.5408 103.615 89.8085 103.179 90.0344C102.879 89.2329 102.615 88.32 101.904 87.7828C102.001 88.7126 102.382 89.5893 102.44 90.5277C102.05 90.765 101.662 91.0074 101.278 91.2535C101.014 89.994 100.367 88.852 99.5509 87.8714C99.2561 87.5287 98.9674 87.1427 98.5238 86.9891C98.7823 87.6574 99.2303 88.2277 99.5427 88.8708C100.006 89.7602 100.317 90.7207 100.532 91.7002C99.1936 92.5318 97.8111 93.2927 96.3823 93.9535C96.5161 93.1675 96.7828 92.3288 96.4697 91.5519C96.0233 90.7149 94.9987 90.5047 94.1406 90.3692C92.5103 90.1994 90.8686 90.4443 89.2761 90.7903C88.602 90.9919 87.8681 91.1349 87.3431 91.6394C86.5171 91.9728 85.6081 92.3906 85.2142 93.2459C84.8065 94.2048 84.9557 95.2746 85.0967 96.2724C84.6418 95.7765 84.4051 95.1035 84.3948 94.4354C84.3542 93.1812 84.8013 91.9358 85.5464 90.9338C86.2617 90.0408 87.1911 89.3505 88.1235 88.6978C88.3669 88.7128 88.6126 88.688 88.8387 88.5901C90.3951 87.9888 92.0305 87.5827 93.6929 87.4361C94.3914 87.376 95.1001 87.4652 95.7636 87.6924C97.2134 88.176 98.5905 89.0147 99.4669 90.295C99.1977 88.633 98.2996 87.1826 97.5302 85.7168Z" fill="#A79CEE"/>
<path d="M108.508 88.4823C108.98 88.1748 109.412 87.8042 109.925 87.5624C109.378 88.5496 108.575 89.3601 107.811 90.1775C106.179 91.8082 104.97 93.8453 104.246 96.0297C104.983 95.8214 105.726 95.6092 106.497 95.5831C107.495 95.4886 108.546 95.5974 109.488 95.1914C110.239 94.8484 110.664 94.0462 110.689 93.243C110.738 91.9795 110.597 90.7166 110.55 89.4549C111.273 89.9197 111.788 90.6293 112.315 91.2932C112.84 92.121 113.439 92.9784 113.517 93.9872C112.889 93.0948 112.355 92.1372 111.726 91.2448C111.633 91.1576 111.536 91.0766 111.436 91.003C111.722 92.5186 112.777 93.7589 113.056 95.2756C109.408 98.0374 104.961 99.345 100.704 100.842C100.697 100.495 101.022 100.263 101.181 99.9826C101.747 99.0884 102.573 98.2744 102.686 97.1728C102.783 96.0387 102.554 94.8386 103.056 93.7724C103.669 92.6087 104.64 91.6921 105.357 90.6C106.368 89.845 107.473 89.2112 108.508 88.4823Z" fill="#A79CEE"/>
<path d="M86.0637 93.3918C86.8885 92.4962 88.1806 92.2694 89.3386 92.1532C90.359 92.1046 91.5438 92.1916 92.2635 93.0179C91.751 93.1145 91.2377 92.9109 90.7238 92.9893C89.5071 93.1186 88.2299 93.4517 87.3105 94.2998C86.5876 94.967 86.5458 96.0421 86.6761 96.9512C86.3957 96.9151 86.1209 96.8513 85.8559 96.7592C85.6914 95.6537 85.4863 94.4119 86.0637 93.3918Z" fill="#A79CEE"/>
<path d="M77.6631 102.134C78.1827 101.658 78.5774 101.067 79.0669 100.56C79.0183 100.898 78.958 101.233 78.8877 101.566C78.5654 102.983 78.8382 104.475 79.39 105.799C80.1063 107.324 80.9705 108.774 81.9265 110.161C82.7022 111.28 83.336 112.486 83.989 113.679C84.6124 114.946 85.0817 116.284 85.4719 117.64C85.7604 117.055 86.121 116.388 86.8131 116.23C88.4326 115.95 90.0896 116.683 91.6923 116.228C92.8372 115.721 93.8475 114.96 94.9314 114.339C96.026 113.706 97.1004 112.885 98.4024 112.769C99.2511 112.658 100.098 112.889 100.949 112.809C101.645 112.766 102.079 112.008 102.787 112.038C103.226 112.257 103.517 112.675 103.84 113.033C101.84 113.64 99.9198 114.472 97.9933 115.271C92.8945 117.408 87.8727 119.782 82.5709 121.383C82.6644 120.675 82.9241 120.003 83.0322 119.298C83.4247 117.122 83.2591 114.772 82.1931 112.803C81.2288 111.113 79.7674 109.805 78.4751 108.377C77.993 107.869 77.5845 107.299 77.0929 106.803C77.3414 107.628 77.5171 108.474 77.782 109.295C77.9384 110.439 77.945 111.6 77.972 112.756C77.9405 112.643 77.8795 112.418 77.8482 112.306C77.7187 113.046 77.7001 113.802 77.588 114.545C77.2809 116.726 76.6739 118.883 76.7591 121.103C76.7851 121.625 76.8619 122.146 77.0267 122.644C77.2873 121.867 77.6687 121.142 78.1325 120.468C78.6212 119.706 79.0198 118.891 79.3209 118.037C79.59 118.517 79.5318 119.087 79.495 119.612C79.3893 120.536 79.0759 121.42 78.9513 122.34C77.1046 122.794 75.3616 123.558 73.6091 124.278C73.0919 122.774 72.7881 121.199 72.6578 119.616C72.5374 118.503 72.5544 117.377 72.3523 116.274C72.0961 114.31 71.4307 112.435 70.7627 110.58C70.4302 109.695 70.2469 108.753 70.2296 107.808C70.2041 106.588 70.8563 105.43 71.7801 104.666C72.7699 103.835 73.8367 103.103 74.8781 102.342C74.4849 102.971 73.9298 103.482 73.5467 104.121C72.3874 105.818 72.178 108.011 72.6074 109.984C72.7345 109.487 72.7319 108.971 72.8144 108.468C72.9617 107.521 73.3711 106.638 73.8475 105.815C74.8361 104.321 76.3873 103.353 77.6631 102.134ZM73.6404 109.714C73.6389 110.581 74.0997 111.347 74.3246 112.164C74.6198 113.082 74.3014 114.044 74.4249 114.982C74.5347 115.831 74.7154 116.775 75.358 117.392C75.3097 116.77 75.2567 116.137 75.4144 115.526C75.6938 114.17 76.7766 113.09 76.8276 111.669C76.8564 110.149 76.2237 108.729 75.8519 107.281C75.6152 106.46 75.6547 105.601 75.6037 104.759C74.4894 106.16 73.634 107.889 73.6404 109.714Z" fill="#A79CEE"/>
<path d="M113.308 96.9569C113.933 96.4907 114.537 95.998 115.087 95.4446C115.28 95.5886 115.469 95.7374 115.657 95.8906C115.261 96.1033 114.811 96.3299 114.645 96.7795C114.571 97.5846 115.02 98.3014 115.295 99.0278C115.913 100.528 116.188 102.164 116.071 103.783C115.532 104.204 114.958 104.589 114.328 104.86C114.279 104.85 114.181 104.833 114.132 104.823C114.855 102.206 114.426 99.3986 113.308 96.9569Z" fill="#A79CEE"/>
<path d="M81.0985 102.225C82.2722 101.573 83.5511 101.066 84.8831 100.862C85.4802 100.765 86.1147 100.765 86.6744 101.024C85.4532 101.317 84.2317 101.665 83.0993 102.217C82.4735 102.532 81.8252 103.023 81.7006 103.758C81.5541 104.397 81.9592 105.055 82.5369 105.321C82.7523 105.467 83.0726 105.524 83.1822 105.789C82.2258 105.619 81.3701 104.9 81.1194 103.95C80.9743 103.397 80.8751 102.765 81.0985 102.225Z" fill="#A79CEE"/>
<path d="M114.173 106.642C114.942 106.335 115.686 105.959 116.37 105.491C118.445 106.062 120.806 105.874 122.561 104.544C123.086 104.574 123.61 104.617 124.135 104.667C124.326 105.273 124.908 105.613 125.408 105.944C126.779 106.698 128.381 106.958 129.933 106.935C130.799 106.94 131.721 106.689 132.283 105.986C132.597 106.011 132.913 106.028 133.23 106.046C133.373 106.379 133.73 106.521 134.026 106.69C134.588 107.002 135.234 107.143 135.877 107.104C137.787 107.007 139.695 106.821 141.61 106.862C142.279 106.898 142.964 106.917 143.602 107.144C144.462 107.475 145.113 108.198 145.535 109C145.841 109.575 146.257 110.08 146.636 110.607C146.259 110.917 145.851 111.194 145.413 111.407C144.344 111.321 143.566 110.371 143.104 109.476C142.067 109.661 141.044 109.909 139.999 110.039C138.106 110.308 136.117 110.662 134.255 110.036C133.619 109.849 133.109 109.411 132.619 108.988C132.68 108.352 132.853 107.726 132.813 107.084C132.15 107.742 131.921 108.711 131.713 109.595C130.59 110.213 129.268 110.229 128.021 110.195C126.612 110.093 125.081 109.82 124.025 108.807C123.475 108.313 123.287 107.576 122.956 106.944C123.026 106.305 123.283 105.702 123.309 105.058C122.965 105.309 122.763 105.691 122.553 106.05C121.594 106.335 121.262 107.423 120.421 107.88C119.425 108.469 118.213 108.49 117.111 108.244C115.985 108.053 114.937 107.494 114.173 106.642Z" fill="#A79CEE"/>
<path d="M56.5293 115.844C56.9982 116.024 57.2686 116.475 57.6124 116.816C58.6504 117.908 59.3961 119.228 60.1425 120.525C61.2348 122.62 61.3857 125.022 62.0363 127.262C62.182 128.022 62.6625 128.676 62.7148 129.462C62.1027 129.544 61.6193 129.055 61.2653 128.62C60.5313 127.783 60.1497 126.715 59.801 125.677C59.3322 123.917 59.1839 122.077 58.5485 120.363C58.0429 118.786 57.254 117.322 56.5293 115.844Z" fill="#A79CEE"/>
<path d="M105.099 110.438C105.789 109.712 106.806 109.445 107.743 109.192C107.608 110.203 107.407 111.213 107.479 112.238C106.424 112.422 105.37 112.617 104.335 112.896C104.441 112.047 104.493 111.104 105.099 110.438Z" fill="#A79CEE"/>
<path d="M56.3065 120.121C56.6271 120.273 56.6993 120.672 56.906 120.936C57.4415 121.711 57.809 122.585 58.0774 123.484C58.2589 124.221 58.3076 124.983 58.4906 125.721C58.5467 126.024 58.7165 126.36 58.5109 126.648C57.5473 126.302 57.0129 125.248 56.9089 124.28C56.7278 122.891 56.4598 121.514 56.3065 120.121Z" fill="#A79CEE"/>
<path d="M85.408 75.0707C86.1313 75.293 86.673 75.849 87.2545 76.3058C88.3942 77.2611 89.3335 78.4176 90.2115 79.6074C90.4387 78.38 90.3004 77.0858 90.7226 75.8991C90.8342 77.0367 90.8194 78.1866 91.001 79.3206C91.2274 81.1272 91.6432 82.9093 92.2494 84.6269C89.9533 85.9699 87.598 87.2571 85.5393 88.9544C83.8158 90.3355 82.7775 92.5664 82.9505 94.7802C83.0027 95.769 83.4374 96.705 84.0933 97.4367C82.8873 98.0423 81.688 98.747 80.8164 99.7979C79.9409 100.944 79.4718 102.442 79.728 103.881C79.9011 105.227 80.8257 106.454 82.0858 106.969C83.0074 107.373 84.0387 107.442 85.0292 107.328C85.4945 107.235 85.8714 107.59 86.2924 107.724C87.6013 108.236 89.0273 108.287 90.4131 108.37C93.7321 108.528 97.0573 108.459 100.376 108.35C101.444 109.341 102.41 110.445 103.234 111.649C103.37 111.865 103.566 112.032 103.791 112.157C103.565 110.669 102.587 109.448 101.69 108.294C103.453 108.204 105.217 108.122 106.978 107.993C109.418 107.851 111.881 107.529 114.173 106.642C114.937 107.494 115.986 108.053 117.112 108.243C118.214 108.49 119.426 108.468 120.421 107.879C121.262 107.422 121.594 106.334 122.553 106.05C122.048 107.259 121.742 108.663 122.296 109.912C122.407 110.098 122.512 110.474 122.798 110.369C122.912 109.233 122.729 108.075 122.956 106.944C123.288 107.576 123.475 108.313 124.025 108.807C125.081 109.82 126.613 110.092 128.021 110.194C129.268 110.228 130.59 110.213 131.714 109.594C131.662 110.312 131.685 111.197 132.341 111.651C132.589 110.787 132.465 109.869 132.619 108.988C133.109 109.411 133.619 109.849 134.255 110.035C136.117 110.662 138.106 110.307 139.999 110.038C141.044 109.908 142.068 109.66 143.104 109.475C143.566 110.371 144.344 111.321 145.413 111.407C144.684 111.73 143.902 111.915 143.114 112.01C139.815 112.329 136.497 112.432 133.184 112.387C131.623 112.357 130.065 112.474 128.507 112.432C124.749 112.374 121.008 111.973 117.253 111.869C114.543 111.738 111.818 111.689 109.119 111.998C109.298 110.705 109.781 109.475 109.975 108.187C109.774 108.348 109.599 108.539 109.488 108.773C108.938 109.838 108.563 110.979 108.192 112.116C107.953 112.155 107.715 112.197 107.479 112.239C107.407 111.213 107.608 110.203 107.743 109.193C106.806 109.446 105.789 109.712 105.099 110.438C104.493 111.104 104.441 112.047 104.335 112.896C104.167 112.937 104.003 112.984 103.84 113.032C103.518 112.674 103.227 112.256 102.787 112.037C102.079 112.007 101.645 112.765 100.95 112.808C100.099 112.889 99.2516 112.657 98.403 112.768C97.101 112.884 96.0265 113.705 94.932 114.339C93.8481 114.959 92.8377 115.72 91.6929 116.227C90.0902 116.682 88.4332 115.949 86.8137 116.229C86.1216 116.387 85.761 117.054 85.4725 117.639C85.0822 116.283 84.6129 114.945 83.9896 113.678C83.3366 112.485 82.7028 111.279 81.9271 110.16C80.9711 108.773 80.1069 107.323 79.3906 105.799C78.8388 104.474 78.5659 102.982 78.8882 101.565C78.9586 101.232 79.0188 100.897 79.0674 100.56C78.5779 101.066 78.1833 101.658 77.6637 102.133C76.3879 103.353 74.8367 104.32 73.8481 105.814C73.3717 106.637 72.9623 107.52 72.815 108.467C72.7325 108.971 72.7351 109.486 72.608 109.983C72.1785 108.01 72.3879 105.817 73.5472 104.12C73.9304 103.481 74.4855 102.971 74.8786 102.341C73.8373 103.102 72.7705 103.834 71.7807 104.665C70.8569 105.429 70.2047 106.587 70.2302 107.807C70.2475 108.752 70.4307 109.694 70.7633 110.579C71.4313 112.434 72.0967 114.309 72.3528 116.274C72.555 117.376 72.5379 118.502 72.6584 119.615C72.7886 121.198 73.0925 122.773 73.6097 124.277C72.8582 124.572 72.1265 124.914 71.415 125.296C70.6008 123.979 70.005 122.542 69.5136 121.077C68.936 119.409 68.5342 117.663 67.6615 116.111C65.9209 113.048 62.8857 111.036 60.8863 108.171C60.6301 107.804 60.4022 107.41 60.067 107.107C60.2812 108.649 61.379 109.838 62.2465 111.06C61.6517 110.71 61.2992 110.091 60.798 109.633C59.9173 108.602 58.9603 107.569 58.5047 106.266C58.2827 105.707 58.5044 105.118 58.7029 104.59C59.7696 101.963 61.1791 99.4948 62.5896 97.0421C63.641 95.2942 64.7514 93.5823 65.9175 91.9114C67.6997 89.502 69.4744 87.0431 71.7536 85.0725C73.0796 83.9227 74.6258 82.9507 76.3667 82.6074C77.3429 82.3894 78.4381 82.2307 79.1345 81.4364C80.307 80.2691 80.8071 78.6321 81.0297 77.0332C81.6203 77.5126 82.0537 78.1443 82.5241 78.7323C83.3988 79.8634 83.9181 81.2151 84.7478 82.3743C85.3461 83.2825 86.0733 84.0936 86.8168 84.8824C87.0176 85.0984 87.2595 85.2702 87.5103 85.4264C87.1884 84.7396 86.7366 84.1262 86.4018 83.4471C85.7214 82.158 85.379 80.7271 84.7196 79.4278C84.4202 78.7686 83.972 78.1969 83.5504 77.6142C84.4402 77.9295 85.2039 78.4995 85.9961 78.9975C87.079 79.6542 88.0064 80.539 88.8192 81.5047C89.2483 81.9792 89.592 82.5315 90.0817 82.9502C89.6856 81.4359 88.6771 80.1856 88.1381 78.7326C88.2265 78.767 88.4064 78.8369 88.4962 78.8711C87.7873 77.3763 86.5237 76.2566 85.408 75.0707Z" fill="#A79CEE"/>
<path d="M93.427 83.9714C92.2314 80.8309 91.5862 77.4908 91.4367 74.1371C91.7169 75.0403 91.8916 75.9723 92.1896 76.8714C92.8103 78.749 93.9326 80.5599 95.6946 81.5556C95.687 80.5544 95.6817 79.55 95.8277 78.5577C95.955 77.7474 95.9919 76.8902 96.4034 76.1592C96.341 77.8196 96.4669 79.5218 97.0893 81.0777C96.524 81.7336 96.0133 82.4798 95.2414 82.9092C94.6409 83.2701 94.0348 83.622 93.427 83.9714Z" fill="#A79CEE"/>
<path d="M96.6854 74.7606C96.7844 74.4029 96.9238 74.0602 97.0815 73.7259C97.0904 75.6504 97.4285 77.7079 98.6927 79.2293C98.4186 79.5306 98.1478 79.8341 97.8751 80.1352C97.5558 79.2901 97.326 78.413 97.1778 77.5248C97.0068 76.5246 97.039 75.5074 96.9433 74.5013C96.8784 74.5662 96.7502 74.6957 96.6854 74.7606Z" fill="#A79CEE"/>
<path d="M87.3439 91.6386C87.8688 91.1342 88.6027 90.9911 89.2768 90.7895C90.8693 90.4436 92.511 90.1986 94.1413 90.3685C94.9994 90.5039 96.0241 90.7141 96.4704 91.5511C96.7836 92.328 96.5168 93.1667 96.383 93.9527C95.2939 94.4375 94.196 94.9012 93.1028 95.3782C93.5682 94.1878 93.357 92.5917 92.1895 91.8887C90.7212 91.016 88.9273 91.3166 87.3439 91.6386Z" fill="#A79CEE"/>
<path d="M102.817 92.126C103.668 91.6239 104.466 91.0256 105.358 90.5976C104.641 91.6897 103.67 92.6063 103.056 93.77C102.555 94.8362 102.783 96.0364 102.687 97.1704C102.573 98.272 101.747 99.086 101.182 99.9802C101.023 100.261 100.697 100.493 100.705 100.84L100.703 100.888C99.5757 101.198 98.5131 101.709 97.3873 102.027C97.1507 101.078 96.6109 100.238 95.9965 99.4915C95.7695 99.233 95.5492 98.9254 95.1967 98.8424C95.3238 99.5181 95.7657 100.067 96.0088 100.699C96.2196 101.24 96.469 101.765 96.6305 102.324C94.3171 103.175 91.9499 103.858 89.57 104.495C89.6869 103.755 89.6585 102.968 89.2939 102.298C88.5299 100.765 86.7495 99.7695 85.0392 100.008C83.7565 100.139 82.5459 100.623 81.4033 101.2C82.1161 99.6999 83.6444 98.8505 85.0282 98.0613C86.5376 98.7318 88.2597 98.5704 89.8212 98.1784C91.5285 97.7444 93.1517 97.0455 94.7683 96.3589C95.9326 95.84 97.126 95.3829 98.2502 94.7771C99.803 93.9493 101.33 93.0706 102.817 92.126Z" fill="#A79CEE"/>
<path d="M87.3116 94.2995C88.2311 93.4514 89.5083 93.1183 90.725 92.989C91.2389 92.9105 91.7521 93.1141 92.2646 93.0176C92.7843 93.7898 92.7073 94.8279 92.2787 95.6222C92.2022 95.7763 92.0093 95.8057 91.8694 95.8778C90.2168 96.5037 88.4718 97.1253 86.6773 96.9509C86.5469 96.0417 86.5887 94.9667 87.3116 94.2995Z" fill="#A79CEE"/>
<path d="M86.6759 101.023C87.7972 101.469 88.7969 102.477 88.8976 103.728C88.9302 104.209 88.7421 104.861 88.1912 104.946C86.5793 105.424 84.9305 106.121 83.2134 105.844L83.1837 105.788C83.0741 105.523 82.7539 105.466 82.5384 105.32C81.9607 105.054 81.5557 104.396 81.7021 103.757C81.8267 103.022 82.4751 102.531 83.1008 102.216C84.2332 101.664 85.4547 101.317 86.6759 101.023Z" fill="#A79CEE"/>
<path d="M105.399 100.861C108.178 99.8832 110.896 98.6646 113.309 96.9571C114.427 99.3988 114.856 102.207 114.133 104.824C114.182 104.833 114.279 104.851 114.329 104.86L114.391 104.872C113.799 105.103 113.212 105.35 112.608 105.548C112.404 104.135 112.002 102.694 111.134 101.537C111.07 101.502 110.94 101.43 110.876 101.394C110.925 101.663 111.001 101.932 111.091 102.193C111.479 103.324 111.668 104.513 111.78 105.7L111.719 105.777C109.592 106.343 107.377 106.402 105.194 106.556C102.76 106.699 100.321 106.777 97.8845 106.884C97.8421 106.134 97.7754 105.365 97.4413 104.681C97.3777 104.533 97.2703 104.43 97.1213 104.368C97.1526 105.21 97.2039 106.054 97.0968 106.895C94.4109 106.987 91.7227 107.035 89.0353 107.015C88.4584 107.013 87.8806 106.987 87.3133 106.881C88.4997 106.406 89.7493 106.095 90.9693 105.71C95.8962 104.46 100.577 102.442 105.399 100.861Z" fill="#A79CEE"/>
<path d="M77.0938 106.803C77.5854 107.299 77.994 107.869 78.476 108.376C79.7683 109.805 81.2298 111.113 82.194 112.803C83.2601 114.772 83.4257 117.122 83.0332 119.298C82.925 120.002 82.6654 120.675 82.5718 121.383C81.3726 121.728 80.1554 122.011 78.9522 122.34C79.0769 121.42 79.3903 120.536 79.496 119.612C79.5327 119.086 79.5909 118.516 79.3218 118.037C79.0207 118.891 78.6221 119.706 78.1335 120.467C77.6696 121.142 77.2883 121.867 77.0276 122.644C76.8628 122.146 76.7861 121.625 76.76 121.103C76.6749 118.883 77.2818 116.726 77.5889 114.545C77.7011 113.801 77.7197 113.046 77.8492 112.305C77.8804 112.418 77.9415 112.642 77.9729 112.756C77.9468 114.432 77.6743 116.092 77.4077 117.744C77.2956 118.451 77.1326 119.157 77.1624 119.878C77.4966 119.805 77.6349 119.473 77.7782 119.202C79.0313 116.512 79.2025 113.413 78.5909 110.533C78.4347 109.852 78.311 109.152 78.0151 108.516C77.9674 108.471 77.8733 108.381 77.8272 108.337C77.7981 108.655 77.7834 108.974 77.7829 109.294C77.518 108.473 77.3424 107.627 77.0938 106.803ZM81.3453 115.629C81.0718 116.83 80.5121 117.947 80.2662 119.153C80.206 119.387 80.3337 119.882 80.6381 119.604C81.9642 118.363 82.337 116.39 82.0645 114.651C81.9863 114.388 81.9684 114.003 81.6534 113.916C81.4922 114.476 81.4832 115.064 81.3453 115.629Z" fill="#A79CEE"/>
<path d="M122.154 119.011C117.306 119.271 106.102 121.176 100.067 126.72" stroke="black"/>
<path d="M43.2978 93.3935C45.9279 91.6641 51.5803 86.9361 53.149 81.8595" stroke="black"/>
<path d="M32.6065 88.2277C36.34 85.7727 44.3638 79.0612 46.5906 71.8547" stroke="black"/>
</svg>
