<svg width="128" height="136" viewBox="0 0 128 136" fill="none" xmlns="http://www.w3.org/2000/svg">
<path d="M58.9937 51.011C59.4748 50.9642 59.9672 51.0536 60.3932 51.2856C61.0305 51.9015 60.1752 52.5989 59.6436 52.9262C58.1885 53.8436 56.3478 54.9405 54.6126 54.1286C54.6143 53.2703 55.2977 52.6623 55.9289 52.1862C56.8308 51.5547 57.8842 51.0808 58.9937 51.011Z" fill="white"/>
<path d="M60.6233 65.7037C61.6761 65.0636 63.2634 64.8471 64.1354 65.9046C65.3584 67.4269 64.9346 69.596 64.08 71.1888C63.2116 72.8131 61.4963 74.3308 59.5275 74.0223C58.9821 73.3379 58.4533 72.636 57.7344 72.1183C57.271 69.6569 58.5161 67.0171 60.6233 65.7037ZM59.3447 67.4234C59.5673 68.0086 59.811 68.5857 60.0538 69.1651C59.501 69.1579 58.9483 69.1871 58.4011 69.2519C58.2728 70.1378 58.4482 71.2278 59.3562 71.6442C61.1667 72.1351 62.7886 70.3766 63.0085 68.7007C63.1852 67.7879 62.6932 66.6398 61.6844 66.5067C60.7963 66.3335 60.0248 66.9413 59.3447 67.4234Z" fill="white"/>
<path d="M34.5898 55.743C35.2412 55.1521 36.3642 55.9927 36.1641 56.796C35.9987 57.7933 35.5037 58.6889 35.1225 59.6146C34.7209 59.6715 34.2873 59.6575 33.922 59.8674C33.4615 60.2356 33.1341 60.7912 32.5473 60.9821C32.0596 61.2368 31.2175 61.3576 31.3212 62.0873C31.2661 62.636 31.8052 63.0172 32.2816 63.1296C33.2935 63.4947 34.4518 63.149 35.2239 62.4376C35.3037 62.235 35.1406 62.0369 35.1067 61.8406C34.4841 62.3068 33.7984 62.8413 32.9649 62.6824C32.5164 62.6811 31.6094 62.4442 31.9981 61.8403C32.6771 61.5291 33.4325 61.3021 33.902 60.6751C34.2596 60.0783 35.0571 60.1415 35.59 60.4452C36.4991 61.1578 36.4857 62.5594 35.9129 63.4767C35.299 64.1302 34.341 64.1683 33.523 64.3522C33.1627 64.3148 33.1541 64.7036 33.0311 64.9401C33.3973 64.9173 33.7612 64.8936 34.1253 64.8622C33.9668 65.8257 32.8094 65.5852 32.1203 65.4725C31.4039 65.4148 30.8054 64.9892 30.4535 64.3736C30.8387 64.3264 31.4518 64.8351 31.6708 64.285C31.2421 63.9146 30.6745 63.7594 30.2299 63.4118C29.6386 62.9731 29.3167 62.2877 29.043 61.6273C29.7283 62.0423 30.8165 62.4995 31.3576 61.6202C31.7732 60.5978 31.5588 59.3694 31.0663 58.3976C30.6813 57.5833 30.262 56.5442 30.8415 55.7175C31.1586 55.2491 31.9617 55.501 32.1157 55.9943C32.6222 57.1164 32.6426 58.3796 33.0355 59.5365C33.1763 59.5711 33.4634 59.6394 33.605 59.6717C33.8357 58.3447 33.9355 56.9478 34.5898 55.743Z" fill="white"/>
<path d="M72.2245 71.1674C73.0496 70.8978 74.0681 70.9305 74.7117 71.5798C75.6296 72.4278 75.7743 73.8157 75.5768 74.991C75.1913 77.0595 73.813 78.9721 71.8417 79.7941C70.979 79.3964 70.0562 79.1383 69.1009 79.154C68.0628 77.7026 68.2668 75.7356 69.0196 74.2103C69.6873 72.8728 70.769 71.6409 72.2245 71.1674ZM70.1116 73.3506C70.3603 73.9062 70.6059 74.4632 70.853 75.0233C70.2937 75.0346 69.7365 75.0544 69.1795 75.0664C69.1476 75.7324 69.0843 76.5013 69.5529 77.0442C70.0685 77.5572 70.9076 77.7441 71.5764 77.4396C72.9165 76.8965 73.8154 75.4855 73.8185 74.0542C73.8102 73.3117 73.3245 72.5395 72.5626 72.3982C71.6325 72.1608 70.7781 72.7755 70.1116 73.3506Z" fill="white"/>
<path d="M28.7711 58.8026C29.3033 58.6779 30.0021 58.5735 30.3153 59.152C30.6601 59.817 31.2075 60.6708 30.8331 61.4095C29.9716 61.9568 29.251 60.8675 28.8087 60.2509C28.4221 59.8202 28.5497 59.2791 28.7711 58.8026Z" fill="white"/>
<path d="M96.5519 90.4782C97.1295 90.2841 97.6352 90.7883 98.0223 91.1518C97.4555 92.6213 95.9581 93.3731 94.89 94.4281C95.0355 94.5006 95.3241 94.6448 95.4696 94.7173C96.6216 94.4914 97.6971 93.919 98.8789 93.8282C99.3469 93.7455 99.6216 94.1987 99.9162 94.4722C99.5806 95.5542 98.3841 95.876 97.3795 95.9209C96.2485 95.9415 95.0987 96.3655 94.3052 97.1809C93.8267 98.0668 94.6809 98.8533 95.4066 99.2204C94.7503 99.2854 94.0548 99.3805 93.4241 99.1328C92.7719 98.9164 92.3413 98.2157 91.5938 98.282C91.8151 98.6591 92.0577 99.0205 92.3025 99.3826C91.1478 99.317 90.3969 98.3129 89.9084 97.3737C89.8166 97.0919 89.6453 96.647 90.0145 96.4773C90.3474 96.6865 90.535 97.3994 91.0108 97.1197C90.7456 96.1872 90.3936 95.2654 90.3801 94.2823C90.8971 93.4853 91.7483 92.6827 92.7776 92.8308C93.4389 92.8611 93.8446 93.4569 94.1349 93.9831C93.6625 94.866 93.6454 95.8408 93.8412 96.8005C93.6232 97.2964 93.0371 96.9089 92.8372 96.6172C92.198 95.9851 92.0963 95.0381 92.3279 94.2045C92.1317 94.158 91.9377 94.1124 91.7461 94.0676C91.525 95.0321 91.6334 96.106 92.3039 96.8764C92.6723 97.4019 93.5171 97.923 94.0705 97.3595C94.773 96.7998 94.0585 95.8684 94.3451 95.1503C94.6055 94.4255 94.7758 93.6402 94.2555 92.9803C94.9567 92.0957 95.5626 91.0709 96.5519 90.4782Z" fill="white"/>
<path d="M40.617 90.0515C41.8506 89.5379 43.428 90.5894 43.2288 91.9665C43.1774 92.9862 42.3093 93.5519 41.6131 94.145C42.3441 94.7891 43.0784 93.5711 43.6034 93.1455C44.2276 93.7178 43.1751 94.2257 43.5549 94.8357C43.8686 95.2742 44.4015 95.0746 44.8389 95.0122C44.7617 95.3168 44.6775 95.619 44.5842 95.918C43.883 96.1019 43.5696 95.3781 43.1469 94.976C42.5527 95.5742 43.4847 96.2223 43.9173 96.5527C43.6068 97.0754 43.0682 97.2912 42.4857 97.3383C40.9894 96.6062 40.1561 95.0825 39.5227 93.6168C39.0269 92.3844 39.316 90.6526 40.617 90.0515Z" fill="white"/>
<path d="M60.5745 102.239C61.6372 101.535 63.1786 102.41 63.3329 103.625C63.5236 104.569 62.8476 105.427 62.0957 105.907C60.9924 106.594 59.6311 106.532 58.3838 106.493C57.5453 106.392 56.557 106.238 56.0454 105.488C55.7949 105.098 55.9686 104.609 55.9485 104.185C56.4824 104.442 57.031 104.694 57.6365 104.692C57.6773 104.548 57.7573 104.257 57.7981 104.113C57.2846 104.112 56.6607 104.145 56.4427 103.561C56.2859 102.937 56.9444 102.683 57.3632 102.425C57.4684 102.852 57.6225 103.265 57.861 103.637C58.6065 103.591 58.8599 102.908 59.3009 102.434C59.0964 103.184 58.7908 103.927 58.8585 104.721C58.9901 104.753 59.2525 104.817 59.3841 104.849C59.3891 103.864 59.6228 102.733 60.5745 102.239Z" fill="white"/>
<path d="M59.3441 67.4224C60.0242 66.9403 60.7957 66.3325 61.6838 66.5057C62.6926 66.6388 63.1847 67.7869 63.0079 68.6997C62.788 70.3756 61.1661 72.1341 59.3556 71.6432C58.4476 71.2268 58.2722 70.1368 58.4005 69.2509C58.9478 69.1861 59.5005 69.1569 60.0532 69.1641C59.8104 68.5847 59.5667 68.0076 59.3441 67.4224Z" fill="#0C0505"/>
<path d="M70.1103 73.3519C70.7767 72.7768 71.6311 72.1621 72.5613 72.3995C73.3232 72.5408 73.8089 73.313 73.8172 74.0555C73.8141 75.4868 72.9152 76.8978 71.5751 77.4409C70.9063 77.7454 70.0672 77.5585 69.5516 77.0455C69.083 76.5026 69.1463 75.7337 69.1782 75.0677C69.7352 75.0557 70.2924 75.0359 70.8517 75.0246C70.6046 74.4645 70.359 73.9075 70.1103 73.3519Z" fill="#0C0505"/>
<path d="M61.1451 74.8927C61.5513 74.8451 61.9615 74.786 62.3728 74.7896C63.1182 75.2987 63.3458 76.4461 64.3376 76.6121C65.1139 76.7351 65.9045 76.679 66.6837 76.7719C66.8129 77.4225 67.006 78.2074 66.4115 78.7043C65.8228 79.4913 64.7519 79.5619 63.8605 79.3979C62.5818 79.0754 61.3424 78.2557 60.9044 76.9556C60.4879 76.2807 60.9263 75.5518 61.1451 74.8927ZM61.7902 77.595C62.3742 78.397 63.2873 78.8282 64.2095 79.1173C64.3034 78.6343 64.4815 78.0022 63.9603 77.6949C63.4055 77.2121 62.1357 76.5944 61.7902 77.595Z" fill="#0C0505"/>
<path d="M78.5212 45.3562C79.7114 45.1178 80.4339 44.0567 81.2425 43.257C81.9172 44.7451 82.3589 46.5163 81.6581 48.0782C81.2522 49.1534 80.0779 49.6829 79.6378 50.7304C79.3325 51.7272 79.8447 52.7968 80.5892 53.4613C81.6955 54.4801 83.037 55.3413 83.7175 56.7329C84.3387 58.0723 84.4582 59.6769 83.824 61.0368C83.3827 62.5327 82.1729 63.636 80.8669 64.404C79.5706 65.1522 78.0265 65.1453 76.575 65.1116C76.5306 65.2437 76.4364 65.5086 76.3897 65.6399C77.6519 66.0162 78.9995 65.948 80.2383 65.522C81.4649 65.0864 82.8901 65.0484 84.037 65.734C86.0516 66.9644 87.2624 69.2504 87.5917 71.5421C88.0454 74.7602 86.4108 78.0426 83.8586 79.958C81.2821 81.1538 78.3521 81.1184 75.5899 80.7716C75.654 81.0072 75.7181 81.2428 75.7837 81.4815C77.6612 81.8717 79.6193 81.8598 81.4935 81.4495C82.2014 81.3121 82.8928 81.0754 83.6146 81.0233C84.2938 81.1637 84.7365 81.7649 85.1752 82.2531C86.6978 83.9546 87.3797 86.2834 87.3508 88.5385C87.2739 92.0739 85.5457 95.5539 82.6941 97.669C78.9337 100.566 73.8821 101.133 69.3012 100.48C65.3923 100.016 61.6984 98.5824 58.0553 97.1594C49.5588 93.3536 42.2084 86.6469 38.3224 78.1157C37.1033 75.1158 36.468 71.6203 37.7123 68.5234C38.5804 65.791 40.5405 63.4756 42.966 61.9822C45.1187 60.7083 47.7619 60.4341 50.1863 60.9279C50.6906 60.9983 50.8089 61.5776 50.9898 61.9663C51.4019 63.1715 51.9587 64.3271 52.72 65.353C53.3781 66.2384 53.9743 67.2471 54.9645 67.8043C55.4218 67.7153 55.3418 67.1523 55.033 66.9334C52.7875 64.6453 50.9447 61.5532 51.1911 58.2416C51.438 55.9862 52.552 53.8394 54.2462 52.3298C55.7838 50.8086 58.0201 49.9927 60.1733 50.3226C61.9375 50.6154 63.6329 51.4079 64.9296 52.6502C65.3864 53.0877 65.8907 53.5811 65.9399 54.2525C66.1248 55.6442 66.6076 57.1393 67.8442 57.9451C68.1654 56.998 67.2509 56.3302 66.9758 55.5058C66.3082 53.6258 66.7899 51.5785 67.5193 49.7906C68.4893 47.0633 71.2836 45.1094 74.1746 45.1231C75.63 45.1166 77.0705 45.7432 78.5212 45.3562ZM58.9942 51.0112C57.8847 51.0811 56.8313 51.5549 55.9294 52.1864C55.2982 52.6625 54.6148 53.2706 54.6131 54.1289C56.3484 54.9407 58.1891 53.8439 59.6441 52.9265C60.1757 52.5992 61.031 51.9018 60.3938 51.2859C59.9677 51.0539 59.4754 50.9644 58.9942 51.0112ZM58.1699 67.2189C57.2157 68.5298 56.9928 70.1632 56.8926 71.7363C56.304 71.6256 55.7118 71.5395 55.1202 71.4666C55.0713 71.5893 54.9744 71.8325 54.9264 71.953C56.2511 72.2996 57.7689 72.6137 58.5425 73.875C59.1122 74.5421 58.9596 75.4453 58.8825 76.2457C59.0163 76.2854 59.2861 76.3659 59.4198 76.4056C59.5464 75.8746 59.6716 75.3405 59.789 74.8062C63.1894 74.6715 65.6109 71.2487 65.5678 68.0287C65.5977 66.4565 64.5509 64.7451 62.906 64.5182C60.9519 64.3291 59.1562 65.6132 58.1699 67.2189ZM72.6269 70.3969C70.3238 70.8751 68.5585 72.9199 67.963 75.1266C67.5239 76.5143 67.783 77.9818 68.2441 79.3264C67.8521 79.6697 67.4677 80.0208 67.1174 80.4074C67.8366 80.9097 68.4879 79.8958 69.2387 79.8567C70.9557 79.6474 72.1438 81.0639 73.4199 81.9407C73.3076 81.2936 72.9206 80.7693 72.4853 80.3005C74.3663 79.1998 75.8406 77.3603 76.2289 75.189C76.4877 73.7319 76.2801 72.0103 75.0815 71.0027C74.4502 70.363 73.4782 70.2067 72.6269 70.3969ZM61.1458 74.8944C60.927 75.5535 60.4886 76.2824 60.9051 76.9573C61.3431 78.2574 62.5825 79.0771 63.8612 79.3996C64.7526 79.5636 65.8235 79.493 66.4122 78.706C67.0067 78.2091 66.8136 77.4242 66.6844 76.7736C65.9052 76.6807 65.1146 76.7368 64.3383 76.6138C63.3465 76.4478 63.1189 75.3004 62.3735 74.7913C61.9622 74.7877 61.552 74.8468 61.1458 74.8944Z" fill="#FB3E2D"/>
<path d="M61.7908 77.5958C62.1363 76.5952 63.4061 77.2129 63.9609 77.6957C64.4821 78.003 64.304 78.6351 64.2101 79.1181C63.2879 78.829 62.3748 78.3978 61.7908 77.5958Z" fill="#FB3E2D"/>
<mask id="path-14-outside-1_2031_23697" maskUnits="userSpaceOnUse" x="14.6875" y="25.83" width="101.387" height="95.317" fill="black">
<rect fill="white" x="14.6875" y="25.83" width="101.387" height="95.317"/>
<path d="M80.9873 42.0107C81.1092 42.0255 81.3569 42.0514 81.4788 42.0662C82.3239 43.8485 83.0844 45.8835 82.4842 47.8626C82.1872 48.9455 81.3406 49.7134 80.5897 50.4895C80.0629 50.9638 80.0813 51.824 80.5263 52.3456C81.4269 53.5197 82.8104 54.2116 83.6896 55.4092C84.9709 56.9574 85.2921 59.1839 84.5882 61.0535C84.1677 62.4764 83.1611 63.6286 81.9899 64.4991C83.4422 64.5745 84.8213 65.213 85.813 66.2767C87.6295 68.2099 88.5786 70.94 88.3286 73.5835C88.0383 76.3035 86.4377 78.739 84.3748 80.4678C86.2506 82.0224 87.5928 84.2384 87.899 86.6749C88.3895 89.8335 87.4897 93.1437 85.5944 95.7002C85.871 96.6004 85.992 97.7411 86.8832 98.2631C87.7375 98.6189 88.6992 98.403 89.5225 98.0653C89.3847 97.57 89.0623 97.0246 89.313 96.5169C89.4372 96.2186 89.7647 96.0859 89.9953 95.8825C89.8346 95.065 89.6643 94.1066 90.2864 93.4301C91.0985 92.2996 92.661 91.9264 93.91 92.5367C94.5567 91.638 95.1627 90.6417 96.1408 90.0658C97.1664 89.4368 98.7496 90.4644 98.4825 91.6824C98.1177 92.5984 97.3066 93.2155 96.5691 93.8225C97.56 93.5755 98.6174 92.9811 99.637 93.3827C100.568 93.7269 100.598 95.0297 99.92 95.6294C99.24 96.2205 98.3234 96.4264 97.4436 96.456C97.2879 96.6237 97.1156 96.7726 96.929 96.9035C96.2059 96.981 95.4014 96.9232 94.8195 97.4428C94.582 97.9136 95.0275 98.412 95.4728 98.5315C96.1416 98.7304 96.8858 98.9069 97.5672 98.6692C98.0905 98.2559 98.0455 97.4122 97.4858 97.0522C97.4724 96.9878 97.4442 96.8558 97.4307 96.7913C98.1261 96.5508 98.5287 97.3012 98.5276 97.8951C98.5703 98.5849 98.0066 99.2796 97.2999 99.3111C96.5822 99.3958 95.903 99.642 95.2087 99.8284C94.4207 100.023 93.6243 99.789 92.8824 99.5329C92.1118 100.175 91.0936 99.7399 90.4458 99.1462C89.1845 99.8471 87.6232 100.158 86.2745 99.5075C85.2079 99.1359 84.8505 97.9812 84.4533 97.0407C81.5349 100.022 77.3098 101.329 73.2176 101.41C68.3692 101.486 63.6235 100.136 59.1524 98.3559C59.2071 99.6027 59.1451 100.85 59.0584 102.093C59.7928 102.297 60.3095 101.632 60.9753 101.475C62.3147 101.16 63.8168 102.262 63.899 103.643C63.9543 104.436 63.9697 105.29 63.545 105.996C62.8626 107.061 61.6255 107.708 60.3724 107.766C58.8913 107.895 57.244 107.909 55.9854 107.004C55.227 106.452 55.2736 105.438 55.3204 104.606C55.572 103.972 55.8098 103.332 56.0361 102.689C56.4063 102.159 57.0807 101.999 57.6628 101.814C57.7832 100.469 57.8399 99.106 57.6556 97.7638C54.5121 96.2642 51.4861 94.4924 48.7494 92.3305C47.4399 92.8093 46.2738 93.6219 45.1744 94.4659C45.3559 95.0936 45.3166 95.7439 45.0149 96.3295C44.8632 96.3767 44.5612 96.4743 44.411 96.5246C44.362 96.6914 44.2633 97.0274 44.2166 97.195C43.4756 97.7099 42.6241 98.4476 41.6543 98.1467C40.1163 97.6775 39.334 96.12 38.6296 94.8029C37.9076 93.5134 37.8916 91.8002 38.8248 90.6064C39.8062 89.6347 41.4138 88.8649 42.7013 89.7536C43.7059 90.3289 43.9489 91.5571 43.7205 92.615C43.9448 92.8453 44.1659 93.0771 44.3831 93.3126C45.3658 92.549 46.3993 91.8319 47.5542 91.3501C43.5171 87.7811 39.9388 83.5424 37.7883 78.5581C36.6347 75.9214 36.0443 72.9634 36.5524 70.0977C35.5496 70.2834 34.4324 70.5062 33.4974 69.9686C32.1731 69.1031 31.5075 67.5092 31.5655 65.96C31.0878 65.7563 30.5866 65.5313 30.2704 65.0997C29.9929 64.6325 30.1539 63.9684 29.6408 63.638C28.9421 63.0054 28.5502 62.1083 28.4551 61.1793C28.4246 60.4626 27.7354 59.8542 28.0424 59.1149C28.2651 58.3066 29.176 58.0364 29.9235 58.1232C30.1279 58.3075 30.3338 58.4872 30.5398 58.6668C30.1999 57.7986 29.808 56.8651 30.0496 55.9157C30.2449 55.0822 31.3427 54.5567 32.0792 55.0392C33.0092 55.7514 32.9814 57.026 33.2103 58.0676C33.4844 57.0856 33.493 55.9158 34.3164 55.1914C35.2715 54.6074 36.7898 55.4017 36.7427 56.5553C36.658 57.698 36.0816 58.7204 35.6655 59.766C36.008 60.0799 36.3299 60.415 36.6432 60.7599C36.9525 61.7652 37.0539 62.9975 36.3177 63.8488C35.9188 64.3868 35.2446 64.5388 34.6445 64.7302C34.5961 65.0633 34.5192 65.3888 34.4139 65.7068C34.037 66.1099 33.4673 66.1357 32.9636 66.2315C33.0635 67.2272 33.4117 68.3786 34.4067 68.813C35.2535 69.0441 36.111 68.6978 36.94 68.5411C37.9092 65.6267 39.9186 63.0486 42.5435 61.447C44.9458 60.0258 47.8662 59.7308 50.5734 60.276C50.2033 57.8219 50.9003 55.257 52.4317 53.308C54.0192 51.1429 56.5511 49.5109 59.3014 49.5628C61.8456 49.6685 64.3597 50.8586 66.0025 52.813C66.2508 50.8021 66.9142 48.7909 68.2323 47.2228C70.0003 45.0829 72.9823 44.0236 75.704 44.5791C76.7339 44.7767 77.8848 45.0356 78.8664 44.5155C79.8782 43.9983 80.4967 42.9961 80.9873 42.0107ZM78.521 45.3553C77.0703 45.7423 75.6299 45.1158 74.1744 45.1223C71.2834 45.1085 68.4892 47.0624 67.5191 49.7897C66.7897 51.5776 66.308 53.6249 66.9756 55.5049C67.2507 56.3293 68.1653 56.9972 67.844 57.9442C66.6074 57.1385 66.1246 55.6434 65.9398 54.2516C65.8905 53.5802 65.3862 53.0868 64.9294 52.6493C63.6327 51.407 61.9373 50.6145 60.1731 50.3218C58.02 49.9918 55.7836 50.8078 54.246 52.329C52.5518 53.8386 51.4379 55.9853 51.1909 58.2407C50.9446 61.5524 52.7873 64.6444 55.0328 66.9326C55.3416 67.1514 55.4216 67.7144 54.9643 67.8035C53.9741 67.2462 53.3779 66.2376 52.7198 65.3522C51.9585 64.3263 51.4017 63.1707 50.9897 61.9654C50.8087 61.5767 50.6904 60.9975 50.1861 60.9271C47.7617 60.4332 45.1186 60.7074 42.9658 61.9813C40.5403 63.4747 38.5802 65.7901 37.7121 68.5226C36.4678 71.6194 37.1032 75.1149 38.3222 78.1149C42.2082 86.646 49.5587 93.3527 58.0551 97.1585C61.6982 98.5815 65.3921 100.015 69.301 100.479C73.882 101.133 78.9335 100.565 82.6939 97.6682C85.5455 95.5531 87.2737 92.0731 87.3506 88.5376C87.3795 86.2826 86.6976 83.9537 85.175 82.2522C84.7363 81.764 84.2936 81.1629 83.6144 81.0225C82.8927 81.0745 82.2013 81.3113 81.4933 81.4487C79.6192 81.8589 77.661 81.8708 75.7835 81.4807C75.7179 81.2419 75.6538 81.0064 75.5897 80.7708C78.3519 81.1175 81.2819 81.1529 83.8584 79.9571C86.4106 78.0417 88.0452 74.7594 87.5915 71.5412C87.2623 69.2496 86.0514 66.9635 84.0368 65.7332C82.8899 65.0476 81.4647 65.0856 80.2381 65.5211C78.9993 65.9472 77.6517 66.0154 76.3895 65.6391C76.4362 65.5078 76.5304 65.2429 76.5748 65.1107C78.0263 65.1444 79.5704 65.1513 80.8667 64.4032C82.1727 63.6351 83.3825 62.5319 83.8238 61.0359C84.458 59.676 84.3385 58.0714 83.7173 56.732C83.0368 55.3405 81.6954 54.4793 80.5891 53.4604C79.8445 52.796 79.3324 51.7263 79.6376 50.7295C80.0777 49.682 81.2521 49.1526 81.6579 48.0773C82.3588 46.5154 81.9171 44.7443 81.2424 43.2562C80.4338 44.0558 79.7112 45.117 78.521 45.3553ZM34.5899 55.7428C33.9356 56.9477 33.8358 58.3445 33.6051 59.6715C33.4635 59.6393 33.1764 59.5709 33.0356 59.5364C32.6427 58.3794 32.6223 57.1163 32.1158 55.9942C31.9618 55.5008 31.1587 55.2489 30.8416 55.7174C30.2621 56.544 30.6813 57.5832 31.0664 58.3974C31.5589 59.3692 31.7732 60.5976 31.3577 61.6201C30.8166 62.4993 29.7284 62.0422 29.0431 61.6271C29.3168 62.2876 29.6387 62.973 30.23 63.4116C30.6746 63.7592 31.2422 63.9144 31.6709 64.2848C31.4519 64.8349 30.8388 64.3262 30.4535 64.3734C30.8054 64.989 31.404 65.4147 32.1204 65.4723C32.8095 65.5851 33.9669 65.8255 34.1253 64.8621C33.7613 64.8935 33.3974 64.9171 33.0311 64.9399C33.1542 64.7035 33.1627 64.3147 33.5231 64.352C34.341 64.1681 35.2991 64.13 35.913 63.4765C36.4858 62.5593 36.4991 61.1576 35.5901 60.445C35.0572 60.1413 34.2597 60.0782 33.9021 60.675C33.4325 61.302 32.6771 61.5289 31.9982 61.8401C31.6095 62.444 32.5165 62.681 32.9649 62.6822C33.7984 62.8412 34.4842 62.3066 35.1067 61.8404C35.1407 62.0367 35.3038 62.2348 35.2239 62.4374C34.4519 63.1488 33.2936 63.4945 32.2817 63.1294C31.8053 63.017 31.2662 62.6359 31.3212 62.0872C31.2175 61.3574 32.0597 61.2366 32.5473 60.9819C33.1342 60.7911 33.4616 60.2354 33.9221 59.8673C34.2874 59.6573 34.7209 59.6714 35.1226 59.6145C35.5038 58.6887 35.9988 57.7931 36.1641 56.7958C36.3642 55.9925 35.2412 55.1519 34.5899 55.7428ZM28.7709 58.8031C28.5495 59.2797 28.4219 59.8207 28.8085 60.2514C29.2508 60.8681 29.9714 61.9573 30.8329 61.4101C31.2073 60.6713 30.6599 59.8175 30.3151 59.1526C30.0019 58.5741 29.3031 58.6784 28.7709 58.8031ZM96.5517 90.4793C95.5624 91.0719 94.9566 92.0968 94.2553 92.9813C94.7757 93.6413 94.6053 94.4266 94.3449 95.1514C94.0584 95.8694 94.7728 96.8008 94.0703 97.3605C93.517 97.924 92.6721 97.4029 92.3037 96.8775C91.6333 96.107 91.5248 95.0331 91.7459 94.0686C91.9376 94.1134 92.1315 94.1591 92.3278 94.2055C92.0961 95.0391 92.1978 95.9861 92.8371 96.6183C93.0369 96.9099 93.6231 97.2975 93.841 96.8015C93.6452 95.8418 93.6624 94.8671 94.1347 93.9841C93.8444 93.4579 93.4388 92.8621 92.7775 92.8319C91.7481 92.6837 90.8969 93.4864 90.3799 94.2833C90.3935 95.2664 90.7455 96.1883 91.0106 97.1207C90.5349 97.4004 90.3473 96.6876 90.0143 96.4783C89.6452 96.648 89.8164 97.093 89.9082 97.3747C90.3967 98.314 91.1476 99.318 92.3024 99.3836C92.0575 99.0215 91.815 98.6602 91.5936 98.283C92.3412 98.2168 92.7718 98.9175 93.424 99.1339C94.0546 99.3816 94.7502 99.2864 95.4064 99.2215C94.6807 98.8543 93.8265 98.0678 94.3051 97.182C95.0985 96.3666 96.2484 95.9426 97.3793 95.9219C98.3839 95.877 99.5804 95.5553 99.916 94.4732C99.6214 94.1998 99.3467 93.7466 98.8788 93.8292C97.6969 93.92 96.6215 94.4924 95.4694 94.7184C95.3239 94.6459 95.0353 94.5017 94.8898 94.4292C95.9579 93.3741 97.4553 92.6223 98.0221 91.1528C97.635 90.7894 97.1293 90.2851 96.5517 90.4793ZM40.6175 90.053C39.3164 90.6541 39.0274 92.3859 39.5232 93.6184C40.1566 95.084 40.9899 96.6078 42.4862 97.3398C43.0687 97.2927 43.6073 97.0769 43.9178 96.5542C43.4852 96.2239 42.5532 95.5758 43.1474 94.9775C43.5701 95.3796 43.8835 96.1035 44.5847 95.9195C44.678 95.6206 44.7622 95.3184 44.8394 95.0137C44.402 95.0761 43.8691 95.2758 43.5554 94.8372C43.1756 94.2273 44.2281 93.7194 43.6039 93.147C43.0788 93.5727 42.3446 94.7906 41.6136 94.1465C42.3098 93.5534 43.1779 92.9877 43.2292 91.968C43.4284 90.5909 41.8511 89.5395 40.6175 90.053ZM60.5742 102.238C59.6225 102.732 59.3887 103.863 59.3838 104.847C59.2522 104.816 58.9898 104.751 58.8581 104.72C58.7905 103.925 59.0961 103.183 59.3006 102.433C58.8596 102.907 58.6062 103.59 57.8606 103.636C57.6222 103.263 57.4681 102.85 57.3629 102.424C56.9441 102.682 56.2856 102.936 56.4424 103.56C56.6604 104.143 57.2843 104.111 57.7978 104.112C57.757 104.256 57.677 104.547 57.6362 104.69C57.0307 104.693 56.482 104.441 55.9482 104.183C55.9683 104.608 55.7946 105.097 56.0451 105.487C56.5567 106.237 57.545 106.391 58.3835 106.492C59.6308 106.531 60.9921 106.592 62.0954 105.905C62.8473 105.426 63.5233 104.568 63.3326 103.623C63.1783 102.409 61.6368 101.533 60.5742 102.238Z"/>
</mask>
<path d="M80.9873 42.0107C81.1092 42.0255 81.3569 42.0514 81.4788 42.0662C82.3239 43.8485 83.0844 45.8835 82.4842 47.8626C82.1872 48.9455 81.3406 49.7134 80.5897 50.4895C80.0629 50.9638 80.0813 51.824 80.5263 52.3456C81.4269 53.5197 82.8104 54.2116 83.6896 55.4092C84.9709 56.9574 85.2921 59.1839 84.5882 61.0535C84.1677 62.4764 83.1611 63.6286 81.9899 64.4991C83.4422 64.5745 84.8213 65.213 85.813 66.2767C87.6295 68.2099 88.5786 70.94 88.3286 73.5835C88.0383 76.3035 86.4377 78.739 84.3748 80.4678C86.2506 82.0224 87.5928 84.2384 87.899 86.6749C88.3895 89.8335 87.4897 93.1437 85.5944 95.7002C85.871 96.6004 85.992 97.7411 86.8832 98.2631C87.7375 98.6189 88.6992 98.403 89.5225 98.0653C89.3847 97.57 89.0623 97.0246 89.313 96.5169C89.4372 96.2186 89.7647 96.0859 89.9953 95.8825C89.8346 95.065 89.6643 94.1066 90.2864 93.4301C91.0985 92.2996 92.661 91.9264 93.91 92.5367C94.5567 91.638 95.1627 90.6417 96.1408 90.0658C97.1664 89.4368 98.7496 90.4644 98.4825 91.6824C98.1177 92.5984 97.3066 93.2155 96.5691 93.8225C97.56 93.5755 98.6174 92.9811 99.637 93.3827C100.568 93.7269 100.598 95.0297 99.92 95.6294C99.24 96.2205 98.3234 96.4264 97.4436 96.456C97.2879 96.6237 97.1156 96.7726 96.929 96.9035C96.2059 96.981 95.4014 96.9232 94.8195 97.4428C94.582 97.9136 95.0275 98.412 95.4728 98.5315C96.1416 98.7304 96.8858 98.9069 97.5672 98.6692C98.0905 98.2559 98.0455 97.4122 97.4858 97.0522C97.4724 96.9878 97.4442 96.8558 97.4307 96.7913C98.1261 96.5508 98.5287 97.3012 98.5276 97.8951C98.5703 98.5849 98.0066 99.2796 97.2999 99.3111C96.5822 99.3958 95.903 99.642 95.2087 99.8284C94.4207 100.023 93.6243 99.789 92.8824 99.5329C92.1118 100.175 91.0936 99.7399 90.4458 99.1462C89.1845 99.8471 87.6232 100.158 86.2745 99.5075C85.2079 99.1359 84.8505 97.9812 84.4533 97.0407C81.5349 100.022 77.3098 101.329 73.2176 101.41C68.3692 101.486 63.6235 100.136 59.1524 98.3559C59.2071 99.6027 59.1451 100.85 59.0584 102.093C59.7928 102.297 60.3095 101.632 60.9753 101.475C62.3147 101.16 63.8168 102.262 63.899 103.643C63.9543 104.436 63.9697 105.29 63.545 105.996C62.8626 107.061 61.6255 107.708 60.3724 107.766C58.8913 107.895 57.244 107.909 55.9854 107.004C55.227 106.452 55.2736 105.438 55.3204 104.606C55.572 103.972 55.8098 103.332 56.0361 102.689C56.4063 102.159 57.0807 101.999 57.6628 101.814C57.7832 100.469 57.8399 99.106 57.6556 97.7638C54.5121 96.2642 51.4861 94.4924 48.7494 92.3305C47.4399 92.8093 46.2738 93.6219 45.1744 94.4659C45.3559 95.0936 45.3166 95.7439 45.0149 96.3295C44.8632 96.3767 44.5612 96.4743 44.411 96.5246C44.362 96.6914 44.2633 97.0274 44.2166 97.195C43.4756 97.7099 42.6241 98.4476 41.6543 98.1467C40.1163 97.6775 39.334 96.12 38.6296 94.8029C37.9076 93.5134 37.8916 91.8002 38.8248 90.6064C39.8062 89.6347 41.4138 88.8649 42.7013 89.7536C43.7059 90.3289 43.9489 91.5571 43.7205 92.615C43.9448 92.8453 44.1659 93.0771 44.3831 93.3126C45.3658 92.549 46.3993 91.8319 47.5542 91.3501C43.5171 87.7811 39.9388 83.5424 37.7883 78.5581C36.6347 75.9214 36.0443 72.9634 36.5524 70.0977C35.5496 70.2834 34.4324 70.5062 33.4974 69.9686C32.1731 69.1031 31.5075 67.5092 31.5655 65.96C31.0878 65.7563 30.5866 65.5313 30.2704 65.0997C29.9929 64.6325 30.1539 63.9684 29.6408 63.638C28.9421 63.0054 28.5502 62.1083 28.4551 61.1793C28.4246 60.4626 27.7354 59.8542 28.0424 59.1149C28.2651 58.3066 29.176 58.0364 29.9235 58.1232C30.1279 58.3075 30.3338 58.4872 30.5398 58.6668C30.1999 57.7986 29.808 56.8651 30.0496 55.9157C30.2449 55.0822 31.3427 54.5567 32.0792 55.0392C33.0092 55.7514 32.9814 57.026 33.2103 58.0676C33.4844 57.0856 33.493 55.9158 34.3164 55.1914C35.2715 54.6074 36.7898 55.4017 36.7427 56.5553C36.658 57.698 36.0816 58.7204 35.6655 59.766C36.008 60.0799 36.3299 60.415 36.6432 60.7599C36.9525 61.7652 37.0539 62.9975 36.3177 63.8488C35.9188 64.3868 35.2446 64.5388 34.6445 64.7302C34.5961 65.0633 34.5192 65.3888 34.4139 65.7068C34.037 66.1099 33.4673 66.1357 32.9636 66.2315C33.0635 67.2272 33.4117 68.3786 34.4067 68.813C35.2535 69.0441 36.111 68.6978 36.94 68.5411C37.9092 65.6267 39.9186 63.0486 42.5435 61.447C44.9458 60.0258 47.8662 59.7308 50.5734 60.276C50.2033 57.8219 50.9003 55.257 52.4317 53.308C54.0192 51.1429 56.5511 49.5109 59.3014 49.5628C61.8456 49.6685 64.3597 50.8586 66.0025 52.813C66.2508 50.8021 66.9142 48.7909 68.2323 47.2228C70.0003 45.0829 72.9823 44.0236 75.704 44.5791C76.7339 44.7767 77.8848 45.0356 78.8664 44.5155C79.8782 43.9983 80.4967 42.9961 80.9873 42.0107ZM78.521 45.3553C77.0703 45.7423 75.6299 45.1158 74.1744 45.1223C71.2834 45.1085 68.4892 47.0624 67.5191 49.7897C66.7897 51.5776 66.308 53.6249 66.9756 55.5049C67.2507 56.3293 68.1653 56.9972 67.844 57.9442C66.6074 57.1385 66.1246 55.6434 65.9398 54.2516C65.8905 53.5802 65.3862 53.0868 64.9294 52.6493C63.6327 51.407 61.9373 50.6145 60.1731 50.3218C58.02 49.9918 55.7836 50.8078 54.246 52.329C52.5518 53.8386 51.4379 55.9853 51.1909 58.2407C50.9446 61.5524 52.7873 64.6444 55.0328 66.9326C55.3416 67.1514 55.4216 67.7144 54.9643 67.8035C53.9741 67.2462 53.3779 66.2376 52.7198 65.3522C51.9585 64.3263 51.4017 63.1707 50.9897 61.9654C50.8087 61.5767 50.6904 60.9975 50.1861 60.9271C47.7617 60.4332 45.1186 60.7074 42.9658 61.9813C40.5403 63.4747 38.5802 65.7901 37.7121 68.5226C36.4678 71.6194 37.1032 75.1149 38.3222 78.1149C42.2082 86.646 49.5587 93.3527 58.0551 97.1585C61.6982 98.5815 65.3921 100.015 69.301 100.479C73.882 101.133 78.9335 100.565 82.6939 97.6682C85.5455 95.5531 87.2737 92.0731 87.3506 88.5376C87.3795 86.2826 86.6976 83.9537 85.175 82.2522C84.7363 81.764 84.2936 81.1629 83.6144 81.0225C82.8927 81.0745 82.2013 81.3113 81.4933 81.4487C79.6192 81.8589 77.661 81.8708 75.7835 81.4807C75.7179 81.2419 75.6538 81.0064 75.5897 80.7708C78.3519 81.1175 81.2819 81.1529 83.8584 79.9571C86.4106 78.0417 88.0452 74.7594 87.5915 71.5412C87.2623 69.2496 86.0514 66.9635 84.0368 65.7332C82.8899 65.0476 81.4647 65.0856 80.2381 65.5211C78.9993 65.9472 77.6517 66.0154 76.3895 65.6391C76.4362 65.5078 76.5304 65.2429 76.5748 65.1107C78.0263 65.1444 79.5704 65.1513 80.8667 64.4032C82.1727 63.6351 83.3825 62.5319 83.8238 61.0359C84.458 59.676 84.3385 58.0714 83.7173 56.732C83.0368 55.3405 81.6954 54.4793 80.5891 53.4604C79.8445 52.796 79.3324 51.7263 79.6376 50.7295C80.0777 49.682 81.2521 49.1526 81.6579 48.0773C82.3588 46.5154 81.9171 44.7443 81.2424 43.2562C80.4338 44.0558 79.7112 45.117 78.521 45.3553ZM34.5899 55.7428C33.9356 56.9477 33.8358 58.3445 33.6051 59.6715C33.4635 59.6393 33.1764 59.5709 33.0356 59.5364C32.6427 58.3794 32.6223 57.1163 32.1158 55.9942C31.9618 55.5008 31.1587 55.2489 30.8416 55.7174C30.2621 56.544 30.6813 57.5832 31.0664 58.3974C31.5589 59.3692 31.7732 60.5976 31.3577 61.6201C30.8166 62.4993 29.7284 62.0422 29.0431 61.6271C29.3168 62.2876 29.6387 62.973 30.23 63.4116C30.6746 63.7592 31.2422 63.9144 31.6709 64.2848C31.4519 64.8349 30.8388 64.3262 30.4535 64.3734C30.8054 64.989 31.404 65.4147 32.1204 65.4723C32.8095 65.5851 33.9669 65.8255 34.1253 64.8621C33.7613 64.8935 33.3974 64.9171 33.0311 64.9399C33.1542 64.7035 33.1627 64.3147 33.5231 64.352C34.341 64.1681 35.2991 64.13 35.913 63.4765C36.4858 62.5593 36.4991 61.1576 35.5901 60.445C35.0572 60.1413 34.2597 60.0782 33.9021 60.675C33.4325 61.302 32.6771 61.5289 31.9982 61.8401C31.6095 62.444 32.5165 62.681 32.9649 62.6822C33.7984 62.8412 34.4842 62.3066 35.1067 61.8404C35.1407 62.0367 35.3038 62.2348 35.2239 62.4374C34.4519 63.1488 33.2936 63.4945 32.2817 63.1294C31.8053 63.017 31.2662 62.6359 31.3212 62.0872C31.2175 61.3574 32.0597 61.2366 32.5473 60.9819C33.1342 60.7911 33.4616 60.2354 33.9221 59.8673C34.2874 59.6573 34.7209 59.6714 35.1226 59.6145C35.5038 58.6887 35.9988 57.7931 36.1641 56.7958C36.3642 55.9925 35.2412 55.1519 34.5899 55.7428ZM28.7709 58.8031C28.5495 59.2797 28.4219 59.8207 28.8085 60.2514C29.2508 60.8681 29.9714 61.9573 30.8329 61.4101C31.2073 60.6713 30.6599 59.8175 30.3151 59.1526C30.0019 58.5741 29.3031 58.6784 28.7709 58.8031ZM96.5517 90.4793C95.5624 91.0719 94.9566 92.0968 94.2553 92.9813C94.7757 93.6413 94.6053 94.4266 94.3449 95.1514C94.0584 95.8694 94.7728 96.8008 94.0703 97.3605C93.517 97.924 92.6721 97.4029 92.3037 96.8775C91.6333 96.107 91.5248 95.0331 91.7459 94.0686C91.9376 94.1134 92.1315 94.1591 92.3278 94.2055C92.0961 95.0391 92.1978 95.9861 92.8371 96.6183C93.0369 96.9099 93.6231 97.2975 93.841 96.8015C93.6452 95.8418 93.6624 94.8671 94.1347 93.9841C93.8444 93.4579 93.4388 92.8621 92.7775 92.8319C91.7481 92.6837 90.8969 93.4864 90.3799 94.2833C90.3935 95.2664 90.7455 96.1883 91.0106 97.1207C90.5349 97.4004 90.3473 96.6876 90.0143 96.4783C89.6452 96.648 89.8164 97.093 89.9082 97.3747C90.3967 98.314 91.1476 99.318 92.3024 99.3836C92.0575 99.0215 91.815 98.6602 91.5936 98.283C92.3412 98.2168 92.7718 98.9175 93.424 99.1339C94.0546 99.3816 94.7502 99.2864 95.4064 99.2215C94.6807 98.8543 93.8265 98.0678 94.3051 97.182C95.0985 96.3666 96.2484 95.9426 97.3793 95.9219C98.3839 95.877 99.5804 95.5553 99.916 94.4732C99.6214 94.1998 99.3467 93.7466 98.8788 93.8292C97.6969 93.92 96.6215 94.4924 95.4694 94.7184C95.3239 94.6459 95.0353 94.5017 94.8898 94.4292C95.9579 93.3741 97.4553 92.6223 98.0221 91.1528C97.635 90.7894 97.1293 90.2851 96.5517 90.4793ZM40.6175 90.053C39.3164 90.6541 39.0274 92.3859 39.5232 93.6184C40.1566 95.084 40.9899 96.6078 42.4862 97.3398C43.0687 97.2927 43.6073 97.0769 43.9178 96.5542C43.4852 96.2239 42.5532 95.5758 43.1474 94.9775C43.5701 95.3796 43.8835 96.1035 44.5847 95.9195C44.678 95.6206 44.7622 95.3184 44.8394 95.0137C44.402 95.0761 43.8691 95.2758 43.5554 94.8372C43.1756 94.2273 44.2281 93.7194 43.6039 93.147C43.0788 93.5727 42.3446 94.7906 41.6136 94.1465C42.3098 93.5534 43.1779 92.9877 43.2292 91.968C43.4284 90.5909 41.8511 89.5395 40.6175 90.053ZM60.5742 102.238C59.6225 102.732 59.3887 103.863 59.3838 104.847C59.2522 104.816 58.9898 104.751 58.8581 104.72C58.7905 103.925 59.0961 103.183 59.3006 102.433C58.8596 102.907 58.6062 103.59 57.8606 103.636C57.6222 103.263 57.4681 102.85 57.3629 102.424C56.9441 102.682 56.2856 102.936 56.4424 103.56C56.6604 104.143 57.2843 104.111 57.7978 104.112C57.757 104.256 57.677 104.547 57.6362 104.69C57.0307 104.693 56.482 104.441 55.9482 104.183C55.9683 104.608 55.7946 105.097 56.0451 105.487C56.5567 106.237 57.545 106.391 58.3835 106.492C59.6308 106.531 60.9921 106.592 62.0954 105.905C62.8473 105.426 63.5233 104.568 63.3326 103.623C63.1783 102.409 61.6368 101.533 60.5742 102.238Z" fill="#0C0505"/>
<path d="M80.9873 42.0107C81.1092 42.0255 81.3569 42.0514 81.4788 42.0662C82.3239 43.8485 83.0844 45.8835 82.4842 47.8626C82.1872 48.9455 81.3406 49.7134 80.5897 50.4895C80.0629 50.9638 80.0813 51.824 80.5263 52.3456C81.4269 53.5197 82.8104 54.2116 83.6896 55.4092C84.9709 56.9574 85.2921 59.1839 84.5882 61.0535C84.1677 62.4764 83.1611 63.6286 81.9899 64.4991C83.4422 64.5745 84.8213 65.213 85.813 66.2767C87.6295 68.2099 88.5786 70.94 88.3286 73.5835C88.0383 76.3035 86.4377 78.739 84.3748 80.4678C86.2506 82.0224 87.5928 84.2384 87.899 86.6749C88.3895 89.8335 87.4897 93.1437 85.5944 95.7002C85.871 96.6004 85.992 97.7411 86.8832 98.2631C87.7375 98.6189 88.6992 98.403 89.5225 98.0653C89.3847 97.57 89.0623 97.0246 89.313 96.5169C89.4372 96.2186 89.7647 96.0859 89.9953 95.8825C89.8346 95.065 89.6643 94.1066 90.2864 93.4301C91.0985 92.2996 92.661 91.9264 93.91 92.5367C94.5567 91.638 95.1627 90.6417 96.1408 90.0658C97.1664 89.4368 98.7496 90.4644 98.4825 91.6824C98.1177 92.5984 97.3066 93.2155 96.5691 93.8225C97.56 93.5755 98.6174 92.9811 99.637 93.3827C100.568 93.7269 100.598 95.0297 99.92 95.6294C99.24 96.2205 98.3234 96.4264 97.4436 96.456C97.2879 96.6237 97.1156 96.7726 96.929 96.9035C96.2059 96.981 95.4014 96.9232 94.8195 97.4428C94.582 97.9136 95.0275 98.412 95.4728 98.5315C96.1416 98.7304 96.8858 98.9069 97.5672 98.6692C98.0905 98.2559 98.0455 97.4122 97.4858 97.0522C97.4724 96.9878 97.4442 96.8558 97.4307 96.7913C98.1261 96.5508 98.5287 97.3012 98.5276 97.8951C98.5703 98.5849 98.0066 99.2796 97.2999 99.3111C96.5822 99.3958 95.903 99.642 95.2087 99.8284C94.4207 100.023 93.6243 99.789 92.8824 99.5329C92.1118 100.175 91.0936 99.7399 90.4458 99.1462C89.1845 99.8471 87.6232 100.158 86.2745 99.5075C85.2079 99.1359 84.8505 97.9812 84.4533 97.0407C81.5349 100.022 77.3098 101.329 73.2176 101.41C68.3692 101.486 63.6235 100.136 59.1524 98.3559C59.2071 99.6027 59.1451 100.85 59.0584 102.093C59.7928 102.297 60.3095 101.632 60.9753 101.475C62.3147 101.16 63.8168 102.262 63.899 103.643C63.9543 104.436 63.9697 105.29 63.545 105.996C62.8626 107.061 61.6255 107.708 60.3724 107.766C58.8913 107.895 57.244 107.909 55.9854 107.004C55.227 106.452 55.2736 105.438 55.3204 104.606C55.572 103.972 55.8098 103.332 56.0361 102.689C56.4063 102.159 57.0807 101.999 57.6628 101.814C57.7832 100.469 57.8399 99.106 57.6556 97.7638C54.5121 96.2642 51.4861 94.4924 48.7494 92.3305C47.4399 92.8093 46.2738 93.6219 45.1744 94.4659C45.3559 95.0936 45.3166 95.7439 45.0149 96.3295C44.8632 96.3767 44.5612 96.4743 44.411 96.5246C44.362 96.6914 44.2633 97.0274 44.2166 97.195C43.4756 97.7099 42.6241 98.4476 41.6543 98.1467C40.1163 97.6775 39.334 96.12 38.6296 94.8029C37.9076 93.5134 37.8916 91.8002 38.8248 90.6064C39.8062 89.6347 41.4138 88.8649 42.7013 89.7536C43.7059 90.3289 43.9489 91.5571 43.7205 92.615C43.9448 92.8453 44.1659 93.0771 44.3831 93.3126C45.3658 92.549 46.3993 91.8319 47.5542 91.3501C43.5171 87.7811 39.9388 83.5424 37.7883 78.5581C36.6347 75.9214 36.0443 72.9634 36.5524 70.0977C35.5496 70.2834 34.4324 70.5062 33.4974 69.9686C32.1731 69.1031 31.5075 67.5092 31.5655 65.96C31.0878 65.7563 30.5866 65.5313 30.2704 65.0997C29.9929 64.6325 30.1539 63.9684 29.6408 63.638C28.9421 63.0054 28.5502 62.1083 28.4551 61.1793C28.4246 60.4626 27.7354 59.8542 28.0424 59.1149C28.2651 58.3066 29.176 58.0364 29.9235 58.1232C30.1279 58.3075 30.3338 58.4872 30.5398 58.6668C30.1999 57.7986 29.808 56.8651 30.0496 55.9157C30.2449 55.0822 31.3427 54.5567 32.0792 55.0392C33.0092 55.7514 32.9814 57.026 33.2103 58.0676C33.4844 57.0856 33.493 55.9158 34.3164 55.1914C35.2715 54.6074 36.7898 55.4017 36.7427 56.5553C36.658 57.698 36.0816 58.7204 35.6655 59.766C36.008 60.0799 36.3299 60.415 36.6432 60.7599C36.9525 61.7652 37.0539 62.9975 36.3177 63.8488C35.9188 64.3868 35.2446 64.5388 34.6445 64.7302C34.5961 65.0633 34.5192 65.3888 34.4139 65.7068C34.037 66.1099 33.4673 66.1357 32.9636 66.2315C33.0635 67.2272 33.4117 68.3786 34.4067 68.813C35.2535 69.0441 36.111 68.6978 36.94 68.5411C37.9092 65.6267 39.9186 63.0486 42.5435 61.447C44.9458 60.0258 47.8662 59.7308 50.5734 60.276C50.2033 57.8219 50.9003 55.257 52.4317 53.308C54.0192 51.1429 56.5511 49.5109 59.3014 49.5628C61.8456 49.6685 64.3597 50.8586 66.0025 52.813C66.2508 50.8021 66.9142 48.7909 68.2323 47.2228C70.0003 45.0829 72.9823 44.0236 75.704 44.5791C76.7339 44.7767 77.8848 45.0356 78.8664 44.5155C79.8782 43.9983 80.4967 42.9961 80.9873 42.0107ZM78.521 45.3553C77.0703 45.7423 75.6299 45.1158 74.1744 45.1223C71.2834 45.1085 68.4892 47.0624 67.5191 49.7897C66.7897 51.5776 66.308 53.6249 66.9756 55.5049C67.2507 56.3293 68.1653 56.9972 67.844 57.9442C66.6074 57.1385 66.1246 55.6434 65.9398 54.2516C65.8905 53.5802 65.3862 53.0868 64.9294 52.6493C63.6327 51.407 61.9373 50.6145 60.1731 50.3218C58.02 49.9918 55.7836 50.8078 54.246 52.329C52.5518 53.8386 51.4379 55.9853 51.1909 58.2407C50.9446 61.5524 52.7873 64.6444 55.0328 66.9326C55.3416 67.1514 55.4216 67.7144 54.9643 67.8035C53.9741 67.2462 53.3779 66.2376 52.7198 65.3522C51.9585 64.3263 51.4017 63.1707 50.9897 61.9654C50.8087 61.5767 50.6904 60.9975 50.1861 60.9271C47.7617 60.4332 45.1186 60.7074 42.9658 61.9813C40.5403 63.4747 38.5802 65.7901 37.7121 68.5226C36.4678 71.6194 37.1032 75.1149 38.3222 78.1149C42.2082 86.646 49.5587 93.3527 58.0551 97.1585C61.6982 98.5815 65.3921 100.015 69.301 100.479C73.882 101.133 78.9335 100.565 82.6939 97.6682C85.5455 95.5531 87.2737 92.0731 87.3506 88.5376C87.3795 86.2826 86.6976 83.9537 85.175 82.2522C84.7363 81.764 84.2936 81.1629 83.6144 81.0225C82.8927 81.0745 82.2013 81.3113 81.4933 81.4487C79.6192 81.8589 77.661 81.8708 75.7835 81.4807C75.7179 81.2419 75.6538 81.0064 75.5897 80.7708C78.3519 81.1175 81.2819 81.1529 83.8584 79.9571C86.4106 78.0417 88.0452 74.7594 87.5915 71.5412C87.2623 69.2496 86.0514 66.9635 84.0368 65.7332C82.8899 65.0476 81.4647 65.0856 80.2381 65.5211C78.9993 65.9472 77.6517 66.0154 76.3895 65.6391C76.4362 65.5078 76.5304 65.2429 76.5748 65.1107C78.0263 65.1444 79.5704 65.1513 80.8667 64.4032C82.1727 63.6351 83.3825 62.5319 83.8238 61.0359C84.458 59.676 84.3385 58.0714 83.7173 56.732C83.0368 55.3405 81.6954 54.4793 80.5891 53.4604C79.8445 52.796 79.3324 51.7263 79.6376 50.7295C80.0777 49.682 81.2521 49.1526 81.6579 48.0773C82.3588 46.5154 81.9171 44.7443 81.2424 43.2562C80.4338 44.0558 79.7112 45.117 78.521 45.3553ZM34.5899 55.7428C33.9356 56.9477 33.8358 58.3445 33.6051 59.6715C33.4635 59.6393 33.1764 59.5709 33.0356 59.5364C32.6427 58.3794 32.6223 57.1163 32.1158 55.9942C31.9618 55.5008 31.1587 55.2489 30.8416 55.7174C30.2621 56.544 30.6813 57.5832 31.0664 58.3974C31.5589 59.3692 31.7732 60.5976 31.3577 61.6201C30.8166 62.4993 29.7284 62.0422 29.0431 61.6271C29.3168 62.2876 29.6387 62.973 30.23 63.4116C30.6746 63.7592 31.2422 63.9144 31.6709 64.2848C31.4519 64.8349 30.8388 64.3262 30.4535 64.3734C30.8054 64.989 31.404 65.4147 32.1204 65.4723C32.8095 65.5851 33.9669 65.8255 34.1253 64.8621C33.7613 64.8935 33.3974 64.9171 33.0311 64.9399C33.1542 64.7035 33.1627 64.3147 33.5231 64.352C34.341 64.1681 35.2991 64.13 35.913 63.4765C36.4858 62.5593 36.4991 61.1576 35.5901 60.445C35.0572 60.1413 34.2597 60.0782 33.9021 60.675C33.4325 61.302 32.6771 61.5289 31.9982 61.8401C31.6095 62.444 32.5165 62.681 32.9649 62.6822C33.7984 62.8412 34.4842 62.3066 35.1067 61.8404C35.1407 62.0367 35.3038 62.2348 35.2239 62.4374C34.4519 63.1488 33.2936 63.4945 32.2817 63.1294C31.8053 63.017 31.2662 62.6359 31.3212 62.0872C31.2175 61.3574 32.0597 61.2366 32.5473 60.9819C33.1342 60.7911 33.4616 60.2354 33.9221 59.8673C34.2874 59.6573 34.7209 59.6714 35.1226 59.6145C35.5038 58.6887 35.9988 57.7931 36.1641 56.7958C36.3642 55.9925 35.2412 55.1519 34.5899 55.7428ZM28.7709 58.8031C28.5495 59.2797 28.4219 59.8207 28.8085 60.2514C29.2508 60.8681 29.9714 61.9573 30.8329 61.4101C31.2073 60.6713 30.6599 59.8175 30.3151 59.1526C30.0019 58.5741 29.3031 58.6784 28.7709 58.8031ZM96.5517 90.4793C95.5624 91.0719 94.9566 92.0968 94.2553 92.9813C94.7757 93.6413 94.6053 94.4266 94.3449 95.1514C94.0584 95.8694 94.7728 96.8008 94.0703 97.3605C93.517 97.924 92.6721 97.4029 92.3037 96.8775C91.6333 96.107 91.5248 95.0331 91.7459 94.0686C91.9376 94.1134 92.1315 94.1591 92.3278 94.2055C92.0961 95.0391 92.1978 95.9861 92.8371 96.6183C93.0369 96.9099 93.6231 97.2975 93.841 96.8015C93.6452 95.8418 93.6624 94.8671 94.1347 93.9841C93.8444 93.4579 93.4388 92.8621 92.7775 92.8319C91.7481 92.6837 90.8969 93.4864 90.3799 94.2833C90.3935 95.2664 90.7455 96.1883 91.0106 97.1207C90.5349 97.4004 90.3473 96.6876 90.0143 96.4783C89.6452 96.648 89.8164 97.093 89.9082 97.3747C90.3967 98.314 91.1476 99.318 92.3024 99.3836C92.0575 99.0215 91.815 98.6602 91.5936 98.283C92.3412 98.2168 92.7718 98.9175 93.424 99.1339C94.0546 99.3816 94.7502 99.2864 95.4064 99.2215C94.6807 98.8543 93.8265 98.0678 94.3051 97.182C95.0985 96.3666 96.2484 95.9426 97.3793 95.9219C98.3839 95.877 99.5804 95.5553 99.916 94.4732C99.6214 94.1998 99.3467 93.7466 98.8788 93.8292C97.6969 93.92 96.6215 94.4924 95.4694 94.7184C95.3239 94.6459 95.0353 94.5017 94.8898 94.4292C95.9579 93.3741 97.4553 92.6223 98.0221 91.1528C97.635 90.7894 97.1293 90.2851 96.5517 90.4793ZM40.6175 90.053C39.3164 90.6541 39.0274 92.3859 39.5232 93.6184C40.1566 95.084 40.9899 96.6078 42.4862 97.3398C43.0687 97.2927 43.6073 97.0769 43.9178 96.5542C43.4852 96.2239 42.5532 95.5758 43.1474 94.9775C43.5701 95.3796 43.8835 96.1035 44.5847 95.9195C44.678 95.6206 44.7622 95.3184 44.8394 95.0137C44.402 95.0761 43.8691 95.2758 43.5554 94.8372C43.1756 94.2273 44.2281 93.7194 43.6039 93.147C43.0788 93.5727 42.3446 94.7906 41.6136 94.1465C42.3098 93.5534 43.1779 92.9877 43.2292 91.968C43.4284 90.5909 41.8511 89.5395 40.6175 90.053ZM60.5742 102.238C59.6225 102.732 59.3887 103.863 59.3838 104.847C59.2522 104.816 58.9898 104.751 58.8581 104.72C58.7905 103.925 59.0961 103.183 59.3006 102.433C58.8596 102.907 58.6062 103.59 57.8606 103.636C57.6222 103.263 57.4681 102.85 57.3629 102.424C56.9441 102.682 56.2856 102.936 56.4424 103.56C56.6604 104.143 57.2843 104.111 57.7978 104.112C57.757 104.256 57.677 104.547 57.6362 104.69C57.0307 104.693 56.482 104.441 55.9482 104.183C55.9683 104.608 55.7946 105.097 56.0451 105.487C56.5567 106.237 57.545 106.391 58.3835 106.492C59.6308 106.531 60.9921 106.592 62.0954 105.905C62.8473 105.426 63.5233 104.568 63.3326 103.623C63.1783 102.409 61.6368 101.533 60.5742 102.238Z" stroke="black" stroke-width="0.6" mask="url(#path-14-outside-1_2031_23697)"/>
<path d="M73.5678 81.9142C73.4592 81.2884 73.1113 80.7776 72.7193 80.3342C74.5559 79.206 75.9904 77.3747 76.3767 75.2145L76.3767 75.2143C76.639 73.7373 76.4376 71.9503 75.1835 70.8915C74.5059 70.2092 73.4789 70.0523 72.5954 70.2493C70.2264 70.7418 68.4266 72.8369 67.8192 75.0835C67.3777 76.482 67.6253 77.9485 68.07 79.2789C67.7026 79.6025 67.3399 79.9377 67.0064 80.3057L66.8921 80.4319L67.0317 80.5294C67.2439 80.6777 67.4581 80.7165 67.6682 80.6863C67.8709 80.6571 68.0633 80.5645 68.24 80.4648C68.3186 80.4204 68.391 80.3768 68.4615 80.3342C68.5608 80.2742 68.6566 80.2164 68.7611 80.162C68.9315 80.0731 69.0905 80.0137 69.2466 80.0056L69.2467 80.0059L69.257 80.0047C70.066 79.9061 70.7563 80.1881 71.4128 80.6162C71.7417 80.8306 72.0585 81.0792 72.3764 81.3322C72.4026 81.3531 72.4288 81.374 72.4551 81.3949C72.7453 81.6261 73.0376 81.8591 73.3351 82.0635L73.6288 82.2653L73.5678 81.9142ZM72.2713 71.3116L72.2715 71.3115C73.0695 71.0507 74.0186 71.0947 74.6055 71.6869L74.6054 71.687L74.6103 71.6915C75.4727 72.4883 75.6233 73.811 75.4295 74.9664C75.0556 76.9702 73.7307 78.8184 71.8443 79.6318C71.0087 79.2541 70.1116 79.004 69.179 79.0049C68.2355 77.6217 68.4263 75.7539 69.1543 74.2786C69.8118 72.9617 70.8679 71.7682 72.2713 71.3116Z" fill="#0C0505" stroke="black" stroke-width="0.3"/>
<path d="M56.7539 71.5559C56.2163 71.459 55.6766 71.3817 55.1384 71.3153L55.0235 71.3012L54.9807 71.4087L54.7869 71.895L54.7241 72.0527L54.8883 72.0957C54.9785 72.1193 55.0692 72.1427 55.1602 72.1661C55.7436 72.3164 56.3376 72.4694 56.8811 72.7061C57.5056 72.9781 58.0491 73.3552 58.4145 73.951L58.4206 73.961L58.4283 73.97C58.6848 74.2704 58.7829 74.6273 58.8051 75.0165C58.8238 75.343 58.7892 75.6797 58.7543 76.0178C58.7471 76.0881 58.7398 76.1585 58.7331 76.2289L58.7212 76.3518L58.8396 76.387L59.1082 76.467L59.3769 76.547L59.5288 76.5922L59.5656 76.438C59.6835 75.9437 59.8002 75.446 59.9106 74.9478C61.6124 74.8436 63.063 73.9391 64.0865 72.666C65.1318 71.3658 65.7391 69.6725 65.7177 68.0267C65.7474 66.4043 64.6682 64.6075 62.9264 64.3672L62.9264 64.3671L62.9203 64.3665C60.8924 64.1703 59.0506 65.4992 58.045 67.133C57.1012 68.4328 56.8599 70.0324 56.7539 71.5559ZM63.9479 71.1162L63.9478 71.1164C63.0999 72.7024 61.4591 74.1366 59.6081 73.8809C59.5747 73.8389 59.5413 73.7968 59.5079 73.7546C59.0234 73.1435 58.5241 72.5139 57.8714 72.0307C57.4503 69.6504 58.6614 67.1021 60.7021 65.8297C61.2085 65.522 61.8417 65.3177 62.4478 65.3158C63.0513 65.314 63.6183 65.5119 64.0192 65.9976C65.1832 67.4472 64.7937 69.5398 63.9479 71.1162Z" fill="#0C0505" stroke="black" stroke-width="0.3"/>
<path d="M7.07403 16.6876C5.95528 16.5064 5.10593 16.0379 4.52598 15.2821C3.96133 14.5153 3.76642 13.5922 3.94124 12.513L5.07333 5.52406C5.24815 4.4448 5.72342 3.63707 6.49914 3.10087C7.29015 2.55365 8.24504 2.37064 9.36379 2.55186C10.4825 2.73308 11.3308 3.20817 11.9086 3.97712C12.5017 4.73504 12.7098 5.66022 12.5329 6.75264L12.4081 7.52261C12.3975 7.58842 12.3616 7.64338 12.3004 7.6875C12.2545 7.72059 12.1987 7.7318 12.1329 7.72114L10.3165 7.42693C10.2507 7.41627 10.1947 7.38693 10.1484 7.33892C10.1175 7.27988 10.1073 7.21745 10.118 7.15164L10.2491 6.34219C10.3259 5.86837 10.2495 5.46429 10.02 5.12996C9.80366 4.79776 9.47833 4.59648 9.04399 4.52613C8.60965 4.45577 8.23741 4.54405 7.92727 4.79097C7.61713 5.03789 7.42369 5.39826 7.34693 5.87209L6.20845 12.9005C6.1317 13.3743 6.20149 13.7773 6.41782 14.1095C6.63415 14.4417 6.95949 14.643 7.39383 14.7133C7.82817 14.7837 8.20041 14.6954 8.51054 14.4485C8.83385 14.2037 9.03387 13.8444 9.11062 13.3706L9.41763 11.4753C9.42829 11.4095 9.40072 11.3712 9.33491 11.3606L8.1306 11.1655C8.0648 11.1548 8.00877 11.1255 7.96251 11.0775C7.93156 11.0185 7.92141 10.956 7.93207 10.8902L8.16552 9.449C8.17618 9.38319 8.20445 9.33375 8.25033 9.30066C8.31151 9.25654 8.375 9.23981 8.44081 9.25047L11.7971 9.79412C11.8629 9.80478 11.9113 9.83964 11.9422 9.89868C11.9885 9.94669 12.0063 10.0036 11.9956 10.0694L11.404 13.7218C11.2291 14.8011 10.7396 15.6133 9.93548 16.1583C9.1466 16.6924 8.19278 16.8688 7.07403 16.6876ZM12.2902 17.3705C12.2244 17.3598 12.1684 17.3305 12.1221 17.2825C12.0912 17.2234 12.081 17.161 12.0917 17.0952L14.2535 3.74913C14.2642 3.68333 14.2925 3.63388 14.3384 3.60079C14.3995 3.55667 14.463 3.53994 14.5288 3.5506L16.3452 3.84481C16.411 3.85547 16.4593 3.89032 16.4903 3.94937C16.5366 3.99738 16.5543 4.05429 16.5437 4.1201L14.3819 17.4661C14.3712 17.532 14.3353 17.5869 14.2741 17.631C14.2282 17.6641 14.1724 17.6753 14.1066 17.6647L12.2902 17.3705ZM18.344 18.3511C18.1992 18.3276 18.1254 18.2414 18.1225 18.0923L17.4611 4.28897L17.4542 4.20681C17.4734 4.08835 17.5554 4.04085 17.7001 4.0643L19.6942 4.3873C19.8521 4.41288 19.9259 4.49913 19.9156 4.64604L20.016 14.4077C20.0228 14.4493 20.0394 14.4723 20.0657 14.4765C20.092 14.4808 20.1149 14.4642 20.1345 14.4269L23.2719 5.1897C23.3085 5.04705 23.4058 4.98852 23.5637 5.0141L25.4985 5.3275C25.6696 5.35522 25.7216 5.45143 25.6544 5.61614L20.6496 18.5017C20.5998 18.6422 20.5025 18.7007 20.3577 18.6773L18.344 18.3511ZM33.2267 8.36229C33.2161 8.4281 33.1802 8.48306 33.119 8.52718C33.0731 8.56027 33.0173 8.57149 32.9515 8.56083L28.687 7.87006C28.6212 7.8594 28.583 7.88698 28.5723 7.95279L27.9679 11.6841C27.9573 11.75 27.9848 11.7882 28.0506 11.7989L30.5777 12.2082C30.6435 12.2189 30.6919 12.2537 30.7228 12.3127C30.7691 12.3608 30.7869 12.4177 30.7762 12.4835L30.53 14.0037C30.5193 14.0695 30.4834 14.1244 30.4222 14.1686C30.3764 14.2016 30.3205 14.2129 30.2547 14.2022L27.7276 13.7929C27.6618 13.7822 27.6236 13.8098 27.6129 13.8756L27.0053 17.6267C26.9947 17.6925 27.0222 17.7307 27.088 17.7414L31.3525 18.4322C31.4183 18.4428 31.4667 18.4777 31.4976 18.5367C31.5439 18.5847 31.5617 18.6416 31.551 18.7074L31.3079 20.2079C31.2973 20.2737 31.2614 20.3287 31.2002 20.3728C31.1543 20.4059 31.0985 20.4171 31.0327 20.4064L24.6163 19.3671C24.5505 19.3564 24.4945 19.3271 24.4482 19.2791C24.4172 19.22 24.4071 19.1576 24.4178 19.0918L26.5796 5.74575C26.5903 5.67994 26.6185 5.63049 26.6644 5.5974C26.7256 5.55328 26.7891 5.53655 26.8549 5.54721L33.2713 6.58656C33.3371 6.59722 33.3854 6.63207 33.4164 6.69111C33.4627 6.73913 33.4804 6.79604 33.4698 6.86185L33.2267 8.36229ZM41.1363 22.043C40.9783 22.0175 40.9045 21.9312 40.9148 21.7843L40.8755 19.6506C40.8861 19.5848 40.852 19.5455 40.773 19.5327L37.8906 19.0658C37.8116 19.053 37.7668 19.0795 37.7561 19.1453L37.0452 21.1575C37.0086 21.3001 36.9113 21.3587 36.7534 21.3331L34.9568 21.0421C34.7726 21.0122 34.714 20.915 34.7812 20.7502L39.865 7.8775C39.9148 7.73699 40.012 7.67846 40.1568 7.70191L42.2495 8.04089C42.3943 8.06435 42.4681 8.15059 42.471 8.29964L43.2311 22.119L43.2183 22.198C43.1991 22.3164 43.1171 22.3639 42.9723 22.3405L41.1363 22.043ZM38.4345 17.2088C38.4107 17.2725 38.4383 17.3107 38.5172 17.3235L40.7087 17.6785C40.7876 17.6913 40.8259 17.6637 40.8234 17.5958L40.6889 11.1716C40.6821 11.13 40.6655 11.1071 40.6392 11.1028C40.6129 11.0985 40.59 11.1151 40.5704 11.1524L38.4345 17.2088ZM4.29847 32.4466C3.20604 32.2696 2.3775 31.7977 1.81285 31.0309C1.2482 30.2641 1.05222 29.3476 1.22491 28.2815L1.30806 27.7682C1.31872 27.7024 1.34699 27.6529 1.39287 27.6199C1.45405 27.5757 1.51754 27.559 1.58335 27.5697L3.37993 27.8607C3.44574 27.8713 3.49412 27.9062 3.52508 27.9652C3.57133 28.0133 3.58913 28.0702 3.57847 28.136L3.51451 28.5308C3.43136 29.0441 3.48924 29.479 3.68815 29.8354C3.90021 30.1939 4.21025 30.4062 4.61827 30.4723C5.02628 30.5384 5.38536 30.448 5.6955 30.2011C6.00777 29.941 6.20335 29.5674 6.28223 29.0805C6.33767 28.7383 6.31325 28.4304 6.20897 28.1569C6.1047 27.8833 5.93907 27.6134 5.71208 27.347C5.48509 27.0806 5.11614 26.6899 4.60525 26.1749C4.02391 25.5945 3.55908 25.087 3.21076 24.6524C2.87561 24.2199 2.6114 23.7246 2.41815 23.1665C2.2402 22.5974 2.20665 21.9706 2.31751 21.2862C2.49447 20.1938 2.96423 19.3784 3.72678 18.8401C4.48934 18.3018 5.41025 18.12 6.48952 18.2948C7.58194 18.4718 8.40835 18.9568 8.96874 19.75C9.53126 20.53 9.72191 21.4793 9.54069 22.5981L9.46394 23.0719C9.45328 23.1377 9.41736 23.1927 9.35618 23.2368C9.3103 23.2699 9.25446 23.2811 9.18865 23.2704L7.41181 22.9826C7.346 22.972 7.28997 22.9426 7.24372 22.8946C7.21276 22.8356 7.20261 22.7731 7.21327 22.7073L7.29642 22.194C7.37957 21.6807 7.31404 21.2514 7.09984 20.906C6.90094 20.5496 6.59089 20.3373 6.16972 20.2691C5.77486 20.2051 5.42895 20.2977 5.13197 20.5467C4.83713 20.7826 4.64919 21.1506 4.56818 21.6508C4.49143 22.1246 4.55802 22.5474 4.76796 22.919C4.99105 23.2929 5.45055 23.8333 6.14645 24.5403C6.85338 25.2627 7.37994 25.8477 7.72612 26.2955C8.07444 26.7301 8.32423 27.1893 8.4755 27.6731C8.62676 28.1568 8.65229 28.708 8.55209 29.3266C8.37087 30.4453 7.8892 31.2925 7.10709 31.8682C6.3271 32.4307 5.3909 32.6235 4.29847 32.4466ZM16.1309 20.2618C16.1416 20.196 16.1699 20.1465 16.2157 20.1134C16.2769 20.0693 16.3404 20.0526 16.4062 20.0633L18.2225 20.3575C18.2883 20.3681 18.3367 20.403 18.3677 20.462C18.4139 20.51 18.4317 20.5669 18.4211 20.6328L16.2592 33.9788C16.2486 34.0446 16.2127 34.0996 16.1515 34.1437C16.1056 34.1768 16.0498 34.188 15.984 34.1773L14.1676 33.8831C14.1018 33.8725 14.0458 33.8431 13.9995 33.7951C13.9686 33.7361 13.9584 33.6736 13.9691 33.6078L14.8741 28.0207C14.8848 27.9548 14.8572 27.9166 14.7914 27.906L12.2841 27.4998C12.2183 27.4892 12.18 27.5167 12.1694 27.5825L11.2643 33.1697C11.2537 33.2355 11.2178 33.2905 11.1566 33.3346C11.1107 33.3677 11.0549 33.3789 10.9891 33.3682L9.17273 33.074C9.10692 33.0634 9.05089 33.034 9.00464 32.986C8.97368 32.927 8.96353 32.8646 8.97419 32.7987L11.136 19.4527C11.1467 19.3869 11.175 19.3374 11.2208 19.3044C11.282 19.2602 11.3455 19.2435 11.4113 19.2542L13.2276 19.5484C13.2935 19.559 13.3418 19.5939 13.3728 19.6529C13.419 19.7009 13.4368 19.7579 13.4262 19.8237L12.5244 25.3911C12.5137 25.4569 12.5413 25.4951 12.6071 25.5058L15.1144 25.9119C15.1802 25.9226 15.2184 25.895 15.2291 25.8292L16.1309 20.2618ZM19.3163 29.9356C19.2505 29.9249 19.1945 29.8956 19.1482 29.8476C19.1173 29.7885 19.1071 29.7261 19.1178 29.6603L20.288 20.9352C20.2987 20.8694 20.3269 20.8199 20.3728 20.7868C20.434 20.7427 20.4975 20.726 20.5633 20.7366L22.3796 21.0308C22.4454 21.0415 22.4938 21.0764 22.5248 21.1354C22.571 21.1834 22.5888 21.2403 22.5781 21.3061L20.9539 29.9577C20.9432 30.0235 20.9073 30.0785 20.8461 30.1226C20.8002 30.1557 20.7444 30.1669 20.6786 30.1563L19.3163 29.9356ZM19.259 34.6673C18.851 34.6012 18.5367 34.4152 18.3161 34.1094C18.0955 33.8035 18.0182 33.4465 18.0843 33.0385C18.1504 32.6305 18.3353 32.3228 18.6391 32.1154C18.9449 31.8948 19.3019 31.8175 19.7099 31.8836C20.1179 31.9497 20.4256 32.1346 20.6331 32.4384C20.8558 32.7311 20.9341 33.0814 20.868 33.4894C20.8019 33.8975 20.616 34.2118 20.3101 34.4324C20.0042 34.653 19.6538 34.7313 19.259 34.6673ZM23.9273 30.6825C23.8615 30.6718 23.8055 30.6425 23.7592 30.5945C23.7283 30.5355 23.7181 30.473 23.7288 30.4072L24.899 21.6821C24.9096 21.6163 24.9379 21.5668 24.9838 21.5337C25.045 21.4896 25.1085 21.4729 25.1743 21.4835L26.9906 21.7777C27.0564 21.7884 27.1048 21.8233 27.1357 21.8823C27.182 21.9303 27.1998 21.9872 27.1891 22.053L25.5649 30.7046C25.5542 30.7704 25.5183 30.8254 25.4571 30.8695C25.4112 30.9026 25.3554 30.9138 25.2896 30.9032L23.9273 30.6825ZM23.87 35.4142C23.462 35.3481 23.1477 35.1621 22.9271 34.8563C22.7065 34.5504 22.6292 34.1934 22.6953 33.7854C22.7614 33.3774 22.9463 33.0697 23.2501 32.8623C23.5559 32.6417 23.9129 32.5644 24.3209 32.6305C24.7289 32.6966 25.0366 32.8815 25.2441 33.1853C25.4668 33.478 25.5451 33.8283 25.479 34.2364C25.4129 34.6444 25.227 34.9587 24.9211 35.1793C24.6152 35.3999 24.2648 35.4782 23.87 35.4142ZM28.5383 31.4294C28.4725 31.4188 28.4165 31.3894 28.3702 31.3414C28.3393 31.2824 28.3291 31.2199 28.3398 31.1541L29.51 22.429C29.5206 22.3632 29.5489 22.3137 29.5948 22.2806C29.656 22.2365 29.7195 22.2198 29.7853 22.2304L31.6016 22.5247C31.6674 22.5353 31.7158 22.5702 31.7467 22.6292C31.793 22.6772 31.8108 22.7341 31.8001 22.7999L30.1758 31.4515C30.1652 31.5173 30.1293 31.5723 30.0681 31.6164C30.0222 31.6495 29.9664 31.6607 29.9006 31.6501L28.5383 31.4294ZM28.481 36.1611C28.073 36.095 27.7587 35.9091 27.5381 35.6032C27.3175 35.2973 27.2402 34.9404 27.3063 34.5323C27.3724 34.1243 27.5573 33.8166 27.8611 33.6092C28.1669 33.3886 28.5239 33.3113 28.9319 33.3774C29.3399 33.4435 29.6476 33.6284 29.8551 33.9322C30.0778 34.2249 30.1561 34.5752 30.09 34.9833C30.0239 35.3913 29.8379 35.7056 29.5321 35.9262C29.2262 36.1468 28.8758 36.2251 28.481 36.1611ZM40.8126 24.0167C40.8784 24.0273 40.9268 24.0622 40.9578 24.1212C41.004 24.1693 41.0218 24.2262 41.0112 24.292L40.7681 25.7924C40.7575 25.8582 40.7215 25.9132 40.6604 25.9573C40.6145 25.9904 40.5586 26.0016 40.4928 25.991L37.9855 25.5848C37.9197 25.5742 37.8815 25.6017 37.8708 25.6675L36.0064 37.1775C35.9957 37.2433 35.9598 37.2983 35.8986 37.3424C35.8527 37.3755 35.7969 37.3867 35.7311 37.376L33.9148 37.0818C33.849 37.0712 33.7929 37.0418 33.7467 36.9938C33.7157 36.9348 33.7056 36.8724 33.7162 36.8065L35.5807 25.2966C35.5913 25.2308 35.5637 25.1925 35.4979 25.1819L33.1288 24.7981C33.063 24.7874 33.007 24.7581 32.9607 24.7101C32.9298 24.6511 32.9196 24.5886 32.9303 24.5228L33.1733 23.0224C33.184 22.9566 33.2123 22.9071 33.2581 22.874C33.3193 22.8299 33.3828 22.8132 33.4486 22.8238L40.8126 24.0167Z" fill="#FB3E2D"/>
</svg>
