<svg width="146" height="118" viewBox="0 0 146 118" fill="none" xmlns="http://www.w3.org/2000/svg">
<path d="M58.3958 7.1975C57.7597 5.21143 55.7865 5.77041 54.8794 6.29816L43.0935 18.3929C40.2353 22.1183 34.1445 30.0066 32.6464 31.7563C31.1484 33.5061 28.926 37.7469 28.0021 39.6485L27.1031 43.1663L27.1711 45.7723L24.5163 49.9617L21.7446 55.6667L22.2377 58.5745L19.7148 87.7945C19.557 89.0677 19.2316 92.4385 19.1925 95.7356C19.1437 99.8571 23.992 99.7825 24.719 99.6592C25.4459 99.5359 31.2742 103.035 31.6993 103.336C32.1244 103.638 35.587 106.416 36.5605 107.747C37.3393 108.811 38.5032 108.913 38.9879 108.831C39.6942 108.586 41.3855 107.976 42.4993 107.488C43.613 106.999 47.6906 107.23 49.5901 107.407C53.3275 107.396 61.3839 107.276 63.7101 106.882C66.0363 106.487 72.7083 102.613 75.7535 100.726L80.8357 97.6205L83.0101 95.0082L84.6928 89.4879L84.143 88.4595C82.8882 87.6752 80.1963 85.9131 79.4668 85.1394C78.7373 84.3657 76.8913 81.7124 76.0595 80.4824C76.5951 77.0262 75.4856 70.4838 74.8691 66.8491C74.376 63.9413 74.6098 60.9103 74.7883 59.7582L74.5601 42.9702C74.9596 34.3022 67.1843 28.1424 66.6976 27.4771C66.2108 26.8118 64.9829 21.7851 64.6747 19.9678C64.3665 18.1504 62.783 15.4276 61.9327 14.824C61.0825 14.2203 59.1909 9.68008 58.3958 7.1975Z" fill="white"/>
<path d="M53.4983 6.22025C54.9772 4.42786 58.7685 4.80927 59.0642 7.40092C59.8041 10.2954 61.3084 12.9527 63.2146 15.2378C65.2905 18.1926 65.7162 21.8519 66.531 25.2656C67.8523 28.3916 70.727 30.4747 72.506 33.3165C74.6339 36.2076 75.2291 39.87 75.2267 43.3787L74.7284 43.5153L74.2718 43.4421C73.9745 41.2139 74.0068 38.7189 73.263 36.4544C72.8792 36.6033 72.2974 37.2747 71.9723 36.6753C70.7307 34.6505 68.5472 33.12 66.2235 32.7212C64.393 33.1734 62.5284 33.1389 60.6562 33.0192C54.9238 34.2354 50.0605 38.2016 46.7035 42.8859C45.1862 45.3853 44.0155 48.0853 42.6454 50.6653C42.8316 50.9179 43.2042 51.4229 43.3962 51.6818C42.1302 50.7768 41.8162 52.4324 41.4416 53.1938C40.895 54.6671 40.9599 56.2645 40.8578 57.8104C41.3865 57.7845 42.4381 57.7264 42.9607 57.7002C43.6419 56.5373 44.2559 55.2737 45.3723 54.4676C44.435 55.6591 43.579 56.9156 42.7112 58.1655C40.9334 57.869 40.2289 59.461 40.3199 61.0235C40.6636 60.7209 41.3446 60.1215 41.6882 59.819C40.68 60.9763 40.6502 62.5322 40.354 63.9706C40.7755 64.1328 41.6245 64.4577 42.0459 64.6199C42.5738 64.2728 43.1017 63.9257 43.6296 63.5786C43.0544 62.899 42.4855 62.2136 41.9291 61.5228C43.0118 61.6725 44.1016 61.8043 45.1981 61.9244C44.7085 60.5585 44.1325 59.2243 43.6305 57.8638C45.1214 57.975 46.6183 58.0865 48.1108 58.1675C47.137 56.345 46.0884 54.561 45.1146 52.7386C45.6501 52.3616 46.1854 51.9906 46.7038 51.5946C46.3916 51.317 45.7615 50.7556 45.4496 50.472C45.854 50.6152 46.669 50.8957 47.0737 51.0328C46.7438 51.6391 46.6798 52.2599 46.8807 52.9132C48.1696 53.0619 49.4344 53.3183 50.7132 53.5392C50.6515 50.9906 49.1189 48.9681 47.4131 47.2333C47.4205 46.9852 47.4417 46.4833 47.4554 46.2296C47.6593 46.6042 48.0728 47.36 48.2828 47.735C50.1604 47.6429 51.9727 48.1957 53.7885 48.573C53.1325 46.9254 52.6925 45.2046 52.4361 43.4514C54.1514 43.4475 55.4686 44.525 56.593 45.695C56.5097 44.1027 56.3965 42.5027 56.1732 40.921C58.3086 41.5519 59.1662 43.8408 60.4361 45.455C60.8865 43.6311 61.2057 41.7697 61.1324 39.881C61.5335 39.8603 62.3293 39.8247 62.7304 39.804C63.7149 41.0937 64.744 42.3434 65.8114 43.5588C65.8192 41.8503 65.6505 40.1564 65.506 38.4638C68.1253 38.7755 67.8919 42.0718 69.4281 43.6944C69.6183 42.3109 69.742 40.9237 69.8778 39.5373C70.7787 40.2467 70.9269 41.2001 70.3162 42.4033C70.618 42.4257 71.2216 42.4706 71.5291 42.4994C72.6247 44.7587 73.0529 47.2545 73.4834 49.708C74.7157 48.2174 73.6126 46.0971 74.6253 44.5218C74.7862 44.5729 75.1015 44.6809 75.2624 44.7321C74.9136 50.3795 75.7426 55.9878 75.1585 61.6164C74.585 66.6032 77.022 71.2806 76.7647 76.2482C76.5358 78.569 77.2946 80.7797 78.5478 82.7021C79.0714 82.2093 79.5605 81.6844 80.0781 81.1913L78.4882 83.1292C79.6528 82.9984 80.813 82.8371 81.9688 82.6453L81.5134 83.2205C83.9538 84.0377 85.0322 86.5022 86.524 88.383C86.7553 91.2681 85.2365 93.9068 85.2084 96.7717C83.8905 98.0517 83.0671 99.8251 81.4571 100.792C79.8534 101.869 78.4591 103.217 76.8832 104.338C76.6962 104.322 76.3223 104.289 76.1353 104.273C74.0608 105.76 71.7982 106.916 69.5137 108.029C69.1832 108.09 68.5227 108.199 68.1925 108.254C67.0805 108.866 65.8818 109.292 64.594 109.235C64.5984 109.489 64.6128 110.005 64.6172 110.26C63.2815 110.194 61.9428 110.182 60.6076 110.218C59.6342 110.511 58.6081 110.546 57.6013 110.449C58.2897 110.159 59.0325 110.096 59.7746 110.046C61.1611 109.733 62.5821 109.792 63.9866 109.82C65.3551 108.276 67.8137 108.421 69.6417 107.569C70.4235 107.121 71.2181 106.661 72.1249 106.48C74.5016 104.56 77.6073 103.838 79.7692 101.634C81.646 100.439 83.2899 98.9585 84.4427 97.0332L84.8845 97.0451C84.7319 94.0491 86.6389 91.2921 86.2607 88.3202C84.6243 85.977 82.4897 82.316 79.1073 83.4476C80.1921 84.1185 81.376 84.6373 82.4272 85.367C83.3254 86.5732 84.1407 87.8537 85.2736 88.8666C84.4909 91.2301 83.9409 93.6607 83.3855 96.0789C83.0954 96.0632 82.5274 96.0324 82.2434 96.017C82.8787 97.9362 80.6626 99.0159 79.3867 99.9709C78.7608 101.119 77.3811 100.523 76.3511 100.63C76.9193 100.879 77.5 101.123 78.0814 101.355C72.9524 103.961 68.039 107.397 62.1373 107.938C62.0503 107.642 61.8709 107.038 61.7843 106.737C61.8288 107.145 61.9178 107.962 61.9562 108.37L60.5944 108.339C60.7213 107.564 60.8606 106.784 61.0113 106.016C62.5905 106.175 64.0895 105.577 65.5739 105.136C70.4203 103.605 74.8578 101.01 79.014 98.1265C80.7436 96.9659 81.9547 95.1953 83.0373 93.4481C83.2674 92 83.0638 90.3891 84.2695 89.2788C83.8551 89.4321 83.0267 89.7326 82.6124 89.8859L83.3709 88.5271C82.9619 88.6928 82.144 89.0241 81.735 89.1898C81.7895 88.7443 81.9038 87.8657 81.958 87.4262C81.7744 87.4587 81.3949 87.529 81.2049 87.5672C81.2549 85.9761 79.4637 86.4849 78.4192 86.301C77.9049 84.1641 77.474 81.7167 75.2643 80.6696C76.6277 75.9802 75.1938 71.1329 74.3059 66.4972C73.684 63.7727 74.6612 60.9531 73.8621 58.2554C74.0893 57.6435 74.3164 57.0316 74.5435 56.4197C73.8699 55.4317 73.2153 54.4266 72.5732 53.416C73.2909 53.1459 74.0025 52.8754 74.7201 52.6053C74.2586 51.6166 73.7968 50.6341 73.2414 49.701C73.2011 50.22 73.1206 51.258 73.0743 51.7766C72.7481 51.868 72.0958 52.0508 71.7757 52.1425C71.8062 53.1441 71.8303 54.1514 71.8548 55.1527C71.3057 55.4441 70.763 55.7298 70.2205 56.0095C70.9967 56.5606 71.7721 57.1239 72.4956 57.751C71.7559 57.5351 71.0164 57.3132 70.2837 57.0795C69.9304 59.0117 71.1529 60.4961 72.0874 62.0377C72.3768 61.617 72.9675 60.7824 73.263 60.3621C73.2526 60.8888 73.2322 61.9361 73.2158 62.4625C72.8821 62.4686 72.2084 62.4866 71.8688 62.4924C72.0462 62.9081 72.4071 63.7398 72.5903 64.1618C72.4797 64.3012 72.2642 64.5865 72.1533 64.732C72.5006 65.1447 72.5495 65.5837 72.2937 66.0547C72.1805 66.5758 71.9426 67.6113 71.8237 68.126C72.375 68.6893 72.9322 69.2528 73.4895 69.8163C72.1542 68.7379 71.3227 69.9897 70.7398 71.1277C71.2874 71.7574 71.8471 72.3877 72.3692 73.0402C71.4601 72.7061 70.9415 71.878 70.3679 71.1681C71.9956 68.6444 71.1922 65.6919 71.2278 62.9122C70.5709 63.1796 69.9201 63.4473 69.2632 63.7147C69.3907 63.3761 69.6459 62.6931 69.7733 62.3545C70.3449 62.3189 71.4818 62.2533 72.0534 62.2176C71.1725 61.1396 70.0482 60.3029 68.8092 59.6842C68.8357 61.7643 66.8702 63.4758 68.0001 65.5491C67.7169 66.4124 67.0219 67.2717 67.5575 68.234C67.1182 68.5132 66.6724 68.7981 66.2391 69.0776C64.2977 60.9606 66.9291 52.7826 67.1645 44.6443C66.3921 46.1478 65.6646 47.8294 65.9709 49.555C66.3428 51.3024 63.9048 52.564 65.046 54.3167C62.8631 56.5739 65.2865 59.8264 63.6905 62.2124C63.5719 64.7331 63.519 67.9422 66.1698 69.2374C65.9244 70.9695 65.3848 72.6492 65.1934 74.3902C65.9075 76.0834 67.3124 77.4444 67.6901 79.3072C66.5992 80.0904 66.7365 81.3584 67.1495 82.4595C67.3873 82.3209 67.8686 82.0501 68.1064 81.9115C68.1954 82.1708 68.38 82.6778 68.4689 82.9372C68.1266 82.9913 67.4299 83.099 67.0876 83.1531C67.2603 85.1078 67.7477 87.1826 69.1916 88.6063C69.9173 88.5245 70.3931 87.9079 70.9827 87.5399C71.5126 87.7141 72.0543 87.895 72.5909 88.0574C73.1017 89.2548 74.454 89.9099 75.0551 88.3244L75.1494 89.378C75.5245 88.9438 75.8938 88.5033 76.2578 88.0503C76.6109 88.021 77.3234 87.9566 77.6829 87.9216C77.1145 88.121 76.5455 88.3326 75.9768 88.5381C77.0908 88.7803 77.6278 89.4943 77.4496 90.5451C76.3985 89.9245 75.2646 89.3782 74.007 89.5463C72.6674 89.7766 71.8077 88.5301 70.7671 87.9403C70.8313 88.5438 70.9537 89.7504 71.0176 90.3599C70.3247 90.2859 69.6254 90.2177 68.9322 90.1497C68.5812 89.4701 68.2302 88.7905 67.8728 88.1166C67.3974 90.0665 65.6526 91.396 63.6516 91.3056C61.4916 91.1279 59.3184 90.7494 57.2652 90.0562C57.0424 90.1411 56.5972 90.3048 56.3747 90.3837C53.807 89.6808 50.9244 89.082 48.975 87.1461C46.7529 87.1104 45.2053 85.475 43.5321 84.257C43.5558 84.7128 43.5973 85.6241 43.6214 86.0739C41.9654 83.4205 40.1538 80.8436 38.7102 78.0746C39.122 74.7274 39.7336 71.385 39.6389 67.9922C39.2221 67.2969 38.4942 67.9786 37.9752 68.1625L38.2939 66.9799C38.7619 67.0659 39.692 67.2375 40.16 67.3235C39.2309 66.3519 38.6329 65.1984 39.0575 63.8518C39.6924 62.2015 37.6347 61.1444 37.8911 59.5463C37.7251 58.1374 39.1268 57.5468 39.9716 56.7199C40.0187 53.953 40.8312 51.2639 41.5981 48.6329C43.1817 46.2523 43.8082 43.3046 45.8776 41.2412C47.2974 39.6456 48.3714 37.7222 50.091 36.4095C52.4776 34.8663 55.354 34.3496 57.8439 33.0242C57.883 32.8627 57.9732 32.5403 58.0123 32.3788C58.1377 32.525 58.3885 32.8174 58.5139 32.9636C61.3334 31.5954 64.4728 32.0384 67.4754 32.3225C69.7532 32.5612 70.6709 35.8653 72.9402 35.7036C70.8245 32.1405 67.41 29.507 65.6133 25.7612C64.7014 22.015 64.2395 17.9053 61.6418 14.8494C60.2061 13.2747 59.5227 11.2377 58.4385 9.43959C58.9607 11.4314 58.9784 13.6747 57.1941 15.0627C56.4778 13.5209 55.9343 11.9218 55.5511 10.2708C55.4991 10.7831 55.3884 11.8194 55.33 12.3375C54.5615 11.7564 53.6872 11.3393 52.7314 11.1965C54.1042 12.1437 55.455 13.2715 55.5991 15.0852C55.1864 14.7598 54.3666 14.1215 53.9596 13.8024C54.892 15.4953 52.6419 16.1975 51.7154 17.1896C51.5004 17.0203 51.0699 16.6879 50.8546 16.5247C48.2658 17.7721 46.925 20.481 44.9233 22.4148C43.8282 23.3856 44.9573 24.8043 45.2379 25.8862C43.768 25.055 43.5408 26.8971 43.2318 27.7894C43.0309 29.7056 42.3172 31.4668 41.3197 33.0974C41.1794 34.6776 41.2756 36.3676 40.3224 37.7401C38.0533 41.3622 35.833 45.3143 35.8008 49.7062C35.4521 51.7781 35.7829 54.505 33.8028 55.8156C34.6468 58.2431 33.4771 60.5916 33.0105 62.9359C33.115 65.5899 33.1085 68.2803 32.4409 70.8682C32.1006 72.2254 30.932 73.4347 31.3428 74.9114C31.8331 76.3743 32.4825 77.8095 32.5731 79.3779C30.7756 79.335 29.4768 81.3795 27.7212 80.5631C27.9709 80.7645 28.4759 81.1737 28.7256 81.3751C28.2825 83.1752 27.2302 84.6999 25.7298 85.7699C26.4921 86.5749 27.4792 87.4829 26.8077 88.6889C26.0843 88.3951 25.3804 88.0781 24.6901 87.7316C24.6751 88.5671 24.2574 89.2293 23.6461 89.7718C23.7156 90.2786 23.8613 91.2804 23.9307 91.7872C22.702 91.4236 21.564 90.8406 20.4257 90.2638C19.3111 92.9365 19.3868 95.898 20.5956 98.5271C23.9432 99.2662 27.2922 98.7509 30.5832 98.075C30.0847 98.5509 29.5858 99.0329 29.087 99.5149C28.6153 99.4954 27.6721 99.4563 27.2061 99.4432C27.1801 100.369 27.5985 101.258 28.5836 101.421C30.0874 101.963 31.71 102.439 33.2897 101.919C34.6741 103.769 35.6292 105.936 37.374 107.509L38.0349 106.945C38.0424 107.812 38.0439 108.679 38.045 109.552C37.2899 109.172 36.5546 108.762 35.8324 108.335C35.9463 106.681 34.4073 105.894 33.2254 105.115C31.5665 104.079 29.6826 103.505 27.8517 102.848C27.1841 101.078 24.6004 101.562 23.2531 100.368C22.4002 100.34 21.5532 100.312 20.7012 100.266C20.2374 98.9864 18.8102 98.2605 18.9119 96.7207C18.1054 94.4952 18.7677 92.2283 19.269 90.0253C18.8177 87.0616 17.252 84.4192 15.7915 81.8492C14.4175 79.696 13.0068 77.4378 10.8623 75.97C9.83879 75.1751 8.46822 75.4159 7.29654 75.0069C6.98676 74.0144 7.86975 73.3775 8.46579 72.7796C10.5284 70.9522 12.2812 68.805 13.8871 66.571C17.8905 60.8067 21.3671 54.6987 24.7312 48.5421C26.252 46.649 26.8767 44.2951 26.9222 41.8917C28.5438 43.9492 27.6008 46.9221 25.9076 48.6423C24.445 51.1386 22.8853 53.6356 21.9366 56.378C23.7001 53.4738 25.093 50.2526 27.678 47.9566C28.5502 46.2888 27.9039 44.1266 28.9374 42.504C29.1241 43.0838 29.5036 44.2437 29.6903 44.8235C30.0157 43.4048 30.1844 41.7474 31.3838 40.7519C33.1343 40.2106 34.4931 38.9571 35.8988 37.8455C36.9018 37.1182 36.622 35.6849 36.8737 34.6198C37.1445 32.98 35.767 31.7842 35.1758 30.3946C35.2048 29.5235 35.9211 28.9442 36.3985 28.2974C41.4537 22.5841 46.3007 16.6837 51.5642 11.1514C53.1036 9.58653 54.3 7.63942 56.2962 6.5902C56.2301 7.36233 56.1824 8.12939 56.1405 8.90283C56.7304 8.75302 57.3206 8.59717 57.9112 8.43528L56.9523 8.01359C57.2643 7.62448 57.5881 7.24206 57.9115 6.86569C56.8127 6.00613 55.0862 5.88217 54.167 7.07466C49.2962 13.0768 43.6041 18.3555 38.6581 24.2929C37.161 26.0844 35.5984 27.854 34.5156 29.9406C33.7179 31.6851 32.0175 32.7565 31.0969 34.4216C29.6472 37.0155 28.3585 39.7697 28.0566 42.7653C27.7451 42.2514 27.4339 41.7315 27.1224 41.2177C28.1287 37.3028 29.9283 33.5098 32.7598 30.5787C38.3946 21.4425 46.8175 14.5301 53.4983 6.22025Z" fill="black"/>
<path d="M54.9411 16.5054C56.9431 16.8018 53.8567 18.1737 54.9411 16.5054V16.5054Z" fill="black"/>
<path d="M48.4106 19.9565C48.9314 19.5181 49.0376 18.3421 49.8951 18.5099C49.495 20.3002 47.134 21.7054 48.4297 23.7392C48.1986 23.866 47.7306 24.1133 47.4935 24.2399C47.6799 24.6015 48.0471 25.3183 48.2275 25.6796C48.8328 25.8033 50.0379 26.0445 50.6432 26.1682L50.6475 25.0836C51.1062 25.454 51.2701 26.0083 51.4591 26.5458C50.3642 26.6197 49.2819 26.7973 48.2236 27.0914C47.3304 26.3521 46.4506 25.5893 45.5511 24.8557L46.509 24.5137C46.1815 23.8475 45.854 23.1813 45.539 22.5097C46.4996 21.6709 47.5872 20.9482 48.4106 19.9565Z" fill="black"/>
<path d="M33.809 31.6967C34.6268 32.5956 35.5379 33.451 36.1154 34.5368C35.9957 35.9606 34.9825 37.0995 34.2526 38.2659C33.6719 38.0223 33.0986 37.7548 32.5383 37.4699C32.2196 36.083 32.5081 34.6745 32.5294 33.2757C32.8478 32.8809 33.4906 32.0916 33.809 31.6967Z" fill="black"/>
<path d="M53.4927 40.4664C55.0141 39.0097 56.729 37.6725 58.7478 36.9881C57.0338 38.1981 55.5994 39.9504 53.4927 40.4664Z" fill="black"/>
<path d="M44.0508 52.7294C44.3435 53.152 44.3435 53.152 44.0508 52.7294V52.7294Z" fill="black"/>
<path d="M68.288 79.0486C70.8986 78.8508 72.6324 80.963 74.3273 82.5639C74.5441 82.5878 74.9836 82.6419 75.2065 82.6661C75.4886 83.2754 75.7704 83.8906 76.0582 84.5062C73.5863 82.4813 71.3082 80.2366 68.288 79.0486Z" fill="black"/>
<path d="M74.6868 98.407C75.0438 97.7477 75.5647 98.5335 75.971 98.6403C73.2001 99.6718 71.2195 102.11 68.362 102.949C65.2378 103.9 61.9414 104.788 58.6502 104.349C56.204 103.974 53.888 102.988 51.721 101.822C51.3879 100.925 52.5293 100.999 53.096 100.83C54.6245 100.694 56.1491 100.965 57.6808 100.993C57.0089 101.315 56.349 101.636 55.6828 101.964C58.35 103.739 61.7299 103.995 64.8395 103.757C68.5601 102.984 72.0016 101.098 74.6868 98.407Z" fill="black"/>
<path d="M41.8305 102.383C44.9422 103.448 47.3197 106.208 50.7244 106.453C53.835 107.203 57.175 105.96 60.2003 106.943C60.3053 107.13 60.5155 107.499 60.6205 107.687L59.3959 108.923C59.3622 108.539 59.2887 107.772 59.255 107.388L58.5973 107.334C58.6712 107.647 58.8194 108.268 58.8873 108.58C57.9321 108.426 56.9759 108.289 56.0124 108.176C55.4829 108.329 54.4239 108.635 53.8884 108.788L53.892 107.94C52.8112 107.978 51.5575 107.516 50.6156 108.235C48.2212 108.468 45.8031 108.471 43.434 108.015L43.6855 108.628C43.2976 108.741 42.5215 108.971 42.1333 109.09C42.0813 108.596 42.0229 108.108 41.9646 107.62L41.9962 108.937C41.5347 108.73 40.6054 108.322 40.1439 108.115C40.7182 108.589 41.3243 109.034 41.9116 109.49C41.0547 109.534 39.3285 109.628 38.4713 109.679C38.3333 108.871 38.5294 107.937 39.5132 107.899C40.649 107.518 41.6544 106.858 42.7632 106.415C44.2701 106.454 45.7775 106.597 47.294 106.57C46.3176 104.347 43.6399 103.772 41.8305 102.383Z" fill="black"/>
<path d="M85.9986 30.0955C93.5703 24.5863 101.106 19.0246 108.675 13.5106C104.635 18.6235 100.57 23.7153 96.524 28.821C98.9322 29.6416 101.349 30.4398 103.762 31.2504C96.8187 37.0084 89.873 42.7666 82.907 48.4985C86.9306 43.3887 90.9944 38.3166 95.0232 33.2164C92.01 32.1926 89.0118 31.1192 85.9986 30.0955Z" fill="#A79CEE"/>
<path d="M82.1125 61.2782C85.8139 59.5373 89.5054 57.7697 93.2061 56.0264C91.0205 57.9204 88.8264 59.8026 86.6393 61.693C87.5674 62.2818 88.5012 62.8614 89.4321 63.4462C85.9695 65.3562 82.506 67.266 79.0364 69.1623C81.2147 67.2681 83.4062 65.3944 85.5857 63.505C84.4243 62.7696 83.274 62.0136 82.1125 61.2782Z" fill="#A79CEE"/>
<path d="M110.529 46.3492C119.88 44.732 129.22 43.0513 138.57 41.4285C132.629 44.2537 126.673 47.0486 120.73 49.865C122.577 51.6736 124.442 53.4658 126.297 55.2674C117.413 57.3881 108.527 59.5077 99.6343 61.5947C105.559 58.7649 111.504 55.987 117.43 53.1682C115.118 50.9079 112.841 48.6095 110.529 46.3492Z" fill="#A79CEE"/>
<path d="M116.978 85.0957C126.342 86.6346 135.717 88.1105 145.082 89.6441C138.543 90.3642 132 91.0514 125.462 91.7627C126.613 94.077 127.787 96.3817 128.949 98.6921C119.861 97.7818 110.771 96.8698 101.686 95.9246C108.211 95.1946 114.738 94.5202 121.26 93.8007C119.818 90.9072 118.421 87.9893 116.978 85.0957Z" fill="#A79CEE"/>
<path d="M91.8702 71.3198C98.0953 72.3429 104.328 73.3241 110.554 74.3437C106.207 74.8224 101.857 75.2793 97.5103 75.7522C98.2758 77.2908 99.0561 78.823 99.8285 80.359C93.7867 79.7538 87.7437 79.1475 81.7033 78.5191C86.0415 78.0338 90.381 77.5854 94.7171 77.1071C93.7579 75.1834 92.8294 73.2435 91.8702 71.3198Z" fill="#A79CEE"/>
</svg>
