<svg width="118" height="118" viewBox="0 0 118 118" fill="none" xmlns="http://www.w3.org/2000/svg">
<path d="M75.6956 96.7675L74.5326 104.544C71.5551 100.317 59.2241 98.6728 53.2315 98.9941L52.301 85.1035C57.166 80.1588 58.0277 68.8425 57.8505 63.8025C60.1323 59.56 64.9353 50.3372 65.8923 47.3863C67.0886 43.6977 69.1157 41.6373 70.744 40.8066C72.0466 40.1419 74.1557 41.4601 74.4326 42.0029C75.0973 39.9536 77.0778 35.5228 79.6831 34.1936C81.7628 33.1325 83.9102 33.9983 83.661 35.4389C84.8366 33.9908 87.1857 32.5502 89.4862 33.2963C92.4372 34.2533 90.6161 38.1923 89.9515 40.2416L91.1811 40.6403C94.132 41.5974 94.0722 44.2957 93.6734 45.5253L86.4956 67.6571C85.5385 70.6081 84.5239 76.5298 84.1362 79.1218C86.4292 76.2418 92.0784 70.5549 96.332 70.8473C100.586 71.1397 101.804 73.5279 101.682 75.3002C99.6551 77.3605 90.9486 82.4183 88.6889 86.0339C86.4292 89.6494 79.0852 94.6961 75.6956 96.7675Z" fill="#A79CEE"/>
<path d="M47.8507 90.4545C45.91 93.0864 43.0101 98.3968 41.8027 100.723L19.2715 94.7745L24.9208 85.7357C30.57 76.6968 27.1687 65.7948 26.7827 63.2386C26.3512 60.3809 16.846 47.7861 23.3925 48.5504C27.1166 48.8064 30.8731 53.0729 31.6822 57.5817C33.237 46.9613 35.5189 32.1099 36.3193 29.6419C37.2763 26.691 39.155 26.4849 39.9747 26.7508C40.2405 25.9311 41.3438 24.2053 43.6301 23.8597C45.9164 23.514 47.3298 26.4184 47.7507 27.9138L48.9803 28.3126C51.9312 29.2696 52.4474 35.7785 52.3367 38.9133C53.6393 38.2486 55.6265 41.3391 56.4573 42.9674C56.9226 49.9127 57.7002 65.1126 57.0888 70.3498C56.3245 76.8963 50.2765 87.1647 47.8507 90.4545Z" fill="#A79CEE"/>
<path d="M17.5 94.5C21.5 97.5 41.0999 99.3999 41.5 101" stroke="black" stroke-width="2"/>
<path d="M51 99.9991C59.5 98.999 73.5 99.999 75 106.499" stroke="black" stroke-width="2"/>
<path d="M83.8785 17.8914C83.7952 19.1995 83.535 20.5177 83.1649 21.7682C79.7616 25.0204 76.3957 28.3361 72.8822 31.4721C73.678 30.1989 74.3211 28.831 75.2093 27.62C78.0928 24.373 80.9988 21.1461 83.8785 17.8914Z" fill="#A79CEE"/>
<path d="M57.072 10.701C57.7091 15.8587 58.1606 21.0431 58.6875 26.2133C58.6729 27.9941 58.3786 29.7645 58.1937 31.535C57.2004 26.3744 56.2796 21.1987 55.2893 16.039C55.2096 15.5307 55.032 14.9873 55.2922 14.5023C55.8441 13.2174 56.4667 11.9621 57.072 10.701Z" fill="#A79CEE"/>
<path d="M75.1305 17.7396C75.1759 18.9189 75.1449 20.1056 75.0461 21.2832C74.3564 22.5169 73.34 23.548 72.5015 24.6852C72.271 24.9978 72.2789 24.9299 72.0664 25.2035C71.0118 26.6695 69.9409 28.1366 68.7461 29.4896C69.3355 28.069 69.7335 26.5541 70.5492 25.2391C72.0715 22.7377 73.616 20.2468 75.1305 17.7396Z" fill="#A79CEE"/>
<path d="M65.5133 16.7288C65.5049 19.2643 65.1528 21.7881 65.005 24.3171C64.8527 25.8183 64.8719 27.3462 64.5104 28.8182L64.5068 28.8041C64.5159 28.7956 64.5373 28.7054 64.5244 28.8839C64.1685 30.1003 63.8029 31.3168 63.5469 32.5624C63.3326 28.4619 63.2789 24.3524 63.14 20.2474C63.9502 19.0882 64.7293 17.9061 65.5133 16.7288Z" fill="#A79CEE"/>
<path d="M84.2342 33.4825C85.8152 31.7819 88.7024 31.5987 90.4747 33.0678C90.6776 33.5133 90.8642 33.9695 91.0556 34.4209C91.2519 34.3912 91.6452 34.329 91.8453 34.2973C92.7508 35.9293 92.3771 37.8156 91.7014 39.4527C94.1704 40.321 95.9033 43.1414 95.1191 45.7181C94.3421 47.985 93.6282 50.2757 92.8084 52.5256C92.794 52.4212 92.772 52.2113 92.7576 52.1069C92.8877 51.5668 93.0469 51.0362 93.2217 50.5074C93.2662 50.3899 93.3591 50.153 93.4036 50.0356C92.8668 50.1928 92.333 50.351 91.8001 50.516C92.3433 48.5239 93.1881 46.6231 93.6944 44.6255C94.0821 42.7952 92.4134 41.0862 90.6562 40.9892C89.5094 41.2221 88.8226 42.5065 88.1413 43.3472C87.926 43.6393 87.1255 42.9727 87.0792 42.1583C87.7892 41.1596 88.7412 40.0593 89.879 39.5469C90.454 38.1409 91.1541 36.5278 90.3728 35.0583C90.1039 34.2409 89.8085 33.3858 89.1101 32.8312C89.233 33.3054 89.4296 33.6233 89.5245 34.1044C88.9004 33.4994 88.5901 33.6914 88.1181 33.6483C86.3652 33.4884 85.0151 34.7845 84.1933 36.1876C83.9757 36.0849 83.5385 35.8755 83.3218 35.7699L83.3593 35.3864C83.3738 35.2624 83.4076 35.0192 83.4241 34.8991C82.0279 34.2146 80.3614 34.324 79.0647 35.1677C76.639 36.5268 75.7324 39.4113 74.4464 41.6804C74.1997 41.2208 73.9832 40.9511 73.7472 40.4885C74.8524 38.0031 76.0223 34.9564 78.4742 33.4771C80.2081 32.3762 82.4783 32.4787 84.2342 33.4825Z" fill="black"/>
<path d="M45.9402 23.9224C46.0945 23.9821 46.4003 24.1006 46.5547 24.1603C47.6009 24.8921 48.2685 26.0576 48.422 27.3202C49.991 27.6007 51.4872 28.5621 52.0986 30.0793C53.1612 32.5762 52.8587 35.3638 52.8124 38.0061C54.1535 38.2255 55.4531 38.9204 56.1067 40.1586C57.5156 42.7581 57.3652 45.8106 57.5308 48.6728C57.5218 49.2361 57.4892 49.3269 57.4951 50.0526C57.4993 50.5712 57.5865 50.7574 57.5818 51.2534C57.5525 54.3194 57.8599 57.3691 58.1257 60.4183C60.6221 55.9744 62.7987 51.3561 64.8938 46.7113C65.0646 46.2938 65.086 46.3619 65.4905 45.5858C66.2982 43.7599 67.4519 41.998 69.0972 40.8233C70.1951 40.0469 71.6054 39.7258 72.9247 40.0025C73.843 39.9979 74.0297 41.0493 74.4932 41.6436C74.3284 42.0823 74.1284 42.6593 73.8422 43.1697C73.5657 43.08 72.918 42.8699 72.6415 42.7802C72.8297 42.2397 72.9927 42.1687 73.1401 41.6149C72.9955 41.6887 73.1401 41.6149 72.8604 41.6095C71.8674 41.3679 70.7665 41.4097 69.9141 42.0341C68.7717 42.7992 68.0801 44.029 67.4024 45.1861C67.2852 45.3861 67.399 45.1818 67.1099 45.6317C64.6281 51.7564 61.5013 57.5882 58.4872 63.4598C58.2081 64.965 58.5093 66.5361 58.2691 68.0603C57.6384 68.2096 57.067 68.5133 56.4856 68.7783C57.0393 64.988 56.5676 61.1354 56.1846 57.347C55.7938 53.0863 56.0472 48.7933 55.6371 44.5328C55.4672 43.1619 55.2722 41.6703 54.3026 40.6127C53.4483 39.6761 51.5674 39.4939 50.8767 40.7112C50.4298 41.5732 50.4738 42.5783 50.4486 43.5192C50.4575 47.8362 50.2401 52.157 49.6575 56.4333C49.4975 57.2339 49.0707 57.9448 48.7137 58.6687C49.4021 54.0663 49.1696 49.397 49.4135 44.7663C49.5301 43.276 49.2175 41.7205 49.7517 40.2916C50.0238 40.4225 50.4502 40.6275 49.7517 40.2916C50.1099 39.3333 50.6981 38.7423 51.1686 38.4124C51.2312 36.2354 51.49 34.0191 50.979 31.8749C50.7166 30.7796 50.1169 29.6329 49.0112 29.2035C48.1539 28.8611 46.9602 28.6831 46.2961 29.4907C45.5838 30.4372 45.5253 31.6889 45.4648 32.8275C45.3538 36.3045 45.0006 39.7641 44.8334 43.2358C44.6221 47.5972 44.1388 51.954 43.1961 56.2197C43.0472 56.9564 42.6772 57.6213 42.3497 58.2937C42.389 57.6469 42.4602 57.0009 42.5673 56.3632C43.3391 51.7911 43.5801 47.1498 43.704 42.5221C43.916 38.962 44.2365 35.4049 44.3381 31.8379C44.3675 30.1006 44.8807 27.9926 46.7888 27.4854C46.5229 26.6786 46.0641 25.9604 45.4056 25.4219C45.5834 24.923 45.7594 24.4203 45.9402 23.9224Z" fill="black"/>
<path d="M81.8165 38.1448C82.1169 38.4288 82.4192 38.7166 82.7254 39.0025C80.497 43.3242 78.8582 47.911 76.9533 52.3762C75.8417 54.9207 74.5737 57.392 73.3349 59.8727C73.0063 60.5189 72.3512 60.892 71.8052 61.3358C75.4925 53.7555 78.0932 45.707 81.8165 38.1448Z" fill="black"/>
<path d="M33.4758 44.2516C33.8671 44.771 34.2536 45.2953 34.643 45.8205C33.8946 50.1717 33.2546 54.5453 32.3812 58.8753C32.2315 59.3962 32.0635 59.9143 31.8954 60.4324C31.6449 60.2129 31.3992 59.9884 31.1574 59.762C31.1568 58.9704 31.3976 58.1188 30.9456 57.3995C29.4931 54.4385 27.9115 51.3777 25.1211 49.3499C24.87 49.1673 24.6997 49.0942 24.3989 49.0176C23.6512 48.8272 23.1924 48.9727 22.4693 49.4421C21.9368 49.7877 21.6001 50.0237 21.365 50.6134C20.927 51.7117 21.9008 52.5938 22.3678 53.5045C24.2731 57.6483 26.6791 61.7068 27.241 66.3125L27.1115 66.5633C26.6711 65.9669 26.1902 65.3766 25.4557 65.1416L25.3449 65.0864C24.7468 61.9809 23.0977 59.2392 22.0392 56.2933C21.3807 54.5644 20.5077 52.8916 20.2371 51.0376C20.3668 51.0346 20.6203 51.0268 20.7461 51.0258C20.593 51.0018 20.3902 51.0616 20.2371 51.0376C20.3351 50.1107 20.3137 48.907 21.181 48.3455C22.8275 47.3159 25.0678 47.4313 26.6694 48.504C28.8992 49.9511 30.2301 52.3644 31.4468 54.6539C31.9953 51.5342 32.5293 48.4099 33.0468 45.2867C33.154 45.0255 33.3695 44.5099 33.4758 44.2516Z" fill="black"/>
<path d="M94.7603 69.9076C97.3457 69.2663 100.159 70.4328 101.795 72.4788C102.587 73.4691 103.051 74.8676 102.55 76.0949C101.899 77.4763 100.467 78.1925 99.1999 78.9044C96.0268 80.465 93.5522 83.0661 91.1768 85.619C86.8262 90.2947 82.1707 94.7299 76.8666 98.3179C76.5045 101.151 76.0824 103.98 75.7261 106.814C75.0186 106.099 74.3266 105.366 73.6374 104.634C74.1056 102.119 74.446 99.5821 74.9695 97.085C75.8596 96.3442 76.8503 95.7197 77.8481 95.1328C78.4066 94.6609 78.9619 94.1686 79.63 93.8545C80.6735 93.4144 81.6855 92.9029 82.6719 92.3414C82.4551 92.3354 82.0234 92.3273 81.8095 92.3222C81.9128 92.1821 82.1216 91.9055 82.2269 91.7692C85.1769 89.3094 87.9831 86.6679 90.5817 83.8335C92.8791 81.3326 95.3784 78.9132 98.4462 77.3796C99.4301 76.8654 100.556 76.3811 101.1 75.348C101.224 74.3686 100.581 73.5067 99.9106 72.8744C98.7622 71.8425 97.1737 71.1954 95.6195 71.4345C93.7541 71.7207 91.9829 72.5199 90.5069 73.6883C88.5077 75.2598 86.8955 77.2848 84.7781 78.7149C83.4162 79.6308 81.7081 79.6205 80.1311 79.6721C78.3759 79.7076 76.6383 79.9966 74.9063 80.2681C75.2428 80.0041 75.5605 79.6793 75.9992 79.5963C78.535 78.9196 81.2624 79.0803 83.6902 77.9728C83.986 76.2672 84.3118 74.5681 84.7337 72.8905L84.8587 72.4404C84.98 72.3789 85.2809 71.942 85.3278 72.11C85.9479 71.8446 86.1749 71.8539 86.8117 71.6261C86.6183 72.7183 85.8437 74.1995 86.0222 75.3351C88.3921 72.8191 91.2787 70.5447 94.7603 69.9076Z" fill="black"/>
<path d="M56.4879 68.7893C57.0278 68.2405 57.5707 68.0547 58.2964 68.0488C57.8453 73.9731 56.2445 80.0843 53.1593 85.1929C53.5481 88.1404 53.9959 91.0845 54.1943 94.0538C54.322 95.7134 53.9637 97.3538 53.5635 98.9548C52.6413 99.5564 51.723 100.166 50.7459 100.679C51.2719 98.6008 51.7577 96.4582 51.4886 94.3023C51.2722 92.4499 51.1728 90.5742 50.7814 88.7455C50.0955 89.6007 49.5004 90.553 48.6213 91.2298C48.1269 91.2368 47.6313 91.4653 47.3785 91.9077C46.9774 91.8548 46.1837 92.5464 46.0415 91.9631C46.868 90.7738 47.9291 89.7635 48.8023 88.6087C53.2698 83.0766 55.9272 75.8748 56.4879 68.7893Z" fill="black"/>
<path d="M25.7284 65.5408C26.046 66.0395 26.3366 66.5519 26.6147 67.0732C26.8886 67.0816 27.1645 67.0939 27.4404 67.1062C28.1972 72.9364 27.7176 78.9287 25.9099 84.5321C25.4618 84.6441 24.9715 84.8068 24.7741 85.2768C24.2905 85.4385 23.808 85.5973 23.3215 85.7483C26.0128 79.5726 26.829 72.6021 25.5597 65.9815L25.7284 65.5408Z" fill="black"/>
<path d="M47.4318 91.5963C47.7388 91.2648 48.2157 91.1235 48.651 91.2196C48.6079 91.64 48.2707 91.9359 48.0294 92.2534C45.8577 94.8626 44.4004 97.9674 43.0493 101.052C42.2013 101.247 41.3591 101.453 40.5169 101.659C41.9589 98.3337 43.8138 94.7965 46.0774 91.9533C46.1807 91.9224 46.2471 92.1643 46.3523 92.1373C46.7384 92.0084 47.0851 91.8023 47.4318 91.5963Z" fill="black"/>
<path d="M23.3813 85.6785C24.1963 85.457 25.1869 84.5751 25.948 84.46C25.1343 87.0882 23.3763 90.3512 21.9505 92.6941C21.6791 92.2812 21.2675 92.1268 21.2159 91.6114L20.856 91.9772C20.7071 91.8807 20.7393 90.6606 20.5905 90.5641C21.3806 88.9512 22.6321 87.3142 23.3813 85.6785Z" fill="black"/>
<path d="M20.6414 90.5072C21.2261 91.1247 21.6124 91.8676 21.9179 92.6519C21.2941 93.5434 20.6013 94.3804 19.9133 95.2221C19.1668 94.9349 18.4354 94.6109 17.7145 94.2645C18.7889 93.0945 19.7745 91.841 20.6414 90.5072Z" fill="black"/>
<path d="M90.4756 33.0664C91.0276 33.358 91.4879 33.784 91.8462 34.2959C91.6462 34.3275 91.2528 34.3898 91.0566 34.4194C90.8652 33.9681 90.6786 33.5119 90.4756 33.0664Z" fill="black"/>
<path d="M89.0449 32.6289C89.7433 33.1835 90.0386 34.0386 90.3075 34.856C90.0126 34.6446 89.7195 34.4273 89.4323 34.2119L89.402 34.0573C89.3071 33.5761 89.1678 33.1031 89.0449 32.6289Z" fill="black"/>
<path d="M82.5315 36.7852C82.7374 36.2793 82.984 35.7867 83.3582 35.3869L83.3206 35.7704C83.5373 35.876 83.9745 36.0854 84.1921 36.1881C83.9449 36.7321 83.6637 37.2618 83.3349 37.7599C83.0642 37.4341 82.7993 37.1101 82.5315 36.7852ZM83.4197 36.5264C82.6746 37.2466 84.3614 36.8961 83.4197 36.5264V36.5264Z" fill="black"/>
<path d="M41.6056 23.5086C43.2009 22.736 45.1551 23.1381 46.5531 24.1642C46.3988 24.1045 46.093 23.986 45.9386 23.9263C45.7578 24.4242 45.5819 24.9269 45.4041 25.4258L45.1947 25.2678C44.9747 25.1032 44.7517 24.9375 44.5355 24.7709C44.6201 24.3415 44.7066 23.916 44.7941 23.4875C44.5965 23.462 44.1945 23.4121 43.9939 23.3857C43.7369 23.9103 43.4702 24.4351 43.1743 24.9407L43.1352 25.0117C42.7731 25.1065 42.4169 25.213 42.0665 25.331C42.2162 24.6911 42.3726 24.0501 42.528 23.4121C42.2195 23.4407 41.913 23.4732 41.6056 23.5086Z" fill="black"/>
<path d="M43.9958 23.3836C44.1964 23.41 44.5984 23.46 44.796 23.4855C44.7085 23.9139 44.622 24.3395 44.5374 24.7689C44.7536 24.9355 44.9766 25.1011 45.1966 25.2658C44.5722 24.8799 43.8593 25.0347 43.1762 24.9386C43.4721 24.433 43.7388 23.9083 43.9958 23.3836Z" fill="black"/>
<path d="M92.2667 51.0759C92.5874 50.8904 92.9082 50.7049 93.223 50.5078C93.0483 51.0367 92.8891 51.5673 92.7589 52.1074C92.5984 51.7594 92.4321 51.4191 92.2667 51.0759Z" fill="black"/>
<path d="M83.4206 36.5251C84.3623 36.8948 82.6755 37.2453 83.4206 36.5251V36.5251Z" fill="black"/>
<path d="M41.6083 23.5067C41.9157 23.4713 42.2222 23.4388 42.5307 23.4102C42.3753 24.0482 42.2189 24.6892 42.0692 25.3291L41.7872 25.5143C40.7206 26.333 39.1226 26.6479 38.0156 25.7163C38.6063 25.6408 39.2063 25.6456 39.7959 25.5537C40.3591 24.8388 40.8423 24.0336 41.6083 23.5067Z" fill="black"/>
<path d="M82.5358 36.7829C82.8036 37.1078 83.0685 37.4318 83.3392 37.7576C83.1401 38.1434 82.8592 38.6475 82.6659 39.0352C82.459 38.8201 82.0674 38.3859 81.8605 38.1708C82.0631 37.7443 82.3282 37.2046 82.5358 36.7829Z" fill="black"/>
<path d="M38.0156 25.7165C39.1225 26.6482 40.7206 26.3332 41.7871 25.5146C41.5365 26.1089 41.3266 26.7164 41.1866 27.3465C40.7879 27.4649 40.3891 27.5833 39.9895 27.7047C39.945 27.5841 39.8559 27.3428 39.8114 27.2222C39.2706 27.2528 38.7302 27.3123 38.2178 27.4936L38.1264 27.4479C37.6066 27.186 37.0934 26.9134 36.5793 26.6437C37.0283 26.2907 37.5038 25.9752 38.0156 25.7165Z" fill="black"/>
<path d="M39.988 27.6927C40.3877 27.5713 40.7864 27.4529 41.1851 27.3345C40.5336 36.9514 39.2421 46.5183 37.7654 56.0413C37.7146 56.8226 37.1902 57.4279 36.6935 57.9874C38.2579 47.946 39.272 37.8259 39.988 27.6927Z" fill="black"/>
<path d="M87.0925 42.1957C87.3966 42.5871 87.7249 42.9638 88.0924 43.2985C84.3269 49.364 83.3781 56.6839 79.7777 62.8254C79.4933 62.9584 79.2011 63.0759 78.9009 63.1781C80.65 59.4119 81.7903 55.4098 83.1821 51.5052C84.2778 48.325 85.3344 45.0871 87.0925 42.1957Z" fill="black"/>
<path d="M35.7591 28.7763C35.8592 28.0012 36.2106 27.3045 36.5797 26.6328C37.0938 26.9025 37.607 27.1751 38.1269 27.437C37.8238 27.8856 37.4693 28.3336 37.4197 28.8934C36.4603 33.9644 35.7354 39.0761 34.8584 44.1609C34.7735 44.4326 34.6057 44.9798 34.5228 45.2553C34.1308 44.5394 33.7235 43.8315 33.3845 43.091C34.146 38.3129 34.891 33.5359 35.7591 28.7763Z" fill="black"/>
<path d="M72.6883 42.6982C73.0862 42.8401 73.4832 42.9849 73.884 43.1278C71.2817 48.2354 68.8757 53.442 66.4939 58.6533C66.0864 59.4831 65.3422 60.0717 64.656 60.6599C67.2839 54.6501 69.9341 48.6509 72.6883 42.6982Z" fill="black"/>
<path d="M91.8017 50.5061C92.3346 50.3411 92.8685 50.1829 93.4052 50.0256C93.3607 50.1431 93.2678 50.3799 93.2233 50.4974C92.9084 50.6945 92.5877 50.88 92.2669 51.0655C92.4323 51.4087 92.5986 51.7489 92.7592 52.097C92.7736 52.2014 92.7956 52.4112 92.81 52.5156C91.02 58.9772 88.6606 65.2799 86.7639 71.7134C86.1109 71.9713 85.4824 72.2822 84.8254 72.5227C86.1228 67.7286 87.8743 63.0722 89.3386 58.329C90.1409 55.7163 90.9238 53.0942 91.8017 50.5061Z" fill="black"/>
<path d="M33.3848 43.1016C33.7237 43.842 34.1311 44.55 34.523 45.2658C34.6059 44.9903 34.7737 44.4432 34.8586 44.1715C34.8399 44.7252 34.7582 45.2746 34.6427 45.8194C34.2532 45.2942 33.8667 44.7699 33.4754 44.2505C33.3691 44.5088 33.1536 45.0244 33.0464 45.2856C33.1207 44.5505 33.2319 43.8209 33.3848 43.1016Z" fill="black"/>
<path d="M32.3803 58.8743C32.2233 60.3998 31.7979 61.88 31.5218 63.3861C31.2804 63.5652 31.0399 63.7413 30.7965 63.9165C30.9178 62.5307 31.0013 61.1423 31.1565 59.7611C31.3984 59.9875 31.6441 60.2119 31.8946 60.4315C32.0626 59.9134 32.2306 59.3952 32.3803 58.8743Z" fill="black"/>
<path d="M25.4551 65.1406C26.1896 65.3756 26.6705 65.9659 27.1108 66.5623L27.2404 66.3116L27.3042 66.1843C27.3531 66.4897 27.3982 66.7971 27.4394 67.1064C27.1635 67.0942 26.8876 67.0819 26.6137 67.0735C26.3356 66.5522 26.045 66.0397 25.7274 65.541L25.5587 65.9817C25.5337 65.771 25.481 65.3485 25.4551 65.1406Z" fill="black"/>
<path d="M79.6292 93.854C80.3841 93.034 81.307 92.3907 82.2261 91.7687C82.1207 91.905 81.912 92.1816 81.8087 92.3218C82.0226 92.3268 82.4542 92.3349 82.6711 92.3409C81.6847 92.9024 80.6727 93.4139 79.6292 93.854Z" fill="black"/>
</svg>
