<svg width="137" height="137" viewBox="0 0 137 137" fill="none" xmlns="http://www.w3.org/2000/svg">
<path d="M51.4142 76.2912C52.3797 75.5539 54.0858 76.2047 54.175 77.4691C54.4123 78.2413 53.8959 78.9542 53.3092 79.3959C52.383 79.8598 51.0456 79.4517 50.7295 78.4166C50.4189 77.6638 50.7113 76.7164 51.4142 76.2912Z" fill="#F7F7F7"/>
<path d="M88.738 70.4564C89.3813 69.4183 91.0203 68.8941 91.8606 69.9917C92.9064 71.0636 92.0138 73.105 90.4897 72.9659C89.1375 73.0871 88.4604 71.6045 88.738 70.4564Z" fill="#F7F7F7"/>
<path d="M39.262 59.132C42.1336 56.8542 45.7938 55.4529 49.4861 55.5827C55.4637 55.5895 61.2591 59.2745 63.7858 64.6961C63.9112 64.7277 64.1584 64.7882 64.2838 64.8197C64.2354 64.9248 64.1455 65.137 64.1003 65.2415C65.2885 68.2687 65.7429 71.6198 65.0651 74.8238C64.0225 80.1911 60.0162 84.9022 54.8541 86.7339C51.3785 88.1231 47.4107 87.9811 43.9019 86.7763C39.4685 85.2751 35.8682 81.6395 34.2507 77.2702C31.7547 71.0066 33.9209 63.238 39.262 59.132ZM44.0656 57.8658C40.5219 59.1702 37.5964 61.944 35.9864 65.3464C34.2179 68.9496 34.0909 73.3114 35.5795 77.0331C36.9106 80.6155 39.7986 83.4879 43.222 85.1042C46.478 86.5429 50.266 86.8594 53.6674 85.753C58.1058 84.3801 61.8058 80.8054 63.2774 76.3937C64.3941 73.1836 64.2882 69.6121 63.12 66.4315C61.8231 63.1232 59.3708 60.2452 56.193 58.6229C52.5002 56.6833 47.959 56.2908 44.0656 57.8658Z" fill="black"/>
<path d="M42.9052 64.2602C44.9267 63.3464 47.3406 62.7545 49.5314 63.3746C47.5734 65.0774 48.3057 68.7436 50.7895 69.4962C52.4762 70.1504 54.5515 69.4706 55.4373 67.8704C55.5666 67.578 55.7068 67.2903 55.8615 67.0102C57.3179 69.0276 58.2865 71.4995 58.0902 74.0201C57.998 78.3326 54.8854 82.3921 50.7302 83.5725C49.1577 83.9419 47.5138 84.2269 45.907 83.8988C42.3117 83.329 39.148 80.731 37.8861 77.3166C35.9176 72.5381 38.2012 66.4658 42.9052 64.2602ZM47.5962 78.8195C46.8933 79.2447 46.6009 80.192 46.9114 80.9448C47.2276 81.98 48.565 82.388 49.4911 81.9241C50.0779 81.4824 50.5942 80.7696 50.357 79.9974C50.2678 78.7329 48.5617 78.0821 47.5962 78.8195Z" fill="black"/>
<path d="M84.3213 49.223C88.649 48.4993 93.3145 49.4169 96.8597 52.0621C100.307 54.5475 102.612 58.461 103.335 62.6288C103.869 66.8994 102.835 71.4351 100.138 74.8359C97.7239 78.0578 94.0137 80.151 90.1022 80.9492C86.0501 81.5318 81.7206 80.7259 78.3718 78.31C75.6798 76.5869 73.6513 73.942 72.4642 70.998C70.4585 66.0627 71.1139 60.096 74.2875 55.7925C76.5809 52.3717 80.3326 50.0946 84.3213 49.223ZM83.6645 50.7601C79.6631 51.8273 76.134 54.6191 74.2739 58.3281C72.8954 61.047 72.2881 64.2155 72.8149 67.234C73.4732 72.0497 76.7478 76.4217 81.1828 78.4126C84.6895 80.0478 88.8746 80.3088 92.4979 78.8872C96.1944 77.5797 99.2032 74.6514 100.836 71.1118C102.461 67.5436 102.606 63.2885 101.112 59.6511C99.71 55.9477 96.682 52.9595 93.0555 51.4217C90.1034 50.217 86.7513 49.9349 83.6645 50.7601Z" fill="black"/>
<path d="M77.692 60.4143C79.994 57.4086 84.0119 56.052 87.706 56.6148C87.4695 57.0191 87.2075 57.4112 86.9254 57.7834C86.0268 59.8291 87.1744 62.5067 89.4129 62.9985C91.4095 63.5756 93.3649 62.2233 94.1165 60.4064C95.917 62.8507 96.7553 66.0519 96.1102 69.0403C95.4912 72.3141 93.1541 75.1559 90.1319 76.5266C87.2451 77.7171 83.8124 77.739 81.0418 76.2161C79.3016 75.3879 77.91 73.9559 76.9022 72.3341C74.6885 68.6981 74.9783 63.7181 77.692 60.4143ZM85.0489 72.9515C84.7713 74.0995 85.4483 75.5821 86.8006 75.4609C88.3246 75.6 89.2173 73.5586 88.1715 72.4867C87.3312 71.3891 85.6922 71.9133 85.0489 72.9515Z" fill="black"/>
</svg>
