<svg width="168" height="168" viewBox="0 0 168 168" fill="none" xmlns="http://www.w3.org/2000/svg">
<path d="M64.1184 42.2153C64.4046 41.9837 64.6684 41.7216 64.9733 41.5129C67.2531 41.9528 68.9874 43.6575 70.4559 45.342C70.6477 45.6137 70.8422 45.8863 71.057 46.1394C71.2701 46.4257 71.4861 46.713 71.7287 46.9751C72.8749 48.6425 73.9469 50.415 74.4806 52.3849C74.5832 52.8739 74.6987 53.3609 74.7977 53.8518C74.8303 54.1349 74.8768 54.4178 74.9186 54.7008C75.2678 56.8831 75.146 59.1124 75.4609 61.3005C75.6432 62.4296 75.8819 63.5555 76.2554 64.6359C76.7695 65.6913 77.2928 66.7466 77.8733 67.7682C78.1519 68.0142 78.344 68.3322 78.537 68.6475C79.1206 69.3376 79.6721 70.0557 80.2842 70.7197C80.598 71.0942 80.8307 71.5285 81.1593 71.8909C82.2091 73.296 82.9972 74.8623 83.7263 76.454C84.253 78.2277 84.667 80.0401 84.8138 81.8888C85.4373 83.2322 86.703 84.1349 87.52 85.3566C87.7721 85.6418 87.9679 85.9672 88.1785 86.285C88.6354 86.7353 88.8078 87.3979 89.2942 87.8239C90.6745 90.1061 91.5211 92.7135 91.6848 95.3804C92.1148 100.532 91.7264 105.942 89.3116 110.607C87.7344 113.719 85.1946 116.478 81.9749 117.906C82.0439 118.224 82.1249 118.538 82.2132 118.853C83.0482 118.449 83.8784 118.04 84.6889 117.588C85.2331 117.051 85.9238 116.683 86.4502 116.12C86.6463 115.967 86.8423 115.814 87.0384 115.656C88.7052 113.792 90.1786 111.699 91.041 109.337C91.6066 108.189 91.9549 106.943 92.1902 105.69C92.8489 103.206 92.8283 100.62 92.9515 98.0736C92.9049 97.2704 92.8675 96.4624 92.7562 95.6643C92.7519 95.4597 92.7477 95.2551 92.7453 95.0496C92.4967 93.4572 92.1834 91.8746 91.6566 90.3517C90.6939 88.0683 89.3291 85.9989 87.7893 84.065C87.4235 83.6659 87.0724 83.25 86.7167 82.8434C86.3888 82.4366 86.0766 82.0194 85.7395 81.6219C85.7167 79.7659 85.2359 77.9363 84.6723 76.1768C84.044 74.8195 83.3142 73.5093 82.6583 72.1661C84.3428 72.3723 86.0656 72.7357 87.4791 73.7327C87.6236 73.8751 87.771 74.0185 87.9229 74.1572C88.6976 74.7755 89.3282 75.5532 89.826 76.4078C90.4574 77.0457 90.7212 77.9335 91.1619 78.6987C91.4422 78.5513 91.7282 78.4058 92.0141 78.2602C91.2713 76.6779 90.4295 75.1203 89.1762 73.8768C88.6117 73.2745 87.9104 72.8232 87.3413 72.2256C88.0758 71.7564 88.9109 71.5124 89.7644 71.3729C91.0954 71.1994 92.4434 71.2099 93.7616 70.943C95.6463 70.6571 97.5487 70.5156 99.4315 70.226C101.166 69.9144 102.913 69.7193 104.661 69.515C105.006 69.4902 105.352 69.4627 105.698 69.4167C106.043 69.4059 106.389 69.4015 106.737 69.4008C106.951 69.3595 107.165 69.3199 107.382 69.2841C107.603 69.2806 107.828 69.2753 108.053 69.27C109.249 69.2557 110.425 69.4981 111.598 69.6997C114.233 70.6277 116.688 72.479 117.799 75.1076C118.624 76.4551 118.959 78.1033 118.628 79.6564C118.423 79.9514 118.152 80.1959 117.917 80.4643C117.976 80.562 118.094 80.7574 118.153 80.8551C117.598 81.3748 117.114 81.9995 116.38 82.2715C115.504 82.6315 114.729 83.2907 113.771 83.4088C113.19 83.663 112.626 83.955 112.07 84.2562C111.966 84.2514 111.758 84.2409 111.654 84.2361C110.569 84.8513 109.323 85.0603 108.159 85.4743C105.253 86.4008 102.174 85.7732 99.2029 86.1614C98.9515 86.2244 98.703 86.2928 98.4563 86.365C98.2445 86.3961 98.0346 86.431 97.8257 86.4677C97.3185 86.4843 96.8131 86.5 96.3068 86.5139C96.5495 86.2835 96.7932 86.0502 97.0424 85.8235C97.8628 84.4464 97.7742 82.689 97.0631 81.2832C97.0351 80.6169 96.4655 80.1915 96.1441 79.6605C95.8604 79.2219 95.4187 78.952 94.9215 78.8242C94.8226 79.0998 94.7237 79.3755 94.6276 79.6521C96.0425 80.7111 96.6653 82.5869 96.513 84.309C96.4621 84.9574 96.064 85.5945 95.4334 85.8203C95.0649 86.0822 94.6765 85.7481 94.4283 85.4888C93.9252 84.6602 93.43 83.7833 93.3746 82.7941C93.3066 82.0993 93.3043 81.3966 93.3789 80.7036C93.6655 79.3823 93.9508 77.8619 95.1698 77.0671C95.916 76.8172 96.7215 76.8253 97.4961 76.9094C98.1389 76.9538 98.7855 77.001 99.4334 76.987C99.3998 77.7149 99.1976 78.4219 99.1677 79.1479C99.1885 79.9782 99.4276 80.781 99.5493 81.5994C99.8466 82.2471 100.183 82.8752 100.504 83.5107C100.611 83.5562 100.822 83.6482 100.929 83.6937C101.15 83.5301 101.373 83.3655 101.594 83.1973C101.05 82.6217 100.698 81.8882 100.488 81.1306C100.129 79.7131 100.172 78.1907 100.687 76.8159C101.16 76.6375 101.655 76.5182 102.142 76.3767C103.187 76.221 104.104 76.73 104.983 77.2115C105.159 77.0454 105.337 76.8803 105.516 76.7151C105.24 76.2931 104.847 75.9803 104.431 75.7065C104.771 75.329 105.15 74.9893 105.526 74.6496C106.197 74.1429 106.884 73.663 107.565 73.1702C108.798 72.4771 110.089 71.8872 111.339 71.2208C111.134 70.9649 110.929 70.7118 110.717 70.4643C108.792 71.4745 106.763 72.3169 105.052 73.6828C104.445 74.2334 103.804 74.7482 103.225 75.3329C102.835 75.3413 102.445 75.3469 102.055 75.3478C101.549 75.4895 101.038 75.6172 100.528 75.7376C99.3035 75.9196 98.0632 75.8333 96.8358 75.7403C96.6674 74.4649 96.0955 73.2276 95.1862 72.313C94.9077 72.4595 94.6319 72.6068 94.358 72.7532C94.9952 73.6762 95.7304 74.5819 95.7871 75.7609C94.9847 76.0602 94.2005 76.4316 93.6519 77.1151C92.589 78.381 92.4293 80.1023 92.2936 81.6836C92.3061 83.0268 92.6266 84.3271 93.1319 85.5658C93.5233 85.924 93.8273 86.3616 94.1839 86.7561C94.7945 87.2118 95.4796 87.5947 96.2558 87.6456C97.2907 87.7667 98.3145 87.4871 99.305 87.2152C100.223 86.9428 101.184 86.9599 102.129 87.0363C102.105 87.0856 102.054 87.1813 102.031 87.2306C101.638 87.2677 101.254 87.3519 100.869 87.4315C99.529 87.6005 98.1977 87.8555 96.9158 88.2805C96.6992 88.4071 96.5003 88.5548 96.3154 88.7209C95.2159 89.5269 95.0797 91.0388 95.2896 92.2862C95.7631 93.2391 96.2164 94.2069 96.7444 95.1345C97.1732 95.6711 97.6987 96.1283 98.2396 96.5521C98.9873 97.1401 99.8358 97.5839 100.726 97.9181C99.6543 99.1164 98.9431 100.612 98.6741 102.192C98.6706 103.248 98.5169 104.392 99.1061 105.335C99.0976 105.446 99.0816 105.666 99.0741 105.774C99.5691 106.5 100.06 107.235 100.672 107.869C100.94 108.097 101.201 108.336 101.467 108.568C101.262 108.876 101.049 109.178 100.827 109.472C100.527 110.431 100.044 111.397 100.202 112.429C100.25 113.271 100.717 113.997 101.086 114.732C101.404 115.387 102.034 115.791 102.59 116.221C102.78 116.315 102.968 116.412 103.155 116.514C104.606 117.32 106.328 117.45 107.956 117.485C109.515 117.641 111.095 117.373 112.647 117.661C114.361 117.834 116.002 118.415 117.587 119.065C117.27 119.171 116.958 119.279 116.632 119.337C116.259 119.472 115.894 119.627 115.504 119.7C114.657 119.943 113.826 120.246 112.964 120.431C111.159 120.92 109.327 121.296 107.483 121.607C106.831 121.777 106.164 121.877 105.498 121.974C104.453 122.212 103.377 122.211 102.328 122.404C102.097 122.407 101.87 122.414 101.644 122.42C98.9532 122.656 96.2671 122.978 93.631 123.568C90.9692 124.052 88.4313 125.03 85.9399 126.036C84.8977 126.576 83.8479 127.101 82.8011 127.637C82.5307 127.763 82.2969 127.951 82.1032 128.178C79.8094 129.485 77.3956 130.598 74.8066 131.165C73.6502 131.28 72.4541 131.285 71.3629 130.826C69.6189 130.334 68.4139 128.861 67.3909 127.454C67.0083 127.04 66.7998 126.498 66.3877 126.109C66.1056 125.632 65.8741 125.118 65.5118 124.694C64.8405 123.909 64.6749 122.786 63.8977 122.085C63.1553 120.681 62.4266 119.268 61.7385 117.839C61.5348 116.431 60.3457 115.364 60.1365 113.958C59.7425 112.869 58.9007 111.937 58.734 110.779C58.3441 109.744 57.5683 108.849 57.3954 107.743C57.1077 107.133 56.7876 106.527 56.704 105.847C56.7115 105.228 56.6764 104.597 56.8423 103.992C57.089 103.66 57.3086 103.307 57.5422 102.963C58.455 102.077 59.5248 101.382 60.5789 100.683C62.5848 99.3709 63.8786 97.2674 64.7533 95.0845C65.217 93.536 65.7994 92.0245 66.2149 90.4634C66.5716 88.9786 66.819 87.4752 66.9784 85.9585C67.0129 85.4926 67.0466 85.0248 67.0598 84.5581C67.1998 83.5554 67.0933 82.5388 67.135 81.5303C67.0848 80.9844 66.9975 80.4435 66.9214 79.9015C66.8561 79.577 66.8019 79.2515 66.7384 78.9261C66.7086 78.6393 66.6731 78.3508 66.6516 78.0621C66.6017 77.9458 66.5 77.7141 66.4501 77.5979C66.9697 77.7607 67.4957 77.9087 68.0439 77.927C68.8446 77.7795 69.5696 77.4104 70.274 77.0192C70.5461 76.6136 70.8321 76.2218 71.1227 75.8299C71.114 75.6578 71.0939 75.3126 71.0853 75.1405C70.2806 74.988 69.902 75.7592 69.5301 76.3155C69.2046 76.4836 68.8836 76.6516 68.5599 76.8188C68.0903 76.7953 67.6199 76.7747 67.1537 76.7123C66.9977 76.7708 66.6829 76.887 66.5268 76.9455C66.4058 76.2197 66.4847 75.4803 66.484 74.749C67.5204 75.7033 69.2521 75.2584 70.1749 74.3333C70.0858 74.1673 69.9065 73.8335 69.8155 73.6684C69.3898 73.8178 68.9755 74.0032 68.5705 74.2024C67.8535 74.277 67.1381 74.1767 66.5461 73.7394C66.7332 72.852 67.3648 72.117 67.4535 71.2054C67.3737 70.5375 67.1495 69.8874 67.1798 69.2077C67.1833 68.5485 67.1304 67.8879 67.1737 67.2293C67.3207 66.0442 67.1342 64.8475 66.8805 63.6921C66.8463 63.5748 66.7789 63.342 66.7456 63.2265C66.535 62.3884 66.3206 61.5521 66.1025 60.7177C66.0186 60.0054 65.8358 59.3087 65.6512 58.6175C65.9961 58.6928 66.3437 58.7505 66.6931 58.7979C67.0499 58.5907 67.4038 58.3734 67.7325 58.1201C67.6685 57.9854 67.5388 57.7169 67.4731 57.5832C67.372 57.558 67.1661 57.5095 67.0641 57.4825C66.9441 57.5435 66.708 57.6637 66.5872 57.7229C66.2467 57.6291 65.9008 57.5474 65.5506 57.5166C65.489 57.0625 65.4219 56.6112 65.327 56.1647C65.767 56.3263 66.2142 56.4703 66.6597 56.6198C66.9696 56.462 67.2814 56.3033 67.595 56.1482C67.5151 55.9822 67.3507 55.6501 67.2708 55.484C66.539 55.5523 65.8141 55.4289 65.2495 54.9266C65.1527 54.2255 65.1179 53.5185 65.0684 52.8143C64.991 51.7132 65.3401 50.5784 65.9668 49.6786C66.7603 49.0563 67.0854 48.0615 67.272 47.1093C67.4117 45.5678 66.6102 44.0757 65.4496 43.1009C65.0205 42.7828 64.5731 42.4926 64.1184 42.2153ZM114.212 72.7849C114.497 73.4318 115.037 73.8862 115.534 74.3649C115.814 74.71 116.076 75.0692 116.392 75.3872C116.641 76.1381 116.204 76.9346 116.482 77.6501C116.79 77.6627 117.09 77.5753 117.389 77.5019C117.477 77.0393 117.541 76.5722 117.612 76.106C117.448 75.4721 117.336 74.7786 116.823 74.3176C116.286 73.5919 115.644 72.943 114.899 72.4327C114.668 72.5501 114.44 72.6666 114.212 72.7849Z" fill="#A79CEE"/>
<path d="M63.8114 46.6985C63.5723 45.5171 63.3513 44.2846 63.5416 43.0797C64.2328 43.6755 65.1005 44.084 65.6098 44.87C66.139 45.4484 66.1657 46.3176 66.2062 47.0635C66.254 48.1518 65.3174 48.84 64.6038 49.5007C64.396 48.5495 63.9462 47.6705 63.8114 46.6985Z" fill="#A79CEE"/>
<path d="M97.5508 89.2784C97.6212 89.289 97.7611 89.3084 97.8316 89.319C98.5525 88.8962 99.3963 88.8336 100.189 88.6251C100.437 88.5687 100.684 88.5104 100.933 88.4484C100.446 89.8092 99.9237 91.4618 100.889 92.7472C101.123 92.7279 101.358 92.7086 101.593 92.6865C101.653 92.3121 101.912 91.8668 101.487 91.6115C101.479 90.4007 101.582 89.0029 102.535 88.1322C103.161 87.3954 104.23 87.6829 105.044 87.3567C105.824 86.9807 106.699 86.9345 107.531 86.7387C108.779 86.338 110.048 85.9798 111.208 85.3567C112.012 85.324 112.619 84.6872 113.386 84.5058C114.066 84.3897 114.621 83.8839 115.319 83.8539C116.265 83.4119 117.197 82.9394 118.109 82.431C118.308 82.2231 118.522 82.0327 118.743 81.8459C118.938 81.6001 119.132 81.3552 119.333 81.1112C119.724 81.2278 120.119 81.3471 120.515 81.4618C120.884 81.7498 121.264 82.0258 121.65 82.2914C122.118 82.6991 122.526 83.1673 122.951 83.6197C123.163 83.9719 123.39 84.3211 123.651 84.6432C124.544 85.8958 124.967 87.4064 125.304 88.8889C125.685 90.5859 125.444 92.5855 124.109 93.82C123.725 94.1135 123.376 94.4651 122.942 94.6839C119.623 95.944 116.01 95.3305 112.584 96.0081C112.289 96.0445 111.998 96.0882 111.707 96.1274C111.019 96.3194 110.32 96.4781 109.609 96.5564C108.998 96.7072 108.384 96.8459 107.769 96.966C106.134 97.2177 104.472 97.4159 102.822 97.2149C102.211 97.1592 101.656 96.8216 101.032 96.865C100.85 96.758 100.67 96.6501 100.489 96.5421C100.636 95.5218 100.636 94.4673 100.413 93.4589C100.274 92.561 99.7419 91.8029 99.3639 90.9965C99.0742 90.3635 98.5633 89.8756 98.0627 89.408C97.8903 89.5028 97.5464 89.6942 97.3767 89.7898C97.436 90.431 98.0338 90.7793 98.3817 91.2619C99.3243 92.6799 99.6879 94.4344 99.4955 96.1189C98.4609 95.4098 97.4309 94.5776 96.9077 93.4038C96.5584 92.7268 96.4991 91.9533 96.292 91.2271C96.4324 90.4216 96.9072 89.7664 97.5508 89.2784ZM119.442 83.9637C119.987 84.4597 120.536 84.9538 121.092 85.4422C121.323 85.8914 121.572 86.3358 121.927 86.7036C122.095 87.3865 122.327 88.0514 122.534 88.722C122.522 88.9582 122.509 89.1944 122.497 89.4305C122.572 89.5827 122.724 89.889 122.8 90.043C123.028 89.934 123.509 90.0629 123.532 89.7072C123.665 88.7805 123.388 87.8363 123.021 86.9919C123.255 87.0818 123.49 87.169 123.728 87.2571C123.851 87.0433 124.205 86.8352 124.031 86.5522C123.763 85.9755 123.504 85.3849 123.136 84.8636C122.63 84.6636 122.382 85.1709 122.26 85.5698C121.871 84.5737 120.991 83.9117 120.182 83.2714C119.927 83.4964 119.678 83.725 119.442 83.9637Z" fill="#A79CEE"/>
<path d="M101.971 98.1543C102.94 98.3972 103.941 98.3289 104.928 98.2837C105.394 98.2211 105.865 98.1927 106.338 98.205C105.634 99.1303 105.177 100.204 104.898 101.326C104.877 101.792 104.844 102.257 104.843 102.724C104.824 103.682 104.865 104.643 105.068 105.584C105.183 105.72 105.311 105.847 105.451 105.967C105.669 105.856 105.887 105.747 106.108 105.637C106.058 105.188 106.007 104.741 105.958 104.294C105.885 103.53 105.787 102.753 105.936 101.992C105.931 101.906 105.92 101.733 105.915 101.645C106.273 100.798 106.383 99.822 106.992 99.0983C107.371 98.6058 107.882 98.2456 108.377 97.88C108.81 97.7732 109.248 97.6784 109.689 97.602C110.038 97.5384 110.385 97.4618 110.736 97.4037C112.569 97.0071 114.436 96.6769 116.32 96.7651C117.43 96.832 118.53 96.6342 119.64 96.6475C120.461 96.5711 121.256 96.3524 122.059 96.1781C122.455 96.0021 122.846 95.8076 123.238 95.615C123.442 95.9524 123.63 96.312 123.943 96.5662C124.779 97.9988 125.545 99.5254 125.636 101.214C125.56 102.243 125.206 103.226 124.673 104.106C123.278 105.887 121.074 106.74 118.89 107.046C118.481 107.101 118.075 107.161 117.671 107.225C116.156 107.332 114.645 107.467 113.132 107.599C111.189 107.907 109.272 108.372 107.329 108.665C105.666 108.844 103.949 108.606 102.432 107.899C101.768 107.389 101.009 106.925 100.61 106.159C99.2007 104.034 99.5663 100.965 101.266 99.1074C101.829 99.1348 101.855 99.9253 102.149 100.298C102.191 101.029 102.399 101.757 102.291 102.493C102.205 103.122 101.961 103.716 101.791 104.327C101.719 104.38 101.575 104.486 101.501 104.537C101.657 104.83 101.816 105.123 101.979 105.412C102.419 105.153 102.833 104.793 102.954 104.274C103.314 103.02 103.534 101.672 103.241 100.381C102.887 99.6067 102.572 98.7749 101.971 98.1543ZM120.496 98.9529C120.645 99.4157 120.765 99.887 120.902 100.353C121.014 101.444 120.717 102.485 120.331 103.492C120.524 103.635 120.714 103.78 120.906 103.929C121.037 103.862 121.301 103.728 121.434 103.66C121.97 102.423 122.098 101.05 121.811 99.7331C121.694 99.3118 121.509 98.9178 121.322 98.5276C121.046 98.6684 120.769 98.8093 120.496 98.9529ZM122.944 99.0259C122.871 99.1329 122.724 99.3423 122.651 99.4493C122.876 100.271 123.085 101.133 122.855 101.98C122.983 102.242 123.115 102.505 123.248 102.767C123.516 102.558 123.962 102.431 123.966 102.023C124.09 101.007 123.951 99.9629 123.54 99.0243C123.339 99.0249 123.141 99.0254 122.944 99.0259Z" fill="#A79CEE"/>
<path d="M101.363 110.917C101.654 110.453 101.782 109.763 102.31 109.527C102.623 110.043 102.898 110.587 103.139 111.142C103.36 112.128 103.193 113.179 102.672 114.049C102.397 114.454 103.006 114.896 103.353 114.597C103.895 114.293 104.058 113.641 104.243 113.093C104.257 112.677 104.297 112.262 104.333 111.849C104.028 111.001 104.103 109.892 103.27 109.347C103.848 109.543 104.454 109.615 105.059 109.677C105.714 109.648 106.371 109.643 107.029 109.622C106.924 110.063 106.793 110.499 106.587 110.906C106.272 111.958 106.181 113.08 106.423 114.158C106.5 114.395 106.711 114.55 106.871 114.736C107.107 114.62 107.344 114.506 107.584 114.394C107.542 114.285 107.459 114.067 107.418 113.958C107.372 113.444 107.328 112.933 107.309 112.42C107.369 111.284 107.915 110.271 108.58 109.378C108.986 109.327 109.389 109.27 109.795 109.214C110.944 109.034 112.081 108.794 113.234 108.637C115.143 108.441 117.061 108.328 118.968 108.105C119.655 107.99 120.337 107.833 121.01 107.64C121.377 107.539 121.728 107.39 122.079 107.239C122.369 107.833 122.739 108.399 122.937 109.035C123.526 111.871 122.729 114.909 121.02 117.219C120.665 117.465 120.339 117.751 119.996 118.014C119.679 118.029 119.372 118.065 119.063 118.111C118.321 118.228 117.589 118.013 116.9 117.763C115.834 117.39 114.755 117.059 113.683 116.71C112.786 116.407 111.826 116.538 110.905 116.413C109.118 116.416 107.309 116.568 105.549 116.182C104.854 116.004 104.181 115.75 103.497 115.538C102.846 114.994 102.056 114.541 101.668 113.756C101.41 113.318 101.316 112.818 101.19 112.334C101.24 111.86 101.324 111.392 101.363 110.917ZM119.335 110.646C119.345 111.479 119.364 112.315 119.193 113.136C119.092 113.504 118.961 113.868 118.928 114.251C119.083 114.391 119.247 114.526 119.416 114.653C119.623 114.525 119.83 114.398 120.038 114.272C120.192 112.918 120.801 111.469 120.174 110.158C119.83 110.127 119.287 110.168 119.335 110.646ZM120.849 111.039C120.936 111.401 121.017 111.766 121.114 112.128C121.169 112.816 120.706 113.353 120.528 113.98C120.635 114.158 120.767 114.316 120.924 114.457C121.255 114.363 121.483 114.103 121.716 113.868C122.316 113.012 122.35 111.768 121.771 110.897C121.453 110.71 121.146 110.941 120.849 111.039Z" fill="#A79CEE"/>
<mask id="path-6-outside-1_1954_92044" maskUnits="userSpaceOnUse" x="28.7801" y="23.9224" width="109.954" height="120.016" fill="black">
<rect fill="white" x="28.7801" y="23.9224" width="109.954" height="120.016"/>
<path d="M62.4997 41.731C63.1475 41.3199 63.6893 40.7096 64.4591 40.5151C65.7678 40.339 66.9974 41.0068 68.001 41.7781C70.0316 43.3437 71.7326 45.3069 73.2363 47.3753C73.8589 48.4568 74.3939 49.5898 74.9565 50.704C75.5305 52.3515 75.9993 54.0617 76.1147 55.8078C76.1431 56.0187 76.1687 56.2287 76.1925 56.4396C76.2162 57.28 76.3342 58.1142 76.3219 58.9568C76.4177 59.9115 76.396 60.8773 76.5871 61.823C76.7253 62.6283 76.7722 63.4686 77.1054 64.2235C77.7383 65.4576 78.2773 66.7581 79.1859 67.8263C80.1315 69.0221 81.2216 70.1094 82.0631 71.3836C82.8639 70.9992 83.7264 71.3243 84.5606 71.3433C85.1404 71.4964 85.6966 71.7313 86.2836 71.8575C86.9271 71.3696 87.6051 70.899 88.3847 70.6554C89.0753 70.5198 89.7765 70.4462 90.471 70.3458C91.4179 70.189 92.3787 70.1644 93.3226 69.9881C93.8414 69.8983 94.3648 69.8176 94.8852 69.7129C98.0785 69.3555 101.272 68.9704 104.467 68.6028C105.616 68.475 106.772 68.4323 107.92 68.2916C108.377 68.2725 108.835 68.2627 109.293 68.2548C110.488 68.4433 111.76 68.4507 112.834 69.0771C115.814 70.2728 118.143 72.7898 119.373 75.7267C119.664 76.905 119.952 78.0944 119.898 79.3206C119.831 79.5266 119.764 79.7326 119.698 79.9377C120.279 80.2649 120.902 80.5048 121.5 80.8022C122.385 81.5225 123.273 82.2641 123.927 83.2111C124.574 83.9109 124.846 84.8597 125.325 85.67C125.737 86.3364 125.895 87.1036 126.16 87.8303C126.469 88.8696 126.499 89.9507 126.498 91.0264C126.387 91.5198 126.326 92.0248 126.202 92.5154C125.717 93.5753 124.924 94.4133 124.109 95.2256C124.952 96.0323 125.295 97.1769 125.862 98.168C126.232 98.8069 126.491 99.4947 126.653 100.214C126.624 101.174 126.748 102.17 126.381 103.084C125.856 104.757 124.51 106.111 122.913 106.794C123.827 107.98 124.151 109.534 124.183 111.016C124.273 112.22 123.825 113.352 123.616 114.515C123.113 115.603 122.707 116.764 121.917 117.689C121.363 118.445 120.477 118.817 119.75 119.369C118.484 119.725 117.305 120.356 116.037 120.685C115.566 120.888 115.108 121.116 114.649 121.34C113.115 121.608 111.578 121.884 110.065 122.251C108.637 122.685 107.165 122.956 105.676 123.042C104.35 123.258 103.007 123.349 101.669 123.477C99.5906 123.688 97.5 123.792 95.439 124.152C95.2411 124.183 95.0469 124.217 94.8519 124.253C92.7569 124.651 90.6569 125.116 88.69 125.943C87.8541 126.464 86.8542 126.576 86.0116 127.079C84.8121 127.753 83.4823 128.221 82.4158 129.11C81.2575 129.727 80.1155 130.427 78.8367 130.762C78.317 130.978 77.8293 131.257 77.3134 131.48C76.188 131.783 75.0666 132.131 73.8972 132.234C72.3404 132.42 70.7908 131.936 69.4558 131.162C68.7703 130.723 68.2996 130.036 67.6922 129.509C67.018 128.586 66.3732 127.639 65.6318 126.772C65.3506 126.288 65.1494 125.733 64.706 125.368C64.211 124.643 64.0117 123.708 63.3408 123.116C62.471 121.517 61.6842 119.875 60.8448 118.263C60.5936 117.843 60.5207 117.357 60.3489 116.906C59.9169 115.939 59.354 115.034 58.9534 114.051C58.6487 112.513 57.4549 111.295 57.114 109.749C56.6433 108.797 56.3323 107.785 55.9446 106.8C55.6814 105.995 55.6982 105.116 55.3001 104.357C55.6057 103.725 55.9791 103.126 56.4949 102.643C57.456 101.642 58.6637 100.934 59.8379 100.22C60.2266 99.8205 60.6489 99.4545 61.0992 99.1254C61.3211 98.8312 61.5496 98.5407 61.7864 98.2576C62.6897 97.2076 63.2479 95.9223 63.7821 94.6584C64.3056 93.6973 64.5736 92.6131 64.8382 91.5586C65.9759 87.2185 66.5026 82.6182 65.7167 78.1681C65.6498 77.626 65.6106 77.0792 65.5326 76.5381C65.3773 75.5394 65.3345 74.5019 65.5634 73.5097C65.5638 72.6755 66.2667 72.0668 66.4055 71.29C66.2178 70.4331 66.131 69.5691 66.1015 68.6944C66.1956 67.1227 66.1942 65.5229 65.8136 63.9861C65.6192 63.0932 65.3934 62.207 65.2202 61.3102C64.8931 60.248 64.847 59.1262 64.5374 58.062C64.2003 55.4972 63.8789 52.9175 63.9739 50.3255C63.7878 49.9371 63.5998 49.5497 63.4294 49.1556C63.3614 48.5886 63.0366 48.1012 62.9252 47.5447C62.3986 45.6571 62.3638 43.6725 62.4997 41.731ZM64.1168 42.2155C64.5716 42.4927 65.019 42.7829 65.4481 43.1011C66.6087 44.0758 67.4101 45.5679 67.2704 47.1095C67.0839 48.0616 66.7587 49.0564 65.9652 49.6788C65.3385 50.5785 64.9894 51.7133 65.0668 52.8145C65.1164 53.5186 65.1512 54.2257 65.2479 54.9267C65.8126 55.429 66.5374 55.5524 67.2692 55.4842C67.3491 55.6502 67.5136 55.9823 67.5935 56.1484C67.2798 56.3034 66.9681 56.4621 66.6581 56.6199C66.2127 56.4704 65.7654 56.3265 65.3254 56.1649C65.4203 56.6113 65.4875 57.0626 65.5491 57.5167C65.8993 57.5475 66.2452 57.6293 66.5856 57.7231C66.7065 57.6639 66.9426 57.5437 67.0625 57.4826C67.1645 57.5096 67.3704 57.5581 67.4715 57.5833C67.5373 57.7171 67.667 57.9855 67.7309 58.1202C67.4023 58.3735 67.0483 58.5909 66.6916 58.7981C66.3422 58.7506 65.9946 58.693 65.6497 58.6177C65.8343 59.3089 66.0171 60.0056 66.101 60.7178C66.319 61.5522 66.5334 62.3885 66.7441 63.2267C66.7773 63.3422 66.8448 63.575 66.8789 63.6923C67.1327 64.8477 67.3191 66.0443 67.1722 67.2295C67.1288 67.888 67.1818 68.5486 67.1782 69.2078C67.148 69.8876 67.3721 70.5377 67.452 71.2055C67.3632 72.1172 66.7316 72.8522 66.5446 73.7395C67.1366 74.1768 67.852 74.2772 68.5689 74.2025C68.9739 74.0033 69.3882 73.8179 69.8139 73.6686C69.9049 73.8336 70.0842 74.1675 70.1734 74.3335C69.2506 75.2585 67.5189 75.7035 66.4825 74.7491C66.4832 75.4805 66.4043 76.2198 66.5253 76.9457C66.6813 76.8872 66.9962 76.771 67.1522 76.7125C67.6183 76.7748 68.0888 76.7955 68.5583 76.8189C68.8821 76.6518 69.203 76.4837 69.5286 76.3156C69.9004 75.7593 70.279 74.9882 71.0837 75.1406C71.0924 75.3128 71.1125 75.6579 71.1211 75.8301C70.8305 76.2219 70.5445 76.6138 70.2725 77.0194C69.568 77.4106 68.843 77.7797 68.0424 77.9271C67.4942 77.9089 66.9682 77.7609 66.4485 77.598C66.4985 77.7143 66.6001 77.9459 66.65 78.0622C66.6716 78.3509 66.707 78.6395 66.7369 78.9263C66.8003 79.2517 66.8545 79.5772 66.9198 79.9016C66.996 80.4436 67.0832 80.9846 67.1335 81.5304C67.0918 82.5389 67.1982 83.5556 67.0583 84.5583C67.045 85.025 67.0114 85.4928 66.9768 85.9587C66.8175 87.4754 66.5701 88.9788 66.2133 90.4636C65.7979 92.0247 65.2154 93.5361 64.7518 95.0846C63.877 97.2675 62.5832 99.371 60.5773 100.683C59.5233 101.382 58.4535 102.077 57.5406 102.963C57.307 103.307 57.0874 103.66 56.8408 103.993C56.6748 104.597 56.71 105.228 56.7024 105.847C56.7861 106.527 57.1062 107.133 57.3939 107.744C57.5667 108.85 58.3425 109.744 58.7324 110.779C58.8991 111.937 59.741 112.869 60.1349 113.958C60.3442 115.364 61.5332 116.431 61.737 117.839C62.425 119.268 63.1537 120.681 63.8962 122.085C64.6734 122.786 64.8389 123.909 65.5103 124.694C65.8726 125.118 66.104 125.632 66.3862 126.109C66.7982 126.498 67.0067 127.04 67.3893 127.454C68.4124 128.861 69.6173 130.334 71.3614 130.826C72.4525 131.285 73.6486 131.28 74.805 131.166C77.394 130.598 79.8078 129.485 82.1017 128.178C82.2954 127.951 82.5292 127.763 82.7995 127.637C83.8464 127.101 84.8961 126.576 85.9383 126.036C88.4297 125.03 90.9676 124.052 93.6295 123.568C96.2655 122.978 98.9517 122.656 101.642 122.42C101.869 122.414 102.096 122.407 102.326 122.404C103.376 122.211 104.451 122.212 105.497 121.974C106.163 121.877 106.829 121.777 107.482 121.607C109.325 121.296 111.158 120.921 112.962 120.432C113.825 120.246 114.656 119.943 115.503 119.7C115.893 119.627 116.257 119.472 116.631 119.337C116.956 119.279 117.268 119.171 117.586 119.065C116.001 118.415 114.36 117.834 112.646 117.661C111.094 117.373 109.514 117.641 107.954 117.485C106.327 117.45 104.605 117.321 103.154 116.515C102.967 116.412 102.778 116.315 102.589 116.221C102.033 115.791 101.402 115.388 101.085 114.732C100.715 113.997 100.248 113.271 100.2 112.429C100.042 111.397 100.526 110.431 100.825 109.472C101.047 109.178 101.26 108.877 101.466 108.568C101.199 108.336 100.938 108.098 100.671 107.869C100.058 107.236 99.5676 106.5 99.0725 105.774C99.0801 105.666 99.0961 105.447 99.1045 105.335C98.5154 104.393 98.6691 103.248 98.6725 102.192C98.9415 100.612 99.6528 99.1166 100.724 97.9182C99.8342 97.584 98.9857 97.1402 98.2381 96.5522C97.6971 96.1285 97.1716 95.6712 96.7428 95.1346C96.2148 94.2071 95.7616 93.2392 95.2881 92.2863C95.0781 91.039 95.2143 89.5271 96.3139 88.7211C96.4987 88.5549 96.6976 88.4072 96.9143 88.2807C98.1962 87.8557 99.5275 87.6007 100.868 87.4317C101.252 87.3521 101.637 87.2678 102.029 87.2307C102.053 87.1815 102.104 87.0857 102.128 87.0365C101.183 86.96 100.222 86.9429 99.3034 87.2153C98.3129 87.4873 97.2892 87.7669 96.2542 87.6457C95.478 87.5949 94.7929 87.212 94.1823 86.7563C93.8258 86.3617 93.5217 85.9242 93.1303 85.566C92.6251 84.3272 92.3046 83.027 92.292 81.6837C92.4277 80.1024 92.5874 78.3811 93.6503 77.1153C94.199 76.4318 94.9832 76.0604 95.7855 75.7611C95.7288 74.582 94.9936 73.6764 94.3565 72.7534C94.6304 72.607 94.9061 72.4596 95.1846 72.3132C96.0939 73.2277 96.6658 74.465 96.8343 75.7405C98.0616 75.8334 99.3019 75.9198 100.526 75.7377C101.036 75.6174 101.548 75.4896 102.054 75.348C102.444 75.347 102.833 75.3414 103.224 75.333C103.802 74.7483 104.444 74.2336 105.051 73.6829C106.762 72.317 108.79 71.4746 110.715 70.4645C110.927 70.712 111.133 70.9651 111.337 71.221C110.088 71.8874 108.797 72.4772 107.563 73.1703C106.883 73.6632 106.195 74.1431 105.524 74.6497C105.149 74.9895 104.769 75.3292 104.429 75.7066C104.845 75.9804 105.239 76.2932 105.514 76.7152C105.336 76.8804 105.157 77.0456 104.982 77.2116C104.102 76.7301 103.186 76.2211 102.141 76.3768C101.653 76.5183 101.159 76.6376 100.685 76.8161C100.17 78.1909 100.127 79.7132 100.487 81.1308C100.696 81.8884 101.048 82.6218 101.592 83.1974C101.371 83.3657 101.149 83.5302 100.928 83.6938C100.821 83.6483 100.609 83.5564 100.502 83.5108C100.181 82.8753 99.845 82.2473 99.5478 81.5995C99.4261 80.7811 99.187 79.9783 99.1661 79.148C99.196 78.422 99.3983 77.7151 99.4319 76.9872C98.7839 77.0011 98.1374 76.954 97.4945 76.9096C96.72 76.8254 95.9145 76.8174 95.1683 77.0672C93.9492 77.8621 93.664 79.3824 93.3773 80.7038C93.3028 81.3968 93.3051 82.0995 93.3731 82.7942C93.4284 83.7835 93.9236 84.6603 94.4268 85.489C94.6749 85.7482 95.0634 86.0824 95.4318 85.8205C96.0625 85.5946 96.4606 84.9576 96.5114 84.3092C96.6637 82.587 96.0409 80.7113 94.626 79.6523C94.7221 79.3757 94.821 79.1 94.9199 78.8243C95.4171 78.9522 95.8588 79.2221 96.1425 79.6607C96.4639 80.1916 97.0336 80.617 97.0616 81.2834C97.7726 82.6891 97.8613 84.4466 97.0409 85.8236C96.7916 86.0504 96.548 86.2836 96.3052 86.514C96.8115 86.5002 97.3169 86.4845 97.8241 86.4678C98.0331 86.4311 98.243 86.3963 98.4548 86.3651C98.7014 86.293 98.95 86.2245 99.2013 86.1616C102.172 85.7734 105.251 86.4009 108.157 85.4744C109.321 85.0604 110.567 84.8514 111.652 84.2362C111.757 84.241 111.964 84.2515 112.069 84.2563C112.624 83.9551 113.189 83.6631 113.77 83.4089C114.727 83.2909 115.502 82.6316 116.378 82.2716C117.113 81.9996 117.596 81.3749 118.152 80.8552C118.093 80.7575 117.975 80.5621 117.916 80.4644C118.151 80.1961 118.421 79.9516 118.626 79.6566C118.957 78.1035 118.622 76.4552 117.797 75.1077C116.686 72.4791 114.232 70.6278 111.597 69.6999C110.423 69.4982 109.247 69.2559 108.051 69.2701C107.826 69.2755 107.602 69.2808 107.38 69.2843C107.164 69.3201 106.949 69.3596 106.736 69.401C106.388 69.4016 106.042 69.406 105.696 69.4168C105.35 69.4629 105.004 69.4904 104.659 69.5151C102.912 69.7194 101.164 69.9145 99.43 70.2261C97.5472 70.5157 95.6448 70.6573 93.7601 70.9432C92.4418 71.2101 91.0938 71.1995 89.7629 71.3731C88.9094 71.5126 88.0742 71.7566 87.3398 72.2257C87.9089 72.8233 88.6102 73.2747 89.1747 73.877C90.428 75.1205 91.2697 76.678 92.0126 78.2603C91.7266 78.4059 91.4407 78.5515 91.1603 78.6989C90.7196 77.9337 90.4558 77.0459 89.8244 76.408C89.3266 75.5534 88.6961 74.7757 87.9213 74.1573C87.7694 74.0186 87.6221 73.8753 87.4776 73.7328C86.064 72.7358 84.3413 72.3725 82.6567 72.1662C83.3127 73.5094 84.0424 74.8197 84.6707 76.1769C85.2344 77.9365 85.7152 79.766 85.7379 81.6221C86.075 82.0196 86.3873 82.4367 86.7152 82.8435C87.0708 83.2501 87.422 83.666 87.7878 84.0652C89.3275 85.9991 90.6924 88.0685 91.6551 90.3519C92.1818 91.8747 92.4951 93.4574 92.7437 95.0498C92.7461 95.2553 92.7504 95.4599 92.7546 95.6644C92.866 96.4626 92.9033 97.2705 92.9499 98.0738C92.8267 100.62 92.8474 103.206 92.1887 105.69C91.9534 106.944 91.6051 108.189 91.0394 109.337C90.1771 111.699 88.7036 113.792 87.0368 115.656C86.8408 115.814 86.6447 115.967 86.4486 116.12C85.9222 116.683 85.2315 117.051 84.6873 117.588C83.8768 118.04 83.0466 118.449 82.2117 118.853C82.1233 118.538 82.0423 118.224 81.9734 117.906C85.1931 116.478 87.7328 113.72 89.31 110.608C91.7248 105.943 92.1132 100.532 91.6833 95.3806C91.5195 92.7136 90.6729 90.1063 89.2926 87.8241C88.8063 87.398 88.6339 86.7355 88.177 86.2852C87.9664 85.9673 87.7705 85.6419 87.5185 85.3568C86.7014 84.1351 85.4358 83.2324 84.8122 81.889C84.6655 80.0403 84.2514 78.2278 83.7247 76.4541C82.9957 74.8625 82.2076 73.2962 81.1577 71.8911C80.8292 71.5287 80.5964 71.0943 80.2827 70.7198C79.6705 70.0558 79.1191 69.3377 78.5355 68.6476C78.3424 68.3324 78.1503 68.0144 77.8718 67.7683C77.2913 66.7467 76.7679 65.6914 76.2539 64.6361C75.8803 63.5556 75.6416 62.4297 75.4594 61.3007C75.1445 59.1125 75.2662 56.8833 74.9171 54.7009C74.8752 54.418 74.8287 54.135 74.7961 53.852C74.6972 53.3611 74.5816 52.874 74.479 52.385C73.9453 50.4151 72.8733 48.6426 71.7271 46.9753C71.4845 46.7132 71.2686 46.4259 71.0554 46.1395C70.8407 45.8865 70.6461 45.6139 70.4544 45.3422C68.9859 43.6577 67.2515 41.953 64.9718 41.5131C64.6669 41.7218 64.4031 41.9838 64.1168 42.2155ZM63.8069 46.6986C63.9417 47.6706 64.3915 48.5496 64.5993 49.5007C65.3129 48.8401 66.2495 48.1519 66.2017 47.0635C66.1611 46.3176 66.1345 45.4485 65.6053 44.87C65.096 44.084 64.2283 43.6756 63.5371 43.0798C63.3468 44.2847 63.5677 45.5172 63.8069 46.6986ZM97.5501 89.2787C96.9066 89.7666 96.4318 90.4218 96.2913 91.2273C96.4984 91.9535 96.5577 92.727 96.9071 93.404C97.4303 94.5778 98.4603 95.41 99.4949 96.1191C99.6873 94.4346 99.3237 92.6801 98.3811 91.2622C98.0332 90.7796 97.4354 90.4312 97.3761 89.79C97.5458 89.6944 97.8897 89.503 98.0621 89.4083C98.5627 89.8759 99.0735 90.3637 99.3633 90.9967C99.7413 91.8031 100.274 92.5612 100.413 93.4591C100.636 94.4675 100.636 95.522 100.489 96.5424C100.669 96.6503 100.849 96.7582 101.032 96.8652C101.655 96.8218 102.21 97.1594 102.822 97.2151C104.471 97.4161 106.133 97.2179 107.768 96.9663C108.383 96.8461 108.998 96.7074 109.609 96.5567C110.319 96.4784 111.019 96.3196 111.706 96.1276C111.997 96.0885 112.289 96.0447 112.584 96.0083C116.009 95.3307 119.622 95.9442 122.941 94.6842C123.376 94.4653 123.724 94.1137 124.109 93.8202C125.443 92.5857 125.684 90.5861 125.303 88.8891C124.967 87.4066 124.544 85.896 123.651 84.6434C123.389 84.3213 123.162 83.9721 122.951 83.62C122.525 83.1676 122.117 82.6993 121.65 82.2916C121.263 82.026 120.884 81.7501 120.514 81.4621C120.119 81.3474 119.724 81.228 119.332 81.1114C119.131 81.3555 118.938 81.6003 118.742 81.8462C118.521 82.0329 118.307 82.2234 118.108 82.4312C117.197 82.9396 116.264 83.4121 115.318 83.8541C114.62 83.8842 114.065 84.39 113.385 84.506C112.618 84.6875 112.011 85.3242 111.208 85.3569C110.047 85.98 108.778 86.3383 107.53 86.7389C106.698 86.9348 105.823 86.9809 105.043 87.3569C104.229 87.6832 103.161 87.3956 102.535 88.1324C101.582 89.0031 101.478 90.4009 101.486 91.6118C101.911 91.867 101.652 92.3123 101.592 92.6868C101.357 92.7088 101.123 92.7281 100.889 92.7474C99.9231 91.462 100.445 89.8094 100.933 88.4487C100.683 88.5107 100.436 88.5689 100.189 88.6253C99.3957 88.8338 98.5518 88.8965 97.8309 89.3192C97.7605 89.3086 97.6206 89.2893 97.5501 89.2787ZM101.971 98.1545C102.573 98.775 102.887 99.6069 103.242 100.381C103.535 101.672 103.315 103.02 102.955 104.274C102.833 104.794 102.419 105.153 101.98 105.412C101.816 105.123 101.658 104.83 101.502 104.538C101.576 104.486 101.719 104.38 101.792 104.327C101.962 103.716 102.206 103.122 102.292 102.493C102.4 101.757 102.192 101.029 102.15 100.298C101.856 99.9255 101.829 99.135 101.267 99.1076C99.5672 100.965 99.2015 104.034 100.611 106.16C101.01 106.925 101.769 107.389 102.433 107.899C103.95 108.606 105.667 108.845 107.329 108.665C109.273 108.372 111.19 107.907 113.133 107.599C114.646 107.468 116.156 107.333 117.672 107.225C118.076 107.161 118.482 107.101 118.891 107.046C121.074 106.74 123.279 105.887 124.674 104.106C125.207 103.227 125.561 102.243 125.636 101.215C125.545 99.5256 124.78 97.999 123.944 96.5664C123.631 96.3122 123.443 95.9525 123.239 95.6152C122.847 95.8078 122.456 96.0023 122.06 96.1783C121.256 96.3526 120.462 96.5713 119.641 96.6477C118.531 96.6344 117.431 96.8322 116.321 96.7653C114.437 96.6771 112.57 97.0073 110.737 97.4039C110.385 97.462 110.039 97.5386 109.69 97.6022C109.248 97.6786 108.811 97.7734 108.378 97.8802C107.883 98.2458 107.372 98.6059 106.993 99.0984C106.384 99.8222 106.274 100.798 105.916 101.645C105.921 101.733 105.932 101.906 105.937 101.992C105.788 102.753 105.886 103.53 105.959 104.294C106.008 104.741 106.059 105.189 106.108 105.637C105.888 105.747 105.669 105.856 105.452 105.967C105.312 105.848 105.184 105.72 105.068 105.584C104.866 104.644 104.825 103.682 104.844 102.725C104.845 102.257 104.878 101.792 104.899 101.326C105.177 100.204 105.634 99.1305 106.339 98.2052C105.866 98.1929 105.395 98.2213 104.929 98.2839C103.942 98.3291 102.941 98.3974 101.971 98.1545ZM101.359 110.917C101.32 111.392 101.235 111.861 101.186 112.334C101.311 112.818 101.406 113.318 101.663 113.756C102.052 114.541 102.842 114.994 103.493 115.538C104.177 115.75 104.85 116.004 105.544 116.182C107.304 116.569 109.113 116.417 110.9 116.413C111.821 116.539 112.781 116.408 113.679 116.71C114.75 117.059 115.829 117.39 116.895 117.763C117.585 118.013 118.317 118.228 119.058 118.111C119.367 118.065 119.674 118.029 119.992 118.014C120.334 117.752 120.66 117.465 121.015 117.219C122.724 114.909 123.522 111.871 122.933 109.035C122.734 108.399 122.365 107.833 122.074 107.24C121.724 107.39 121.372 107.539 121.005 107.64C120.333 107.834 119.65 107.99 118.963 108.106C117.056 108.329 115.139 108.441 113.229 108.637C112.076 108.794 110.939 109.034 109.79 109.215C109.384 109.27 108.981 109.327 108.575 109.378C107.91 110.272 107.364 111.284 107.304 112.42C107.323 112.933 107.368 113.445 107.413 113.958C107.455 114.067 107.538 114.285 107.579 114.394C107.339 114.507 107.102 114.62 106.866 114.736C106.706 114.55 106.495 114.395 106.418 114.158C106.176 113.08 106.267 111.958 106.582 110.906C106.788 110.499 106.919 110.063 107.024 109.622C106.366 109.643 105.709 109.648 105.055 109.677C104.45 109.615 103.844 109.543 103.265 109.347C104.098 109.892 104.024 111.001 104.328 111.849C104.292 112.262 104.252 112.677 104.239 113.093C104.053 113.641 103.89 114.293 103.348 114.597C103.001 114.896 102.393 114.454 102.667 114.049C103.189 113.18 103.355 112.129 103.134 111.142C102.893 110.587 102.619 110.043 102.305 109.527C101.777 109.763 101.65 110.453 101.359 110.917Z"/>
</mask>
<path d="M62.4997 41.731C63.1475 41.3199 63.6893 40.7096 64.4591 40.5151C65.7678 40.339 66.9974 41.0068 68.001 41.7781C70.0316 43.3437 71.7326 45.3069 73.2363 47.3753C73.8589 48.4568 74.3939 49.5898 74.9565 50.704C75.5305 52.3515 75.9993 54.0617 76.1147 55.8078C76.1431 56.0187 76.1687 56.2287 76.1925 56.4396C76.2162 57.28 76.3342 58.1142 76.3219 58.9568C76.4177 59.9115 76.396 60.8773 76.5871 61.823C76.7253 62.6283 76.7722 63.4686 77.1054 64.2235C77.7383 65.4576 78.2773 66.7581 79.1859 67.8263C80.1315 69.0221 81.2216 70.1094 82.0631 71.3836C82.8639 70.9992 83.7264 71.3243 84.5606 71.3433C85.1404 71.4964 85.6966 71.7313 86.2836 71.8575C86.9271 71.3696 87.6051 70.899 88.3847 70.6554C89.0753 70.5198 89.7765 70.4462 90.471 70.3458C91.4179 70.189 92.3787 70.1644 93.3226 69.9881C93.8414 69.8983 94.3648 69.8176 94.8852 69.7129C98.0785 69.3555 101.272 68.9704 104.467 68.6028C105.616 68.475 106.772 68.4323 107.92 68.2916C108.377 68.2725 108.835 68.2627 109.293 68.2548C110.488 68.4433 111.76 68.4507 112.834 69.0771C115.814 70.2728 118.143 72.7898 119.373 75.7267C119.664 76.905 119.952 78.0944 119.898 79.3206C119.831 79.5266 119.764 79.7326 119.698 79.9377C120.279 80.2649 120.902 80.5048 121.5 80.8022C122.385 81.5225 123.273 82.2641 123.927 83.2111C124.574 83.9109 124.846 84.8597 125.325 85.67C125.737 86.3364 125.895 87.1036 126.16 87.8303C126.469 88.8696 126.499 89.9507 126.498 91.0264C126.387 91.5198 126.326 92.0248 126.202 92.5154C125.717 93.5753 124.924 94.4133 124.109 95.2256C124.952 96.0323 125.295 97.1769 125.862 98.168C126.232 98.8069 126.491 99.4947 126.653 100.214C126.624 101.174 126.748 102.17 126.381 103.084C125.856 104.757 124.51 106.111 122.913 106.794C123.827 107.98 124.151 109.534 124.183 111.016C124.273 112.22 123.825 113.352 123.616 114.515C123.113 115.603 122.707 116.764 121.917 117.689C121.363 118.445 120.477 118.817 119.75 119.369C118.484 119.725 117.305 120.356 116.037 120.685C115.566 120.888 115.108 121.116 114.649 121.34C113.115 121.608 111.578 121.884 110.065 122.251C108.637 122.685 107.165 122.956 105.676 123.042C104.35 123.258 103.007 123.349 101.669 123.477C99.5906 123.688 97.5 123.792 95.439 124.152C95.2411 124.183 95.0469 124.217 94.8519 124.253C92.7569 124.651 90.6569 125.116 88.69 125.943C87.8541 126.464 86.8542 126.576 86.0116 127.079C84.8121 127.753 83.4823 128.221 82.4158 129.11C81.2575 129.727 80.1155 130.427 78.8367 130.762C78.317 130.978 77.8293 131.257 77.3134 131.48C76.188 131.783 75.0666 132.131 73.8972 132.234C72.3404 132.42 70.7908 131.936 69.4558 131.162C68.7703 130.723 68.2996 130.036 67.6922 129.509C67.018 128.586 66.3732 127.639 65.6318 126.772C65.3506 126.288 65.1494 125.733 64.706 125.368C64.211 124.643 64.0117 123.708 63.3408 123.116C62.471 121.517 61.6842 119.875 60.8448 118.263C60.5936 117.843 60.5207 117.357 60.3489 116.906C59.9169 115.939 59.354 115.034 58.9534 114.051C58.6487 112.513 57.4549 111.295 57.114 109.749C56.6433 108.797 56.3323 107.785 55.9446 106.8C55.6814 105.995 55.6982 105.116 55.3001 104.357C55.6057 103.725 55.9791 103.126 56.4949 102.643C57.456 101.642 58.6637 100.934 59.8379 100.22C60.2266 99.8205 60.6489 99.4545 61.0992 99.1254C61.3211 98.8312 61.5496 98.5407 61.7864 98.2576C62.6897 97.2076 63.2479 95.9223 63.7821 94.6584C64.3056 93.6973 64.5736 92.6131 64.8382 91.5586C65.9759 87.2185 66.5026 82.6182 65.7167 78.1681C65.6498 77.626 65.6106 77.0792 65.5326 76.5381C65.3773 75.5394 65.3345 74.5019 65.5634 73.5097C65.5638 72.6755 66.2667 72.0668 66.4055 71.29C66.2178 70.4331 66.131 69.5691 66.1015 68.6944C66.1956 67.1227 66.1942 65.5229 65.8136 63.9861C65.6192 63.0932 65.3934 62.207 65.2202 61.3102C64.8931 60.248 64.847 59.1262 64.5374 58.062C64.2003 55.4972 63.8789 52.9175 63.9739 50.3255C63.7878 49.9371 63.5998 49.5497 63.4294 49.1556C63.3614 48.5886 63.0366 48.1012 62.9252 47.5447C62.3986 45.6571 62.3638 43.6725 62.4997 41.731ZM64.1168 42.2155C64.5716 42.4927 65.019 42.7829 65.4481 43.1011C66.6087 44.0758 67.4101 45.5679 67.2704 47.1095C67.0839 48.0616 66.7587 49.0564 65.9652 49.6788C65.3385 50.5785 64.9894 51.7133 65.0668 52.8145C65.1164 53.5186 65.1512 54.2257 65.2479 54.9267C65.8126 55.429 66.5374 55.5524 67.2692 55.4842C67.3491 55.6502 67.5136 55.9823 67.5935 56.1484C67.2798 56.3034 66.9681 56.4621 66.6581 56.6199C66.2127 56.4704 65.7654 56.3265 65.3254 56.1649C65.4203 56.6113 65.4875 57.0626 65.5491 57.5167C65.8993 57.5475 66.2452 57.6293 66.5856 57.7231C66.7065 57.6639 66.9426 57.5437 67.0625 57.4826C67.1645 57.5096 67.3704 57.5581 67.4715 57.5833C67.5373 57.7171 67.667 57.9855 67.7309 58.1202C67.4023 58.3735 67.0483 58.5909 66.6916 58.7981C66.3422 58.7506 65.9946 58.693 65.6497 58.6177C65.8343 59.3089 66.0171 60.0056 66.101 60.7178C66.319 61.5522 66.5334 62.3885 66.7441 63.2267C66.7773 63.3422 66.8448 63.575 66.8789 63.6923C67.1327 64.8477 67.3191 66.0443 67.1722 67.2295C67.1288 67.888 67.1818 68.5486 67.1782 69.2078C67.148 69.8876 67.3721 70.5377 67.452 71.2055C67.3632 72.1172 66.7316 72.8522 66.5446 73.7395C67.1366 74.1768 67.852 74.2772 68.5689 74.2025C68.9739 74.0033 69.3882 73.8179 69.8139 73.6686C69.9049 73.8336 70.0842 74.1675 70.1734 74.3335C69.2506 75.2585 67.5189 75.7035 66.4825 74.7491C66.4832 75.4805 66.4043 76.2198 66.5253 76.9457C66.6813 76.8872 66.9962 76.771 67.1522 76.7125C67.6183 76.7748 68.0888 76.7955 68.5583 76.8189C68.8821 76.6518 69.203 76.4837 69.5286 76.3156C69.9004 75.7593 70.279 74.9882 71.0837 75.1406C71.0924 75.3128 71.1125 75.6579 71.1211 75.8301C70.8305 76.2219 70.5445 76.6138 70.2725 77.0194C69.568 77.4106 68.843 77.7797 68.0424 77.9271C67.4942 77.9089 66.9682 77.7609 66.4485 77.598C66.4985 77.7143 66.6001 77.9459 66.65 78.0622C66.6716 78.3509 66.707 78.6395 66.7369 78.9263C66.8003 79.2517 66.8545 79.5772 66.9198 79.9016C66.996 80.4436 67.0832 80.9846 67.1335 81.5304C67.0918 82.5389 67.1982 83.5556 67.0583 84.5583C67.045 85.025 67.0114 85.4928 66.9768 85.9587C66.8175 87.4754 66.5701 88.9788 66.2133 90.4636C65.7979 92.0247 65.2154 93.5361 64.7518 95.0846C63.877 97.2675 62.5832 99.371 60.5773 100.683C59.5233 101.382 58.4535 102.077 57.5406 102.963C57.307 103.307 57.0874 103.66 56.8408 103.993C56.6748 104.597 56.71 105.228 56.7024 105.847C56.7861 106.527 57.1062 107.133 57.3939 107.744C57.5667 108.85 58.3425 109.744 58.7324 110.779C58.8991 111.937 59.741 112.869 60.1349 113.958C60.3442 115.364 61.5332 116.431 61.737 117.839C62.425 119.268 63.1537 120.681 63.8962 122.085C64.6734 122.786 64.8389 123.909 65.5103 124.694C65.8726 125.118 66.104 125.632 66.3862 126.109C66.7982 126.498 67.0067 127.04 67.3893 127.454C68.4124 128.861 69.6173 130.334 71.3614 130.826C72.4525 131.285 73.6486 131.28 74.805 131.166C77.394 130.598 79.8078 129.485 82.1017 128.178C82.2954 127.951 82.5292 127.763 82.7995 127.637C83.8464 127.101 84.8961 126.576 85.9383 126.036C88.4297 125.03 90.9676 124.052 93.6295 123.568C96.2655 122.978 98.9517 122.656 101.642 122.42C101.869 122.414 102.096 122.407 102.326 122.404C103.376 122.211 104.451 122.212 105.497 121.974C106.163 121.877 106.829 121.777 107.482 121.607C109.325 121.296 111.158 120.921 112.962 120.432C113.825 120.246 114.656 119.943 115.503 119.7C115.893 119.627 116.257 119.472 116.631 119.337C116.956 119.279 117.268 119.171 117.586 119.065C116.001 118.415 114.36 117.834 112.646 117.661C111.094 117.373 109.514 117.641 107.954 117.485C106.327 117.45 104.605 117.321 103.154 116.515C102.967 116.412 102.778 116.315 102.589 116.221C102.033 115.791 101.402 115.388 101.085 114.732C100.715 113.997 100.248 113.271 100.2 112.429C100.042 111.397 100.526 110.431 100.825 109.472C101.047 109.178 101.26 108.877 101.466 108.568C101.199 108.336 100.938 108.098 100.671 107.869C100.058 107.236 99.5676 106.5 99.0725 105.774C99.0801 105.666 99.0961 105.447 99.1045 105.335C98.5154 104.393 98.6691 103.248 98.6725 102.192C98.9415 100.612 99.6528 99.1166 100.724 97.9182C99.8342 97.584 98.9857 97.1402 98.2381 96.5522C97.6971 96.1285 97.1716 95.6712 96.7428 95.1346C96.2148 94.2071 95.7616 93.2392 95.2881 92.2863C95.0781 91.039 95.2143 89.5271 96.3139 88.7211C96.4987 88.5549 96.6976 88.4072 96.9143 88.2807C98.1962 87.8557 99.5275 87.6007 100.868 87.4317C101.252 87.3521 101.637 87.2678 102.029 87.2307C102.053 87.1815 102.104 87.0857 102.128 87.0365C101.183 86.96 100.222 86.9429 99.3034 87.2153C98.3129 87.4873 97.2892 87.7669 96.2542 87.6457C95.478 87.5949 94.7929 87.212 94.1823 86.7563C93.8258 86.3617 93.5217 85.9242 93.1303 85.566C92.6251 84.3272 92.3046 83.027 92.292 81.6837C92.4277 80.1024 92.5874 78.3811 93.6503 77.1153C94.199 76.4318 94.9832 76.0604 95.7855 75.7611C95.7288 74.582 94.9936 73.6764 94.3565 72.7534C94.6304 72.607 94.9061 72.4596 95.1846 72.3132C96.0939 73.2277 96.6658 74.465 96.8343 75.7405C98.0616 75.8334 99.3019 75.9198 100.526 75.7377C101.036 75.6174 101.548 75.4896 102.054 75.348C102.444 75.347 102.833 75.3414 103.224 75.333C103.802 74.7483 104.444 74.2336 105.051 73.6829C106.762 72.317 108.79 71.4746 110.715 70.4645C110.927 70.712 111.133 70.9651 111.337 71.221C110.088 71.8874 108.797 72.4772 107.563 73.1703C106.883 73.6632 106.195 74.1431 105.524 74.6497C105.149 74.9895 104.769 75.3292 104.429 75.7066C104.845 75.9804 105.239 76.2932 105.514 76.7152C105.336 76.8804 105.157 77.0456 104.982 77.2116C104.102 76.7301 103.186 76.2211 102.141 76.3768C101.653 76.5183 101.159 76.6376 100.685 76.8161C100.17 78.1909 100.127 79.7132 100.487 81.1308C100.696 81.8884 101.048 82.6218 101.592 83.1974C101.371 83.3657 101.149 83.5302 100.928 83.6938C100.821 83.6483 100.609 83.5564 100.502 83.5108C100.181 82.8753 99.845 82.2473 99.5478 81.5995C99.4261 80.7811 99.187 79.9783 99.1661 79.148C99.196 78.422 99.3983 77.7151 99.4319 76.9872C98.7839 77.0011 98.1374 76.954 97.4945 76.9096C96.72 76.8254 95.9145 76.8174 95.1683 77.0672C93.9492 77.8621 93.664 79.3824 93.3773 80.7038C93.3028 81.3968 93.3051 82.0995 93.3731 82.7942C93.4284 83.7835 93.9236 84.6603 94.4268 85.489C94.6749 85.7482 95.0634 86.0824 95.4318 85.8205C96.0625 85.5946 96.4606 84.9576 96.5114 84.3092C96.6637 82.587 96.0409 80.7113 94.626 79.6523C94.7221 79.3757 94.821 79.1 94.9199 78.8243C95.4171 78.9522 95.8588 79.2221 96.1425 79.6607C96.4639 80.1916 97.0336 80.617 97.0616 81.2834C97.7726 82.6891 97.8613 84.4466 97.0409 85.8236C96.7916 86.0504 96.548 86.2836 96.3052 86.514C96.8115 86.5002 97.3169 86.4845 97.8241 86.4678C98.0331 86.4311 98.243 86.3963 98.4548 86.3651C98.7014 86.293 98.95 86.2245 99.2013 86.1616C102.172 85.7734 105.251 86.4009 108.157 85.4744C109.321 85.0604 110.567 84.8514 111.652 84.2362C111.757 84.241 111.964 84.2515 112.069 84.2563C112.624 83.9551 113.189 83.6631 113.77 83.4089C114.727 83.2909 115.502 82.6316 116.378 82.2716C117.113 81.9996 117.596 81.3749 118.152 80.8552C118.093 80.7575 117.975 80.5621 117.916 80.4644C118.151 80.1961 118.421 79.9516 118.626 79.6566C118.957 78.1035 118.622 76.4552 117.797 75.1077C116.686 72.4791 114.232 70.6278 111.597 69.6999C110.423 69.4982 109.247 69.2559 108.051 69.2701C107.826 69.2755 107.602 69.2808 107.38 69.2843C107.164 69.3201 106.949 69.3596 106.736 69.401C106.388 69.4016 106.042 69.406 105.696 69.4168C105.35 69.4629 105.004 69.4904 104.659 69.5151C102.912 69.7194 101.164 69.9145 99.43 70.2261C97.5472 70.5157 95.6448 70.6573 93.7601 70.9432C92.4418 71.2101 91.0938 71.1995 89.7629 71.3731C88.9094 71.5126 88.0742 71.7566 87.3398 72.2257C87.9089 72.8233 88.6102 73.2747 89.1747 73.877C90.428 75.1205 91.2697 76.678 92.0126 78.2603C91.7266 78.4059 91.4407 78.5515 91.1603 78.6989C90.7196 77.9337 90.4558 77.0459 89.8244 76.408C89.3266 75.5534 88.6961 74.7757 87.9213 74.1573C87.7694 74.0186 87.6221 73.8753 87.4776 73.7328C86.064 72.7358 84.3413 72.3725 82.6567 72.1662C83.3127 73.5094 84.0424 74.8197 84.6707 76.1769C85.2344 77.9365 85.7152 79.766 85.7379 81.6221C86.075 82.0196 86.3873 82.4367 86.7152 82.8435C87.0708 83.2501 87.422 83.666 87.7878 84.0652C89.3275 85.9991 90.6924 88.0685 91.6551 90.3519C92.1818 91.8747 92.4951 93.4574 92.7437 95.0498C92.7461 95.2553 92.7504 95.4599 92.7546 95.6644C92.866 96.4626 92.9033 97.2705 92.9499 98.0738C92.8267 100.62 92.8474 103.206 92.1887 105.69C91.9534 106.944 91.6051 108.189 91.0394 109.337C90.1771 111.699 88.7036 113.792 87.0368 115.656C86.8408 115.814 86.6447 115.967 86.4486 116.12C85.9222 116.683 85.2315 117.051 84.6873 117.588C83.8768 118.04 83.0466 118.449 82.2117 118.853C82.1233 118.538 82.0423 118.224 81.9734 117.906C85.1931 116.478 87.7328 113.72 89.31 110.608C91.7248 105.943 92.1132 100.532 91.6833 95.3806C91.5195 92.7136 90.6729 90.1063 89.2926 87.8241C88.8063 87.398 88.6339 86.7355 88.177 86.2852C87.9664 85.9673 87.7705 85.6419 87.5185 85.3568C86.7014 84.1351 85.4358 83.2324 84.8122 81.889C84.6655 80.0403 84.2514 78.2278 83.7247 76.4541C82.9957 74.8625 82.2076 73.2962 81.1577 71.8911C80.8292 71.5287 80.5964 71.0943 80.2827 70.7198C79.6705 70.0558 79.1191 69.3377 78.5355 68.6476C78.3424 68.3324 78.1503 68.0144 77.8718 67.7683C77.2913 66.7467 76.7679 65.6914 76.2539 64.6361C75.8803 63.5556 75.6416 62.4297 75.4594 61.3007C75.1445 59.1125 75.2662 56.8833 74.9171 54.7009C74.8752 54.418 74.8287 54.135 74.7961 53.852C74.6972 53.3611 74.5816 52.874 74.479 52.385C73.9453 50.4151 72.8733 48.6426 71.7271 46.9753C71.4845 46.7132 71.2686 46.4259 71.0554 46.1395C70.8407 45.8865 70.6461 45.6139 70.4544 45.3422C68.9859 43.6577 67.2515 41.953 64.9718 41.5131C64.6669 41.7218 64.4031 41.9838 64.1168 42.2155ZM63.8069 46.6986C63.9417 47.6706 64.3915 48.5496 64.5993 49.5007C65.3129 48.8401 66.2495 48.1519 66.2017 47.0635C66.1611 46.3176 66.1345 45.4485 65.6053 44.87C65.096 44.084 64.2283 43.6756 63.5371 43.0798C63.3468 44.2847 63.5677 45.5172 63.8069 46.6986ZM97.5501 89.2787C96.9066 89.7666 96.4318 90.4218 96.2913 91.2273C96.4984 91.9535 96.5577 92.727 96.9071 93.404C97.4303 94.5778 98.4603 95.41 99.4949 96.1191C99.6873 94.4346 99.3237 92.6801 98.3811 91.2622C98.0332 90.7796 97.4354 90.4312 97.3761 89.79C97.5458 89.6944 97.8897 89.503 98.0621 89.4083C98.5627 89.8759 99.0735 90.3637 99.3633 90.9967C99.7413 91.8031 100.274 92.5612 100.413 93.4591C100.636 94.4675 100.636 95.522 100.489 96.5424C100.669 96.6503 100.849 96.7582 101.032 96.8652C101.655 96.8218 102.21 97.1594 102.822 97.2151C104.471 97.4161 106.133 97.2179 107.768 96.9663C108.383 96.8461 108.998 96.7074 109.609 96.5567C110.319 96.4784 111.019 96.3196 111.706 96.1276C111.997 96.0885 112.289 96.0447 112.584 96.0083C116.009 95.3307 119.622 95.9442 122.941 94.6842C123.376 94.4653 123.724 94.1137 124.109 93.8202C125.443 92.5857 125.684 90.5861 125.303 88.8891C124.967 87.4066 124.544 85.896 123.651 84.6434C123.389 84.3213 123.162 83.9721 122.951 83.62C122.525 83.1676 122.117 82.6993 121.65 82.2916C121.263 82.026 120.884 81.7501 120.514 81.4621C120.119 81.3474 119.724 81.228 119.332 81.1114C119.131 81.3555 118.938 81.6003 118.742 81.8462C118.521 82.0329 118.307 82.2234 118.108 82.4312C117.197 82.9396 116.264 83.4121 115.318 83.8541C114.62 83.8842 114.065 84.39 113.385 84.506C112.618 84.6875 112.011 85.3242 111.208 85.3569C110.047 85.98 108.778 86.3383 107.53 86.7389C106.698 86.9348 105.823 86.9809 105.043 87.3569C104.229 87.6832 103.161 87.3956 102.535 88.1324C101.582 89.0031 101.478 90.4009 101.486 91.6118C101.911 91.867 101.652 92.3123 101.592 92.6868C101.357 92.7088 101.123 92.7281 100.889 92.7474C99.9231 91.462 100.445 89.8094 100.933 88.4487C100.683 88.5107 100.436 88.5689 100.189 88.6253C99.3957 88.8338 98.5518 88.8965 97.8309 89.3192C97.7605 89.3086 97.6206 89.2893 97.5501 89.2787ZM101.971 98.1545C102.573 98.775 102.887 99.6069 103.242 100.381C103.535 101.672 103.315 103.02 102.955 104.274C102.833 104.794 102.419 105.153 101.98 105.412C101.816 105.123 101.658 104.83 101.502 104.538C101.576 104.486 101.719 104.38 101.792 104.327C101.962 103.716 102.206 103.122 102.292 102.493C102.4 101.757 102.192 101.029 102.15 100.298C101.856 99.9255 101.829 99.135 101.267 99.1076C99.5672 100.965 99.2015 104.034 100.611 106.16C101.01 106.925 101.769 107.389 102.433 107.899C103.95 108.606 105.667 108.845 107.329 108.665C109.273 108.372 111.19 107.907 113.133 107.599C114.646 107.468 116.156 107.333 117.672 107.225C118.076 107.161 118.482 107.101 118.891 107.046C121.074 106.74 123.279 105.887 124.674 104.106C125.207 103.227 125.561 102.243 125.636 101.215C125.545 99.5256 124.78 97.999 123.944 96.5664C123.631 96.3122 123.443 95.9525 123.239 95.6152C122.847 95.8078 122.456 96.0023 122.06 96.1783C121.256 96.3526 120.462 96.5713 119.641 96.6477C118.531 96.6344 117.431 96.8322 116.321 96.7653C114.437 96.6771 112.57 97.0073 110.737 97.4039C110.385 97.462 110.039 97.5386 109.69 97.6022C109.248 97.6786 108.811 97.7734 108.378 97.8802C107.883 98.2458 107.372 98.6059 106.993 99.0984C106.384 99.8222 106.274 100.798 105.916 101.645C105.921 101.733 105.932 101.906 105.937 101.992C105.788 102.753 105.886 103.53 105.959 104.294C106.008 104.741 106.059 105.189 106.108 105.637C105.888 105.747 105.669 105.856 105.452 105.967C105.312 105.848 105.184 105.72 105.068 105.584C104.866 104.644 104.825 103.682 104.844 102.725C104.845 102.257 104.878 101.792 104.899 101.326C105.177 100.204 105.634 99.1305 106.339 98.2052C105.866 98.1929 105.395 98.2213 104.929 98.2839C103.942 98.3291 102.941 98.3974 101.971 98.1545ZM101.359 110.917C101.32 111.392 101.235 111.861 101.186 112.334C101.311 112.818 101.406 113.318 101.663 113.756C102.052 114.541 102.842 114.994 103.493 115.538C104.177 115.75 104.85 116.004 105.544 116.182C107.304 116.569 109.113 116.417 110.9 116.413C111.821 116.539 112.781 116.408 113.679 116.71C114.75 117.059 115.829 117.39 116.895 117.763C117.585 118.013 118.317 118.228 119.058 118.111C119.367 118.065 119.674 118.029 119.992 118.014C120.334 117.752 120.66 117.465 121.015 117.219C122.724 114.909 123.522 111.871 122.933 109.035C122.734 108.399 122.365 107.833 122.074 107.24C121.724 107.39 121.372 107.539 121.005 107.64C120.333 107.834 119.65 107.99 118.963 108.106C117.056 108.329 115.139 108.441 113.229 108.637C112.076 108.794 110.939 109.034 109.79 109.215C109.384 109.27 108.981 109.327 108.575 109.378C107.91 110.272 107.364 111.284 107.304 112.42C107.323 112.933 107.368 113.445 107.413 113.958C107.455 114.067 107.538 114.285 107.579 114.394C107.339 114.507 107.102 114.62 106.866 114.736C106.706 114.55 106.495 114.395 106.418 114.158C106.176 113.08 106.267 111.958 106.582 110.906C106.788 110.499 106.919 110.063 107.024 109.622C106.366 109.643 105.709 109.648 105.055 109.677C104.45 109.615 103.844 109.543 103.265 109.347C104.098 109.892 104.024 111.001 104.328 111.849C104.292 112.262 104.252 112.677 104.239 113.093C104.053 113.641 103.89 114.293 103.348 114.597C103.001 114.896 102.393 114.454 102.667 114.049C103.189 113.18 103.355 112.129 103.134 111.142C102.893 110.587 102.619 110.043 102.305 109.527C101.777 109.763 101.65 110.453 101.359 110.917Z" fill="black"/>
<path d="M62.4997 41.731C63.1475 41.3199 63.6893 40.7096 64.4591 40.5151C65.7678 40.339 66.9974 41.0068 68.001 41.7781C70.0316 43.3437 71.7326 45.3069 73.2363 47.3753C73.8589 48.4568 74.3939 49.5898 74.9565 50.704C75.5305 52.3515 75.9993 54.0617 76.1147 55.8078C76.1431 56.0187 76.1687 56.2287 76.1925 56.4396C76.2162 57.28 76.3342 58.1142 76.3219 58.9568C76.4177 59.9115 76.396 60.8773 76.5871 61.823C76.7253 62.6283 76.7722 63.4686 77.1054 64.2235C77.7383 65.4576 78.2773 66.7581 79.1859 67.8263C80.1315 69.0221 81.2216 70.1094 82.0631 71.3836C82.8639 70.9992 83.7264 71.3243 84.5606 71.3433C85.1404 71.4964 85.6966 71.7313 86.2836 71.8575C86.9271 71.3696 87.6051 70.899 88.3847 70.6554C89.0753 70.5198 89.7765 70.4462 90.471 70.3458C91.4179 70.189 92.3787 70.1644 93.3226 69.9881C93.8414 69.8983 94.3648 69.8176 94.8852 69.7129C98.0785 69.3555 101.272 68.9704 104.467 68.6028C105.616 68.475 106.772 68.4323 107.92 68.2916C108.377 68.2725 108.835 68.2627 109.293 68.2548C110.488 68.4433 111.76 68.4507 112.834 69.0771C115.814 70.2728 118.143 72.7898 119.373 75.7267C119.664 76.905 119.952 78.0944 119.898 79.3206C119.831 79.5266 119.764 79.7326 119.698 79.9377C120.279 80.2649 120.902 80.5048 121.5 80.8022C122.385 81.5225 123.273 82.2641 123.927 83.2111C124.574 83.9109 124.846 84.8597 125.325 85.67C125.737 86.3364 125.895 87.1036 126.16 87.8303C126.469 88.8696 126.499 89.9507 126.498 91.0264C126.387 91.5198 126.326 92.0248 126.202 92.5154C125.717 93.5753 124.924 94.4133 124.109 95.2256C124.952 96.0323 125.295 97.1769 125.862 98.168C126.232 98.8069 126.491 99.4947 126.653 100.214C126.624 101.174 126.748 102.17 126.381 103.084C125.856 104.757 124.51 106.111 122.913 106.794C123.827 107.98 124.151 109.534 124.183 111.016C124.273 112.22 123.825 113.352 123.616 114.515C123.113 115.603 122.707 116.764 121.917 117.689C121.363 118.445 120.477 118.817 119.75 119.369C118.484 119.725 117.305 120.356 116.037 120.685C115.566 120.888 115.108 121.116 114.649 121.34C113.115 121.608 111.578 121.884 110.065 122.251C108.637 122.685 107.165 122.956 105.676 123.042C104.35 123.258 103.007 123.349 101.669 123.477C99.5906 123.688 97.5 123.792 95.439 124.152C95.2411 124.183 95.0469 124.217 94.8519 124.253C92.7569 124.651 90.6569 125.116 88.69 125.943C87.8541 126.464 86.8542 126.576 86.0116 127.079C84.8121 127.753 83.4823 128.221 82.4158 129.11C81.2575 129.727 80.1155 130.427 78.8367 130.762C78.317 130.978 77.8293 131.257 77.3134 131.48C76.188 131.783 75.0666 132.131 73.8972 132.234C72.3404 132.42 70.7908 131.936 69.4558 131.162C68.7703 130.723 68.2996 130.036 67.6922 129.509C67.018 128.586 66.3732 127.639 65.6318 126.772C65.3506 126.288 65.1494 125.733 64.706 125.368C64.211 124.643 64.0117 123.708 63.3408 123.116C62.471 121.517 61.6842 119.875 60.8448 118.263C60.5936 117.843 60.5207 117.357 60.3489 116.906C59.9169 115.939 59.354 115.034 58.9534 114.051C58.6487 112.513 57.4549 111.295 57.114 109.749C56.6433 108.797 56.3323 107.785 55.9446 106.8C55.6814 105.995 55.6982 105.116 55.3001 104.357C55.6057 103.725 55.9791 103.126 56.4949 102.643C57.456 101.642 58.6637 100.934 59.8379 100.22C60.2266 99.8205 60.6489 99.4545 61.0992 99.1254C61.3211 98.8312 61.5496 98.5407 61.7864 98.2576C62.6897 97.2076 63.2479 95.9223 63.7821 94.6584C64.3056 93.6973 64.5736 92.6131 64.8382 91.5586C65.9759 87.2185 66.5026 82.6182 65.7167 78.1681C65.6498 77.626 65.6106 77.0792 65.5326 76.5381C65.3773 75.5394 65.3345 74.5019 65.5634 73.5097C65.5638 72.6755 66.2667 72.0668 66.4055 71.29C66.2178 70.4331 66.131 69.5691 66.1015 68.6944C66.1956 67.1227 66.1942 65.5229 65.8136 63.9861C65.6192 63.0932 65.3934 62.207 65.2202 61.3102C64.8931 60.248 64.847 59.1262 64.5374 58.062C64.2003 55.4972 63.8789 52.9175 63.9739 50.3255C63.7878 49.9371 63.5998 49.5497 63.4294 49.1556C63.3614 48.5886 63.0366 48.1012 62.9252 47.5447C62.3986 45.6571 62.3638 43.6725 62.4997 41.731ZM64.1168 42.2155C64.5716 42.4927 65.019 42.7829 65.4481 43.1011C66.6087 44.0758 67.4101 45.5679 67.2704 47.1095C67.0839 48.0616 66.7587 49.0564 65.9652 49.6788C65.3385 50.5785 64.9894 51.7133 65.0668 52.8145C65.1164 53.5186 65.1512 54.2257 65.2479 54.9267C65.8126 55.429 66.5374 55.5524 67.2692 55.4842C67.3491 55.6502 67.5136 55.9823 67.5935 56.1484C67.2798 56.3034 66.9681 56.4621 66.6581 56.6199C66.2127 56.4704 65.7654 56.3265 65.3254 56.1649C65.4203 56.6113 65.4875 57.0626 65.5491 57.5167C65.8993 57.5475 66.2452 57.6293 66.5856 57.7231C66.7065 57.6639 66.9426 57.5437 67.0625 57.4826C67.1645 57.5096 67.3704 57.5581 67.4715 57.5833C67.5373 57.7171 67.667 57.9855 67.7309 58.1202C67.4023 58.3735 67.0483 58.5909 66.6916 58.7981C66.3422 58.7506 65.9946 58.693 65.6497 58.6177C65.8343 59.3089 66.0171 60.0056 66.101 60.7178C66.319 61.5522 66.5334 62.3885 66.7441 63.2267C66.7773 63.3422 66.8448 63.575 66.8789 63.6923C67.1327 64.8477 67.3191 66.0443 67.1722 67.2295C67.1288 67.888 67.1818 68.5486 67.1782 69.2078C67.148 69.8876 67.3721 70.5377 67.452 71.2055C67.3632 72.1172 66.7316 72.8522 66.5446 73.7395C67.1366 74.1768 67.852 74.2772 68.5689 74.2025C68.9739 74.0033 69.3882 73.8179 69.8139 73.6686C69.9049 73.8336 70.0842 74.1675 70.1734 74.3335C69.2506 75.2585 67.5189 75.7035 66.4825 74.7491C66.4832 75.4805 66.4043 76.2198 66.5253 76.9457C66.6813 76.8872 66.9962 76.771 67.1522 76.7125C67.6183 76.7748 68.0888 76.7955 68.5583 76.8189C68.8821 76.6518 69.203 76.4837 69.5286 76.3156C69.9004 75.7593 70.279 74.9882 71.0837 75.1406C71.0924 75.3128 71.1125 75.6579 71.1211 75.8301C70.8305 76.2219 70.5445 76.6138 70.2725 77.0194C69.568 77.4106 68.843 77.7797 68.0424 77.9271C67.4942 77.9089 66.9682 77.7609 66.4485 77.598C66.4985 77.7143 66.6001 77.9459 66.65 78.0622C66.6716 78.3509 66.707 78.6395 66.7369 78.9263C66.8003 79.2517 66.8545 79.5772 66.9198 79.9016C66.996 80.4436 67.0832 80.9846 67.1335 81.5304C67.0918 82.5389 67.1982 83.5556 67.0583 84.5583C67.045 85.025 67.0114 85.4928 66.9768 85.9587C66.8175 87.4754 66.5701 88.9788 66.2133 90.4636C65.7979 92.0247 65.2154 93.5361 64.7518 95.0846C63.877 97.2675 62.5832 99.371 60.5773 100.683C59.5233 101.382 58.4535 102.077 57.5406 102.963C57.307 103.307 57.0874 103.66 56.8408 103.993C56.6748 104.597 56.71 105.228 56.7024 105.847C56.7861 106.527 57.1062 107.133 57.3939 107.744C57.5667 108.85 58.3425 109.744 58.7324 110.779C58.8991 111.937 59.741 112.869 60.1349 113.958C60.3442 115.364 61.5332 116.431 61.737 117.839C62.425 119.268 63.1537 120.681 63.8962 122.085C64.6734 122.786 64.8389 123.909 65.5103 124.694C65.8726 125.118 66.104 125.632 66.3862 126.109C66.7982 126.498 67.0067 127.04 67.3893 127.454C68.4124 128.861 69.6173 130.334 71.3614 130.826C72.4525 131.285 73.6486 131.28 74.805 131.166C77.394 130.598 79.8078 129.485 82.1017 128.178C82.2954 127.951 82.5292 127.763 82.7995 127.637C83.8464 127.101 84.8961 126.576 85.9383 126.036C88.4297 125.03 90.9676 124.052 93.6295 123.568C96.2655 122.978 98.9517 122.656 101.642 122.42C101.869 122.414 102.096 122.407 102.326 122.404C103.376 122.211 104.451 122.212 105.497 121.974C106.163 121.877 106.829 121.777 107.482 121.607C109.325 121.296 111.158 120.921 112.962 120.432C113.825 120.246 114.656 119.943 115.503 119.7C115.893 119.627 116.257 119.472 116.631 119.337C116.956 119.279 117.268 119.171 117.586 119.065C116.001 118.415 114.36 117.834 112.646 117.661C111.094 117.373 109.514 117.641 107.954 117.485C106.327 117.45 104.605 117.321 103.154 116.515C102.967 116.412 102.778 116.315 102.589 116.221C102.033 115.791 101.402 115.388 101.085 114.732C100.715 113.997 100.248 113.271 100.2 112.429C100.042 111.397 100.526 110.431 100.825 109.472C101.047 109.178 101.26 108.877 101.466 108.568C101.199 108.336 100.938 108.098 100.671 107.869C100.058 107.236 99.5676 106.5 99.0725 105.774C99.0801 105.666 99.0961 105.447 99.1045 105.335C98.5154 104.393 98.6691 103.248 98.6725 102.192C98.9415 100.612 99.6528 99.1166 100.724 97.9182C99.8342 97.584 98.9857 97.1402 98.2381 96.5522C97.6971 96.1285 97.1716 95.6712 96.7428 95.1346C96.2148 94.2071 95.7616 93.2392 95.2881 92.2863C95.0781 91.039 95.2143 89.5271 96.3139 88.7211C96.4987 88.5549 96.6976 88.4072 96.9143 88.2807C98.1962 87.8557 99.5275 87.6007 100.868 87.4317C101.252 87.3521 101.637 87.2678 102.029 87.2307C102.053 87.1815 102.104 87.0857 102.128 87.0365C101.183 86.96 100.222 86.9429 99.3034 87.2153C98.3129 87.4873 97.2892 87.7669 96.2542 87.6457C95.478 87.5949 94.7929 87.212 94.1823 86.7563C93.8258 86.3617 93.5217 85.9242 93.1303 85.566C92.6251 84.3272 92.3046 83.027 92.292 81.6837C92.4277 80.1024 92.5874 78.3811 93.6503 77.1153C94.199 76.4318 94.9832 76.0604 95.7855 75.7611C95.7288 74.582 94.9936 73.6764 94.3565 72.7534C94.6304 72.607 94.9061 72.4596 95.1846 72.3132C96.0939 73.2277 96.6658 74.465 96.8343 75.7405C98.0616 75.8334 99.3019 75.9198 100.526 75.7377C101.036 75.6174 101.548 75.4896 102.054 75.348C102.444 75.347 102.833 75.3414 103.224 75.333C103.802 74.7483 104.444 74.2336 105.051 73.6829C106.762 72.317 108.79 71.4746 110.715 70.4645C110.927 70.712 111.133 70.9651 111.337 71.221C110.088 71.8874 108.797 72.4772 107.563 73.1703C106.883 73.6632 106.195 74.1431 105.524 74.6497C105.149 74.9895 104.769 75.3292 104.429 75.7066C104.845 75.9804 105.239 76.2932 105.514 76.7152C105.336 76.8804 105.157 77.0456 104.982 77.2116C104.102 76.7301 103.186 76.2211 102.141 76.3768C101.653 76.5183 101.159 76.6376 100.685 76.8161C100.17 78.1909 100.127 79.7132 100.487 81.1308C100.696 81.8884 101.048 82.6218 101.592 83.1974C101.371 83.3657 101.149 83.5302 100.928 83.6938C100.821 83.6483 100.609 83.5564 100.502 83.5108C100.181 82.8753 99.845 82.2473 99.5478 81.5995C99.4261 80.7811 99.187 79.9783 99.1661 79.148C99.196 78.422 99.3983 77.7151 99.4319 76.9872C98.7839 77.0011 98.1374 76.954 97.4945 76.9096C96.72 76.8254 95.9145 76.8174 95.1683 77.0672C93.9492 77.8621 93.664 79.3824 93.3773 80.7038C93.3028 81.3968 93.3051 82.0995 93.3731 82.7942C93.4284 83.7835 93.9236 84.6603 94.4268 85.489C94.6749 85.7482 95.0634 86.0824 95.4318 85.8205C96.0625 85.5946 96.4606 84.9576 96.5114 84.3092C96.6637 82.587 96.0409 80.7113 94.626 79.6523C94.7221 79.3757 94.821 79.1 94.9199 78.8243C95.4171 78.9522 95.8588 79.2221 96.1425 79.6607C96.4639 80.1916 97.0336 80.617 97.0616 81.2834C97.7726 82.6891 97.8613 84.4466 97.0409 85.8236C96.7916 86.0504 96.548 86.2836 96.3052 86.514C96.8115 86.5002 97.3169 86.4845 97.8241 86.4678C98.0331 86.4311 98.243 86.3963 98.4548 86.3651C98.7014 86.293 98.95 86.2245 99.2013 86.1616C102.172 85.7734 105.251 86.4009 108.157 85.4744C109.321 85.0604 110.567 84.8514 111.652 84.2362C111.757 84.241 111.964 84.2515 112.069 84.2563C112.624 83.9551 113.189 83.6631 113.77 83.4089C114.727 83.2909 115.502 82.6316 116.378 82.2716C117.113 81.9996 117.596 81.3749 118.152 80.8552C118.093 80.7575 117.975 80.5621 117.916 80.4644C118.151 80.1961 118.421 79.9516 118.626 79.6566C118.957 78.1035 118.622 76.4552 117.797 75.1077C116.686 72.4791 114.232 70.6278 111.597 69.6999C110.423 69.4982 109.247 69.2559 108.051 69.2701C107.826 69.2755 107.602 69.2808 107.38 69.2843C107.164 69.3201 106.949 69.3596 106.736 69.401C106.388 69.4016 106.042 69.406 105.696 69.4168C105.35 69.4629 105.004 69.4904 104.659 69.5151C102.912 69.7194 101.164 69.9145 99.43 70.2261C97.5472 70.5157 95.6448 70.6573 93.7601 70.9432C92.4418 71.2101 91.0938 71.1995 89.7629 71.3731C88.9094 71.5126 88.0742 71.7566 87.3398 72.2257C87.9089 72.8233 88.6102 73.2747 89.1747 73.877C90.428 75.1205 91.2697 76.678 92.0126 78.2603C91.7266 78.4059 91.4407 78.5515 91.1603 78.6989C90.7196 77.9337 90.4558 77.0459 89.8244 76.408C89.3266 75.5534 88.6961 74.7757 87.9213 74.1573C87.7694 74.0186 87.6221 73.8753 87.4776 73.7328C86.064 72.7358 84.3413 72.3725 82.6567 72.1662C83.3127 73.5094 84.0424 74.8197 84.6707 76.1769C85.2344 77.9365 85.7152 79.766 85.7379 81.6221C86.075 82.0196 86.3873 82.4367 86.7152 82.8435C87.0708 83.2501 87.422 83.666 87.7878 84.0652C89.3275 85.9991 90.6924 88.0685 91.6551 90.3519C92.1818 91.8747 92.4951 93.4574 92.7437 95.0498C92.7461 95.2553 92.7504 95.4599 92.7546 95.6644C92.866 96.4626 92.9033 97.2705 92.9499 98.0738C92.8267 100.62 92.8474 103.206 92.1887 105.69C91.9534 106.944 91.6051 108.189 91.0394 109.337C90.1771 111.699 88.7036 113.792 87.0368 115.656C86.8408 115.814 86.6447 115.967 86.4486 116.12C85.9222 116.683 85.2315 117.051 84.6873 117.588C83.8768 118.04 83.0466 118.449 82.2117 118.853C82.1233 118.538 82.0423 118.224 81.9734 117.906C85.1931 116.478 87.7328 113.72 89.31 110.608C91.7248 105.943 92.1132 100.532 91.6833 95.3806C91.5195 92.7136 90.6729 90.1063 89.2926 87.8241C88.8063 87.398 88.6339 86.7355 88.177 86.2852C87.9664 85.9673 87.7705 85.6419 87.5185 85.3568C86.7014 84.1351 85.4358 83.2324 84.8122 81.889C84.6655 80.0403 84.2514 78.2278 83.7247 76.4541C82.9957 74.8625 82.2076 73.2962 81.1577 71.8911C80.8292 71.5287 80.5964 71.0943 80.2827 70.7198C79.6705 70.0558 79.1191 69.3377 78.5355 68.6476C78.3424 68.3324 78.1503 68.0144 77.8718 67.7683C77.2913 66.7467 76.7679 65.6914 76.2539 64.6361C75.8803 63.5556 75.6416 62.4297 75.4594 61.3007C75.1445 59.1125 75.2662 56.8833 74.9171 54.7009C74.8752 54.418 74.8287 54.135 74.7961 53.852C74.6972 53.3611 74.5816 52.874 74.479 52.385C73.9453 50.4151 72.8733 48.6426 71.7271 46.9753C71.4845 46.7132 71.2686 46.4259 71.0554 46.1395C70.8407 45.8865 70.6461 45.6139 70.4544 45.3422C68.9859 43.6577 67.2515 41.953 64.9718 41.5131C64.6669 41.7218 64.4031 41.9838 64.1168 42.2155ZM63.8069 46.6986C63.9417 47.6706 64.3915 48.5496 64.5993 49.5007C65.3129 48.8401 66.2495 48.1519 66.2017 47.0635C66.1611 46.3176 66.1345 45.4485 65.6053 44.87C65.096 44.084 64.2283 43.6756 63.5371 43.0798C63.3468 44.2847 63.5677 45.5172 63.8069 46.6986ZM97.5501 89.2787C96.9066 89.7666 96.4318 90.4218 96.2913 91.2273C96.4984 91.9535 96.5577 92.727 96.9071 93.404C97.4303 94.5778 98.4603 95.41 99.4949 96.1191C99.6873 94.4346 99.3237 92.6801 98.3811 91.2622C98.0332 90.7796 97.4354 90.4312 97.3761 89.79C97.5458 89.6944 97.8897 89.503 98.0621 89.4083C98.5627 89.8759 99.0735 90.3637 99.3633 90.9967C99.7413 91.8031 100.274 92.5612 100.413 93.4591C100.636 94.4675 100.636 95.522 100.489 96.5424C100.669 96.6503 100.849 96.7582 101.032 96.8652C101.655 96.8218 102.21 97.1594 102.822 97.2151C104.471 97.4161 106.133 97.2179 107.768 96.9663C108.383 96.8461 108.998 96.7074 109.609 96.5567C110.319 96.4784 111.019 96.3196 111.706 96.1276C111.997 96.0885 112.289 96.0447 112.584 96.0083C116.009 95.3307 119.622 95.9442 122.941 94.6842C123.376 94.4653 123.724 94.1137 124.109 93.8202C125.443 92.5857 125.684 90.5861 125.303 88.8891C124.967 87.4066 124.544 85.896 123.651 84.6434C123.389 84.3213 123.162 83.9721 122.951 83.62C122.525 83.1676 122.117 82.6993 121.65 82.2916C121.263 82.026 120.884 81.7501 120.514 81.4621C120.119 81.3474 119.724 81.228 119.332 81.1114C119.131 81.3555 118.938 81.6003 118.742 81.8462C118.521 82.0329 118.307 82.2234 118.108 82.4312C117.197 82.9396 116.264 83.4121 115.318 83.8541C114.62 83.8842 114.065 84.39 113.385 84.506C112.618 84.6875 112.011 85.3242 111.208 85.3569C110.047 85.98 108.778 86.3383 107.53 86.7389C106.698 86.9348 105.823 86.9809 105.043 87.3569C104.229 87.6832 103.161 87.3956 102.535 88.1324C101.582 89.0031 101.478 90.4009 101.486 91.6118C101.911 91.867 101.652 92.3123 101.592 92.6868C101.357 92.7088 101.123 92.7281 100.889 92.7474C99.9231 91.462 100.445 89.8094 100.933 88.4487C100.683 88.5107 100.436 88.5689 100.189 88.6253C99.3957 88.8338 98.5518 88.8965 97.8309 89.3192C97.7605 89.3086 97.6206 89.2893 97.5501 89.2787ZM101.971 98.1545C102.573 98.775 102.887 99.6069 103.242 100.381C103.535 101.672 103.315 103.02 102.955 104.274C102.833 104.794 102.419 105.153 101.98 105.412C101.816 105.123 101.658 104.83 101.502 104.538C101.576 104.486 101.719 104.38 101.792 104.327C101.962 103.716 102.206 103.122 102.292 102.493C102.4 101.757 102.192 101.029 102.15 100.298C101.856 99.9255 101.829 99.135 101.267 99.1076C99.5672 100.965 99.2015 104.034 100.611 106.16C101.01 106.925 101.769 107.389 102.433 107.899C103.95 108.606 105.667 108.845 107.329 108.665C109.273 108.372 111.19 107.907 113.133 107.599C114.646 107.468 116.156 107.333 117.672 107.225C118.076 107.161 118.482 107.101 118.891 107.046C121.074 106.74 123.279 105.887 124.674 104.106C125.207 103.227 125.561 102.243 125.636 101.215C125.545 99.5256 124.78 97.999 123.944 96.5664C123.631 96.3122 123.443 95.9525 123.239 95.6152C122.847 95.8078 122.456 96.0023 122.06 96.1783C121.256 96.3526 120.462 96.5713 119.641 96.6477C118.531 96.6344 117.431 96.8322 116.321 96.7653C114.437 96.6771 112.57 97.0073 110.737 97.4039C110.385 97.462 110.039 97.5386 109.69 97.6022C109.248 97.6786 108.811 97.7734 108.378 97.8802C107.883 98.2458 107.372 98.6059 106.993 99.0984C106.384 99.8222 106.274 100.798 105.916 101.645C105.921 101.733 105.932 101.906 105.937 101.992C105.788 102.753 105.886 103.53 105.959 104.294C106.008 104.741 106.059 105.189 106.108 105.637C105.888 105.747 105.669 105.856 105.452 105.967C105.312 105.848 105.184 105.72 105.068 105.584C104.866 104.644 104.825 103.682 104.844 102.725C104.845 102.257 104.878 101.792 104.899 101.326C105.177 100.204 105.634 99.1305 106.339 98.2052C105.866 98.1929 105.395 98.2213 104.929 98.2839C103.942 98.3291 102.941 98.3974 101.971 98.1545ZM101.359 110.917C101.32 111.392 101.235 111.861 101.186 112.334C101.311 112.818 101.406 113.318 101.663 113.756C102.052 114.541 102.842 114.994 103.493 115.538C104.177 115.75 104.85 116.004 105.544 116.182C107.304 116.569 109.113 116.417 110.9 116.413C111.821 116.539 112.781 116.408 113.679 116.71C114.75 117.059 115.829 117.39 116.895 117.763C117.585 118.013 118.317 118.228 119.058 118.111C119.367 118.065 119.674 118.029 119.992 118.014C120.334 117.752 120.66 117.465 121.015 117.219C122.724 114.909 123.522 111.871 122.933 109.035C122.734 108.399 122.365 107.833 122.074 107.24C121.724 107.39 121.372 107.539 121.005 107.64C120.333 107.834 119.65 107.99 118.963 108.106C117.056 108.329 115.139 108.441 113.229 108.637C112.076 108.794 110.939 109.034 109.79 109.215C109.384 109.27 108.981 109.327 108.575 109.378C107.91 110.272 107.364 111.284 107.304 112.42C107.323 112.933 107.368 113.445 107.413 113.958C107.455 114.067 107.538 114.285 107.579 114.394C107.339 114.507 107.102 114.62 106.866 114.736C106.706 114.55 106.495 114.395 106.418 114.158C106.176 113.08 106.267 111.958 106.582 110.906C106.788 110.499 106.919 110.063 107.024 109.622C106.366 109.643 105.709 109.648 105.055 109.677C104.45 109.615 103.844 109.543 103.265 109.347C104.098 109.892 104.024 111.001 104.328 111.849C104.292 112.262 104.252 112.677 104.239 113.093C104.053 113.641 103.89 114.293 103.348 114.597C103.001 114.896 102.393 114.454 102.667 114.049C103.189 113.18 103.355 112.129 103.134 111.142C102.893 110.587 102.619 110.043 102.305 109.527C101.777 109.763 101.65 110.453 101.359 110.917Z" stroke="black" stroke-width="0.4" mask="url(#path-6-outside-1_1954_92044)"/>
<path d="M114.212 72.785C114.44 72.6666 114.669 72.5502 114.899 72.4328C115.644 72.943 116.286 73.592 116.823 74.3176C117.336 74.7786 117.448 75.4722 117.612 76.1061C117.541 76.5722 117.477 77.0393 117.389 77.5019C117.09 77.5754 116.791 77.6627 116.482 77.6502C116.204 76.9347 116.642 76.1381 116.392 75.3873C116.076 75.0692 115.815 74.7101 115.534 74.3649C115.037 73.8862 114.497 73.4319 114.212 72.785Z" fill="black"/>
<path d="M119.44 83.964C119.676 83.7253 119.925 83.4967 120.18 83.2717C120.989 83.912 121.869 84.5741 122.258 85.5702C122.38 85.1712 122.628 84.6639 123.134 84.8639C123.502 85.3852 123.761 85.9759 124.029 86.5525C124.203 86.8355 123.849 87.0436 123.726 87.2574C123.488 87.1693 123.253 87.0822 123.019 86.9922C123.386 87.8366 123.663 88.7808 123.53 89.7075C123.507 90.0632 123.026 89.9343 122.798 90.0434C122.722 89.8893 122.57 89.5831 122.495 89.4308C122.507 89.1947 122.52 88.9585 122.532 88.7223C122.325 88.0517 122.093 87.3868 121.925 86.7039C121.57 86.3362 121.321 85.8917 121.09 85.4426C120.534 84.9541 119.985 84.46 119.44 83.964Z" fill="black"/>
<path d="M120.5 98.9532C120.773 98.8096 121.049 98.6687 121.326 98.5278C121.513 98.9181 121.697 99.312 121.814 99.7333C122.102 101.051 121.974 102.423 121.437 103.661C121.305 103.728 121.041 103.862 120.91 103.929C120.718 103.781 120.528 103.636 120.334 103.493C120.721 102.485 121.018 101.444 120.906 100.354C120.768 99.8872 120.649 99.4159 120.5 98.9532Z" fill="black"/>
<path d="M122.943 99.026C123.14 99.0255 123.337 99.025 123.539 99.0244C123.95 99.963 124.089 101.007 123.965 102.023C123.961 102.431 123.515 102.558 123.247 102.767C123.114 102.505 122.982 102.242 122.853 101.98C123.084 101.133 122.875 100.271 122.65 99.4494C122.723 99.3424 122.87 99.133 122.943 99.026Z" fill="black"/>
<path d="M119.331 110.646C119.283 110.169 119.826 110.127 120.17 110.158C120.798 111.469 120.188 112.918 120.034 114.272C119.827 114.398 119.619 114.525 119.413 114.653C119.244 114.526 119.08 114.391 118.925 114.251C118.957 113.868 119.088 113.504 119.189 113.136C119.361 112.315 119.342 111.479 119.331 110.646Z" fill="black"/>
<path d="M120.843 111.039C121.139 110.941 121.447 110.71 121.765 110.897C122.343 111.768 122.31 113.012 121.71 113.868C121.476 114.103 121.248 114.363 120.918 114.457C120.76 114.316 120.629 114.158 120.522 113.98C120.7 113.353 121.162 112.816 121.107 112.128C121.011 111.766 120.93 111.401 120.843 111.039Z" fill="black"/>
<path d="M101.921 33.2209L97.9641 36.694L96.2276 34.7157L95.6297 32.4385L93.4733 31.179L90.7763 32.4957L89.9366 33.9333L89.8157 35.7907L91.0116 40.3451L92.6273 44.1808L93.645 45.7392L94.243 48.0165L96.5202 47.4185L97.6588 47.1196L100.356 45.8029L103.772 44.906L105.75 43.1694L107.728 41.4329L109.706 39.6964L109.408 38.5577L109.528 36.7003L109.229 35.5617L108.93 34.4231L106.055 32.7438L101.921 33.2209Z" fill="#FB3E2D"/>
<path d="M99.5741 34.2189L99.5749 34.2179C100.444 33.1976 100.951 32.6321 101.634 32.3358C102.316 32.0401 103.168 32.0155 104.716 32.0434C107.224 32.0561 108.991 32.7425 109.924 34.0574C110.858 35.372 110.943 37.2926 110.142 39.7359C109.85 40.6361 109.147 41.5989 108.167 42.5483C107.187 43.4987 105.926 44.44 104.513 45.2965C101.687 47.009 98.2451 48.3864 95.2088 48.8161L95.2088 48.8161L95.2074 48.8163C94.8868 48.8547 94.6345 48.8825 94.4287 48.8624C94.2179 48.8418 94.0523 48.7707 93.9068 48.6126C93.765 48.4586 93.6453 48.2249 93.5149 47.8874C93.384 47.5487 93.2395 47.0975 93.0513 46.5027C92.616 45.1748 91.542 42.7148 90.5852 41.0207L90.5852 41.0207L90.5846 41.0196C89.6624 39.3153 89.1139 37.5403 88.9744 36.0128C88.8353 34.4889 89.1023 33.1949 89.8327 32.4718C90.3282 31.9813 91.1262 31.5376 91.9392 31.2475C92.7499 30.9582 93.5905 30.8163 94.1726 30.9435C94.4992 30.9982 94.8629 31.1856 95.2256 31.4536C95.5901 31.7229 95.9585 32.0775 96.2943 32.4727C96.9636 33.2607 97.5116 34.2214 97.6318 35.0052C97.701 35.3605 97.7538 35.6139 97.8199 35.7671C97.853 35.8439 97.885 35.8844 97.9143 35.9027C97.9387 35.9181 97.97 35.9235 98.0214 35.904C98.0757 35.8834 98.1456 35.8372 98.236 35.7575C98.3256 35.6785 98.4313 35.5704 98.5573 35.4307C98.8093 35.1513 99.1377 34.7513 99.5741 34.2189ZM106.313 42.3869L106.314 42.3861C107.571 41.3427 108.25 40.7281 108.644 40.1009C109.037 39.4776 109.15 38.8374 109.256 37.7298C109.404 36.1476 109.118 35.0112 108.386 34.2717C107.653 33.531 106.457 33.1731 104.751 33.1846L104.75 33.1846C103.623 33.1789 102.941 33.2464 102.279 33.5684C101.613 33.8919 100.963 34.4749 99.9083 35.519L97.5182 37.8852L97.4404 37.9622L97.4077 37.8577L96.8126 35.9602L96.8125 35.9599C96.3795 34.5575 95.6364 33.4893 94.7774 32.8805C93.9199 32.2728 92.9486 32.1232 92.0448 32.5498C91.468 32.8247 91.0332 33.1878 90.7376 33.6452C90.442 34.1027 90.283 34.6588 90.2647 35.3241C90.2282 36.6574 90.7573 38.4215 91.8731 40.6816C92.9124 42.705 93.909 45.1717 94.2278 46.1444L94.2279 46.1443L94.2291 46.1489L94.6461 47.8138L99.059 46.2882C99.0591 46.2882 99.0592 46.2881 99.0593 46.2881C102.204 45.1769 104.419 44.0226 106.313 42.3869Z" fill="black" stroke="black" stroke-width="0.133333"/>
</svg>
