<svg width="232" height="232" viewBox="0 0 232 232" fill="none" xmlns="http://www.w3.org/2000/svg">
<circle cx="88.0522" cy="105.434" r="22.892" transform="rotate(20.3576 88.0522 105.434)" fill="white"/>
<circle cx="143.326" cy="125.941" r="22.892" transform="rotate(20.3576 143.326 125.941)" fill="white"/>
<path d="M87.3238 113.18C89.1588 112.948 90.9056 115.111 90.0548 116.843C89.7757 118.041 88.5504 118.584 87.4401 118.716C85.8662 118.617 84.4188 117.056 84.7954 115.452C84.9632 114.224 86.0733 113.201 87.3238 113.18Z" fill="#F7F7F7"/>
<path d="M140.905 134.079C142.546 133.206 145.104 133.771 145.369 135.859C145.925 138.07 143.187 140.073 141.288 138.723C139.416 137.847 139.66 135.378 140.905 134.079Z" fill="#F7F7F7"/>
<path d="M84.4758 81.2911C89.9986 80.4925 95.8879 81.4512 100.647 84.4491C108.508 89.0351 113.312 98.3215 112.486 107.39C112.627 107.528 112.906 107.797 113.047 107.934C112.902 108.036 112.622 108.246 112.482 108.349C111.728 113.242 109.76 118 106.415 121.697C100.933 127.961 92.0541 131.093 83.8588 129.551C78.2215 128.718 73.109 125.493 69.4144 121.221C64.73 115.851 62.7762 108.31 63.9932 101.322C65.5047 91.1685 74.3035 82.6045 84.4758 81.2911ZM91.7663 83.303C86.1044 82.3061 80.1308 83.7161 75.4071 86.9605C70.3211 90.3477 66.8142 95.9901 65.9233 102.027C64.9319 107.761 66.5328 113.752 69.8 118.5C72.983 122.886 77.7253 126.203 83.0482 127.351C89.9399 128.943 97.5458 127.072 102.86 122.394C106.788 119.025 109.383 114.244 110.281 109.164C111.108 103.818 110.084 98.153 107.145 93.5851C103.771 88.2053 98.0955 84.2116 91.7663 83.303Z" fill="black"/>
<path d="M151.356 102.753C157.605 105.114 163.042 109.894 165.681 116.089C168.315 122 168.351 128.914 166.111 134.952C163.544 140.98 158.711 146.158 152.558 148.568C146.914 150.959 140.429 150.872 134.671 148.928C128.892 146.591 123.812 142.216 121.255 136.473C119.032 132.144 118.388 127.111 119.08 122.328C120.22 114.297 125.651 106.948 133.122 103.715C138.76 100.969 145.44 100.846 151.356 102.753ZM149.315 104.273C143.232 102.613 136.451 103.585 131.163 107.041C127.267 109.563 124.042 113.268 122.424 117.643C119.603 124.484 120.564 132.744 124.876 138.76C128.238 143.597 133.545 147.145 139.402 148.049C145.267 149.158 151.469 147.609 156.327 144.201C161.197 140.75 164.647 135.262 165.466 129.332C166.457 123.385 164.76 117.134 161.166 112.334C158.203 108.488 154.008 105.55 149.315 104.273Z" fill="black"/>
<path d="M85.3442 90.8288C88.7039 91.1741 92.3336 92.2436 94.7416 94.737C90.8613 95.4785 89.0178 100.863 91.7098 103.756C93.4284 105.908 96.6799 106.602 99.0708 105.175C99.4648 104.889 99.8694 104.618 100.288 104.368C100.659 108.138 100.041 112.132 97.8529 115.299C94.4296 120.903 87.2253 123.861 80.8538 122.233C78.5017 121.515 76.1203 120.631 74.2571 118.969C69.9624 115.467 67.7886 109.626 68.7423 104.166C69.8109 96.3712 77.4654 90.1292 85.3442 90.8288ZM80.3691 113.579C79.1186 113.6 78.0085 114.623 77.8407 115.851C77.4641 117.456 78.9115 119.017 80.4854 119.115C81.5957 118.983 82.821 118.441 83.1001 117.243C83.9508 115.511 82.2041 113.348 80.3691 113.579Z" fill="black"/>
<path d="M134.062 112.407C139.393 110.214 145.719 111.505 150.149 115.074C149.528 115.425 148.883 115.741 148.227 116.015C145.478 118.018 144.938 122.421 147.507 124.782C149.693 127.07 153.301 126.788 155.681 124.972C156.179 129.567 154.831 134.422 151.694 137.86C148.373 141.694 143.121 143.644 138.095 143.134C133.385 142.49 128.851 139.89 126.371 135.765C124.715 133.343 123.981 130.393 123.896 127.487C123.767 121.007 127.962 114.676 134.062 112.407ZM134.144 134.537C132.899 135.835 132.655 138.305 134.527 139.181C136.426 140.531 139.164 138.528 138.609 136.317C138.343 134.229 135.785 133.664 134.144 134.537Z" fill="black"/>
</svg>
