<svg width="142" height="142" viewBox="0 0 142 142" fill="none" xmlns="http://www.w3.org/2000/svg">
<path d="M55.1777 51.358C55.4998 49.9039 56.9076 48.9536 58.2984 48.6901C60.0986 48.3677 61.9029 48.9739 63.5141 49.7347C66.1003 50.9865 68.3906 52.7645 70.5565 54.6352C73.1997 56.9607 75.654 59.4966 77.9192 62.1898C79.8205 64.3856 81.2631 66.9267 82.634 69.4718C84.2416 72.6201 85.6133 76.0168 85.7049 79.5957C85.7703 81.723 85.1588 83.8648 83.8906 85.5833C85.1378 84.9987 86.0927 83.9551 86.836 82.8203C86.7272 83.9669 86.1753 85.0767 85.2153 85.7406C83.3912 87.0878 80.9293 87.0057 78.8439 86.4021C75.1014 85.3056 71.9573 82.7906 69.3144 79.9994C71.5806 77.4905 73.8885 75.0209 76.2203 72.573C77.17 71.5128 77.3345 69.9635 77.0121 68.6219C76.4968 66.4682 75.1564 64.5648 73.455 63.1726C72.2788 62.236 70.8116 61.4775 69.2648 61.6277C68.4299 61.6835 67.7276 62.1708 67.0307 62.5808C64.4975 64.0448 61.9568 65.498 59.4661 67.0312C57.6578 63.8107 56.2549 60.3479 55.4205 56.7474C55.0601 54.9869 54.75 53.1346 55.1777 51.358Z" fill="white"/>
<path d="M47.194 70.0304C49.6211 66.768 51.6373 63.1417 52.7053 59.1996C54.8696 65.984 58.1872 72.426 62.6368 77.9971C65.782 81.8841 69.5194 85.3861 73.9636 87.7395C66.4546 88.0159 59.191 90.4164 52.4797 93.6811C50.5644 94.7124 48.2012 94.4383 46.3585 95.6424C44.2276 97.0825 42.1084 98.545 39.9782 99.9884C39.0006 100.679 37.7688 100.984 36.5836 100.825C34.4313 100.543 32.5743 99.1775 31.2272 97.5358C29.7744 95.689 28.7826 93.4558 28.4479 91.1288C28.2204 89.4986 28.5512 87.6285 29.8924 86.543C36.1833 81.6398 42.3937 76.4556 47.194 70.0304ZM55.0406 70.625C55.7864 73.1529 56.8309 75.5825 57.9591 77.9631C49.8736 83.7525 41.7881 89.5418 33.7071 95.3355C32.7061 94.9349 31.8374 94.2717 31.135 93.4612C31.7024 96.0168 33.6667 98.1483 36.0596 99.1387C37.1415 99.5546 38.5091 99.7828 39.4949 99.0197C43.5508 96.2153 47.4561 93.2027 51.4648 90.3319C52.7747 89.4051 54.0678 88.4393 55.473 87.6576C53.9873 89.1356 52.451 90.5655 51.0425 92.118C50.6272 92.589 50.168 93.0531 49.979 93.669C50.9271 93.4483 51.6968 92.8233 52.5195 92.3362C57.1303 89.6909 61.9825 87.3769 67.1458 86.0384C65.1077 84.6532 63.4121 82.8313 61.8666 80.9292C59.2721 77.7174 57.0978 74.1964 55.0406 70.625Z" fill="white"/>
<path d="M68.8085 63.288C69.7492 62.6333 70.9703 63.0456 71.8508 63.6019C73.6304 64.7443 75.0362 66.5175 75.675 68.5397C75.9949 69.618 76.03 71.0609 75.0202 71.7934C73.6232 72.9523 72.2457 74.1372 70.7892 75.2215C72.0057 74.0111 73.3247 72.9036 74.4793 71.6333C72.317 71.3199 70.6576 69.5791 69.7085 67.7107C69.1531 66.6753 68.9967 65.4875 69.132 64.3319C68.0204 65.5014 68.4516 67.3395 69.1744 68.5956C67.4332 69.7771 65.6657 70.925 63.9526 72.1485C63.3135 72.6246 63.724 73.5055 63.8428 74.1292C62.7482 72.5704 61.6078 71.0297 60.7201 69.34C60.5238 69.0207 60.4194 68.5198 60.8527 68.3443C63.5348 66.7082 66.1994 65.0385 68.8085 63.288ZM70.1247 65.0211C70.0212 65.9169 70.3884 66.7766 70.7615 67.5696C71.2983 67.1215 71.8433 66.3761 72.6138 66.4468C73.7147 66.9296 74.2307 68.1183 74.9125 69.0357C74.5796 67.5476 73.6315 66.2809 72.5458 65.2496C72.0103 64.7874 71.4201 64.2655 70.6803 64.2239C70.2989 64.2807 70.1674 64.6936 70.1247 65.0211Z" fill="white"/>
<path d="M23.1222 94.1095C23.4224 91.9517 24.7729 89.9862 26.7073 88.9705C26.3885 92.568 27.5668 96.2397 29.7955 99.0661C31.6302 101.43 34.3707 103.149 37.3819 103.441C35.5835 103.46 33.7248 103.246 32.1139 102.391C30.5185 101.569 29.2822 100.2 28.3277 98.7026C27.2516 99.3708 26.1804 100.045 25.1071 100.718C25.1601 101.297 25.2185 101.876 25.2684 102.457C23.5957 100.055 22.6782 97.035 23.1222 94.1095Z" fill="white"/>
<path d="M51.6712 95.8062C52.5711 95.6787 53.2874 95.0611 53.9103 94.4449C53.7295 95.4044 53.5403 96.3656 53.4256 97.3363C53.3084 98.1216 53.9156 98.787 54.5537 99.145C55.2407 99.4824 55.9617 99.7439 56.6615 100.057C55.7849 99.2524 54.6311 98.4422 54.5555 97.1475C55.5764 97.4466 56.6242 97.6695 57.6239 98.0297C58.0225 98.4544 58.2116 99.0673 58.1999 99.6416C57.4887 101.4 56.5228 103.09 56.1567 104.97C56.7102 105.053 57.3008 104.911 57.8287 105.128C60.9005 106.84 63.8403 108.781 66.8992 110.517C67.1795 110.675 67.4893 110.934 67.414 111.302C67.3132 112.167 67.0091 113 66.9399 113.872C67.8416 112.863 67.9447 111.377 68.916 110.414C69.0377 110.61 69.0754 110.82 69.0253 111.043C68.7433 112.398 68.2383 113.711 67.5409 114.906C67.3787 115.22 66.9812 115.19 66.7317 115.009C61.9911 112.099 57.2511 109.183 52.5101 106.27C51.9128 105.913 51.3702 105.381 50.6459 105.311C49.2552 105.134 48.286 106.869 46.8769 106.334C44.534 104.966 42.2029 103.568 39.836 102.237C42.6544 100.333 45.4121 98.3393 48.2177 96.4158C49.3125 95.9951 50.5131 95.9353 51.6712 95.8062ZM47.3214 97.9449C48.0051 98.3095 48.8017 98.5856 49.2717 99.2383C49.2935 100.434 49.0611 101.634 48.9859 102.833C48.9156 103.985 48.0147 104.947 46.9048 105.208C47.3279 105.328 47.8031 105.479 48.2036 105.204C48.8995 104.789 49.5344 104.137 50.4183 104.234C50.7675 102.54 51.1167 100.847 51.4713 99.1545C51.5039 98.6822 51.9834 98.4902 52.3163 98.2486C52.6853 98.5112 53.0528 98.7759 53.4096 99.057C52.827 98.183 52.6999 97.0953 52.9689 96.0912C52.0361 96.6115 50.9679 96.9116 49.8943 96.8392C48.8965 96.6787 48.069 97.3935 47.3214 97.9449Z" fill="white"/>
<path d="M58.3589 99.8733C58.7111 100.513 59.0893 101.167 59.6636 101.637C62.4165 103.85 65.4411 105.747 68.7021 107.112C68.971 107.205 69.1485 107.433 69.322 107.649C69.1764 107.802 69.0216 107.946 68.8575 108.078C68.2407 108.058 67.6848 107.755 67.137 107.501C64.3237 106.152 61.7297 104.396 59.2234 102.549C59.0732 102.42 58.8805 102.309 58.8333 102.104C58.6232 101.372 58.5588 100.608 58.3589 99.8733Z" fill="white"/>
<path d="M68.7072 37.8447C70.3875 33.278 72.0198 28.6928 73.7191 24.1328C73.4577 27.4919 73.1708 30.8474 72.8968 34.2056C74.1804 33.8508 75.455 33.4694 76.7407 33.116C75.4066 37.5923 74.0702 42.0656 72.7378 46.5416C72.9337 43.1995 73.2761 39.8645 73.522 36.5245C71.918 36.9662 70.3137 37.415 68.7072 37.8447Z" fill="#A79CEE"/>
<path d="M81.2091 37.3089C85.9312 32.5693 90.6218 27.7971 95.3415 23.0544C93.0731 27.1006 90.7845 31.1349 88.5117 35.1767C90.3112 35.4652 92.1143 35.737 93.9159 36.0181C89.6674 40.8573 85.4172 45.6969 81.1497 50.5205C83.4066 46.4785 85.6962 42.4581 87.9579 38.4222C85.7066 38.0632 83.4603 37.6679 81.2091 37.3089Z" fill="#A79CEE"/>
<path d="M94.9441 46.0629C102.355 41.8758 109.741 37.6426 117.164 33.4745C112.819 37.6678 108.451 41.8374 104.103 46.0294C106.16 46.7698 108.198 47.5672 110.242 48.3475C103.115 53.0181 96.0095 57.7199 88.8775 62.3809C93.1865 57.9932 97.5393 53.6461 101.88 49.2909C99.5785 48.195 97.2521 47.1485 94.9441 46.0629Z" fill="#A79CEE"/>
<path d="M94.5115 66.0529C100.072 63.5567 105.608 61.0106 111.165 58.5097C110.795 59.7911 110.433 61.0729 110.067 62.357C114.843 62.3018 119.619 62.2271 124.396 62.1947C117.596 63.6681 110.789 65.113 103.987 66.5762C104.309 65.5134 104.773 64.503 105.223 63.4903C101.652 64.3398 98.094 65.2523 94.5115 66.0529Z" fill="#A79CEE"/>
<path d="M96.5781 74.7305C102.065 74.6023 107.555 74.5445 113.043 74.4656C112.28 75.3903 111.525 76.3204 110.761 77.2416C114.712 78.9169 118.678 80.559 122.62 82.2575C116.483 81.0384 110.352 79.7792 104.219 78.5417C104.859 77.7768 105.612 77.1216 106.334 76.4373C103.082 75.8673 99.8304 75.2917 96.5781 74.7305Z" fill="#A79CEE"/>
<mask id="path-12-inside-1_1837_26862" fill="white">
<path d="M52.8873 47.6324C54.27 46.3259 56.1903 45.7257 58.0631 45.654C60.596 45.5551 63.0918 46.296 65.3428 47.4145C68.2494 48.8645 70.863 50.8384 73.2701 53.005C77.5778 56.9232 81.2766 61.5078 84.2285 66.5268C86.4106 70.3188 88.2453 74.4032 88.8844 78.7625C89.2897 81.6594 89.0648 84.8162 87.4372 87.3307C86.1946 89.3131 83.8727 90.417 81.5815 90.5372C80.1278 90.6666 78.7061 90.2777 77.2699 90.1291C73.9877 89.7333 70.6464 89.8878 67.405 90.5301C63.4563 91.2977 59.6641 92.7007 55.9676 94.2595C55.8137 94.6752 55.6669 95.1001 55.6485 95.5465C56.8189 95.8841 58.0446 96.1112 59.1179 96.7095C59.7631 97.0679 59.6617 97.896 59.7958 98.5166C59.894 99.4632 60.6796 100.083 61.3303 100.685C63.9958 102.981 67.2144 104.519 70.4628 105.805C71.3253 106.135 71.7385 107.081 71.7839 107.952C71.886 109.54 71.4352 111.1 70.9425 112.595C70.5033 113.857 70.0034 115.099 69.4111 116.297C68.9405 117.25 67.6716 117.85 66.7035 117.264C61.5105 114.15 56.4009 110.899 51.2758 107.676C50.5678 107.192 49.725 107.607 49.0958 108.019C48.0869 108.721 46.7339 108.46 45.7379 107.876C43.7755 106.697 41.7817 105.572 39.7812 104.457C38.0912 105.369 36.4304 106.338 34.7205 107.214C32.7609 107.856 30.5955 107.907 28.622 107.288C26.7174 106.694 25.0304 105.493 23.7598 103.965C21.4883 101.25 20.374 97.5706 20.8401 94.0527C21.138 91.7626 22.2167 89.5677 23.9186 87.9958C24.6631 87.2822 25.5534 86.7529 26.3868 86.1538C31.5392 82.5212 36.4971 78.5442 40.7247 73.8456C44.3831 69.7823 47.4106 65.085 49.1795 59.8875C50.152 57.0698 50.7715 54.1367 51.1167 51.1782C51.2555 49.8325 51.9002 48.5533 52.8873 47.6324ZM55.183 51.3569C54.7552 53.1335 55.0653 54.9858 55.4257 56.7463C56.2601 60.3467 57.663 63.8096 59.4713 67.0301C61.962 65.4969 64.5027 64.0437 67.0359 62.5797C67.7328 62.1697 68.4351 61.6824 69.27 61.6266C70.8168 61.4764 72.2841 62.2349 73.4602 63.1715C75.1616 64.5637 76.5021 66.4671 77.0173 68.6208C77.3397 69.9624 77.1753 71.5117 76.2255 72.5719C73.8937 75.0198 71.5858 77.4894 69.3196 79.9983C71.9625 82.7894 75.1066 85.3045 78.8492 86.401C80.9345 87.0046 83.3964 87.0867 85.2205 85.7395C86.1806 85.0756 86.7324 83.9658 86.8412 82.8192C86.0979 83.954 85.143 84.9976 83.8958 85.5822C85.1641 83.8637 85.7756 81.7218 85.7102 79.5946C85.6185 76.0156 84.2469 72.619 82.6392 69.4707C81.2684 66.9256 79.8258 64.3844 77.9244 62.1886C75.6592 59.4954 73.2049 56.9596 70.5618 54.6341C68.3959 52.7634 66.1056 50.9854 63.5193 49.7336C61.9082 48.9728 60.1038 48.3665 58.3037 48.689C56.9128 48.9525 55.505 49.9028 55.183 51.3569ZM47.1941 70.0301C42.3939 76.4554 36.1834 81.6396 29.8925 86.5428C28.5513 87.6283 28.2206 89.4984 28.448 91.1285C28.7827 93.4556 29.7746 95.6888 31.2273 97.5355C32.5744 99.1773 34.4315 100.543 36.5837 100.825C37.769 100.984 39.0007 100.679 39.9784 99.9882C42.1085 98.5447 44.2277 97.0822 46.3586 95.6421C48.2014 94.4381 50.5645 94.7121 52.4798 93.6809C59.1912 90.4162 66.4548 88.0157 73.9637 87.7392C69.5195 85.3859 65.7821 81.8839 62.6369 77.9969C58.1874 72.4257 54.8697 65.9837 52.7055 59.1994C51.6374 63.1415 49.6212 66.7677 47.1941 70.0301ZM68.8115 63.2874C66.2024 65.0379 63.5378 66.7076 60.8557 68.3437C60.4224 68.5192 60.5267 69.0202 60.7231 69.3394C61.6108 71.0291 62.7512 72.5698 63.8458 74.1287C63.727 73.505 63.3165 72.624 63.9556 72.148C65.6687 70.9244 67.4362 69.7765 69.1773 68.595C68.4546 67.3389 68.0234 65.5008 69.1349 64.3313C68.9997 65.4869 69.1561 66.6748 69.7115 67.7101C70.6605 69.5786 72.32 71.3193 74.4822 71.6327C73.3276 72.903 72.0086 74.0105 70.7922 75.2209C72.2487 74.1366 73.6262 72.9517 75.0232 71.7928C76.0329 71.0603 75.9978 69.6174 75.678 68.5391C75.0392 66.5169 73.6333 64.7437 71.8538 63.6013C70.9733 63.045 69.7522 62.6327 68.8115 63.2874ZM23.1233 94.1094C22.6793 97.035 23.5968 100.055 25.2695 102.457C25.2196 101.876 25.1612 101.297 25.1082 100.718C26.1815 100.045 27.2528 99.3707 28.3288 98.7025C29.2833 100.2 30.5196 101.569 32.115 102.391C33.7259 103.246 35.5846 103.46 37.3831 103.441C34.3718 103.149 31.6314 101.429 29.7966 99.066C27.5679 96.2396 26.3896 92.5679 26.7085 88.9704C24.774 89.9861 23.4235 91.9517 23.1233 94.1094ZM51.6736 95.8059C50.5156 95.935 49.315 95.9948 48.2202 96.4155C45.4145 98.339 42.6568 100.332 39.8385 102.237C42.2054 103.567 44.5365 104.965 46.8794 106.334C48.2884 106.869 49.2576 105.134 50.6484 105.311C51.3726 105.381 51.9152 105.912 52.5125 106.27C57.2535 109.182 61.9935 112.098 66.7342 115.009C66.9837 115.19 67.3811 115.22 67.5433 114.905C68.2408 113.711 68.7458 112.398 69.0278 111.043C69.0778 110.82 69.0401 110.61 68.9185 110.413C67.9472 111.377 67.844 112.862 66.9423 113.872C67.0115 112.999 67.3156 112.167 67.4165 111.302C67.4917 110.934 67.182 110.675 66.9017 110.516C63.8427 108.781 60.903 106.84 57.8312 105.128C57.3033 104.91 56.7127 105.052 56.1592 104.969C56.5252 103.09 57.4912 101.4 58.2024 99.6413C58.2141 99.067 58.0249 98.4541 57.6263 98.0294C56.6266 97.6692 55.5789 97.4463 54.558 97.1472C54.6336 98.4419 55.7874 99.2521 56.6639 100.057C55.9641 99.7436 55.2431 99.4822 54.5561 99.1447C53.918 98.7867 53.3109 98.1213 53.4281 97.336C53.5428 96.3653 53.732 95.4041 53.9127 94.4446C53.2899 95.0608 52.5735 95.6784 51.6736 95.8059ZM58.3596 99.8729C58.5595 100.607 58.6239 101.372 58.834 102.104C58.8812 102.309 59.0739 102.42 59.2242 102.548C61.7305 104.395 64.3245 106.152 67.1377 107.501C67.6856 107.755 68.2414 108.057 68.8583 108.078C69.0223 107.945 69.1771 107.802 69.3227 107.648C69.1493 107.432 68.9717 107.205 68.7029 107.111C65.4418 105.746 62.4172 103.849 59.6643 101.637C59.09 101.166 58.7118 100.513 58.3596 99.8729Z"/>
</mask>
<path d="M52.8873 47.6324C54.27 46.3259 56.1903 45.7257 58.0631 45.654C60.596 45.5551 63.0918 46.296 65.3428 47.4145C68.2494 48.8645 70.863 50.8384 73.2701 53.005C77.5778 56.9232 81.2766 61.5078 84.2285 66.5268C86.4106 70.3188 88.2453 74.4032 88.8844 78.7625C89.2897 81.6594 89.0648 84.8162 87.4372 87.3307C86.1946 89.3131 83.8727 90.417 81.5815 90.5372C80.1278 90.6666 78.7061 90.2777 77.2699 90.1291C73.9877 89.7333 70.6464 89.8878 67.405 90.5301C63.4563 91.2977 59.6641 92.7007 55.9676 94.2595C55.8137 94.6752 55.6669 95.1001 55.6485 95.5465C56.8189 95.8841 58.0446 96.1112 59.1179 96.7095C59.7631 97.0679 59.6617 97.896 59.7958 98.5166C59.894 99.4632 60.6796 100.083 61.3303 100.685C63.9958 102.981 67.2144 104.519 70.4628 105.805C71.3253 106.135 71.7385 107.081 71.7839 107.952C71.886 109.54 71.4352 111.1 70.9425 112.595C70.5033 113.857 70.0034 115.099 69.4111 116.297C68.9405 117.25 67.6716 117.85 66.7035 117.264C61.5105 114.15 56.4009 110.899 51.2758 107.676C50.5678 107.192 49.725 107.607 49.0958 108.019C48.0869 108.721 46.7339 108.46 45.7379 107.876C43.7755 106.697 41.7817 105.572 39.7812 104.457C38.0912 105.369 36.4304 106.338 34.7205 107.214C32.7609 107.856 30.5955 107.907 28.622 107.288C26.7174 106.694 25.0304 105.493 23.7598 103.965C21.4883 101.25 20.374 97.5706 20.8401 94.0527C21.138 91.7626 22.2167 89.5677 23.9186 87.9958C24.6631 87.2822 25.5534 86.7529 26.3868 86.1538C31.5392 82.5212 36.4971 78.5442 40.7247 73.8456C44.3831 69.7823 47.4106 65.085 49.1795 59.8875C50.152 57.0698 50.7715 54.1367 51.1167 51.1782C51.2555 49.8325 51.9002 48.5533 52.8873 47.6324ZM55.183 51.3569C54.7552 53.1335 55.0653 54.9858 55.4257 56.7463C56.2601 60.3467 57.663 63.8096 59.4713 67.0301C61.962 65.4969 64.5027 64.0437 67.0359 62.5797C67.7328 62.1697 68.4351 61.6824 69.27 61.6266C70.8168 61.4764 72.2841 62.2349 73.4602 63.1715C75.1616 64.5637 76.5021 66.4671 77.0173 68.6208C77.3397 69.9624 77.1753 71.5117 76.2255 72.5719C73.8937 75.0198 71.5858 77.4894 69.3196 79.9983C71.9625 82.7894 75.1066 85.3045 78.8492 86.401C80.9345 87.0046 83.3964 87.0867 85.2205 85.7395C86.1806 85.0756 86.7324 83.9658 86.8412 82.8192C86.0979 83.954 85.143 84.9976 83.8958 85.5822C85.1641 83.8637 85.7756 81.7218 85.7102 79.5946C85.6185 76.0156 84.2469 72.619 82.6392 69.4707C81.2684 66.9256 79.8258 64.3844 77.9244 62.1886C75.6592 59.4954 73.2049 56.9596 70.5618 54.6341C68.3959 52.7634 66.1056 50.9854 63.5193 49.7336C61.9082 48.9728 60.1038 48.3665 58.3037 48.689C56.9128 48.9525 55.505 49.9028 55.183 51.3569ZM47.1941 70.0301C42.3939 76.4554 36.1834 81.6396 29.8925 86.5428C28.5513 87.6283 28.2206 89.4984 28.448 91.1285C28.7827 93.4556 29.7746 95.6888 31.2273 97.5355C32.5744 99.1773 34.4315 100.543 36.5837 100.825C37.769 100.984 39.0007 100.679 39.9784 99.9882C42.1085 98.5447 44.2277 97.0822 46.3586 95.6421C48.2014 94.4381 50.5645 94.7121 52.4798 93.6809C59.1912 90.4162 66.4548 88.0157 73.9637 87.7392C69.5195 85.3859 65.7821 81.8839 62.6369 77.9969C58.1874 72.4257 54.8697 65.9837 52.7055 59.1994C51.6374 63.1415 49.6212 66.7677 47.1941 70.0301ZM68.8115 63.2874C66.2024 65.0379 63.5378 66.7076 60.8557 68.3437C60.4224 68.5192 60.5267 69.0202 60.7231 69.3394C61.6108 71.0291 62.7512 72.5698 63.8458 74.1287C63.727 73.505 63.3165 72.624 63.9556 72.148C65.6687 70.9244 67.4362 69.7765 69.1773 68.595C68.4546 67.3389 68.0234 65.5008 69.1349 64.3313C68.9997 65.4869 69.1561 66.6748 69.7115 67.7101C70.6605 69.5786 72.32 71.3193 74.4822 71.6327C73.3276 72.903 72.0086 74.0105 70.7922 75.2209C72.2487 74.1366 73.6262 72.9517 75.0232 71.7928C76.0329 71.0603 75.9978 69.6174 75.678 68.5391C75.0392 66.5169 73.6333 64.7437 71.8538 63.6013C70.9733 63.045 69.7522 62.6327 68.8115 63.2874ZM23.1233 94.1094C22.6793 97.035 23.5968 100.055 25.2695 102.457C25.2196 101.876 25.1612 101.297 25.1082 100.718C26.1815 100.045 27.2528 99.3707 28.3288 98.7025C29.2833 100.2 30.5196 101.569 32.115 102.391C33.7259 103.246 35.5846 103.46 37.3831 103.441C34.3718 103.149 31.6314 101.429 29.7966 99.066C27.5679 96.2396 26.3896 92.5679 26.7085 88.9704C24.774 89.9861 23.4235 91.9517 23.1233 94.1094ZM51.6736 95.8059C50.5156 95.935 49.315 95.9948 48.2202 96.4155C45.4145 98.339 42.6568 100.332 39.8385 102.237C42.2054 103.567 44.5365 104.965 46.8794 106.334C48.2884 106.869 49.2576 105.134 50.6484 105.311C51.3726 105.381 51.9152 105.912 52.5125 106.27C57.2535 109.182 61.9935 112.098 66.7342 115.009C66.9837 115.19 67.3811 115.22 67.5433 114.905C68.2408 113.711 68.7458 112.398 69.0278 111.043C69.0778 110.82 69.0401 110.61 68.9185 110.413C67.9472 111.377 67.844 112.862 66.9423 113.872C67.0115 112.999 67.3156 112.167 67.4165 111.302C67.4917 110.934 67.182 110.675 66.9017 110.516C63.8427 108.781 60.903 106.84 57.8312 105.128C57.3033 104.91 56.7127 105.052 56.1592 104.969C56.5252 103.09 57.4912 101.4 58.2024 99.6413C58.2141 99.067 58.0249 98.4541 57.6263 98.0294C56.6266 97.6692 55.5789 97.4463 54.558 97.1472C54.6336 98.4419 55.7874 99.2521 56.6639 100.057C55.9641 99.7436 55.2431 99.4822 54.5561 99.1447C53.918 98.7867 53.3109 98.1213 53.4281 97.336C53.5428 96.3653 53.732 95.4041 53.9127 94.4446C53.2899 95.0608 52.5735 95.6784 51.6736 95.8059ZM58.3596 99.8729C58.5595 100.607 58.6239 101.372 58.834 102.104C58.8812 102.309 59.0739 102.42 59.2242 102.548C61.7305 104.395 64.3245 106.152 67.1377 107.501C67.6856 107.755 68.2414 108.057 68.8583 108.078C69.0223 107.945 69.1771 107.802 69.3227 107.648C69.1493 107.432 68.9717 107.205 68.7029 107.111C65.4418 105.746 62.4172 103.849 59.6643 101.637C59.09 101.166 58.7118 100.513 58.3596 99.8729Z" fill="black" stroke="black" stroke-width="2" mask="url(#path-12-inside-1_1837_26862)"/>
<path d="M70.1255 65.0208C70.1682 64.6933 70.2997 64.2804 70.6811 64.2236C71.4209 64.2652 72.0111 64.7871 72.5466 65.2493C73.6323 66.2806 74.5803 67.5473 74.9133 69.0354C74.2315 68.118 73.7155 66.9293 72.6146 66.4465C71.8441 66.3758 71.2991 67.1212 70.7622 67.5693C70.3892 66.7763 70.022 65.9166 70.1255 65.0208Z" fill="black"/>
<path d="M55.0401 70.6252C57.0973 74.1966 59.2717 77.7176 61.8661 80.9294C63.4117 82.8315 65.1072 84.6534 67.1454 86.0386C61.982 87.377 57.1299 89.6911 52.5191 92.3364C51.6964 92.8235 50.9266 93.4485 49.9785 93.6692C50.1676 93.0533 50.6268 92.5892 51.0421 92.1182C52.4505 90.5657 53.9868 89.1358 55.4725 87.6578C54.0674 88.4394 52.7743 89.4053 51.4643 90.3321C47.4557 93.2029 43.5504 96.2155 39.4944 99.0199C38.5086 99.783 37.1411 99.5548 36.0591 99.1389C33.6663 98.1485 31.7019 96.017 31.1345 93.4613C31.8369 94.2719 32.7057 94.9351 33.7066 95.3357C41.7877 89.542 49.8732 83.7526 57.9587 77.9633C56.8304 75.5827 55.786 73.1531 55.0401 70.6252Z" fill="black"/>
<path d="M47.3235 97.9445C48.0711 97.3931 48.8986 96.6783 49.8964 96.8388C50.97 96.9112 52.0382 96.6111 52.971 96.0908C52.702 97.0949 52.8291 98.1826 53.4117 99.0566C53.0549 98.7755 52.6873 98.5108 52.3184 98.2482C51.9854 98.4898 51.506 98.6818 51.4734 99.1541C51.1188 100.847 50.7696 102.54 50.4204 104.233C49.5365 104.136 48.9016 104.789 48.2057 105.204C47.8052 105.479 47.33 105.328 46.9069 105.208C48.0168 104.947 48.9177 103.985 48.988 102.832C49.0632 101.634 49.2956 100.434 49.2738 99.2379C48.8038 98.5852 48.0072 98.3091 47.3235 97.9445Z" fill="black"/>
</svg>
