<svg width="75" height="75" viewBox="0 0 75 75" fill="none" xmlns="http://www.w3.org/2000/svg">
<circle cx="37.2766" cy="37.2766" r="36.7766" fill="#E9E9E9" stroke="black"/>
<mask id="mask0_2725_24800" style="mask-type:alpha" maskUnits="userSpaceOnUse" x="0" y="0" width="75" height="75">
<circle cx="37.2766" cy="37.2766" r="37.2766" fill="#222222"/>
</mask>
<g mask="url(#mask0_2725_24800)">
<path d="M7.73078 54.3346L37.2758 3.16113L66.8208 54.3346H7.73078Z" fill="white" stroke="black"/>
</g>
<path d="M29.5333 43.2773V38.8453L29.9973 40.1253L25.1333 32.0773H27.3573L31.2613 38.5573H30.0133L33.9493 32.0773H35.9973L31.1333 40.1253L31.6133 38.8453V43.2773H29.5333ZM39.9103 43.3893C38.961 43.3893 38.129 43.2027 37.4143 42.8293C36.7103 42.4453 36.161 41.9227 35.7663 41.2613C35.3823 40.6 35.1903 39.848 35.1903 39.0053C35.1903 38.152 35.377 37.4 35.7503 36.7493C36.1343 36.088 36.657 35.5707 37.3183 35.1973C37.9903 34.824 38.753 34.6373 39.6063 34.6373C40.4383 34.6373 41.1797 34.8187 41.8303 35.1813C42.481 35.544 42.993 36.056 43.3663 36.7173C43.7397 37.3787 43.9263 38.1573 43.9263 39.0533C43.9263 39.1387 43.921 39.2347 43.9103 39.3413C43.9103 39.448 43.905 39.5493 43.8943 39.6453H36.7743V38.3173H42.8383L42.0543 38.7333C42.065 38.2427 41.9637 37.8107 41.7503 37.4373C41.537 37.064 41.2437 36.7707 40.8703 36.5573C40.5077 36.344 40.0863 36.2373 39.6063 36.2373C39.1157 36.2373 38.6837 36.344 38.3103 36.5573C37.9477 36.7707 37.6597 37.0693 37.4463 37.4533C37.2437 37.8267 37.1423 38.2693 37.1423 38.7813V39.1013C37.1423 39.6133 37.2597 40.0667 37.4943 40.4613C37.729 40.856 38.0597 41.16 38.4863 41.3733C38.913 41.5867 39.4037 41.6933 39.9583 41.6933C40.4383 41.6933 40.8703 41.6187 41.2543 41.4693C41.6383 41.32 41.9797 41.0853 42.2783 40.7653L43.3503 41.9973C42.9663 42.4453 42.481 42.792 41.8943 43.0373C41.3183 43.272 40.657 43.3893 39.9103 43.3893ZM48.1675 43.3893C47.4528 43.3893 46.7648 43.2987 46.1035 43.1173C45.4528 42.9253 44.9355 42.696 44.5515 42.4293L45.3195 40.9093C45.7035 41.1547 46.1621 41.3573 46.6955 41.5173C47.2288 41.6773 47.7621 41.7573 48.2955 41.7573C48.9248 41.7573 49.3781 41.672 49.6555 41.5013C49.9435 41.3307 50.0875 41.1013 50.0875 40.8133C50.0875 40.5787 49.9915 40.4027 49.7995 40.2853C49.6075 40.1573 49.3568 40.0613 49.0475 39.9973C48.7381 39.9333 48.3915 39.8747 48.0075 39.8213C47.6341 39.768 47.2555 39.6987 46.8715 39.6133C46.4981 39.5173 46.1568 39.384 45.8475 39.2133C45.5381 39.032 45.2875 38.792 45.0955 38.4933C44.9035 38.1947 44.8075 37.8 44.8075 37.3093C44.8075 36.7653 44.9621 36.296 45.2715 35.9013C45.5808 35.496 46.0128 35.1867 46.5675 34.9733C47.1328 34.7493 47.7995 34.6373 48.5675 34.6373C49.1435 34.6373 49.7248 34.7013 50.3115 34.8293C50.8981 34.9573 51.3835 35.1387 51.7675 35.3733L50.9995 36.8933C50.5941 36.648 50.1835 36.4827 49.7675 36.3973C49.3621 36.3013 48.9568 36.2533 48.5515 36.2533C47.9435 36.2533 47.4901 36.344 47.1915 36.5253C46.9035 36.7067 46.7595 36.936 46.7595 37.2133C46.7595 37.4693 46.8555 37.6613 47.0475 37.7893C47.2395 37.9173 47.4901 38.0187 47.7995 38.0933C48.1088 38.168 48.4501 38.232 48.8235 38.2853C49.2075 38.328 49.5861 38.3973 49.9595 38.4933C50.3328 38.5893 50.6741 38.7227 50.9835 38.8933C51.3035 39.0533 51.5595 39.2827 51.7515 39.5813C51.9435 39.88 52.0395 40.2693 52.0395 40.7493C52.0395 41.2827 51.8795 41.7467 51.5595 42.1413C51.2501 42.536 50.8075 42.8453 50.2315 43.0693C49.6555 43.2827 48.9675 43.3893 48.1675 43.3893Z" fill="#383737"/>
</svg>
