<svg width="74" height="65" viewBox="0 0 74 65" fill="none" xmlns="http://www.w3.org/2000/svg">
<g clip-path="url(#clip0_2722_26475)">
<path d="M25.7546 1.22956L25.7567 1.22932C34.3857 0.271341 43.2283 2.37028 50.889 6.4991L50.8895 6.4994C58.5847 10.6404 65.1797 17.0122 69.0037 24.8907L69.0036 24.8907L69.009 24.9015C71.685 30.2491 72.9663 36.378 71.9303 42.2344L71.9284 42.2453L71.9267 42.2563C70.9711 48.4567 67.5289 54.2242 62.5208 57.9671L62.5151 57.9713L62.5094 57.9757C56.544 62.5679 48.7372 64.1299 41.1999 63.8137L41.1999 63.8136L41.1892 63.8133C32.7025 63.548 24.4479 60.3166 17.5912 55.2647L17.5882 55.2625C12.3716 51.4486 7.65476 46.8228 4.78401 41.0902L4.7795 41.0812L4.7748 41.0723C1.56955 34.9815 0.0980877 27.8424 1.57694 21.1404L1.577 21.1404L1.57928 21.1295C2.72568 15.6447 5.93305 10.6455 10.3539 7.22012L10.3539 7.22015L10.3607 7.21478C14.7326 3.76627 20.1953 1.83464 25.7546 1.22956Z" fill="white" stroke="black" stroke-width="2"/>
<path d="M39.5401 15.4421C42.4758 14.3388 46.1718 16.9109 45.8512 20.1342C45.6991 21.952 43.8511 23.1782 42.1187 22.9987C39.8079 22.9821 37.5466 21.1411 37.3912 18.7585C37.2259 17.3163 38.2078 15.9173 39.5401 15.4421Z" fill="white"/>
<path d="M37.5744 29.1268C41.0489 28.1431 44.9863 30.8082 45.426 34.4005C45.8756 36.3279 44.7879 38.6241 42.7845 39.0893C39.4058 39.9268 35.6569 37.5142 34.9164 34.1114C34.3444 32.0909 35.4618 29.6418 37.5744 29.1268Z" fill="white"/>
<path d="M30.2754 12.4696C32.1896 10.6453 34.8972 9.78127 37.5089 9.85437C40.514 9.79124 43.3472 11.0208 45.9721 12.36C49.364 14.0979 52.3328 17.1651 53.0006 21.0465C53.6452 23.6684 51.8005 25.9181 50.574 28.0349C51.8964 29.9125 53.3576 31.8066 53.8601 34.1029C54.637 37.1601 53.9659 40.5231 52.1477 43.0851C50.2633 45.8234 47.0763 47.4783 43.8067 47.764C37.003 48.3123 29.9911 44.7899 26.3744 38.9612C24.7776 36.2263 24.0139 32.9398 24.4933 29.7862C25.0123 26.9583 27.1348 24.6952 29.6275 23.4258C30.1233 23.2098 30.4903 22.8077 30.8606 22.4223C30.3283 21.432 29.6043 20.548 29.1778 19.5013C28.1894 17.205 28.4704 14.284 30.2754 12.4696ZM39.542 15.4405C38.2097 15.9157 37.2279 17.3147 37.3932 18.7569C37.5485 21.1395 39.8098 22.9805 42.1207 22.9971C43.853 23.1766 45.701 21.9504 45.8531 20.1326C46.1738 16.9093 42.4777 14.3372 39.542 15.4405ZM37.575 29.1249C35.4625 29.64 34.3451 32.0891 34.917 34.1095C35.6575 37.5123 39.4065 39.9249 42.7852 39.0875C44.7886 38.6223 45.8763 36.326 45.4266 34.3986C44.9869 30.8064 41.0495 28.1413 37.575 29.1249Z" fill="#050709"/>
</g>
<defs>
<clipPath id="clip0_2722_26475">
<rect width="74" height="65" fill="white"/>
</clipPath>
</defs>
</svg>
