<svg width="97" height="85" viewBox="0 0 97 85" fill="none" xmlns="http://www.w3.org/2000/svg">
<path d="M19.3865 33.3105C19.4219 33.2099 19.4804 33.14 19.5621 33.1009C19.6709 33.0488 19.7756 33.0404 19.8762 33.0758L22.6531 34.0536C22.7537 34.089 22.82 34.1576 22.8521 34.2593C22.9113 34.3481 22.9232 34.4427 22.8878 34.5433L15.7034 54.9474C15.668 55.0481 15.5958 55.1244 15.487 55.1766C15.4054 55.2157 15.3143 55.2175 15.2137 55.1821L12.4368 54.2044C12.3362 54.1689 12.2562 54.1069 12.197 54.0182C12.165 53.9164 12.1667 53.8152 12.2021 53.7146L15.2098 45.1727C15.2452 45.0721 15.2126 45.004 15.112 44.9686L11.2787 43.6189C11.1781 43.5835 11.11 43.616 11.0746 43.7167L8.06694 52.2586C8.03152 52.3592 7.95939 52.4356 7.85056 52.4878C7.76894 52.5269 7.67782 52.5287 7.57721 52.4933L4.80031 51.5155C4.6997 51.4801 4.61978 51.418 4.56055 51.3293C4.52852 51.2276 4.53022 51.1264 4.56564 51.0258L11.75 30.6217C11.7855 30.5211 11.844 30.4512 11.9256 30.4121C12.0344 30.3599 12.1392 30.3516 12.2398 30.387L15.0167 31.3648C15.1173 31.4002 15.1836 31.4688 15.2156 31.5705C15.2748 31.6592 15.2868 31.7539 15.2513 31.8545L12.2543 40.3663C12.2189 40.4669 12.2515 40.5349 12.3521 40.5703L16.1854 41.9201C16.286 41.9555 16.354 41.9229 16.3894 41.8223L19.3865 33.3105Z" fill="#383737"/>
<path d="M26.3562 57.8425C24.5492 57.5251 23.1849 56.7222 22.2632 55.434C21.3626 54.1495 21.071 52.6037 21.3884 50.7967L23.2487 40.2068C23.5661 38.3998 24.3671 37.046 25.6516 36.1454C26.9572 35.2484 28.5135 34.9586 30.3205 35.276C32.1275 35.5935 33.4918 36.3963 34.4135 37.6845C35.3352 38.9728 35.6373 40.5204 35.3199 42.3274L33.4595 52.9172C33.1421 54.7242 32.3306 56.0762 31.0251 56.9732C29.7195 57.8702 28.1632 58.1599 26.3562 57.8425ZM26.9099 54.6908C27.6243 54.8162 28.2446 54.6761 28.7707 54.2704C29.3005 53.8436 29.6356 53.231 29.7758 52.4326L31.6915 41.5275C31.8318 40.7291 31.7237 40.0495 31.3674 39.4887C31.0147 38.9069 30.4812 38.5533 29.7668 38.4278C29.0524 38.3023 28.4303 38.4529 27.9005 38.8797C27.3953 39.2891 27.0727 39.8931 26.9324 40.6915L25.0167 51.5965C24.8765 52.395 24.9721 53.0832 25.3038 53.6613C25.6601 54.2221 26.1955 54.5653 26.9099 54.6908Z" fill="#383737"/>
<path d="M40.6967 58.9883C40.462 58.9847 40.3252 58.8652 40.2863 58.6299L36.0497 36.9288L36.0197 36.8003C36.0227 36.6084 36.1416 36.5142 36.3762 36.5179L39.6078 36.5685C39.8638 36.5725 40.0006 36.692 40.0182 36.927L42.4328 52.3587C42.4531 52.4231 42.4846 52.4556 42.5273 52.4562C42.5699 52.4569 42.6024 52.4254 42.6247 52.3617L45.4576 37.0122C45.4826 36.7779 45.6231 36.6628 45.879 36.6668L49.0147 36.7159C49.292 36.7203 49.3964 36.8606 49.3281 37.1369L44.3817 58.694C44.3354 58.928 44.1949 59.0432 43.9603 59.0395L40.6967 58.9883Z" fill="#383737"/>
<path d="M60.9519 37.7433C60.9667 37.8489 60.9378 37.95 60.8652 38.0463C60.8108 38.1186 60.7307 38.1622 60.6251 38.1771L53.7805 39.14C53.6749 39.1549 53.6295 39.2151 53.6444 39.3208L54.4869 45.3098C54.5018 45.4154 54.5621 45.4608 54.6677 45.4459L58.7237 44.8753C58.8294 44.8604 58.9198 44.8908 58.9951 44.9664C59.0885 45.0179 59.1426 45.0964 59.1575 45.202L59.5008 47.642C59.5156 47.7476 59.4868 47.8487 59.4141 47.945C59.3597 48.0173 59.2796 48.0609 59.174 48.0758L55.118 48.6464C55.0123 48.6613 54.9669 48.7215 54.9818 48.8271L55.8289 54.8479C55.8437 54.9535 55.904 54.9989 56.0096 54.984L62.8542 54.021C62.9598 54.0062 63.0503 54.0365 63.1255 54.1121C63.2189 54.1636 63.2731 54.2422 63.2879 54.3478L63.6268 56.7561C63.6416 56.8617 63.6127 56.9627 63.5401 57.0591C63.4857 57.1314 63.4056 57.175 63.3 57.1898L53.0014 58.6387C52.8958 58.6536 52.7963 58.6353 52.7029 58.5838C52.6276 58.5082 52.5825 58.4176 52.5677 58.312L49.5539 36.8909C49.5391 36.7853 49.5589 36.6964 49.6133 36.6241C49.686 36.5277 49.7751 36.472 49.8807 36.4572L60.1793 35.0083C60.2849 34.9934 60.3754 35.0238 60.4506 35.0994C60.544 35.1509 60.5982 35.2294 60.613 35.335L60.9519 37.7433Z" fill="#383737"/>
<path d="M75.7306 53.7264C75.5261 53.7873 75.3628 53.7246 75.2405 53.5384L70.0118 45.5132C69.9465 45.4436 69.8832 45.4179 69.8219 45.4362L68.1965 45.9204C68.0943 45.9509 68.0584 46.0172 68.0888 46.1194L70.6834 54.8292C70.7138 54.9314 70.7004 55.0356 70.6429 55.1418C70.5999 55.2214 70.5272 55.2764 70.425 55.3068L67.6035 56.1473C67.5013 56.1778 67.4002 56.1745 67.3001 56.1376C67.2144 56.074 67.1563 55.9912 67.1259 55.8889L60.9501 35.1573C60.9196 35.055 60.9259 34.9641 60.969 34.8845C61.0264 34.7784 61.1062 34.7101 61.2085 34.6796L66.9741 32.9621C68.0577 32.6393 69.0876 32.6219 70.0638 32.9098C71.0543 33.1712 71.9176 33.7154 72.6536 34.5424C73.404 35.3428 73.962 36.3564 74.3274 37.5831C74.705 38.8507 74.7855 40.0176 74.5689 41.0838C74.3523 42.1501 73.8744 43.0492 73.1353 43.7814C73.0597 43.8262 73.0473 43.8967 73.0982 43.9928L78.8535 52.3286C78.8861 52.3634 78.9116 52.4115 78.9299 52.4728C78.9847 52.6568 78.8996 52.7823 78.6747 52.8493L75.7306 53.7264ZM65.4649 36.7506C65.3626 36.7811 65.3268 36.8474 65.3572 36.9496L67.1752 43.0526C67.2057 43.1548 67.272 43.1907 67.3743 43.1603L69.245 42.603C69.9811 42.3837 70.4887 41.9209 70.768 41.2144C71.0677 40.5019 71.0714 39.6549 70.779 38.6735C70.4867 37.6921 70.0201 36.9852 69.3793 36.5528C68.7529 36.0939 68.0717 35.9741 67.3356 36.1933L65.4649 36.7506Z" fill="#383737"/>
</svg>
