<svg width="130" height="140" viewBox="0 0 130 140" fill="none" xmlns="http://www.w3.org/2000/svg">
<path fill-rule="evenodd" clip-rule="evenodd" d="M31.7433 43.6162C30.4294 43.9264 29.4335 44.6626 28.3874 45.4498C26.9239 46.5507 23.0311 50.6281 23.0311 51.0604C23.0311 51.1981 22.9488 51.3105 22.8482 51.3105C22.6831 51.3105 21.3573 53.8047 20.9023 54.9715C20.7349 55.4004 20.3074 56.9087 19.7308 59.1049C19.5269 59.8822 19.1778 62.0471 18.9124 64.183C18.8479 64.7026 18.6625 67.4661 18.5002 70.3241L18.2053 75.5203L17.4166 76.6422C16.2911 78.2429 14.852 79.6454 13.7338 81.2993C13.1482 82.1654 12.6067 83.0005 12.2953 84.0105C11.2955 87.2533 10.8546 90.5487 10.6293 93.9434C9.8878 105.108 9.80268 110.137 10.3365 111.19C10.4668 111.448 10.8923 112.354 11.2824 113.206C12.1599 115.121 14.0371 117.234 15.4981 117.951C17.448 118.908 21.3183 118.941 25.9539 118.04C29.6047 117.331 30.9637 117.213 32.9239 117.436C35.4441 117.724 38.0258 118.124 38.4638 118.296C38.6567 118.372 39.3406 118.523 39.9837 118.632C40.6267 118.741 41.8368 119.003 42.6727 119.213C46.3433 120.136 46.6214 120.145 48.2788 119.394C49.223 118.966 49.6658 118.558 50.1129 117.704C50.588 116.797 51.0905 114.719 51.0905 113.661V112.734L52.6689 113.517C55.4898 114.916 56.9477 115.324 59.8884 115.536C63.4434 115.792 68.4246 115.735 71.2127 112.964C72.5053 111.68 73.7813 109.388 74.4823 107.092C74.7683 106.155 74.845 106.083 75.394 106.234C75.7237 106.324 77.7662 106.448 79.9329 106.509C83.8245 106.619 86.3519 106.369 89.0877 105.604C91.4118 104.954 93.1624 103.595 93.9135 101.859C94.167 101.273 94.466 100.58 94.5778 100.321C94.6898 100.061 94.8483 99.5294 94.9304 99.1396C95.0125 98.7499 95.1958 97.8729 95.338 97.1911L95.5961 95.951H97.3141C98.2587 95.951 99.2146 95.8514 99.4379 95.7297C99.6612 95.6078 100.37 95.2625 101.013 94.9621C103.194 93.9433 105.537 90.6017 106.227 88.3928C106.793 86.5843 107.21 82.8177 107.213 79.4791C107.218 75.1124 106.625 66.9096 106.064 63.5925C105.846 62.3048 104.809 58.478 104.431 57.5696C102.969 54.0531 100.242 48.6001 96.6404 46.6976C95.601 46.1485 92.573 46.0044 90.3738 46.3998C88.845 46.6745 88.3652 46.6657 86.6325 46.331C84.8571 45.9883 82.1914 45.2247 80.9037 44.6902C80.6465 44.5835 79.4084 44.3187 78.1523 44.1016C76.3665 43.7932 75.6269 43.7617 74.7617 43.9578C74.1531 44.0955 72.9433 44.2776 72.0734 44.3624C71.2036 44.4472 70.4345 44.6104 70.3644 44.7249C70.2016 44.9911 67.1574 44.9989 66.8623 44.7337C66.7402 44.6241 65.9562 44.2948 65.1203 44.0022C64.2843 43.7095 63.3899 43.3822 63.1327 43.2749C61.0058 42.388 56.2352 42.5522 52.7273 43.633C49.9436 44.4909 49.5489 44.5428 48.0106 44.2554C47.1968 44.103 45.6365 43.8113 44.5433 43.6068C39.6484 42.6914 36.2733 42.5461 31.7433 43.6162ZM40.9363 44.565C44.0834 45.0783 44.2896 45.1158 46.1801 45.5169C49.6553 46.2543 50.3402 46.2193 52.8443 45.1772C54.0496 44.6758 56.3353 44.3428 58.5731 44.3428C61.3028 44.3428 62.6127 44.6127 65.1203 45.6926C67.1532 46.568 68.1474 46.6681 70.4983 46.2349C75.2275 45.3631 76.9069 45.2859 78.6824 45.8589C79.0039 45.9628 79.8983 46.2344 80.6699 46.4626C81.4415 46.691 82.2833 46.9636 82.5405 47.0684C83.4342 47.4329 85.589 47.9818 87.0607 48.2199C88.1856 48.4018 89.1396 48.3741 91.0358 48.1042C93.7414 47.7189 95.0123 47.8143 96.1026 48.4851C98.6773 50.0691 100.635 53.3216 101.858 56.0343C103.295 59.2247 104.104 62.2875 104.599 65.7183C105.322 70.7284 105.604 81.5695 105.097 84.8306C104.639 87.7725 101.156 96.6052 96.4346 94.0513C95.9569 93.7932 95.9384 93.6661 96.078 91.6174C96.4318 86.4296 96.4982 80.8332 96.2436 77.6763C95.9438 73.9614 95.2896 69.2517 95.0298 68.9411C94.6458 68.482 94.5214 73.0077 94.665 82.1954C94.7616 88.3754 94.5895 92.3517 94.5895 92.3517C94.5895 92.3517 94.5778 94.1795 94.3488 95.4786C93.8733 98.1762 93.835 100.06 91.8936 101.974C90.8475 103.005 90.1103 103.398 88.6201 103.807C85.0376 104.79 79.0043 105.116 76.1687 104.481C74.4388 104.093 74.5651 104.876 75.0753 97.701C75.3596 93.7032 75.4139 90.4225 75.3136 83.2764C75.2588 79.3799 76.2271 74.8116 74.1226 71.3868C73.6234 70.8006 72.8366 70.4353 72.8366 70.8253C72.8366 72.2815 73.7043 74.0239 73.7719 75.6383C74.0043 81.1966 73.6532 78.2734 73.6438 89.5738C73.6349 100.084 73.5617 103.449 73.3192 104.454C72.01 109.886 70.3396 112.184 66.874 113.323C64.9538 113.953 59.1621 113.948 57.0532 113.313C53.8474 112.348 52.3883 111.524 49.9712 109.311C48.9723 108.396 48.4142 107.544 48.5184 105.753C48.5676 104.906 48.9505 101.622 49.2311 98.9035C49.8438 92.9696 48.9704 75.5701 48.9704 75.5701C48.9704 75.5701 49.0728 72.9291 50.7397 71.7411C51.9016 70.9132 52.7447 70.381 52.4135 70.0465C51.9415 69.5697 49.2118 71.7342 48.8736 72.0908L48.2051 72.7956L47.368 71.8988C46.5047 70.9738 45.0463 69.9698 44.566 69.9698C44.4159 69.9698 44.6916 70.3151 45.1782 70.7374C46.3784 71.7785 46.6045 72.0615 47.1131 73.1584C47.5034 74.0006 47.5656 74.9497 47.6851 81.8975C47.7587 86.1844 47.8791 90.5954 47.9523 91.6996C48.0257 92.8038 47.9738 95.8861 47.8371 98.5492C47.4709 105.683 47.2057 106.673 46.9679 106.816C46.1801 107.288 45.1052 107.451 44.3095 107.67C42.2004 108.25 38.7872 108.696 35.4942 107.682C34.0769 107.246 33.1721 106.684 32.0335 106.112C29.0873 104.632 27.2452 102.856 25.1075 100.606C23.8228 99.2539 22.971 97.5562 22.2421 95.8686C20.3522 91.4921 20.7655 86.2073 20.2254 81.5165C19.9216 78.8776 19.9235 69.9478 20.2282 67.502C20.3587 66.4559 20.5691 64.6967 20.6961 63.5925C21.0697 60.3423 21.6071 57.6256 22.1206 56.3886C22.2283 56.1288 22.5333 55.3461 22.798 54.6493C23.0626 53.9525 23.5883 52.9284 23.9664 52.3731C25.118 50.6827 28.9039 46.977 30.4921 45.9862C33.1598 44.3218 36.5857 43.8555 40.9363 44.565ZM37.4726 62.588C38.186 63.0984 39.9988 60.9501 41.1527 59.8133C41.7004 59.2737 46.8132 50.1295 44.9757 50.1295C43.4746 50.1295 43.0179 53.631 41.3866 56.5066C39.3651 60.0701 37.0607 62.2933 37.4726 62.588ZM87.8031 50.5502C87.836 53.8429 89.2108 56.2312 87.9485 59.8725C87.5816 60.9306 87.4879 61.4668 87.6698 61.4668C88.0086 61.4668 88.8159 59.8452 89.2046 58.654C90.2005 55.6028 87.7693 46.6011 87.8031 50.5502ZM53.4662 51.986C53.0802 53.2874 53.1188 57.2108 53.527 58.1903C54.244 59.9096 56.1936 61.3556 57.5599 61.1812L58.2223 61.0967L57.4039 60.727C56.9538 60.5237 56.2488 60.0707 55.8373 59.7201C54.5421 58.6169 54.3073 57.883 54.1532 54.4589C54.0763 52.748 53.9514 51.2859 53.8754 51.2096C53.7997 51.1336 53.6154 51.4829 53.4662 51.986ZM67.2002 51.1924C67.1684 51.3223 67.1321 52.4914 67.1193 53.7905C67.0886 56.8924 66.7606 57.9348 65.3363 59.4561C64.7031 60.1325 64.185 60.753 64.185 60.835C64.185 60.9172 64.4744 60.8551 64.828 60.697C65.8692 60.2322 67.42 58.6381 67.7282 57.716C68.118 56.55 68.0476 53.0708 67.6105 51.901C67.4165 51.3813 67.2317 51.0625 67.2002 51.1924ZM74.6525 51.3549C74.5438 51.6808 75.228 54.1553 75.8827 55.8539C76.71 58.0003 77.0631 59.4675 78.6824 61.0298C79.0682 61.4023 79.3838 61.6028 79.3838 61.4751C79.3838 60.1386 78.099 58.5167 77.2672 56.6248C76.3205 54.4716 75.8109 52.157 74.826 51.1187C74.7875 51.0781 74.7094 51.1844 74.6525 51.3549ZM94.149 54.8085C95.8922 58.5 97.8088 61.2306 98.6567 61.2306C99.1625 61.2306 99.1195 61.0187 98.494 60.4311C96.8322 58.8694 95.7087 52.4914 93.3857 52.4914C92.8169 52.4914 94.0504 54.5997 94.149 54.8085ZM25.6509 55.5072C25.9446 58.5952 28.9325 61.6553 32.0335 62.0445L33.2026 62.1912L31.6297 61.356C28.8195 59.8642 26.3047 56.8395 26.3047 54.9519C26.3047 54.582 26.1707 54.381 25.9242 54.381C25.6109 54.381 25.5627 54.5801 25.6509 55.5072ZM18.3543 79.9489C18.3531 85.2959 18.3978 92.0426 20.6928 97.0512C21.8551 99.5878 23.3882 101.47 25.1662 103.561L24.579 103.869C24.2563 104.038 23.2497 104.315 22.3425 104.484C21.2287 104.693 20.6928 104.9 20.6928 105.124C20.6928 105.395 21.0564 105.424 22.7131 105.285L24.7336 105.115C24.4431 105.535 22.1174 108.655 23.3411 108.19C23.8494 107.997 24.4134 107.013 25.0551 106.22C25.72 105.399 26.4357 104.934 27.7362 105.761C28.1379 106.016 28.7428 106.408 29.0807 106.631C30.8827 107.819 33.3342 108.216 35.0003 109.496C35.3625 109.774 35.338 109.866 34.7048 110.61C33.3158 112.243 32.709 113.992 33.0796 115.297C33.2854 116.022 33.2805 116.027 32.3971 116.027C31.9077 116.027 31.1786 115.961 30.7767 115.88C30.111 115.745 30.0459 115.652 30.0459 114.829C30.0459 113.171 32.0991 109.729 31.2151 110.109C29.812 110.713 29.0784 113.485 29.0784 113.485C29.0784 113.485 28.8768 114.373 28.8768 114.957C28.8768 115.925 28.8202 116.03 28.2338 116.153C27.88 116.227 27.2225 116.38 26.7723 116.494C22.8901 117.475 18.3877 117.726 16.6639 117.058C14.7033 116.298 12.4029 113.293 11.5365 110.359C11.0265 108.632 11.3308 97.9225 12.0699 91.5815C12.2062 90.4123 12.1707 89.4361 12.4417 88.0938C13.0158 85.2494 15.3147 81.2504 15.3147 81.2504C15.3147 81.2504 17.1452 77.7641 18.1674 77.7641C18.2703 77.7641 18.3543 78.7472 18.3543 79.9489ZM100.781 91.0675C99.8092 91.5877 98.9547 92.16 97.9148 92.5333C97.2397 92.7757 96.6872 93.0591 96.6872 93.1635C96.6872 93.5624 99.0549 93.3472 99.9951 92.8628C101.098 92.2945 102.299 91.1296 102.299 90.6287C102.299 89.8629 101.12 90.8858 100.781 91.0675ZM86.648 101.955C83.557 102.751 82.3986 102.918 80.0369 102.907C78.0073 102.897 77.581 102.953 77.7856 103.202C77.9245 103.371 78.3407 103.509 78.3407 103.509C78.3407 103.509 83.1473 104.558 85.6972 103.778C87.2858 103.292 88.8803 103.039 90.4287 101.748C90.7245 101.501 90.7245 101.383 90.6041 101.324C90.2192 101.136 87.0048 101.863 86.648 101.955ZM30.5136 104.391C30.5136 104.6 31.1884 104.987 32.6181 105.6C35.8087 106.966 41.0909 106.948 44.3642 105.558C45.8257 104.938 45.177 104.809 41.0156 104.89C37.3931 104.961 34.9383 104.809 31.3905 104.294C30.9029 104.223 30.5136 104.266 30.5136 104.391ZM48.2441 110.264C49.6214 111.769 49.772 112.191 48.7396 111.651C47.2731 110.885 44.9257 110.656 43.3157 110.476C42.5764 110.393 41.9712 110.239 41.9712 110.133C41.9712 109.948 45.0542 108.109 46.7827 108.979C47.4598 109.32 47.5789 109.537 48.2441 110.264ZM55.2429 110.022C54.8425 110.427 59.1656 112.683 62.0043 112.719C63.6787 112.741 65.1946 112.311 66.2078 111.864C66.4726 111.748 69.3767 110.328 69.0142 109.962C68.9331 109.88 68.3275 109.989 67.6681 110.204C63.9091 111.431 59.664 111.252 55.8782 110.014C55.6177 109.929 55.3317 109.933 55.2429 110.022ZM40.6852 111.069C45.0884 111.569 48.058 112.186 48.46 112.685C49.1007 113.48 48.4621 116.5 47.4501 117.46C46.9506 117.934 46.8281 117.95 45.6699 117.686C42.8635 117.048 41.5279 116.757 39.7498 116.393C38.721 116.182 37.5561 115.908 37.1611 115.782C36.7662 115.657 36.1543 115.555 35.8012 115.555C33.7748 115.555 33.7722 113.968 35.7946 111.426C36.4671 110.581 36.4933 110.572 37.7623 110.727C38.4696 110.813 39.7849 110.967 40.6852 111.069Z" fill="#FB3E2D"/>
<path fill-rule="evenodd" clip-rule="evenodd" d="M40.9363 44.565C44.0834 45.0783 44.2896 45.1158 46.1801 45.5169C49.6553 46.2543 50.3402 46.2193 52.8443 45.1772C54.0496 44.6758 56.3353 44.3428 58.5731 44.3428C61.3028 44.3428 62.6127 44.6127 65.1203 45.6926C67.1532 46.568 68.1474 46.6681 70.4983 46.2349C75.2275 45.3631 76.9069 45.2859 78.6824 45.8589C79.0039 45.9628 79.8983 46.2344 80.6699 46.4626C81.4415 46.691 82.2833 46.9636 82.5405 47.0684C83.4342 47.4329 85.589 47.9818 87.0607 48.2199C88.1856 48.4018 89.1396 48.3741 91.0358 48.1042C93.7414 47.7189 95.0123 47.8143 96.1026 48.4851C98.6773 50.0691 100.635 53.3216 101.858 56.0343C103.295 59.2247 104.104 62.2875 104.599 65.7183C105.322 70.7284 105.604 81.5695 105.097 84.8306C104.639 87.7725 101.156 96.6052 96.4346 94.0513C95.9569 93.7932 95.9384 93.6661 96.078 91.6174C96.4318 86.4296 96.4982 80.8332 96.2436 77.6763C95.9438 73.9614 95.2896 69.2517 95.0298 68.9411C94.6458 68.482 94.5214 73.0077 94.665 82.1954C94.7616 88.3754 94.5895 92.3517 94.5895 92.3517C94.5895 92.3517 94.5778 94.1795 94.3488 95.4786C93.8733 98.1762 93.835 100.06 91.8936 101.974C90.8475 103.005 90.1103 103.398 88.6201 103.807C85.0376 104.79 79.0043 105.116 76.1687 104.481C74.4388 104.093 74.5651 104.876 75.0753 97.701C75.3596 93.7032 75.4139 90.4225 75.3136 83.2764C75.2588 79.3799 76.2271 74.8116 74.1226 71.3868C73.6234 70.8006 72.8366 70.4353 72.8366 70.8253C72.8366 72.2815 73.7043 74.0239 73.7719 75.6383C74.0043 81.1966 73.6532 78.2734 73.6438 89.5738C73.6349 100.084 73.5617 103.449 73.3192 104.454C72.01 109.886 70.3396 112.184 66.874 113.323C64.9538 113.953 59.1621 113.948 57.0532 113.313C53.8474 112.348 52.3883 111.524 49.9712 109.311C48.9723 108.396 48.4142 107.544 48.5184 105.753C48.5676 104.906 48.9505 101.622 49.2311 98.9035C49.8438 92.9696 48.9704 75.5701 48.9704 75.5701C48.9704 75.5701 49.0728 72.9291 50.7397 71.7411C51.9016 70.9132 52.7447 70.381 52.4135 70.0465C51.9415 69.5697 49.2118 71.7342 48.8736 72.0908L48.2051 72.7956L47.368 71.8988C46.5047 70.9738 45.0463 69.9698 44.566 69.9698C44.4159 69.9698 44.6916 70.3151 45.1782 70.7374C46.3784 71.7785 46.6045 72.0615 47.1131 73.1584C47.5034 74.0006 47.5656 74.9497 47.6851 81.8975C47.7587 86.1844 47.8791 90.5954 47.9523 91.6996C48.0257 92.8038 47.9738 95.8861 47.8371 98.5492C47.4709 105.683 47.2057 106.673 46.9679 106.816C46.1801 107.288 45.1052 107.451 44.3095 107.67C42.2004 108.25 38.7872 108.696 35.4942 107.682C34.0769 107.246 33.1721 106.684 32.0335 106.112C29.0873 104.632 27.2452 102.856 25.1075 100.606C23.8228 99.2539 22.971 97.5562 22.2421 95.8686C20.3522 91.4921 20.7655 86.2073 20.2254 81.5165C19.9216 78.8776 19.9235 69.9478 20.2282 67.502C20.3587 66.4559 20.5691 64.6967 20.6961 63.5925C21.0697 60.3423 21.6071 57.6256 22.1206 56.3886C22.2283 56.1288 22.5333 55.3461 22.798 54.6493C23.0626 53.9525 23.5883 52.9284 23.9664 52.3731C25.118 50.6827 28.9039 46.977 30.4921 45.9862C33.1598 44.3218 36.5857 43.8555 40.9363 44.565ZM41.1527 59.8133C39.9988 60.9501 38.186 63.0984 37.4726 62.588C37.0607 62.2933 39.3651 60.0701 41.3866 56.5066C43.0179 53.631 43.4746 50.1295 44.9757 50.1295C46.8132 50.1295 41.7004 59.2737 41.1527 59.8133ZM87.6698 61.4668C87.4879 61.4668 87.5816 60.9306 87.9485 59.8725C89.2108 56.2312 87.836 53.8429 87.8031 50.5502C87.7693 46.6011 90.2005 55.6028 89.2046 58.654C88.8159 59.8452 88.0086 61.4668 87.6698 61.4668ZM53.527 58.1903C53.1188 57.2108 53.0802 53.2874 53.4662 51.986C53.6154 51.4829 53.7997 51.1336 53.8754 51.2096C53.9514 51.2859 54.0763 52.748 54.1532 54.4589C54.3073 57.883 54.5421 58.6169 55.8373 59.7201C56.2488 60.0707 56.9538 60.5237 57.4039 60.727L58.2223 61.0967L57.5599 61.1812C56.1936 61.3556 54.244 59.9096 53.527 58.1903ZM67.1193 53.7905C67.1321 52.4914 67.1684 51.3223 67.2002 51.1924C67.2317 51.0625 67.4165 51.3813 67.6105 51.901C68.0476 53.0708 68.118 56.55 67.7282 57.716C67.42 58.6381 65.8692 60.2322 64.828 60.697C64.4744 60.8551 64.185 60.9172 64.185 60.835C64.185 60.753 64.7031 60.1325 65.3363 59.4561C66.7606 57.9348 67.0886 56.8924 67.1193 53.7905ZM75.8827 55.8539C75.228 54.1553 74.5438 51.6808 74.6525 51.3549C74.7094 51.1844 74.7875 51.0781 74.826 51.1187C75.8109 52.157 76.3205 54.4716 77.2672 56.6248C78.099 58.5167 79.3838 60.1386 79.3838 61.4751C79.3838 61.6028 79.0682 61.4023 78.6824 61.0298C77.0631 59.4675 76.71 58.0003 75.8827 55.8539ZM98.6567 61.2306C97.8088 61.2306 95.8922 58.5 94.149 54.8085C94.0504 54.5997 92.8169 52.4914 93.3857 52.4914C95.7087 52.4914 96.8322 58.8694 98.494 60.4311C99.1195 61.0187 99.1625 61.2306 98.6567 61.2306ZM32.0335 62.0445C28.9325 61.6553 25.9446 58.5952 25.6509 55.5072C25.5627 54.5801 25.6109 54.381 25.9242 54.381C26.1707 54.381 26.3047 54.582 26.3047 54.9519C26.3047 56.8395 28.8195 59.8642 31.6297 61.356L33.2026 62.1912L32.0335 62.0445ZM96.6872 93.1635C96.6872 93.0591 97.2397 92.7757 97.9148 92.5333C98.9547 92.16 99.8092 91.5877 100.781 91.0675C101.12 90.8858 102.299 89.8629 102.299 90.6287C102.299 91.1296 101.098 92.2945 99.9951 92.8628C99.0549 93.3472 96.6872 93.5624 96.6872 93.1635ZM80.0369 102.907C82.3986 102.918 83.557 102.751 86.648 101.955C87.0048 101.863 90.2192 101.136 90.6041 101.324C90.7245 101.383 90.7245 101.501 90.4287 101.748C88.8803 103.039 87.2858 103.292 85.6972 103.778C83.1473 104.558 78.3407 103.509 78.3407 103.509C78.3407 103.509 77.9245 103.371 77.7856 103.202C77.581 102.953 78.0073 102.897 80.0369 102.907ZM32.6181 105.6C31.1884 104.987 30.5136 104.6 30.5136 104.391C30.5136 104.266 30.9029 104.223 31.3905 104.294C34.9383 104.809 37.3931 104.961 41.0156 104.89C45.177 104.809 45.8257 104.938 44.3642 105.558C41.0909 106.948 35.8087 106.966 32.6181 105.6ZM66.2078 111.864C65.1946 112.311 63.6787 112.741 62.0043 112.719C59.1656 112.683 54.8425 110.427 55.2429 110.022C55.3317 109.933 55.6177 109.929 55.8782 110.014C59.664 111.252 63.9091 111.431 67.6681 110.204C68.3275 109.989 68.9331 109.88 69.0142 109.962C69.3767 110.328 66.4726 111.748 66.2078 111.864Z" fill="#FB3E2D"/>
<path d="M25.1662 103.561L24.579 103.869C24.2563 104.038 23.2497 104.315 22.3425 104.484C21.2287 104.693 20.6928 104.9 20.6928 105.124C20.6928 105.395 21.0564 105.424 22.7131 105.285L24.7336 105.115C24.4431 105.535 22.1174 108.655 23.3411 108.19C23.8494 107.997 24.4134 107.013 25.0551 106.22C25.72 105.399 26.4357 104.934 27.7362 105.761C28.1379 106.016 28.7428 106.408 29.0807 106.631C30.8827 107.819 33.3342 108.216 35.0003 109.496C35.3625 109.774 35.338 109.866 34.7048 110.61C33.3158 112.243 32.709 113.992 33.0796 115.297C33.2854 116.022 33.2805 116.027 32.3971 116.027C31.9077 116.027 31.1786 115.961 30.7767 115.88C30.111 115.745 30.0459 115.652 30.0459 114.829C30.0459 113.171 32.0991 109.729 31.2151 110.109C29.812 110.713 29.0784 113.485 29.0784 113.485C29.0784 113.485 28.8768 114.373 28.8768 114.957C28.8768 115.925 28.8202 116.03 28.2338 116.153C27.88 116.227 27.2225 116.38 26.7723 116.494C22.8901 117.475 18.3877 117.726 16.6639 117.058C14.7033 116.298 12.4029 113.293 11.5365 110.359C11.0265 108.632 11.3308 97.9225 12.0699 91.5815C12.2062 90.4123 12.1707 89.4361 12.4417 88.0938C13.0158 85.2494 15.3147 81.2504 15.3147 81.2504C15.3147 81.2504 17.1452 77.7641 18.1674 77.7641C18.2703 77.7641 18.3543 78.7472 18.3543 79.9489C18.3531 85.2959 18.3978 92.0426 20.6928 97.0512C21.8551 99.5878 23.3882 101.47 25.1662 103.561Z" fill="#FB3E2D"/>
<path d="M48.2441 110.264C49.6214 111.769 49.772 112.191 48.7396 111.651C47.2731 110.885 44.9257 110.656 43.3157 110.476C42.5764 110.393 41.9712 110.239 41.9712 110.133C41.9712 109.948 45.0542 108.109 46.7827 108.979C47.4598 109.32 47.5789 109.537 48.2441 110.264Z" fill="#FB3E2D"/>
<path d="M40.6852 111.069C45.0884 111.569 48.058 112.186 48.46 112.685C49.1007 113.48 48.4621 116.5 47.4501 117.46C46.9506 117.934 46.8281 117.95 45.6699 117.686C42.8635 117.048 41.5279 116.757 39.7498 116.393C38.721 116.182 37.5561 115.908 37.1611 115.782C36.7662 115.657 36.1543 115.555 35.8012 115.555C33.7748 115.555 33.7722 113.968 35.7946 111.426C36.4671 110.581 36.4933 110.572 37.7623 110.727C38.4696 110.813 39.7849 110.967 40.6852 111.069Z" fill="#FB3E2D"/>
<path fill-rule="evenodd" clip-rule="evenodd" d="M31.7433 43.6162C30.4294 43.9264 29.4335 44.6626 28.3874 45.4498C26.9239 46.5507 23.0311 50.6281 23.0311 51.0604C23.0311 51.1981 22.9488 51.3105 22.8482 51.3105C22.6831 51.3105 21.3573 53.8047 20.9023 54.9715C20.7349 55.4004 20.3074 56.9087 19.7308 59.1049C19.5269 59.8822 19.1778 62.0471 18.9124 64.183C18.8479 64.7026 18.6625 67.4661 18.5002 70.3241L18.2053 75.5203L17.4166 76.6422C16.2911 78.2429 14.852 79.6454 13.7338 81.2993C13.1482 82.1654 12.6067 83.0005 12.2953 84.0105C11.2955 87.2533 10.8546 90.5487 10.6293 93.9434C9.8878 105.108 9.80268 110.137 10.3365 111.19C10.4668 111.448 10.8923 112.354 11.2824 113.206C12.1599 115.121 14.0371 117.234 15.4981 117.951C17.448 118.908 21.3183 118.941 25.9539 118.04C29.6047 117.331 30.9637 117.213 32.9239 117.436C35.4441 117.724 38.0258 118.124 38.4638 118.296C38.6567 118.372 39.3406 118.523 39.9837 118.632C40.6267 118.741 41.8368 119.003 42.6727 119.213C46.3433 120.136 46.6214 120.145 48.2788 119.394C49.223 118.966 49.6658 118.558 50.1129 117.704C50.588 116.797 51.0905 114.719 51.0905 113.661V112.734L52.6689 113.517C55.4898 114.916 56.9477 115.324 59.8884 115.536C63.4434 115.792 68.4246 115.735 71.2127 112.964C72.5053 111.68 73.7813 109.388 74.4823 107.092C74.7683 106.155 74.845 106.083 75.394 106.234C75.7237 106.324 77.7662 106.448 79.9329 106.509C83.8245 106.619 86.3519 106.369 89.0877 105.604C91.4118 104.954 93.1624 103.595 93.9135 101.859C94.167 101.273 94.466 100.58 94.5778 100.321C94.6898 100.061 94.8483 99.5294 94.9304 99.1396C95.0125 98.7499 95.1958 97.8729 95.338 97.1911L95.5961 95.951H97.3141C98.2587 95.951 99.2146 95.8514 99.4379 95.7297C99.6612 95.6078 100.37 95.2625 101.013 94.9621C103.194 93.9433 105.537 90.6017 106.227 88.3928C106.793 86.5843 107.21 82.8177 107.213 79.4791C107.218 75.1124 106.625 66.9096 106.064 63.5925C105.846 62.3048 104.809 58.478 104.431 57.5696C102.969 54.0531 100.242 48.6001 96.6404 46.6976C95.601 46.1485 92.573 46.0044 90.3738 46.3998C88.845 46.6745 88.3652 46.6657 86.6325 46.331C84.8571 45.9883 82.1914 45.2247 80.9037 44.6902C80.6465 44.5835 79.4084 44.3187 78.1523 44.1016C76.3665 43.7932 75.6269 43.7617 74.7617 43.9578C74.1531 44.0955 72.9433 44.2776 72.0734 44.3624C71.2036 44.4472 70.4345 44.6104 70.3644 44.7249C70.2016 44.9911 67.1574 44.9989 66.8623 44.7337C66.7402 44.6241 65.9562 44.2948 65.1203 44.0022C64.2843 43.7095 63.3899 43.3822 63.1327 43.2749C61.0058 42.388 56.2352 42.5522 52.7273 43.633C49.9436 44.4909 49.5489 44.5428 48.0106 44.2554C47.1968 44.103 45.6365 43.8113 44.5433 43.6068C39.6484 42.6914 36.2733 42.5461 31.7433 43.6162ZM40.9363 44.565C44.0834 45.0783 44.2896 45.1158 46.1801 45.5169C49.6553 46.2543 50.3402 46.2193 52.8443 45.1772C54.0496 44.6758 56.3353 44.3428 58.5731 44.3428C61.3028 44.3428 62.6127 44.6127 65.1203 45.6926C67.1532 46.568 68.1474 46.6681 70.4983 46.2349C75.2275 45.3631 76.9069 45.2859 78.6824 45.8589C79.0039 45.9628 79.8983 46.2344 80.6699 46.4626C81.4415 46.691 82.2833 46.9636 82.5405 47.0684C83.4342 47.4329 85.589 47.9818 87.0607 48.2199C88.1856 48.4018 89.1396 48.3741 91.0358 48.1042C93.7414 47.7189 95.0123 47.8143 96.1026 48.4851C98.6773 50.0691 100.635 53.3216 101.858 56.0343C103.295 59.2247 104.104 62.2875 104.599 65.7183C105.322 70.7284 105.604 81.5695 105.097 84.8306C104.639 87.7725 101.156 96.6052 96.4346 94.0513C95.9569 93.7932 95.9384 93.6661 96.078 91.6174C96.4318 86.4296 96.4982 80.8332 96.2436 77.6763C95.9438 73.9614 95.2896 69.2517 95.0298 68.9411C94.6458 68.482 94.5214 73.0077 94.665 82.1954C94.7616 88.3754 94.5895 92.3517 94.5895 92.3517C94.5895 92.3517 94.5778 94.1795 94.3488 95.4786C93.8733 98.1762 93.835 100.06 91.8936 101.974C90.8475 103.005 90.1103 103.398 88.6201 103.807C85.0376 104.79 79.0043 105.116 76.1687 104.481C74.4388 104.093 74.5651 104.876 75.0753 97.701C75.3596 93.7032 75.4139 90.4225 75.3136 83.2764C75.2588 79.3799 76.2271 74.8116 74.1226 71.3868C73.6234 70.8006 72.8366 70.4353 72.8366 70.8253C72.8366 72.2815 73.7043 74.0239 73.7719 75.6383C74.0043 81.1966 73.6532 78.2734 73.6438 89.5738C73.6349 100.084 73.5617 103.449 73.3192 104.454C72.01 109.886 70.3396 112.184 66.874 113.323C64.9538 113.953 59.1621 113.948 57.0532 113.313C53.8474 112.348 52.3883 111.524 49.9712 109.311C48.9723 108.396 48.4142 107.544 48.5184 105.753C48.5676 104.906 48.9505 101.622 49.2311 98.9035C49.8438 92.9696 48.9704 75.5701 48.9704 75.5701C48.9704 75.5701 49.0728 72.9291 50.7397 71.7411C51.9016 70.9132 52.7447 70.381 52.4135 70.0465C51.9415 69.5697 49.2118 71.7342 48.8736 72.0908L48.2051 72.7956L47.368 71.8988C46.5047 70.9738 45.0463 69.9698 44.566 69.9698C44.4159 69.9698 44.6916 70.3151 45.1782 70.7374C46.3784 71.7785 46.6045 72.0615 47.1131 73.1584C47.5034 74.0006 47.5656 74.9497 47.6851 81.8975C47.7587 86.1844 47.8791 90.5954 47.9523 91.6996C48.0257 92.8038 47.9738 95.8861 47.8371 98.5492C47.4709 105.683 47.2057 106.673 46.9679 106.816C46.1801 107.288 45.1052 107.451 44.3095 107.67C42.2004 108.25 38.7872 108.696 35.4942 107.682C34.0769 107.246 33.1721 106.684 32.0335 106.112C29.0873 104.632 27.2452 102.856 25.1075 100.606C23.8228 99.2539 22.971 97.5562 22.2421 95.8686C20.3522 91.4921 20.7655 86.2073 20.2254 81.5165C19.9216 78.8776 19.9235 69.9478 20.2282 67.502C20.3587 66.4559 20.5691 64.6967 20.6961 63.5925C21.0697 60.3423 21.6071 57.6256 22.1206 56.3886C22.2283 56.1288 22.5333 55.3461 22.798 54.6493C23.0626 53.9525 23.5883 52.9284 23.9664 52.3731C25.118 50.6827 28.9039 46.977 30.4921 45.9862C33.1598 44.3218 36.5857 43.8555 40.9363 44.565ZM37.4726 62.588C38.186 63.0984 39.9988 60.9501 41.1527 59.8133C41.7004 59.2737 46.8132 50.1295 44.9757 50.1295C43.4746 50.1295 43.0179 53.631 41.3866 56.5066C39.3651 60.0701 37.0607 62.2933 37.4726 62.588ZM87.8031 50.5502C87.836 53.8429 89.2108 56.2312 87.9485 59.8725C87.5816 60.9306 87.4879 61.4668 87.6698 61.4668C88.0086 61.4668 88.8159 59.8452 89.2046 58.654C90.2005 55.6028 87.7693 46.6011 87.8031 50.5502ZM53.4662 51.986C53.0802 53.2874 53.1188 57.2108 53.527 58.1903C54.244 59.9096 56.1936 61.3556 57.5599 61.1812L58.2223 61.0967L57.4039 60.727C56.9538 60.5237 56.2488 60.0707 55.8373 59.7201C54.5421 58.6169 54.3073 57.883 54.1532 54.4589C54.0763 52.748 53.9514 51.2859 53.8754 51.2096C53.7997 51.1336 53.6154 51.4829 53.4662 51.986ZM67.2002 51.1924C67.1684 51.3223 67.1321 52.4914 67.1193 53.7905C67.0886 56.8924 66.7606 57.9348 65.3363 59.4561C64.7031 60.1325 64.185 60.753 64.185 60.835C64.185 60.9172 64.4744 60.8551 64.828 60.697C65.8692 60.2322 67.42 58.6381 67.7282 57.716C68.118 56.55 68.0476 53.0708 67.6105 51.901C67.4165 51.3813 67.2317 51.0625 67.2002 51.1924ZM74.6525 51.3549C74.5438 51.6808 75.228 54.1553 75.8827 55.8539C76.71 58.0003 77.0631 59.4675 78.6824 61.0298C79.0682 61.4023 79.3838 61.6028 79.3838 61.4751C79.3838 60.1386 78.099 58.5167 77.2672 56.6248C76.3205 54.4716 75.8109 52.157 74.826 51.1187C74.7875 51.0781 74.7094 51.1844 74.6525 51.3549ZM94.149 54.8085C95.8922 58.5 97.8088 61.2306 98.6567 61.2306C99.1625 61.2306 99.1195 61.0187 98.494 60.4311C96.8322 58.8694 95.7087 52.4914 93.3857 52.4914C92.8169 52.4914 94.0504 54.5997 94.149 54.8085ZM25.6509 55.5072C25.9446 58.5952 28.9325 61.6553 32.0335 62.0445L33.2026 62.1912L31.6297 61.356C28.8195 59.8642 26.3047 56.8395 26.3047 54.9519C26.3047 54.582 26.1707 54.381 25.9242 54.381C25.6109 54.381 25.5627 54.5801 25.6509 55.5072ZM18.3543 79.9489C18.3531 85.2959 18.3978 92.0426 20.6928 97.0512C21.8551 99.5878 23.3882 101.47 25.1662 103.561L24.579 103.869C24.2563 104.038 23.2497 104.315 22.3425 104.484C21.2287 104.693 20.6928 104.9 20.6928 105.124C20.6928 105.395 21.0564 105.424 22.7131 105.285L24.7336 105.115C24.4431 105.535 22.1174 108.655 23.3411 108.19C23.8494 107.997 24.4134 107.013 25.0551 106.22C25.72 105.399 26.4357 104.934 27.7362 105.761C28.1379 106.016 28.7428 106.408 29.0807 106.631C30.8827 107.819 33.3342 108.216 35.0003 109.496C35.3625 109.774 35.338 109.866 34.7048 110.61C33.3158 112.243 32.709 113.992 33.0796 115.297C33.2854 116.022 33.2805 116.027 32.3971 116.027C31.9077 116.027 31.1786 115.961 30.7767 115.88C30.111 115.745 30.0459 115.652 30.0459 114.829C30.0459 113.171 32.0991 109.729 31.2151 110.109C29.812 110.713 29.0784 113.485 29.0784 113.485C29.0784 113.485 28.8768 114.373 28.8768 114.957C28.8768 115.925 28.8202 116.03 28.2338 116.153C27.88 116.227 27.2225 116.38 26.7723 116.494C22.8901 117.475 18.3877 117.726 16.6639 117.058C14.7033 116.298 12.4029 113.293 11.5365 110.359C11.0265 108.632 11.3308 97.9225 12.0699 91.5815C12.2062 90.4123 12.1707 89.4361 12.4417 88.0938C13.0158 85.2494 15.3147 81.2504 15.3147 81.2504C15.3147 81.2504 17.1452 77.7641 18.1674 77.7641C18.2703 77.7641 18.3543 78.7472 18.3543 79.9489ZM100.781 91.0675C99.8092 91.5877 98.9547 92.16 97.9148 92.5333C97.2397 92.7757 96.6872 93.0591 96.6872 93.1635C96.6872 93.5624 99.0549 93.3472 99.9951 92.8628C101.098 92.2945 102.299 91.1296 102.299 90.6287C102.299 89.8629 101.12 90.8858 100.781 91.0675ZM86.648 101.955C83.557 102.751 82.3986 102.918 80.0369 102.907C78.0073 102.897 77.581 102.953 77.7856 103.202C77.9245 103.371 78.3407 103.509 78.3407 103.509C78.3407 103.509 83.1473 104.558 85.6972 103.778C87.2858 103.292 88.8803 103.039 90.4287 101.748C90.7245 101.501 90.7245 101.383 90.6041 101.324C90.2192 101.136 87.0048 101.863 86.648 101.955ZM30.5136 104.391C30.5136 104.6 31.1884 104.987 32.6181 105.6C35.8087 106.966 41.0909 106.948 44.3642 105.558C45.8257 104.938 45.177 104.809 41.0156 104.89C37.3931 104.961 34.9383 104.809 31.3905 104.294C30.9029 104.223 30.5136 104.266 30.5136 104.391ZM48.2441 110.264C49.6214 111.769 49.772 112.191 48.7396 111.651C47.2731 110.885 44.9257 110.656 43.3157 110.476C42.5764 110.393 41.9712 110.239 41.9712 110.133C41.9712 109.948 45.0542 108.109 46.7827 108.979C47.4598 109.32 47.5789 109.537 48.2441 110.264ZM55.2429 110.022C54.8425 110.427 59.1656 112.683 62.0043 112.719C63.6787 112.741 65.1946 112.311 66.2078 111.864C66.4726 111.748 69.3767 110.328 69.0142 109.962C68.9331 109.88 68.3275 109.989 67.6681 110.204C63.9091 111.431 59.664 111.252 55.8782 110.014C55.6177 109.929 55.3317 109.933 55.2429 110.022ZM40.6852 111.069C45.0884 111.569 48.058 112.186 48.46 112.685C49.1007 113.48 48.4621 116.5 47.4501 117.46C46.9506 117.934 46.8281 117.95 45.6699 117.686C42.8635 117.048 41.5279 116.757 39.7498 116.393C38.721 116.182 37.5561 115.908 37.1611 115.782C36.7662 115.657 36.1543 115.555 35.8012 115.555C33.7748 115.555 33.7722 113.968 35.7946 111.426C36.4671 110.581 36.4933 110.572 37.7623 110.727C38.4696 110.813 39.7849 110.967 40.6852 111.069Z" fill="black"/>
<path d="M102.775 19.0605C110.791 12.7275 118.765 6.33952 126.778 0.00143578C122.61 5.72621 118.413 11.4294 114.239 17.1467C116.917 17.9092 119.605 18.647 122.288 19.3984C114.973 25.9679 107.655 32.5377 100.314 39.0802C104.464 33.3596 108.66 27.6777 112.816 21.9672C109.464 21.0164 106.127 20.0113 102.775 19.0605Z" fill="#FB3E2D"/>
<path d="M95.3775 114.641C97.4809 122.559 99.6386 130.463 101.747 138.38C98.8497 133.469 95.9778 128.544 93.0882 123.631C91.6561 125.337 90.2396 127.057 88.8143 128.769C86.3088 121.286 83.804 113.801 81.327 106.308C84.2269 111.204 87.0832 116.121 89.9736 121.019C91.763 118.884 93.5881 116.776 95.3775 114.641Z" fill="#FB3E2D"/>
<path d="M29.6928 129.899C25.6231 132.975 21.5738 136.08 17.5057 139.159C19.648 136.345 21.8042 133.543 23.9493 130.734C22.6201 130.325 21.2864 129.928 19.955 129.525C23.6772 126.323 27.4008 123.121 31.1359 119.933C29.0028 122.745 26.8473 125.536 24.7112 128.343C26.3743 128.852 28.0297 129.389 29.6928 129.899Z" fill="#FB3E2D"/>
<path d="M15.7858 40.9953C10.5396 34.7036 5.24951 28.4462 -0.000721523 22.1571C4.69727 25.3883 9.37821 28.6425 14.0702 31.8785C14.6493 29.728 15.2084 27.571 15.7785 25.4172C21.2062 31.1456 26.6341 36.8762 32.0403 42.626C27.3459 39.4093 22.6823 36.1555 17.9961 32.9337C17.2741 35.6243 16.5078 38.3047 15.7858 40.9953Z" fill="#FB3E2D"/>
<path d="M57.0218 20.6731C60.5195 16.4096 63.9888 12.1219 67.4843 7.85599C65.9454 11.355 64.3891 14.8459 62.8463 18.3417C64.3466 18.4346 65.8486 18.5136 67.35 18.6002C64.2491 22.9076 61.1468 27.2154 58.029 31.5116C59.5586 28.0169 61.117 24.5373 62.6511 21.0472C60.7743 20.9326 58.8986 20.7877 57.0218 20.6731Z" fill="#FB3E2D"/>
</svg>
