<svg width="127" height="158" viewBox="0 0 127 158" fill="none" xmlns="http://www.w3.org/2000/svg">
<g clip-path="url(#clip0_2192_31781)" filter="url(#filter0_d_2192_31781)">
<path d="M52.0209 5.30051C53.9471 5.46413 55.473 7.45819 55.0884 9.35676C54.8492 11.2594 52.8131 12.6902 50.9399 12.2276C49.052 11.9363 47.7426 9.88577 48.1848 8.05041C48.5266 6.33115 50.2752 5.06991 52.0209 5.30051Z" fill="white"/>
<path d="M5.9181 135.015C20.3914 94.7469 34.8121 54.4574 49.2568 14.178C49.8933 14.7041 50.6879 14.9644 51.5018 15.0545C37.101 55.3198 22.6247 95.5585 8.22617 135.824C7.45205 135.569 6.67895 135.308 5.9181 135.015Z" fill="white"/>
<path d="M48.5952 30.7884C50.1937 26.4797 51.7046 22.1345 53.2368 17.8013C57.8725 19.099 62.3346 20.9652 66.6799 23.0203C64.4973 27.1018 62.2763 31.1626 60.1218 35.2576C56.385 33.5022 52.3741 32.4313 48.5952 30.7884Z" fill="white"/>
<path d="M74.7569 42.5842C77.2081 38.5872 79.9327 34.7593 82.7859 31.0418C88.3168 33.9093 93.3116 37.7204 97.7659 42.0579C94.3064 45.4237 90.6787 48.6319 87.4464 52.2234C83.6256 48.5212 79.4606 45.1123 74.7569 42.5842Z" fill="white"/>
<path d="M60.0541 35.6155C64.965 37.7239 69.7127 40.1949 74.3756 42.7976C71.563 46.718 69.0066 50.8205 66.1138 54.6822C61.8469 52.6304 57.7969 50.1371 53.4127 48.3291C55.2737 43.9193 57.6361 39.742 60.0541 35.6155Z" fill="white"/>
<path d="M87.3799 52.5865C89.7864 54.4058 91.8375 56.7286 93.2026 59.4255C94.5716 62.0205 95.3299 64.8892 95.7801 67.7747C92.2179 70.2347 88.7436 72.8365 84.9812 74.9931C84.7087 72.6595 83.9811 70.3669 82.7734 68.344C81.5645 66.3257 79.9209 64.5993 78.1458 63.0729C80.9668 59.3601 84.3894 56.1583 87.3799 52.5865Z" fill="white"/>
<path d="M43.7509 44.5407C46.8731 45.8324 49.9178 47.298 53.0717 48.5131C51.2795 52.8619 48.907 56.946 47.1275 61.3025C44.3298 60.39 41.6657 59.1178 38.8705 58.194C40.5219 53.6508 42.0995 49.0839 43.7509 44.5407Z" fill="white"/>
<path d="M66.2017 55.032C70.3033 57.3599 74.2888 59.9272 77.8641 63.0167C74.5082 66.8698 71.2745 70.8293 67.8161 74.5947C65.4005 71.0704 61.7583 68.6713 58.0989 66.5937C60.5154 62.5482 63.5107 58.8914 66.2017 55.032Z" fill="white"/>
<path d="M47.2503 61.4975C50.8475 63.011 54.1888 65.0433 57.6832 66.768C55.183 70.5148 52.7845 74.342 50.7732 78.3759C47.6112 76.9629 44.4176 75.5092 40.9923 74.8716C42.7333 70.2601 45.1521 65.9496 47.2503 61.4975Z" fill="white"/>
<path d="M84.4732 77.749C86.5604 76.4636 88.5967 75.0854 90.7417 73.8943C91.2715 74.0113 91.8045 74.1242 92.3391 74.2302C90.2899 75.5386 88.5525 77.2711 86.5596 78.6591C85.8686 78.3432 85.1829 78.0141 84.4732 77.749Z" fill="white"/>
<path d="M96.688 87.1739C98.9387 85.4398 101.287 83.8376 103.478 82.0278C105.226 83.608 106.349 85.7432 107.096 87.9493C108.336 91.6682 108.749 95.8583 107.265 99.571C105.193 99.9724 103.326 101.001 101.406 101.834C101.482 99.493 101.216 97.1321 100.492 94.8977C99.658 92.1315 98.1666 89.6333 96.688 87.1739Z" fill="white"/>
<path d="M67.8984 74.898C70.0933 77.2844 70.6052 80.8965 69.8425 83.9632C65.2132 86.6803 60.4296 89.1354 55.8691 91.9733C56.6809 90.1997 57.0365 88.1846 56.6342 86.257C60.1675 82.255 64.646 79.1643 67.8984 74.898Z" fill="white"/>
<path d="M86.5027 78.9477C90.5685 80.5835 93.5849 83.8987 96.4606 87.0722C93.7238 89.4215 90.6806 91.3862 87.9666 93.7622C84.9376 90.3651 81.2918 87.4391 77.0842 85.6351C80.07 83.1911 83.5491 81.4299 86.5027 78.9477Z" fill="white"/>
<path d="M71.431 85.2703C73.1821 84.9448 75.0114 85.1344 76.7187 85.6099C73.9405 87.505 71.3662 89.6757 68.7467 91.7812C67.0527 91.2465 65.4277 90.4906 63.6853 90.1173C66.252 88.4806 68.8088 86.8131 71.431 85.2703Z" fill="white"/>
<path d="M49.9299 85.5432C50.4716 84.8089 51.0379 84.0611 51.8144 83.5615C53.0596 84.7796 54.0664 86.4606 53.8015 88.2642C53.6998 88.9181 53.4219 89.8433 52.6181 89.868C51.452 89.9162 50.2891 89.3433 49.1243 89.6622C48.6069 89.7776 48.2498 90.1923 47.8995 90.5558C48.0275 88.7215 48.8652 87.0135 49.9299 85.5432Z" fill="white"/>
<path d="M80.4564 99.8101C82.9133 97.8521 85.3532 95.8736 87.9013 94.0318C89.5605 95.8168 90.8198 97.9302 91.8654 100.12C93.0657 102.729 93.9367 105.566 93.8399 108.465C93.8034 109.169 93.7521 109.94 93.26 110.496C90.9087 113.497 88.2736 116.257 85.7271 119.091C86.0185 116.382 85.9025 113.642 85.4825 110.952C85.01 108.038 84.183 105.144 82.7095 102.566C82.1214 101.527 81.3378 100.611 80.4564 99.8101Z" fill="white"/>
<path d="M58.005 100.366C61.5887 97.641 65.3281 95.1181 68.8157 92.2658C73.1831 93.7758 76.8465 96.7082 80.1433 99.8641C76.9307 102.219 73.8808 104.777 70.801 107.298C66.7701 104.56 61.8711 103.378 58.005 100.366Z" fill="white"/>
<path d="M52.8183 4.06656L53.9954 4.33171C56.1152 5.09383 57.7136 7.18076 57.7243 9.45299C57.8454 11.8625 56.1571 14.1012 53.9096 14.8746C53.8442 15.0584 53.7135 15.4259 53.6481 15.6097C65.6033 19.6876 77.1996 24.9116 87.8838 31.6738C91.8199 34.151 95.6432 36.8634 98.9271 40.172C102.022 43.2657 104.614 46.9207 106.187 51.018C107.206 53.6108 107.781 56.3592 108.025 59.1265C107.246 60.4244 106.193 61.5242 105.072 62.5299C101.588 65.6652 97.6454 68.2285 93.9296 71.0724C99.7912 74.3445 104.979 79.194 107.766 85.3684C109.41 89.0083 109.972 93.1293 109.256 97.0628L108.854 98.8497C108.494 100.055 108.052 101.238 107.513 102.375C103.76 102.46 100.292 104.395 97.7237 107.039C95.9442 108.788 94.4639 110.806 92.9772 112.798C91.4574 114.895 89.8092 116.892 88.3037 119C85.9119 122.18 83.531 125.418 80.5447 128.077C79.1192 129.33 77.4909 130.451 75.5928 130.822C77.3353 127.077 78.6332 122.815 77.6393 118.683C76.7717 114.969 73.9442 112.082 70.863 110.012C67.878 107.962 64.5911 106.423 61.4105 104.709C57.9653 102.957 54.3511 101.466 51.2299 99.1487C49.2673 97.6781 47.4436 95.8251 46.6579 93.45C45.9647 91.4307 46.1733 89.1959 46.9328 87.2287C47.7942 84.9472 49.1943 82.9139 50.7695 81.0706C45.1632 77.7293 38.6733 76.4061 32.4131 74.8501C24.8824 95.8639 17.3477 116.874 9.81014 137.887L9.61624 137.843C7.80849 137.153 5.97901 136.528 4.16436 135.859C12.3832 112.929 20.602 89.9989 28.8272 67.0726C35.2302 49.139 41.7197 31.2368 48.0735 13.2873C46.4911 11.5125 46.2123 8.74934 47.4708 6.72713C48.5426 4.89489 50.7165 3.86338 52.8183 4.06656ZM52.0203 5.30035C50.2745 5.06975 48.5259 6.33099 48.1842 8.05025C47.742 9.88561 49.0514 11.9361 50.9393 12.2275C52.8125 12.6901 54.8486 11.2592 55.0878 9.3566C55.4723 7.45802 53.9465 5.46397 52.0203 5.30035ZM5.91728 135.015C6.67813 135.308 7.45122 135.569 8.22535 135.824C22.6239 95.5584 37.1002 55.3196 51.5009 15.0543C50.6871 14.9643 49.8925 14.704 49.2559 14.1779C34.8112 54.4572 20.3906 94.7468 5.91728 135.015ZM48.5943 30.7882C52.3733 32.4311 56.3842 33.502 60.121 35.2574C62.2754 31.1624 64.4965 27.1016 66.679 23.0201C62.3338 20.965 57.8717 19.0988 53.236 17.8011C51.7038 22.1343 50.1929 26.4795 48.5943 30.7882ZM74.7551 42.5841C79.4588 45.1122 83.6238 48.5211 87.4446 52.2232C90.6769 48.6317 94.3046 45.4235 97.7641 42.0578C93.3098 37.7203 88.315 33.9092 82.7841 31.0417C79.9309 34.7592 77.2063 38.587 74.7551 42.5841ZM60.0524 35.6151C57.6344 39.7416 55.2721 43.9189 53.411 48.3288C57.7952 50.1367 61.8452 52.63 66.1121 54.6818C69.0049 50.8201 71.5614 46.7176 74.374 42.7972C69.711 40.1945 64.9633 37.7235 60.0524 35.6151ZM87.3796 52.5865C84.389 56.1583 80.9665 59.3601 78.1455 63.073C79.9205 64.5993 81.5642 66.3257 82.773 68.344C83.9808 70.3669 84.7084 72.6595 84.9809 74.9931C88.7432 72.8365 92.2176 70.2347 95.7798 67.7747C95.3296 64.8892 94.5712 62.0205 93.2023 59.4255C91.8371 56.7286 89.7861 54.4058 87.3796 52.5865ZM43.7492 44.5403C42.0979 49.0835 40.5202 53.6504 38.8689 58.1936C41.6641 59.1174 44.3281 60.3896 47.1259 61.302C48.9053 56.9456 51.2779 52.8615 53.07 48.5127C49.9162 47.2976 46.8714 45.832 43.7492 44.5403ZM66.201 55.0319C63.51 58.8912 60.5147 62.5481 58.0982 66.5936C61.7576 68.6712 65.3998 71.0702 67.8154 74.5945C71.2738 70.8291 74.5075 66.8696 77.8634 63.0166C74.288 59.927 70.3026 57.3598 66.201 55.0319ZM47.2496 61.4974C45.1514 65.9494 42.7327 70.2599 40.9916 74.8714C44.417 75.509 47.6106 76.9627 50.7726 78.3758C52.7838 74.3418 55.1823 70.5147 57.6826 66.7678C54.1881 65.0431 50.8468 63.0108 47.2496 61.4974ZM84.4728 77.7488C85.1825 78.0139 85.8682 78.3429 86.5592 78.6589C88.5521 77.2709 90.2894 75.5383 92.3387 74.23C91.8041 74.1239 91.271 74.011 90.7413 73.8941C88.5962 75.0852 86.56 76.4634 84.4728 77.7488ZM96.688 87.1735C98.1666 89.6329 99.658 92.131 100.492 94.8973C101.216 97.1316 101.482 99.4925 101.406 101.834C103.326 101.001 105.193 99.9719 107.265 99.5706C108.749 95.8578 108.336 91.6677 107.096 87.9489C106.349 85.7428 105.226 83.6076 103.478 82.0274C101.287 83.8371 98.9387 85.4393 96.688 87.1735ZM67.8981 74.8978C64.6456 79.164 60.1671 82.2547 56.6338 86.2568C57.0362 88.1843 56.6805 90.1994 55.8687 91.973C60.4293 89.1352 65.2129 86.68 69.8421 83.9629C70.6048 80.8962 70.093 77.2841 67.8981 74.8978ZM86.5014 78.9472C83.5478 81.4295 80.0687 83.1907 77.0829 85.6346C81.2905 87.4387 84.9363 90.3647 87.9654 93.7617C90.6793 91.3857 93.7225 89.4211 96.4593 87.0717C93.5836 83.8982 90.5672 80.583 86.5014 78.9472ZM71.4293 85.27C68.8071 86.8128 66.2503 88.4803 63.6836 90.117C65.426 90.4903 67.051 91.2463 68.745 91.7809C71.3645 89.6754 73.9388 87.5047 76.717 85.6096C75.0097 85.1341 73.1804 84.9445 71.4293 85.27ZM49.9299 85.5431C48.8652 87.0134 48.0275 88.7214 47.8995 90.5558C48.2498 90.1922 48.6069 89.7776 49.1243 89.6621C50.2891 89.3433 51.452 89.9162 52.6181 89.8679C53.4219 89.8433 53.6998 88.9181 53.8015 88.2641C54.0664 86.4605 53.0596 84.7796 51.8144 83.5615C51.0379 84.0611 50.4716 84.8089 49.9299 85.5431ZM80.4549 99.8098C81.3363 100.611 82.1199 101.527 82.708 102.566C84.1815 105.143 85.0085 108.037 85.481 110.952C85.901 113.641 86.017 116.382 85.7256 119.091C88.2721 116.256 90.9072 113.497 93.2585 110.496C93.7506 109.939 93.8019 109.169 93.8384 108.464C93.9352 105.566 93.0642 102.729 91.8639 100.12C90.8183 97.9299 89.559 95.8165 87.8998 94.0316C85.3517 95.8733 82.9118 97.8518 80.4549 99.8098ZM58.0049 100.366C61.871 103.378 66.77 104.56 70.8009 107.298C73.8806 104.777 76.9306 102.219 80.1431 99.8639C76.8464 96.708 73.183 93.7756 68.8156 92.2656C65.328 95.1179 61.5885 97.6408 58.0049 100.366Z" fill="black"/>
</g>
<defs>
<filter id="filter0_d_2192_31781" x="0.000488281" y="0" width="130.467" height="165.234" filterUnits="userSpaceOnUse" color-interpolation-filters="sRGB">
<feFlood flood-opacity="0" result="BackgroundImageFix"/>
<feColorMatrix in="SourceAlpha" type="matrix" values="0 0 0 0 0 0 0 0 0 0 0 0 0 0 0 0 0 0 127 0" result="hardAlpha"/>
<feOffset dy="4"/>
<feGaussianBlur stdDeviation="2"/>
<feComposite in2="hardAlpha" operator="out"/>
<feColorMatrix type="matrix" values="0 0 0 0 0 0 0 0 0 0 0 0 0 0 0 0 0 0 0.25 0"/>
<feBlend mode="normal" in2="BackgroundImageFix" result="effect1_dropShadow_2192_31781"/>
<feBlend mode="normal" in="SourceGraphic" in2="effect1_dropShadow_2192_31781" result="shape"/>
</filter>
<clipPath id="clip0_2192_31781">
<rect width="94" height="140" fill="white" transform="translate(34.7656) rotate(12.6945)"/>
</clipPath>
</defs>
</svg>
