<svg width="663" height="393" viewBox="0 0 663 393" fill="none" xmlns="http://www.w3.org/2000/svg">
<path d="M392.363 196.5C392.363 304.722 304.652 392.454 196.455 392.454C88.2575 392.454 0.546093 304.722 0.546093 196.5C0.546093 88.2775 88.2575 0.546093 196.455 0.546093C304.652 0.546093 392.363 88.2775 392.363 196.5Z" stroke="#383737" stroke-width="1.09219"/>
<path d="M662.453 196.5C662.453 304.722 574.742 392.454 466.545 392.454C358.347 392.454 270.636 304.722 270.636 196.5C270.636 88.2775 358.347 0.546093 466.545 0.546093C574.742 0.546093 662.453 88.2775 662.453 196.5Z" stroke="#383737" stroke-width="1.09219"/>
<path fill-rule="evenodd" clip-rule="evenodd" d="M331.501 338.17C368.68 302.417 391.818 252.161 391.818 196.5C391.818 140.839 368.68 90.5834 331.501 54.8303C294.321 90.5834 271.184 140.839 271.184 196.5C271.184 252.161 294.321 302.417 331.501 338.17Z" fill="#A79CEE"/>
</svg>
