<svg width="145" height="145" viewBox="0 0 145 145" fill="none" xmlns="http://www.w3.org/2000/svg">
<path d="M40.1136 41.5135C48.5889 34.0387 59.7321 29.7032 71.0204 29.3552C80.0974 29.087 89.2106 31.4287 97.0769 35.9455C96.6274 36.7575 96.1996 37.5767 95.7864 38.4032C95.5834 38.7875 95.1919 39.5632 94.9889 39.9475C91.5814 38.6497 88.1521 37.3375 84.5996 36.482C73.4129 34.191 61.2764 35.9527 51.5469 42.079C42.7816 47.27 35.9449 55.5857 32.4286 65.134C27.0056 78.9525 28.8109 95.439 37.2354 107.684C38.9246 109.874 37.2789 112.6 37.0179 114.978C42.8831 115.318 48.7556 114.825 54.6209 115.072C54.2439 114.514 53.4899 113.404 53.1129 112.846C55.0921 113.919 57.1656 114.811 59.2826 115.572C50.6624 115.637 42.0421 115.587 33.4291 115.645C31.9356 115.862 31.3556 114.238 30.9496 113.136C32.2329 111.534 33.2551 109.17 31.7471 107.351C24.7871 97.2732 21.6841 84.5857 23.4024 72.4492C24.9104 60.5375 31.0149 49.3217 40.1136 41.5135Z" fill="black"/>
<path d="M31.1321 47.8283C38.9549 37.3665 50.8594 30.044 63.7426 27.8618C76.0676 25.694 89.1974 28.2388 99.7534 34.974C98.2671 38.1423 97.2304 41.4555 97.2231 44.9935C98.3469 43.5218 99.3256 41.8978 100.739 40.687C102.095 39.8533 103.603 39.3023 105.06 38.6715C114.326 46.2695 120.996 57.0503 123.265 68.846C126.252 82.8675 122.758 97.8388 114.58 109.526C115.435 111.063 116.639 112.781 115.921 114.63C115.479 116.856 113.057 118.052 110.94 117.892C85.3041 117.878 59.6681 117.892 34.0321 117.885C31.8861 118.132 29.6096 116.79 29.0659 114.644C28.3336 112.817 29.5299 111.07 30.4071 109.548C25.8831 102.812 22.4829 95.2215 21.3374 87.145C19.1116 73.4353 22.7221 58.8845 31.1321 47.8283ZM40.1149 41.5135C31.0161 49.3218 24.9116 60.5375 23.4036 72.4493C21.6854 84.5858 24.7884 97.2733 31.7484 107.351C33.2564 109.171 32.2341 111.534 30.9509 113.136C31.3569 114.238 31.9369 115.862 33.4304 115.645C42.0434 115.587 50.6636 115.638 59.2839 115.572C57.1669 114.811 55.0934 113.919 53.1141 112.846C44.1966 107.394 37.1569 98.6435 34.7426 88.3703C32.0094 77.7563 34.1699 66.0403 40.3976 57.0358C47.4591 46.5958 59.8856 39.9258 72.5224 40.0998C80.3596 39.9983 88.1316 42.514 94.5551 46.9583C95.0481 44.1163 95.4541 41.267 95.7876 38.4033C96.2009 37.5768 96.6286 36.7575 97.0781 35.9455C89.2119 31.4288 80.0986 29.087 71.0216 29.3553C59.7334 29.7033 48.5901 34.0388 40.1149 41.5135ZM97.0491 48.6765C102.733 53.6283 107.402 59.9648 109.577 67.2438C112.231 75.5015 111.941 84.651 108.867 92.7565C104.937 103.284 96.1646 111.824 85.6014 115.623C94.2506 115.703 102.9 115.667 111.549 115.652C113.13 115.942 113.608 114.246 114.087 113.122C112.854 111.541 111.687 109.236 113.238 107.438C120.039 97.5198 123.251 85.1368 121.692 73.1743C120.343 60.9 114.065 49.3218 104.705 41.296C100.979 42.2168 99.4416 46.0738 97.0491 48.6765ZM64.1414 43.1883C54.4989 45.5518 45.7336 51.7795 40.8181 60.4723C36.3159 67.918 34.7861 77.053 36.4101 85.5935C38.3241 96.6715 45.7626 106.604 55.8039 111.65C63.2931 115.572 72.1889 116.624 80.4249 114.818C91.1549 112.506 100.631 105.067 105.423 95.1925C108.722 88.7183 109.787 81.229 108.903 74.0443C107.293 61.422 98.5354 49.9598 86.7396 45.1603C79.6636 42.1153 71.6379 41.499 64.1414 43.1883Z" fill="black"/>
<path d="M68.4397 45.349C76.2044 44.3702 84.2954 46.2552 90.8567 50.5327C99.7597 56.224 105.712 66.316 106.241 76.8865C106.937 86.8045 102.899 96.911 95.6199 103.661C88.2539 110.729 77.5094 114.086 67.4319 112.484C53.3524 110.628 41.3682 98.9482 39.0699 84.9412C37.0037 74.233 40.6722 62.6475 48.4949 55.0495C53.7584 49.6265 60.9359 46.1755 68.4397 45.349ZM44.1812 64.5542C49.6694 65.8012 55.0924 67.3527 60.5807 68.6142C62.8354 69.4262 64.4667 67.157 66.1414 66.026C66.6272 59.9215 67.1202 53.788 67.3957 47.6617C57.5502 49.2132 48.7342 55.702 44.1812 64.5542ZM69.6939 47.321C69.1792 54.0055 68.9907 60.7335 68.1787 67.3817C66.2212 68.5997 64.5754 70.6587 62.3424 71.2315C55.8392 70.0497 49.5607 67.8312 43.0502 66.6785C42.5282 68.3822 41.9047 70.057 41.4914 71.7897C47.6177 74.6825 54.1499 76.6835 60.2472 79.6415C60.5444 81.8962 62.0452 84.0277 61.8639 86.268C58.6522 91.9592 54.8314 97.2952 51.4602 102.899C52.9464 104.023 54.4544 105.118 55.9842 106.191C60.4357 101.196 64.4449 95.7727 69.1502 91.0167C71.3614 90.8645 73.5872 91.0312 75.8057 90.9587C80.1557 95.9757 84.2954 101.174 88.4207 106.379C90.0737 105.335 91.6832 104.219 93.2057 103.001C89.9649 97.8535 86.8402 92.6335 83.5777 87.5005C81.7869 84.9775 84.5637 82.2587 84.8174 79.6197C90.9582 76.9445 97.2294 74.5882 103.443 72.116C102.942 70.2817 102.37 68.4692 101.761 66.6712C95.3517 68.085 89.0659 70.057 82.6207 71.2532C80.4384 70.579 78.7492 68.7012 76.8569 67.4252C75.9652 60.7842 75.9652 54.0272 75.3707 47.3355C73.4784 47.2992 71.5862 47.2992 69.6939 47.321ZM77.6834 47.6182C78.0024 53.759 78.3287 59.907 78.8724 66.026C80.2137 67.1062 81.5549 68.3605 83.1789 68.9767C89.0369 67.6137 94.8442 65.9752 100.724 64.6702C96.2507 55.76 87.4637 49.3872 77.6834 47.6182ZM41.0274 74.117C39.5847 83.9407 42.9559 94.1705 49.8507 101.29C53.1349 96.0555 56.4192 90.821 59.8049 85.659C59.1597 84.151 58.6812 82.5777 58.2462 80.9972C52.4752 78.786 46.7767 76.379 41.0274 74.117ZM86.7169 81.0842C86.2457 82.6285 85.7309 84.1655 85.1292 85.6662C88.2974 90.9732 91.5817 96.2077 94.9167 101.413C101.782 94.3372 105.306 84.122 103.827 74.32C98.1139 76.5457 92.4444 78.8947 86.7169 81.0842ZM58.0214 107.344C66.8882 111.578 77.5964 111.875 86.4414 107.423C82.6569 102.631 78.6694 98.013 74.9139 93.199C73.2682 93.228 71.6152 93.2135 69.9694 93.1338C65.9529 97.8463 61.9364 102.544 58.0214 107.344Z" fill="black"/>
<path d="M70.6076 72.9276C74.2688 71.6879 78.4666 74.5444 78.7783 78.3579C79.2133 81.8669 76.1176 85.4846 72.4998 85.2599C68.8531 85.4919 65.7283 81.8016 66.2213 78.2564C66.4751 75.8131 68.3311 73.7324 70.6076 72.9276ZM71.3471 75.0374C67.9541 75.7914 67.3451 81.0694 70.5133 82.5556C73.0363 84.1796 76.7193 81.9974 76.5743 79.0249C76.8063 76.3206 73.8701 74.2326 71.3471 75.0374Z" fill="black"/>
<path d="M51.5483 42.079C61.2779 35.9527 73.4144 34.191 84.6011 36.482C88.1536 37.3375 91.5829 38.6497 94.9904 39.9475C95.1934 39.5632 95.5849 38.7875 95.7878 38.4032C95.4544 41.267 95.0484 44.1162 94.5554 46.9582C88.1319 42.514 80.3599 39.9982 72.5226 40.0997C59.8859 39.9257 47.4593 46.5957 40.3978 57.0357C34.1701 66.0402 32.0096 77.7562 34.7428 88.3702C37.1571 98.6435 44.1968 107.394 53.1144 112.846C53.4914 113.404 54.2453 114.514 54.6223 115.072C48.7571 114.825 42.8846 115.318 37.0193 114.978C37.2803 112.6 38.9261 109.874 37.2368 107.684C28.8123 95.439 27.0071 78.9525 32.4301 65.134C35.9463 55.5857 42.7831 47.27 51.5483 42.079Z" fill="black"/>
<path d="M121.195 73.2288L121.195 73.2288L121.196 73.2388C122.737 85.0638 119.566 97.3145 112.841 107.133C111.952 108.179 111.854 109.375 112.134 110.484C112.385 111.477 112.94 112.421 113.515 113.196C113.493 113.248 113.472 113.3 113.451 113.352C113.262 113.819 113.082 114.266 112.824 114.627C112.666 114.848 112.501 115.001 112.324 115.089C112.154 115.173 111.938 115.215 111.64 115.16L111.594 115.152L111.548 115.152C110.182 115.154 108.815 115.157 107.449 115.16C101.016 115.173 94.5865 115.187 88.1567 115.143C97.78 110.931 105.653 102.796 109.335 92.9325C112.447 84.725 112.742 75.4616 110.055 67.0956C107.895 59.871 103.322 53.5803 97.7562 48.6324C98.2436 48.063 98.6961 47.4535 99.1355 46.8484C99.2233 46.7275 99.3105 46.6069 99.3973 46.4867C99.8492 45.8616 100.292 45.249 100.764 44.672C101.831 43.3674 102.997 42.3109 104.579 41.8476C113.736 49.7864 119.87 61.1722 121.195 73.2288Z" fill="black" stroke="black"/>
<path d="M71.3483 75.0374C73.8713 74.2326 76.8076 76.3206 76.5756 79.0249C76.7206 81.9974 73.0376 84.1796 70.5146 82.5556C67.3463 81.0694 67.9553 75.7914 71.3483 75.0374Z" fill="white"/>
<path d="M64.1409 43.1882C71.6374 41.4989 79.6631 42.1152 86.7391 45.1602C98.5349 49.9597 107.293 61.4219 108.902 74.0442C109.787 81.2289 108.721 88.7182 105.422 95.1924C100.63 105.067 91.1544 112.505 80.4244 114.818C72.1884 116.623 63.2926 115.572 55.8034 111.65C45.7621 106.604 38.3236 96.6714 36.4096 85.5934C34.7856 77.0529 36.3154 67.9179 40.8176 60.4722C45.7331 51.7794 54.4984 45.5517 64.1409 43.1882ZM68.4401 45.3487C60.9364 46.1752 53.7589 49.6262 48.4954 55.0492C40.6726 62.6472 37.0041 74.2327 39.0704 84.9409C41.3686 98.9479 53.3529 110.628 67.4324 112.484C77.5099 114.086 88.2544 110.729 95.6204 103.66C102.899 96.9107 106.938 86.8042 106.242 76.8862C105.712 66.3157 99.7601 56.2237 90.8571 50.5324C84.2959 46.2549 76.2049 44.3699 68.4401 45.3487Z" fill="#FB3E2D"/>
<path d="M69.6947 47.3205C71.5869 47.2988 73.4792 47.2988 75.3714 47.335C75.9659 54.0268 75.9659 60.7838 76.8577 67.4248C78.7499 68.7008 80.4392 70.5785 82.6214 71.2528C89.0667 70.0565 95.3524 68.0845 101.761 66.6708C102.37 68.4688 102.943 70.2813 103.443 72.1155C97.2302 74.5878 90.9589 76.944 84.8182 79.6193C84.5644 82.2583 81.7877 84.977 83.5784 87.5C86.8409 92.633 89.9657 97.853 93.2064 103.001C91.6839 104.219 90.0744 105.335 88.4214 106.379C84.2962 101.174 80.1564 95.9753 75.8064 90.9583C73.5879 91.0308 71.3622 90.864 69.1509 91.0163C64.4457 95.7723 60.4364 101.195 55.9849 106.191C54.4552 105.118 52.9472 104.023 51.4609 102.899C54.8322 97.2948 58.6529 91.9588 61.8647 86.2675C62.0459 84.0273 60.5452 81.8958 60.2479 79.641C54.1507 76.683 47.6184 74.682 41.4922 71.7893C41.9054 70.0565 42.5289 68.3818 43.0509 66.678C49.5614 67.8308 55.8399 70.0493 62.3432 71.231C64.5762 70.6583 66.2219 68.5993 68.1794 67.3813C68.9914 60.733 69.1799 54.005 69.6947 47.3205ZM70.6082 72.9275C68.3317 73.7323 66.4757 75.813 66.2219 78.2563C65.7289 81.8015 68.8537 85.4918 72.5004 85.2598C76.1182 85.4845 79.2139 81.8668 78.7789 78.3578C78.4672 74.5443 74.2694 71.6878 70.6082 72.9275Z" fill="#FB3E2D"/>
</svg>
