<svg width="110" height="115" viewBox="0 0 110 115" fill="none" xmlns="http://www.w3.org/2000/svg">
<path opacity="0.85" d="M23.7373 2.89893H85.2347L85.3117 3.055C77.9582 3.11926 70.6047 3.06418 63.2512 3.08254C51.8845 3.08254 40.5178 3.08254 29.1512 3.08254C27.3417 3.07703 25.5303 3.10457 23.7227 3.055L23.7373 2.89893Z" fill="black"/>
<path d="M33.0781 15.9079C38.9448 15.8675 44.8115 15.8987 50.6781 15.8914C50.68 28.0484 50.6818 40.2055 50.6763 52.3625C44.8206 52.3754 38.9631 52.3423 33.1056 52.379C33.0525 40.222 33.1075 28.0649 33.0781 15.9079ZM33.3146 16.1392C33.2963 28.1292 33.311 40.1192 33.3073 52.1091C39.0236 52.1128 44.7418 52.1146 50.4581 52.1091C50.4526 40.1192 50.4691 28.1292 50.4508 16.1392C44.7381 16.1392 39.0273 16.1392 33.3146 16.1392Z" fill="black"/>
<path d="M56.7188 15.9024C62.5854 15.8749 68.4502 15.8951 74.3169 15.8914C74.3224 27.964 74.3151 40.0384 74.3206 52.111H74.1024C74.0841 40.1192 74.1098 28.1293 74.0896 16.1393C68.3769 16.1393 62.6642 16.1375 56.9516 16.1393C56.9296 28.1311 56.9571 40.1211 56.9369 52.1128C56.8856 52.1771 56.7811 52.3093 56.7297 52.3754C56.7114 40.2165 56.7334 28.0595 56.7188 15.9024Z" fill="black"/>
<path d="M33.8172 17.4136C39.1944 17.4172 44.5716 17.4154 49.9487 17.4154C49.9396 28.5479 49.9377 39.6822 49.9506 50.8165C44.5734 50.8514 39.1944 50.8459 33.8172 50.8202C33.8172 39.684 33.8154 28.5497 33.8172 17.4136ZM34.1381 17.667C34.0977 17.7459 34.0189 17.9038 33.9786 17.9828C34.0354 27.6427 33.9877 37.3063 34.0042 46.9662C34.0226 48.0311 33.9492 49.1016 34.0629 50.1629C34.0501 50.273 34.0281 50.497 34.0171 50.6072C39.2531 50.6127 44.4909 50.609 49.7287 50.609C49.7379 39.6216 49.7636 28.6324 49.7159 17.6449C44.5239 17.6615 39.3282 17.6155 34.1381 17.667Z" fill="black"/>
<path d="M57.455 17.4119C62.8285 17.4155 68.2038 17.4229 73.5791 17.4082C73.5846 28.5499 73.581 39.6915 73.581 50.8332C68.2038 50.8332 62.8285 50.8534 57.4531 50.8222C57.4586 39.686 57.4568 28.5499 57.455 17.4119ZM57.7795 17.6671C57.7391 17.7461 57.6585 17.904 57.6163 17.9829C57.6328 18.2198 57.642 18.4566 57.6475 18.6935C57.642 28.851 57.6493 39.0085 57.642 49.166C57.642 49.4983 57.6621 49.8307 57.7025 50.163C57.6896 50.275 57.6676 50.4972 57.6566 50.6092C62.8926 50.611 68.1305 50.611 73.3665 50.6092C73.3775 39.6218 73.3958 28.6325 73.3573 17.6451C68.1653 17.6598 62.9696 17.6157 57.7795 17.6671Z" fill="black"/>
<path d="M49.0941 18.7886C49.1693 19.1099 49.2115 19.4404 49.2115 19.7727C49.2078 29.2692 49.2078 38.7657 49.2115 48.2622C49.2078 48.6331 49.1913 49.0058 49.1528 49.3749C49.129 49.2868 49.0776 49.1105 49.052 49.0224C48.9915 40.0767 49.0428 31.1256 49.0263 22.1781C49.0465 21.0489 48.9658 19.9123 49.0941 18.7886Z" fill="black"/>
<path d="M72.678 18.814C72.9365 19.4768 72.8375 20.2002 72.8504 20.8943C72.8467 29.5241 72.8504 38.1521 72.8485 46.782C72.8449 47.6468 72.8852 48.5134 72.7899 49.3746C72.7642 49.2865 72.7147 49.112 72.6909 49.0257C72.6285 47.544 72.6835 46.0604 72.6652 44.5786C72.6725 35.991 72.6505 27.4016 72.678 18.814Z" fill="black"/>
<path d="M77.493 54.0593C78.2997 52.9869 80.1165 52.9686 80.9433 54.0244C81.4182 54.5385 81.475 55.2693 81.486 55.9358C81.3705 56.27 81.2275 56.5931 81.0662 56.9071C80.7582 57.1642 80.4355 57.4047 80.1055 57.6324C79.726 57.7095 79.3447 57.7646 78.9615 57.7976C78.3492 57.5626 77.6562 57.2964 77.372 56.6537C78.0907 56.4113 78.186 55.6438 78.4665 55.0489C78.78 54.6744 79.2383 54.4559 79.5757 54.1033C79.6655 54.0207 79.8452 53.8554 79.935 53.7728C79.7865 53.692 79.4913 53.5268 79.3428 53.446C78.4573 53.7251 77.6195 54.2924 77.3353 55.2234C77.2327 55.4749 77.1318 55.7283 77.0273 55.9798C77.0328 55.3188 77.0108 54.5807 77.493 54.0593Z" fill="white"/>
<path d="M78.625 59.6482C78.7533 59.2681 79.2978 59.1451 79.5655 59.4518C79.8038 59.6556 79.6407 59.9604 79.5967 60.2119C79.4408 60.7315 79.4353 61.2769 79.4005 61.8149C79.274 61.8167 79.0228 61.8167 78.8982 61.8167C78.9147 61.0804 78.7588 60.3643 78.625 59.6482Z" fill="black"/>
<path d="M33.0781 62.2113C38.9485 62.2021 44.817 62.2021 50.6855 62.2113C50.6726 74.3665 50.6781 86.5235 50.6836 98.6787C44.8151 98.6806 38.9485 98.6769 33.0818 98.6806C33.0836 86.5235 33.091 74.3665 33.0781 62.2113ZM33.3348 62.4536C33.2706 74.4436 33.3183 86.4354 33.311 98.4253C39.0273 98.4309 44.7418 98.4309 50.4563 98.4235C50.449 86.4335 50.482 74.4436 50.4398 62.4536C44.7381 62.4555 39.0365 62.4573 33.3348 62.4536Z" fill="black"/>
<path d="M56.7188 62.212C62.5854 62.1991 68.4521 62.2102 74.3206 62.2065C74.3096 74.3672 74.3426 86.5298 74.3041 98.6905C68.4429 98.6666 62.5818 98.6868 56.7224 98.6795C56.7243 86.5243 56.7297 74.3672 56.7188 62.212ZM56.9883 62.4507C56.8948 63.6515 56.9681 64.8579 56.9461 66.0624C56.9479 76.8478 56.9388 87.6351 56.9498 98.4224C62.6661 98.4371 68.3806 98.4279 74.0951 98.4279C74.0933 86.4361 74.1153 74.4462 74.0841 62.4562C68.3843 62.4544 62.6863 62.4635 56.9883 62.4507Z" fill="black"/>
<path d="M33.8516 63.736C39.2177 63.7268 44.5821 63.7378 49.9482 63.7305C49.9372 74.8758 49.9519 86.0211 49.9409 97.1683C49.8932 97.104 49.7961 96.9755 49.7466 96.9131C49.7264 85.9312 49.7557 74.9493 49.7337 63.9673C44.8901 63.9526 40.0446 63.971 35.2009 63.9582C34.8067 63.9563 34.4126 63.9747 34.0221 64.0224C33.9799 63.9508 33.8937 63.8076 33.8516 63.736Z" fill="black"/>
<path d="M57.4824 63.7393C62.8467 63.7173 68.2092 63.7466 73.5717 63.7246C73.5882 74.8663 73.579 86.0098 73.5772 97.1514C68.1909 97.1533 62.8064 97.1551 57.4219 97.1514C57.497 97.0945 57.6474 96.9825 57.7225 96.9256C62.9402 96.9183 68.1579 96.9274 73.3755 96.9201C73.3719 85.9363 73.3829 74.9507 73.37 63.967C68.1542 63.9725 62.9365 63.9358 57.7207 63.9853C57.662 63.9229 57.5429 63.8017 57.4824 63.7393Z" fill="black"/>
<path d="M49.0931 65.1934C49.2691 65.836 49.2031 66.5062 49.2123 67.1654C49.2068 76.6545 49.2141 86.1455 49.2086 95.6346C49.1609 95.5814 49.0693 95.4749 49.0234 95.4216C49.0308 85.6956 49.0253 75.9696 49.0253 66.2436C49.0308 65.8911 49.0491 65.5404 49.0931 65.1934Z" fill="black"/>
<path d="M72.7375 65.1968C72.82 65.531 72.853 65.8761 72.8512 66.2195C72.842 76.0245 72.8512 85.8294 72.8475 95.6344C72.8017 95.5811 72.7082 95.4746 72.6624 95.4214C72.6679 86.1856 72.6624 76.9499 72.6642 67.7141C72.6697 66.875 72.6257 66.0322 72.7375 65.1968Z" fill="black"/>
<path d="M24.2033 2.4834L23.2031 2.48322V3.4834V3.53975C23.2031 39.6689 23.2031 75.8 23.205 111.931L23.205 112.931L24.2051 112.931C44.4285 112.927 64.6519 112.927 84.8772 112.929L85.8772 112.929L85.8773 111.929C85.8785 87.8307 85.8781 63.7321 85.8777 39.633C85.8775 27.5833 85.8773 15.5334 85.8773 3.4834V2.48331L84.8772 2.4834L84.8752 2.4834C64.6505 2.48523 44.4278 2.48707 24.2033 2.4834ZM49.6784 16.8929C49.6802 28.3838 49.6817 39.8744 49.6769 51.3649C47.6916 51.3676 45.7029 51.3658 43.7127 51.364C40.5101 51.3611 37.3037 51.3581 34.1016 51.3741C34.0763 44.8764 34.0804 38.3859 34.0845 31.8927C34.0876 26.899 34.0907 21.9036 34.0805 16.9023C37.5579 16.883 41.0325 16.8866 44.5111 16.8903C46.2323 16.8921 47.9545 16.8939 49.6784 16.8929ZM73.3177 16.8924C73.32 22.5951 73.3196 28.2983 73.3191 34.0017C73.3187 39.7902 73.3183 45.5789 73.3206 51.3672C71.6367 51.3677 69.9519 51.3668 68.2666 51.3658C64.7549 51.3639 61.2411 51.3619 57.7287 51.3726C57.7207 45.3341 57.7221 39.3032 57.7234 33.2716C57.7247 27.8166 57.726 22.3611 57.7202 16.8988C61.2961 16.8851 64.8698 16.8877 68.4464 16.8904C70.0694 16.8915 71.693 16.8927 73.3177 16.8924ZM81.2648 64.6248C79.9271 64.6218 78.588 64.6207 77.249 64.626C77.1956 61.4486 77.2099 58.2718 77.2242 55.0828C77.2281 54.2211 77.232 53.3586 77.2345 52.4949C78.5893 52.4783 79.9315 52.4676 81.2688 52.4958C81.2669 54.1556 81.268 55.8124 81.2691 57.4682C81.2707 59.854 81.2724 62.2377 81.2648 64.6248ZM49.6833 97.6799C47.5048 97.6804 45.326 97.6802 43.1472 97.68C40.1253 97.6797 37.1033 97.6794 34.0821 97.6809C34.0825 95.4103 34.0831 93.1395 34.0836 90.8688C34.0859 81.6494 34.0882 72.4295 34.0793 63.2107C39.282 63.2035 44.4833 63.2035 49.6846 63.2107C49.6734 74.7002 49.6782 86.1912 49.6833 97.6799ZM63.4769 97.68C61.5571 97.681 59.6382 97.6821 57.7211 97.6806C57.7214 95.8042 57.7218 93.9276 57.7222 92.051C57.7242 82.4379 57.7262 72.8235 57.7182 63.2102C61.0154 63.2044 64.3114 63.2055 67.609 63.2066C69.5114 63.2072 71.4143 63.2078 73.3183 63.2071C73.3153 67.5089 73.3173 71.8092 73.3193 76.109C73.3227 83.3023 73.3261 90.4939 73.3056 97.687C70.0301 97.6763 66.7522 97.6781 63.4769 97.68Z" fill="white" stroke="black" stroke-width="2"/>
<path d="M24.2031 3.4834C44.4285 3.48707 64.652 3.48523 84.8773 3.4834C84.8773 39.6332 84.8791 75.7812 84.8773 111.929C64.652 111.927 44.4285 111.927 24.205 111.931C24.2031 75.7812 24.2031 39.6314 24.2031 3.4834ZM33.0783 15.9085C33.1076 28.0656 33.0526 40.2226 33.1058 52.3797C38.9633 52.3429 44.8208 52.376 50.6765 52.3631C50.682 40.2061 50.6801 28.049 50.6783 15.892C44.8116 15.8993 38.945 15.8681 33.0783 15.9085ZM56.7191 15.903C56.7338 28.0601 56.7118 40.2171 56.7301 52.376C62.5876 52.354 68.4451 52.3705 74.3026 52.3668L74.321 52.1116C74.3155 40.039 74.3228 27.9646 74.3173 15.892C68.4506 15.8957 62.5858 15.8755 56.7191 15.903ZM76.2368 51.5075C76.2295 56.2153 76.1671 60.925 76.268 65.631C78.2645 65.6182 80.2628 65.6219 82.2611 65.6274C82.2813 60.9269 82.2611 56.2245 82.2703 51.524C80.261 51.4506 78.248 51.4818 76.2368 51.5075ZM33.0783 62.2122C33.0911 74.3674 33.0838 86.5244 33.082 98.6815C38.9486 98.6778 44.8153 98.6815 50.6838 98.6796C50.6783 86.5244 50.6728 74.3674 50.6856 62.2122C44.8171 62.203 38.9486 62.203 33.0783 62.2122ZM56.7173 62.2122C56.7283 74.3674 56.7228 86.5244 56.721 98.6796C62.5803 98.687 68.4415 98.6668 74.3026 98.6906C74.3411 86.5299 74.3081 74.3674 74.3191 62.2066C68.4506 62.2103 62.584 62.1993 56.7173 62.2122Z" fill="white"/>
<path d="M33.3141 16.1396C39.0268 16.1396 44.7376 16.1396 50.4503 16.1396C50.4686 28.1296 50.4521 40.1196 50.4576 52.1095C44.7413 52.115 39.0231 52.1132 33.3068 52.1095C33.3105 40.1196 33.2958 28.1296 33.3141 16.1396ZM33.8165 17.4139C33.8146 28.5501 33.8165 39.6844 33.8165 50.8206C39.1936 50.8463 44.5726 50.8518 49.9498 50.8169C49.937 39.6826 49.9388 28.5482 49.948 17.4158C44.5708 17.4158 39.1936 17.4176 33.8165 17.4139Z" fill="white"/>
<path d="M56.9522 16.1395C62.6648 16.1377 68.3775 16.1395 74.0902 16.1395C74.1103 28.1294 74.0847 40.1194 74.103 52.1112C68.3812 52.1075 62.6593 52.102 56.9375 52.113C56.9577 40.1212 56.9302 28.1313 56.9522 16.1395ZM57.4563 17.4119C57.4582 28.5499 57.46 39.6861 57.4545 50.8222C62.8298 50.8534 68.2052 50.8333 73.5823 50.8333C73.5823 39.6916 73.586 28.5499 73.5805 17.4083C68.2052 17.4229 62.8298 17.4156 57.4563 17.4119Z" fill="white"/>
<path d="M34.1361 17.6675C39.3262 17.6161 44.5219 17.662 49.7139 17.6455C49.7616 28.6329 49.7359 39.6222 49.7267 50.6096C44.4889 50.6096 39.2511 50.6133 34.0151 50.6077C34.0261 50.4976 34.0481 50.2736 34.0609 50.1634C34.2424 49.8733 34.4367 49.5905 34.6127 49.2968C39.4546 49.4418 44.3056 49.2876 49.1492 49.3757C49.1877 49.0066 49.2042 48.6339 49.2079 48.263C49.2042 38.7665 49.2042 29.27 49.2079 19.7736C49.2079 19.4412 49.1657 19.1107 49.0906 18.7894C48.9622 19.9131 49.0429 21.0497 49.0227 22.1789C49.0392 31.1264 48.9879 40.0775 49.0484 49.0232C48.2839 49.1076 47.5139 49.0838 46.7476 49.0856C43.3871 49.0801 40.0266 49.0874 36.6642 49.0819C36.0097 49.0838 35.3479 49.0507 34.6971 49.1499C34.6146 48.5494 34.5027 47.949 34.5064 47.3413C34.5321 37.7915 34.5009 28.24 34.5229 18.6902C34.9904 18.6553 35.4579 18.6205 35.9291 18.6094C40.3731 18.6186 44.8207 18.6296 49.2647 18.6094C49.2666 18.4185 49.2666 18.2257 49.2684 18.0329C44.1717 17.9705 39.0732 18.0751 33.9766 17.9833C34.0169 17.9044 34.0957 17.7465 34.1361 17.6675Z" fill="white"/>
<path d="M57.7804 17.6671C62.9705 17.6157 68.1662 17.6597 73.3582 17.645C73.3967 28.6325 73.3784 39.6217 73.3674 50.6092C68.1314 50.611 62.8935 50.611 57.6575 50.6092C57.6685 50.4972 57.6905 50.275 57.7034 50.163C57.8904 49.8729 58.0884 49.5901 58.2699 49.2982C59.4377 49.401 60.611 49.3367 61.7825 49.3533C65.451 49.3679 69.1177 49.3239 72.7862 49.3753C72.8815 48.5141 72.8412 47.6475 72.8449 46.7827C72.8467 38.1528 72.843 29.5248 72.8467 20.895C72.8339 20.2009 72.9329 19.4775 72.6744 18.8147C72.6469 27.4023 72.6689 35.9917 72.6615 44.5793C72.6799 46.0611 72.6249 47.5447 72.6872 49.0264C71.9264 49.1054 71.16 49.0833 70.3974 49.0852C66.7289 49.0797 63.0604 49.0889 59.3919 49.0797C59.0454 49.0815 58.6989 49.0962 58.356 49.1513C58.2259 48.3067 58.125 47.4547 58.1562 46.5972C58.1874 37.2954 58.1507 27.9917 58.1745 18.6898C59.6174 18.5466 61.0675 18.6366 62.5159 18.6182C65.9827 18.6053 69.4495 18.6366 72.9164 18.6109C72.9182 18.4181 72.92 18.2253 72.9219 18.0325C67.8215 17.97 62.7175 18.0747 57.6172 17.9829C57.6594 17.9039 57.74 17.746 57.7804 17.6671Z" fill="white"/>
<path d="M33.3348 62.4546C39.0365 62.4583 44.7381 62.4564 50.4398 62.4546C50.482 74.4445 50.449 86.4345 50.4563 98.4245C44.7418 98.4318 39.0273 98.4318 33.311 98.4263C33.3183 86.4363 33.2706 74.4445 33.3348 62.4546ZM33.7821 63.6132C33.6905 70.4252 33.7693 77.2428 33.7436 84.0567C33.7693 88.423 33.6886 92.7912 33.7858 97.1557C39.1703 97.1686 44.5548 97.1447 49.9393 97.1685C49.9503 86.0214 49.9356 74.876 49.9466 63.7307C44.5805 63.738 39.2161 63.727 33.85 63.7362L33.7821 63.6132Z" fill="white"/>
<path d="M56.9864 62.4507C62.6844 62.4635 68.3824 62.4544 74.0823 62.4562C74.1134 74.4462 74.0914 86.4361 74.0933 98.4279C68.3788 98.4279 62.6643 98.4371 56.9479 98.4224C56.9369 87.6351 56.9461 76.8478 56.9443 66.0624C56.9663 64.8579 56.8929 63.6515 56.9864 62.4507ZM57.4008 63.6534C57.3568 71.4331 57.3953 79.2128 57.3824 86.9943C57.4099 90.3801 57.3275 93.7678 57.4246 97.1518C62.8091 97.1555 68.1936 97.1536 73.58 97.1518C73.5818 86.0101 73.591 74.8666 73.5745 63.725C68.212 63.747 62.8494 63.7176 57.4851 63.7397L57.4008 63.6534Z" fill="white"/>
<path d="M34.0234 64.0224C34.4139 63.9747 34.8081 63.9563 35.2023 63.9581C40.0459 63.971 44.8914 63.9526 49.7351 63.9673C49.7571 74.9492 49.7278 85.9312 49.7479 96.9131C44.5266 96.9076 39.3034 96.9057 34.0821 96.9131C34.0894 96.7809 34.1059 96.5146 34.1133 96.3806C34.2893 96.129 34.4634 95.8757 34.6504 95.6315C39.5033 95.6259 44.3561 95.6149 49.2089 95.6351C49.2144 86.146 49.2071 76.655 49.2126 67.1659C49.2034 66.5067 49.2694 65.8365 49.0934 65.1938C49.0494 65.5409 49.0311 65.8916 49.0256 66.2441C49.0256 75.9701 49.0311 85.6961 49.0238 95.4221C44.2864 95.4276 39.5491 95.4038 34.8118 95.4331C34.3993 94.5096 34.5148 93.4832 34.5184 92.5027C34.5313 83.322 34.5074 74.1395 34.5276 64.9588C37.0704 64.7917 39.6224 64.935 42.1689 64.889C44.5266 64.867 46.8843 64.9313 49.2401 64.8652C49.2419 64.6816 49.2438 64.4998 49.2474 64.318C45.3608 64.2427 41.4723 64.3107 37.5856 64.2868C36.4288 64.2684 35.2609 64.3713 34.1114 64.1858L34.0234 64.0224Z" fill="white"/>
<path d="M57.7227 63.9863C62.9385 63.9367 68.1562 63.9734 73.372 63.9679C73.3848 74.9517 73.3738 85.9373 73.3775 96.921C68.1598 96.9284 62.9422 96.9192 57.7245 96.9265C57.7318 96.7906 57.7465 96.5207 57.7538 96.3849C57.9317 96.1315 58.1077 95.8781 58.2965 95.632C63.1457 95.6247 67.9948 95.6192 72.844 95.6357C72.8477 85.8308 72.8385 76.0258 72.8477 66.2208C72.8495 65.8775 72.8165 65.5323 72.734 65.1981C72.6222 66.0336 72.6662 66.8763 72.6607 67.7155C72.6588 76.9512 72.6643 86.187 72.6588 95.4227C67.9252 95.4282 63.1915 95.4044 58.4578 95.4356C58.0288 94.5157 58.1737 93.4838 58.1627 92.5033C58.1773 83.3226 58.1535 74.1419 58.1737 64.9594C59.7393 64.8107 61.3123 64.9153 62.8817 64.8896C66.2165 64.8676 69.5532 64.93 72.888 64.8639C72.888 64.6822 72.8917 64.5004 72.8935 64.3204C69.1297 64.2415 65.364 64.3131 61.5983 64.2874C60.3113 64.2709 59.017 64.359 57.7373 64.2029L57.7227 63.9863Z" fill="white"/>
<path d="M76.2406 51.5071C78.2518 51.4814 80.2648 51.4502 82.2741 51.5237C82.2649 56.2242 82.2851 60.9265 82.2649 65.627C80.2666 65.6215 78.2683 65.6178 76.2718 65.6307C76.1709 60.9247 76.2333 56.215 76.2406 51.5071ZM77.4964 54.0594C77.0143 54.5808 77.0363 55.319 77.0308 55.98C77.1353 55.7284 77.2361 55.475 77.3388 55.2235C77.2636 55.5687 77.3333 55.9689 77.5569 56.248C78.0776 55.868 78.0116 55.106 78.4388 54.6469C78.7688 54.377 79.1996 54.2834 79.5791 54.1034C79.2418 54.456 78.7834 54.6745 78.4699 55.049C78.1894 55.644 78.0941 56.4115 77.3754 56.6538C77.6596 57.2965 78.3526 57.5627 78.9649 57.7977L78.7926 57.8179C79.3041 57.9134 79.8761 57.963 80.3033 57.6013L80.1089 57.6325C80.4389 57.4048 80.7616 57.1643 81.0696 56.9072L80.9926 57.0706C81.3538 56.8007 81.5719 56.3931 81.4894 55.9359C81.4784 55.2694 81.4216 54.5386 80.9468 54.0245C80.1199 52.9687 78.3031 52.9871 77.4964 54.0594ZM78.6294 59.6486C78.7633 60.3647 78.9191 61.0807 78.9026 61.817C79.0273 61.817 79.2784 61.817 79.4049 61.8152C79.4398 61.2772 79.4453 60.7319 79.6011 60.2123C79.6451 59.9607 79.8083 59.6559 79.5699 59.4521C79.3023 59.1455 78.7578 59.2685 78.6294 59.6486Z" fill="#383737"/>
<path d="M33.9805 17.9829C39.0771 18.0747 44.1756 17.9701 49.2723 18.0325C49.2705 18.2253 49.2705 18.4181 49.2686 18.609C44.8246 18.6292 40.377 18.6182 35.933 18.609C35.4618 18.62 34.9943 18.6549 34.5268 18.6898C34.5048 28.2396 34.536 37.7911 34.5103 47.3409C34.5066 47.9486 34.6185 48.549 34.701 49.1495L34.6166 49.2963C34.4406 49.5901 34.2463 49.8729 34.0648 50.163C33.9511 49.1017 34.0245 48.0313 34.0061 46.9663C33.9896 37.3064 34.0373 27.6428 33.9805 17.9829Z" fill="#383737"/>
<path d="M57.6211 17.9829C62.7214 18.0747 67.8254 17.9701 72.9258 18.0325C72.9239 18.2253 72.9221 18.4181 72.9203 18.6109C69.4534 18.6366 65.9866 18.6054 62.5198 18.6182C61.0714 18.6366 59.6213 18.5466 58.1784 18.6898C58.1546 27.9917 58.1913 37.2954 58.1601 46.5972C58.1289 47.4547 58.2298 48.3067 58.3599 49.1513L58.2738 49.2982C58.0923 49.5901 57.8943 49.8729 57.7073 50.163C57.6669 49.8307 57.6468 49.4983 57.6468 49.166C57.6541 39.0085 57.6468 28.851 57.6523 18.6935C57.6468 18.4566 57.6376 18.2198 57.6211 17.9829Z" fill="#383737"/>
<path d="M34.1091 64.1855C35.2586 64.371 36.4264 64.2682 37.5833 64.2865C41.4699 64.3104 45.3584 64.2425 49.2451 64.3177C49.2414 64.4995 49.2396 64.6813 49.2378 64.8649C46.8819 64.931 44.5243 64.8668 42.1666 64.8888C39.6201 64.9347 37.0681 64.7915 34.5253 64.9586C34.5051 74.1392 34.5289 83.3217 34.5161 92.5024C34.5124 93.4829 34.3969 94.5093 34.8094 95.4329C34.7691 95.4825 34.6884 95.5816 34.6481 95.6312C34.4611 95.8754 34.2869 96.1288 34.1109 96.3803C34.0926 85.65 34.0944 74.9159 34.1091 64.1855Z" fill="#383737"/>
<path d="M57.7422 64.2026C59.0219 64.3587 60.3162 64.2706 61.6032 64.2871C65.3689 64.3128 69.1345 64.2412 72.8983 64.3202C72.8965 64.5001 72.8928 64.6819 72.8928 64.8636C69.558 64.9297 66.2214 64.8673 62.8865 64.8893C61.3172 64.9151 59.7442 64.8104 58.1785 64.9591C58.1584 74.1416 58.1822 83.3223 58.1675 92.503C58.1785 93.4835 58.0337 94.5154 58.4627 95.4353C58.4224 95.4849 58.3417 95.5822 58.3014 95.6318C58.1125 95.8778 57.9365 96.1312 57.7587 96.3846C57.7275 85.6579 57.7642 74.9293 57.7422 64.2026Z" fill="#383737"/>
<path d="M49.0529 49.0225C49.0785 49.1106 49.1299 49.2869 49.1537 49.375C44.31 49.2869 39.459 49.4411 34.6172 49.296L34.7015 49.1492C35.3524 49.05 36.0142 49.0831 36.6687 49.0812C40.031 49.0867 43.3915 49.0794 46.752 49.0849C47.5184 49.0831 48.2884 49.1069 49.0529 49.0225Z" fill="#383737"/>
<path d="M72.6908 49.0264C72.7146 49.1127 72.7641 49.2871 72.7898 49.3752C69.1213 49.3238 65.4546 49.3679 61.7861 49.3532C60.6146 49.3367 59.4413 49.4009 58.2734 49.2981L58.3596 49.1512C58.7024 49.0961 59.0489 49.0814 59.3954 49.0796C63.0639 49.0888 66.7324 49.0796 70.4009 49.0851C71.1636 49.0833 71.9299 49.1053 72.6908 49.0264Z" fill="#383737"/>
<path d="M56.7305 52.3755C56.7818 52.3094 56.8863 52.1772 56.9376 52.113C62.6595 52.1019 68.3813 52.1074 74.1031 52.1111H74.3213L74.303 52.3663C68.4455 52.37 62.588 52.3535 56.7305 52.3755Z" fill="#383737"/>
<path d="M77.3338 55.2232C77.618 54.2923 78.4558 53.7249 79.3413 53.4458C79.4898 53.5266 79.785 53.6918 79.9335 53.7726C79.8436 53.8553 79.664 54.0205 79.5741 54.1031C79.1946 54.2831 78.7638 54.3767 78.4338 54.6466C78.0066 55.1057 78.0726 55.8677 77.552 56.2477C77.3283 55.9686 77.2586 55.5684 77.3338 55.2232Z" fill="white"/>
<path d="M81.4851 55.9355C81.5676 56.3927 81.3494 56.8004 80.9883 57.0703L81.0653 56.9069C81.2266 56.5929 81.3696 56.2697 81.4851 55.9355Z" fill="white"/>
<path d="M78.9575 57.7975C79.3407 57.7645 79.722 57.7094 80.1015 57.6323L80.2958 57.6011C79.8687 57.9628 79.2967 57.9132 78.7852 57.8177L78.9575 57.7975Z" fill="#383737"/>
<path d="M33.784 63.6128L33.8519 63.7358C33.894 63.8074 33.9802 63.9506 34.0224 64.0223L34.1104 64.1857C34.0957 74.916 34.0939 85.6501 34.1122 96.3805C34.1049 96.5145 34.0884 96.7807 34.081 96.9129C34.0077 96.9735 33.861 97.0947 33.7877 97.1553C33.6905 92.7908 33.7712 88.4226 33.7455 84.0563C33.7712 77.2424 33.6924 70.4249 33.784 63.6128Z" fill="#383737"/>
<path d="M57.404 63.6533L57.4883 63.7396C57.5488 63.802 57.668 63.9232 57.7266 63.9857L57.7413 64.2023C57.7633 74.929 57.7266 85.6576 57.7578 96.3843C57.7505 96.5201 57.7358 96.79 57.7285 96.9259C57.6533 96.9828 57.503 97.0948 57.4278 97.1518C57.3306 93.7678 57.4131 90.3801 57.3856 86.9943C57.3985 79.2127 57.36 71.433 57.404 63.6533Z" fill="#383737"/>
<path d="M34.6445 95.6317C34.6849 95.5822 34.7655 95.483 34.8059 95.4334C39.5432 95.4041 44.2805 95.4279 49.0179 95.4224C49.0637 95.4757 49.1554 95.5822 49.203 95.6354C44.3502 95.6152 39.4974 95.6262 34.6445 95.6317Z" fill="#383737"/>
<path d="M58.2969 95.6314C58.3372 95.5818 58.4179 95.4845 58.4582 95.4349C63.1919 95.4037 67.9255 95.4275 72.6592 95.422C72.705 95.4753 72.7985 95.5818 72.8444 95.635C67.9952 95.6185 63.146 95.624 58.2969 95.6314Z" fill="#383737"/>
<path d="M33.7852 97.1549C33.8585 97.0943 34.0052 96.9732 34.0785 96.9126C39.2998 96.9052 44.523 96.9071 49.7443 96.9126C49.7938 96.975 49.891 97.1035 49.9387 97.1678C44.5542 97.1439 39.1697 97.1678 33.7852 97.1549Z" fill="#383737"/>
<path opacity="0.86" d="M24.8789 112.642L25.0219 112.676C26.1292 112.978 27.2842 112.827 28.4154 112.853C47.6636 112.867 66.9099 112.827 86.1581 112.873L86.3377 112.877L86.3359 113.068H25.0641C25.0182 112.961 24.9266 112.748 24.8789 112.642Z" fill="#383737"/>
<ellipse cx="79.6037" cy="55.5673" rx="2.41228" ry="2.41597" fill="black"/>
<path d="M50.6328 34.1504C50.4877 34.6391 49.3636 35.44 48.8197 35.7794C47.0066 36.6618 47.9735 39.3769 47.49 40.2593C47.0065 41.1417 47.49 42.8386 47.6713 44.2641C47.8526 45.6895 48.5174 48.3367 48.1549 49.4227C47.7924 50.5088 47.8526 50.916 48.1549 52.2057C48.4572 53.4953 48.3965 56.4819 48.5174 58.5183C48.6383 60.5546 48.1549 59.74 48.1549 62.9303C48.1549 65.4825 47.9534 67.3423 47.8526 67.9532C47.9735 68.9261 48.2032 70.9126 48.1549 71.0755C48.0944 71.2792 48.7593 71.347 48.7593 71.4828C48.7593 71.5914 49.0816 72.2068 49.2427 72.501H49.968C50.0687 72.8177 50.2943 73.492 50.391 73.6549C50.5119 73.8585 50.5724 74.5373 50.8141 75.1482C51.0559 75.7591 51.1163 76.6415 51.1767 77.1166C51.2372 77.5917 51.5393 78.542 51.9624 79.4923C52.3855 80.4426 52.1437 80.3747 52.5063 82.1395C52.7964 83.5514 53.1913 85.3071 53.3524 86.0085L53.5942 84.5831C53.7957 83.0898 54.1502 80.0489 53.9568 79.8317C53.7634 79.6145 54.3194 79.3339 54.6216 79.2208V81.7322L55.5282 79.8317L55.7095 75.1482C55.9109 74.5146 56.471 73.2883 57.0995 73.4512C57.7281 73.6141 58.0061 74.6504 58.0665 75.1482L58.7918 72.501C59.5371 70.7588 60.9675 67.1658 60.7257 66.7314C60.4236 66.1884 60.9071 63.4733 61.0279 62.523C61.1488 61.5727 61.1488 62.1157 60.9071 61.3012C60.6653 60.4867 60.7257 60.6225 60.7257 60.3509C60.7257 60.1337 61.1287 59.6269 61.3301 59.4007C61.1287 58.4278 60.8466 56.0747 61.3301 54.4456C61.9345 52.4093 61.3905 40.5308 61.3301 40.0557C61.2697 39.5805 61.6927 37.137 61.7532 36.5261C61.8015 36.0373 60.8466 34.5124 60.3631 33.811L60.0005 34.1504C59.6379 34.9649 58.9126 35.3722 57.8248 35.1006C56.9545 34.8834 56.4952 33.6526 56.3743 33.0643L55.9512 33.6073C54.3074 33.2815 52.9697 30.3945 52.5063 28.9917C52.5063 30.4171 50.8141 33.5395 50.6328 34.1504Z" fill="black" stroke="black"/>
</svg>
