<svg width="24" height="24" viewBox="0 0 24 24" fill="none" xmlns="http://www.w3.org/2000/svg">
<g clip-path="url(#clip0_2243_26398)">
<path d="M12 2.162C15.204 2.162 15.584 2.174 16.849 2.232C18.157 2.292 19.504 2.59 20.457 3.543C21.419 4.505 21.708 5.839 21.768 7.151C21.826 8.416 21.838 8.796 21.838 12C21.838 15.204 21.826 15.584 21.768 16.849C21.709 18.15 21.404 19.51 20.457 20.457C19.495 21.419 18.162 21.708 16.849 21.768C15.584 21.826 15.204 21.838 12 21.838C8.796 21.838 8.416 21.826 7.151 21.768C5.86 21.709 4.482 21.397 3.543 20.457C2.586 19.5 2.292 18.153 2.232 16.849C2.174 15.584 2.162 15.204 2.162 12C2.162 8.796 2.174 8.416 2.232 7.151C2.291 5.855 2.599 4.487 3.543 3.543C4.503 2.583 5.842 2.292 7.151 2.232C8.416 2.174 8.796 2.162 12 2.162ZM12 0C8.741 0 8.332 0.014 7.052 0.072C5.197 0.157 3.355 0.673 2.014 2.014C0.668 3.36 0.157 5.198 0.072 7.052C0.014 8.332 0 8.741 0 12C0 15.259 0.014 15.668 0.072 16.948C0.157 18.801 0.675 20.648 2.014 21.986C3.359 23.331 5.2 23.843 7.052 23.928C8.332 23.986 8.741 24 12 24C15.259 24 15.668 23.986 16.948 23.928C18.802 23.843 20.646 23.326 21.986 21.986C23.333 20.639 23.843 18.802 23.928 16.948C23.986 15.668 24 15.259 24 12C24 8.741 23.986 8.332 23.928 7.052C23.843 5.197 23.326 3.354 21.986 2.014C20.643 0.671 18.797 0.156 16.948 0.072C15.668 0.014 15.259 0 12 0Z" fill="#383737"/>
<path d="M12.0018 5.83789C8.59884 5.83789 5.83984 8.59689 5.83984 11.9999C5.83984 15.4029 8.59884 18.1619 12.0018 18.1619C15.4048 18.1619 18.1638 15.4029 18.1638 11.9999C18.1638 8.59689 15.4048 5.83789 12.0018 5.83789ZM12.0018 15.9999C9.79284 15.9999 8.00184 14.2089 8.00184 11.9999C8.00184 9.79089 9.79284 7.99989 12.0018 7.99989C14.2108 7.99989 16.0018 9.79089 16.0018 11.9999C16.0018 14.2089 14.2108 15.9999 12.0018 15.9999Z" fill="#383737"/>
<path d="M18.4048 7.0343C19.2001 7.0343 19.8448 6.38959 19.8448 5.5943C19.8448 4.79901 19.2001 4.1543 18.4048 4.1543C17.6096 4.1543 16.9648 4.79901 16.9648 5.5943C16.9648 6.38959 17.6096 7.0343 18.4048 7.0343Z" fill="#383737"/>
</g>
<defs>
<clipPath id="clip0_2243_26398">
<rect width="24" height="24" fill="white"/>
</clipPath>
</defs>
</svg>
