<svg width="26" height="26" viewBox="0 0 26 26" fill="none" xmlns="http://www.w3.org/2000/svg">
<rect y="26" width="26" height="26" rx="13" transform="rotate(-90 0 26)" fill="white"/>
<path d="M12.9978 14.4443L12.4675 14.9747L12.9978 15.505L13.5282 14.9747L12.9978 14.4443ZM13.7478 7.94434C13.7478 7.53012 13.412 7.19434 12.9978 7.19434C12.5836 7.19434 12.2478 7.53012 12.2478 7.94434L13.7478 7.94434ZM8.85639 11.3636L12.4675 14.9747L13.5282 13.914L9.91705 10.3029L8.85639 11.3636ZM13.5282 14.9747L17.1393 11.3636L16.0786 10.3029L12.4675 13.914L13.5282 14.9747ZM13.7478 14.4443L13.7478 7.94434L12.2478 7.94434L12.2478 14.4443L13.7478 14.4443Z" fill="#383737"/>
<path d="M7.94531 15.8887L7.94531 16.6109C7.94531 17.4086 8.59201 18.0553 9.38976 18.0553L16.612 18.0553C17.4097 18.0553 18.0564 17.4086 18.0564 16.6109V15.8887" stroke="#383737" stroke-width="1.5"/>
</svg>
