<svg width="156" height="225" viewBox="0 0 156 225" fill="none" xmlns="http://www.w3.org/2000/svg">
<path d="M22.0642 68.8799C22.0642 68.8799 0.441017 72.0801 1.01108 96.8647C1.58439 121.646 -1.34083 133.568 25.2305 136.768C41.1433 138.683 56.2547 106.014 50.261 85.8682C46.2445 72.371 22.0642 68.8799 22.0642 68.8799Z" fill="white" stroke="black" stroke-width="1.4" stroke-miterlimit="10" stroke-linecap="round" stroke-linejoin="round"/>
<path d="M91.9223 95.5182C80.0813 81.5634 79.925 70.58 71.7324 71.5999C61.3899 72.8845 59.0901 83.3449 63.7027 90.3697C68.3185 97.3945 78.1236 108.512 79.635 109.666C86.9807 115.265 99.004 123.196 103.135 122.084L111.545 109.65C108.734 106.371 93.7074 97.6201 91.9223 95.5182Z" fill="white" stroke="black" stroke-width="1.4" stroke-miterlimit="10" stroke-linecap="round" stroke-linejoin="round"/>
<path d="M103.133 122.084L108.889 124.886L117.326 112.467L111.544 109.649L103.133 122.084Z" fill="white" stroke="black" stroke-width="1.4" stroke-miterlimit="10" stroke-linecap="round" stroke-linejoin="round"/>
<path d="M109.458 123.679C109.458 123.679 111.233 124.885 115.957 128.435C120.68 131.989 125.341 132.776 129.817 128.703C134.29 124.637 134.088 121.486 128.938 119.25C127.035 118.426 123.794 118.256 123.794 118.256C123.794 118.256 128.465 118.305 128.488 115.765C128.521 112.274 119.393 114.866 115.716 114.464L109.458 123.679Z" fill="white" stroke="black" stroke-width="1.4" stroke-miterlimit="10" stroke-linecap="round" stroke-linejoin="round"/>
<path d="M121.664 121.779C121.664 121.779 128.993 123.966 133 123.59" stroke="black" stroke-width="1.4" stroke-miterlimit="10" stroke-linecap="round" stroke-linejoin="round"/>
<path d="M131.377 127.106C131.377 127.106 127.494 128.172 120.312 124.438" stroke="black" stroke-width="1.4" stroke-miterlimit="10" stroke-linecap="round" stroke-linejoin="round"/>
<path d="M128.101 130.023C128.101 130.023 122.85 129.925 118.573 126.467" stroke="black" stroke-width="1.4" stroke-miterlimit="10" stroke-linecap="round" stroke-linejoin="round"/>
<path d="M77.801 138.664C80.2246 119.315 85.2574 72.1453 73.2145 66.8563C66.3314 63.8293 32.219 63.9143 32.219 63.9143C32.219 63.9143 29.9551 65.6076 24.8995 68.5201C10.9835 76.5354 19.7005 117.991 22.9678 140.631C26.108 166.253 22.5899 197.392 22.5899 197.392L34.2224 200.824C34.2224 200.824 37.6688 196.294 41.5061 185.134C45.6301 173.147 50.1873 154.249 50.7606 147.221C52.6597 154.88 56.6339 170.806 59.318 204.093H73.563C73.5663 204.093 75.3774 158.012 77.801 138.664Z" fill="white" stroke="black" stroke-width="1.4" stroke-miterlimit="10" stroke-linecap="round" stroke-linejoin="round"/>
<path d="M74.1268 204.109L75.7914 183.761C75.7914 183.761 74.1268 185.807 66.8235 185.807C62.3575 185.807 56.6406 183.78 56.6406 183.78C56.6406 183.78 57.6732 199.971 57.5397 201.965C56.9989 210.095 56.6406 209.186 56.6406 217.891H90.4598C93.7922 209.503 88.1047 200.893 74.1268 204.109Z" fill="white" stroke="black" stroke-width="1.4" stroke-miterlimit="10" stroke-linecap="round" stroke-linejoin="round"/>
<path d="M90.4996 220.16C89.7275 220.16 89.7275 220.853 88.9588 220.853C88.1867 220.853 88.1868 220.16 87.418 220.16C86.646 220.16 86.646 220.853 85.8772 220.853C85.1084 220.853 85.1084 220.16 84.3364 220.16C83.5676 220.16 83.5676 220.853 82.7989 220.853C82.0301 220.853 82.0301 220.16 81.2581 220.16C80.4893 220.16 80.4893 220.853 79.7173 220.853C78.9453 220.853 78.9485 220.16 78.1765 220.16C77.4077 220.16 77.4077 220.853 76.639 220.853C75.8702 220.853 75.8702 220.16 75.1014 220.16C74.3327 220.16 74.3327 220.853 73.5606 220.853C72.7919 220.853 72.7919 220.16 72.0231 220.16C71.2543 220.16 71.2543 220.853 70.4823 220.853C69.7136 220.853 69.7136 220.16 68.9448 220.16C68.176 220.16 68.176 220.853 67.404 220.853C66.6352 220.853 66.6352 220.16 65.8665 220.16C65.0977 220.16 65.0977 220.853 64.3257 220.853C63.5569 220.853 63.5569 220.16 62.7882 220.16C62.0194 220.16 62.0194 220.853 61.2506 220.853C60.4819 220.853 60.4819 220.16 59.7131 220.16C58.9443 220.16 58.9443 220.853 58.1723 220.853C57.4035 220.853 57.4035 220.16 56.6348 220.16V217.895H90.4963V220.16H90.4996Z" fill="white" stroke="black" stroke-width="1.4" stroke-miterlimit="10" stroke-linecap="round" stroke-linejoin="round"/>
<path d="M36.2758 204.866L41.5073 185.135C41.5073 185.135 39.5072 186.854 32.3212 185.553C27.9236 184.759 22.6562 181.745 22.6562 181.745C22.6562 181.745 20.8125 197.864 20.3271 199.806C18.3596 207.71 18.1707 206.752 16.6299 215.323L49.9148 221.334C54.6805 213.669 50.5989 204.186 36.2758 204.866Z" fill="white" stroke="black" stroke-width="1.4" stroke-miterlimit="10" stroke-linecap="round" stroke-linejoin="round"/>
<path d="M49.5539 223.571C48.7949 223.433 48.6744 224.12 47.9154 223.983C47.1564 223.842 47.2801 223.162 46.5212 223.021C45.7622 222.884 45.6384 223.571 44.8826 223.433C44.1236 223.296 44.2474 222.613 43.4917 222.472C42.736 222.335 42.6122 223.021 41.8532 222.887C41.0942 222.747 41.218 222.06 40.4622 221.926C39.7032 221.786 39.5827 222.472 38.8237 222.338C38.0647 222.198 38.1885 221.515 37.4328 221.377C36.6738 221.24 36.5533 221.926 35.7943 221.789C35.0385 221.652 35.1591 220.965 34.4033 220.828C33.6476 220.691 33.5238 221.377 32.7648 221.24C32.0091 221.103 32.1296 220.419 31.3739 220.282C30.6181 220.145 30.4943 220.831 29.7353 220.691C28.9796 220.557 29.1001 219.87 28.3444 219.733C27.5854 219.596 27.4649 220.282 26.7059 220.145C25.9502 220.008 26.0739 219.324 25.3149 219.184C24.5592 219.047 24.4354 219.733 23.6764 219.596C22.9207 219.458 23.0412 218.775 22.2855 218.635C21.5297 218.497 21.406 219.187 20.647 219.05C19.8912 218.909 20.0118 218.226 19.256 218.089C18.5003 217.948 18.3765 218.638 17.6175 218.501C16.8618 218.363 16.9823 217.677 16.2266 217.54L16.6272 215.313L49.9513 221.331L49.5539 223.571Z" fill="white" stroke="black" stroke-width="1.4" stroke-miterlimit="10" stroke-linecap="round" stroke-linejoin="round"/>
<path d="M23.3888 106.209C27.3466 88.3152 30.2327 75.6255 30.2327 75.6255C22.9783 68.1234 13.2743 72.5854 10.4696 80.5124C7.66489 88.4394 4.73641 102.996 4.7299 104.898C4.70709 114.156 5.64525 128.565 9.02 131.2L23.9784 130.438C24.8937 126.211 22.7926 108.906 23.3888 106.209Z" fill="white" stroke="black" stroke-width="1.4" stroke-miterlimit="10" stroke-linecap="round" stroke-linejoin="round"/>
<path d="M9.02441 131.203L10.2688 137.502L25.2271 136.77L23.9828 130.441L9.02441 131.203Z" fill="white" stroke="black" stroke-width="1.4" stroke-miterlimit="10" stroke-linecap="round" stroke-linejoin="round"/>
<path d="M11.5713 137.231C11.5713 137.231 11.682 139.382 11.7081 145.302C11.7342 151.222 13.9199 155.429 19.8518 156.56C25.7837 157.691 28.1649 155.625 26.8391 150.156C26.3472 148.136 24.5296 145.443 24.5296 145.443C24.5296 145.443 27.3082 149.215 29.3409 147.701C32.139 145.619 24.5752 139.872 22.6761 136.688L11.5713 137.231Z" fill="white" stroke="black" stroke-width="1.4" stroke-miterlimit="10" stroke-linecap="round" stroke-linejoin="round"/>
<path d="M20.4414 145.857C20.4414 145.857 23.1191 153.046 25.8293 156.027" stroke="black" stroke-width="1.4" stroke-miterlimit="10" stroke-linecap="round" stroke-linejoin="round"/>
<path d="M22.0614 156.84C22.0614 156.84 18.8724 154.375 17.5107 146.373" stroke="black" stroke-width="1.4" stroke-miterlimit="10" stroke-linecap="round" stroke-linejoin="round"/>
<path d="M17.7669 155.985C17.7669 155.985 14.6821 151.722 14.8515 146.211" stroke="black" stroke-width="1.4" stroke-miterlimit="10" stroke-linecap="round" stroke-linejoin="round"/>
<path d="M17.7441 49.3262C17.7441 49.3262 19.2914 60.3651 23.0994 64.9252C26.9042 69.4886 17.6985 68.9002 17.8907 71.7277C18.1774 75.9021 33.4126 85.3589 46.081 85.8427C71.4861 86.8103 79.5256 73.3981 79.5256 73.3981C79.7927 70.0377 75.5091 68.2856 75.5091 68.2856C75.5091 68.2856 77.0368 64.072 75.5091 61.5975L17.7441 49.3262Z" fill="white" stroke="black" stroke-width="1.4" stroke-miterlimit="10" stroke-linecap="round" stroke-linejoin="round"/>
<path d="M85.2967 34.9461C85.9743 54.3599 70.8433 70.6519 51.4938 71.3319C32.1476 72.0118 15.9123 56.8279 15.2348 37.4108C14.5572 17.997 29.6882 1.70823 49.0377 1.02177C68.3839 0.345109 84.6159 15.529 85.2967 34.9461Z" fill="white" stroke="black" stroke-width="1.4" stroke-miterlimit="10" stroke-linecap="round" stroke-linejoin="round"/>
<path d="M48.6683 14.9106C30.2342 29.0093 32.508 47.9883 32.508 47.9883C32.508 47.9883 53.864 75.3749 81.3442 52.4373C81.3442 52.4373 88.3999 41.2545 85.2271 27.8227C82.0576 14.3843 71.3144 7.16015 71.3144 7.16015C71.3144 7.16015 60.6754 5.73492 48.6683 14.9106Z" fill="black"/>
<path d="M76.128 59.9125C48.3351 78.2377 27.624 48.1641 27.624 48.1641C27.624 48.1641 29.8489 9.79416 64.2056 3.90039" stroke="black" stroke-width="1.4" stroke-miterlimit="10" stroke-linecap="round" stroke-linejoin="round"/>
<path d="M42.1128 28.7532C38.1973 33.8756 37.0116 43.6103 39.6697 45.0028C42.3278 46.3921 42.9793 35.3727 47.1033 31.6004C51.439 27.6418 46.0674 23.5786 42.1128 28.7532Z" fill="white"/>
<path d="M47.9127 19.434C46.5608 20.0943 45.981 21.7778 46.639 23.1311L46.7693 23.3959C47.4273 24.7524 49.1049 25.3343 50.4568 24.674C51.8086 24.0137 52.3852 22.3269 51.7272 20.9736L51.5969 20.7089C50.9454 19.3523 49.2678 18.7704 47.9127 19.434Z" fill="white"/>
<path d="M76.6618 48.4334C76.2481 47.6881 75.3197 47.4069 74.6226 47.9757C72.7105 49.5317 65.1531 52.9509 67.2314 56.3963C68.8178 59.0278 71.6909 57.6385 73.8441 55.4287C76.3035 53.7551 78.1277 51.104 76.6618 48.4334Z" fill="white"/>
<path d="M21.7555 47.2141C17.8824 45.4783 13.374 40.0814 12.1948 33.4162C11.3446 28.6109 13.8952 24.1456 16.9703 25.1492C16.9703 25.1492 13.2144 37.4794 24.9055 42.8534L21.7555 47.2141Z" fill="white" stroke="black" stroke-width="1.4" stroke-miterlimit="10" stroke-linecap="round" stroke-linejoin="round"/>
<path d="M33.4984 47.1832C34.0391 50.4358 31.8468 53.5118 28.6056 54.0511C25.3644 54.5938 22.3024 52.3971 21.7616 49.1413C21.2209 45.892 23.4132 42.816 26.6544 42.2767C29.8956 41.734 32.9576 43.9307 33.4984 47.1832Z" fill="white" stroke="black" stroke-width="1.4" stroke-miterlimit="10" stroke-linecap="round" stroke-linejoin="round"/>
<path d="M30.1266 47.7448C30.3579 49.1308 29.423 50.4383 28.0451 50.6704C26.6672 50.9025 25.3642 49.9643 25.1329 48.5816C24.9016 47.1989 25.8332 45.8913 27.2144 45.6592C28.5923 45.4239 29.8953 46.362 30.1266 47.7448Z" fill="white" stroke="black" stroke-width="1.4" stroke-miterlimit="10" stroke-linecap="round" stroke-linejoin="round"/>
<path d="M23.6895 65.834C23.6895 65.834 34.4196 79.7822 52.5247 79.2462" stroke="black" stroke-width="1.4" stroke-miterlimit="10" stroke-linecap="round" stroke-linejoin="round"/>
<path d="M75.5058 68.2852C75.5058 68.2852 69.2123 75.1596 63.0752 77.1046" stroke="black" stroke-width="1.4" stroke-miterlimit="10" stroke-linecap="round" stroke-linejoin="round"/>
<path d="M76.1185 89.3938C76.1185 89.3938 74.1216 86.9716 69.8641 87.6286C65.6098 88.289 43.5045 91.7147 43.5045 91.7147C41.7227 91.7147 40.2764 93.1628 40.2764 94.9542V124.439C40.2764 126.227 41.7227 127.679 43.5045 127.679L72.887 123.125C73.7698 123.125 76.6038 119.896 76.6038 119.896L76.1185 89.3938Z" fill="white" stroke="black" stroke-width="1.4" stroke-miterlimit="10" stroke-linecap="round" stroke-linejoin="round"/>
<path d="M77.3526 117.965C77.3526 119.557 76.0692 120.845 74.4828 120.845L48.3708 124.888C46.7844 124.888 45.501 123.6 45.501 122.011V95.8082C45.501 94.2196 46.7844 92.9316 48.3708 92.9316L74.4828 88.8848C76.0659 88.8848 77.3526 90.1727 77.3526 91.7646V117.965Z" fill="white" stroke="black" stroke-width="1.4" stroke-miterlimit="10" stroke-linecap="round" stroke-linejoin="round"/>
<path d="M41.9639 126.47L46.2279 123.914" stroke="black" stroke-width="1.4" stroke-miterlimit="10" stroke-linecap="round" stroke-linejoin="round"/>
<path d="M41.1709 92.7188L45.8486 94.4414" stroke="black" stroke-width="1.4" stroke-miterlimit="10" stroke-linecap="round" stroke-linejoin="round"/>
<path d="M129.396 64.4745L123.949 72.813L119.991 70.1706L117.914 66.389L113.534 65.2616L109.351 69.055L108.509 72.085L109.126 75.4908L113.281 83.0541L117.857 89.1023L120.355 91.3689L122.433 95.1505L126.195 92.8721L128.076 91.7328L132.259 87.9394L137.902 84.5218L140.625 80.3525L143.348 76.1833L146.072 72.0141L145.033 70.1233L144.415 66.7174L143.377 64.8266L142.338 62.9358L136.499 61.4326L129.396 64.4745Z" fill="#FB3E2D"/>
<path d="M125.735 67.5347L125.735 67.5336C126.818 65.2354 127.456 63.9651 128.519 63.082C129.582 62.1996 131.066 61.7079 133.821 60.9397C138.257 59.6403 141.669 59.9463 143.892 61.8038C146.113 63.6609 147.123 67.0497 146.8 71.8599C146.688 73.6194 145.879 75.7133 144.573 77.9348C143.267 80.1576 141.46 82.5136 139.345 84.7984C135.115 89.3674 129.648 93.6576 124.476 96.0303L124.475 96.0308C123.923 96.27 123.495 96.4502 123.13 96.5213C122.759 96.5933 122.447 96.5542 122.131 96.3542C121.82 96.1573 121.508 95.807 121.127 95.2694C120.745 94.7308 120.288 93.9966 119.688 93.0254C118.322 90.8628 115.318 87.0009 112.864 84.4555L112.864 84.4556L112.863 84.4546C110.473 81.8794 108.712 78.9816 107.784 76.3147C106.857 73.651 106.758 71.2036 107.712 69.5413C108.363 68.4078 109.569 67.1944 110.874 66.2461C112.176 65.2994 113.59 64.6075 114.662 64.5306C115.252 64.4578 115.971 64.5997 116.73 64.8894C117.491 65.1799 118.299 65.6211 119.067 66.1533C120.601 67.2157 121.992 68.6485 122.55 69.9823C122.831 70.5834 123.04 71.0182 123.23 71.2647C123.326 71.3881 123.408 71.454 123.483 71.476C123.552 71.4964 123.628 71.4825 123.722 71.4117C123.817 71.3393 123.925 71.2119 124.051 71.0186C124.176 70.8263 124.316 70.5735 124.477 70.2548C124.798 69.6173 125.201 68.7226 125.735 67.5347ZM141.31 78.682L141.311 78.681C143.066 76.142 144 74.669 144.421 73.3209C144.84 71.9772 144.752 70.7529 144.444 68.7038C143.997 65.7702 142.976 63.8582 141.331 62.9034C139.685 61.9478 137.392 61.9392 134.372 62.8628L134.371 62.863C132.373 63.4483 131.185 63.933 130.146 64.872C129.105 65.8135 128.21 67.2153 126.812 69.6492L123.642 75.1689L123.586 75.2658L123.528 75.1704L121.625 72.0705L121.625 72.0702C120.227 69.7679 118.425 68.2295 116.62 67.5832C114.817 66.9377 113.009 67.1813 111.582 68.4434C110.677 69.2488 110.063 70.1411 109.74 71.1331C109.418 72.1251 109.386 73.2211 109.653 74.4359C110.188 76.8681 111.922 79.771 114.909 83.2501C117.652 86.3401 120.518 90.2502 121.516 91.8293L121.516 91.8292L121.519 91.8335L123.029 94.6597L130.205 89.5488C135.276 85.8859 138.684 82.6343 141.31 78.682Z" fill="black" stroke="black" stroke-width="0.133333"/>
</svg>
