<svg width="162" height="225" viewBox="0 0 162 225" fill="none" xmlns="http://www.w3.org/2000/svg">
<path d="M22.0642 68.8799C22.0642 68.8799 0.441017 72.0801 1.01108 96.8647C1.58439 121.646 -1.34083 133.568 25.2305 136.768C41.1433 138.683 56.2547 106.014 50.261 85.8682C46.2445 72.371 22.0642 68.8799 22.0642 68.8799Z" fill="white" stroke="black" stroke-width="1.4" stroke-miterlimit="10" stroke-linecap="round" stroke-linejoin="round"/>
<path d="M91.9223 95.5182C80.0813 81.5634 79.925 70.58 71.7324 71.5999C61.3899 72.8845 59.0901 83.3449 63.7027 90.3697C68.3185 97.3945 78.1236 108.512 79.635 109.666C86.9807 115.265 99.004 123.196 103.135 122.084L111.545 109.65C108.734 106.371 93.7074 97.6201 91.9223 95.5182Z" fill="white" stroke="black" stroke-width="1.4" stroke-miterlimit="10" stroke-linecap="round" stroke-linejoin="round"/>
<path d="M103.133 122.084L108.889 124.886L117.326 112.467L111.544 109.649L103.133 122.084Z" fill="white" stroke="black" stroke-width="1.4" stroke-miterlimit="10" stroke-linecap="round" stroke-linejoin="round"/>
<path d="M109.458 123.679C109.458 123.679 111.233 124.885 115.957 128.435C120.68 131.989 125.341 132.776 129.817 128.703C134.29 124.637 134.088 121.486 128.938 119.25C127.035 118.426 123.794 118.256 123.794 118.256C123.794 118.256 128.465 118.305 128.488 115.765C128.521 112.274 119.393 114.866 115.716 114.464L109.458 123.679Z" fill="white" stroke="black" stroke-width="1.4" stroke-miterlimit="10" stroke-linecap="round" stroke-linejoin="round"/>
<path d="M121.664 121.779C121.664 121.779 128.993 123.966 133 123.59" stroke="black" stroke-width="1.4" stroke-miterlimit="10" stroke-linecap="round" stroke-linejoin="round"/>
<path d="M131.377 127.106C131.377 127.106 127.494 128.172 120.312 124.438" stroke="black" stroke-width="1.4" stroke-miterlimit="10" stroke-linecap="round" stroke-linejoin="round"/>
<path d="M128.101 130.023C128.101 130.023 122.85 129.925 118.573 126.467" stroke="black" stroke-width="1.4" stroke-miterlimit="10" stroke-linecap="round" stroke-linejoin="round"/>
<path d="M77.801 138.664C80.2246 119.315 85.2574 72.1453 73.2145 66.8563C66.3314 63.8293 32.219 63.9143 32.219 63.9143C32.219 63.9143 29.9551 65.6076 24.8995 68.5201C10.9835 76.5354 19.7005 117.991 22.9678 140.631C26.108 166.253 22.5899 197.392 22.5899 197.392L34.2224 200.824C34.2224 200.824 37.6688 196.294 41.5061 185.134C45.6301 173.147 50.1873 154.249 50.7606 147.221C52.6597 154.88 56.6339 170.806 59.318 204.093H73.563C73.5663 204.093 75.3774 158.012 77.801 138.664Z" fill="white" stroke="black" stroke-width="1.4" stroke-miterlimit="10" stroke-linecap="round" stroke-linejoin="round"/>
<path d="M74.1268 204.109L75.7914 183.761C75.7914 183.761 74.1268 185.807 66.8235 185.807C62.3575 185.807 56.6406 183.78 56.6406 183.78C56.6406 183.78 57.6732 199.971 57.5397 201.965C56.9989 210.095 56.6406 209.186 56.6406 217.891H90.4598C93.7922 209.503 88.1047 200.893 74.1268 204.109Z" fill="white" stroke="black" stroke-width="1.4" stroke-miterlimit="10" stroke-linecap="round" stroke-linejoin="round"/>
<path d="M90.4996 220.16C89.7275 220.16 89.7275 220.853 88.9588 220.853C88.1867 220.853 88.1868 220.16 87.418 220.16C86.646 220.16 86.646 220.853 85.8772 220.853C85.1084 220.853 85.1084 220.16 84.3364 220.16C83.5676 220.16 83.5676 220.853 82.7989 220.853C82.0301 220.853 82.0301 220.16 81.2581 220.16C80.4893 220.16 80.4893 220.853 79.7173 220.853C78.9453 220.853 78.9485 220.16 78.1765 220.16C77.4077 220.16 77.4077 220.853 76.639 220.853C75.8702 220.853 75.8702 220.16 75.1014 220.16C74.3327 220.16 74.3327 220.853 73.5606 220.853C72.7919 220.853 72.7919 220.16 72.0231 220.16C71.2543 220.16 71.2543 220.853 70.4823 220.853C69.7136 220.853 69.7136 220.16 68.9448 220.16C68.176 220.16 68.176 220.853 67.404 220.853C66.6352 220.853 66.6352 220.16 65.8665 220.16C65.0977 220.16 65.0977 220.853 64.3257 220.853C63.5569 220.853 63.5569 220.16 62.7882 220.16C62.0194 220.16 62.0194 220.853 61.2506 220.853C60.4819 220.853 60.4819 220.16 59.7131 220.16C58.9443 220.16 58.9443 220.853 58.1723 220.853C57.4035 220.853 57.4035 220.16 56.6348 220.16V217.895H90.4963V220.16H90.4996Z" fill="white" stroke="black" stroke-width="1.4" stroke-miterlimit="10" stroke-linecap="round" stroke-linejoin="round"/>
<path d="M36.2758 204.866L41.5073 185.135C41.5073 185.135 39.5072 186.854 32.3212 185.553C27.9236 184.759 22.6562 181.745 22.6562 181.745C22.6562 181.745 20.8125 197.864 20.3271 199.806C18.3596 207.71 18.1707 206.752 16.6299 215.323L49.9148 221.334C54.6805 213.669 50.5989 204.186 36.2758 204.866Z" fill="white" stroke="black" stroke-width="1.4" stroke-miterlimit="10" stroke-linecap="round" stroke-linejoin="round"/>
<path d="M49.5539 223.571C48.7949 223.433 48.6744 224.12 47.9154 223.983C47.1564 223.842 47.2801 223.162 46.5212 223.021C45.7622 222.884 45.6384 223.571 44.8826 223.433C44.1236 223.296 44.2474 222.613 43.4917 222.472C42.736 222.335 42.6122 223.021 41.8532 222.887C41.0942 222.747 41.218 222.06 40.4622 221.926C39.7032 221.786 39.5827 222.472 38.8237 222.338C38.0647 222.198 38.1885 221.515 37.4328 221.377C36.6738 221.24 36.5533 221.926 35.7943 221.789C35.0385 221.652 35.1591 220.965 34.4033 220.828C33.6476 220.691 33.5238 221.377 32.7648 221.24C32.0091 221.103 32.1296 220.419 31.3739 220.282C30.6181 220.145 30.4943 220.831 29.7353 220.691C28.9796 220.557 29.1001 219.87 28.3444 219.733C27.5854 219.596 27.4649 220.282 26.7059 220.145C25.9502 220.008 26.0739 219.324 25.3149 219.184C24.5592 219.047 24.4354 219.733 23.6764 219.596C22.9207 219.458 23.0412 218.775 22.2855 218.635C21.5297 218.497 21.406 219.187 20.647 219.05C19.8912 218.909 20.0118 218.226 19.256 218.089C18.5003 217.948 18.3765 218.638 17.6175 218.501C16.8618 218.363 16.9823 217.677 16.2266 217.54L16.6272 215.313L49.9513 221.331L49.5539 223.571Z" fill="white" stroke="black" stroke-width="1.4" stroke-miterlimit="10" stroke-linecap="round" stroke-linejoin="round"/>
<path d="M23.3888 106.209C27.3466 88.3152 30.2327 75.6255 30.2327 75.6255C22.9783 68.1234 13.2743 72.5854 10.4696 80.5124C7.66489 88.4394 4.73641 102.996 4.7299 104.898C4.70709 114.156 5.64525 128.565 9.02 131.2L23.9784 130.438C24.8937 126.211 22.7926 108.906 23.3888 106.209Z" fill="white" stroke="black" stroke-width="1.4" stroke-miterlimit="10" stroke-linecap="round" stroke-linejoin="round"/>
<path d="M9.02441 131.203L10.2688 137.502L25.2271 136.77L23.9828 130.441L9.02441 131.203Z" fill="white" stroke="black" stroke-width="1.4" stroke-miterlimit="10" stroke-linecap="round" stroke-linejoin="round"/>
<path d="M11.5713 137.231C11.5713 137.231 11.682 139.382 11.7081 145.302C11.7342 151.222 13.9199 155.429 19.8518 156.56C25.7837 157.691 28.1649 155.625 26.8391 150.156C26.3472 148.136 24.5296 145.443 24.5296 145.443C24.5296 145.443 27.3082 149.215 29.3409 147.701C32.139 145.619 24.5752 139.872 22.6761 136.688L11.5713 137.231Z" fill="white" stroke="black" stroke-width="1.4" stroke-miterlimit="10" stroke-linecap="round" stroke-linejoin="round"/>
<path d="M20.4414 145.857C20.4414 145.857 23.1191 153.046 25.8293 156.027" stroke="black" stroke-width="1.4" stroke-miterlimit="10" stroke-linecap="round" stroke-linejoin="round"/>
<path d="M22.0614 156.84C22.0614 156.84 18.8724 154.375 17.5107 146.373" stroke="black" stroke-width="1.4" stroke-miterlimit="10" stroke-linecap="round" stroke-linejoin="round"/>
<path d="M17.7669 155.985C17.7669 155.985 14.6821 151.722 14.8515 146.211" stroke="black" stroke-width="1.4" stroke-miterlimit="10" stroke-linecap="round" stroke-linejoin="round"/>
<path d="M17.7441 49.3262C17.7441 49.3262 19.2914 60.3651 23.0994 64.9252C26.9042 69.4886 17.6985 68.9002 17.8907 71.7277C18.1774 75.9021 33.4126 85.3589 46.081 85.8427C71.4861 86.8103 79.5256 73.3981 79.5256 73.3981C79.7927 70.0377 75.5091 68.2856 75.5091 68.2856C75.5091 68.2856 77.0368 64.072 75.5091 61.5975L17.7441 49.3262Z" fill="white" stroke="black" stroke-width="1.4" stroke-miterlimit="10" stroke-linecap="round" stroke-linejoin="round"/>
<path d="M85.2967 34.9461C85.9743 54.3599 70.8433 70.6519 51.4938 71.3319C32.1476 72.0118 15.9123 56.8279 15.2348 37.4108C14.5572 17.997 29.6882 1.70823 49.0377 1.02177C68.3839 0.345109 84.6159 15.529 85.2967 34.9461Z" fill="white" stroke="black" stroke-width="1.4" stroke-miterlimit="10" stroke-linecap="round" stroke-linejoin="round"/>
<path d="M48.6683 14.9106C30.2342 29.0093 32.508 47.9883 32.508 47.9883C32.508 47.9883 53.864 75.3749 81.3442 52.4373C81.3442 52.4373 88.3999 41.2545 85.2271 27.8227C82.0576 14.3843 71.3144 7.16015 71.3144 7.16015C71.3144 7.16015 60.6754 5.73492 48.6683 14.9106Z" fill="black"/>
<path d="M76.128 59.9125C48.3351 78.2377 27.624 48.1641 27.624 48.1641C27.624 48.1641 29.8489 9.79416 64.2056 3.90039" stroke="black" stroke-width="1.4" stroke-miterlimit="10" stroke-linecap="round" stroke-linejoin="round"/>
<path d="M42.1128 28.7532C38.1973 33.8756 37.0116 43.6103 39.6697 45.0028C42.3278 46.3921 42.9793 35.3727 47.1033 31.6004C51.439 27.6418 46.0674 23.5786 42.1128 28.7532Z" fill="white"/>
<path d="M47.9127 19.434C46.5608 20.0943 45.981 21.7778 46.639 23.1311L46.7693 23.3959C47.4273 24.7524 49.1049 25.3343 50.4568 24.674C51.8086 24.0137 52.3852 22.3269 51.7272 20.9736L51.5969 20.7089C50.9454 19.3523 49.2678 18.7704 47.9127 19.434Z" fill="white"/>
<path d="M76.6618 48.4334C76.2481 47.6881 75.3197 47.4069 74.6226 47.9757C72.7105 49.5317 65.1531 52.9509 67.2314 56.3963C68.8178 59.0278 71.6909 57.6385 73.8441 55.4287C76.3035 53.7551 78.1277 51.104 76.6618 48.4334Z" fill="white"/>
<path d="M21.7555 47.2141C17.8824 45.4783 13.374 40.0814 12.1948 33.4162C11.3446 28.6109 13.8952 24.1456 16.9703 25.1492C16.9703 25.1492 13.2144 37.4794 24.9055 42.8534L21.7555 47.2141Z" fill="white" stroke="black" stroke-width="1.4" stroke-miterlimit="10" stroke-linecap="round" stroke-linejoin="round"/>
<path d="M33.4984 47.1832C34.0391 50.4358 31.8468 53.5118 28.6056 54.0511C25.3644 54.5938 22.3024 52.3971 21.7616 49.1413C21.2209 45.892 23.4132 42.816 26.6544 42.2767C29.8956 41.734 32.9576 43.9307 33.4984 47.1832Z" fill="white" stroke="black" stroke-width="1.4" stroke-miterlimit="10" stroke-linecap="round" stroke-linejoin="round"/>
<path d="M30.1266 47.7448C30.3579 49.1308 29.423 50.4383 28.0451 50.6704C26.6672 50.9025 25.3642 49.9643 25.1329 48.5816C24.9016 47.1989 25.8332 45.8913 27.2144 45.6592C28.5923 45.4239 29.8953 46.362 30.1266 47.7448Z" fill="white" stroke="black" stroke-width="1.4" stroke-miterlimit="10" stroke-linecap="round" stroke-linejoin="round"/>
<path d="M23.6895 65.834C23.6895 65.834 34.4196 79.7822 52.5247 79.2462" stroke="black" stroke-width="1.4" stroke-miterlimit="10" stroke-linecap="round" stroke-linejoin="round"/>
<path d="M75.5058 68.2852C75.5058 68.2852 69.2123 75.1596 63.0752 77.1046" stroke="black" stroke-width="1.4" stroke-miterlimit="10" stroke-linecap="round" stroke-linejoin="round"/>
<path d="M76.1185 89.3938C76.1185 89.3938 74.1216 86.9716 69.8641 87.6286C65.6098 88.289 43.5045 91.7147 43.5045 91.7147C41.7227 91.7147 40.2764 93.1628 40.2764 94.9542V124.439C40.2764 126.227 41.7227 127.679 43.5045 127.679L72.887 123.125C73.7698 123.125 76.6038 119.896 76.6038 119.896L76.1185 89.3938Z" fill="white" stroke="black" stroke-width="1.4" stroke-miterlimit="10" stroke-linecap="round" stroke-linejoin="round"/>
<path d="M77.3526 117.965C77.3526 119.557 76.0692 120.845 74.4828 120.845L48.3708 124.888C46.7844 124.888 45.501 123.6 45.501 122.011V95.8082C45.501 94.2196 46.7844 92.9316 48.3708 92.9316L74.4828 88.8848C76.0659 88.8848 77.3526 90.1727 77.3526 91.7646V117.965Z" fill="white" stroke="black" stroke-width="1.4" stroke-miterlimit="10" stroke-linecap="round" stroke-linejoin="round"/>
<path d="M41.9639 126.47L46.2279 123.914" stroke="black" stroke-width="1.4" stroke-miterlimit="10" stroke-linecap="round" stroke-linejoin="round"/>
<path d="M41.1709 92.7188L45.8486 94.4414" stroke="black" stroke-width="1.4" stroke-miterlimit="10" stroke-linecap="round" stroke-linejoin="round"/>
<path d="M158.818 62.0848L160.345 61.1515H160.6L160.854 60.3031L160.345 59.4546V58.7759V57.673L160.091 56.7397L159.412 56.1458L158.14 55.467H157.376L157.206 54.958L157.037 53.1763L156.782 51.2249L156.273 49.8674L154.406 48.7645L150.334 47.8312L142.613 46.7282L133.111 46.2192L121.063 46.6434L113.682 47.8312L111.137 49.019L110.797 50.3765L110.203 54.4489L107.658 55.3822L106.894 56.3155L106.555 59.5395L106.131 60.3879L106.979 61.3212L109.609 62.4241L109.949 64.5452L110.967 72.1811L110.628 73.1992L111.137 77.9504L112.409 87.1982L113.597 95.5977L114.361 101.961L115.209 102.724L115.888 108.07L116.736 113.415L117.33 117.911L117.67 119.438L118.942 120.711L123.524 122.663L129.208 123.681L129.717 123.935L133.111 124.105L141.001 123.511L146.092 122.153L149.231 120.457L150.079 118.505L152.201 103.488L152.964 102.215L155.594 84.3984L157.121 74.2173L156.867 73.5385V72.4356L157.63 66.6663L158.309 62.8484V62.4241L158.818 62.0848Z" fill="white"/>
<path d="M157.034 76.1704V73.71L156.695 74.2191L153.895 75.2372L147.786 76.1704L138.454 76.6795H129.375L120.467 76.1704L114.443 75.2372L111.474 74.2191L110.54 73.5403L111.219 78.1218L114.443 102.302L117.497 103.235L124.879 104.593L132.854 104.932L144.817 104.593L149.653 103.575L152.453 102.811L152.877 102.302L153.895 96.6175L155.507 85.8425L156.44 77.8673L157.034 76.1704Z" fill="#D8D2FF"/>
<mask id="path-37-outside-1_2243_28222" maskUnits="userSpaceOnUse" x="105" y="45.1914" width="57" height="80" fill="black">
<rect fill="white" x="105" y="45.1914" width="57" height="80"/>
<path d="M134.225 46.1382C145.665 46.4509 154.634 47.9037 156.42 49.7499C156.763 50.103 156.773 50.1434 157.348 54.0779L157.479 54.9859L158.296 55.2986C159.275 55.682 159.921 56.0956 160.213 56.5294C160.405 56.8119 160.435 57.0339 160.475 58.2647C160.516 59.5863 160.536 59.7073 160.758 59.9394C160.919 60.1109 161 60.3126 161 60.5648C161 60.8675 160.929 60.9987 160.566 61.3114C160.334 61.5233 159.779 61.8461 159.335 62.0277C158.902 62.1992 158.518 62.4211 158.498 62.5019C158.468 62.5927 158.125 64.9029 157.721 67.6369L156.995 72.6106L157.217 72.8325C157.328 72.9637 157.429 73.1957 157.429 73.3471C157.429 73.4984 156.904 77.2009 156.268 81.5592C155.623 85.9275 154.674 92.4447 154.14 96.0564C153.141 102.917 153.191 102.675 152.657 103.018C152.546 103.088 152.415 103.704 152.183 105.287C149.923 120.884 150.145 119.765 149.136 120.673C144.969 124.415 131.017 125.394 122.482 122.529C119.122 121.399 117.538 120.178 117.175 118.433C117.125 118.171 116.62 114.629 116.066 110.584C115.511 106.528 115.036 103.118 115.006 102.997C114.976 102.866 114.815 102.695 114.653 102.614C114.492 102.533 114.33 102.362 114.3 102.231C114.27 102.11 113.927 99.6883 113.543 96.8635C113.15 94.0286 112.262 87.6123 111.576 82.5983C110.88 77.5843 110.315 73.3773 110.315 73.2563C110.315 73.1251 110.426 72.8931 110.557 72.7317L110.799 72.4391L110.416 69.7253C110.204 68.2221 109.911 66.1136 109.77 65.0341C109.397 62.2698 109.508 62.5624 108.721 62.3001C107.722 61.9773 106.734 61.4325 106.32 60.9785C106.017 60.6355 105.967 60.5245 106.017 60.2622C106.048 60.0907 106.148 59.8788 106.229 59.788C106.34 59.667 106.391 59.2533 106.441 58.2142C106.512 56.3579 106.542 56.2167 106.915 55.7829C107.268 55.3793 108.428 54.7942 109.478 54.4814C109.831 54.3806 110.113 54.2494 110.113 54.199C110.113 54.1384 110.244 53.0085 110.406 51.697C110.608 50.0727 110.749 49.2354 110.86 49.0841C111.727 47.8432 116.136 46.8545 122.926 46.3702C126.255 46.1382 130.795 46.0474 134.225 46.1382ZM126.558 46.572C118.023 46.9049 112.141 47.9541 111.183 49.3161C110.971 49.6188 110.971 49.6389 111.314 50.0324C112.555 51.4347 118.638 52.6554 127.667 53.3011C131.269 53.5533 141.489 53.5533 144.717 53.3011C151.476 52.7563 155.835 51.7676 156.339 50.6478C156.5 50.3048 156.218 49.9416 155.451 49.528C151.729 47.4901 138.341 46.118 126.558 46.572ZM110.92 50.5166C110.92 50.5772 110.779 51.7878 110.618 53.2103C110.446 54.6429 110.315 55.9342 110.335 56.1057C110.456 57.3466 116.166 58.7186 123.733 59.334C129.847 59.8284 138.018 59.8486 144.011 59.3744C149.156 58.9809 153.877 58.1638 155.814 57.3466C156.5 57.054 157.197 56.6908 157.257 56.59C157.287 56.5395 157.136 55.3087 156.914 53.8358C156.702 52.3628 156.521 51.1421 156.521 51.1219C156.521 51.0917 156.42 51.1724 156.289 51.2935C155.27 52.2519 151.265 53.1296 145.877 53.5836C133.085 54.6529 115.753 53.2405 111.697 50.7991C111.011 50.3855 110.92 50.3552 110.92 50.5166ZM109.044 55.0868C106.128 56.0754 106.32 57.0742 109.609 58.1537C112.777 59.1928 118.013 59.9595 125.448 60.4539C128.706 60.6657 138.099 60.7565 141.741 60.6052C151.224 60.2118 158.185 59.0516 159.699 57.619C160.132 57.2154 160.142 56.9935 159.719 56.5799C159.356 56.2268 157.883 55.5105 157.681 55.5912C157.58 55.6215 157.57 55.7526 157.641 56.1158C157.751 56.7009 157.61 56.8825 156.743 57.3466C154.634 58.4563 149.731 59.3542 143.002 59.8486C140.046 60.0604 131.703 60.1512 128.374 59.9999C119.021 59.5661 112.343 58.3857 110.255 56.8018L109.881 56.5193L109.952 55.682C110.022 54.7135 110.063 54.7337 109.044 55.0868ZM106.845 57.8914C106.814 58.1839 106.784 58.7086 106.784 59.0617C106.784 59.556 106.734 59.7578 106.562 59.9999C106.35 60.2824 106.35 60.3227 106.491 60.5749C107.43 62.2698 115.369 63.8235 126.961 64.6003C130.563 64.8323 137.736 64.8424 141.035 64.6003C148.853 64.0353 154.553 63.2081 157.883 62.1387C160.233 61.382 161.121 60.6657 160.405 60.1109C160.173 59.9293 160.153 59.8385 160.153 59.1726C160.153 58.759 160.122 58.3252 160.092 58.2041C160.031 57.9923 160.021 58.0023 159.315 58.3756C154.614 60.8978 136.545 61.9167 121.009 60.5346C114.3 59.9394 108.63 58.7186 107.288 57.5887C107.147 57.4677 107.006 57.3769 106.976 57.3668C106.945 57.3668 106.885 57.6089 106.845 57.8914ZM156.521 62.9155C153.222 63.7427 148.591 64.3985 142.962 64.8323C137.473 65.2459 134.396 65.3267 130.24 65.135C121.897 64.7617 115.702 64.0555 110.991 62.9458C110.386 62.8045 109.881 62.7137 109.871 62.7238C109.851 62.744 110.184 65.2762 110.608 68.3431C111.495 74.7796 111.213 73.9927 112.837 74.5274C116.489 75.7179 122.361 76.2627 132.813 76.4039C142.528 76.525 149.186 76.0912 153.444 75.0722C154.947 74.709 156.42 74.1743 156.42 74.0028C156.42 73.9625 156.622 72.5198 156.874 70.8148C158.236 61.6141 158.135 62.4514 157.862 62.5523C157.762 62.5927 157.166 62.7541 156.521 62.9155ZM111.132 76.2021C111.294 77.3018 111.465 78.5124 111.526 78.9059C111.576 79.2892 111.748 80.4696 111.879 81.5289C112.02 82.5781 112.323 84.7572 112.545 86.3714C112.767 87.9755 113.099 90.4573 113.301 91.8697C113.493 93.2821 113.695 94.7146 113.745 95.0476C113.796 95.3805 113.866 95.8748 113.896 96.1573C113.937 96.4297 114.118 97.7715 114.31 99.1234C114.502 100.485 114.653 101.686 114.653 101.797C114.653 102.089 114.774 102.251 115.006 102.291C115.117 102.311 115.299 102.372 115.41 102.432C115.874 102.675 117.67 103.159 119.243 103.461C124.257 104.41 128.051 104.723 134.982 104.723C140.48 104.733 143.153 104.571 146.483 104.016C148.793 103.643 152.455 102.695 152.667 102.432C152.778 102.291 152.768 102.342 153.302 98.6795C153.524 97.1763 153.766 95.5016 153.847 94.9467C153.928 94.3918 154.18 92.6868 154.402 91.1635C154.624 89.6401 154.826 88.2277 154.856 88.036C154.937 87.5518 155.784 81.771 155.966 80.52C156.047 79.9652 156.268 78.4317 156.47 77.1202C156.823 74.6888 156.884 74.1844 156.743 74.366C156.632 74.5274 155.552 74.9713 154.695 75.2135C151.557 76.0912 148.49 76.4644 141.69 76.8276C139.279 76.9487 130.149 76.8781 126.104 76.6965C118.648 76.3535 113.533 75.5766 111.374 74.4366C111.152 74.3156 110.941 74.2248 110.91 74.2147C110.88 74.2147 110.981 75.1126 111.132 76.2021ZM115.42 103.139C115.44 103.239 115.783 105.661 116.166 108.516C116.56 111.371 117.034 114.831 117.226 116.203C117.468 117.928 117.629 118.816 117.77 119.089C118.769 121.046 122.895 122.741 128.434 123.447C135.446 124.345 143.234 123.528 147.239 121.47C148.712 120.713 149.539 119.906 149.761 118.998C149.822 118.756 150.316 115.447 150.871 111.643C151.426 107.84 151.93 104.46 151.981 104.127C152.142 103.129 152.162 103.159 151.597 103.33C150.78 103.593 148.258 104.147 146.735 104.42C143.143 105.045 139.875 105.227 133.569 105.156C128.535 105.096 127.193 105.025 124.237 104.672C120.958 104.289 116.963 103.522 115.864 103.078C115.49 102.927 115.369 102.947 115.42 103.139Z"/>
</mask>
<path d="M134.225 46.1382C145.665 46.4509 154.634 47.9037 156.42 49.7499C156.763 50.103 156.773 50.1434 157.348 54.0779L157.479 54.9859L158.296 55.2986C159.275 55.682 159.921 56.0956 160.213 56.5294C160.405 56.8119 160.435 57.0339 160.475 58.2647C160.516 59.5863 160.536 59.7073 160.758 59.9394C160.919 60.1109 161 60.3126 161 60.5648C161 60.8675 160.929 60.9987 160.566 61.3114C160.334 61.5233 159.779 61.8461 159.335 62.0277C158.902 62.1992 158.518 62.4211 158.498 62.5019C158.468 62.5927 158.125 64.9029 157.721 67.6369L156.995 72.6106L157.217 72.8325C157.328 72.9637 157.429 73.1957 157.429 73.3471C157.429 73.4984 156.904 77.2009 156.268 81.5592C155.623 85.9275 154.674 92.4447 154.14 96.0564C153.141 102.917 153.191 102.675 152.657 103.018C152.546 103.088 152.415 103.704 152.183 105.287C149.923 120.884 150.145 119.765 149.136 120.673C144.969 124.415 131.017 125.394 122.482 122.529C119.122 121.399 117.538 120.178 117.175 118.433C117.125 118.171 116.62 114.629 116.066 110.584C115.511 106.528 115.036 103.118 115.006 102.997C114.976 102.866 114.815 102.695 114.653 102.614C114.492 102.533 114.33 102.362 114.3 102.231C114.27 102.11 113.927 99.6883 113.543 96.8635C113.15 94.0286 112.262 87.6123 111.576 82.5983C110.88 77.5843 110.315 73.3773 110.315 73.2563C110.315 73.1251 110.426 72.8931 110.557 72.7317L110.799 72.4391L110.416 69.7253C110.204 68.2221 109.911 66.1136 109.77 65.0341C109.397 62.2698 109.508 62.5624 108.721 62.3001C107.722 61.9773 106.734 61.4325 106.32 60.9785C106.017 60.6355 105.967 60.5245 106.017 60.2622C106.048 60.0907 106.148 59.8788 106.229 59.788C106.34 59.667 106.391 59.2533 106.441 58.2142C106.512 56.3579 106.542 56.2167 106.915 55.7829C107.268 55.3793 108.428 54.7942 109.478 54.4814C109.831 54.3806 110.113 54.2494 110.113 54.199C110.113 54.1384 110.244 53.0085 110.406 51.697C110.608 50.0727 110.749 49.2354 110.86 49.0841C111.727 47.8432 116.136 46.8545 122.926 46.3702C126.255 46.1382 130.795 46.0474 134.225 46.1382ZM126.558 46.572C118.023 46.9049 112.141 47.9541 111.183 49.3161C110.971 49.6188 110.971 49.6389 111.314 50.0324C112.555 51.4347 118.638 52.6554 127.667 53.3011C131.269 53.5533 141.489 53.5533 144.717 53.3011C151.476 52.7563 155.835 51.7676 156.339 50.6478C156.5 50.3048 156.218 49.9416 155.451 49.528C151.729 47.4901 138.341 46.118 126.558 46.572ZM110.92 50.5166C110.92 50.5772 110.779 51.7878 110.618 53.2103C110.446 54.6429 110.315 55.9342 110.335 56.1057C110.456 57.3466 116.166 58.7186 123.733 59.334C129.847 59.8284 138.018 59.8486 144.011 59.3744C149.156 58.9809 153.877 58.1638 155.814 57.3466C156.5 57.054 157.197 56.6908 157.257 56.59C157.287 56.5395 157.136 55.3087 156.914 53.8358C156.702 52.3628 156.521 51.1421 156.521 51.1219C156.521 51.0917 156.42 51.1724 156.289 51.2935C155.27 52.2519 151.265 53.1296 145.877 53.5836C133.085 54.6529 115.753 53.2405 111.697 50.7991C111.011 50.3855 110.92 50.3552 110.92 50.5166ZM109.044 55.0868C106.128 56.0754 106.32 57.0742 109.609 58.1537C112.777 59.1928 118.013 59.9595 125.448 60.4539C128.706 60.6657 138.099 60.7565 141.741 60.6052C151.224 60.2118 158.185 59.0516 159.699 57.619C160.132 57.2154 160.142 56.9935 159.719 56.5799C159.356 56.2268 157.883 55.5105 157.681 55.5912C157.58 55.6215 157.57 55.7526 157.641 56.1158C157.751 56.7009 157.61 56.8825 156.743 57.3466C154.634 58.4563 149.731 59.3542 143.002 59.8486C140.046 60.0604 131.703 60.1512 128.374 59.9999C119.021 59.5661 112.343 58.3857 110.255 56.8018L109.881 56.5193L109.952 55.682C110.022 54.7135 110.063 54.7337 109.044 55.0868ZM106.845 57.8914C106.814 58.1839 106.784 58.7086 106.784 59.0617C106.784 59.556 106.734 59.7578 106.562 59.9999C106.35 60.2824 106.35 60.3227 106.491 60.5749C107.43 62.2698 115.369 63.8235 126.961 64.6003C130.563 64.8323 137.736 64.8424 141.035 64.6003C148.853 64.0353 154.553 63.2081 157.883 62.1387C160.233 61.382 161.121 60.6657 160.405 60.1109C160.173 59.9293 160.153 59.8385 160.153 59.1726C160.153 58.759 160.122 58.3252 160.092 58.2041C160.031 57.9923 160.021 58.0023 159.315 58.3756C154.614 60.8978 136.545 61.9167 121.009 60.5346C114.3 59.9394 108.63 58.7186 107.288 57.5887C107.147 57.4677 107.006 57.3769 106.976 57.3668C106.945 57.3668 106.885 57.6089 106.845 57.8914ZM156.521 62.9155C153.222 63.7427 148.591 64.3985 142.962 64.8323C137.473 65.2459 134.396 65.3267 130.24 65.135C121.897 64.7617 115.702 64.0555 110.991 62.9458C110.386 62.8045 109.881 62.7137 109.871 62.7238C109.851 62.744 110.184 65.2762 110.608 68.3431C111.495 74.7796 111.213 73.9927 112.837 74.5274C116.489 75.7179 122.361 76.2627 132.813 76.4039C142.528 76.525 149.186 76.0912 153.444 75.0722C154.947 74.709 156.42 74.1743 156.42 74.0028C156.42 73.9625 156.622 72.5198 156.874 70.8148C158.236 61.6141 158.135 62.4514 157.862 62.5523C157.762 62.5927 157.166 62.7541 156.521 62.9155ZM111.132 76.2021C111.294 77.3018 111.465 78.5124 111.526 78.9059C111.576 79.2892 111.748 80.4696 111.879 81.5289C112.02 82.5781 112.323 84.7572 112.545 86.3714C112.767 87.9755 113.099 90.4573 113.301 91.8697C113.493 93.2821 113.695 94.7146 113.745 95.0476C113.796 95.3805 113.866 95.8748 113.896 96.1573C113.937 96.4297 114.118 97.7715 114.31 99.1234C114.502 100.485 114.653 101.686 114.653 101.797C114.653 102.089 114.774 102.251 115.006 102.291C115.117 102.311 115.299 102.372 115.41 102.432C115.874 102.675 117.67 103.159 119.243 103.461C124.257 104.41 128.051 104.723 134.982 104.723C140.48 104.733 143.153 104.571 146.483 104.016C148.793 103.643 152.455 102.695 152.667 102.432C152.778 102.291 152.768 102.342 153.302 98.6795C153.524 97.1763 153.766 95.5016 153.847 94.9467C153.928 94.3918 154.18 92.6868 154.402 91.1635C154.624 89.6401 154.826 88.2277 154.856 88.036C154.937 87.5518 155.784 81.771 155.966 80.52C156.047 79.9652 156.268 78.4317 156.47 77.1202C156.823 74.6888 156.884 74.1844 156.743 74.366C156.632 74.5274 155.552 74.9713 154.695 75.2135C151.557 76.0912 148.49 76.4644 141.69 76.8276C139.279 76.9487 130.149 76.8781 126.104 76.6965C118.648 76.3535 113.533 75.5766 111.374 74.4366C111.152 74.3156 110.941 74.2248 110.91 74.2147C110.88 74.2147 110.981 75.1126 111.132 76.2021ZM115.42 103.139C115.44 103.239 115.783 105.661 116.166 108.516C116.56 111.371 117.034 114.831 117.226 116.203C117.468 117.928 117.629 118.816 117.77 119.089C118.769 121.046 122.895 122.741 128.434 123.447C135.446 124.345 143.234 123.528 147.239 121.47C148.712 120.713 149.539 119.906 149.761 118.998C149.822 118.756 150.316 115.447 150.871 111.643C151.426 107.84 151.93 104.46 151.981 104.127C152.142 103.129 152.162 103.159 151.597 103.33C150.78 103.593 148.258 104.147 146.735 104.42C143.143 105.045 139.875 105.227 133.569 105.156C128.535 105.096 127.193 105.025 124.237 104.672C120.958 104.289 116.963 103.522 115.864 103.078C115.49 102.927 115.369 102.947 115.42 103.139Z" fill="black"/>
<path d="M134.225 46.1382C145.665 46.4509 154.634 47.9037 156.42 49.7499C156.763 50.103 156.773 50.1434 157.348 54.0779L157.479 54.9859L158.296 55.2986C159.275 55.682 159.921 56.0956 160.213 56.5294C160.405 56.8119 160.435 57.0339 160.475 58.2647C160.516 59.5863 160.536 59.7073 160.758 59.9394C160.919 60.1109 161 60.3126 161 60.5648C161 60.8675 160.929 60.9987 160.566 61.3114C160.334 61.5233 159.779 61.8461 159.335 62.0277C158.902 62.1992 158.518 62.4211 158.498 62.5019C158.468 62.5927 158.125 64.9029 157.721 67.6369L156.995 72.6106L157.217 72.8325C157.328 72.9637 157.429 73.1957 157.429 73.3471C157.429 73.4984 156.904 77.2009 156.268 81.5592C155.623 85.9275 154.674 92.4447 154.14 96.0564C153.141 102.917 153.191 102.675 152.657 103.018C152.546 103.088 152.415 103.704 152.183 105.287C149.923 120.884 150.145 119.765 149.136 120.673C144.969 124.415 131.017 125.394 122.482 122.529C119.122 121.399 117.538 120.178 117.175 118.433C117.125 118.171 116.62 114.629 116.066 110.584C115.511 106.528 115.036 103.118 115.006 102.997C114.976 102.866 114.815 102.695 114.653 102.614C114.492 102.533 114.33 102.362 114.3 102.231C114.27 102.11 113.927 99.6883 113.543 96.8635C113.15 94.0286 112.262 87.6123 111.576 82.5983C110.88 77.5843 110.315 73.3773 110.315 73.2563C110.315 73.1251 110.426 72.8931 110.557 72.7317L110.799 72.4391L110.416 69.7253C110.204 68.2221 109.911 66.1136 109.77 65.0341C109.397 62.2698 109.508 62.5624 108.721 62.3001C107.722 61.9773 106.734 61.4325 106.32 60.9785C106.017 60.6355 105.967 60.5245 106.017 60.2622C106.048 60.0907 106.148 59.8788 106.229 59.788C106.34 59.667 106.391 59.2533 106.441 58.2142C106.512 56.3579 106.542 56.2167 106.915 55.7829C107.268 55.3793 108.428 54.7942 109.478 54.4814C109.831 54.3806 110.113 54.2494 110.113 54.199C110.113 54.1384 110.244 53.0085 110.406 51.697C110.608 50.0727 110.749 49.2354 110.86 49.0841C111.727 47.8432 116.136 46.8545 122.926 46.3702C126.255 46.1382 130.795 46.0474 134.225 46.1382ZM126.558 46.572C118.023 46.9049 112.141 47.9541 111.183 49.3161C110.971 49.6188 110.971 49.6389 111.314 50.0324C112.555 51.4347 118.638 52.6554 127.667 53.3011C131.269 53.5533 141.489 53.5533 144.717 53.3011C151.476 52.7563 155.835 51.7676 156.339 50.6478C156.5 50.3048 156.218 49.9416 155.451 49.528C151.729 47.4901 138.341 46.118 126.558 46.572ZM110.92 50.5166C110.92 50.5772 110.779 51.7878 110.618 53.2103C110.446 54.6429 110.315 55.9342 110.335 56.1057C110.456 57.3466 116.166 58.7186 123.733 59.334C129.847 59.8284 138.018 59.8486 144.011 59.3744C149.156 58.9809 153.877 58.1638 155.814 57.3466C156.5 57.054 157.197 56.6908 157.257 56.59C157.287 56.5395 157.136 55.3087 156.914 53.8358C156.702 52.3628 156.521 51.1421 156.521 51.1219C156.521 51.0917 156.42 51.1724 156.289 51.2935C155.27 52.2519 151.265 53.1296 145.877 53.5836C133.085 54.6529 115.753 53.2405 111.697 50.7991C111.011 50.3855 110.92 50.3552 110.92 50.5166ZM109.044 55.0868C106.128 56.0754 106.32 57.0742 109.609 58.1537C112.777 59.1928 118.013 59.9595 125.448 60.4539C128.706 60.6657 138.099 60.7565 141.741 60.6052C151.224 60.2118 158.185 59.0516 159.699 57.619C160.132 57.2154 160.142 56.9935 159.719 56.5799C159.356 56.2268 157.883 55.5105 157.681 55.5912C157.58 55.6215 157.57 55.7526 157.641 56.1158C157.751 56.7009 157.61 56.8825 156.743 57.3466C154.634 58.4563 149.731 59.3542 143.002 59.8486C140.046 60.0604 131.703 60.1512 128.374 59.9999C119.021 59.5661 112.343 58.3857 110.255 56.8018L109.881 56.5193L109.952 55.682C110.022 54.7135 110.063 54.7337 109.044 55.0868ZM106.845 57.8914C106.814 58.1839 106.784 58.7086 106.784 59.0617C106.784 59.556 106.734 59.7578 106.562 59.9999C106.35 60.2824 106.35 60.3227 106.491 60.5749C107.43 62.2698 115.369 63.8235 126.961 64.6003C130.563 64.8323 137.736 64.8424 141.035 64.6003C148.853 64.0353 154.553 63.2081 157.883 62.1387C160.233 61.382 161.121 60.6657 160.405 60.1109C160.173 59.9293 160.153 59.8385 160.153 59.1726C160.153 58.759 160.122 58.3252 160.092 58.2041C160.031 57.9923 160.021 58.0023 159.315 58.3756C154.614 60.8978 136.545 61.9167 121.009 60.5346C114.3 59.9394 108.63 58.7186 107.288 57.5887C107.147 57.4677 107.006 57.3769 106.976 57.3668C106.945 57.3668 106.885 57.6089 106.845 57.8914ZM156.521 62.9155C153.222 63.7427 148.591 64.3985 142.962 64.8323C137.473 65.2459 134.396 65.3267 130.24 65.135C121.897 64.7617 115.702 64.0555 110.991 62.9458C110.386 62.8045 109.881 62.7137 109.871 62.7238C109.851 62.744 110.184 65.2762 110.608 68.3431C111.495 74.7796 111.213 73.9927 112.837 74.5274C116.489 75.7179 122.361 76.2627 132.813 76.4039C142.528 76.525 149.186 76.0912 153.444 75.0722C154.947 74.709 156.42 74.1743 156.42 74.0028C156.42 73.9625 156.622 72.5198 156.874 70.8148C158.236 61.6141 158.135 62.4514 157.862 62.5523C157.762 62.5927 157.166 62.7541 156.521 62.9155ZM111.132 76.2021C111.294 77.3018 111.465 78.5124 111.526 78.9059C111.576 79.2892 111.748 80.4696 111.879 81.5289C112.02 82.5781 112.323 84.7572 112.545 86.3714C112.767 87.9755 113.099 90.4573 113.301 91.8697C113.493 93.2821 113.695 94.7146 113.745 95.0476C113.796 95.3805 113.866 95.8748 113.896 96.1573C113.937 96.4297 114.118 97.7715 114.31 99.1234C114.502 100.485 114.653 101.686 114.653 101.797C114.653 102.089 114.774 102.251 115.006 102.291C115.117 102.311 115.299 102.372 115.41 102.432C115.874 102.675 117.67 103.159 119.243 103.461C124.257 104.41 128.051 104.723 134.982 104.723C140.48 104.733 143.153 104.571 146.483 104.016C148.793 103.643 152.455 102.695 152.667 102.432C152.778 102.291 152.768 102.342 153.302 98.6795C153.524 97.1763 153.766 95.5016 153.847 94.9467C153.928 94.3918 154.18 92.6868 154.402 91.1635C154.624 89.6401 154.826 88.2277 154.856 88.036C154.937 87.5518 155.784 81.771 155.966 80.52C156.047 79.9652 156.268 78.4317 156.47 77.1202C156.823 74.6888 156.884 74.1844 156.743 74.366C156.632 74.5274 155.552 74.9713 154.695 75.2135C151.557 76.0912 148.49 76.4644 141.69 76.8276C139.279 76.9487 130.149 76.8781 126.104 76.6965C118.648 76.3535 113.533 75.5766 111.374 74.4366C111.152 74.3156 110.941 74.2248 110.91 74.2147C110.88 74.2147 110.981 75.1126 111.132 76.2021ZM115.42 103.139C115.44 103.239 115.783 105.661 116.166 108.516C116.56 111.371 117.034 114.831 117.226 116.203C117.468 117.928 117.629 118.816 117.77 119.089C118.769 121.046 122.895 122.741 128.434 123.447C135.446 124.345 143.234 123.528 147.239 121.47C148.712 120.713 149.539 119.906 149.761 118.998C149.822 118.756 150.316 115.447 150.871 111.643C151.426 107.84 151.93 104.46 151.981 104.127C152.142 103.129 152.162 103.159 151.597 103.33C150.78 103.593 148.258 104.147 146.735 104.42C143.143 105.045 139.875 105.227 133.569 105.156C128.535 105.096 127.193 105.025 124.237 104.672C120.958 104.289 116.963 103.522 115.864 103.078C115.49 102.927 115.369 102.947 115.42 103.139Z" stroke="black" stroke-width="0.6" mask="url(#path-37-outside-1_2243_28222)"/>
<path d="M137.051 47.2874C145.465 47.6708 151.478 48.831 151.478 50.0618C151.478 50.4653 151.306 50.6873 150.781 50.9597C149.601 51.5549 146.938 51.9988 142.6 52.3418C140.037 52.5436 130.766 52.5133 127.82 52.2914C121.161 51.797 116.874 50.9698 116.026 50.0214C115.794 49.7491 115.784 49.3455 116.006 49.1034C116.601 48.4476 119.658 47.7818 123.431 47.4892C127.285 47.1765 132.925 47.0958 137.051 47.2874ZM124.44 47.7717C121.141 48.0441 118.548 48.4375 117.308 48.8512C116.783 49.0227 116.168 49.4363 116.168 49.6179C116.168 49.7289 116.168 49.7289 117.227 49.3556C122.049 47.6506 139.139 47.5901 147.624 49.2446C148.885 49.4868 150.57 50.0013 150.842 50.2232C151.003 50.3544 151.185 50.2333 151.104 50.0416C150.963 49.6583 149.187 49.0429 147.2 48.6898C144.829 48.2559 141.066 47.8726 137.505 47.6809C135.356 47.5699 126.155 47.6305 124.44 47.7717ZM127.467 48.488C123.603 48.6494 120.869 48.9016 118.891 49.3052C117.802 49.5271 116.672 49.8802 116.672 50.0013C116.672 50.1022 117.651 50.4553 118.609 50.6974C120.445 51.1715 124.057 51.6356 127.971 51.9181C130.372 52.0997 138.564 52.1602 141.106 52.0291C145.596 51.7869 148.996 51.3128 150.348 50.7377L150.721 50.5763L150.206 50.3443C147.22 49.0227 136.314 48.1349 127.467 48.488Z" fill="black"/>
<path d="M134.588 52.6954C136.404 52.7257 136.848 52.756 136.949 52.877C137.019 52.9577 137.05 53.099 137.009 53.1797C136.969 53.3108 136.686 53.331 135.264 53.3209C134.336 53.3108 132.913 53.2806 132.106 53.2402L130.643 53.1797V52.9275C130.643 52.6349 130.522 52.645 134.588 52.6954Z" fill="black"/>
</svg>
