<svg width="170" height="225" viewBox="0 0 170 225" fill="none" xmlns="http://www.w3.org/2000/svg">
<path d="M23.3168 72.874C23.3168 72.874 0.410009 76.2598 1.01165 102.502C1.62443 128.745 -1.47289 141.36 26.6704 144.757C43.5329 146.791 59.5376 112.196 53.187 90.8643C48.9365 76.5727 23.3168 72.874 23.3168 72.874Z" fill="white" stroke="black" stroke-width="1.4" stroke-miterlimit="10" stroke-linecap="round" stroke-linejoin="round"/>
<path d="M91.4669 101.329C91.4669 101.329 84.6204 74.6733 75.9357 75.7516C64.9892 77.1148 62.5493 88.1884 67.4348 95.6247C72.3259 103.061 80.0915 116.939 85.0215 120.13C89.9405 123.32 116.34 111.414 117.9 107.145L112.301 92.2557C107.75 92.7027 91.4669 101.329 91.4669 101.329Z" fill="white" stroke="black" stroke-width="1.4" stroke-miterlimit="10" stroke-linecap="round" stroke-linejoin="round"/>
<path d="M117.901 107.151L123.834 103.855L118.263 88.9541L112.303 92.2616L117.901 107.151Z" fill="white" stroke="black" stroke-width="1.4" stroke-miterlimit="10" stroke-linecap="round" stroke-linejoin="round"/>
<path d="M123.134 102.624C123.134 102.624 125.262 101.819 131.206 99.875C137.156 97.9363 140.677 94.3662 139.891 87.997C139.111 81.6333 136.265 79.8902 131.195 82.9966C129.324 84.1475 127.201 86.8572 127.201 86.8572C127.201 86.8572 130.098 82.8289 127.92 81.259C124.923 79.0968 121.591 88.6115 119.001 91.5615L123.134 102.624Z" fill="white" stroke="black" stroke-width="1.4" stroke-miterlimit="10" stroke-linecap="round" stroke-linejoin="round"/>
<path d="M128.943 90.8573C128.943 90.8573 135.3 85.8289 137.428 82.1191" stroke="black" stroke-width="1.4" stroke-miterlimit="10" stroke-linecap="round" stroke-linejoin="round"/>
<path d="M139.468 85.6719C139.468 85.6719 138.02 89.6946 130.41 93.6558" stroke="black" stroke-width="1.4" stroke-miterlimit="10" stroke-linecap="round" stroke-linejoin="round"/>
<path d="M139.984 90.293C139.984 90.293 136.703 94.7961 131.104 96.3996" stroke="black" stroke-width="1.4" stroke-miterlimit="10" stroke-linecap="round" stroke-linejoin="round"/>
<path d="M84.1991 132.504C86.7672 112.017 90.2656 76.3264 77.5031 70.7226C70.2165 67.5212 34.0737 67.6106 34.0737 67.6106C34.0737 67.6106 31.6783 69.404 26.3193 72.4881C11.5792 80.9748 16.8323 131.364 19.5063 140.237C22.1747 149.109 46.7694 168.68 47.3822 171.245C47.9894 173.809 40.0344 199.56 40.0344 199.56L49.2706 204.801C49.2706 204.801 68.3726 175.726 67.6596 166.328C66.9465 156.931 58.6573 147.321 58.6573 147.321C58.6573 147.321 80.6227 162.294 81.1129 165.105C81.9986 170.133 73.9155 192.196 73.9155 192.196L88.6445 196.325C88.6445 196.325 98.7386 171.345 100.332 160.132C101.602 151.21 83.4414 138.549 84.1991 132.504Z" fill="white" stroke="black" stroke-width="1.4" stroke-miterlimit="10" stroke-linecap="round" stroke-linejoin="round"/>
<path d="M90.8911 193.823L93.6765 186.191C90.0722 186.018 86.4457 185.274 83.4487 184.503C80.9641 183.861 78.2456 182.967 75.8446 181.648C75.2653 184.224 74.7695 186.325 74.5578 186.951C71.7279 195.096 71.6109 194.063 69.1709 202.952L103.715 212.5C109.464 204.879 106.066 194.487 90.8911 193.823Z" fill="white" stroke="black" stroke-width="1.4" stroke-miterlimit="10" stroke-linecap="round" stroke-linejoin="round"/>
<path d="M103.111 214.83C102.326 214.612 102.125 215.322 101.34 215.104C100.554 214.892 100.749 214.177 99.9584 213.959C99.1785 213.741 98.978 214.45 98.1925 214.238C97.407 214.02 97.602 213.311 96.811 213.093C96.0311 212.875 95.8305 213.59 95.0451 213.372C94.2596 213.154 94.4546 212.439 93.6635 212.227C92.878 212.009 92.6831 212.718 91.892 212.506C91.1066 212.288 91.3015 211.579 90.5161 211.361C89.7306 211.143 89.5356 211.852 88.7501 211.635C87.9647 211.417 88.1596 210.707 87.3742 210.489C86.5887 210.271 86.3937 210.981 85.6083 210.769C84.8172 210.551 85.0178 209.841 84.2267 209.623C83.4468 209.405 83.2463 210.115 82.4608 209.903C81.6753 209.685 81.8703 208.975 81.0793 208.757C80.2938 208.539 80.0988 209.254 79.3133 209.037C78.5279 208.819 78.7173 208.109 77.9318 207.891C77.1519 207.673 76.9514 208.383 76.1715 208.165C75.386 207.947 75.5754 207.238 74.7899 207.02C74.01 206.802 73.8095 207.511 73.0296 207.293C72.2441 207.075 72.4335 206.366 71.6536 206.148C70.8681 205.93 70.6676 206.645 69.8877 206.427C69.1022 206.21 69.2972 205.5 68.5117 205.282L69.1468 202.975L103.724 212.534L103.111 214.83Z" fill="white" stroke="black" stroke-width="1.4" stroke-miterlimit="10" stroke-linecap="round" stroke-linejoin="round"/>
<path d="M54.0662 201.236L58.5896 193.107C57.0966 192.788 55.7207 192.409 54.6789 192.112C49.7433 190.699 45.3981 188.654 41.61 185.604C40.429 188.598 39.3817 191.185 39.0085 191.867C34.9307 199.459 34.9864 198.426 31.1816 206.818L63.7871 221.713C70.6669 215.092 68.9455 204.292 54.0662 201.236Z" fill="white" stroke="black" stroke-width="1.4" stroke-miterlimit="10" stroke-linecap="round" stroke-linejoin="round"/>
<path d="M62.8311 223.908C62.0902 223.573 61.7838 224.238 61.0429 223.903C60.2964 223.562 60.6028 222.891 59.8619 222.551C59.1154 222.21 58.8146 222.886 58.0737 222.545C57.3272 222.21 57.6336 221.534 56.8927 221.193C56.1574 220.852 55.8454 221.523 55.1045 221.187C54.3692 220.847 54.67 220.176 53.9235 219.835C53.1826 219.495 52.8818 220.165 52.1353 219.83C51.3944 219.489 51.7064 218.819 50.9599 218.478C50.219 218.142 49.9126 218.813 49.1717 218.478C48.4308 218.137 48.7372 217.461 47.9963 217.126C47.261 216.79 46.949 217.461 46.2081 217.12C45.4728 216.779 45.7736 216.109 45.0327 215.768C44.2918 215.433 43.9854 216.103 43.2445 215.762C42.5036 215.422 42.81 214.751 42.069 214.41C41.3226 214.07 41.0162 214.74 40.2808 214.405C39.5344 214.064 39.8408 213.394 39.0999 213.053C38.3589 212.717 38.0526 213.388 37.3117 213.047C36.5763 212.712 36.8771 212.036 36.1362 211.695C35.3953 211.354 35.0889 212.03 34.348 211.689C33.6071 211.349 33.9135 210.678 33.1726 210.337C32.4261 209.997 32.1253 210.673 31.3844 210.332C30.6435 209.997 30.9443 209.321 30.209 208.985L31.2006 206.801L63.845 221.718L62.8311 223.908Z" fill="white" stroke="black" stroke-width="1.4" stroke-miterlimit="10" stroke-linecap="round" stroke-linejoin="round"/>
<path d="M80.5953 94.5901C80.5953 94.5901 78.4729 92.0257 73.9662 92.724C69.4594 93.4224 46.0457 97.0484 46.0457 97.0484C44.1517 97.0484 42.6309 98.5849 42.6309 100.479V131.699C42.6309 133.593 44.1517 135.13 46.0457 135.13L77.1693 130.308C78.1108 130.308 81.1134 126.889 81.1134 126.889L80.5953 94.5901Z" fill="white" stroke="black" stroke-width="1.4" stroke-miterlimit="10" stroke-linecap="round" stroke-linejoin="round"/>
<path d="M81.9059 124.839C81.9059 126.521 80.5466 127.889 78.8643 127.889L51.2001 132.175C49.5233 132.175 48.1641 130.806 48.1641 129.124V101.379C48.1641 99.6915 49.5233 98.3282 51.2001 98.3282L78.8643 94.043C80.5466 94.043 81.9059 95.4062 81.9059 97.0935V124.839Z" fill="white" stroke="black" stroke-width="1.4" stroke-miterlimit="10" stroke-linecap="round" stroke-linejoin="round"/>
<path d="M44.4014 133.846L48.9248 131.142" stroke="black" stroke-width="1.4" stroke-miterlimit="10" stroke-linecap="round" stroke-linejoin="round"/>
<path d="M43.5693 98.1162L48.5273 99.9376" stroke="black" stroke-width="1.4" stroke-miterlimit="10" stroke-linecap="round" stroke-linejoin="round"/>
<path d="M25.7872 81.9742C15.3031 78.5214 10.1001 89.3826 11.3535 98.199C12.6069 107.015 19.6762 128.486 22.6788 131.202C25.6703 133.917 53.1618 132.101 55.8636 128.447L54.677 112.574C50.187 111.714 34.784 115.843 34.238 113.815C33.9483 112.742 31.5975 103.859 29.4472 95.7463" fill="white"/>
<path d="M25.7872 81.9742C15.3031 78.5214 10.1001 89.3826 11.3535 98.199C12.6069 107.015 19.6762 128.486 22.6788 131.202C25.6703 133.917 53.1618 132.101 55.8636 128.447L54.677 112.574C50.187 111.714 34.784 115.843 34.238 113.815C33.9483 112.742 31.5975 103.859 29.4472 95.7463" stroke="black" stroke-width="1.4" stroke-miterlimit="10" stroke-linecap="round" stroke-linejoin="round"/>
<path d="M55.8633 128.448L62.4813 126.968L61.3338 111.095L54.6768 112.575L55.8633 128.448Z" fill="white" stroke="black" stroke-width="1.4" stroke-miterlimit="10" stroke-linecap="round" stroke-linejoin="round"/>
<path d="M62.1619 125.587C62.1619 125.587 64.4292 125.414 70.6739 125.241C76.9243 125.067 81.3085 122.637 82.3502 116.313C83.3919 109.982 81.158 107.507 75.4202 109.055C73.2922 109.63 70.4957 111.631 70.4957 111.631C70.4957 111.631 74.4063 108.586 72.7574 106.463C70.4901 103.546 64.6186 111.72 61.3096 113.821L62.1619 125.587Z" fill="white" stroke="black" stroke-width="1.4" stroke-miterlimit="10" stroke-linecap="round" stroke-linejoin="round"/>
<path d="M71.041 115.95C71.041 115.95 78.5503 112.927 81.6309 109.972" stroke="black" stroke-width="1.4" stroke-miterlimit="10" stroke-linecap="round" stroke-linejoin="round"/>
<path d="M82.5945 113.955C82.5945 113.955 80.071 117.402 71.6592 119.05" stroke="black" stroke-width="1.4" stroke-miterlimit="10" stroke-linecap="round" stroke-linejoin="round"/>
<path d="M81.7924 118.536C81.7924 118.536 77.3748 121.922 71.5479 121.877" stroke="black" stroke-width="1.4" stroke-miterlimit="10" stroke-linecap="round" stroke-linejoin="round"/>
<path d="M18.7344 52.168C18.7344 52.168 20.3722 63.8561 24.3998 68.6833C28.433 73.5161 18.6787 72.8904 18.8848 75.885C19.1856 80.3044 35.3295 90.3164 48.7494 90.8304C75.6671 91.8584 84.1792 77.6617 84.1792 77.6617C84.4633 74.1027 79.9287 72.2423 79.9287 72.2423C79.9287 72.2423 81.5442 67.7838 79.9287 65.1579L18.7344 52.168Z" fill="white" stroke="black" stroke-width="1.4" stroke-miterlimit="10" stroke-linecap="round" stroke-linejoin="round"/>
<path d="M90.2986 36.9379C91.0228 57.4926 74.9847 74.7455 54.4956 75.4662C34.0009 76.1869 16.8041 60.1074 16.0799 39.547C15.3613 18.9978 31.3882 1.74502 51.8829 1.02429C72.3832 0.303559 89.58 16.3831 90.2986 36.9379Z" fill="white" stroke="black" stroke-width="1.4" stroke-miterlimit="10" stroke-linecap="round" stroke-linejoin="round"/>
<path d="M51.5056 15.7293C31.9746 30.6579 34.3812 50.7546 34.3812 50.7546C34.3812 50.7546 57.0039 79.7514 86.1276 55.4644C86.1276 55.4644 93.5924 43.6255 90.2332 29.4008C86.8796 15.1762 75.4987 7.52194 75.4987 7.52194C75.4987 7.52194 64.218 6.00784 51.5056 15.7293Z" fill="#101210"/>
<path d="M80.5911 63.3759C51.1442 82.7853 29.2012 50.9391 29.2012 50.9391C29.2012 50.9391 31.5576 10.3157 67.9567 4.06934" stroke="black" stroke-width="1.4" stroke-miterlimit="10" stroke-linecap="round" stroke-linejoin="round"/>
<path d="M44.5492 30.3856C40.399 35.8106 39.1456 46.1187 41.9644 47.5937C44.7776 49.0687 45.4684 37.3973 49.847 33.4026C54.4317 29.2123 48.7384 24.9102 44.5492 30.3856Z" fill="white"/>
<path d="M50.6974 20.5186C49.2657 21.217 48.653 22.9993 49.3493 24.4351L49.483 24.7145C50.1793 26.1504 51.9564 26.7649 53.3881 26.0665C54.8198 25.3682 55.4325 23.5859 54.7306 22.15L54.5969 21.8707C53.9062 20.4348 52.1235 19.8146 50.6974 20.5186Z" fill="white"/>
<path d="M81.1535 51.2244C80.719 50.4366 79.733 50.1349 78.9976 50.7383C76.9754 52.3865 68.9648 56.0069 71.1652 59.6552C72.8475 62.4432 75.8892 60.9738 78.1676 58.6328C80.7747 56.8561 82.7077 54.0514 81.1535 51.2244Z" fill="white"/>
<path d="M22.9869 49.9335C18.8812 48.0954 14.1071 42.3798 12.8537 35.3234C11.9513 30.2336 14.6531 25.5069 17.9119 26.5685C17.9119 26.5685 13.94 39.6254 26.3237 45.3186L22.9869 49.9335Z" fill="white" stroke="black" stroke-width="1.4" stroke-miterlimit="10" stroke-linecap="round" stroke-linejoin="round"/>
<path d="M35.4182 49.8996C35.992 53.3469 33.669 56.5985 30.2374 57.174C26.8003 57.7495 23.5526 55.4197 22.9844 51.978C22.4106 48.5364 24.7391 45.2792 28.1651 44.7037C31.5967 44.1282 34.8444 46.4524 35.4182 49.8996Z" fill="white" stroke="black" stroke-width="1.4" stroke-miterlimit="10" stroke-linecap="round" stroke-linejoin="round"/>
<path d="M31.8445 50.497C32.0896 51.9608 31.1036 53.3464 29.6441 53.5923C28.1845 53.8381 26.803 52.8436 26.5579 51.3798C26.3128 49.916 27.2988 48.5248 28.7583 48.2846C30.2234 48.0387 31.5994 49.0276 31.8445 50.497Z" fill="white" stroke="black" stroke-width="1.4" stroke-miterlimit="10" stroke-linecap="round" stroke-linejoin="round"/>
<path d="M25.0361 69.6445C25.0361 69.6445 36.4004 84.4111 55.586 83.8412" stroke="black" stroke-width="1.4" stroke-miterlimit="10" stroke-linecap="round" stroke-linejoin="round"/>
<path d="M79.9371 72.2422C79.9371 72.2422 73.2689 79.5221 66.7734 81.5782" stroke="black" stroke-width="1.4" stroke-miterlimit="10" stroke-linecap="round" stroke-linejoin="round"/>
<path d="M144.118 46.9822L166.965 44.4932L169.449 44.991L168.455 47.9778L163.985 56.9384L147.098 93.2784L139.151 108.71L132.198 98.7543L125.244 91.2871H122.761L111.337 98.7543L106.371 101.243L105.377 87.8025L104.384 80.3354L102.397 77.8463L90.9736 67.3923L88.4902 63.9077L102.894 60.9208L144.118 46.9822Z" fill="white"/>
<path d="M160.733 43.1459C160.39 43.195 158.748 43.4651 157.058 43.7351C150.028 44.8645 140.279 47.6143 123.621 53.163C108.679 58.1224 103.412 59.7674 97.9497 61.1668C93.7609 62.2225 92.5361 62.4435 90.013 62.5417L87 62.689V63.4747C87 63.9657 87.2695 64.6286 87.7104 65.2178C88.8862 66.8382 92.8055 70.4719 96.7983 73.6881C98.8805 75.3576 101.453 77.5427 102.506 78.5494C104.343 80.3171 104.392 80.3907 104.392 81.5447C104.392 82.183 104.515 83.8034 104.637 85.1292C104.784 86.455 105.151 90.7761 105.47 94.7289C105.813 98.9763 106.156 102.045 106.327 102.217C106.646 102.536 108.532 101.677 112.231 99.4919C114.509 98.1661 120.412 94.287 122.446 92.7648L123.474 92.0037L124.65 92.9612C125.287 93.4768 127.369 95.4654 129.255 97.3559C132.734 100.818 135.992 104.918 137.951 108.208C138.515 109.19 139.078 110 139.225 110C139.568 110 148.362 92.0773 153.237 81.3973C161.737 62.8609 168.375 48.2526 168.473 47.8844C168.767 46.9269 164.309 55.9619 159.459 66.1753C152.869 80.0225 139.495 107.054 139.25 107.054C139.127 107.054 138.784 106.538 138.441 105.9C134.938 99.2218 127.198 90.7024 119.726 85.3011L119.016 84.7855L122.299 82.7231C130.064 77.8619 139.617 70.7419 153.629 59.4236C156.397 57.1894 160.414 53.9486 162.57 52.2055C164.725 50.4623 166.955 48.5964 167.542 48.0317C168.106 47.4915 168.571 47.1478 168.571 47.246C168.571 47.688 169.821 45.5765 169.968 44.9382C170.114 44.1034 169.845 43.907 167.42 43.3669C165.803 42.9986 162.276 42.8758 160.733 43.1459ZM160.733 47.3688C149.464 51.9108 133.567 60.1356 122.519 67.1083C118.085 69.9317 107.748 76.9044 105.886 78.3529C105.029 79.0404 104.613 78.9422 103.535 77.8128C102.996 77.2481 100.693 75.1858 98.3906 73.2217C93.5159 69.0233 89.6456 65.3406 89.8415 65.0214C89.915 64.9232 90.3559 64.825 90.8459 64.825C93.2954 64.825 100.963 62.7136 119.457 56.8703C136.751 51.4444 141.724 49.9467 147.872 48.3754C154.486 46.7059 160.806 45.6256 164.774 45.4783C165.191 45.4538 163.501 46.264 160.733 47.3688ZM166.489 46.6322C165.999 47.0742 148.46 61.1668 145.178 63.7693C135.551 71.3312 121.417 81.3973 118.477 82.7722C115.072 84.3681 112.476 87.7071 108.532 95.49C106.964 98.608 106.866 98.7308 106.744 97.9451C106.621 97.2086 106.45 94.8762 105.592 84.098C105.494 82.6004 105.323 81.1764 105.249 80.9063C105.102 80.3416 105.715 79.8997 116.273 72.8043C124.209 67.4766 129.133 64.5058 137.461 60.0374C148.656 54.0468 157.352 49.8485 163.795 47.3688C166.318 46.4113 166.881 46.2394 166.489 46.6322ZM118.183 87.4616C119.163 88.3209 120.437 89.4257 121.049 89.9168C122.348 90.9725 122.568 90.6533 118.722 93.2312C113.554 96.693 107.944 100.179 107.87 99.9584C107.748 99.6147 111.324 92.5438 112.5 90.7761C113.578 89.2048 116.126 85.9394 116.322 85.9394C116.371 85.9394 117.203 86.6268 118.183 87.4616Z" fill="black"/>
</svg>
