<svg width="169" height="279" viewBox="0 0 169 279" fill="none" xmlns="http://www.w3.org/2000/svg">
<path d="M105.505 173.345C105.505 173.345 64.1377 159.312 62.0873 158.906C61.104 158.709 14.5142 170.502 11.995 171.122C9.47421 171.74 45.6278 173.817 48.8381 175.359C51.1884 176.482 70.8095 194.318 70.8095 194.318L105.505 173.345Z" fill="white" stroke="black" stroke-width="1.7" stroke-miterlimit="10" stroke-linecap="round" stroke-linejoin="round"/>
<path d="M120.243 205.249C120.243 205.249 104.123 245.863 103.104 247.689C102.617 248.565 63.4497 276.427 61.346 277.943C59.2408 279.462 81.0843 250.569 81.993 247.124C82.6597 244.604 81.7951 218.097 81.7951 218.097L120.243 205.249Z" fill="white" stroke="black" stroke-width="1.7" stroke-miterlimit="10" stroke-linecap="round" stroke-linejoin="round"/>
<path d="M45.2948 205.888L39.2578 213.907L46.4365 229.441L56.4525 230.04L45.2948 205.888Z" fill="white" stroke="black" stroke-width="1.7" stroke-miterlimit="10" stroke-linecap="round" stroke-linejoin="round"/>
<path d="M29.0556 219.679L35.4183 233.453C19.1369 249.831 1 241.994 1 241.994C6.76455 219.909 29.0556 219.679 29.0556 219.679Z" fill="white" stroke="black" stroke-width="1.7" stroke-miterlimit="10" stroke-linecap="round" stroke-linejoin="round"/>
<path d="M34.4169 231.286L30.0497 221.834C24.55 223.552 15.808 227.606 11.5977 236.662C11.5992 236.662 22.183 239.118 34.4169 231.286Z" fill="white" stroke="black" stroke-width="1.7" stroke-miterlimit="10" stroke-linecap="round" stroke-linejoin="round"/>
<path d="M21.9365 231.652C21.9365 231.652 26.8928 232.345 33.5661 229.444L30.9205 223.718C27.7026 225.323 24.1544 227.834 21.9365 231.652Z" fill="white" stroke="black" stroke-width="1.7" stroke-miterlimit="10" stroke-linecap="round" stroke-linejoin="round"/>
<path d="M36.1923 235.132L28.2891 218.026L32.1874 216.764L39.6796 232.982L36.1923 235.132Z" fill="white" stroke="black" stroke-width="1.7" stroke-miterlimit="10" stroke-linecap="round" stroke-linejoin="round"/>
<path d="M40.1149 233.923L45.6328 231.372C46.4046 231.014 46.741 230.099 46.3848 229.328L39.3127 214.021C38.9565 213.249 38.0417 212.912 37.2699 213.27L31.752 215.821L40.1149 233.923Z" fill="white" stroke="black" stroke-width="1.7" stroke-miterlimit="10" stroke-linecap="round" stroke-linejoin="round"/>
<path d="M82.2545 219.671L69.908 192.945C49.8866 207.932 49.8744 198.053 52.9355 194.153C52.4195 194.599 51.6691 195.114 50.7451 195.674C48.1741 197.424 45.0171 199.433 41.7657 201.169C36.7805 203.831 33.6387 203.774 33.6387 203.774C33.6387 203.774 39.7503 205.711 45.2378 217.594C45.699 218.594 46.1009 219.414 46.4525 220.084C46.7143 220.74 47.0599 221.537 47.5059 222.502C52.4591 233.223 50.5091 240.287 50.5061 240.29C53.3891 238.324 52.5002 237.86 57.7578 235.786C61.1873 234.434 64.7615 233.328 67.7602 232.503C68.7861 232.163 69.6629 231.925 70.3357 231.82C65.384 231.625 57.8735 225.214 82.2545 219.671Z" fill="white" stroke="black" stroke-width="1.7" stroke-miterlimit="10" stroke-linecap="round" stroke-linejoin="round"/>
<path d="M59.4362 211.119L60.7925 214.09C60.7955 214.087 60.7985 214.084 60.8001 214.082C67.1004 225.309 81.1244 224.864 81.2066 224.861C88.6105 223.822 133.922 233.619 168.001 162.747C99.7789 144.557 70.058 183.67 64.4716 188.637C64.3955 188.721 55.0218 199.079 59.4362 211.119Z" fill="white" stroke="black" stroke-width="1.7" stroke-miterlimit="10" stroke-linecap="round" stroke-linejoin="round"/>
<path d="M140.612 176.471C136.341 167.229 125.397 163.198 116.157 167.47C106.919 171.743 102.891 182.697 107.161 191.937C111.429 201.178 122.378 205.207 131.618 200.936C140.856 196.666 144.882 185.712 140.612 176.471ZM111.027 190.151C107.744 183.045 110.84 174.623 117.942 171.338C125.043 168.053 133.464 171.152 136.748 178.258C140.029 185.362 136.933 193.786 129.831 197.069C122.728 200.354 114.309 197.255 111.027 190.151Z" fill="white" stroke="black" stroke-width="1.7" stroke-miterlimit="10" stroke-linecap="round" stroke-linejoin="round"/>
<path d="M129.833 197.07C122.729 200.354 114.31 197.255 111.028 190.15C107.744 183.044 110.841 174.621 117.943 171.337C125.044 168.052 133.465 171.151 136.748 178.257C140.032 185.362 136.936 193.786 129.833 197.07Z" fill="white" stroke="black" stroke-width="1.7" stroke-miterlimit="10" stroke-linecap="round" stroke-linejoin="round"/>
<path d="M77.3817 231.182C78.9785 234.636 73.3525 239.947 67.3094 244.405C61.2373 248.882 53.29 249.349 53.29 249.349L50.6733 243.686L50.5561 243.432L47.9395 237.768C47.9395 237.768 53.1758 232.117 60.3621 230.393C67.7934 228.608 75.7545 227.66 77.3817 231.182Z" fill="white" stroke="black" stroke-width="1.7" stroke-miterlimit="10" stroke-linecap="round" stroke-linejoin="round"/>
<path d="M44.4353 251.179L40.6999 243.095C26.7566 244.347 23.0957 255.563 23.0957 255.563C35.4468 261.249 44.4353 251.179 44.4353 251.179Z" fill="white" stroke="black" stroke-width="1.7" stroke-miterlimit="10" stroke-linecap="round" stroke-linejoin="round"/>
<path d="M41.2863 244.365L43.8497 249.913C40.8768 251.772 35.5476 254.23 29.748 252.739C29.7465 252.739 32.8457 246.99 41.2863 244.365Z" fill="white" stroke="black" stroke-width="1.7" stroke-miterlimit="10" stroke-linecap="round" stroke-linejoin="round"/>
<path d="M48.1713 238.239L43.3174 240.483L48.2265 251.108L53.0804 248.863L48.1713 238.239Z" fill="white" stroke="black" stroke-width="1.7" stroke-miterlimit="10" stroke-linecap="round" stroke-linejoin="round"/>
<path d="M40.3037 242.236L44.9418 252.276L47.9619 250.563L43.5642 241.044L40.3037 242.236Z" fill="white" stroke="black" stroke-width="1.7" stroke-miterlimit="10" stroke-linecap="round" stroke-linejoin="round"/>
<path d="M58.0067 189.246C59.6035 192.702 53.9775 198.013 47.9344 202.469C41.8623 206.948 33.9165 207.417 33.9165 207.417L31.2998 201.753L31.1811 201.498L28.5645 195.833C28.5645 195.833 33.8008 190.181 40.9871 188.458C48.4184 186.673 56.3795 185.724 58.0067 189.246Z" fill="white" stroke="black" stroke-width="1.7" stroke-miterlimit="10" stroke-linecap="round" stroke-linejoin="round"/>
<path d="M25.0569 209.241L21.3214 201.156C7.3781 202.41 3.71875 213.624 3.71875 213.624C16.0698 219.312 25.0569 209.241 25.0569 209.241Z" fill="white" stroke="black" stroke-width="1.7" stroke-miterlimit="10" stroke-linecap="round" stroke-linejoin="round"/>
<path d="M21.9089 202.428L24.4707 207.975C21.4979 209.835 16.1687 212.291 10.3691 210.8C10.3707 210.8 13.4683 205.055 21.9089 202.428Z" fill="white" stroke="black" stroke-width="1.7" stroke-miterlimit="10" stroke-linecap="round" stroke-linejoin="round"/>
<path d="M28.7812 196.305L23.9287 198.549L28.8367 209.173L33.6892 206.929L28.7812 196.305Z" fill="white" stroke="black" stroke-width="1.7" stroke-miterlimit="10" stroke-linecap="round" stroke-linejoin="round"/>
<path d="M20.9268 200.3L25.5649 210.34L28.5849 208.627L24.1873 199.107L20.9268 200.3Z" fill="white" stroke="black" stroke-width="1.7" stroke-miterlimit="10" stroke-linecap="round" stroke-linejoin="round"/>
<path d="M163.384 165.73C162.593 166.827 161.975 168.039 161.308 169.215C160.645 170.384 159.991 171.561 159.334 172.734C158.037 175.05 156.71 177.351 155.312 179.61C153.88 181.927 152.371 184.199 150.761 186.397C149.126 188.626 147.36 190.739 145.538 192.816C142.159 196.667 138.462 200.236 134.501 203.488C130.572 206.713 126.383 209.622 121.993 212.183C119.799 213.462 117.554 214.655 115.263 215.754C114.141 216.293 113.015 216.826 111.878 217.335C110.752 217.841 109.598 218.293 108.494 218.846C107.949 219.118 107.401 219.389 106.856 219.662C106.631 219.774 106.792 220.111 107.022 220.056C107.637 219.91 108.246 219.75 108.853 219.581C109.464 219.411 110.053 219.184 110.645 218.958C111.82 218.512 112.975 218.008 114.123 217.499C116.451 216.465 118.716 215.27 120.934 214.018C125.415 211.486 129.686 208.588 133.709 205.378C137.737 202.164 141.511 198.63 144.969 194.811C146.818 192.768 148.609 190.672 150.281 188.483C151.948 186.306 153.504 184.044 154.974 181.731C157.865 177.185 160.445 172.452 162.957 167.689C163.267 167.101 163.55 166.521 163.797 165.904C163.904 165.65 163.525 165.537 163.384 165.73Z" fill="black"/>
<path d="M31.3307 168.88C31.5559 168.906 31.7675 168.943 31.9928 168.931C32.2288 168.917 32.4662 168.906 32.7022 168.896C33.1451 168.876 33.5881 168.803 34.028 168.751C34.9306 168.646 35.8318 168.533 36.7329 168.41C38.5367 168.162 40.3405 167.906 42.1382 167.621C43.9344 167.336 45.7276 167.02 47.5101 166.653C49.2895 166.286 51.0461 165.842 52.8027 165.379C55.4985 164.67 58.2126 163.826 61.0317 163.957C62.5935 164.03 64.1355 164.373 65.6257 164.837C67.2225 165.335 68.8147 165.838 70.4221 166.305C73.6294 167.239 76.8443 168.162 79.8673 169.601C80.2433 169.779 80.6421 169.91 81.0288 170.065C81.1993 170.134 81.4002 170.004 81.4656 169.851C81.5417 169.671 81.4656 169.497 81.3149 169.389C80.9694 169.142 80.6239 168.888 80.2433 168.701C79.8628 168.513 79.4777 168.335 79.088 168.165C78.3101 167.824 77.5216 167.51 76.7225 167.221C75.1287 166.642 73.5046 166.162 71.8712 165.708C70.2592 165.259 68.6412 164.83 67.0429 164.335C65.4369 163.838 63.8478 163.369 62.1718 163.174C60.8125 163.016 59.4517 163.063 58.1015 163.27C56.7132 163.482 55.3554 163.852 54.0037 164.224C52.2897 164.694 50.5803 165.171 48.8481 165.568C47.0595 165.978 45.2587 166.328 43.4519 166.64C41.642 166.954 39.8275 167.23 38.01 167.493C37.1089 167.623 36.2078 167.741 35.3082 167.875C34.4024 168.009 33.4693 168.118 32.5789 168.326C32.3794 168.373 32.1785 168.419 31.9791 168.466C31.7401 168.523 31.5362 168.614 31.3093 168.71C31.218 168.749 31.2317 168.87 31.3307 168.88Z" fill="black"/>
<path d="M107.095 225.302C106.781 225.349 106.471 225.392 106.154 225.41C105.819 225.43 105.475 225.431 105.145 225.485C104.505 225.587 103.868 225.695 103.23 225.797C101.95 225.999 100.668 226.19 99.3847 226.371C96.8563 226.727 94.3204 227.002 91.7783 227.233C90.3277 227.365 88.874 227.468 87.4187 227.538C87.2132 227.547 86.9712 227.687 86.9316 227.909C86.6165 229.685 86.4369 231.477 86.4095 233.28C86.3852 234.951 86.4795 236.62 86.5937 238.286C86.6531 239.145 86.7155 240.004 86.7718 240.862C86.8281 241.747 86.8616 242.632 86.9362 243.514C86.991 244.164 87.0169 244.822 86.9514 245.472C86.9484 245.506 86.9255 245.691 86.9347 245.627C86.9453 245.551 86.9316 245.647 86.9286 245.665C86.9225 245.702 86.9164 245.739 86.9103 245.775C86.8875 245.905 86.8616 246.034 86.8312 246.16C86.7688 246.418 86.685 246.666 86.5907 246.914C86.5785 246.945 86.5389 247.037 86.5891 246.92C86.577 246.946 86.5663 246.974 86.5541 246.999C86.5298 247.053 86.5054 247.106 86.4811 247.158C86.4171 247.292 86.3486 247.424 86.2756 247.555C86.1355 247.808 85.9818 248.055 85.822 248.295C85.4262 248.892 84.9908 249.465 84.5585 250.036C84.4961 250.12 84.4322 250.202 84.3698 250.284C84.3409 250.322 84.3119 250.36 84.283 250.398C84.3683 250.287 84.3089 250.365 84.2876 250.392C84.2084 250.494 84.1278 250.596 84.0471 250.697C83.8842 250.901 83.7183 251.103 83.5508 251.303C83.1688 251.76 82.7806 252.209 82.3864 252.655C80.5536 254.731 78.6311 256.724 76.7497 258.756C75.8166 259.764 74.8667 260.761 73.958 261.791C73.547 262.255 73.139 262.721 72.7341 263.19C72.5241 263.434 72.3292 263.684 72.1435 263.946C72.072 264.046 71.9989 264.148 71.9274 264.25C71.8908 264.302 71.8543 264.355 71.8162 264.407C71.7995 264.43 71.7843 264.453 71.7675 264.476C71.7645 264.48 71.6945 264.593 71.7432 264.523C71.5971 264.736 71.4281 265.037 71.3961 265.296C71.422 265.232 71.4494 265.168 71.4753 265.104C71.4677 265.114 71.4585 265.124 71.4509 265.133C71.2287 265.4 71.6108 265.785 71.8345 265.517C71.8132 265.528 71.7919 265.538 71.7706 265.548C71.8025 265.54 71.8299 265.526 71.8558 265.508C71.8817 265.493 71.9076 265.473 71.9319 265.456C71.973 265.429 72.0157 265.4 72.0568 265.372C72.1055 265.341 72.1527 265.309 72.2014 265.277C72.2486 265.243 72.2927 265.214 72.3384 265.176C72.4175 265.111 72.282 265.228 72.3871 265.129C72.591 264.935 72.8011 264.747 73.0081 264.556C73.4404 264.157 73.8316 263.714 74.2365 263.286C75.1651 262.306 76.086 261.319 77.01 260.335C78.9416 258.279 80.8566 256.207 82.7091 254.079C83.4702 253.205 84.2191 252.32 84.933 251.408C85.7641 250.345 86.6379 249.256 87.2772 248.061C87.8419 247.007 88.0961 245.874 88.0931 244.682C88.0915 243.913 87.9926 243.147 87.95 242.379C87.9013 241.49 87.8373 240.602 87.7704 239.714C87.5131 236.305 87.268 232.901 87.7019 229.494C87.7582 229.054 87.8282 228.614 87.9058 228.177C87.743 228.3 87.5816 228.425 87.4187 228.549C90.0171 228.43 92.6064 228.208 95.1865 227.871C97.7818 227.531 100.368 227.12 102.942 226.639C103.653 226.507 104.362 226.37 105.072 226.229C105.426 226.159 105.769 226.056 106.113 225.94C106.469 225.821 106.827 225.733 107.192 225.648C107.419 225.594 107.315 225.27 107.095 225.302Z" fill="black"/>
<path d="M119.547 174.19C121.413 174.772 123.273 175.384 125.122 176.018C126.999 176.66 128.849 177.387 130.657 178.203C131.156 178.428 131.663 178.641 132.167 178.859C132.651 179.068 133.161 179.267 133.662 179.429C133.826 179.482 133.892 179.26 133.772 179.17C133.001 178.597 132.12 178.134 131.249 177.731C130.342 177.31 129.412 176.931 128.482 176.564C126.636 175.835 124.753 175.153 122.829 174.661C121.76 174.388 120.688 174.169 119.598 173.998C119.477 173.981 119.423 174.152 119.547 174.19Z" fill="black"/>
<path d="M116.005 176.881C117.343 177.289 118.678 177.706 120.011 178.133C121.336 178.556 122.675 178.937 124.006 179.343C126.605 180.138 129.195 180.965 131.789 181.777C133.25 182.234 134.716 182.662 136.215 182.969C136.393 183.006 136.538 182.738 136.348 182.654C133.857 181.554 131.233 180.787 128.636 179.984C126.007 179.171 123.374 178.376 120.731 177.612C119.212 177.172 117.664 176.811 116.128 176.43C115.836 176.357 115.717 176.794 116.005 176.881Z" fill="black"/>
<path d="M112.925 179.122C113.115 179.169 113.305 179.216 113.496 179.265C113.707 179.318 113.896 179.417 114.097 179.498C114.468 179.647 114.853 179.771 115.234 179.891C115.998 180.133 116.756 180.403 117.523 180.634C119.081 181.106 120.629 181.601 122.177 182.101C125.291 183.109 128.378 184.198 131.454 185.314C132.319 185.628 133.181 185.949 134.057 186.228C134.49 186.365 134.922 186.497 135.357 186.622C135.803 186.751 136.249 186.914 136.712 186.963C136.864 186.98 136.887 186.77 136.784 186.7C136.444 186.468 136.052 186.322 135.677 186.154C135.296 185.984 134.914 185.815 134.529 185.653C133.77 185.335 133.006 185.044 132.232 184.763C130.683 184.201 129.132 183.645 127.576 183.101C124.503 182.029 121.413 181.012 118.281 180.118C117.414 179.87 116.535 179.669 115.657 179.469C115.223 179.37 114.791 179.283 114.351 179.21C114.126 179.174 113.896 179.171 113.674 179.13C113.438 179.085 113.205 179.015 112.972 178.957C112.864 178.929 112.818 179.095 112.925 179.122Z" fill="black"/>
<path d="M113.153 182.773C114.149 183.49 115.33 183.911 116.481 184.308C117.696 184.728 118.927 185.095 120.162 185.449C122.666 186.167 125.191 186.828 127.643 187.716C128.328 187.964 128.999 188.24 129.672 188.519C130.324 188.788 130.96 189.125 131.636 189.326C131.811 189.378 131.971 189.132 131.822 189.006C131.575 188.799 131.33 188.64 131.045 188.491C130.765 188.344 130.482 188.202 130.197 188.065C129.613 187.785 129.007 187.549 128.401 187.32C127.177 186.86 125.929 186.463 124.676 186.091C122.175 185.351 119.641 184.722 117.161 183.906C115.851 183.475 114.577 182.922 113.249 182.546C113.106 182.508 113.044 182.695 113.153 182.773Z" fill="black"/>
<path d="M65.1163 58.7461C65.1163 58.7461 47.9471 63.4751 50.8626 83.4013C53.7782 103.326 52.5955 113.226 74.4013 113.167C87.4584 113.131 96.4448 85.2862 89.6019 69.6408C85.0164 59.1588 65.1163 58.7461 65.1163 58.7461Z" fill="white" stroke="black" stroke-width="1.7" stroke-miterlimit="10" stroke-linecap="round" stroke-linejoin="round"/>
<path d="M124.252 73.277C113.295 63.2038 112.079 54.365 105.554 56.0022C97.32 58.068 96.4948 66.7299 100.921 71.9346C105.348 77.1392 114.379 85.1289 115.715 85.9073C122.21 89.6909 132.719 94.8935 135.949 93.5845L141.519 82.7212C138.92 80.3547 125.902 74.7944 124.252 73.277Z" fill="white" stroke="black" stroke-width="1.7" stroke-miterlimit="10" stroke-linecap="round" stroke-linejoin="round"/>
<path d="M135.951 93.5821L140.884 95.2684L146.478 84.4189L141.521 82.7188L135.951 93.5821Z" fill="white" stroke="black" stroke-width="1.7" stroke-miterlimit="10" stroke-linecap="round" stroke-linejoin="round"/>
<path d="M141.228 94.2385C141.228 94.2385 142.784 95.0365 146.955 97.4265C151.127 99.8185 154.974 99.9895 158.19 96.2629C161.405 92.5383 160.929 90.0185 156.544 88.7292C154.923 88.2535 152.287 88.4383 152.287 88.4383C152.287 88.4383 156.071 88.0137 155.837 85.9637C155.515 83.1432 148.391 86.1406 145.377 86.1839L141.228 94.2385Z" fill="white" stroke="black" stroke-width="1.7" stroke-miterlimit="10" stroke-linecap="round" stroke-linejoin="round"/>
<path d="M150.91 91.4912C150.91 91.4912 157.052 92.5273 160.254 91.8274" stroke="black" stroke-width="1.7" stroke-miterlimit="10" stroke-linecap="round" stroke-linejoin="round"/>
<path d="M159.291 94.8204C159.291 94.8204 156.256 96.0669 150.077 93.7686" stroke="black" stroke-width="1.7" stroke-miterlimit="10" stroke-linecap="round" stroke-linejoin="round"/>
<path d="M156.935 97.4999C156.935 97.4999 152.68 97.9423 148.876 95.5791" stroke="black" stroke-width="1.7" stroke-miterlimit="10" stroke-linecap="round" stroke-linejoin="round"/>
<path d="M117.103 95.2688C117.144 79.4289 116.543 55.096 106.282 52.0279C100.415 50.2727 72.8373 53.7339 72.8373 53.7339C72.8373 53.7339 71.1733 55.324 67.3756 58.174C56.9137 66.0202 68.0711 98.5807 72.9533 116.504C78.0299 136.853 78.2677 162.306 78.2677 162.306L88.0163 163.918C88.0163 163.918 90.3543 159.922 92.3543 150.543C94.5017 140.469 99.3308 115.244 99.3308 115.244C99.3308 115.244 109.535 118.063 111.193 119.505C112.852 120.95 116.064 136.733 118.899 150.509L130.42 149.092C130.42 149.092 129.439 115.887 127.862 111.714C126.288 107.543 117.093 99.4141 117.103 95.2688Z" fill="white" stroke="black" stroke-width="1.7" stroke-miterlimit="10" stroke-linecap="round" stroke-linejoin="round"/>
<path d="M130.873 149.051L130.203 132.479C130.203 132.479 129.058 134.296 123.154 135.021C119.541 135.465 114.716 134.398 114.716 134.398C114.716 134.398 117.154 147.348 117.244 148.974C117.612 155.58 117.233 154.882 118.095 161.903L145.445 158.542C147.31 151.441 141.858 145.069 130.873 149.051Z" fill="white" stroke="black" stroke-width="1.7" stroke-miterlimit="10" stroke-linecap="round" stroke-linejoin="round"/>
<path d="M145.704 160.359C145.081 160.436 145.15 160.998 144.525 161.073C143.903 161.151 143.834 160.587 143.209 160.666C142.586 160.742 142.655 161.303 142.032 161.381C141.411 161.458 141.341 160.896 140.72 160.972C140.097 161.049 140.166 161.611 139.545 161.686C138.922 161.763 138.853 161.202 138.231 161.277C137.608 161.354 137.677 161.916 137.054 161.993C136.431 162.069 136.362 161.507 135.739 161.584C135.117 161.66 135.185 162.222 134.565 162.299C133.942 162.376 133.873 161.812 133.25 161.89C132.627 161.967 132.696 162.529 132.075 162.606C131.452 162.682 131.386 162.12 130.765 162.197C130.142 162.274 130.211 162.834 129.588 162.91C128.965 162.987 128.896 162.425 128.274 162.502C127.651 162.578 127.72 163.138 127.099 163.215C126.476 163.292 126.407 162.73 125.786 162.806C125.164 162.883 125.232 163.445 124.61 163.52C123.989 163.596 123.918 163.036 123.297 163.111C122.674 163.188 122.743 163.75 122.122 163.826C121.499 163.903 121.431 163.341 120.81 163.417C120.187 163.494 120.256 164.056 119.633 164.131C119.012 164.208 118.941 163.647 118.321 163.722L118.097 161.896L145.48 158.531L145.704 160.359Z" fill="white" stroke="black" stroke-width="1.7" stroke-miterlimit="10" stroke-linecap="round" stroke-linejoin="round"/>
<path d="M90.0804 166.969L92.3574 150.542C92.3574 150.542 90.9095 152.126 84.9703 151.794C81.3337 151.591 76.7757 149.685 76.7757 149.685C76.7757 149.685 76.8818 162.865 76.6833 164.477C75.8759 171.048 75.6244 170.291 75.2314 177.355L102.745 178.894C105.835 172.237 101.595 165 90.0804 166.969Z" fill="white" stroke="black" stroke-width="1.7" stroke-miterlimit="10" stroke-linecap="round" stroke-linejoin="round"/>
<path d="M102.673 180.731C102.046 180.696 102.014 181.26 101.388 181.226C100.761 181.191 100.792 180.627 100.164 180.592C99.537 180.558 99.5075 181.12 98.8788 181.087C98.2521 181.052 98.2855 180.487 97.6568 180.452C97.0301 180.417 96.9986 180.981 96.3738 180.947C95.7471 180.912 95.7786 180.346 95.1538 180.313C94.5271 180.277 94.4956 180.841 93.8689 180.808C93.2422 180.772 93.2736 180.208 92.6469 180.173C92.0221 180.138 91.9907 180.704 91.364 180.67C90.7392 180.635 90.7706 180.069 90.1439 180.033C89.5172 179.998 89.4857 180.564 88.861 180.531C88.2342 180.495 88.2657 179.931 87.6409 179.896C87.0161 179.86 86.9847 180.425 86.358 180.389C85.7313 180.354 85.7647 179.792 85.136 179.756C84.5112 179.721 84.4798 180.285 83.853 180.252C83.2263 180.216 83.2577 179.652 82.631 179.617C82.0043 179.583 81.9748 180.145 81.3481 180.112C80.7214 180.077 80.7528 179.513 80.128 179.477C79.5033 179.442 79.4718 180.006 78.8451 179.972C78.2184 179.937 78.2518 179.373 77.6251 179.336C77.0003 179.3 76.9689 179.866 76.3402 179.831C75.7154 179.798 75.7468 179.233 75.1221 179.196L75.2242 177.36L102.769 178.901L102.673 180.731Z" fill="white" stroke="black" stroke-width="1.7" stroke-miterlimit="10" stroke-linecap="round" stroke-linejoin="round"/>
<path d="M69.8872 88.7091C71.3155 73.8893 72.3941 63.3699 72.3941 63.3699C65.783 58.0415 58.3762 62.6054 56.8968 69.2763C55.4115 75.9472 54.4862 87.974 54.6708 89.5091C55.5687 96.9741 57.7554 108.498 60.7456 110.286L72.7693 108.185C73.0856 104.685 69.671 90.94 69.8872 88.7091Z" fill="white" stroke="black" stroke-width="1.7" stroke-miterlimit="10" stroke-linecap="round" stroke-linejoin="round"/>
<path d="M60.7432 110.286L62.3738 115.243L74.3976 113.165L72.7669 108.185L60.7432 110.286Z" fill="white" stroke="black" stroke-width="1.7" stroke-miterlimit="10" stroke-linecap="round" stroke-linejoin="round"/>
<path d="M63.4004 114.894C63.4004 114.894 63.7029 116.618 64.31 121.388C64.9171 126.161 67.1018 129.335 72.0095 129.655C76.9192 129.974 78.6423 128.075 77.0273 123.798C76.4281 122.218 74.6933 120.225 74.6933 120.225C74.6933 120.225 77.3122 122.988 78.8073 121.567C80.8623 119.61 74.1785 115.73 72.3259 113.352L63.4004 114.894Z" fill="white" stroke="black" stroke-width="1.7" stroke-miterlimit="10" stroke-linecap="round" stroke-linejoin="round"/>
<path d="M71.4316 120.969C71.4316 120.969 74.3079 126.496 76.7952 128.63" stroke="black" stroke-width="1.7" stroke-miterlimit="10" stroke-linecap="round" stroke-linejoin="round"/>
<path d="M73.8285 129.664C73.8285 129.664 71.0053 127.993 69.1133 121.676" stroke="black" stroke-width="1.7" stroke-miterlimit="10" stroke-linecap="round" stroke-linejoin="round"/>
<path d="M70.2686 129.398C70.2686 129.398 67.351 126.269 66.9424 121.81" stroke="black" stroke-width="1.7" stroke-miterlimit="10" stroke-linecap="round" stroke-linejoin="round"/>
<path d="M59.6846 43.4131C59.6846 43.4131 62.0284 52.1595 65.5589 55.4577C69.0875 58.7558 61.5844 59.198 62.0206 61.4583C62.665 64.7938 75.9245 70.9045 86.2154 70.0358C106.858 68.2904 112.031 56.6802 112.031 56.6802C111.915 53.9442 108.277 52.9556 108.277 52.9556C108.277 52.9556 109.094 49.4079 107.615 47.5623L59.6846 43.4131Z" fill="white" stroke="black" stroke-width="1.7" stroke-miterlimit="10" stroke-linecap="round" stroke-linejoin="round"/>
<path d="M112.888 25.0984C115.361 40.6828 104.736 55.3238 89.1564 57.7964C73.5786 60.271 58.9457 49.6396 56.4722 34.0532C54.0007 18.4707 64.6256 3.82973 80.2034 1.35713C95.7832 -1.11546 110.416 9.51395 112.888 25.0984Z" fill="white" stroke="black" stroke-width="1.7" stroke-miterlimit="10" stroke-linecap="round" stroke-linejoin="round"/>
<path d="M81.2851 12.5897C67.7721 25.79 71.4912 40.8673 71.4912 40.8673C71.4912 40.8673 91.4738 60.823 111.427 39.5976C111.427 39.5976 116.024 29.8802 112.13 19.3647C108.236 8.84737 98.8354 4.09087 98.8354 4.09087C98.8354 4.09087 90.0848 3.99456 81.2851 12.5897Z" fill="#000B0D"/>
<path d="M107.948 46.144C87.2874 63.6841 67.5583 41.4937 67.5583 41.4937C67.5583 41.4937 65.5582 10.3386 92.759 2.16602" stroke="black" stroke-width="1.7" stroke-miterlimit="10" stroke-linecap="round" stroke-linejoin="round"/>
<path d="M77.3521 24.4007C74.6939 28.9213 74.6998 36.8855 76.9866 37.7425C79.2735 38.5994 78.7116 29.6525 81.6724 26.2011C84.7844 22.5767 80.0378 19.8368 77.3521 24.4007Z" fill="white"/>
<path d="M81.1223 16.3087C80.0928 16.975 79.7941 18.3902 80.4582 19.4181L80.5879 19.6186C81.2539 20.6466 82.6704 20.9493 83.6999 20.283C84.7274 19.6167 85.0261 18.2015 84.36 17.1735L84.2304 16.9731C83.5643 15.9431 82.1517 15.6405 81.1223 16.3087Z" fill="white"/>
<path d="M107.242 36.8342C106.838 36.274 106.056 36.1404 105.549 36.6651C104.16 38.1098 98.3836 41.6162 100.405 44.1891C101.949 46.1546 104.134 44.7492 105.655 42.7543C107.48 41.1602 108.694 38.8429 107.242 36.8342Z" fill="white"/>
<path d="M62.7179 41.3087C59.4134 40.2945 55.2325 36.393 53.6196 31.1353C52.4565 27.3439 54.0754 23.4895 56.6628 23.9927C56.6628 23.9927 54.8475 34.3116 64.8358 37.48L62.7179 41.3087Z" fill="white" stroke="black" stroke-width="1.7" stroke-miterlimit="10" stroke-linecap="round" stroke-linejoin="round"/>
<path d="M72.2058 40.1179C72.9641 42.6868 71.4965 45.3835 68.9287 46.1422C66.3609 46.8989 63.6654 45.4326 62.907 42.8637C62.1506 40.2948 63.6163 37.5981 66.1841 36.8395C68.7539 36.0808 71.4474 37.549 72.2058 40.1179Z" fill="white" stroke="black" stroke-width="1.7" stroke-miterlimit="10" stroke-linecap="round" stroke-linejoin="round"/>
<path d="M69.5367 40.906C69.8589 41.9988 69.2341 43.1466 68.1438 43.4709C67.0494 43.7933 65.9021 43.1682 65.5799 42.0754C65.2577 40.9826 65.8824 39.8348 66.9748 39.5124C68.0671 39.1881 69.2145 39.8131 69.5367 40.906Z" fill="white" stroke="black" stroke-width="1.7" stroke-miterlimit="10" stroke-linecap="round" stroke-linejoin="round"/>
<path d="M66.1279 56.1279C66.1279 56.1279 76.187 66.3072 90.7766 64.0725" stroke="black" stroke-width="1.7" stroke-miterlimit="10" stroke-linecap="round" stroke-linejoin="round"/>
<path d="M108.276 52.9531C108.276 52.9531 103.867 59.1228 99.0986 61.2967" stroke="black" stroke-width="1.7" stroke-miterlimit="10" stroke-linecap="round" stroke-linejoin="round"/>
<path d="M110.867 69.9088C110.867 69.9088 109.01 68.1536 105.635 69.1089C102.26 70.0641 84.7251 75.023 84.7251 75.023C83.283 75.1999 82.2575 76.5129 82.4363 77.9556L85.3577 101.726C85.5326 103.169 86.8469 104.195 88.287 104.018L111.598 97.4258C112.311 97.3373 114.283 94.454 114.283 94.454L110.867 69.9088Z" fill="white" stroke="black" stroke-width="1.7" stroke-miterlimit="10" stroke-linecap="round" stroke-linejoin="round"/>
<path d="M114.694 92.8207C114.852 94.1022 113.942 95.2697 112.661 95.427L91.9437 101.286C90.6627 101.443 89.4957 100.531 89.3385 99.2498L86.7432 78.1227C86.586 76.8392 87.4976 75.6737 88.7766 75.5165L109.496 69.6573C110.777 69.5001 111.942 70.4101 112.099 71.6936L114.694 92.8207Z" fill="white" stroke="black" stroke-width="1.7" stroke-miterlimit="10" stroke-linecap="round" stroke-linejoin="round"/>
<path d="M86.915 103.199L90.1116 100.714" stroke="black" stroke-width="1.7" stroke-miterlimit="10" stroke-linecap="round" stroke-linejoin="round"/>
<path d="M82.9355 76.0664L86.8865 76.9885" stroke="black" stroke-width="1.7" stroke-miterlimit="10" stroke-linecap="round" stroke-linejoin="round"/>
</svg>
