<svg width="130" height="129" viewBox="0 0 130 129" fill="none" xmlns="http://www.w3.org/2000/svg">
<path d="M54.9107 25.4305C54.5935 25.436 54.2743 25.409 53.9575 25.44C52.6961 26.9923 52.4949 29.0776 52.4579 31.0024C52.4818 31.288 52.5042 31.5756 52.5025 31.8615C52.5203 32.1685 52.5368 32.4777 52.5217 32.785C52.688 34.5201 52.9615 36.2836 53.6997 37.8793C53.9026 38.2589 54.0959 38.6444 54.3023 39.0232C54.4375 39.2281 54.5634 39.4406 54.6924 39.6506C55.67 41.2844 56.9843 42.6886 57.9876 44.3073C58.4923 45.1535 58.9579 46.0289 59.3094 46.9489C59.5543 47.9301 59.7929 48.9164 59.9752 49.912C59.9275 50.2287 59.9768 50.545 60.0238 50.8599C60.0206 51.6385 60.0541 52.4177 60.0175 53.1949C60.0177 53.6158 60.1045 54.0314 60.0882 54.4524C60.173 55.9611 60.5197 57.4313 60.9195 58.8855C61.5536 60.3479 62.2836 61.7735 63.21 63.0751C63.542 64.307 63.2062 65.6035 63.3431 66.8622C63.3345 67.19 63.3854 67.5132 63.4223 67.8396C63.37 68.3898 63.6229 68.9225 63.5377 69.473C63.8898 71.7435 64.7742 73.9333 66.1423 75.7845C68.7102 79.4231 71.9614 82.7796 76.1377 84.5223C78.9013 85.7036 82.1049 86.1188 85.0207 85.2791C85.1511 85.5272 85.2716 85.7794 85.3876 86.0363C84.6128 86.2317 83.8385 86.4214 83.0532 86.5716C82.3966 86.5182 81.737 86.6577 81.0779 86.5774C80.8636 86.5848 80.6494 86.5922 80.4326 86.5964C78.3007 86.2888 76.1696 85.7229 74.2927 84.6408C73.2841 84.1965 72.3646 83.5669 71.5155 82.8697C69.7056 81.5946 68.2875 79.8758 66.797 78.2634C66.3831 77.7074 65.9606 77.1533 65.5922 76.5648C65.4818 76.4274 65.3714 76.2901 65.2592 76.1531C64.5419 74.9643 63.8726 73.7461 63.3774 72.4493C62.749 70.4091 62.5044 68.2876 62.4504 66.1587C62.4709 65.6927 62.4725 65.2238 62.4822 64.7585C62.4735 64.3085 62.4487 63.8603 62.4512 63.4113C61.4388 62.1735 60.7435 60.6996 60.1416 59.2262C59.805 57.9824 59.5615 56.7136 59.251 55.4638C58.2532 56.5324 57.3171 57.7259 56.9359 59.1665C56.9193 59.3405 56.9014 59.5167 56.8779 59.6923C56.7088 60.5293 56.723 61.3917 56.8674 62.2314C56.8037 63.002 57.121 63.7341 57.2537 64.4831C56.987 64.541 56.7177 64.6032 56.4484 64.6654C56.0629 63.2097 55.7564 61.7156 55.8954 60.201C55.9346 59.491 56.1477 58.8048 56.1926 58.0953C55.4481 58.1922 54.7617 58.4934 54.1211 58.8737C53.1464 59.4959 52.2624 60.2491 51.2445 60.8025C49.8422 61.6571 48.508 62.6166 47.1048 63.4677C45.7874 64.2221 44.5259 65.0606 43.2593 65.8929C43.0178 66.0676 42.7742 66.241 42.5204 66.4021C42.2865 66.586 42.0555 66.7748 41.8253 66.967C41.6615 67.0579 41.498 67.1506 41.3353 67.2467C41.1874 67.3669 41.036 67.4879 40.8845 67.6089C40.0871 68.2615 39.4452 69.0722 38.7822 69.8549C37.5564 71.9261 36.9607 74.5069 37.6826 76.8569C37.8837 78.2033 38.5748 79.4768 39.6532 80.3186C39.9519 80.3997 40.2658 80.4115 40.5695 80.4585C40.5846 80.5557 40.6148 80.75 40.6299 80.8472C41.2842 80.8828 41.9491 81.0276 42.5848 80.8004C43.3623 80.5531 44.2386 80.5595 44.9359 80.1075C45.4604 79.9534 45.9947 79.8338 46.5279 79.7253C46.5943 79.6642 46.7254 79.5424 46.7918 79.4813C47.8487 79.2868 48.7866 78.7353 49.7844 78.364C52.2154 77.3672 53.9006 75.2485 56.0766 73.8603C56.2773 73.7627 56.4793 73.6704 56.682 73.5814C56.8391 73.4848 56.9969 73.3916 57.1552 73.3002C57.4992 73.0304 57.8415 72.761 58.1834 72.4899C57.8956 72.4722 57.6057 72.4531 57.3156 72.4413C56.0118 71.9865 55.0976 70.7773 54.7888 69.4558C54.4384 69.0004 54.579 68.4042 54.4973 67.8758C54.4418 67.4293 54.5839 67.0066 54.8413 66.647C55.0592 66.7742 55.2771 66.9015 55.4937 67.0308C55.1459 68.5131 55.773 70.0961 56.8268 71.1486C57.2193 71.5485 57.8347 71.7486 58.3761 71.5486C58.7642 71.5176 58.8357 71.082 58.856 70.7735C58.7295 69.9479 58.571 69.095 58.0599 68.4114C57.7202 67.9151 57.3328 67.45 56.9 67.0338C55.9793 66.3202 54.9495 65.4745 53.7048 65.6246C53.0739 65.8727 52.5467 66.3239 52.0819 66.8082C51.6822 67.1933 51.2815 67.5823 50.846 67.9318C51.2711 68.3937 51.796 68.7484 52.2176 69.2111C52.6634 69.7707 52.9499 70.433 53.3226 71.0406C53.485 71.6328 53.6108 72.2333 53.7505 72.8307C53.7052 72.9198 53.6164 73.0977 53.5711 73.1869C53.3346 73.2012 53.0964 73.2159 52.8574 73.2272C52.8979 72.5462 52.7246 71.8669 52.4433 71.251C51.8958 70.1163 51.025 69.135 49.9241 68.5125C49.5127 68.6569 49.1202 68.8518 48.7199 69.0285C47.9439 69.5041 47.6206 70.3474 47.3067 71.152C47.0989 71.1396 46.8897 71.1293 46.6805 71.1191C46.6286 70.6881 46.7154 70.2636 46.8384 69.8527C46.4052 69.7916 45.9663 69.7776 45.5306 69.7611C44.807 69.7982 44.0878 69.8618 43.3657 69.9132C42.1677 70.1385 40.9891 70.4637 39.7953 70.7155C39.7887 70.4333 39.7843 70.1525 39.7872 69.8718C41.6169 69.4732 43.4224 68.9062 45.3081 68.8608C46.0136 68.8882 46.722 68.8729 47.4272 68.9389C47.6897 68.7282 47.9501 68.5162 48.2079 68.3011C48.6205 68.1143 49.0286 67.9158 49.432 67.7128C50.341 67.1552 51.1119 66.4117 51.8706 65.671C51.2759 64.7358 50.9685 63.6025 51.0625 62.4954C51.3274 62.4379 51.591 62.3826 51.8528 62.3276C51.9431 63.2896 51.9591 64.2944 52.5743 65.104C53.2697 64.8575 53.9929 64.6686 54.7334 64.8161C56.1357 65.0634 57.1939 66.1112 58.1588 67.0799C58.8941 67.9735 59.4023 69.0093 59.7544 70.1066C59.6943 70.5598 59.7358 71.0169 59.7189 71.4747C59.568 72.1135 59.3278 72.7455 58.8435 73.2087C58.2274 73.8616 57.3968 74.2437 56.5924 74.6124C55.8355 74.9409 55.2106 75.4842 54.6292 76.0577C54.6721 76.0771 54.7588 76.1119 54.8017 76.1313C55.0812 75.9387 55.3817 75.7814 55.6796 75.6212C56.6579 74.9908 57.6778 74.4223 58.7593 73.9932C58.9723 73.9568 59.1854 73.9443 59.3994 73.9516C60.5714 73.875 61.4982 74.7976 62.05 75.7373C62.2649 76.6284 62.5014 77.5182 62.6663 78.4227C62.6803 79.0143 62.5865 79.607 62.464 80.1862C62.2959 80.9882 61.9815 81.7508 61.5788 82.4642C62.9496 82.662 64.247 83.2556 65.2989 84.1494C65.8859 84.8448 66.6208 85.5152 66.7538 86.4637C66.8209 86.5324 66.953 86.6684 67.018 86.7358C67.093 87.489 67.1762 88.2458 67.1223 89.0032C67.0723 89.302 67.0323 89.6041 66.9844 89.9043C67.2908 89.9947 67.5987 90.0755 67.908 90.1469C68.6362 90.6138 69.4904 90.984 69.9571 91.7529C70.3917 92.3353 70.4852 93.0732 70.6479 93.7623C70.8013 94.3711 70.6085 94.9867 70.4797 95.5783C70.4066 95.7452 70.3356 95.9135 70.2689 96.0845C69.7572 97.4197 68.692 98.4582 67.6371 99.3826C66.6943 100.349 65.5029 101.047 64.6377 102.096C63.6019 103.158 62.8405 104.451 62.1538 105.757C62.4221 105.651 62.6879 105.549 62.9353 105.408C63.2558 105.29 63.5825 105.191 63.8805 105.023C64.5744 104.715 65.2902 104.454 65.9624 104.1C67.4243 103.423 68.8415 102.657 70.231 101.842C70.7555 101.593 71.2511 101.29 71.7445 100.986C72.5659 100.564 73.2757 99.9678 74.0751 99.5142C74.2292 99.3889 74.3824 99.2675 74.5356 99.1461C76.4423 97.8128 78.3939 96.5386 80.4603 95.4685C82.4853 94.3147 84.7022 93.5558 86.9037 92.8407C87.8905 92.6202 88.8741 92.3858 89.8615 92.1597C90.1097 92.0932 90.3685 92.0884 90.6217 92.1306C92.8595 91.7238 95.0688 91.1222 97.0921 90.0639C97.9191 89.4996 98.7114 88.8409 99.1772 87.9335C100.056 86.6434 100.037 85.0044 99.933 83.5092C99.9565 83.0243 99.7941 82.5511 99.8505 82.0659C99.7729 81.5951 99.6412 81.1277 99.6456 80.6472C99.6543 79.7575 99.1416 78.9241 99.2668 78.0313C98.98 76.6938 98.6788 75.3577 98.342 74.0335C97.6968 72.9909 97.891 71.6283 97.2511 70.5846C96.9085 69.6479 96.948 68.5663 96.4171 67.7096C96.1016 66.8106 96.1187 65.7909 95.6206 64.9651C95.4725 64.4027 95.3484 63.8255 95.0273 63.3305C94.6794 62.9257 94.3538 62.4903 93.9094 62.1829C93.5627 62.1001 93.2221 61.9883 92.8774 61.8904C91.7848 61.8114 90.6935 61.9443 89.6107 62.0662C87.5606 62.3107 85.5421 61.6383 83.7564 60.6816C82.5932 59.916 81.3721 59.2407 80.2337 58.4402C79.1763 57.6575 78.1808 56.802 77.2361 55.8891C76.9554 55.6006 76.6743 55.3105 76.4072 55.0097C75.7598 54.4253 75.2673 53.6952 74.6815 53.0526C74.4125 52.6645 74.1707 52.2591 73.9209 51.8592C73.7844 51.6088 73.6401 51.364 73.5018 51.114C73.3628 50.9082 73.2264 50.6981 73.0809 50.4956C73.0494 50.3912 72.9883 50.182 72.9569 50.0776C72.7041 50.4728 72.4388 50.8616 72.087 51.1771C71.4768 51.523 70.7939 51.6806 70.1124 51.8124C69.7083 51.6952 69.3026 51.5948 68.8939 51.497C68.8043 51.3786 68.6265 51.1396 68.5369 51.0212C68.9837 50.4751 69.6605 50.7746 70.2139 50.936C70.5219 50.8668 70.8267 50.8 71.133 50.7312C71.4299 50.4558 71.7291 50.1817 72.0022 49.8826C72.1376 49.8348 72.4098 49.7372 72.5452 49.6895C72.2233 49.1434 71.7619 48.699 71.3576 48.2158C71.2017 49.4195 69.8123 50.0844 68.6911 49.9845C68.658 49.8256 68.5916 49.506 68.5603 49.3466C68.924 49.2096 69.3001 49.1026 69.6777 49.01C70.1923 48.6624 70.609 48.2001 70.7577 47.5838C70.1431 47.1016 69.3193 46.966 68.7561 46.4133C68.4391 45.9283 68.2272 45.375 67.831 44.9431C67.4638 44.5099 67.133 44.0445 66.7399 43.6338C65.9869 42.9328 65.4476 42.0397 64.9755 41.1365C64.9331 41.0401 64.8488 40.8491 64.8068 40.7545C64.4819 40.0846 64.1605 39.4139 63.8426 38.7424C63.5037 38.2258 63.2387 37.6647 62.978 37.1063C62.792 37.3469 62.5945 37.5773 62.3901 37.8021C62.0399 37.8628 61.686 37.9152 61.3288 37.9299C61.2964 37.8056 61.2335 37.5566 61.2028 37.4319C61.2556 37.3593 61.3647 37.2134 61.4171 37.139C61.53 37.113 61.7524 37.0616 61.865 37.0338C62.0378 36.7834 62.2209 36.538 62.435 36.3238C62.2243 35.99 62.0188 35.6549 61.8344 35.3076C61.6334 35.6579 61.4178 36.0005 61.2065 36.3457C60.9146 36.4131 60.6209 36.4809 60.3281 36.5522C60.2889 36.3984 60.2136 36.0881 60.1744 35.9343C60.6953 35.5743 61.1055 35.0916 61.2002 34.4474C60.876 33.9311 60.5075 33.4451 60.1505 32.9529C59.5921 32.1831 58.7335 31.6273 57.8217 31.3802C56.9534 31.4086 56.1881 30.9319 55.5379 30.4067C54.5924 29.4664 54.2956 28.0378 54.5221 26.7519C54.6293 26.3044 54.764 25.8652 54.9107 25.4305ZM38.7646 73.3383C38.9344 73.9232 38.8293 74.5221 38.7662 75.1132C38.7723 75.4962 38.7982 75.8782 38.7662 76.2626C39.0169 76.8966 39.7467 77.1801 39.959 77.8065C39.7624 77.9855 39.5165 78.0935 39.2782 78.2107C38.9645 77.9537 38.6635 77.681 38.3582 77.4128C38.1161 76.9032 37.8058 76.3837 37.8896 75.7951C37.8422 75.0191 37.9065 74.2355 38.1161 73.4862C38.3333 73.436 38.5487 73.3863 38.7646 73.3383Z" fill="#A79CEE"/>
<path d="M57.6001 28.2147C57.104 27.3024 56.5676 26.3666 55.775 25.6765C55.6485 26.4525 55.3019 27.2024 55.4007 28.0031C55.3716 28.6779 55.8351 29.2664 56.2212 29.7812C56.7922 30.5261 57.7913 30.462 58.6281 30.5031C58.2388 29.7602 58.0491 28.9309 57.6001 28.2147Z" fill="#A79CEE"/>
<path d="M58.8964 75.0012C58.8557 75.0472 58.7741 75.1374 58.7334 75.1834C58.0235 75.3034 57.4318 75.7292 56.7931 76.0304C56.5983 76.1302 56.4032 76.2284 56.2042 76.3256C57.279 76.9541 58.5385 77.756 58.6126 79.139C58.4474 79.2558 58.2822 79.3727 58.1148 79.4882C57.8678 79.2743 57.4505 79.1236 57.5897 78.7199C56.9247 77.9163 56.0825 77.051 54.9716 77.0036C54.1504 76.8638 53.6042 77.6451 52.8862 77.8804C52.1635 78.0637 51.56 78.5179 50.9025 78.849C49.857 79.2752 48.8208 79.7414 47.71 79.9722C47.1616 80.3953 46.4083 80.3112 45.8015 80.616C45.2886 80.9156 44.6419 80.8892 44.1646 81.2556C43.2957 81.4874 42.4186 81.6917 41.5352 81.8609C41.2891 81.8335 41.0423 81.8264 40.7931 81.8254C40.528 81.7713 40.2647 81.7167 39.997 81.6669C39.803 81.9606 39.6082 82.2582 39.4108 82.5526C39.3262 82.9474 39.2283 83.3397 39.1204 83.7288C39.0374 84.2568 39.0273 84.7917 38.9968 85.3259C39.0519 85.6755 39.0957 86.0315 39.1013 86.3889C39.205 87.7102 39.762 88.9415 40.3604 90.1064C41.0484 91.4374 42.3143 92.624 43.8785 92.7003C44.295 92.681 44.7195 92.7203 45.1274 92.6243C48.0159 91.6188 50.0614 89.2138 52.6974 87.7652C52.9124 87.6259 53.1289 87.4935 53.3429 87.3581C53.9029 87.1044 54.4527 86.8219 54.965 86.4803C55.4516 86.2417 55.9341 85.993 56.4065 85.732C57.6251 84.9932 58.832 84.2039 59.8095 83.1582C60.1823 82.783 60.3619 82.2529 60.7976 81.9363C60.8587 81.7648 60.918 81.5937 60.9773 81.4226C60.3154 80.8305 59.7319 80.1343 59.3209 79.3452C58.9156 78.6756 58.8473 77.8805 58.6505 77.139C58.4914 76.5607 58.5585 75.9559 58.6301 75.3702C58.7964 75.3373 59.1294 75.2732 59.2943 75.2424C59.6101 75.6985 59.4083 76.2594 59.4458 76.7705C59.6084 78.2282 60.3396 79.5877 61.399 80.5932C61.6895 79.5524 61.9087 78.4329 61.6044 77.3684C61.4602 76.7282 61.0712 76.1847 60.806 75.5908C60.2674 75.1367 59.5913 74.9671 58.8964 75.0012ZM41.5036 83.6105C41.4182 84.2397 41.3294 84.8697 41.2332 85.4995C41.3294 85.9239 41.4107 86.3554 41.3802 86.7944C41.6468 87.3386 41.8619 87.9057 42.0967 88.4628C42.2355 88.612 42.3742 88.7612 42.513 88.9103C42.5476 89.0524 42.6173 89.3383 42.6523 89.4821C42.4415 89.5363 42.1951 89.8879 41.9828 89.666C41.3826 89.1274 41.0423 88.3512 40.8173 87.5905C40.7127 87.7794 40.6059 87.967 40.4978 88.1566C40.2979 88.0838 39.9491 88.1424 39.9075 87.8591C39.7652 87.3301 39.6092 86.7969 39.5633 86.2493C39.7866 85.8372 40.2312 86.0347 40.5326 86.2305C40.2378 85.3578 40.4526 84.4334 40.6323 83.5628C40.9251 83.5702 41.2155 83.5837 41.5036 83.6105Z" fill="#A79CEE"/>
<path d="M60.8873 83.3097C60.382 84.0066 59.6832 84.5156 59.0064 85.0325C58.6646 85.2486 58.3379 85.4906 58.0324 85.7606C59.0095 85.9816 59.9054 86.4373 60.7107 87.0238C60.9822 87.3198 61.2612 87.6087 61.5208 87.9166C62.0632 88.5381 62.5683 89.1957 62.9552 89.9282C62.9541 90.0821 62.9405 90.2372 62.9143 90.3933C62.7093 90.4407 62.5047 90.4897 62.2983 90.5392C62.0826 90.2156 61.8687 89.8916 61.6535 89.5698C61.2788 89.0249 60.9136 88.4576 60.3938 88.0377C60.3491 87.9785 60.2608 87.8579 60.2156 87.797C59.5101 87.4364 58.8977 86.853 58.0948 86.7126C57.5721 86.5972 57.0353 86.6424 56.5066 86.6748C56.1613 86.8442 55.8202 87.0236 55.4862 87.2178C55.2209 87.3688 54.9497 87.5101 54.6856 87.6662C53.2561 88.419 51.841 89.2344 50.6458 90.3358C49.9504 90.9942 49.1146 91.4726 48.3891 92.0959C47.8052 92.4997 47.1596 92.7952 46.5328 93.1247C46.1741 93.2277 45.8083 93.3158 45.4428 93.4057C45.4947 93.7414 45.5699 94.0828 45.504 94.4238C45.745 95.8323 46.0847 97.2639 46.9595 98.4291C47.5787 99.0658 48.3569 99.5194 49.1953 99.8054C51.1022 100.209 53.0296 99.5516 54.6402 98.5447C54.9404 98.3546 55.2418 98.1697 55.544 97.9883C56.6039 97.2201 57.676 96.473 58.7473 95.7223C60.2005 94.8505 61.723 94.0964 63.1683 93.2137C64.3651 92.4121 65.3667 91.3042 65.9765 89.9975C66.1324 89.2935 66.3765 88.5672 66.2162 87.841C65.9702 85.6576 64.0301 83.8342 61.8796 83.5492C61.5237 83.8784 61.944 84.4147 61.9561 84.8237C62.3328 85.3297 62.5985 85.9254 63.0774 86.3511C63.4826 86.7188 63.972 86.9755 64.4223 87.2852C64.4999 87.2801 64.6532 87.2703 64.7303 87.2635C64.7893 87.5427 64.8469 87.8241 64.8989 88.1049C64.4655 88.1775 63.9932 88.1694 63.6257 87.8937C62.6936 87.2651 61.8025 86.4972 61.281 85.4828C61.0866 84.7755 60.8336 84.0524 60.8873 83.3097ZM49.1005 94.0913C49.2579 94.4796 49.4401 94.8566 49.6075 95.2408C50.1376 96.0225 50.9098 96.5452 51.7223 96.9964C51.6736 97.198 51.6285 97.3988 51.5841 97.603C51.4607 97.6315 51.2123 97.6889 51.0872 97.7177C50.0484 97.198 49.2039 96.3625 48.6645 95.334C48.5085 94.9912 48.4121 94.6291 48.3195 94.2679C48.5802 94.2078 48.8408 94.1476 49.1005 94.0913ZM47.5247 95.4947C47.6324 95.5247 47.845 95.5818 47.9526 95.6119C48.2585 96.2788 48.5978 96.9637 49.219 97.395C49.279 97.6392 49.3377 97.8855 49.3947 98.1323C49.1025 98.143 48.7375 98.306 48.5092 98.0384C47.8651 97.4367 47.3789 96.6704 47.1303 95.8237C47.2638 95.7123 47.3943 95.6035 47.5247 95.4947Z" fill="#A79CEE"/>
<path d="M68.355 91.3982C67.906 91.2529 67.4401 90.8681 66.9609 91.0044C67.0394 91.5188 67.1591 92.0293 67.3075 92.5295C67.7075 93.3028 68.3992 93.9045 69.2246 94.1898C69.63 94.3049 69.4733 94.9341 69.0784 94.9282C68.5523 95.0277 68.0839 94.6874 67.6582 94.4288C67.419 94.1619 67.1632 93.9099 66.9108 93.657C66.6419 92.9284 65.9791 92.2377 66.2271 91.4172C65.9538 91.8665 65.5939 92.2497 65.2285 92.6251C64.7806 92.9683 64.3441 93.3289 63.8978 93.6791C64.2115 93.9123 64.5394 94.1276 64.9009 94.2821C65.6909 94.8025 66.3719 95.4927 66.8086 96.3381C66.8894 96.5372 66.8357 96.7564 66.8331 96.9675C66.6133 97.0219 66.3938 97.0781 66.173 97.1364C66.1401 97.0415 66.0743 96.8517 66.0414 96.7568C65.7872 96.3927 65.5333 96.0304 65.2623 95.6811C64.5935 94.9643 63.6727 94.5986 62.7392 94.3766C62.4429 94.5677 62.1454 94.7535 61.8465 94.9415C60.9884 95.458 60.1052 95.9291 59.2568 96.4636C57.8877 97.391 56.56 98.3784 55.1774 99.2869C54.6601 99.5912 54.1231 99.8652 53.5719 100.11C53.2739 100.246 52.9594 100.343 52.6445 100.437C52.7812 100.99 52.8508 101.568 53.0718 102.097C54.2528 104.296 56.4605 105.86 58.8674 106.439C59.2383 106.404 59.6119 106.413 59.9834 106.397C60.2014 106.231 60.4238 106.085 60.653 105.944C61.2075 105.611 61.5717 105.064 61.8883 104.517C62.3854 103.681 62.9145 102.865 63.429 102.042C63.8539 101.345 64.5601 100.9 65.0986 100.307C66.2801 99.3207 67.5583 98.4199 68.5063 97.1907C68.8662 96.6885 69.1697 96.148 69.5039 95.6298C69.6325 94.9101 69.9036 94.174 69.7252 93.441C69.653 93.0092 69.4384 92.6268 69.2534 92.2376C68.9588 91.9524 68.6438 91.6902 68.355 91.3982ZM56.3417 101.167C56.7958 101.723 57.2459 102.285 57.814 102.732C58.084 102.919 58.3717 103.087 58.6054 103.322C58.5805 103.5 58.547 103.679 58.5057 103.857C58.2984 103.887 58.0915 103.918 57.8846 103.949C57.0336 103.141 55.8292 102.522 55.518 101.309C55.7273 101.098 56.1091 100.825 56.3417 101.167ZM55.5592 102.264C55.7023 102.552 55.8507 102.838 55.9878 103.13C56.332 103.614 56.935 103.713 57.3995 104.029C57.4275 104.205 57.4281 104.382 57.402 104.562C57.1316 104.683 56.8374 104.638 56.5532 104.612C55.6831 104.379 54.9726 103.577 54.872 102.681C54.9787 102.382 55.3095 102.364 55.5592 102.264Z" fill="#A79CEE"/>
<mask id="path-6-outside-1_2243_30948" maskUnits="userSpaceOnUse" x="24.4366" y="15.7934" width="81.2556" height="96.2439" fill="black">
<rect fill="white" x="24.4366" y="15.7934" width="81.2556" height="96.2439"/>
<path d="M55.7072 24.2176C55.052 24.3048 54.3565 24.2018 53.7408 24.4995C52.7794 25.1077 52.3373 26.2292 52.1018 27.2939C51.628 29.4513 51.5918 31.6888 51.7441 33.8866C51.9318 34.9451 52.2058 35.9891 52.4511 37.0361C52.9842 38.4413 53.6214 39.8297 54.5117 41.0463C54.6097 41.2012 54.709 41.354 54.8101 41.5063C55.2597 42.0742 55.6435 42.6903 56.118 43.2396C56.5833 43.9229 57.1322 44.5484 57.5295 45.2784C57.884 45.8866 58.3182 46.4672 58.5161 47.1499C58.7814 48.3149 59.1455 49.4718 59.1371 50.6798C59.1748 51.9926 59.057 53.3137 59.2068 54.6207C58.4654 54.8102 58.0761 55.5022 57.5358 55.9765C57.2379 56.3985 57.0007 56.8614 56.6832 57.2697C55.9882 57.3038 55.2802 57.3685 54.6308 57.6392C54.0999 57.932 53.5962 58.2715 53.0822 58.5897C52.3703 59.0103 51.7225 59.5259 51.0018 59.9321C50.6096 60.1599 50.2195 60.3964 49.818 60.6153C47.5122 62.147 45.1913 63.6602 42.8787 65.186C42.049 65.7382 41.2623 66.3499 40.4266 66.8924C40.1143 67.1329 39.807 67.3795 39.5001 67.6279C38.8158 68.4137 37.9802 69.1227 37.6181 70.1306C36.3125 72.5697 36.1683 75.5204 36.9818 78.1402C37.442 79.079 37.9107 80.0232 38.6251 80.8027C38.7833 80.9016 38.9416 81.0005 39.0981 81.0998C38.8963 81.6369 38.6173 82.1405 38.3876 82.6676C38.2023 83.6328 38.0262 84.6142 38.1186 85.6013C38.0792 86.4213 38.425 87.198 38.5568 87.9985C38.6541 88.666 38.9743 89.2601 39.2013 89.8867C39.573 90.7435 40.1516 91.4738 40.7474 92.1836C41.0939 92.4477 41.4138 92.7472 41.7674 93.0024C42.6741 93.4336 43.6613 93.548 44.6491 93.6329C44.5394 94.6319 44.9462 95.5776 45.1203 96.5458C45.2301 97.172 45.4395 97.7698 45.7308 98.3339C46.2816 98.9517 46.7512 99.6779 47.4988 100.078C48.7719 100.892 50.4096 101.041 51.8416 100.607C51.8957 101.896 52.5418 103.101 53.341 104.097C53.9478 104.942 54.8701 105.441 55.6521 106.093C56.5864 106.533 57.4967 107.075 58.5305 107.248C59.3143 107.44 60.1052 107.196 60.8906 107.157C61.9234 106.692 63.0511 106.455 64.0704 105.971C64.4932 105.844 64.9216 105.741 65.3492 105.635C66.5099 104.963 67.677 104.294 68.8791 103.698C70.0623 103.195 71.1838 102.559 72.2147 101.792C73.2091 101.2 74.1459 100.517 75.1 99.861C76.5887 98.8493 78.0268 97.7614 79.5862 96.8578C79.734 96.7687 79.8809 96.6836 80.03 96.5998C81.6329 95.7026 83.2767 94.8472 85.0329 94.3045C85.8729 94.1856 86.595 93.7059 87.4297 93.5718C88.5943 93.3523 89.7311 92.9251 90.9273 92.9217C92.0338 92.6882 93.175 92.5181 94.2047 92.0314C94.6672 91.8862 95.1433 91.8001 95.6074 91.6618C96.5183 91.2392 97.4511 90.8482 98.28 90.2688C99.4108 89.5301 100.166 88.3528 100.618 87.1026C100.828 86.4337 100.758 85.7195 100.868 85.0354C100.802 84.0531 100.703 83.071 100.713 82.0879C100.63 81.6127 100.456 81.135 100.547 80.6492C100.472 79.8959 100.086 79.1687 100.201 78.4064C99.8902 76.8694 99.5011 75.3505 99.1628 73.8216C99.0959 73.4051 98.8754 73.0442 98.7388 72.6511C98.4887 71.7736 98.3593 70.8646 98.0796 69.9939C97.4292 68.8098 97.5431 67.345 96.9126 66.1361C96.6964 65.2472 96.3413 64.4067 96.052 63.5419C95.7804 62.8652 95.2825 62.2938 95.1251 61.5724C94.5737 61.3245 93.9957 61.1358 93.3876 61.1023C92.1995 60.974 91.0105 61.1753 89.8402 61.354C89.3622 61.3051 88.8808 61.2972 88.4014 61.3292C88.0921 61.2579 87.7805 61.1926 87.4674 61.1367C86.2899 60.9437 85.21 60.4042 84.1577 59.8656C83.2802 59.5209 82.5031 58.9536 81.7448 58.4039C78.5914 56.1688 75.6972 53.4235 73.7527 50.0509C73.4969 49.6561 73.22 49.2734 72.972 48.8731C72.5218 48.1278 71.9757 47.4193 71.2753 46.891C70.8133 46.3406 70.0124 46.3279 69.4908 45.8919C69.1404 45.2224 68.7194 44.6039 68.2548 44.0102C67.3226 43.0248 66.438 41.968 65.8386 40.7429C65.4727 40.0458 65.1312 39.3358 64.7491 38.648C64.377 37.7657 63.7866 36.9997 63.4018 36.1259C62.2046 34.2462 60.9889 32.3654 59.4914 30.707C59.3993 30.3476 59.3089 29.9878 59.2033 29.6333C58.9343 29.2213 58.8789 28.7198 58.6444 28.2908C57.9472 26.7533 56.8716 25.4239 55.7072 24.2176ZM54.9079 25.4326C54.7612 25.8672 54.6265 26.3065 54.5193 26.754C54.2927 28.0399 54.5896 29.4685 55.5351 30.4088C56.1853 30.934 56.9506 31.4107 57.8189 31.3823C58.7307 31.6294 59.5893 32.1852 60.1477 32.9549C60.5047 33.4472 60.8732 33.9332 61.1973 34.4495C61.1026 35.0936 60.6925 35.5763 60.1716 35.9364C60.2108 36.0902 60.2861 36.4004 60.3252 36.5543C60.6181 36.483 60.9118 36.4152 61.2037 36.3478C61.415 36.0025 61.6305 35.6599 61.8315 35.3097C62.016 35.657 62.2215 35.992 62.4322 36.3259C62.2181 36.5401 62.035 36.7855 61.8622 37.0359C61.7496 37.0637 61.5272 37.115 61.4143 37.1411C61.3619 37.2154 61.2528 37.3614 61.2 37.434C61.2307 37.5587 61.2936 37.8077 61.326 37.932C61.6831 37.9173 62.0371 37.8649 62.3873 37.8041C62.5916 37.5794 62.7892 37.349 62.9752 37.1083C63.2359 37.6668 63.5009 38.2279 63.8398 38.7445C64.1577 39.416 64.4791 40.0867 64.804 40.7566C64.846 40.8512 64.9303 41.0422 64.9727 41.1386C65.4448 42.0417 65.9841 42.9348 66.7371 43.6359C67.1302 44.0466 67.461 44.512 67.8282 44.9451C68.2244 45.3771 68.4363 45.9303 68.7533 46.4154C69.3165 46.968 70.1403 47.1036 70.7549 47.5859C70.6062 48.2022 70.1895 48.6645 69.6749 49.012C69.2973 49.1047 68.9212 49.2117 68.5575 49.3487C68.5888 49.508 68.6552 49.8276 68.6883 49.9866C69.8095 50.0864 71.1989 49.4216 71.3547 48.2179C71.7591 48.7011 72.2204 49.1455 72.5424 49.6916C72.407 49.7393 72.1348 49.8369 71.9994 49.8847C71.7262 50.1838 71.4271 50.4579 71.1301 50.7333C70.8239 50.8021 70.519 50.8689 70.2111 50.9381C69.6577 50.7767 68.9809 50.4772 68.5341 51.0233C68.6237 51.1417 68.8015 51.3807 68.891 51.4991C69.2998 51.5969 69.7055 51.6973 70.1096 51.8144C70.7911 51.6827 71.474 51.5251 72.0842 51.1792C72.4359 50.8637 72.7012 50.4749 72.9541 50.0797C72.9855 50.1841 73.0466 50.3933 73.078 50.4977C73.2236 50.7002 73.36 50.9103 73.499 51.1161C73.6373 51.3661 73.7816 51.6109 73.9181 51.8613C74.1679 52.2612 74.4097 52.6666 74.6787 53.0547C75.2645 53.6973 75.757 54.4274 76.4044 55.0118C76.6714 55.3125 76.9526 55.6027 77.2333 55.8911C78.178 56.8041 79.1735 57.6596 80.2309 58.4423C81.3693 59.2428 82.5904 59.9181 83.7536 60.6837C85.5393 61.6404 87.5578 62.3128 89.6079 62.0683C90.6907 61.9464 91.782 61.8135 92.8746 61.8925C93.2193 61.9904 93.5599 62.1021 93.9066 62.185C94.351 62.4924 94.6766 62.9278 95.0245 63.3325C95.3456 63.8276 95.4697 64.4048 95.6178 64.9672C96.1159 65.793 96.0988 66.8127 96.4143 67.7117C96.9452 68.5683 96.9057 69.65 97.2483 70.5867C97.8882 71.6304 97.694 72.993 98.3392 74.0356C98.676 75.3598 98.9772 76.6959 99.264 78.0334C99.1388 78.9262 99.6515 79.7596 99.6428 80.6492C99.6384 81.1298 99.7701 81.5972 99.8477 82.068C99.7913 82.5532 99.9536 83.0263 99.9302 83.5113C100.034 85.0065 100.053 86.6455 99.1744 87.9356C98.7086 88.8429 97.9162 89.5017 97.0893 90.066C95.066 91.1243 92.8566 91.7259 90.6188 92.1327C90.3657 92.0905 90.1069 92.0953 89.8587 92.1618C88.8713 92.3879 87.8877 92.6223 86.9008 92.8428C84.6994 93.5579 82.4825 94.3168 80.4574 95.4706C78.3911 96.5407 76.4395 97.8148 74.5328 99.1482C74.3796 99.2696 74.2264 99.391 74.0723 99.5162C73.2729 99.9698 72.5631 100.566 71.7417 100.988C71.2482 101.292 70.7526 101.595 70.2282 101.844C68.8386 102.659 67.4214 103.426 65.9596 104.102C65.2874 104.456 64.5715 104.717 63.8777 105.025C63.5796 105.193 63.253 105.292 62.9324 105.41C62.685 105.551 62.4193 105.653 62.1509 105.759C62.8377 104.453 63.5991 103.16 64.6349 102.098C65.5 101.049 66.6915 100.351 67.6343 99.3846C68.6892 98.4602 69.7544 97.4218 70.2661 96.0866C70.3328 95.9156 70.4038 95.7473 70.4769 95.5804C70.6057 94.9887 70.7985 94.3732 70.6451 93.7644C70.4824 93.0753 70.3889 92.3374 69.9543 91.755C69.4876 90.9861 68.6334 90.6159 67.9051 90.1489C67.5958 90.0776 67.288 89.9968 66.9816 89.9064C67.0294 89.6062 67.0695 89.3041 67.1195 89.0052C67.1734 88.2479 67.0902 87.4911 67.0151 86.7379C66.9502 86.6705 66.8181 86.5344 66.751 86.4657C66.618 85.5173 65.8831 84.8469 65.2961 84.1514C64.2442 83.2577 62.9467 82.6641 61.576 82.4663C61.9787 81.7529 62.2931 80.9903 62.4612 80.1882C62.5837 79.6091 62.6775 79.0164 62.6635 78.4248C62.4986 77.5203 62.2621 76.6305 62.0472 75.7393C61.4953 74.7997 60.5685 73.8771 59.3966 73.9537C59.1826 73.9463 58.9695 73.9589 58.7564 73.9953C57.675 74.4243 56.655 74.9929 55.6768 75.6232C55.3789 75.7835 55.0784 75.9408 54.7989 76.1334C54.756 76.114 54.6693 76.0791 54.6263 76.0598C55.2077 75.4863 55.8327 74.943 56.5896 74.6145C57.394 74.2458 58.2246 73.8637 58.8407 73.2108C59.3249 72.7476 59.5652 72.1156 59.7161 71.4768C59.733 71.019 59.6915 70.5619 59.7516 70.1087C59.3994 69.0114 58.8913 67.9756 58.156 67.082C57.1911 66.1133 56.1329 65.0654 54.7306 64.8181C53.9901 64.6706 53.2668 64.8596 52.5715 65.1061C51.9563 64.2964 51.9403 63.2917 51.85 62.3297C51.5882 62.3846 51.3246 62.44 51.0597 62.4975C50.9657 63.6045 51.2731 64.7379 51.8678 65.6731C51.1091 66.4138 50.3382 67.1573 49.4291 67.7149C49.0258 67.9179 48.6177 68.1164 48.2051 68.3032C47.9473 68.5183 47.6869 68.7303 47.4244 68.941C46.7192 68.875 46.0107 68.8903 45.3052 68.8628C43.4196 68.9083 41.6141 69.4752 39.7844 69.8739C39.7815 70.1546 39.7859 70.4354 39.7925 70.7176C40.9862 70.4658 42.1649 70.1406 43.3629 69.9152C44.085 69.8638 44.8042 69.8003 45.5278 69.7632C45.9635 69.7797 46.4023 69.7937 46.8355 69.8548C46.7126 70.2657 46.6258 70.6902 46.6777 71.1211C46.8869 71.1314 47.0961 71.1417 47.3039 71.1541C47.6178 70.3495 47.9411 69.5062 48.7171 69.0305C49.1174 68.8539 49.5098 68.659 49.9212 68.5146C51.0222 69.1371 51.893 70.1184 52.4404 71.2531C52.7217 71.869 52.895 72.5482 52.8546 73.2293C53.0936 73.218 53.3318 73.2033 53.5682 73.189C53.6135 73.0998 53.7024 72.9219 53.7477 72.8327C53.608 72.2354 53.4821 71.6348 53.3198 71.0427C52.9471 70.4351 52.6606 69.7728 52.2148 69.2132C51.7931 68.7505 51.2683 68.3958 50.8432 67.9339C51.2787 67.5844 51.6794 67.1954 52.0791 66.8103C52.5438 66.326 53.0711 65.8748 53.702 65.6267C54.9467 65.4766 55.9765 66.3223 56.8972 67.0359C57.33 67.4521 57.7174 67.9172 58.0571 68.4135C58.5682 69.0971 58.7266 69.95 58.8532 70.7755C58.8329 71.084 58.7614 71.5197 58.3733 71.5507C57.8319 71.7507 57.2165 71.5506 56.824 71.1507C55.7702 70.0981 55.1431 68.5152 55.4908 67.0329C55.2743 66.9036 55.0564 66.7763 54.8385 66.6491C54.5811 67.0087 54.4389 67.4313 54.4944 67.8779C54.5762 68.4063 54.4356 69.0025 54.786 69.4578C55.0947 70.7794 56.009 71.9886 57.3128 72.4434C57.6029 72.4552 57.8928 72.4743 58.1806 72.492C57.8387 72.7631 57.4964 73.0325 57.1524 73.3023C56.9941 73.3937 56.8363 73.4869 56.6792 73.5835C56.4765 73.6724 56.2745 73.7648 56.0737 73.8624C53.8978 75.2506 52.2126 77.3692 49.7816 78.3661C48.7838 78.7374 47.8459 79.2888 46.789 79.4834C46.7226 79.5445 46.5915 79.6663 46.525 79.7274C45.9919 79.8358 45.4576 79.9555 44.9331 80.1096C44.2358 80.5615 43.3595 80.5552 42.582 80.8024C41.9463 81.0297 41.2814 80.8849 40.6271 80.8493C40.612 80.7521 40.5818 80.5577 40.5667 80.4606C40.263 80.4135 39.9491 80.4018 39.6504 80.3207C38.572 79.4788 37.8808 78.2053 37.6798 76.8589C36.9579 74.509 37.5536 71.9281 38.7793 69.857C39.4424 69.0743 40.0843 68.2636 40.8817 67.6109C41.0331 67.49 41.1846 67.369 41.3325 67.2488C41.4952 67.1527 41.6587 67.06 41.8225 66.9691C42.0527 66.7769 42.2836 66.5881 42.5175 66.4042C42.7714 66.2431 43.015 66.0697 43.2565 65.895C44.5231 65.0627 45.7845 64.2242 47.102 63.4698C48.5052 62.6187 49.8393 61.6591 51.2417 60.8046C52.2596 60.2511 53.1436 59.498 54.1183 58.8758C54.7589 58.4955 55.4452 58.1942 56.1897 58.0974C56.1449 58.8069 55.9318 59.493 55.8925 60.2031C55.7535 61.7177 56.06 63.2118 56.4455 64.6675C56.7149 64.6053 56.9842 64.5431 57.2509 64.4852C57.1182 63.7362 56.8009 63.0041 56.8646 62.2335C56.7202 61.3938 56.7059 60.5314 56.8751 59.6944C56.8986 59.5187 56.9165 59.3426 56.933 59.1685C57.3143 57.728 58.2503 56.5345 59.2482 55.4659C59.5587 56.7156 59.8022 57.9845 60.1388 59.2282C60.7407 60.7017 61.436 62.1756 62.4484 63.4134C62.4459 63.8624 62.4706 64.3106 62.4794 64.7606C62.4697 65.2259 62.4681 65.6948 62.4476 66.1608C62.5016 68.2897 62.7462 70.4112 63.3746 72.4514C63.8698 73.7482 64.5391 74.9664 65.2564 76.1551C65.3686 76.2921 65.479 76.4295 65.5894 76.5669C65.9577 77.1554 66.3803 77.7094 66.7942 78.2654C68.2847 79.8779 69.7028 81.5967 71.5126 82.8718C72.3618 83.5689 73.2813 84.1986 74.2899 84.6429C76.1668 85.725 78.2979 86.2909 80.4297 86.5985C80.6465 86.5942 80.8608 86.5869 81.0751 86.5795C81.7342 86.6598 82.3938 86.5203 83.0504 86.5737C83.8357 86.4235 84.61 86.2338 85.3848 86.0384C85.2688 85.7815 85.1483 85.5293 85.0178 85.2812C82.1021 86.1209 78.8985 85.7056 76.1348 84.5244C71.9585 82.7817 68.7073 79.4252 66.1395 75.7865C64.7714 73.9354 63.887 71.7456 63.5348 69.4751C63.6201 68.9246 63.3671 68.3918 63.4195 67.8417C63.3826 67.5153 63.3317 67.1921 63.3403 66.8643C63.2034 65.6056 63.5392 64.3091 63.2072 63.0772C62.2807 61.7756 61.5508 60.35 60.9167 58.8876C60.5169 57.4333 60.1701 55.9632 60.0854 54.4545C60.1016 54.0334 60.0149 53.6179 60.0147 53.197C60.0512 52.4198 60.0177 51.6406 60.021 50.862C59.9739 50.547 59.9247 50.2308 59.9724 49.9141C59.7901 48.9185 59.5514 47.9322 59.3066 46.9509C58.9551 46.0309 58.4895 45.1556 57.9848 44.3094C56.9815 42.6907 55.6671 41.2865 54.6896 39.6527C54.5606 39.4427 54.4347 39.2302 54.2995 39.0253C54.0931 38.6465 53.8998 38.261 53.6968 37.8814C52.9587 36.2856 52.6852 34.5222 52.5189 32.7871C52.534 32.4798 52.5175 32.1706 52.4997 31.8636C52.5014 31.5777 52.4789 31.29 52.4551 31.0045C52.4921 29.0797 52.6933 26.9944 53.9547 25.4421C54.2715 25.4111 54.5907 25.4381 54.9079 25.4326ZM57.5941 28.2203C58.0431 28.9366 58.2327 29.7658 58.622 30.5087C57.7853 30.4676 56.7861 30.5317 56.2152 29.7869C55.8291 29.272 55.3656 28.6835 55.3947 28.0088C55.2958 27.208 55.6425 26.4581 55.769 25.6822C56.5616 26.3722 57.0979 27.3081 57.5941 28.2203ZM58.8891 75.0061C59.5841 74.9719 60.2602 75.1416 60.7987 75.5956C61.064 76.1896 61.453 76.7331 61.5972 77.3733C61.9015 78.4378 61.6822 79.5573 61.3918 80.598C60.3324 79.5926 59.6012 78.2331 59.4385 76.7754C59.4011 76.2642 59.6028 75.7033 59.2871 75.2473C59.1221 75.2781 58.7892 75.3421 58.6229 75.375C58.5513 75.9607 58.4841 76.5656 58.6433 77.1438C58.8401 77.8854 58.9083 78.6804 59.3137 79.3501C59.7246 80.1392 60.3081 80.8354 60.9701 81.4275C60.9108 81.5986 60.8514 81.7697 60.7904 81.9412C60.3547 82.2577 60.1751 82.7879 59.8023 83.1631C58.8248 84.2087 57.6178 84.998 56.3993 85.7369C55.9269 85.9979 55.4444 86.2465 54.9577 86.4852C54.4454 86.8267 53.8957 87.1092 53.3357 87.363C53.1217 87.4984 52.9051 87.6307 52.6902 87.77C50.0542 89.2187 48.0087 91.6237 45.1202 92.6291C44.7123 92.7251 44.2877 92.6859 43.8712 92.7052C42.3071 92.6289 41.0411 91.4423 40.3532 90.1113C39.7548 88.9463 39.1978 87.715 39.0941 86.3938C39.0884 86.0363 39.0447 85.6804 38.9896 85.3307C39.02 84.7966 39.0301 84.2617 39.1132 83.7337C39.221 83.3446 39.319 82.9522 39.4036 82.5575C39.601 82.263 39.7958 81.9655 39.9897 81.6718C40.2575 81.7216 40.5208 81.7761 40.7859 81.8302C41.035 81.8313 41.2819 81.8383 41.528 81.8657C42.4114 81.6965 43.2885 81.4922 44.1574 81.2605C44.6347 80.8941 45.2814 80.9205 45.7942 80.6209C46.401 80.3161 47.1544 80.4002 47.7028 79.9771C48.8135 79.7463 49.8498 79.2801 50.8953 78.8539C51.5528 78.5227 52.1562 78.0686 52.879 77.8853C53.597 77.65 54.1432 76.8686 54.9643 77.0085C56.0752 77.0558 56.9174 77.9211 57.5825 78.7248C57.4432 79.1285 57.8606 79.2792 58.1076 79.4931C58.2749 79.3775 58.4401 79.2607 58.6053 79.1439C58.5313 77.7608 57.2718 76.959 56.1969 76.3304C56.396 76.2332 56.5911 76.1351 56.7858 76.0352C57.4246 75.734 58.0163 75.3082 58.7262 75.1883C58.7668 75.1423 58.8485 75.0521 58.8891 75.0061ZM60.8837 83.3124C60.83 84.0551 61.083 84.7782 61.2774 85.4856C61.7989 86.4999 62.69 87.2679 63.6221 87.8964C63.9896 88.1721 64.4618 88.1802 64.8953 88.1076C64.8433 87.8268 64.7857 87.5454 64.7267 87.2662C64.6496 87.273 64.4962 87.2828 64.4187 87.2879C63.9684 86.9782 63.479 86.7215 63.0738 86.3538C62.5948 85.9281 62.3292 85.3324 61.9525 84.8264C61.9404 84.4174 61.5201 83.8811 61.876 83.5519C64.0265 83.8369 65.9666 85.6603 66.2126 87.8438C66.3729 88.57 66.1288 89.2962 65.9728 90.0002C65.363 91.3069 64.3615 92.4148 63.1647 93.2164C61.7194 94.0991 60.1969 94.8533 58.7436 95.725C57.6724 96.4757 56.6003 97.2228 55.5404 97.991C55.2382 98.1724 54.9368 98.3573 54.6366 98.5474C53.026 99.5543 51.0986 100.212 49.1917 99.8081C48.3533 99.5221 47.5751 99.0685 46.9559 98.4318C46.081 97.2666 45.7414 95.8351 45.5004 94.4265C45.5663 94.0855 45.4911 93.7441 45.4392 93.4084C45.8046 93.3185 46.1705 93.2304 46.5292 93.1274C47.156 92.7979 47.8015 92.5024 48.3855 92.0986C49.111 91.4753 49.9467 90.9969 50.6422 90.3385C51.8374 89.2371 53.2525 88.4217 54.682 87.6689C54.9461 87.5128 55.2173 87.3715 55.4826 87.2205C55.8166 87.0263 56.1577 86.8469 56.5029 86.6775C57.0317 86.6451 57.5685 86.5999 58.0912 86.7153C58.8941 86.8557 59.5065 87.4391 60.212 87.7997C60.2572 87.8606 60.3454 87.9812 60.3902 88.0404C60.91 88.4603 61.2752 89.0276 61.6499 89.5725C61.8651 89.8943 62.079 90.2183 62.2947 90.5419C62.501 90.4924 62.7057 90.4434 62.9107 90.396C62.9369 90.2399 62.9505 90.0849 62.9516 89.9309C62.5647 89.1984 62.0596 88.5408 61.5172 87.9193C61.2575 87.6114 60.9785 87.3226 60.707 87.0265C59.9018 86.4401 59.0059 85.9843 58.0288 85.7633C58.3343 85.4933 58.661 85.2513 59.0028 85.0352C59.6796 84.5184 60.3784 84.0093 60.8837 83.3124ZM68.3528 91.3982C68.6417 91.6902 68.9566 91.9524 69.2512 92.2376C69.4363 92.6268 69.6508 93.0092 69.723 93.441C69.9014 94.174 69.6303 94.9101 69.5018 95.6298C69.1675 96.148 68.864 96.6885 68.5041 97.1907C67.5561 98.4198 66.2779 99.3207 65.0964 100.307C64.5579 100.9 63.8517 101.345 63.4268 102.042C62.9123 102.865 62.3832 103.681 61.8862 104.517C61.5696 105.064 61.2054 105.611 60.6508 105.944C60.4216 106.085 60.1992 106.231 59.9812 106.397C59.6097 106.413 59.2361 106.404 58.8652 106.439C56.4584 105.86 54.2506 104.296 53.0696 102.097C52.8486 101.568 52.779 100.99 52.6424 100.437C52.9573 100.343 53.2718 100.246 53.5697 100.11C54.1209 99.8652 54.658 99.5912 55.1752 99.2869C56.5578 98.3784 57.8855 97.391 59.2546 96.4636C60.103 95.9291 60.9863 95.458 61.8444 94.9415C62.1432 94.7535 62.4407 94.5677 62.7371 94.3766C63.6705 94.5986 64.5913 94.9643 65.2601 95.6811C65.5311 96.0304 65.785 96.3927 66.0392 96.7568C66.0721 96.8517 66.1379 97.0415 66.1708 97.1364C66.3916 97.0781 66.6111 97.0219 66.831 96.9675C66.8335 96.7564 66.8872 96.5372 66.8065 96.3381C66.3697 95.4927 65.6887 94.8025 64.8987 94.2821C64.5373 94.1276 64.2094 93.9123 63.8956 93.679C64.3419 93.3289 64.7784 92.9683 65.2263 92.6251C65.5917 92.2497 65.9516 91.8665 66.2249 91.4172C65.9769 92.2377 66.6397 92.9284 66.9086 93.657C67.161 93.9099 67.4168 94.1619 67.656 94.4288C68.0817 94.6874 68.5501 95.0277 69.0762 94.9282C69.4711 94.934 69.6278 94.3049 69.2224 94.1898C68.397 93.9045 67.7053 93.3028 67.3053 92.5295C67.1569 92.0293 67.0372 91.5188 66.9587 91.0044C67.4379 90.8681 67.9038 91.2529 68.3528 91.3982Z"/>
</mask>
<path d="M55.7072 24.2176C55.052 24.3048 54.3565 24.2018 53.7408 24.4995C52.7794 25.1077 52.3373 26.2292 52.1018 27.2939C51.628 29.4513 51.5918 31.6888 51.7441 33.8866C51.9318 34.9451 52.2058 35.9891 52.4511 37.0361C52.9842 38.4413 53.6214 39.8297 54.5117 41.0463C54.6097 41.2012 54.709 41.354 54.8101 41.5063C55.2597 42.0742 55.6435 42.6903 56.118 43.2396C56.5833 43.9229 57.1322 44.5484 57.5295 45.2784C57.884 45.8866 58.3182 46.4672 58.5161 47.1499C58.7814 48.3149 59.1455 49.4718 59.1371 50.6798C59.1748 51.9926 59.057 53.3137 59.2068 54.6207C58.4654 54.8102 58.0761 55.5022 57.5358 55.9765C57.2379 56.3985 57.0007 56.8614 56.6832 57.2697C55.9882 57.3038 55.2802 57.3685 54.6308 57.6392C54.0999 57.932 53.5962 58.2715 53.0822 58.5897C52.3703 59.0103 51.7225 59.5259 51.0018 59.9321C50.6096 60.1599 50.2195 60.3964 49.818 60.6153C47.5122 62.147 45.1913 63.6602 42.8787 65.186C42.049 65.7382 41.2623 66.3499 40.4266 66.8924C40.1143 67.1329 39.807 67.3795 39.5001 67.6279C38.8158 68.4137 37.9802 69.1227 37.6181 70.1306C36.3125 72.5697 36.1683 75.5204 36.9818 78.1402C37.442 79.079 37.9107 80.0232 38.6251 80.8027C38.7833 80.9016 38.9416 81.0005 39.0981 81.0998C38.8963 81.6369 38.6173 82.1405 38.3876 82.6676C38.2023 83.6328 38.0262 84.6142 38.1186 85.6013C38.0792 86.4213 38.425 87.198 38.5568 87.9985C38.6541 88.666 38.9743 89.2601 39.2013 89.8867C39.573 90.7435 40.1516 91.4738 40.7474 92.1836C41.0939 92.4477 41.4138 92.7472 41.7674 93.0024C42.6741 93.4336 43.6613 93.548 44.6491 93.6329C44.5394 94.6319 44.9462 95.5776 45.1203 96.5458C45.2301 97.172 45.4395 97.7698 45.7308 98.3339C46.2816 98.9517 46.7512 99.6779 47.4988 100.078C48.7719 100.892 50.4096 101.041 51.8416 100.607C51.8957 101.896 52.5418 103.101 53.341 104.097C53.9478 104.942 54.8701 105.441 55.6521 106.093C56.5864 106.533 57.4967 107.075 58.5305 107.248C59.3143 107.44 60.1052 107.196 60.8906 107.157C61.9234 106.692 63.0511 106.455 64.0704 105.971C64.4932 105.844 64.9216 105.741 65.3492 105.635C66.5099 104.963 67.677 104.294 68.8791 103.698C70.0623 103.195 71.1838 102.559 72.2147 101.792C73.2091 101.2 74.1459 100.517 75.1 99.861C76.5887 98.8493 78.0268 97.7614 79.5862 96.8578C79.734 96.7687 79.8809 96.6836 80.03 96.5998C81.6329 95.7026 83.2767 94.8472 85.0329 94.3045C85.8729 94.1856 86.595 93.7059 87.4297 93.5718C88.5943 93.3523 89.7311 92.9251 90.9273 92.9217C92.0338 92.6882 93.175 92.5181 94.2047 92.0314C94.6672 91.8862 95.1433 91.8001 95.6074 91.6618C96.5183 91.2392 97.4511 90.8482 98.28 90.2688C99.4108 89.5301 100.166 88.3528 100.618 87.1026C100.828 86.4337 100.758 85.7195 100.868 85.0354C100.802 84.0531 100.703 83.071 100.713 82.0879C100.63 81.6127 100.456 81.135 100.547 80.6492C100.472 79.8959 100.086 79.1687 100.201 78.4064C99.8902 76.8694 99.5011 75.3505 99.1628 73.8216C99.0959 73.4051 98.8754 73.0442 98.7388 72.6511C98.4887 71.7736 98.3593 70.8646 98.0796 69.9939C97.4292 68.8098 97.5431 67.345 96.9126 66.1361C96.6964 65.2472 96.3413 64.4067 96.052 63.5419C95.7804 62.8652 95.2825 62.2938 95.1251 61.5724C94.5737 61.3245 93.9957 61.1358 93.3876 61.1023C92.1995 60.974 91.0105 61.1753 89.8402 61.354C89.3622 61.3051 88.8808 61.2972 88.4014 61.3292C88.0921 61.2579 87.7805 61.1926 87.4674 61.1367C86.2899 60.9437 85.21 60.4042 84.1577 59.8656C83.2802 59.5209 82.5031 58.9536 81.7448 58.4039C78.5914 56.1688 75.6972 53.4235 73.7527 50.0509C73.4969 49.6561 73.22 49.2734 72.972 48.8731C72.5218 48.1278 71.9757 47.4193 71.2753 46.891C70.8133 46.3406 70.0124 46.3279 69.4908 45.8919C69.1404 45.2224 68.7194 44.6039 68.2548 44.0102C67.3226 43.0248 66.438 41.968 65.8386 40.7429C65.4727 40.0458 65.1312 39.3358 64.7491 38.648C64.377 37.7657 63.7866 36.9997 63.4018 36.1259C62.2046 34.2462 60.9889 32.3654 59.4914 30.707C59.3993 30.3476 59.3089 29.9878 59.2033 29.6333C58.9343 29.2213 58.8789 28.7198 58.6444 28.2908C57.9472 26.7533 56.8716 25.4239 55.7072 24.2176ZM54.9079 25.4326C54.7612 25.8672 54.6265 26.3065 54.5193 26.754C54.2927 28.0399 54.5896 29.4685 55.5351 30.4088C56.1853 30.934 56.9506 31.4107 57.8189 31.3823C58.7307 31.6294 59.5893 32.1852 60.1477 32.9549C60.5047 33.4472 60.8732 33.9332 61.1973 34.4495C61.1026 35.0936 60.6925 35.5763 60.1716 35.9364C60.2108 36.0902 60.2861 36.4004 60.3252 36.5543C60.6181 36.483 60.9118 36.4152 61.2037 36.3478C61.415 36.0025 61.6305 35.6599 61.8315 35.3097C62.016 35.657 62.2215 35.992 62.4322 36.3259C62.2181 36.5401 62.035 36.7855 61.8622 37.0359C61.7496 37.0637 61.5272 37.115 61.4143 37.1411C61.3619 37.2154 61.2528 37.3614 61.2 37.434C61.2307 37.5587 61.2936 37.8077 61.326 37.932C61.6831 37.9173 62.0371 37.8649 62.3873 37.8041C62.5916 37.5794 62.7892 37.349 62.9752 37.1083C63.2359 37.6668 63.5009 38.2279 63.8398 38.7445C64.1577 39.416 64.4791 40.0867 64.804 40.7566C64.846 40.8512 64.9303 41.0422 64.9727 41.1386C65.4448 42.0417 65.9841 42.9348 66.7371 43.6359C67.1302 44.0466 67.461 44.512 67.8282 44.9451C68.2244 45.3771 68.4363 45.9303 68.7533 46.4154C69.3165 46.968 70.1403 47.1036 70.7549 47.5859C70.6062 48.2022 70.1895 48.6645 69.6749 49.012C69.2973 49.1047 68.9212 49.2117 68.5575 49.3487C68.5888 49.508 68.6552 49.8276 68.6883 49.9866C69.8095 50.0864 71.1989 49.4216 71.3547 48.2179C71.7591 48.7011 72.2204 49.1455 72.5424 49.6916C72.407 49.7393 72.1348 49.8369 71.9994 49.8847C71.7262 50.1838 71.4271 50.4579 71.1301 50.7333C70.8239 50.8021 70.519 50.8689 70.2111 50.9381C69.6577 50.7767 68.9809 50.4772 68.5341 51.0233C68.6237 51.1417 68.8015 51.3807 68.891 51.4991C69.2998 51.5969 69.7055 51.6973 70.1096 51.8144C70.7911 51.6827 71.474 51.5251 72.0842 51.1792C72.4359 50.8637 72.7012 50.4749 72.9541 50.0797C72.9855 50.1841 73.0466 50.3933 73.078 50.4977C73.2236 50.7002 73.36 50.9103 73.499 51.1161C73.6373 51.3661 73.7816 51.6109 73.9181 51.8613C74.1679 52.2612 74.4097 52.6666 74.6787 53.0547C75.2645 53.6973 75.757 54.4274 76.4044 55.0118C76.6714 55.3125 76.9526 55.6027 77.2333 55.8911C78.178 56.8041 79.1735 57.6596 80.2309 58.4423C81.3693 59.2428 82.5904 59.9181 83.7536 60.6837C85.5393 61.6404 87.5578 62.3128 89.6079 62.0683C90.6907 61.9464 91.782 61.8135 92.8746 61.8925C93.2193 61.9904 93.5599 62.1021 93.9066 62.185C94.351 62.4924 94.6766 62.9278 95.0245 63.3325C95.3456 63.8276 95.4697 64.4048 95.6178 64.9672C96.1159 65.793 96.0988 66.8127 96.4143 67.7117C96.9452 68.5683 96.9057 69.65 97.2483 70.5867C97.8882 71.6304 97.694 72.993 98.3392 74.0356C98.676 75.3598 98.9772 76.6959 99.264 78.0334C99.1388 78.9262 99.6515 79.7596 99.6428 80.6492C99.6384 81.1298 99.7701 81.5972 99.8477 82.068C99.7913 82.5532 99.9536 83.0263 99.9302 83.5113C100.034 85.0065 100.053 86.6455 99.1744 87.9356C98.7086 88.8429 97.9162 89.5017 97.0893 90.066C95.066 91.1243 92.8566 91.7259 90.6188 92.1327C90.3657 92.0905 90.1069 92.0953 89.8587 92.1618C88.8713 92.3879 87.8877 92.6223 86.9008 92.8428C84.6994 93.5579 82.4825 94.3168 80.4574 95.4706C78.3911 96.5407 76.4395 97.8148 74.5328 99.1482C74.3796 99.2696 74.2264 99.391 74.0723 99.5162C73.2729 99.9698 72.5631 100.566 71.7417 100.988C71.2482 101.292 70.7526 101.595 70.2282 101.844C68.8386 102.659 67.4214 103.426 65.9596 104.102C65.2874 104.456 64.5715 104.717 63.8777 105.025C63.5796 105.193 63.253 105.292 62.9324 105.41C62.685 105.551 62.4193 105.653 62.1509 105.759C62.8377 104.453 63.5991 103.16 64.6349 102.098C65.5 101.049 66.6915 100.351 67.6343 99.3846C68.6892 98.4602 69.7544 97.4218 70.2661 96.0866C70.3328 95.9156 70.4038 95.7473 70.4769 95.5804C70.6057 94.9887 70.7985 94.3732 70.6451 93.7644C70.4824 93.0753 70.3889 92.3374 69.9543 91.755C69.4876 90.9861 68.6334 90.6159 67.9051 90.1489C67.5958 90.0776 67.288 89.9968 66.9816 89.9064C67.0294 89.6062 67.0695 89.3041 67.1195 89.0052C67.1734 88.2479 67.0902 87.4911 67.0151 86.7379C66.9502 86.6705 66.8181 86.5344 66.751 86.4657C66.618 85.5173 65.8831 84.8469 65.2961 84.1514C64.2442 83.2577 62.9467 82.6641 61.576 82.4663C61.9787 81.7529 62.2931 80.9903 62.4612 80.1882C62.5837 79.6091 62.6775 79.0164 62.6635 78.4248C62.4986 77.5203 62.2621 76.6305 62.0472 75.7393C61.4953 74.7997 60.5685 73.8771 59.3966 73.9537C59.1826 73.9463 58.9695 73.9589 58.7564 73.9953C57.675 74.4243 56.655 74.9929 55.6768 75.6232C55.3789 75.7835 55.0784 75.9408 54.7989 76.1334C54.756 76.114 54.6693 76.0791 54.6263 76.0598C55.2077 75.4863 55.8327 74.943 56.5896 74.6145C57.394 74.2458 58.2246 73.8637 58.8407 73.2108C59.3249 72.7476 59.5652 72.1156 59.7161 71.4768C59.733 71.019 59.6915 70.5619 59.7516 70.1087C59.3994 69.0114 58.8913 67.9756 58.156 67.082C57.1911 66.1133 56.1329 65.0654 54.7306 64.8181C53.9901 64.6706 53.2668 64.8596 52.5715 65.1061C51.9563 64.2964 51.9403 63.2917 51.85 62.3297C51.5882 62.3846 51.3246 62.44 51.0597 62.4975C50.9657 63.6045 51.2731 64.7379 51.8678 65.6731C51.1091 66.4138 50.3382 67.1573 49.4291 67.7149C49.0258 67.9179 48.6177 68.1164 48.2051 68.3032C47.9473 68.5183 47.6869 68.7303 47.4244 68.941C46.7192 68.875 46.0107 68.8903 45.3052 68.8628C43.4196 68.9083 41.6141 69.4752 39.7844 69.8739C39.7815 70.1546 39.7859 70.4354 39.7925 70.7176C40.9862 70.4658 42.1649 70.1406 43.3629 69.9152C44.085 69.8638 44.8042 69.8003 45.5278 69.7632C45.9635 69.7797 46.4023 69.7937 46.8355 69.8548C46.7126 70.2657 46.6258 70.6902 46.6777 71.1211C46.8869 71.1314 47.0961 71.1417 47.3039 71.1541C47.6178 70.3495 47.9411 69.5062 48.7171 69.0305C49.1174 68.8539 49.5098 68.659 49.9212 68.5146C51.0222 69.1371 51.893 70.1184 52.4404 71.2531C52.7217 71.869 52.895 72.5482 52.8546 73.2293C53.0936 73.218 53.3318 73.2033 53.5682 73.189C53.6135 73.0998 53.7024 72.9219 53.7477 72.8327C53.608 72.2354 53.4821 71.6348 53.3198 71.0427C52.9471 70.4351 52.6606 69.7728 52.2148 69.2132C51.7931 68.7505 51.2683 68.3958 50.8432 67.9339C51.2787 67.5844 51.6794 67.1954 52.0791 66.8103C52.5438 66.326 53.0711 65.8748 53.702 65.6267C54.9467 65.4766 55.9765 66.3223 56.8972 67.0359C57.33 67.4521 57.7174 67.9172 58.0571 68.4135C58.5682 69.0971 58.7266 69.95 58.8532 70.7755C58.8329 71.084 58.7614 71.5197 58.3733 71.5507C57.8319 71.7507 57.2165 71.5506 56.824 71.1507C55.7702 70.0981 55.1431 68.5152 55.4908 67.0329C55.2743 66.9036 55.0564 66.7763 54.8385 66.6491C54.5811 67.0087 54.4389 67.4313 54.4944 67.8779C54.5762 68.4063 54.4356 69.0025 54.786 69.4578C55.0947 70.7794 56.009 71.9886 57.3128 72.4434C57.6029 72.4552 57.8928 72.4743 58.1806 72.492C57.8387 72.7631 57.4964 73.0325 57.1524 73.3023C56.9941 73.3937 56.8363 73.4869 56.6792 73.5835C56.4765 73.6724 56.2745 73.7648 56.0737 73.8624C53.8978 75.2506 52.2126 77.3692 49.7816 78.3661C48.7838 78.7374 47.8459 79.2888 46.789 79.4834C46.7226 79.5445 46.5915 79.6663 46.525 79.7274C45.9919 79.8358 45.4576 79.9555 44.9331 80.1096C44.2358 80.5615 43.3595 80.5552 42.582 80.8024C41.9463 81.0297 41.2814 80.8849 40.6271 80.8493C40.612 80.7521 40.5818 80.5577 40.5667 80.4606C40.263 80.4135 39.9491 80.4018 39.6504 80.3207C38.572 79.4788 37.8808 78.2053 37.6798 76.8589C36.9579 74.509 37.5536 71.9281 38.7793 69.857C39.4424 69.0743 40.0843 68.2636 40.8817 67.6109C41.0331 67.49 41.1846 67.369 41.3325 67.2488C41.4952 67.1527 41.6587 67.06 41.8225 66.9691C42.0527 66.7769 42.2836 66.5881 42.5175 66.4042C42.7714 66.2431 43.015 66.0697 43.2565 65.895C44.5231 65.0627 45.7845 64.2242 47.102 63.4698C48.5052 62.6187 49.8393 61.6591 51.2417 60.8046C52.2596 60.2511 53.1436 59.498 54.1183 58.8758C54.7589 58.4955 55.4452 58.1942 56.1897 58.0974C56.1449 58.8069 55.9318 59.493 55.8925 60.2031C55.7535 61.7177 56.06 63.2118 56.4455 64.6675C56.7149 64.6053 56.9842 64.5431 57.2509 64.4852C57.1182 63.7362 56.8009 63.0041 56.8646 62.2335C56.7202 61.3938 56.7059 60.5314 56.8751 59.6944C56.8986 59.5187 56.9165 59.3426 56.933 59.1685C57.3143 57.728 58.2503 56.5345 59.2482 55.4659C59.5587 56.7156 59.8022 57.9845 60.1388 59.2282C60.7407 60.7017 61.436 62.1756 62.4484 63.4134C62.4459 63.8624 62.4706 64.3106 62.4794 64.7606C62.4697 65.2259 62.4681 65.6948 62.4476 66.1608C62.5016 68.2897 62.7462 70.4112 63.3746 72.4514C63.8698 73.7482 64.5391 74.9664 65.2564 76.1551C65.3686 76.2921 65.479 76.4295 65.5894 76.5669C65.9577 77.1554 66.3803 77.7094 66.7942 78.2654C68.2847 79.8779 69.7028 81.5967 71.5126 82.8718C72.3618 83.5689 73.2813 84.1986 74.2899 84.6429C76.1668 85.725 78.2979 86.2909 80.4297 86.5985C80.6465 86.5942 80.8608 86.5869 81.0751 86.5795C81.7342 86.6598 82.3938 86.5203 83.0504 86.5737C83.8357 86.4235 84.61 86.2338 85.3848 86.0384C85.2688 85.7815 85.1483 85.5293 85.0178 85.2812C82.1021 86.1209 78.8985 85.7056 76.1348 84.5244C71.9585 82.7817 68.7073 79.4252 66.1395 75.7865C64.7714 73.9354 63.887 71.7456 63.5348 69.4751C63.6201 68.9246 63.3671 68.3918 63.4195 67.8417C63.3826 67.5153 63.3317 67.1921 63.3403 66.8643C63.2034 65.6056 63.5392 64.3091 63.2072 63.0772C62.2807 61.7756 61.5508 60.35 60.9167 58.8876C60.5169 57.4333 60.1701 55.9632 60.0854 54.4545C60.1016 54.0334 60.0149 53.6179 60.0147 53.197C60.0512 52.4198 60.0177 51.6406 60.021 50.862C59.9739 50.547 59.9247 50.2308 59.9724 49.9141C59.7901 48.9185 59.5514 47.9322 59.3066 46.9509C58.9551 46.0309 58.4895 45.1556 57.9848 44.3094C56.9815 42.6907 55.6671 41.2865 54.6896 39.6527C54.5606 39.4427 54.4347 39.2302 54.2995 39.0253C54.0931 38.6465 53.8998 38.261 53.6968 37.8814C52.9587 36.2856 52.6852 34.5222 52.5189 32.7871C52.534 32.4798 52.5175 32.1706 52.4997 31.8636C52.5014 31.5777 52.4789 31.29 52.4551 31.0045C52.4921 29.0797 52.6933 26.9944 53.9547 25.4421C54.2715 25.4111 54.5907 25.4381 54.9079 25.4326ZM57.5941 28.2203C58.0431 28.9366 58.2327 29.7658 58.622 30.5087C57.7853 30.4676 56.7861 30.5317 56.2152 29.7869C55.8291 29.272 55.3656 28.6835 55.3947 28.0088C55.2958 27.208 55.6425 26.4581 55.769 25.6822C56.5616 26.3722 57.0979 27.3081 57.5941 28.2203ZM58.8891 75.0061C59.5841 74.9719 60.2602 75.1416 60.7987 75.5956C61.064 76.1896 61.453 76.7331 61.5972 77.3733C61.9015 78.4378 61.6822 79.5573 61.3918 80.598C60.3324 79.5926 59.6012 78.2331 59.4385 76.7754C59.4011 76.2642 59.6028 75.7033 59.2871 75.2473C59.1221 75.2781 58.7892 75.3421 58.6229 75.375C58.5513 75.9607 58.4841 76.5656 58.6433 77.1438C58.8401 77.8854 58.9083 78.6804 59.3137 79.3501C59.7246 80.1392 60.3081 80.8354 60.9701 81.4275C60.9108 81.5986 60.8514 81.7697 60.7904 81.9412C60.3547 82.2577 60.1751 82.7879 59.8023 83.1631C58.8248 84.2087 57.6178 84.998 56.3993 85.7369C55.9269 85.9979 55.4444 86.2465 54.9577 86.4852C54.4454 86.8267 53.8957 87.1092 53.3357 87.363C53.1217 87.4984 52.9051 87.6307 52.6902 87.77C50.0542 89.2187 48.0087 91.6237 45.1202 92.6291C44.7123 92.7251 44.2877 92.6859 43.8712 92.7052C42.3071 92.6289 41.0411 91.4423 40.3532 90.1113C39.7548 88.9463 39.1978 87.715 39.0941 86.3938C39.0884 86.0363 39.0447 85.6804 38.9896 85.3307C39.02 84.7966 39.0301 84.2617 39.1132 83.7337C39.221 83.3446 39.319 82.9522 39.4036 82.5575C39.601 82.263 39.7958 81.9655 39.9897 81.6718C40.2575 81.7216 40.5208 81.7761 40.7859 81.8302C41.035 81.8313 41.2819 81.8383 41.528 81.8657C42.4114 81.6965 43.2885 81.4922 44.1574 81.2605C44.6347 80.8941 45.2814 80.9205 45.7942 80.6209C46.401 80.3161 47.1544 80.4002 47.7028 79.9771C48.8135 79.7463 49.8498 79.2801 50.8953 78.8539C51.5528 78.5227 52.1562 78.0686 52.879 77.8853C53.597 77.65 54.1432 76.8686 54.9643 77.0085C56.0752 77.0558 56.9174 77.9211 57.5825 78.7248C57.4432 79.1285 57.8606 79.2792 58.1076 79.4931C58.2749 79.3775 58.4401 79.2607 58.6053 79.1439C58.5313 77.7608 57.2718 76.959 56.1969 76.3304C56.396 76.2332 56.5911 76.1351 56.7858 76.0352C57.4246 75.734 58.0163 75.3082 58.7262 75.1883C58.7668 75.1423 58.8485 75.0521 58.8891 75.0061ZM60.8837 83.3124C60.83 84.0551 61.083 84.7782 61.2774 85.4856C61.7989 86.4999 62.69 87.2679 63.6221 87.8964C63.9896 88.1721 64.4618 88.1802 64.8953 88.1076C64.8433 87.8268 64.7857 87.5454 64.7267 87.2662C64.6496 87.273 64.4962 87.2828 64.4187 87.2879C63.9684 86.9782 63.479 86.7215 63.0738 86.3538C62.5948 85.9281 62.3292 85.3324 61.9525 84.8264C61.9404 84.4174 61.5201 83.8811 61.876 83.5519C64.0265 83.8369 65.9666 85.6603 66.2126 87.8438C66.3729 88.57 66.1288 89.2962 65.9728 90.0002C65.363 91.3069 64.3615 92.4148 63.1647 93.2164C61.7194 94.0991 60.1969 94.8533 58.7436 95.725C57.6724 96.4757 56.6003 97.2228 55.5404 97.991C55.2382 98.1724 54.9368 98.3573 54.6366 98.5474C53.026 99.5543 51.0986 100.212 49.1917 99.8081C48.3533 99.5221 47.5751 99.0685 46.9559 98.4318C46.081 97.2666 45.7414 95.8351 45.5004 94.4265C45.5663 94.0855 45.4911 93.7441 45.4392 93.4084C45.8046 93.3185 46.1705 93.2304 46.5292 93.1274C47.156 92.7979 47.8015 92.5024 48.3855 92.0986C49.111 91.4753 49.9467 90.9969 50.6422 90.3385C51.8374 89.2371 53.2525 88.4217 54.682 87.6689C54.9461 87.5128 55.2173 87.3715 55.4826 87.2205C55.8166 87.0263 56.1577 86.8469 56.5029 86.6775C57.0317 86.6451 57.5685 86.5999 58.0912 86.7153C58.8941 86.8557 59.5065 87.4391 60.212 87.7997C60.2572 87.8606 60.3454 87.9812 60.3902 88.0404C60.91 88.4603 61.2752 89.0276 61.6499 89.5725C61.8651 89.8943 62.079 90.2183 62.2947 90.5419C62.501 90.4924 62.7057 90.4434 62.9107 90.396C62.9369 90.2399 62.9505 90.0849 62.9516 89.9309C62.5647 89.1984 62.0596 88.5408 61.5172 87.9193C61.2575 87.6114 60.9785 87.3226 60.707 87.0265C59.9018 86.4401 59.0059 85.9843 58.0288 85.7633C58.3343 85.4933 58.661 85.2513 59.0028 85.0352C59.6796 84.5184 60.3784 84.0093 60.8837 83.3124ZM68.3528 91.3982C68.6417 91.6902 68.9566 91.9524 69.2512 92.2376C69.4363 92.6268 69.6508 93.0092 69.723 93.441C69.9014 94.174 69.6303 94.9101 69.5018 95.6298C69.1675 96.148 68.864 96.6885 68.5041 97.1907C67.5561 98.4198 66.2779 99.3207 65.0964 100.307C64.5579 100.9 63.8517 101.345 63.4268 102.042C62.9123 102.865 62.3832 103.681 61.8862 104.517C61.5696 105.064 61.2054 105.611 60.6508 105.944C60.4216 106.085 60.1992 106.231 59.9812 106.397C59.6097 106.413 59.2361 106.404 58.8652 106.439C56.4584 105.86 54.2506 104.296 53.0696 102.097C52.8486 101.568 52.779 100.99 52.6424 100.437C52.9573 100.343 53.2718 100.246 53.5697 100.11C54.1209 99.8652 54.658 99.5912 55.1752 99.2869C56.5578 98.3784 57.8855 97.391 59.2546 96.4636C60.103 95.9291 60.9863 95.458 61.8444 94.9415C62.1432 94.7535 62.4407 94.5677 62.7371 94.3766C63.6705 94.5986 64.5913 94.9643 65.2601 95.6811C65.5311 96.0304 65.785 96.3927 66.0392 96.7568C66.0721 96.8517 66.1379 97.0415 66.1708 97.1364C66.3916 97.0781 66.6111 97.0219 66.831 96.9675C66.8335 96.7564 66.8872 96.5372 66.8065 96.3381C66.3697 95.4927 65.6887 94.8025 64.8987 94.2821C64.5373 94.1276 64.2094 93.9123 63.8956 93.679C64.3419 93.3289 64.7784 92.9683 65.2263 92.6251C65.5917 92.2497 65.9516 91.8665 66.2249 91.4172C65.9769 92.2377 66.6397 92.9284 66.9086 93.657C67.161 93.9099 67.4168 94.1619 67.656 94.4288C68.0817 94.6874 68.5501 95.0277 69.0762 94.9282C69.4711 94.934 69.6278 94.3049 69.2224 94.1898C68.397 93.9045 67.7053 93.3028 67.3053 92.5295C67.1569 92.0293 67.0372 91.5188 66.9587 91.0044C67.4379 90.8681 67.9038 91.2529 68.3528 91.3982Z" fill="black"/>
<path d="M55.7072 24.2176C55.052 24.3048 54.3565 24.2018 53.7408 24.4995C52.7794 25.1077 52.3373 26.2292 52.1018 27.2939C51.628 29.4513 51.5918 31.6888 51.7441 33.8866C51.9318 34.9451 52.2058 35.9891 52.4511 37.0361C52.9842 38.4413 53.6214 39.8297 54.5117 41.0463C54.6097 41.2012 54.709 41.354 54.8101 41.5063C55.2597 42.0742 55.6435 42.6903 56.118 43.2396C56.5833 43.9229 57.1322 44.5484 57.5295 45.2784C57.884 45.8866 58.3182 46.4672 58.5161 47.1499C58.7814 48.3149 59.1455 49.4718 59.1371 50.6798C59.1748 51.9926 59.057 53.3137 59.2068 54.6207C58.4654 54.8102 58.0761 55.5022 57.5358 55.9765C57.2379 56.3985 57.0007 56.8614 56.6832 57.2697C55.9882 57.3038 55.2802 57.3685 54.6308 57.6392C54.0999 57.932 53.5962 58.2715 53.0822 58.5897C52.3703 59.0103 51.7225 59.5259 51.0018 59.9321C50.6096 60.1599 50.2195 60.3964 49.818 60.6153C47.5122 62.147 45.1913 63.6602 42.8787 65.186C42.049 65.7382 41.2623 66.3499 40.4266 66.8924C40.1143 67.1329 39.807 67.3795 39.5001 67.6279C38.8158 68.4137 37.9802 69.1227 37.6181 70.1306C36.3125 72.5697 36.1683 75.5204 36.9818 78.1402C37.442 79.079 37.9107 80.0232 38.6251 80.8027C38.7833 80.9016 38.9416 81.0005 39.0981 81.0998C38.8963 81.6369 38.6173 82.1405 38.3876 82.6676C38.2023 83.6328 38.0262 84.6142 38.1186 85.6013C38.0792 86.4213 38.425 87.198 38.5568 87.9985C38.6541 88.666 38.9743 89.2601 39.2013 89.8867C39.573 90.7435 40.1516 91.4738 40.7474 92.1836C41.0939 92.4477 41.4138 92.7472 41.7674 93.0024C42.6741 93.4336 43.6613 93.548 44.6491 93.6329C44.5394 94.6319 44.9462 95.5776 45.1203 96.5458C45.2301 97.172 45.4395 97.7698 45.7308 98.3339C46.2816 98.9517 46.7512 99.6779 47.4988 100.078C48.7719 100.892 50.4096 101.041 51.8416 100.607C51.8957 101.896 52.5418 103.101 53.341 104.097C53.9478 104.942 54.8701 105.441 55.6521 106.093C56.5864 106.533 57.4967 107.075 58.5305 107.248C59.3143 107.44 60.1052 107.196 60.8906 107.157C61.9234 106.692 63.0511 106.455 64.0704 105.971C64.4932 105.844 64.9216 105.741 65.3492 105.635C66.5099 104.963 67.677 104.294 68.8791 103.698C70.0623 103.195 71.1838 102.559 72.2147 101.792C73.2091 101.2 74.1459 100.517 75.1 99.861C76.5887 98.8493 78.0268 97.7614 79.5862 96.8578C79.734 96.7687 79.8809 96.6836 80.03 96.5998C81.6329 95.7026 83.2767 94.8472 85.0329 94.3045C85.8729 94.1856 86.595 93.7059 87.4297 93.5718C88.5943 93.3523 89.7311 92.9251 90.9273 92.9217C92.0338 92.6882 93.175 92.5181 94.2047 92.0314C94.6672 91.8862 95.1433 91.8001 95.6074 91.6618C96.5183 91.2392 97.4511 90.8482 98.28 90.2688C99.4108 89.5301 100.166 88.3528 100.618 87.1026C100.828 86.4337 100.758 85.7195 100.868 85.0354C100.802 84.0531 100.703 83.071 100.713 82.0879C100.63 81.6127 100.456 81.135 100.547 80.6492C100.472 79.8959 100.086 79.1687 100.201 78.4064C99.8902 76.8694 99.5011 75.3505 99.1628 73.8216C99.0959 73.4051 98.8754 73.0442 98.7388 72.6511C98.4887 71.7736 98.3593 70.8646 98.0796 69.9939C97.4292 68.8098 97.5431 67.345 96.9126 66.1361C96.6964 65.2472 96.3413 64.4067 96.052 63.5419C95.7804 62.8652 95.2825 62.2938 95.1251 61.5724C94.5737 61.3245 93.9957 61.1358 93.3876 61.1023C92.1995 60.974 91.0105 61.1753 89.8402 61.354C89.3622 61.3051 88.8808 61.2972 88.4014 61.3292C88.0921 61.2579 87.7805 61.1926 87.4674 61.1367C86.2899 60.9437 85.21 60.4042 84.1577 59.8656C83.2802 59.5209 82.5031 58.9536 81.7448 58.4039C78.5914 56.1688 75.6972 53.4235 73.7527 50.0509C73.4969 49.6561 73.22 49.2734 72.972 48.8731C72.5218 48.1278 71.9757 47.4193 71.2753 46.891C70.8133 46.3406 70.0124 46.3279 69.4908 45.8919C69.1404 45.2224 68.7194 44.6039 68.2548 44.0102C67.3226 43.0248 66.438 41.968 65.8386 40.7429C65.4727 40.0458 65.1312 39.3358 64.7491 38.648C64.377 37.7657 63.7866 36.9997 63.4018 36.1259C62.2046 34.2462 60.9889 32.3654 59.4914 30.707C59.3993 30.3476 59.3089 29.9878 59.2033 29.6333C58.9343 29.2213 58.8789 28.7198 58.6444 28.2908C57.9472 26.7533 56.8716 25.4239 55.7072 24.2176ZM54.9079 25.4326C54.7612 25.8672 54.6265 26.3065 54.5193 26.754C54.2927 28.0399 54.5896 29.4685 55.5351 30.4088C56.1853 30.934 56.9506 31.4107 57.8189 31.3823C58.7307 31.6294 59.5893 32.1852 60.1477 32.9549C60.5047 33.4472 60.8732 33.9332 61.1973 34.4495C61.1026 35.0936 60.6925 35.5763 60.1716 35.9364C60.2108 36.0902 60.2861 36.4004 60.3252 36.5543C60.6181 36.483 60.9118 36.4152 61.2037 36.3478C61.415 36.0025 61.6305 35.6599 61.8315 35.3097C62.016 35.657 62.2215 35.992 62.4322 36.3259C62.2181 36.5401 62.035 36.7855 61.8622 37.0359C61.7496 37.0637 61.5272 37.115 61.4143 37.1411C61.3619 37.2154 61.2528 37.3614 61.2 37.434C61.2307 37.5587 61.2936 37.8077 61.326 37.932C61.6831 37.9173 62.0371 37.8649 62.3873 37.8041C62.5916 37.5794 62.7892 37.349 62.9752 37.1083C63.2359 37.6668 63.5009 38.2279 63.8398 38.7445C64.1577 39.416 64.4791 40.0867 64.804 40.7566C64.846 40.8512 64.9303 41.0422 64.9727 41.1386C65.4448 42.0417 65.9841 42.9348 66.7371 43.6359C67.1302 44.0466 67.461 44.512 67.8282 44.9451C68.2244 45.3771 68.4363 45.9303 68.7533 46.4154C69.3165 46.968 70.1403 47.1036 70.7549 47.5859C70.6062 48.2022 70.1895 48.6645 69.6749 49.012C69.2973 49.1047 68.9212 49.2117 68.5575 49.3487C68.5888 49.508 68.6552 49.8276 68.6883 49.9866C69.8095 50.0864 71.1989 49.4216 71.3547 48.2179C71.7591 48.7011 72.2204 49.1455 72.5424 49.6916C72.407 49.7393 72.1348 49.8369 71.9994 49.8847C71.7262 50.1838 71.4271 50.4579 71.1301 50.7333C70.8239 50.8021 70.519 50.8689 70.2111 50.9381C69.6577 50.7767 68.9809 50.4772 68.5341 51.0233C68.6237 51.1417 68.8015 51.3807 68.891 51.4991C69.2998 51.5969 69.7055 51.6973 70.1096 51.8144C70.7911 51.6827 71.474 51.5251 72.0842 51.1792C72.4359 50.8637 72.7012 50.4749 72.9541 50.0797C72.9855 50.1841 73.0466 50.3933 73.078 50.4977C73.2236 50.7002 73.36 50.9103 73.499 51.1161C73.6373 51.3661 73.7816 51.6109 73.9181 51.8613C74.1679 52.2612 74.4097 52.6666 74.6787 53.0547C75.2645 53.6973 75.757 54.4274 76.4044 55.0118C76.6714 55.3125 76.9526 55.6027 77.2333 55.8911C78.178 56.8041 79.1735 57.6596 80.2309 58.4423C81.3693 59.2428 82.5904 59.9181 83.7536 60.6837C85.5393 61.6404 87.5578 62.3128 89.6079 62.0683C90.6907 61.9464 91.782 61.8135 92.8746 61.8925C93.2193 61.9904 93.5599 62.1021 93.9066 62.185C94.351 62.4924 94.6766 62.9278 95.0245 63.3325C95.3456 63.8276 95.4697 64.4048 95.6178 64.9672C96.1159 65.793 96.0988 66.8127 96.4143 67.7117C96.9452 68.5683 96.9057 69.65 97.2483 70.5867C97.8882 71.6304 97.694 72.993 98.3392 74.0356C98.676 75.3598 98.9772 76.6959 99.264 78.0334C99.1388 78.9262 99.6515 79.7596 99.6428 80.6492C99.6384 81.1298 99.7701 81.5972 99.8477 82.068C99.7913 82.5532 99.9536 83.0263 99.9302 83.5113C100.034 85.0065 100.053 86.6455 99.1744 87.9356C98.7086 88.8429 97.9162 89.5017 97.0893 90.066C95.066 91.1243 92.8566 91.7259 90.6188 92.1327C90.3657 92.0905 90.1069 92.0953 89.8587 92.1618C88.8713 92.3879 87.8877 92.6223 86.9008 92.8428C84.6994 93.5579 82.4825 94.3168 80.4574 95.4706C78.3911 96.5407 76.4395 97.8148 74.5328 99.1482C74.3796 99.2696 74.2264 99.391 74.0723 99.5162C73.2729 99.9698 72.5631 100.566 71.7417 100.988C71.2482 101.292 70.7526 101.595 70.2282 101.844C68.8386 102.659 67.4214 103.426 65.9596 104.102C65.2874 104.456 64.5715 104.717 63.8777 105.025C63.5796 105.193 63.253 105.292 62.9324 105.41C62.685 105.551 62.4193 105.653 62.1509 105.759C62.8377 104.453 63.5991 103.16 64.6349 102.098C65.5 101.049 66.6915 100.351 67.6343 99.3846C68.6892 98.4602 69.7544 97.4218 70.2661 96.0866C70.3328 95.9156 70.4038 95.7473 70.4769 95.5804C70.6057 94.9887 70.7985 94.3732 70.6451 93.7644C70.4824 93.0753 70.3889 92.3374 69.9543 91.755C69.4876 90.9861 68.6334 90.6159 67.9051 90.1489C67.5958 90.0776 67.288 89.9968 66.9816 89.9064C67.0294 89.6062 67.0695 89.3041 67.1195 89.0052C67.1734 88.2479 67.0902 87.4911 67.0151 86.7379C66.9502 86.6705 66.8181 86.5344 66.751 86.4657C66.618 85.5173 65.8831 84.8469 65.2961 84.1514C64.2442 83.2577 62.9467 82.6641 61.576 82.4663C61.9787 81.7529 62.2931 80.9903 62.4612 80.1882C62.5837 79.6091 62.6775 79.0164 62.6635 78.4248C62.4986 77.5203 62.2621 76.6305 62.0472 75.7393C61.4953 74.7997 60.5685 73.8771 59.3966 73.9537C59.1826 73.9463 58.9695 73.9589 58.7564 73.9953C57.675 74.4243 56.655 74.9929 55.6768 75.6232C55.3789 75.7835 55.0784 75.9408 54.7989 76.1334C54.756 76.114 54.6693 76.0791 54.6263 76.0598C55.2077 75.4863 55.8327 74.943 56.5896 74.6145C57.394 74.2458 58.2246 73.8637 58.8407 73.2108C59.3249 72.7476 59.5652 72.1156 59.7161 71.4768C59.733 71.019 59.6915 70.5619 59.7516 70.1087C59.3994 69.0114 58.8913 67.9756 58.156 67.082C57.1911 66.1133 56.1329 65.0654 54.7306 64.8181C53.9901 64.6706 53.2668 64.8596 52.5715 65.1061C51.9563 64.2964 51.9403 63.2917 51.85 62.3297C51.5882 62.3846 51.3246 62.44 51.0597 62.4975C50.9657 63.6045 51.2731 64.7379 51.8678 65.6731C51.1091 66.4138 50.3382 67.1573 49.4291 67.7149C49.0258 67.9179 48.6177 68.1164 48.2051 68.3032C47.9473 68.5183 47.6869 68.7303 47.4244 68.941C46.7192 68.875 46.0107 68.8903 45.3052 68.8628C43.4196 68.9083 41.6141 69.4752 39.7844 69.8739C39.7815 70.1546 39.7859 70.4354 39.7925 70.7176C40.9862 70.4658 42.1649 70.1406 43.3629 69.9152C44.085 69.8638 44.8042 69.8003 45.5278 69.7632C45.9635 69.7797 46.4023 69.7937 46.8355 69.8548C46.7126 70.2657 46.6258 70.6902 46.6777 71.1211C46.8869 71.1314 47.0961 71.1417 47.3039 71.1541C47.6178 70.3495 47.9411 69.5062 48.7171 69.0305C49.1174 68.8539 49.5098 68.659 49.9212 68.5146C51.0222 69.1371 51.893 70.1184 52.4404 71.2531C52.7217 71.869 52.895 72.5482 52.8546 73.2293C53.0936 73.218 53.3318 73.2033 53.5682 73.189C53.6135 73.0998 53.7024 72.9219 53.7477 72.8327C53.608 72.2354 53.4821 71.6348 53.3198 71.0427C52.9471 70.4351 52.6606 69.7728 52.2148 69.2132C51.7931 68.7505 51.2683 68.3958 50.8432 67.9339C51.2787 67.5844 51.6794 67.1954 52.0791 66.8103C52.5438 66.326 53.0711 65.8748 53.702 65.6267C54.9467 65.4766 55.9765 66.3223 56.8972 67.0359C57.33 67.4521 57.7174 67.9172 58.0571 68.4135C58.5682 69.0971 58.7266 69.95 58.8532 70.7755C58.8329 71.084 58.7614 71.5197 58.3733 71.5507C57.8319 71.7507 57.2165 71.5506 56.824 71.1507C55.7702 70.0981 55.1431 68.5152 55.4908 67.0329C55.2743 66.9036 55.0564 66.7763 54.8385 66.6491C54.5811 67.0087 54.4389 67.4313 54.4944 67.8779C54.5762 68.4063 54.4356 69.0025 54.786 69.4578C55.0947 70.7794 56.009 71.9886 57.3128 72.4434C57.6029 72.4552 57.8928 72.4743 58.1806 72.492C57.8387 72.7631 57.4964 73.0325 57.1524 73.3023C56.9941 73.3937 56.8363 73.4869 56.6792 73.5835C56.4765 73.6724 56.2745 73.7648 56.0737 73.8624C53.8978 75.2506 52.2126 77.3692 49.7816 78.3661C48.7838 78.7374 47.8459 79.2888 46.789 79.4834C46.7226 79.5445 46.5915 79.6663 46.525 79.7274C45.9919 79.8358 45.4576 79.9555 44.9331 80.1096C44.2358 80.5615 43.3595 80.5552 42.582 80.8024C41.9463 81.0297 41.2814 80.8849 40.6271 80.8493C40.612 80.7521 40.5818 80.5577 40.5667 80.4606C40.263 80.4135 39.9491 80.4018 39.6504 80.3207C38.572 79.4788 37.8808 78.2053 37.6798 76.8589C36.9579 74.509 37.5536 71.9281 38.7793 69.857C39.4424 69.0743 40.0843 68.2636 40.8817 67.6109C41.0331 67.49 41.1846 67.369 41.3325 67.2488C41.4952 67.1527 41.6587 67.06 41.8225 66.9691C42.0527 66.7769 42.2836 66.5881 42.5175 66.4042C42.7714 66.2431 43.015 66.0697 43.2565 65.895C44.5231 65.0627 45.7845 64.2242 47.102 63.4698C48.5052 62.6187 49.8393 61.6591 51.2417 60.8046C52.2596 60.2511 53.1436 59.498 54.1183 58.8758C54.7589 58.4955 55.4452 58.1942 56.1897 58.0974C56.1449 58.8069 55.9318 59.493 55.8925 60.2031C55.7535 61.7177 56.06 63.2118 56.4455 64.6675C56.7149 64.6053 56.9842 64.5431 57.2509 64.4852C57.1182 63.7362 56.8009 63.0041 56.8646 62.2335C56.7202 61.3938 56.7059 60.5314 56.8751 59.6944C56.8986 59.5187 56.9165 59.3426 56.933 59.1685C57.3143 57.728 58.2503 56.5345 59.2482 55.4659C59.5587 56.7156 59.8022 57.9845 60.1388 59.2282C60.7407 60.7017 61.436 62.1756 62.4484 63.4134C62.4459 63.8624 62.4706 64.3106 62.4794 64.7606C62.4697 65.2259 62.4681 65.6948 62.4476 66.1608C62.5016 68.2897 62.7462 70.4112 63.3746 72.4514C63.8698 73.7482 64.5391 74.9664 65.2564 76.1551C65.3686 76.2921 65.479 76.4295 65.5894 76.5669C65.9577 77.1554 66.3803 77.7094 66.7942 78.2654C68.2847 79.8779 69.7028 81.5967 71.5126 82.8718C72.3618 83.5689 73.2813 84.1986 74.2899 84.6429C76.1668 85.725 78.2979 86.2909 80.4297 86.5985C80.6465 86.5942 80.8608 86.5869 81.0751 86.5795C81.7342 86.6598 82.3938 86.5203 83.0504 86.5737C83.8357 86.4235 84.61 86.2338 85.3848 86.0384C85.2688 85.7815 85.1483 85.5293 85.0178 85.2812C82.1021 86.1209 78.8985 85.7056 76.1348 84.5244C71.9585 82.7817 68.7073 79.4252 66.1395 75.7865C64.7714 73.9354 63.887 71.7456 63.5348 69.4751C63.6201 68.9246 63.3671 68.3918 63.4195 67.8417C63.3826 67.5153 63.3317 67.1921 63.3403 66.8643C63.2034 65.6056 63.5392 64.3091 63.2072 63.0772C62.2807 61.7756 61.5508 60.35 60.9167 58.8876C60.5169 57.4333 60.1701 55.9632 60.0854 54.4545C60.1016 54.0334 60.0149 53.6179 60.0147 53.197C60.0512 52.4198 60.0177 51.6406 60.021 50.862C59.9739 50.547 59.9247 50.2308 59.9724 49.9141C59.7901 48.9185 59.5514 47.9322 59.3066 46.9509C58.9551 46.0309 58.4895 45.1556 57.9848 44.3094C56.9815 42.6907 55.6671 41.2865 54.6896 39.6527C54.5606 39.4427 54.4347 39.2302 54.2995 39.0253C54.0931 38.6465 53.8998 38.261 53.6968 37.8814C52.9587 36.2856 52.6852 34.5222 52.5189 32.7871C52.534 32.4798 52.5175 32.1706 52.4997 31.8636C52.5014 31.5777 52.4789 31.29 52.4551 31.0045C52.4921 29.0797 52.6933 26.9944 53.9547 25.4421C54.2715 25.4111 54.5907 25.4381 54.9079 25.4326ZM57.5941 28.2203C58.0431 28.9366 58.2327 29.7658 58.622 30.5087C57.7853 30.4676 56.7861 30.5317 56.2152 29.7869C55.8291 29.272 55.3656 28.6835 55.3947 28.0088C55.2958 27.208 55.6425 26.4581 55.769 25.6822C56.5616 26.3722 57.0979 27.3081 57.5941 28.2203ZM58.8891 75.0061C59.5841 74.9719 60.2602 75.1416 60.7987 75.5956C61.064 76.1896 61.453 76.7331 61.5972 77.3733C61.9015 78.4378 61.6822 79.5573 61.3918 80.598C60.3324 79.5926 59.6012 78.2331 59.4385 76.7754C59.4011 76.2642 59.6028 75.7033 59.2871 75.2473C59.1221 75.2781 58.7892 75.3421 58.6229 75.375C58.5513 75.9607 58.4841 76.5656 58.6433 77.1438C58.8401 77.8854 58.9083 78.6804 59.3137 79.3501C59.7246 80.1392 60.3081 80.8354 60.9701 81.4275C60.9108 81.5986 60.8514 81.7697 60.7904 81.9412C60.3547 82.2577 60.1751 82.7879 59.8023 83.1631C58.8248 84.2087 57.6178 84.998 56.3993 85.7369C55.9269 85.9979 55.4444 86.2465 54.9577 86.4852C54.4454 86.8267 53.8957 87.1092 53.3357 87.363C53.1217 87.4984 52.9051 87.6307 52.6902 87.77C50.0542 89.2187 48.0087 91.6237 45.1202 92.6291C44.7123 92.7251 44.2877 92.6859 43.8712 92.7052C42.3071 92.6289 41.0411 91.4423 40.3532 90.1113C39.7548 88.9463 39.1978 87.715 39.0941 86.3938C39.0884 86.0363 39.0447 85.6804 38.9896 85.3307C39.02 84.7966 39.0301 84.2617 39.1132 83.7337C39.221 83.3446 39.319 82.9522 39.4036 82.5575C39.601 82.263 39.7958 81.9655 39.9897 81.6718C40.2575 81.7216 40.5208 81.7761 40.7859 81.8302C41.035 81.8313 41.2819 81.8383 41.528 81.8657C42.4114 81.6965 43.2885 81.4922 44.1574 81.2605C44.6347 80.8941 45.2814 80.9205 45.7942 80.6209C46.401 80.3161 47.1544 80.4002 47.7028 79.9771C48.8135 79.7463 49.8498 79.2801 50.8953 78.8539C51.5528 78.5227 52.1562 78.0686 52.879 77.8853C53.597 77.65 54.1432 76.8686 54.9643 77.0085C56.0752 77.0558 56.9174 77.9211 57.5825 78.7248C57.4432 79.1285 57.8606 79.2792 58.1076 79.4931C58.2749 79.3775 58.4401 79.2607 58.6053 79.1439C58.5313 77.7608 57.2718 76.959 56.1969 76.3304C56.396 76.2332 56.5911 76.1351 56.7858 76.0352C57.4246 75.734 58.0163 75.3082 58.7262 75.1883C58.7668 75.1423 58.8485 75.0521 58.8891 75.0061ZM60.8837 83.3124C60.83 84.0551 61.083 84.7782 61.2774 85.4856C61.7989 86.4999 62.69 87.2679 63.6221 87.8964C63.9896 88.1721 64.4618 88.1802 64.8953 88.1076C64.8433 87.8268 64.7857 87.5454 64.7267 87.2662C64.6496 87.273 64.4962 87.2828 64.4187 87.2879C63.9684 86.9782 63.479 86.7215 63.0738 86.3538C62.5948 85.9281 62.3292 85.3324 61.9525 84.8264C61.9404 84.4174 61.5201 83.8811 61.876 83.5519C64.0265 83.8369 65.9666 85.6603 66.2126 87.8438C66.3729 88.57 66.1288 89.2962 65.9728 90.0002C65.363 91.3069 64.3615 92.4148 63.1647 93.2164C61.7194 94.0991 60.1969 94.8533 58.7436 95.725C57.6724 96.4757 56.6003 97.2228 55.5404 97.991C55.2382 98.1724 54.9368 98.3573 54.6366 98.5474C53.026 99.5543 51.0986 100.212 49.1917 99.8081C48.3533 99.5221 47.5751 99.0685 46.9559 98.4318C46.081 97.2666 45.7414 95.8351 45.5004 94.4265C45.5663 94.0855 45.4911 93.7441 45.4392 93.4084C45.8046 93.3185 46.1705 93.2304 46.5292 93.1274C47.156 92.7979 47.8015 92.5024 48.3855 92.0986C49.111 91.4753 49.9467 90.9969 50.6422 90.3385C51.8374 89.2371 53.2525 88.4217 54.682 87.6689C54.9461 87.5128 55.2173 87.3715 55.4826 87.2205C55.8166 87.0263 56.1577 86.8469 56.5029 86.6775C57.0317 86.6451 57.5685 86.5999 58.0912 86.7153C58.8941 86.8557 59.5065 87.4391 60.212 87.7997C60.2572 87.8606 60.3454 87.9812 60.3902 88.0404C60.91 88.4603 61.2752 89.0276 61.6499 89.5725C61.8651 89.8943 62.079 90.2183 62.2947 90.5419C62.501 90.4924 62.7057 90.4434 62.9107 90.396C62.9369 90.2399 62.9505 90.0849 62.9516 89.9309C62.5647 89.1984 62.0596 88.5408 61.5172 87.9193C61.2575 87.6114 60.9785 87.3226 60.707 87.0265C59.9018 86.4401 59.0059 85.9843 58.0288 85.7633C58.3343 85.4933 58.661 85.2513 59.0028 85.0352C59.6796 84.5184 60.3784 84.0093 60.8837 83.3124ZM68.3528 91.3982C68.6417 91.6902 68.9566 91.9524 69.2512 92.2376C69.4363 92.6268 69.6508 93.0092 69.723 93.441C69.9014 94.174 69.6303 94.9101 69.5018 95.6298C69.1675 96.148 68.864 96.6885 68.5041 97.1907C67.5561 98.4198 66.2779 99.3207 65.0964 100.307C64.5579 100.9 63.8517 101.345 63.4268 102.042C62.9123 102.865 62.3832 103.681 61.8862 104.517C61.5696 105.064 61.2054 105.611 60.6508 105.944C60.4216 106.085 60.1992 106.231 59.9812 106.397C59.6097 106.413 59.2361 106.404 58.8652 106.439C56.4584 105.86 54.2506 104.296 53.0696 102.097C52.8486 101.568 52.779 100.99 52.6424 100.437C52.9573 100.343 53.2718 100.246 53.5697 100.11C54.1209 99.8652 54.658 99.5912 55.1752 99.2869C56.5578 98.3784 57.8855 97.391 59.2546 96.4636C60.103 95.9291 60.9863 95.458 61.8444 94.9415C62.1432 94.7535 62.4407 94.5677 62.7371 94.3766C63.6705 94.5986 64.5913 94.9643 65.2601 95.6811C65.5311 96.0304 65.785 96.3927 66.0392 96.7568C66.0721 96.8517 66.1379 97.0415 66.1708 97.1364C66.3916 97.0781 66.6111 97.0219 66.831 96.9675C66.8335 96.7564 66.8872 96.5372 66.8065 96.3381C66.3697 95.4927 65.6887 94.8025 64.8987 94.2821C64.5373 94.1276 64.2094 93.9123 63.8956 93.679C64.3419 93.3289 64.7784 92.9683 65.2263 92.6251C65.5917 92.2497 65.9516 91.8665 66.2249 91.4172C65.9769 92.2377 66.6397 92.9284 66.9086 93.657C67.161 93.9099 67.4168 94.1619 67.656 94.4288C68.0817 94.6874 68.5501 95.0277 69.0762 94.9282C69.4711 94.934 69.6278 94.3049 69.2224 94.1898C68.397 93.9045 67.7053 93.3028 67.3053 92.5295C67.1569 92.0293 67.0372 91.5188 66.9587 91.0044C67.4379 90.8681 67.9038 91.2529 68.3528 91.3982Z" stroke="black" stroke-width="0.497674" mask="url(#path-6-outside-1_2243_30948)"/>
<path d="M38.7676 73.3363C38.5518 73.3843 38.3363 73.434 38.1191 73.4842C37.9096 74.2335 37.8452 75.0171 37.8926 75.7931C37.8089 76.3817 38.1191 76.9012 38.3613 77.4109C38.6666 77.679 38.9675 77.9517 39.2812 78.2088C39.5195 78.0915 39.7655 77.9835 39.9621 77.8045C39.7498 77.1781 39.0199 76.8946 38.7692 76.2606C38.8013 75.8762 38.7753 75.4942 38.7693 75.1112C38.8323 74.5201 38.9374 73.9212 38.7676 73.3363Z" fill="black"/>
<path d="M41.4921 83.6186C41.204 83.5918 40.9135 83.5783 40.6208 83.5709C40.4411 84.4415 40.2263 85.3659 40.5211 86.2386C40.2197 86.0428 39.7751 85.8453 39.5517 86.2574C39.5976 86.805 39.7537 87.3382 39.8959 87.8672C39.9375 88.1505 40.2864 88.0919 40.4862 88.1647C40.5944 87.975 40.7011 87.7875 40.8058 87.5986C41.0308 88.3593 41.3711 89.1355 41.9713 89.6741C42.1836 89.8959 42.43 89.5444 42.6408 89.4902C42.6058 89.3464 42.5361 89.0605 42.5015 88.9184C42.3627 88.7693 42.224 88.6201 42.0852 88.4709C41.8504 87.9138 41.6353 87.3467 41.3687 86.8025C41.3992 86.3635 41.3178 85.932 41.2217 85.5076C41.3179 84.8778 41.4067 84.2478 41.4921 83.6186Z" fill="black"/>
<path d="M49.0977 94.0922C48.838 94.1485 48.5774 94.2087 48.3167 94.2689C48.4092 94.6301 48.5057 94.9921 48.6617 95.335C49.2011 96.3635 50.0456 97.199 51.0843 97.7187C51.2094 97.6898 51.4579 97.6324 51.5813 97.604C51.6257 97.3997 51.6708 97.1989 51.7195 96.9974C50.907 96.5462 50.1347 96.0235 49.6047 95.2417C49.4373 94.8576 49.2551 94.4805 49.0977 94.0922Z" fill="black"/>
<path d="M47.5215 95.4971C47.3911 95.6059 47.2606 95.7147 47.1271 95.8261C47.3757 96.6728 47.8619 97.4391 48.506 98.0408C48.7343 98.3084 49.0993 98.1454 49.3915 98.1347C49.3345 97.888 49.2758 97.6416 49.2158 97.3974C48.5946 96.9661 48.2553 96.2813 47.9494 95.6143C47.8418 95.5842 47.6291 95.5272 47.5215 95.4971Z" fill="black"/>
<path d="M56.3437 101.163C56.1111 100.821 55.7294 101.094 55.5201 101.306C55.8312 102.519 57.0356 103.137 57.8866 103.946C58.0935 103.914 58.3004 103.883 58.5077 103.854C58.549 103.676 58.5826 103.496 58.6074 103.318C58.3737 103.083 58.0861 102.915 57.8161 102.728C57.2479 102.281 56.7978 101.719 56.3437 101.163Z" fill="black"/>
<path d="M55.5574 102.265C55.3077 102.365 54.9769 102.383 54.8703 102.682C54.9709 103.578 55.6814 104.38 56.5514 104.613C56.8356 104.639 57.1298 104.684 57.4002 104.563C57.4264 104.383 57.4257 104.206 57.3978 104.029C56.9332 103.714 56.3303 103.615 55.986 103.131C55.849 102.839 55.7006 102.553 55.5574 102.265Z" fill="black"/>
</svg>
