<svg width="220" height="216" viewBox="0 0 220 216" fill="none" xmlns="http://www.w3.org/2000/svg">
<g clip-path="url(#clip0_1837_30937)">
<path d="M32.8516 72L46.7882 78L56.2452 61.5L67.1955 73.5L59.7294 79L64.7068 81L83.1231 87.5L84.1185 83.5L85.6117 76.5L87.105 69L86.6072 63.5L74.6615 66.5L62.2181 49L59.7294 45.5L56.2452 44.5L54.2543 45.5L49.7746 49.5L40.3176 60L32.8516 72Z" fill="white"/>
<path d="M56.7399 118.5L65.2015 104L68.1879 110.5L69.6811 115H77.1472L84.6132 113L84.1155 105L82.6223 96H92.0793L94.568 99L98.5499 110.5L102.034 128L94.568 130.5L78.6404 129.5H69.6811L68.1879 139L60.2241 129.5L56.2422 124.5L56.7399 118.5Z" fill="white"/>
<path d="M129.91 61.5L134.39 63L135.883 55.5L139.367 47.5L140.86 42L146.335 40L151.811 36.5L152.806 28.5L156.788 24.5L165.747 22.5L170.227 20L171.72 17L170.227 12.5L168.236 8L162.761 2L156.788 3.5L148.326 5.5L137.874 12.5L124.933 26L120.453 36.5L123.44 43.5V52.5L129.91 61.5Z" fill="white"/>
<path d="M161.268 59.5L162.263 48V46L168.734 49L169.729 55L171.72 60.5L177.693 62L182.173 59.5L186.155 60.5L189.141 64L188.146 67.5L189.141 72L195.114 73L203.078 78L201.584 81.5L200.091 84.5L201.584 89L198.598 94.5L191.63 99L184.164 102.5L177.693 105.5L158.281 104.5L159.774 98L163.259 91.5L165.747 81.5L161.268 73V68.5V59.5Z" fill="white"/>
<path d="M191.133 29L198.599 16L211.042 26.5L213.531 35.5L211.042 37.5L208.056 39L200.092 37.5L194.119 34L191.133 29Z" fill="white" stroke="black"/>
<path d="M8.4638 90L10.9525 93L13.4412 94.5L11.948 98.5L8.4638 108L4.4819 113.5L0.5 126L3.48643 132L6.47285 133L13.9389 135.5L14.9344 133V129L16.4276 125L24.3914 123V121L22.8982 116L27.8756 100H34.3462L29.3688 81.5L21.405 83.5L8.4638 90Z" fill="white"/>
<path d="M31.8557 122.5L27.8738 125V128.5L26.8783 131L25.8828 134.5L29.367 136.5H37.3308L40.3172 134.5V129L39.8195 125H37.3308L35.3398 123.5L34.3444 121.5L31.8557 122.5Z" fill="white"/>
<path d="M117.06 216C117.867 210.407 118.594 204.802 119.499 199.228C121.033 189.761 122.822 180.332 124.243 170.848C125.665 161.363 126.708 151.82 128.028 142.317C128.511 138.851 129.333 135.432 129.965 131.984C130.307 130.132 130.754 128.272 130.801 126.409C130.823 125.527 130.212 124.392 129.529 123.777C127.435 121.888 125.156 120.212 122.971 118.418C122.426 117.971 121.895 117.462 121.502 116.884C118.438 112.385 116.209 107.433 114.33 102.363C112.556 97.5712 111.709 92.5197 112.309 87.3766C112.599 84.8802 113.21 82.4057 113.843 79.9678C114.399 77.8263 115.46 76.0107 117.878 75.8021C115.842 68.4151 113.861 61.1307 113.421 53.6266C113.083 47.8467 114.612 42.6335 117 37C120.363 29.0786 124.496 24.2631 130 18C131.825 15.9245 134.033 13.7021 136.192 12C137.923 10.6346 140.115 8.07512 142.071 6.99527C145.542 5.08081 148.025 4.52075 151.5 2.61728C151.86 2.41962 154.658 1.9231 155 1.99997C159.5 1.49997 161.827 0.463395 166 0.5C171.358 0.547587 176.799 0.351422 181.826 2.61728C183.189 3.23225 184.876 3.08217 186.312 3.58C188.508 4.34139 190.581 6.24441 192.5 7.49997C196.422 10.066 199.014 13.4524 202.5 16.5675C205.743 19.463 209.265 22.9405 211.545 26.7511C215.543 33.4315 218.659 38.6734 219.608 46.4374C220.418 53.0519 219.982 59.5128 218.324 65.8674C217.535 68.8947 216.027 71.7426 214.722 74.6124C214.14 75.8936 213.958 76.6733 215.591 77.226C217.456 77.8556 217.688 79.6456 217.623 81.2636C217.376 87.3657 217.288 93.5007 216.561 99.5552C216.06 103.732 214.871 107.89 213.497 111.884C212.032 116.145 209.927 120.179 208.233 124.366C207.775 125.497 207.593 126.833 207.633 128.067C207.8 133.631 208.793 139.078 209.865 144.536C210.879 149.701 211.366 154.972 212.199 160.177C213.039 165.412 214.166 170.602 214.893 175.848C215.492 180.16 215.663 184.534 216.081 188.872C216.55 193.755 217.132 198.627 217.572 203.51C217.946 207.669 218.193 211.838 218.499 216.004C217.652 216.004 216.801 216.004 215.954 216.004C215.351 209.169 214.802 202.332 214.133 195.505C213.377 187.818 212.573 180.131 211.657 172.462C211.214 168.739 210.447 165.053 209.876 161.345C209.014 155.773 208.153 150.202 207.371 144.624C206.539 138.682 205.564 132.745 205.125 126.771C204.95 124.428 205.674 121.815 206.67 119.644C208.04 116.657 210.468 114.227 211.174 110.822C212.024 106.737 213.5 102.747 213.973 98.6291C214.642 92.8089 214.671 86.9118 214.889 81.0439C214.918 80.3045 214.42 79.5431 214.166 78.7927C213.406 79.1734 212.439 79.3674 211.926 79.9604C209.981 82.2263 208.053 84.6166 207.5 87.5121C206.787 91.2641 207.2 95.4261 206.35 99.1452C205.695 102 204.303 104.446 201.729 106.049C200.759 106.653 197.174 106.561 197.022 105.73C196.8 104.559 197.065 103.157 197.527 102.026C198.021 100.818 199.123 99.8773 199.708 98.6913C200.101 97.8933 200.053 96.8794 200.206 95.9606C200.003 95.8507 199.799 95.7446 199.595 95.6348C198.901 96.0484 197.698 96.473 197.022 96.916C196.164 97.4797 195.876 98.1569 194.971 98.6181C190.66 100.818 187.33 103.754 185.334 108.45C183.062 113.795 182.833 119.241 183.117 124.827C183.309 128.623 183.942 132.416 183.876 136.197C183.753 143.126 183.237 150.048 182.917 156.974C182.317 169.921 181.619 182.869 181.212 195.823C181.001 202.54 181.332 209.279 181.419 216.007C180.448 216.007 179.481 216.007 178.511 216.007C178.547 213.811 178.631 211.615 178.605 209.422C178.54 204.026 178.238 198.624 178.376 193.232C178.503 188.33 179.216 183.451 179.445 178.549C180.038 165.891 180.51 153.229 181.026 140.568C181.175 136.903 181.128 133.294 180.536 129.615C179.983 126.167 180.248 122.551 180.437 119.022C180.641 115.222 180.906 111.39 182.804 107.919C183.277 107.052 183.52 106.06 183.84 105.207C172.992 109.003 161.985 108.578 150.734 106.946C151.675 108.377 152.54 109.585 153.293 110.859C155.874 115.226 155.63 120.003 155.31 124.82C155.027 129.114 154.798 133.415 154.758 137.716C154.7 143.708 154.827 149.704 154.9 155.697C154.98 162.275 155.114 168.849 155.165 175.423C155.205 180.533 155.132 185.64 155.143 190.75C155.161 199.169 155.205 207.588 155.238 216.007C154.027 216.007 152.813 216.007 151.602 216.007C151.606 211.157 151.661 206.307 151.602 201.457C151.53 195.388 151.272 189.318 151.268 183.249C151.261 177.667 151.584 172.088 151.577 166.506C151.573 160.129 151.33 153.757 151.261 147.38C151.213 143.079 151.104 138.767 151.359 134.48C151.602 130.373 152.413 126.306 152.737 122.203C153.285 115.259 151.464 109.373 144.917 105.789C143.968 105.269 143.165 104.486 142.278 103.849C140.584 102.626 139.017 101.082 137.141 100.287C134.851 99.3173 133.277 97.7725 131.859 95.8727C131.463 95.3419 130.914 94.9246 130.434 94.4597C130.252 94.5513 130.071 94.6464 129.889 94.738C130.238 96.8684 130.503 99.0134 130.961 101.118C131.241 102.396 130.921 103.04 129.685 102.579C128.526 102.147 127.235 101.561 126.475 100.65C123.956 97.6261 122.258 94.1596 122.324 90.0964C122.393 85.8941 121.804 81.9298 119.237 78.4303C118.579 77.5335 118.049 77.3175 117.496 78.2693C116.864 79.3564 116.391 80.5461 115.929 81.7211C114.304 85.8685 114.472 90.2831 115.046 94.4707C115.577 98.3582 117.278 102.099 118.587 105.862C120.928 112.587 124.749 118.231 130.896 122.009C133.077 123.349 133.859 125.292 133.757 127.661C133.604 131.241 133.328 134.817 133.073 138.39C132.79 142.372 132.608 146.373 132.117 150.33C131.688 153.811 130.809 157.234 130.278 160.704C129.365 166.678 128.616 172.674 127.719 178.648C127.017 183.315 126.21 187.964 125.403 192.617C125.105 194.344 124.552 196.032 124.33 197.767C123.553 203.84 122.873 209.927 122.153 216.007C120.452 216 118.758 216 117.06 216ZM159.411 99.5332C159.255 98.9951 158.971 98.5449 159.04 98.1605C159.393 96.0887 159.694 93.9912 160.272 91.9779C161.221 88.6834 162.665 85.5061 163.348 82.1641C163.857 79.6712 162.995 77.1601 160.865 75.436C158.862 73.8217 157.455 69.6744 158.302 67.2145C158.833 65.6734 159.589 64.2092 160.174 62.6828C160.407 62.0788 160.727 61.3027 160.542 60.7683C159.247 57.0382 159.64 53.1947 159.8 49.4061C159.858 47.9931 160.723 46.5765 161.385 45.2404C161.788 44.4241 162.468 44.1203 163.49 44.6803C165.002 45.5113 166.602 46.2031 168.226 46.7851C170.426 47.5721 171.386 49.2304 171.738 51.3754C172.073 53.3997 172.124 55.5045 172.716 57.4409C173.192 58.993 173.45 60.8891 175.69 61.3796C177.646 61.8079 177.758 60.0399 178.609 59.2492C180.078 57.8728 183.604 57.1444 185.265 58.3304C186.712 59.3663 187.937 60.7171 189.377 61.7713C190.729 62.7633 191.205 64.0189 190.856 65.5599C190.489 67.1852 189.94 68.7665 189.409 70.5785C190.58 70.8018 191.856 70.864 192.99 71.2996C195.727 72.3539 198.468 73.452 201.086 74.7771C206.095 77.3102 205.415 83.3281 202.704 85.766C202.336 86.0955 202.158 86.6372 201.893 87.0801C202.056 87.2229 202.216 87.3693 202.38 87.5121C202.954 86.9813 203.649 86.5347 204.081 85.9015C205.615 83.6466 208.188 82.3471 209.5 79.9604C210.896 77.4237 212.664 74.0523 213.5 71.2996C214.445 68.1992 216.012 64.1946 216.561 60.977C217.416 55.9474 217.168 49.7904 216.561 44.6803C216.307 42.5316 215.622 40.7929 215 38.7283C214.578 37.33 212.163 37.8718 210.574 38.7283C209.581 39.2664 208.469 39.9839 207.429 39.9546C204.648 39.8777 201.835 39.6508 199.126 39.0651C197.763 38.7686 196.494 37.6778 195.368 36.726C193.764 35.3789 192.445 33.6768 190.791 32.4029C188.988 31.0119 189.718 30.6084 190.791 28.5C192.794 24.5649 194.421 22.3948 196.5 18.5C197.278 17.0431 196.255 13.9722 195.04 13.2804C191.151 11.0511 188.508 7.20758 184 6.19727C181.957 5.73971 178.561 3.92775 176.5 3.58C174.453 3.23591 171.833 2.71978 169.753 2.61728C169.084 2.58434 168.187 3.90479 167.321 3.99997C168.605 6.52573 171.033 10.1616 172.029 12.4641C174.497 18.1672 173.916 22.6001 166.911 23.9984C164.504 24.4779 162.007 24.5511 159.622 25.1112C155.249 26.1398 152.46 31.2792 153.594 35.7011C153.9 36.8944 154.311 38.4648 152.897 39.1566C151.195 39.9912 149.334 40.6428 147.473 40.9576C145.179 41.3456 143.31 42.2461 142.223 44.285C141.209 46.1848 140.289 48.1798 139.664 50.237C138.417 54.3404 137.407 58.5171 136.287 62.6571C135.825 64.3629 133.237 65.8674 131.892 64.8571C129.754 63.2538 127.897 61.2552 126.043 59.3041C125.123 58.3377 124.61 56.9687 123.669 56.0316C121.739 54.1025 121.011 51.9574 121.299 49.2011C121.528 47.0048 121.24 44.7426 121.073 42.5206C121.026 41.8947 120.597 41.298 120.27 40.522C119.954 40.9283 118.044 40.3426 118 40.5C115.263 49.8965 116.369 58.5778 118.587 68C119.812 73.1979 122.509 79.4772 124.858 84.1737C127.508 89.4705 131.975 92.0219 136.287 95.6348C137.378 96.5499 138.913 97.7725 140 98.6913C144.82 102.776 152.279 103.98 158.302 104.5C162.697 104.881 164.098 104.91 168.5 104.5C171.288 104.24 176.814 104.746 179.5 103.816C181.91 102.981 184.596 102.363 187.079 101.118C192.5 98.6913 196.994 93.9299 201 90.5C200.287 88.915 198.886 87.1021 198.396 85.6855C198.25 85.2645 198.523 84.3128 198.846 84.1737C201.202 83.1634 201.024 81.1208 201.104 79.1222C201.18 77.2187 199.784 76.8966 198.454 76.439C198.119 76.3255 197.84 76.051 197.505 75.9229C195.386 75.0993 193.281 74.2207 191.125 73.5106C189.842 73.086 188.446 73.0091 187.141 72.6394C185.618 72.2074 185.221 71.0434 185.69 69.6268C186.072 68.481 186.657 67.4048 187.079 66.2701C187.792 64.352 186.676 62.0239 184.596 60.977C183.247 60.2961 182.048 60.9404 180.71 62.6425C180.048 63.4844 179.027 64.4654 178.078 64.5716C174.196 65.0109 169.953 61.6359 169.074 57.9131C168.575 55.8047 168.277 53.634 168.052 51.4743C167.859 49.633 166.816 48.3006 165.177 47.9235C164.071 47.6673 163.504 48.0407 163.468 49.0913C163.381 51.6719 163.046 54.3112 163.432 56.8296C163.98 60.384 164.526 63.7224 162.123 66.896C161.574 67.6245 161.476 69.1399 161.832 70.0258C162.606 71.9512 163.566 73.9023 164.886 75.4763C167.336 78.3974 167.609 81.6735 166.656 85.0156C165.682 88.4345 164.231 91.729 162.868 95.0235C162.152 96.7073 161.501 98.5266 159.411 99.5332ZM161.294 4.80262C159.258 5.22358 156.932 4.71842 154.5 4.80262C149.865 4.96002 142.881 9.48153 139.664 12C134.382 16.1364 132.041 20.1182 127.511 25.1112C124.836 28.0616 123.2 31.5664 121.073 35C120.815 35.4209 121.56 37.0957 121.869 37.3959C124.4 39.8631 124.93 42.9123 124.814 46.269C124.694 49.7538 124.04 53.4253 127.3 56.0682C127.424 56.167 127.402 56.4306 127.511 56.566C129.009 58.4512 130.514 60.3291 132.324 62.5839C132.786 61.4089 133.059 60.8818 133.204 60.3254C134.211 56.4818 135.131 52.6163 136.192 48.7874C137.905 42.6304 141.158 38.0511 148.08 37.2971C149.97 37.0921 150.425 36.2099 150.054 34.332C149.872 33.4023 149.705 32.3773 149.908 31.4805C150.537 28.7278 151.846 26.3338 153.903 24.3205C156.583 21.6959 160.087 22.1132 163.312 21.4799C164.428 21.2603 165.591 21.1908 166.66 20.8357C168.757 20.1439 170.037 18.5222 169.753 16.9116C169.495 15.4584 169.099 14.0125 168.623 12.6178C168.303 11.6881 167.489 10.8901 167.321 9.95663C166.958 7.92138 165.504 7.05383 163.951 6.19727C163.152 5.75435 162.33 5.34437 161.294 4.80262ZM211.697 34.8079C211.701 34.8189 211.697 34.4528 211.545 34.16C210.243 31.6782 209.029 29.1378 207.564 26.7511C205.732 23.7714 203.223 21.3482 200.606 19.0567C200.021 18.5442 199.268 17.9658 198.679 19.086C196.862 22.5452 195.04 26.0007 193.317 29.5075C193.132 29.8882 193.423 30.7337 193.764 31.1071C194.6 32.0113 195.887 32.5933 196.473 33.6109C198.567 37.2422 203.961 37.8242 207.004 36.5869C208.455 36.0049 209.923 35.4814 211.697 34.8079ZM205.375 90.122C204.528 90.8651 203.812 91.4105 203.198 92.0511C202.544 92.7356 201.984 93.5117 201.402 94.2182C203.289 96.6597 203.205 98.6511 201.315 101.023C200.602 101.916 200.039 102.93 199.41 103.889C202.667 102.725 205.848 94.91 205.375 90.122ZM127.104 96.916C127.446 95.5359 127.813 94.1962 128.097 92.8345C128.177 92.4538 128.133 91.9377 127.926 91.6338C127.41 90.8761 126.788 90.1879 126.163 89.5144C125.941 89.2765 125.596 89.0971 125.279 89.0458C125.17 89.0275 124.836 89.4924 124.858 89.7121C125.116 92.3476 125.33 95.0125 127.104 96.916Z" fill="black"/>
<path d="M64.6995 216C63.9106 211.501 63.1472 207.002 62.3329 202.507C61.4786 197.807 60.5516 193.118 59.7082 188.418C59.421 186.829 59.3338 185.204 59.0793 183.608C58.5704 180.387 57.956 177.18 57.4943 173.955C56.9781 170.342 56.6255 166.707 56.1238 163.094C55.6949 160.001 55.3204 156.883 54.6079 153.848C53.9318 150.953 54.0953 148.163 54.4298 145.253C54.906 141.124 54.9642 136.944 55.1859 133.042C52.7212 132.496 50.4382 132.306 48.4207 131.464C46.0977 130.49 45.1671 128.371 45.916 125.988C44.3637 125.775 43.1495 125.611 41.6227 125.402C41.6227 127.646 41.6336 129.937 41.6154 132.229C41.6118 132.895 41.5754 133.569 41.4882 134.228C41.1683 136.724 40.932 136.874 38.4091 136.98C36.5551 137.057 34.7047 137.28 32.7271 137.449C33.1016 138.327 33.4288 139.092 33.7814 139.912C30.9604 140.871 29.6844 138.54 27.8922 137.625C26.5544 136.944 25.522 135.67 24.3115 134.718C22.9264 133.635 22.9083 132.91 24.1879 131.749C25.5838 130.487 26.798 129.103 26.5908 126.98C26.449 125.545 25.3475 124.286 23.9298 124.41C22.1521 124.567 20.3272 124.802 18.6695 125.409C17.7861 125.732 16.8773 126.797 16.5611 127.723C15.096 131.984 15.5613 135.996 18.1497 139.85C20.1018 142.753 21.6432 145.941 23.3081 149.031C24.6314 151.483 26.1364 153.885 27.0961 156.48C29.3209 162.498 30.5096 168.717 30.3388 175.222C30.2152 179.889 30.7314 184.571 30.7277 189.245C30.7241 193.063 30.2842 196.881 30.2079 200.703C30.1061 205.798 30.1679 210.894 30.1606 215.989C29.19 215.989 28.223 215.989 27.2524 215.989C27.2597 211.216 27.1797 206.442 27.2997 201.673C27.4305 196.456 27.9904 191.244 27.9322 186.035C27.8413 178.128 28.0667 170.163 26.2018 162.388C25.5075 159.493 24.7659 156.538 23.5153 153.863C22.0903 150.817 20.0509 148.064 18.3096 145.165C16.9391 142.885 15.674 140.535 14.2381 138.298C13.8273 137.658 13.053 137.075 12.3296 136.845C9.79216 136.036 7.04388 135.732 4.67368 134.605C1.07839 132.892 -0.433892 129.301 0.118671 125.333C0.554905 122.199 1.46736 119.26 2.85967 116.386C5.93876 110.039 8.74156 103.556 11.7479 97.1721C12.3296 95.9422 11.8461 95.6933 10.9009 95.1772C9.3232 94.3133 7.82183 93.2774 6.3968 92.1719C5.25896 91.286 5.59341 90.3453 6.77487 89.7706C11.1736 87.6292 15.5941 85.5427 20 83.4159C22.3121 82.2995 24.5659 81.0512 26.9252 80.0629C27.6741 79.7481 28.5393 79.2539 29.1791 79.2356C29.8153 79.2173 30.8513 80.213 31.0731 80.956C31.9746 83.954 32.549 87.0545 33.396 90.0707C34.3921 93.6178 35.5518 97.1209 36.6096 100.65C36.7223 101.023 36.7914 101.693 36.6096 101.814C36.2679 102.041 35.6899 102.11 35.2828 101.993C33.8359 101.572 32.4254 101.023 30.9895 100.573C30.546 100.434 30.0589 100.441 29.5136 100.371C28.9392 102.165 28.3975 103.856 27.9577 105.233C29.8735 106.426 31.5493 107.473 32.9962 108.377C34.8211 107.949 36.726 107.023 38.5036 107.22C40.2013 107.407 41.7681 108.761 43.553 109.687C46.4104 107.293 47.759 107.894 50.6636 110.237C51.6924 111.067 52.1795 112.777 52.5394 114.186C52.823 115.288 53.0266 115.738 54.2662 115.566C54.9751 115.467 55.7639 115.951 56.7236 116.232C58.1887 113.597 59.5883 110.866 61.1878 108.26C62.5765 105.998 64.1651 103.86 65.7319 101.711C66.03 101.301 66.8443 100.763 67.0515 100.891C67.6913 101.29 68.5383 101.927 68.6219 102.56C69.0763 106.056 69.3235 109.578 69.6434 113.092C69.6653 113.33 69.6725 113.568 69.6834 113.791C72.05 113.791 74.3948 113.981 76.6886 113.732C78.6335 113.52 80.5384 112.846 82.436 112.286C83.4212 111.997 84.0319 111.587 83.5702 110.171C82.3124 106.327 81.2763 102.41 80.2367 98.5009C79.5678 95.9825 80.3348 94.8953 82.9958 94.8733C86.413 94.8477 89.8411 94.9502 93.2401 95.2577C94.487 95.3712 95.7775 96.063 96.8426 96.7951C97.4752 97.2307 97.9005 98.2154 98.0859 99.028C98.653 101.554 98.9802 104.138 99.5509 106.664C100.442 110.603 101.485 114.508 102.408 118.44C103.03 121.083 103.597 123.737 104.113 126.401C104.429 128.03 103.801 129.128 102.23 129.89C98.3185 131.79 94.2325 131.925 90.0301 131.541C84.9298 131.072 79.8259 130.684 74.7183 130.3C73.5914 130.216 72.4571 130.289 71.2466 130.289C70.6977 134.341 71.3629 138.459 69.9343 142.493C67.5168 141.263 65.6155 139.96 64.5468 137.65C64.2814 137.079 63.6052 136.717 63.2308 136.179C62.2384 134.758 61.3332 133.276 60.3298 131.859C59.8972 131.248 59.3083 130.75 58.5377 129.93C58.2941 134.319 58.1232 138.298 57.8215 142.266C57.7088 143.767 57.3126 145.246 57.0145 146.728C56.3892 149.821 57.069 152.764 57.647 155.81C58.6613 161.176 59.1448 166.642 59.9191 172.052C60.3917 175.35 61.0169 178.626 61.5295 181.921C62.6564 189.165 63.7252 196.416 64.8921 203.653C65.2593 205.941 65.9027 208.185 66.3462 210.465C66.7025 212.299 66.9497 214.151 67.2478 215.996C66.3935 216 65.5465 216 64.6995 216ZM83.6284 98.0836C83.6502 98.4643 83.6066 98.7205 83.6829 98.9365C84.6172 101.653 85.5623 104.365 86.5112 107.078C87.2673 109.245 86.8674 111.404 86.7402 113.623C86.6493 115.204 86.3694 115.929 84.8389 115.943C79.6732 115.991 74.5075 116.075 69.3454 115.965C68.6728 115.951 67.6331 114.984 67.4368 114.27C66.8152 112.038 66.5171 109.713 66.03 107.096C62.402 111.243 59.8754 115.665 57.8506 120.446C56.9963 122.466 57.727 124.077 58.7376 125.483C60.4498 127.862 62.4819 130.014 64.3905 132.251C65.1866 133.184 66.0154 134.092 67.0515 135.264C67.2841 132.807 67.4841 130.717 67.6768 128.623C67.7713 127.591 68.1857 127.225 69.3272 127.328C73.5368 127.701 77.7392 127.877 81.9416 128.649C86.0422 129.403 90.3064 129.385 94.5015 129.432C96.261 129.451 98.613 129.608 99.2564 127.338C99.7836 125.483 100.023 123.341 99.66 121.471C98.962 117.876 97.8278 114.358 96.7227 110.859C95.4358 106.792 94.0325 102.758 92.553 98.7572C92.3458 98.1898 91.426 97.5162 90.8517 97.5272C88.4524 97.5785 86.0604 97.875 83.6284 98.0836ZM23.2354 121.965C22.2176 119.959 21.3414 118.326 20.5635 116.646C20.3708 116.229 20.3381 115.618 20.4835 115.182C21.3378 112.66 22.3266 110.185 23.1591 107.66C24.1479 104.665 24.9876 101.616 25.9801 98.6217C26.369 97.443 26.8998 96.3449 28.5829 97.26C29.5281 97.7761 30.6769 97.9152 31.8983 98.2703C30.3933 93.1309 28.961 88.2405 27.4087 82.94C21.7631 85.5866 16.0485 88.2661 10.1084 91.0481C11.7988 92.3586 13.1839 93.3213 14.4162 94.456C14.8307 94.8404 15.1796 95.7848 14.9979 96.2534C13.8564 99.2367 12.5841 102.169 11.3044 105.094C10.0212 108.026 8.66158 110.925 7.36742 113.853C6.61128 115.563 5.73518 117.25 5.24442 119.04C4.35377 122.305 3.19412 125.614 4.22654 129.052C4.51009 129.996 5.22624 131.12 6.05145 131.522C7.90181 132.43 9.93393 132.994 11.9297 133.554C12.1951 133.627 12.9185 132.943 13.0239 132.511C13.2166 131.709 13.013 130.816 13.1366 129.989C13.6528 126.581 14.9143 123.696 18.6659 122.818C20.0727 122.496 21.5014 122.287 23.2354 121.965ZM38.6599 134.938C38.6599 131.698 38.6599 128.872 38.6599 125.918C36.028 126.193 34.1304 124.955 32.8726 122.807C31.5966 123.74 30.4115 124.611 29.1246 125.552C30.4115 128.535 28.4811 130.783 26.8634 133.225C30.4006 136.764 34.6211 134.041 38.6599 134.938ZM31.8074 117.444C31.3094 114.615 30.9677 112.286 30.4551 109.999C30.317 109.384 29.699 108.472 29.2373 108.432C28.503 108.366 27.147 108.78 27.0379 109.234C26.3109 112.217 23.3663 114.776 25.2021 118.286C25.3293 118.531 25.0749 118.956 25.0931 119.289C25.173 120.687 25.2057 122.221 26.6562 122.902C28.1394 123.597 29.3318 122.587 30.037 121.482C30.8732 120.168 31.3167 118.597 31.8074 117.444ZM41.1174 116.507C40.7938 114.095 40.7248 112.378 40.2667 110.775C40.085 110.141 38.998 109.314 38.3909 109.365C37.3767 109.453 35.8026 109.947 35.5336 110.672C34.2103 114.278 33.7014 118.044 35.3809 121.716C36.5115 124.187 37.7438 124.315 39.1471 121.888C40.1831 120.094 40.6121 117.949 41.1174 116.507ZM43.4003 123.678C49.275 122.734 51.1399 116.47 49.4749 112.312C49.0496 111.254 47.919 109.812 46.6067 110.753C45.407 111.617 44.1783 113.121 43.9384 114.516C43.4222 117.495 43.5421 120.585 43.4003 123.678ZM53.241 117.29C52.1577 119.318 51.1944 121.167 50.1838 122.997C49.6239 124.015 48.7551 124.923 48.4534 125.999C48.108 127.236 47.8281 129.019 49.3113 129.542C50.5546 129.981 52.3577 129.93 53.4628 129.297C54.4698 128.719 54.8733 127.071 55.5204 125.937C54.6225 125.252 53.9608 124.751 53.052 124.055C53.5573 122.781 54.0735 121.463 54.6079 120.153C55.1241 118.879 54.4262 117.572 53.241 117.29Z" fill="black"/>
<path d="M56.3136 63.1002C55.1757 65.5235 54.0815 67.9321 52.9218 70.3114C51.515 73.1886 50.0718 76.0475 48.6068 78.8917C47.9052 80.2534 46.5928 79.9825 45.5495 79.6494C44.3753 79.276 43.3102 78.5293 42.2196 77.907C39.9293 76.6039 37.6573 75.2641 35.3671 73.9683C34.0693 73.2325 32.6951 72.6212 31.4446 71.8159C30.5103 71.2156 30.8084 70.5603 31.6373 69.9893C32.368 69.4878 33.2186 69.0193 33.6948 68.3164C37.0757 63.3089 40.242 58.1439 43.75 53.2278C45.8694 50.2591 48.3559 47.5247 50.9079 44.9111C53.5326 42.2243 56.5171 42.5098 59.3599 44.0069C59.9925 44.34 60.3887 45.138 60.8722 45.742C64.1658 49.8308 67.4921 53.894 70.7202 58.034C71.6763 59.2567 72.3233 60.7209 73.1558 62.046C75.2425 65.3734 77.2019 65.8749 81.2261 64.3009C82.9529 63.6273 84.7306 63.0709 86.5191 62.5841C87.8569 62.218 89.3037 64.1801 88.9693 66.0542C88.3804 69.3451 87.5952 72.6029 86.9844 75.8901C86.3664 79.2102 85.8502 82.5449 85.3158 85.8796C84.945 88.1894 84.4288 88.83 82.1313 88.5298C79.4667 88.1821 76.7039 87.7941 74.25 86.7691C69.2588 84.6863 64.4348 82.1935 59.5708 79.8105C57.7968 78.9429 57.7822 77.9766 59.4544 76.9992C61.1194 76.0255 62.8134 75.0994 64.5075 74.1733C65.4636 73.6498 65.4345 72.9507 64.8165 72.2405C62.2572 69.3121 59.6653 66.4093 57.077 63.5029C56.9606 63.3747 56.7607 63.3308 56.3136 63.1002ZM72.2797 71.1826C72.0034 69.2645 72.1161 67.782 71.5599 66.6326C70.4076 64.2569 68.9789 61.9984 67.5175 59.7948C64.9837 55.9768 62.628 51.9795 59.6653 48.524C56.0627 44.3254 55.841 44.8598 52.8455 48.6778C50.8279 51.2474 48.5122 53.678 47.0181 56.5369C44.6661 61.0357 41.7215 64.8829 37.7627 68.0163C36.6503 68.8985 35.8178 70.1394 34.8872 71.1826C38.388 72.9324 41.5325 74.4368 44.608 76.0694C45.764 76.6807 46.3056 76.1719 46.7819 75.2897C49.3738 70.5018 51.9512 65.7065 54.525 60.9076C55.4338 59.2127 57.1388 59.231 58.382 60.7611C61.5775 64.6962 64.8456 68.5727 68.1537 72.4126C69.2443 73.6828 69.2697 74.1586 67.9101 75.0262C66.3033 76.0511 64.7365 77.142 62.8462 78.4048C69.466 80.9269 75.8605 83.3612 82.3204 85.8211C83.2837 78.9649 84.1998 72.4675 85.1922 65.41C80.899 68.58 76.4167 69.8722 72.2797 71.1826Z" fill="black"/>
</g>
<defs>
<clipPath id="clip0_1837_30937">
<rect width="220" height="216" fill="white"/>
</clipPath>
</defs>
</svg>
