<svg width="222" height="301" viewBox="0 0 222 301" fill="none" xmlns="http://www.w3.org/2000/svg">
<path d="M29.308 91.9062C29.308 91.9062 0.248788 96.192 1.01489 129.384C1.78536 162.571 -2.14581 178.537 33.5631 182.822C54.9482 185.388 75.2563 141.637 67.2013 114.657C61.8036 96.5816 29.308 91.9062 29.308 91.9062Z" fill="white" stroke="black" stroke-width="1.4" stroke-miterlimit="10" stroke-linecap="round" stroke-linejoin="round"/>
<path d="M123.191 127.581C107.278 108.892 107.068 94.1831 96.0579 95.5489C82.1587 97.2694 79.068 111.278 85.2669 120.686C91.4701 130.093 104.647 144.982 106.678 146.527C116.55 154.026 132.708 164.647 138.259 163.158L149.562 146.505C145.784 142.115 125.59 130.395 123.191 127.581Z" fill="white" stroke="black" stroke-width="1.4" stroke-miterlimit="10" stroke-linecap="round" stroke-linejoin="round"/>
<path d="M138.258 163.157L145.993 166.908L157.331 150.277L149.561 146.504L138.258 163.157Z" fill="white" stroke="black" stroke-width="1.4" stroke-miterlimit="10" stroke-linecap="round" stroke-linejoin="round"/>
<path d="M146.758 165.294C146.758 165.294 149.144 166.909 155.491 171.663C161.839 176.422 168.103 177.477 174.118 172.022C180.129 166.576 179.858 162.356 172.936 159.362C170.38 158.259 166.024 158.031 166.024 158.031C166.024 158.031 172.302 158.097 172.332 154.695C172.376 150.02 160.11 153.491 155.167 152.953L146.758 165.294Z" fill="white" stroke="black" stroke-width="1.4" stroke-miterlimit="10" stroke-linecap="round" stroke-linejoin="round"/>
<path d="M163.164 162.75C163.164 162.75 173.014 165.679 178.398 165.175" stroke="black" stroke-width="1.4" stroke-miterlimit="10" stroke-linecap="round" stroke-linejoin="round"/>
<path d="M176.215 169.881C176.215 169.881 170.997 171.308 161.344 166.309" stroke="black" stroke-width="1.4" stroke-miterlimit="10" stroke-linecap="round" stroke-linejoin="round"/>
<path d="M171.813 173.79C171.813 173.79 164.756 173.659 159.008 169.027" stroke="black" stroke-width="1.4" stroke-miterlimit="10" stroke-linecap="round" stroke-linejoin="round"/>
<path d="M104.211 185.363C107.468 159.451 114.232 96.2812 98.0472 89.1981C88.7971 85.1443 42.9539 85.2581 42.9539 85.2581C42.9539 85.2581 39.9114 87.5258 33.1172 91.4263C14.4156 102.16 26.1304 157.678 30.5212 187.998C34.7413 222.311 30.0134 264.013 30.0134 264.013L45.6461 268.609C45.6461 268.609 50.2778 262.542 55.4347 247.596C60.9769 231.543 67.1013 206.236 67.8717 196.824C70.4239 207.081 75.7647 228.409 79.3719 272.987H98.5156C98.52 272.987 100.954 211.275 104.211 185.363Z" fill="white" stroke="black" stroke-width="1.4" stroke-miterlimit="10" stroke-linecap="round" stroke-linejoin="round"/>
<path d="M99.2729 273.001L101.51 245.75C101.51 245.75 99.2729 248.49 89.4581 248.49C83.4563 248.49 75.7734 245.776 75.7734 245.776C75.7734 245.776 77.1612 267.459 76.9817 270.129C76.255 281.017 75.7734 279.8 75.7734 291.458H121.223C125.701 280.224 118.058 268.694 99.2729 273.001Z" fill="white" stroke="black" stroke-width="1.4" stroke-miterlimit="10" stroke-linecap="round" stroke-linejoin="round"/>
<path d="M121.276 294.495C120.239 294.495 120.239 295.423 119.206 295.423C118.168 295.423 118.168 294.495 117.135 294.495C116.097 294.495 116.097 295.423 115.064 295.423C114.031 295.423 114.031 294.495 112.994 294.495C111.96 294.495 111.96 295.423 110.927 295.423C109.894 295.423 109.894 294.495 108.857 294.495C107.824 294.495 107.824 295.423 106.786 295.423C105.748 295.423 105.753 294.495 104.715 294.495C103.682 294.495 103.682 295.423 102.649 295.423C101.616 295.423 101.616 294.495 100.583 294.495C99.5497 294.495 99.5497 295.423 98.5122 295.423C97.479 295.423 97.479 294.495 96.4459 294.495C95.4127 294.495 95.4127 295.423 94.3752 295.423C93.3421 295.423 93.3421 294.495 92.309 294.495C91.2758 294.495 91.2758 295.423 90.2383 295.423C89.2052 295.423 89.2052 294.495 88.172 294.495C87.1389 294.495 87.1389 295.423 86.1014 295.423C85.0682 295.423 85.0682 294.495 84.0351 294.495C83.002 294.495 83.002 295.423 81.9688 295.423C80.9357 295.423 80.9357 294.495 79.9026 294.495C78.8694 294.495 78.8694 295.423 77.8319 295.423C76.7988 295.423 76.7988 294.495 75.7656 294.495V291.461H121.272V294.495H121.276Z" fill="white" stroke="black" stroke-width="1.4" stroke-miterlimit="10" stroke-linecap="round" stroke-linejoin="round"/>
<path d="M48.4097 274.018L55.4403 247.594C55.4403 247.594 52.7524 249.897 43.0952 248.155C37.1853 247.091 30.1066 243.055 30.1066 243.055C30.1066 243.055 27.6288 264.641 26.9765 267.241C24.3324 277.827 24.0785 276.544 22.0078 288.022L66.7392 296.073C73.1437 285.807 67.6585 273.108 48.4097 274.018Z" fill="white" stroke="black" stroke-width="1.4" stroke-miterlimit="10" stroke-linecap="round" stroke-linejoin="round"/>
<path d="M66.257 299.066C65.237 298.882 65.075 299.801 64.055 299.617C63.035 299.429 63.2014 298.519 62.1814 298.33C61.1614 298.147 60.995 299.066 59.9794 298.882C58.9594 298.698 59.1257 297.783 58.1101 297.595C57.0945 297.411 56.9281 298.33 55.9081 298.151C54.8881 297.963 55.0545 297.043 54.0388 296.864C53.0188 296.676 52.8569 297.595 51.8369 297.415C50.8168 297.227 50.9832 296.312 49.9676 296.128C48.9476 295.945 48.7856 296.864 47.7656 296.68C46.75 296.496 46.9119 295.577 45.8963 295.393C44.8807 295.209 44.7143 296.128 43.6943 295.945C42.6787 295.761 42.8407 294.846 41.8251 294.662C40.8094 294.478 40.6431 295.397 39.6231 295.209C38.6074 295.03 38.7694 294.11 37.7538 293.926C36.7338 293.743 36.5718 294.662 35.5518 294.478C34.5362 294.294 34.7025 293.379 33.6825 293.191C32.6669 293.007 32.5006 293.926 31.4805 293.743C30.4649 293.559 30.6269 292.644 29.6113 292.456C28.5956 292.272 28.4293 293.195 27.4093 293.012C26.3937 292.823 26.5556 291.908 25.54 291.724C24.5244 291.536 24.358 292.46 23.338 292.276C22.3224 292.092 22.4844 291.173 21.4688 290.989L22.0072 288.008L66.7911 296.067L66.257 299.066Z" fill="white" stroke="black" stroke-width="1.4" stroke-miterlimit="10" stroke-linecap="round" stroke-linejoin="round"/>
<path d="M31.0916 141.895C36.4105 117.932 40.2892 100.937 40.2892 100.937C30.54 90.8905 17.4989 96.866 13.7297 107.482C9.96047 118.098 6.02492 137.592 6.01617 140.14C5.98552 152.537 7.2463 171.834 11.7816 175.363L31.884 174.343C33.1141 168.682 30.2905 145.507 31.0916 141.895Z" fill="white" stroke="black" stroke-width="1.4" stroke-miterlimit="10" stroke-linecap="round" stroke-linejoin="round"/>
<path d="M11.7891 175.368L13.4613 183.803L33.5637 182.823L31.8915 174.348L11.7891 175.368Z" fill="white" stroke="black" stroke-width="1.4" stroke-miterlimit="10" stroke-linecap="round" stroke-linejoin="round"/>
<path d="M15.2109 183.438C15.2109 183.438 15.3598 186.318 15.3948 194.246C15.4298 202.174 18.3673 207.808 26.3391 209.323C34.3108 210.838 37.5109 208.071 35.7292 200.747C35.0682 198.042 32.6254 194.434 32.6254 194.434C32.6254 194.434 36.3596 199.486 39.0913 197.459C42.8517 194.671 32.6867 186.975 30.1345 182.711L15.2109 183.438Z" fill="white" stroke="black" stroke-width="1.4" stroke-miterlimit="10" stroke-linecap="round" stroke-linejoin="round"/>
<path d="M27.1328 194.992C27.1328 194.992 30.7313 204.619 34.3735 208.611" stroke="black" stroke-width="1.4" stroke-miterlimit="10" stroke-linecap="round" stroke-linejoin="round"/>
<path d="M29.311 209.697C29.311 209.697 25.0252 206.396 23.1953 195.68" stroke="black" stroke-width="1.4" stroke-miterlimit="10" stroke-linecap="round" stroke-linejoin="round"/>
<path d="M23.5365 208.55C23.5365 208.55 19.3908 202.842 19.6184 195.461" stroke="black" stroke-width="1.4" stroke-miterlimit="10" stroke-linecap="round" stroke-linejoin="round"/>
<path d="M23.5 65.7188C23.5 65.7188 25.5794 80.5022 30.6969 86.6091C35.8101 92.7204 23.4387 91.9324 23.697 95.7191C24.0822 101.309 44.5567 113.974 61.5816 114.622C95.7233 115.918 106.527 97.9561 106.527 97.9561C106.886 93.4559 101.13 91.1094 101.13 91.1094C101.13 91.1094 103.183 85.4666 101.13 82.1526L23.5 65.7188Z" fill="white" stroke="black" stroke-width="1.4" stroke-miterlimit="10" stroke-linecap="round" stroke-linejoin="round"/>
<path d="M114.287 46.4609C115.197 72.4601 94.8627 94.2785 68.8592 95.1891C42.86 96.0997 21.0415 75.7652 20.131 49.7617C19.2204 23.7625 39.5548 1.94847 65.5584 1.02915C91.5575 0.122964 113.372 20.4574 114.287 46.4609Z" fill="white" stroke="black" stroke-width="1.4" stroke-miterlimit="10" stroke-linecap="round" stroke-linejoin="round"/>
<path d="M65.064 19.6274C40.2906 38.5084 43.3462 63.9253 43.3462 63.9253C43.3462 63.9253 72.0464 100.602 108.977 69.8834C108.977 69.8834 118.459 54.9073 114.195 36.9193C109.935 18.9226 95.4977 9.24785 95.4977 9.24785C95.4977 9.24785 81.2002 7.33917 65.064 19.6274Z" fill="black"/>
<path d="M101.965 79.8986C64.6147 104.44 36.7812 64.1651 36.7812 64.1651C36.7812 64.1651 39.7712 12.7797 85.9428 4.88672" stroke="black" stroke-width="1.4" stroke-miterlimit="10" stroke-linecap="round" stroke-linejoin="round"/>
<path d="M56.2499 38.1684C50.9879 45.0283 49.3944 58.0651 52.9666 59.93C56.5388 61.7905 57.4144 47.0333 62.9566 41.9814C68.7833 36.68 61.5644 31.2385 56.2499 38.1684Z" fill="white"/>
<path d="M64.0457 25.6884C62.229 26.5726 61.4497 28.8272 62.334 30.6395L62.5092 30.9941C63.3934 32.8109 65.648 33.5901 67.4647 32.7058C69.2815 31.8215 70.0563 29.5626 69.172 27.7503L68.9969 27.3957C68.1214 25.5789 65.8668 24.7997 64.0457 25.6884Z" fill="white"/>
<path d="M102.678 64.525C102.122 63.5269 100.875 63.1504 99.938 63.9121C97.3683 65.9959 87.212 70.575 90.005 75.1891C92.137 78.7131 95.9981 76.8526 98.8917 73.8933C102.197 71.6519 104.648 68.1016 102.678 64.525Z" fill="white"/>
<path d="M28.8913 62.8886C23.6862 60.564 17.6275 53.3364 16.0428 44.4103C14.9002 37.9751 18.3279 31.9951 22.4605 33.3391C22.4605 33.3391 17.413 49.8518 33.1246 57.0487L28.8913 62.8886Z" fill="white" stroke="black" stroke-width="1.4" stroke-miterlimit="10" stroke-linecap="round" stroke-linejoin="round"/>
<path d="M44.672 62.8531C45.3987 67.2089 42.4526 71.3283 38.0967 72.0506C33.7409 72.7773 29.6259 69.8355 28.8992 65.4753C28.1725 61.1239 31.1187 57.0045 35.4745 56.2821C39.8303 55.5554 43.9454 58.4973 44.672 62.8531Z" fill="white" stroke="black" stroke-width="1.4" stroke-miterlimit="10" stroke-linecap="round" stroke-linejoin="round"/>
<path d="M40.1412 63.607C40.452 65.4632 39.1956 67.2143 37.3438 67.5251C35.4921 67.8359 33.741 66.5795 33.4302 64.7277C33.1193 62.876 34.3714 61.1249 36.2275 60.8141C38.0793 60.4989 39.8304 61.7553 40.1412 63.607Z" fill="white" stroke="black" stroke-width="1.4" stroke-miterlimit="10" stroke-linecap="round" stroke-linejoin="round"/>
<path d="M31.4922 87.8281C31.4922 87.8281 45.9123 106.508 70.2436 105.79" stroke="black" stroke-width="1.4" stroke-miterlimit="10" stroke-linecap="round" stroke-linejoin="round"/>
<path d="M101.127 91.1094C101.127 91.1094 92.6695 100.316 84.4219 102.92" stroke="black" stroke-width="1.4" stroke-miterlimit="10" stroke-linecap="round" stroke-linejoin="round"/>
<path d="M101.957 119.375C101.957 119.375 99.2734 116.131 93.5517 117.011C87.8344 117.895 58.1274 122.483 58.1274 122.483C55.7328 122.483 53.7891 124.422 53.7891 126.821V166.308C53.7891 168.703 55.7328 170.646 58.1274 170.646L97.6142 164.548C98.8006 164.548 102.609 160.223 102.609 160.223L101.957 119.375Z" fill="white" stroke="black" stroke-width="1.4" stroke-miterlimit="10" stroke-linecap="round" stroke-linejoin="round"/>
<path d="M103.618 157.635C103.618 159.767 101.893 161.492 99.7609 161.492L64.6693 166.907C62.5373 166.907 60.8125 165.183 60.8125 163.055V127.963C60.8125 125.836 62.5373 124.111 64.6693 124.111L99.7609 118.691C101.888 118.691 103.618 120.416 103.618 122.548V157.635Z" fill="white" stroke="black" stroke-width="1.4" stroke-miterlimit="10" stroke-linecap="round" stroke-linejoin="round"/>
<path d="M56.0547 169.025L61.7851 165.602" stroke="black" stroke-width="1.4" stroke-miterlimit="10" stroke-linecap="round" stroke-linejoin="round"/>
<path d="M54.9922 123.828L61.2786 126.135" stroke="black" stroke-width="1.4" stroke-miterlimit="10" stroke-linecap="round" stroke-linejoin="round"/>
<path d="M131.942 127.293L131.942 127.293L124.009 187.518L123.878 188.509L124.869 188.64L150.549 192.022L152.01 192.214L151.65 190.786C151.188 188.954 151.182 186.968 151.791 184.954C153.214 180.284 157.702 177.077 162.573 177.267L162.574 177.267C169.076 177.517 173.809 183.266 172.977 189.564L172.977 189.565C172.793 190.964 172.343 192.262 171.689 193.433L170.971 194.719L172.432 194.911L198.112 198.293L199.104 198.424L199.234 197.433L202.427 173.191C204.07 173.843 205.895 174.184 207.869 174.062L207.87 174.062C213.926 173.682 219.031 169.028 219.876 163.003C220.873 155.908 215.894 149.372 208.804 148.439C207.742 148.298 206.701 148.302 205.695 148.42L208.888 124.178L209.018 123.187L208.027 123.056L147.808 115.123C147.808 115.123 147.808 115.123 147.808 115.123C140.063 114.101 132.963 119.554 131.942 127.293Z" fill="#A79CEE" stroke="black" stroke-width="2"/>
</svg>
