<svg width="180" height="302" viewBox="0 0 180 302" fill="none" xmlns="http://www.w3.org/2000/svg">
<path d="M29.9876 92.5859C29.9876 92.5859 0.928476 96.8717 1.69457 130.063C2.46505 163.251 -1.46613 179.216 34.2428 183.502C55.6278 186.067 75.936 142.317 67.881 115.337C62.4833 97.2613 29.9876 92.5859 29.9876 92.5859Z" fill="white" stroke="black" stroke-width="1.4" stroke-miterlimit="10" stroke-linecap="round" stroke-linejoin="round"/>
<path d="M123.871 128.26C107.958 109.572 107.747 94.8628 96.7376 96.2286C82.8384 97.9491 79.7477 111.958 85.9465 121.365C92.1497 130.773 105.327 145.662 107.358 147.207C117.23 154.706 133.388 165.326 138.939 163.838L150.242 147.185C146.464 142.794 126.27 131.075 123.871 128.26Z" fill="white" stroke="black" stroke-width="1.4" stroke-miterlimit="10" stroke-linecap="round" stroke-linejoin="round"/>
<path d="M138.938 163.836L146.673 167.588L158.011 150.957L150.241 147.184L138.938 163.836Z" fill="white" stroke="black" stroke-width="1.4" stroke-miterlimit="10" stroke-linecap="round" stroke-linejoin="round"/>
<path d="M147.438 165.973C147.438 165.973 149.823 167.589 156.171 172.343C162.519 177.102 168.783 178.157 174.798 172.702C180.809 167.256 180.537 163.036 173.616 160.042C171.06 158.938 166.704 158.711 166.704 158.711C166.704 158.711 172.981 158.776 173.012 155.375C173.056 150.7 160.789 154.171 155.847 153.633L147.438 165.973Z" fill="white" stroke="black" stroke-width="1.4" stroke-miterlimit="10" stroke-linecap="round" stroke-linejoin="round"/>
<path d="M163.844 163.43C163.844 163.43 173.694 166.358 179.078 165.855" stroke="black" stroke-width="1.4" stroke-miterlimit="10" stroke-linecap="round" stroke-linejoin="round"/>
<path d="M176.894 170.56C176.894 170.56 171.676 171.988 162.023 166.988" stroke="black" stroke-width="1.4" stroke-miterlimit="10" stroke-linecap="round" stroke-linejoin="round"/>
<path d="M172.492 174.47C172.492 174.47 165.435 174.339 159.688 169.707" stroke="black" stroke-width="1.4" stroke-miterlimit="10" stroke-linecap="round" stroke-linejoin="round"/>
<path d="M104.891 186.043C108.148 160.131 114.911 96.9609 98.7269 89.8778C89.4768 85.824 43.6335 85.9378 43.6335 85.9378C43.6335 85.9378 40.591 88.2055 33.7969 92.106C15.0953 102.84 26.81 158.358 31.2009 188.678C35.421 222.99 30.6931 264.692 30.6931 264.692L46.3258 269.289C46.3258 269.289 50.9574 263.222 56.1144 248.276C61.6565 232.223 67.7809 206.916 68.5514 197.503C71.1036 207.76 76.4444 229.089 80.0516 273.667H99.1953C99.1997 273.667 101.634 211.954 104.891 186.043Z" fill="white" stroke="black" stroke-width="1.4" stroke-miterlimit="10" stroke-linecap="round" stroke-linejoin="round"/>
<path d="M99.9526 273.681L102.19 246.43C102.19 246.43 99.9526 249.17 90.1378 249.17C84.136 249.17 76.4531 246.456 76.4531 246.456C76.4531 246.456 77.8409 268.139 77.6614 270.809C76.9347 281.696 76.4531 280.479 76.4531 292.137H121.902C126.381 280.904 118.737 269.373 99.9526 273.681Z" fill="white" stroke="black" stroke-width="1.4" stroke-miterlimit="10" stroke-linecap="round" stroke-linejoin="round"/>
<path d="M121.956 295.174C120.918 295.174 120.918 296.102 119.885 296.102C118.848 296.102 118.848 295.174 117.815 295.174C116.777 295.174 116.777 296.102 115.744 296.102C114.711 296.102 114.711 295.174 113.673 295.174C112.64 295.174 112.64 296.102 111.607 296.102C110.574 296.102 110.574 295.174 109.536 295.174C108.503 295.174 108.503 296.102 107.466 296.102C106.428 296.102 106.433 295.174 105.395 295.174C104.362 295.174 104.362 296.102 103.329 296.102C102.296 296.102 102.296 295.174 101.262 295.174C100.229 295.174 100.229 296.102 99.1918 296.102C98.1587 296.102 98.1587 295.174 97.1256 295.174C96.0924 295.174 96.0924 296.102 95.0549 296.102C94.0218 296.102 94.0218 295.174 92.9886 295.174C91.9555 295.174 91.9555 296.102 90.918 296.102C89.8849 296.102 89.8849 295.174 88.8517 295.174C87.8186 295.174 87.8186 296.102 86.7811 296.102C85.7479 296.102 85.7479 295.174 84.7148 295.174C83.6817 295.174 83.6816 296.102 82.6485 296.102C81.6154 296.102 81.6154 295.174 80.5822 295.174C79.5491 295.174 79.5491 296.102 78.5116 296.102C77.4785 296.102 77.4784 295.174 76.4453 295.174V292.141H121.951V295.174H121.956Z" fill="white" stroke="black" stroke-width="1.4" stroke-miterlimit="10" stroke-linecap="round" stroke-linejoin="round"/>
<path d="M49.0894 274.698L56.12 248.274C56.12 248.274 53.4321 250.577 43.7749 248.834C37.865 247.771 30.7862 243.734 30.7862 243.734C30.7862 243.734 28.3085 265.321 27.6562 267.921C25.0121 278.506 24.7582 277.224 22.6875 288.702L67.4188 296.753C73.8234 286.487 68.3382 273.787 49.0894 274.698Z" fill="white" stroke="black" stroke-width="1.4" stroke-miterlimit="10" stroke-linecap="round" stroke-linejoin="round"/>
<path d="M66.9367 299.746C65.9167 299.562 65.7547 300.481 64.7347 300.297C63.7147 300.109 63.8811 299.198 62.861 299.01C61.841 298.826 61.6747 299.746 60.6591 299.562C59.6391 299.378 59.8054 298.463 58.7898 298.275C57.7742 298.091 57.6078 299.01 56.5878 298.831C55.5678 298.642 55.7341 297.723 54.7185 297.544C53.6985 297.355 53.5365 298.275 52.5165 298.095C51.4965 297.907 51.6629 296.992 50.6473 296.808C49.6273 296.624 49.4653 297.544 48.4453 297.36C47.4297 297.176 47.5916 296.257 46.576 296.073C45.5604 295.889 45.394 296.808 44.374 296.624C43.3584 296.44 43.5204 295.525 42.5047 295.342C41.4891 295.158 41.3228 296.077 40.3028 295.889C39.2871 295.709 39.4491 294.79 38.4335 294.606C37.4135 294.422 37.2515 295.342 36.2315 295.158C35.2159 294.974 35.3822 294.059 34.3622 293.871C33.3466 293.687 33.1802 294.606 32.1602 294.422C31.1446 294.238 31.3066 293.323 30.291 293.135C29.2753 292.951 29.109 293.875 28.089 293.691C27.0734 293.503 27.2353 292.588 26.2197 292.404C25.2041 292.216 25.0377 293.14 24.0177 292.956C23.0021 292.772 23.1641 291.853 22.1484 291.669L22.6869 288.688L67.4708 296.747L66.9367 299.746Z" fill="white" stroke="black" stroke-width="1.4" stroke-miterlimit="10" stroke-linecap="round" stroke-linejoin="round"/>
<path d="M31.7713 142.575C37.0902 118.611 40.9689 101.617 40.9689 101.617C31.2197 91.5701 18.1786 97.5457 14.4094 108.162C10.6402 118.778 6.70461 138.271 6.69585 140.819C6.66521 153.217 7.92599 172.514 12.4613 176.042L32.5637 175.022C33.7938 169.362 30.9702 146.186 31.7713 142.575Z" fill="white" stroke="black" stroke-width="1.4" stroke-miterlimit="10" stroke-linecap="round" stroke-linejoin="round"/>
<path d="M12.4688 176.047L14.141 184.483L34.2434 183.503L32.5711 175.027L12.4688 176.047Z" fill="white" stroke="black" stroke-width="1.4" stroke-miterlimit="10" stroke-linecap="round" stroke-linejoin="round"/>
<path d="M15.8906 184.117C15.8906 184.117 16.0395 186.998 16.0745 194.926C16.1095 202.854 19.0469 208.488 27.0187 210.003C34.9905 211.517 38.1906 208.751 36.4089 201.427C35.7479 198.721 33.3051 195.114 33.3051 195.114C33.3051 195.114 37.0393 200.166 39.771 198.139C43.5314 195.35 33.3664 187.655 30.8142 183.391L15.8906 184.117Z" fill="white" stroke="black" stroke-width="1.4" stroke-miterlimit="10" stroke-linecap="round" stroke-linejoin="round"/>
<path d="M27.8125 195.672C27.8125 195.672 31.411 205.298 35.0532 209.291" stroke="black" stroke-width="1.4" stroke-miterlimit="10" stroke-linecap="round" stroke-linejoin="round"/>
<path d="M29.9906 210.381C29.9906 210.381 25.7049 207.08 23.875 196.363" stroke="black" stroke-width="1.4" stroke-miterlimit="10" stroke-linecap="round" stroke-linejoin="round"/>
<path d="M24.2161 209.234C24.2161 209.234 20.0705 203.525 20.2981 196.145" stroke="black" stroke-width="1.4" stroke-miterlimit="10" stroke-linecap="round" stroke-linejoin="round"/>
<path d="M24.1797 66.3984C24.1797 66.3984 26.2591 81.1819 31.3766 87.2888C36.4898 93.4001 24.1184 92.6121 24.3767 96.3988C24.7619 101.989 45.2364 114.654 62.2613 115.302C96.403 116.598 107.207 98.6358 107.207 98.6358C107.566 94.1355 101.809 91.7891 101.809 91.7891C101.809 91.7891 103.863 86.1462 101.809 82.8323L24.1797 66.3984Z" fill="white" stroke="black" stroke-width="1.4" stroke-miterlimit="10" stroke-linecap="round" stroke-linejoin="round"/>
<path d="M114.966 47.1406C115.877 73.1398 95.5424 94.9582 69.5389 95.8688C43.5397 96.7793 21.7212 76.4449 20.8107 50.4414C19.9001 24.4422 40.2345 2.62815 66.2381 1.70884C92.2372 0.802652 114.051 21.1371 114.966 47.1406Z" fill="white" stroke="black" stroke-width="1.4" stroke-miterlimit="10" stroke-linecap="round" stroke-linejoin="round"/>
<path d="M65.7437 20.311C40.9703 39.192 44.0259 64.6089 44.0259 64.6089C44.0259 64.6089 72.7261 101.285 109.656 70.567C109.656 70.567 119.138 55.5909 114.875 37.6029C110.615 19.6062 96.1774 9.93145 96.1774 9.93145C96.1774 9.93145 81.8799 8.02277 65.7437 20.311Z" fill="black"/>
<path d="M102.645 80.5783C65.2944 105.12 37.4609 64.8448 37.4609 64.8448C37.4609 64.8448 40.4509 13.4594 86.6225 5.56641" stroke="black" stroke-width="1.4" stroke-miterlimit="10" stroke-linecap="round" stroke-linejoin="round"/>
<path d="M56.9296 38.8481C51.6676 45.708 50.0741 58.7447 53.6463 60.6096C57.2185 62.4702 58.0941 47.7129 63.6362 42.6611C69.463 37.3597 62.2441 31.9182 56.9296 38.8481Z" fill="white"/>
<path d="M64.7254 26.368C62.9087 27.2523 62.1294 29.5069 63.0137 31.3192L63.1888 31.6738C64.0731 33.4906 66.3276 34.2698 68.1444 33.3855C69.9611 32.5012 70.736 30.2423 69.8517 28.4299L69.6766 28.0753C68.801 26.2586 66.5465 25.4794 64.7254 26.368Z" fill="white"/>
<path d="M103.358 65.2047C102.802 64.2066 101.555 63.8301 100.618 64.5918C98.048 66.6756 87.8917 71.2547 90.6847 75.8687C92.8166 79.3928 96.6778 77.5323 99.5714 74.5729C102.877 72.3316 105.328 68.7813 103.358 65.2047Z" fill="white"/>
<path d="M29.571 63.5682C24.3659 61.2437 18.3072 54.0161 16.7225 45.09C15.5799 38.6548 19.0076 32.6748 23.1402 34.0188C23.1402 34.0188 18.0927 50.5315 33.8042 57.7284L29.571 63.5682Z" fill="white" stroke="black" stroke-width="1.4" stroke-miterlimit="10" stroke-linecap="round" stroke-linejoin="round"/>
<path d="M45.3517 63.5327C46.0784 67.8886 43.1322 72.008 38.7764 72.7303C34.4206 73.457 30.3056 70.5152 29.5789 66.155C28.8522 61.8036 31.7984 57.6841 36.1542 56.9618C40.51 56.2351 44.625 59.1769 45.3517 63.5327Z" fill="white" stroke="black" stroke-width="1.4" stroke-miterlimit="10" stroke-linecap="round" stroke-linejoin="round"/>
<path d="M40.8209 64.2867C41.1317 66.1429 39.8753 67.8939 38.0235 68.2048C36.1717 68.5156 34.4207 67.2592 34.1098 65.4074C33.799 63.5556 35.0511 61.8046 36.9072 61.4938C38.759 61.1786 40.51 62.435 40.8209 64.2867Z" fill="white" stroke="black" stroke-width="1.4" stroke-miterlimit="10" stroke-linecap="round" stroke-linejoin="round"/>
<path d="M32.1719 88.5039C32.1719 88.5039 46.592 107.184 70.9233 106.466" stroke="black" stroke-width="1.4" stroke-miterlimit="10" stroke-linecap="round" stroke-linejoin="round"/>
<path d="M101.807 91.7891C101.807 91.7891 93.3491 100.995 85.1016 103.6" stroke="black" stroke-width="1.4" stroke-miterlimit="10" stroke-linecap="round" stroke-linejoin="round"/>
<path d="M102.637 120.054C102.637 120.054 99.9531 116.811 94.2314 117.69C88.5141 118.575 58.807 123.163 58.807 123.163C56.4124 123.163 54.4688 125.102 54.4688 127.501V166.988C54.4688 169.382 56.4124 171.326 58.807 171.326L98.2939 165.228C99.4803 165.228 103.289 160.903 103.289 160.903L102.637 120.054Z" fill="white" stroke="black" stroke-width="1.4" stroke-miterlimit="10" stroke-linecap="round" stroke-linejoin="round"/>
<path d="M104.297 158.315C104.297 160.447 102.573 162.172 100.441 162.172L65.3489 167.587C63.217 167.587 61.4922 165.862 61.4922 163.735V128.643C61.4922 126.515 63.217 124.791 65.3489 124.791L100.441 119.371C102.568 119.371 104.297 121.096 104.297 123.228V158.315Z" fill="white" stroke="black" stroke-width="1.4" stroke-miterlimit="10" stroke-linecap="round" stroke-linejoin="round"/>
<path d="M56.7344 169.705L62.4648 166.281" stroke="black" stroke-width="1.4" stroke-miterlimit="10" stroke-linecap="round" stroke-linejoin="round"/>
<path d="M55.6719 124.508L61.9582 126.815" stroke="black" stroke-width="1.4" stroke-miterlimit="10" stroke-linecap="round" stroke-linejoin="round"/>
</svg>
