<svg width="141" height="140" viewBox="0 0 141 140" fill="none" xmlns="http://www.w3.org/2000/svg">
<g clip-path="url(#clip0_1837_30822)">
<path d="M50.0115 20.9156L44.6305 22.2185L38.1671 24.1462L28.8223 31.7061L23.5168 41.2632L21.5951 53.5568L23.0878 66.7654L20.3737 75.1871L19.0014 80.3087L20.876 83.5557L23.4675 82.4203L25.6015 82.9921L27.7049 85.3855L30.2964 84.2501L31.8055 83.7396L34.7625 86.3617L46.5292 100.493L46.2085 106.812L47.9995 108.664L51.1014 109.038L53.4948 106.934L54.2341 107.59L56.025 109.442L62.3434 109.763L92.1524 102.654L100.384 97.5407L103.174 97.3733L103.684 98.8824L103.852 101.672L105.445 102.556L106.839 102.473L108.15 100.994L109.294 96.726L109.355 93.0828L110.895 90.7507L113.403 88.2205L120.614 80.0888L123.869 71.3546L125.615 63.131L123.55 52.0565L119.176 44.4802L113.803 38.9235L105.1 33.8467L95.4815 32.1844L82.5854 34.2183L79.1403 35.1249L75.7872 30.5669L67.7392 24.7508L60.7122 21.9531L50.0115 20.9156Z" fill="#A79CEE"/>
<ellipse cx="77.6911" cy="57.6088" rx="5.30233" ry="3.53488" transform="rotate(15 77.6911 57.6088)" fill="white"/>
<path d="M39.0735 27.5911L33.0676 27.8116L27.9377 33.2988L23.1734 42.5435L21.8541 50.8815L26.8838 57.7186L32.2873 61.4536L32.9959 63.9307L31.6235 69.0524L30.7086 72.4668L31.8134 76.8799L34.0842 82.0628L34.0229 85.706L38.4278 91.4607L40.1656 90.0966L49.6248 82.1099L57.4605 75.0605L56.7826 70.7618L53.3988 68.0253L45.1751 66.2793L38.4606 64.0227L34.8787 60.3182L33.6596 56.332L35.4588 51.3247L38.1646 49.7625L50.8013 50.4038L55.3593 47.0506L56.8991 44.7185L59.2925 42.6152L57.7303 39.9093L55.3982 38.3695L51.4426 37.7671L46.1229 35.4268L44.1338 32.6066L43.1965 30.9831L42.1448 29.7864L39.0735 27.5911Z" fill="white"/>
<path d="M63.8323 27.3646L66.34 24.8344L72.2846 28.257L79.4484 35.6659L75.8277 40.6426L65.3474 45.611L62.4435 46.2053L62.6192 42.1353L65.5619 32.86L63.8854 30.5809L63.8323 27.3646Z" fill="white"/>
<path d="M113.253 46.0955L117.468 44.0228L121.278 46.8736L124.966 57.0107L125.187 63.0166L124.18 71.8958L120.841 79.2352L117.022 83.2439L113.524 80.9342L109.912 79.0514L105.248 75.9718L106.55 81.3528L105.011 83.6849L103.303 83.2275L101.512 81.3752L101.574 77.7321L103.342 74.5464L99.8441 72.2367L95.9191 69.8127L94.3793 72.1448L96.4521 76.3597L96.2458 82.2513L89.2943 87.7078L82.8228 96.4951L77.0374 102.721L71.9157 101.349L70.6966 97.3629L71.1316 90.6177L72.6796 81.4261L71.6279 80.2294L66.7043 79.8251L62.4669 76.8599L61.2478 72.8736L62.1627 69.4592L65.0973 67.0434L70.8214 64.4601L80.4704 64.3009L87.1012 65.1627L89.2659 63.9129L88.5879 59.6142L86.8276 55.9404L86.6908 51.3293L89.3436 46.5507L91.737 44.4474L94.8696 42.9995L100.845 44.6006L104.343 46.9102L106.82 46.2016L109.808 47.0022L113.253 46.0955Z" fill="white"/>
<path d="M58.0006 20.6427C45.571 18.5108 33.1496 23.9189 26.3186 34.4439C24.317 37.5266 23.4396 39.5966 22.2813 43.9195C21.4557 47.0868 21.242 48.2282 21.1335 50.1815C20.95 53.7053 21.1867 57.2955 21.8692 61.0282C22.2996 63.3795 22.4312 64.867 22.3078 66.1017C22.1129 68.3777 21.1274 72.0553 20.0142 74.6615C18.2998 78.651 18.0911 80.4622 19.169 82.2032C20.1367 83.7534 21.146 84.116 23.0871 83.668C24.4859 83.3513 25.1772 83.3521 25.0792 83.7177C25.0504 83.8252 25.2047 84.2815 25.4079 84.7278C26.2104 86.4642 28.6484 86.6565 30.3054 85.1181C30.953 84.5078 31.3835 84.2774 31.6846 84.3581C31.9427 84.4273 32.6059 85.1352 33.1328 85.9218C35.6369 89.5663 40.0467 94.8741 44.1435 99.1989L45.9584 101.114L45.7516 102.488C45.2617 105.607 45.7281 107.738 47.1867 109.004C48.9432 110.535 51.2668 110.466 52.7087 108.87C53.0778 108.439 53.4654 108.197 53.5986 108.302C53.7377 108.385 54.5315 109.036 55.384 109.725C57.1694 111.149 58.9498 111.903 60.8329 112.015C62.2412 112.093 66.0873 111.418 71.6567 110.075C73.8747 109.54 75.6076 109.266 75.9732 109.364C76.3388 109.462 77.0481 109.998 77.5781 110.601C78.5378 111.665 78.8961 111.876 79.93 112.061C80.6355 112.181 81.6901 111.772 82.2402 111.182C82.8778 110.523 83.2334 110.572 84.1489 111.371C85.7995 112.781 87.7164 112.165 88.8135 109.877C89.1269 109.224 89.6689 108.147 89.9824 107.494C90.2958 106.84 91.1263 105.633 91.82 104.851C93.1586 103.296 93.8906 102.801 99.5712 99.6669C103.278 97.6175 103.413 97.6305 103.309 99.6541C103.227 101.338 103.498 102.217 104.26 102.814C105.753 103.951 107.827 103.354 108.976 101.472C109.566 100.478 109.652 100.155 109.992 97.5954C110.522 93.3807 111.162 91.9386 113.517 89.6882C123.327 80.2612 127.648 68.6947 125.626 57.2269C123.881 47.3083 117.184 38.6675 107.859 34.3249C105.303 33.1099 100.609 31.8752 97.7078 31.6049C92.816 31.1932 87.4683 31.8809 82.5195 33.5746L79.7546 34.5165L78.1332 32.6529C73.6674 27.4684 68.9599 24.1324 63.2698 22.0546C60.6663 21.1034 60.6233 21.0919 58.0006 20.6427ZM107.835 36.0474L109.64 36.969L111.611 40.1941C112.699 41.9839 113.695 43.7722 113.861 44.1855L114.124 44.9244L113.485 45.3295C113.152 45.54 112.191 45.8587 111.389 46.0126C110.24 46.2579 109.668 46.2429 108.528 45.9375C107.582 45.6839 106.745 45.6212 106.047 45.7337C104.622 45.9744 103.946 45.747 102.448 44.539C100.055 42.63 97.6823 42.1094 94.5218 42.8069C91.6267 43.4604 88.968 45.468 86.9392 48.5664C85.1876 51.2321 85.1767 53.1654 86.9004 56.9697C88.6756 60.9261 88.9693 62.4109 88.1461 63.5042C87.4782 64.3625 86.4239 64.4258 82.3886 63.8286C74.2205 62.6542 70.0004 63.0909 65.6488 65.567C62.873 67.1514 61.8433 68.3277 61.0772 70.8425C60.2839 73.373 60.4989 74.7214 62.1751 77.4987C63.761 80.1827 64.1823 80.503 66.921 81.1216C70.2246 81.8685 71.9609 82.3568 72.0711 82.5477C72.1341 82.6568 71.7226 84.9668 71.1685 87.7228C69.4299 96.3621 69.3252 98.7314 70.5863 100.821L71.3693 102.114L69.1959 102.569C63.3154 103.783 59.413 103.636 56.9436 102.099L56.0134 101.527L55.4262 102.084C55.0916 102.386 54.5658 103.144 54.2581 103.776C52.3632 107.579 51.7786 108.298 50.4128 108.578C48.5866 108.941 47.0597 107.241 46.9881 104.756C46.9659 104.151 47.1154 102.646 47.3148 101.386C47.799 98.2883 47.7182 96.3534 47.0542 95.046C46.4633 93.8964 46.4575 93.9179 46.7381 95.5375C46.8521 96.1444 46.8609 97.2301 46.741 97.9356C46.5196 99.536 46.7389 99.6639 43.4658 96.136C40.1713 92.6023 40.25 92.7387 40.9818 91.2981C41.2952 90.6445 42.1472 89.4436 42.8739 88.6241C43.9697 87.3733 44.7463 86.7977 47.5609 85.1545C52.4652 82.2503 56.3733 78.8486 57.8653 76.2056C59.5354 73.2416 58.9415 70.9848 55.7563 68.3333C54.2705 67.0823 50.7721 66.0297 44.186 64.8873C40.0662 64.1753 37.4128 62.9802 36.4351 61.3813C35.5147 59.9129 35.3733 55.795 36.1627 54.1394C36.4143 53.6306 36.3828 53.576 35.7591 53.4089C35.3935 53.3109 35.1039 53.1872 35.1154 53.1442C35.3344 52.327 37.4876 50.8293 38.7888 50.5325C39.9595 50.293 40.4557 50.3337 44.3389 50.9824C48.6149 51.7132 51.5595 51.6493 53.5986 50.8357C54.4036 50.4982 55.1499 50.1218 55.2605 49.9671C55.5593 49.54 55.8531 49.734 55.7091 50.2717C55.5362 50.9169 55.9436 52.0633 56.558 52.7812C56.9347 53.1818 57.4593 53.4607 58.4056 53.7142C59.61 54.037 59.7994 54.0185 60.2545 53.6103C60.7097 53.2021 60.783 53.0143 60.7843 51.9773C60.849 49.413 60.0361 47.9734 58.4614 47.8281L57.6096 47.7382L58.341 46.6433C58.8065 45.9382 59.2452 44.9032 59.5491 43.8551C60.1138 41.7474 59.9545 40.6213 58.9073 39.6261C58.5033 39.2413 57.9345 38.697 57.6638 38.417C57.0048 37.7794 55.0534 37.2335 51.6906 36.7935C48.9961 36.4403 48.0183 36.1322 46.6784 35.1969C45.6323 34.4555 44.1796 31.8764 44.4915 31.3146C44.6697 30.9935 44.4435 30.6333 43.3391 29.5075C41.4654 27.5532 40.1869 26.8188 38.4345 26.6489C37.6687 26.582 36.8541 26.5251 36.5944 26.5477C35.7998 26.5884 40.3435 24.256 42.6091 23.4569C45.2335 22.5235 47.5317 22.0329 50.1925 21.8238C54.0969 21.533 55.4392 21.6852 60.2568 22.9761C62.687 23.6272 64.8205 24.268 65.0282 24.439C65.3378 24.6602 65.2874 24.762 64.3975 25.3303C62.754 26.3883 62.1382 27.9982 62.8552 29.3659C63.0068 29.6601 63.1324 30.2239 63.1635 30.6241C63.1972 31.1864 63.4449 31.5524 64.1957 32.1916C65.1269 33.0174 65.1584 33.0719 64.9279 33.9322C64.7954 34.4268 64.1454 35.8202 63.4771 37.0241C61.5826 40.4813 60.775 44.1836 61.6225 45.4941C61.8072 45.751 61.8986 46.0982 61.864 46.2273C61.8236 46.3778 61.9192 46.7953 62.0909 47.1871C62.6158 48.4111 64.0745 48.387 65.8789 47.0725C66.4746 46.6559 67.9226 45.9835 69.0848 45.6034C70.2743 45.2075 72.1843 44.3593 73.3511 43.7038C76.5847 41.8733 78.6611 39.8018 80.0643 36.9737C80.6005 35.9187 80.6881 35.85 82.552 35.1738C87.7205 33.2624 93.9861 32.5901 99.4282 33.3568C101.67 33.6807 105.64 34.9519 107.835 36.0474ZM69.9129 27.2C73.0082 29.4125 76.6169 32.892 78.0658 35.0552L78.6929 35.9839L77.5368 37.2877C75.5878 39.4855 72.5651 41.3034 68.7025 42.6426C67.6866 42.9928 66.3965 43.5922 65.8281 43.9931C63.9376 45.2846 62.9982 45.2634 62.9238 43.9065C62.8452 42.4793 63.5851 40.2341 64.9722 37.7244C66.6827 34.6098 67.1264 32.9538 66.6591 31.5147C66.3961 30.7757 66.0009 30.1858 65.2286 29.5409C64.2916 28.7366 64.1814 28.5457 64.2782 27.9262C64.3693 27.3282 64.622 27.0732 65.7028 26.3947C66.5597 25.8636 67.1739 25.6363 67.518 25.7285C67.7976 25.8034 68.8882 26.4645 69.9129 27.2ZM120.762 48.4549C123.057 52.6198 124.2 56.6142 124.453 61.1769C124.792 67.6529 122.803 74.819 119.045 80.497L118.258 81.7152L116.826 81.4696C115.36 81.2613 113.126 80.4784 112.036 79.8174C111.699 79.6119 110.758 78.7373 109.93 77.87C108.077 75.9215 106.871 75.091 104.543 74.1445C102.359 73.2598 101.388 72.5846 100.251 71.1504C98.5794 69.0429 97.3298 68.2009 95.8611 68.1762C94.5488 68.1703 93.597 68.8835 93.2686 70.1094C92.8997 71.4858 93.1555 72.3381 94.574 74.7005C95.5674 76.3267 95.832 76.9739 95.8238 77.7785C95.816 79.5283 94.994 80.8755 92.8289 82.7618C92.0837 83.392 90.9422 84.4692 90.2658 85.187C89.5737 85.8775 88.063 87.3859 86.9157 88.4846C84.5221 90.7938 83.9705 91.4758 82.1483 94.4913C80.487 97.2503 79.5075 98.3248 77.5814 99.4914C75.1586 100.963 73.4387 101.101 72.1407 99.9238C70.8427 98.7461 70.9722 97.1442 73.2653 85.4033C73.9393 81.9418 73.9117 81.0124 73.0407 80.1335C71.899 78.9747 70.6604 78.4354 67.9029 77.9731C64.047 77.3088 62.7344 76.3577 62.3313 73.9907C61.7474 70.4919 64.3344 67.2894 69.032 65.7589C72.4698 64.6286 76.9003 64.5249 82.5229 65.4782C85.8511 66.0473 87.2453 66.0059 88.4179 65.3289C89.4814 64.7149 90.0203 63.822 90.1625 62.4309C90.299 61.0614 90.0034 60.014 88.5573 56.7221C86.7537 52.5276 86.7538 51.2368 88.6559 48.6115C89.7621 47.0638 91.7175 45.444 93.3176 44.7202C96.2838 43.3713 99.3225 43.8167 101.97 45.9784C103.542 47.2525 104.154 47.4626 105.628 47.2119C106.305 47.0937 107.508 47.1625 108.763 47.3835C111.429 47.8442 112.621 47.6104 115.873 45.9692L118.378 44.7043L118.834 45.2413C119.099 45.5428 119.955 46.9939 120.762 48.4549ZM40.7663 29.3022C41.2521 29.6398 42.1111 30.9073 43.1487 32.7989C44.7158 35.6391 44.8433 35.7655 46.2062 36.6148C47.7827 37.6135 49.208 37.9723 53.3738 38.5123C55.3356 38.7613 55.6094 38.8577 56.2112 39.3648C57.3932 40.373 57.2675 42.3909 55.9035 44.8146C54.8571 46.6549 53.8677 47.6806 52.0894 48.7255C50.6987 49.5285 50.1721 49.687 48.8912 49.7357C48.0536 49.7648 46.6295 49.6599 45.7462 49.5154C42.8811 49.0243 40.0975 48.8316 38.8466 49.0266C36.1166 49.4938 33.7118 51.5003 33.0895 53.8231C32.7033 55.264 32.616 57.5688 32.8812 58.8155C33.2106 60.4251 34.8373 62.6128 36.6243 63.9445C37.3708 64.5134 38.3916 64.833 45.876 66.8385L54.2637 69.0859L54.9899 69.9029C57.7887 73.0501 54.2372 78.0457 45.3327 83.4049C41.6225 85.6379 40.2355 86.8568 38.8762 89.0051L38.1993 90.0685L36.6341 88.0816C35.1963 86.2211 35.0861 86.0302 35.1933 85.1139C35.4167 83.0761 34.9624 81.5021 33.0363 77.8511C31.2834 74.5 31.0281 73.3021 31.5487 70.929C31.8587 69.5138 32.1637 68.7196 32.8479 67.5429C34.9663 63.9382 34.5981 62.3874 31.0112 59.8588C27.9158 57.6463 25.3417 54.9512 23.3103 51.779C22.7262 50.8618 22.6406 50.4931 22.7194 49.3386C22.8483 47.1372 24.7035 40.5576 25.7587 38.5122C27.5629 34.9617 29.7565 32.0227 32.3683 29.5876C33.1696 28.8341 33.5556 28.684 35.3215 28.3734C37.6125 27.9961 39.4436 28.3023 40.7663 29.3022ZM98.5265 72.5094C98.9636 72.857 99.7915 73.7243 100.363 74.4307C100.934 75.137 101.543 75.8764 101.724 76.063C102.032 76.3761 102.02 76.4191 101.549 76.8C100.508 77.6737 100.429 79.5195 101.308 81.8297C102.189 84.0481 103.395 84.8785 105.045 84.3986C106.875 83.8515 107.871 81.7673 107.379 79.5608L107.164 78.558L107.867 79.1153C109.611 80.4355 109.674 80.5446 109.271 81.3587C109.07 81.7658 107.962 83.4053 106.78 84.9787C105.619 86.5579 104.583 88.1013 104.503 88.4024C104.255 89.3272 104.735 90.9772 105.6 92.2231C107.587 95.1299 107.912 95.7241 108.151 96.8947C108.357 97.8487 108.33 98.464 108.04 99.6311C107.601 101.357 106.983 102.114 105.995 102.103C104.937 102.096 104.504 101.473 104.48 100.014C104.437 97.7666 103.963 97.0403 102.307 96.5965C100.285 96.0548 99.8707 95.0217 100.715 92.6433C101.005 91.8218 101.208 90.9773 101.141 90.7979C101.064 90.5698 98.8621 91.7317 93.4139 94.8591C86.6898 98.7049 81.6569 101.229 81.4364 100.847C81.405 100.793 81.6608 100.354 82.0141 99.8954C82.3675 99.4369 83.1104 98.299 83.6608 97.3631C85.0967 94.8434 85.8134 93.9751 88.4871 91.3952C89.8268 90.0945 91.5399 88.4328 92.2923 87.6893C93.0662 86.9516 94.192 85.8471 94.8338 85.2584C96.689 83.4965 97.0443 82.6005 97.4506 78.6754C97.6682 76.6591 97.3264 75.7838 95.3749 73.0019C94.9425 72.3789 94.9283 72.2599 95.2943 72.0122C96.2015 71.3793 97.376 71.5557 98.5265 72.5094ZM27.0497 58.7282C27.9809 59.554 29.3608 60.6844 30.1619 61.2218C32.9062 63.1097 33.1089 63.9016 31.574 66.5331C29.0373 70.9246 29.0355 73.598 31.4839 78.3111C32.7661 80.7523 33.4826 82.4656 33.5547 83.3148C33.5973 83.672 33.5485 83.682 33.2348 83.3904C32.719 82.9065 31.3253 82.6022 30.6897 82.8237C30.3797 82.9481 29.8113 83.349 29.4322 83.7315C28.223 84.975 26.9453 84.8401 26.6285 83.4413C26.5487 83.0511 26.1965 82.4727 25.8398 82.1696C25.2007 81.6296 25.1792 81.6238 23.3472 82.0089C21.5425 82.3782 21.4722 82.3824 20.8704 81.8754C19.6354 80.8068 19.7807 79.2322 21.5197 75.0649C23.7204 69.7766 24.2757 65.9836 23.4907 61.601C22.9878 58.7462 22.7038 56.365 22.6314 54.5707L22.5938 53.5925L24.0001 55.3985C24.7662 56.4105 26.1399 57.9081 27.0497 58.7282ZM105.054 78.4307C106.545 80.0058 105.837 83.2507 104.116 82.7897C103.45 82.6111 102.331 80.421 102.334 79.2923C102.331 77.4937 103.722 77.0364 105.054 78.4307Z" fill="black"/>
<path d="M77.8497 53.1393C74.7834 53.0554 72.1163 54.9224 71.9471 57.2744C71.8525 58.4016 72.7227 59.9717 73.8175 60.7031C74.9282 61.4617 75.853 61.7095 77.6615 61.7561C80.6303 61.8601 82.7323 61.1555 83.4238 59.8655C83.9139 58.9826 83.4087 56.9109 82.3949 55.5328C81.1906 53.9193 79.8145 53.2048 77.8497 53.1393ZM79.9568 55.3406C80.8928 55.891 82.1607 58.2132 81.959 58.9659C81.7804 59.6326 81.1935 59.8442 79.1553 59.9665C77.041 60.1146 75.1353 59.7423 74.3746 59.0544C72.8001 57.6182 73.8583 55.3892 76.2914 54.9117C77.9598 54.6211 78.9034 54.7126 79.9568 55.3406Z" fill="black"/>
</g>
<defs>
<clipPath id="clip0_1837_30822">
<rect width="114" height="114" fill="white" transform="translate(30) rotate(15)"/>
</clipPath>
</defs>
</svg>
