<svg width="88" height="88" viewBox="0 0 88 88" fill="none" xmlns="http://www.w3.org/2000/svg">
<path d="M50.2694 24.6903L47.8948 23.7483L47.2581 24.9484L47.282 28.1539L47.9586 32.2962L49.135 35.4967L48.8475 36.0385L48.6353 36.4386L47.7703 35.9018L46.2607 35.4966L44.9713 35.7599L43.0371 36.1548L42.3924 36.2864L41.5275 35.7496L39.3651 34.4076L37.6001 33.844L34.8521 35.329L32.918 35.724L29.6864 35.3136L26.9033 37.3087L24.7569 38.1037L22.4142 41.4357L19.2066 44.2309L18.3736 47.968L16.9038 52.9053L15.1979 55.0372L13.0754 59.0376L25.2005 68.69L31.8839 70.1791L38.1347 71.3998L42.6557 71.5468L44.5739 69.0149L44.9904 67.1463L46.0676 67.2831L50.1481 66.0932L54.0004 63.1664L55.0537 60.0977L56.099 55.9604L56.4995 51.9549L56.8841 45.8123L57.5049 42.4752L57.9214 40.6066L58.5581 39.4065L59.4071 37.8063L60.0439 36.6062L61.3253 35.2744L63.0392 34.211L62.803 31.4056L59.996 30.1952L57.2049 31.1218L54.4138 32.0484L52.8882 29.5062L51.3625 26.964L50.2694 24.6903Z" fill="#A79CEE"/>
<path d="M60.756 15.7736L58.6176 17.637L57.5324 16.4317L57.092 15.0948L55.7946 14.2896L54.2929 14.9529L53.8684 15.753L53.8764 16.8215L54.7573 19.4953L55.8504 21.7691L56.5031 22.7059L56.9436 24.0428L58.233 23.7796L58.8777 23.6479L60.3794 22.9846L62.3135 22.5897L63.3828 21.658L64.452 20.7263L65.5212 19.7945L65.3009 19.1261L65.293 18.0576L65.0727 17.3891L64.8525 16.7207L63.1226 15.647L60.756 15.7736Z" fill="#FB3E2D"/>
<path d="M59.4205 16.2499L59.4204 16.2499L59.4214 16.2488C59.8787 15.6927 60.1533 15.3759 60.5455 15.2255C60.9351 15.0762 61.4335 15.094 62.3257 15.1657C63.7788 15.2638 64.8339 15.7258 65.4325 16.5251C66.0316 17.3251 66.161 18.4463 65.7993 19.8349C65.6665 20.3528 65.2957 20.8889 64.7679 21.4042C64.2391 21.9204 63.548 22.4204 62.7662 22.8652C61.2032 23.7545 59.2696 24.4278 57.5297 24.567L57.5297 24.567L57.5283 24.5671C57.3456 24.5777 57.1978 24.585 57.0747 24.5654C56.9469 24.545 56.844 24.4957 56.7503 24.3959C56.6596 24.2992 56.5796 24.1573 56.49 23.9571C56.4 23.7561 56.2975 23.4896 56.164 23.1396C55.8577 22.3582 55.1354 20.8998 54.5128 19.8877L54.5128 19.8877L54.5123 19.8868C53.9076 18.8674 53.5154 17.8197 53.3704 16.9285C53.2978 16.483 53.2868 16.0744 53.3432 15.7269C53.3997 15.3798 53.5244 15.0894 53.7272 14.8865C53.9983 14.6154 54.4463 14.3857 54.9062 14.2466C55.3646 14.108 55.8499 14.0548 56.1981 14.151C56.3937 14.1956 56.6141 14.319 56.8353 14.4874C57.0582 14.6571 57.2867 14.8761 57.4977 15.1173C57.9176 15.5972 58.2768 16.1748 58.3804 16.6375C58.4354 16.8459 58.4759 16.9913 58.5192 17.0796C58.5409 17.1238 58.5591 17.1446 58.5724 17.1534C58.5812 17.1592 58.591 17.1623 58.6112 17.1557C58.6353 17.1479 58.6694 17.1273 58.717 17.0857C58.7637 17.0448 58.819 16.9875 58.8855 16.9118C59.0185 16.7603 59.1906 16.542 59.4205 16.2499ZM63.6569 21.2058L63.6569 21.2058L63.658 21.2049C64.3409 20.6466 64.7018 20.3201 64.8995 19.9785C65.0949 19.6409 65.1339 19.2829 65.1489 18.6464C65.1681 17.7431 64.9565 17.0832 64.5081 16.6348C64.0587 16.1854 63.36 15.9368 62.3795 15.8822L62.3787 15.8821C61.7278 15.8382 61.3435 15.8534 60.9827 16.012C60.6191 16.1719 60.2725 16.4803 59.7067 17.046L58.4262 18.3265L58.3532 18.3995L58.3167 18.303L57.8937 17.1855L57.8937 17.1853C57.5862 16.3629 57.1147 15.7226 56.5971 15.3426C56.0796 14.9629 55.5226 14.847 55.0326 15.0549C54.7165 15.1906 54.4871 15.3802 54.3401 15.6262C54.193 15.8726 54.125 16.1814 54.1421 16.5612C54.1765 17.3236 54.5533 18.3575 55.2918 19.7029C55.9767 20.9098 56.6557 22.3714 56.8808 22.9458L56.881 22.9458L56.8823 22.9499L57.1861 23.9061L59.6455 23.1909C59.6456 23.1909 59.6457 23.1909 59.6457 23.1908C61.4123 22.6631 62.6371 22.0779 63.6569 21.2058Z" fill="black" stroke="black" stroke-width="0.133333"/>
<mask id="path-4-outside-1_1837_30698" maskUnits="userSpaceOnUse" x="6.89047" y="13.5909" width="69.2965" height="69.2965" fill="black">
<rect fill="white" x="6.89047" y="13.5909" width="69.2965" height="69.2965"/>
<path d="M62.1575 30.1381C60.751 29.2091 57.4434 29.6347 55.4026 30.9799C54.8474 31.3363 54.3542 31.5811 54.3045 31.5314C54.2548 31.4817 53.8042 30.6404 53.3441 29.6594C51.1621 25.1333 49.7985 23.4658 48.3089 23.3653C47.0986 23.2836 47.0552 23.327 46.759 25.4618C46.4999 27.46 47.4074 33.0123 48.2869 34.7166C48.8775 35.9149 48.7227 36.3678 47.9773 35.6225C47.232 34.8771 45.4694 34.8509 43.7353 35.5912L42.2494 36.2323L40.8829 34.8659C39.1437 33.1267 38.0048 33.0731 35.6073 34.6258C33.6068 35.881 33.5168 35.9213 32.1138 35.3864C30.6393 34.8236 28.9981 35.2226 27.37 36.5029C26.6443 37.0795 25.9277 37.4482 25.8284 37.3488C25.2569 36.7774 24.3576 37.5276 23.3506 39.429C22.5295 40.9955 21.8412 41.7831 20.1543 43.2217C18.0735 45.0043 18.0549 45.0726 18.0374 46.531C18.0088 49.5411 16.0516 54.5294 14.0176 56.6627C13.8254 56.9046 13.5187 57.5095 13.3236 58.0524C13.0389 58.9831 13.0823 58.9397 14.3069 57.5163C15.9996 55.4758 17.5398 52.8921 18.0256 51.164C18.2515 50.3915 18.5117 49.7835 18.6048 49.7898C18.6979 49.7961 19.2325 50.8516 19.8045 52.1181C20.961 54.8374 21.0387 54.9585 21.0907 54.0121C21.0873 53.618 20.6735 52.2926 20.1264 51.0509C18.1554 46.5622 18.3808 45.0946 21.2126 43.4552C22.3944 42.7704 22.7137 42.3517 23.6556 40.5154C24.8671 38.2107 25.5245 37.6527 26.0062 38.6119C26.143 38.9224 26.4786 39.4315 26.7085 39.7482C27.0689 40.2823 27.0906 40.2606 26.9192 39.4381C26.7076 38.7056 26.8904 38.324 27.7586 37.4558C29.8206 35.3939 32.2874 35.2128 32.8103 37.1247C33.1215 38.3042 33.0164 38.8068 31.5947 42.1167C30.492 44.6605 30.0967 47.0434 30.8781 46.262C31.0517 46.0884 31.1911 45.7502 31.1754 45.5175C31.2063 45.2879 31.7575 43.8422 32.4637 42.2912C33.3682 40.2439 33.8703 39.4436 34.3481 39.3137C35.3533 39.1035 35.6415 38.5669 34.7448 38.6686C33.9597 38.7083 33.9349 38.6834 33.8689 37.7059C33.8247 36.7066 33.8247 36.7066 35.94 35.436C37.1186 34.7046 38.3378 34.2308 38.735 34.2808C39.0889 34.3741 39.9396 34.9644 40.5856 35.6104C41.7036 36.7284 41.7596 36.8712 41.5842 38.7361C41.4151 40.694 40.3538 44.538 39.3842 46.6505C38.7987 47.9316 38.8652 49.6043 39.4538 48.3697C39.6583 47.9664 40.2498 46.4308 40.7978 44.9387C41.9342 41.8643 41.8908 41.9077 43.0075 41.288C43.6092 40.9347 43.6712 40.8231 43.2337 40.863C42.8675 40.931 42.7465 40.8533 42.9201 40.6797C43.072 40.5278 42.9881 40.3136 42.7242 40.1799C42.2678 39.9406 42.2348 37.3898 42.6906 36.934C42.8208 36.8038 43.7453 36.4259 44.7194 36.0978C46.7142 35.4446 47.5212 35.7307 48.798 37.485C49.7456 38.8233 49.7033 40.2569 48.4317 45.1061C47.383 49.1363 47.2813 50.033 47.5465 51.9044C47.6682 52.6772 47.8044 52.2925 48.1009 50.5053C48.3108 49.1525 48.8921 46.4346 49.4336 44.5018C49.9502 42.5441 50.355 40.3008 50.3016 39.5095C50.273 38.743 50.3436 37.7283 50.4736 37.2505L50.718 36.4098L50.0915 36.7382C49.7099 36.921 49.2196 36.8647 49.0177 36.6194C48.7444 36.3461 48.7629 36.2779 49.0734 36.4147C49.4086 36.5763 49.4955 36.4895 49.5106 36.0271C49.5352 35.7044 49.4169 35.3257 49.2679 35.1767C49.1188 35.0276 48.6833 33.7239 48.3067 32.262C47.5534 29.3383 47.3419 24.8292 47.9279 24.2432C48.6442 23.5269 49.9361 24.8189 51.5584 27.9171C52.9166 30.5341 54.2962 32.7819 57.285 37.2467C58.4935 39.0195 58.5244 38.7899 56.7725 44.4176C56.4692 45.4166 56.2415 47.8803 56.2369 49.8726C56.2713 54.1612 55.6567 57.7572 54.7668 58.6471C53.2474 60.1665 47.9196 60.5253 43.627 59.4016C39.2631 58.25 34.6801 54.8825 31.2724 50.3895C28.4983 46.7038 27.9109 45.5521 27.1048 42.5321C26.6596 40.7412 26.4669 40.288 26.3183 40.834C26.105 41.7927 26.5504 43.9312 27.396 45.8186C28.2136 47.6346 31.6307 52.2672 33.7426 54.379C35.5811 56.2176 39.5055 58.7529 41.9795 59.7075C45.0246 60.886 53.1366 61.2711 54.135 60.2727C54.7645 59.6432 55.0257 60.4254 54.5736 61.6229C54.2455 62.597 53.8579 63.0343 52.3755 64.0695C48.5731 66.7787 47.844 66.9612 42.6739 66.566C40.1136 66.3933 37.5565 66.2672 37.029 66.3474C34.7515 66.5877 35.9061 66.8741 40.2601 67.191L44.8685 67.5018L44.5093 68.358C43.8404 70.1201 43.428 70.5325 42.0226 70.9937C40.4125 71.5107 38.6405 71.3448 33.3207 70.1055C31.2256 69.6166 26.8343 69.3557 25.9156 69.1316C24.9751 68.9291 13.5693 58.5053 13.1815 58.5949C12.3624 58.8177 26.6483 69.4237 32.623 70.7535C39.3984 72.2763 40.3574 72.4105 41.8807 71.9804C43.767 71.4358 44.5049 70.6978 44.8759 68.9852L45.1541 67.6138L46.7491 67.5592C47.8817 67.5198 49.0575 67.0894 50.7324 66.1597C54.3243 64.1083 55.1582 63.0756 55.1128 60.6862C55.0783 60.1741 55.4065 59.2 55.8031 58.5549C56.5283 57.2831 57.0841 53.8453 57.0042 50.9438C56.9154 48.5977 57.3339 44.1543 57.6595 43.8287C58.0502 43.4381 59.3157 38.8433 59.1695 38.3932C59.017 37.85 61.2092 35.6579 62.5306 34.9824C63.8986 34.3101 64.3227 33.0413 63.6359 31.7902C63.3438 31.2376 63.0082 30.7284 62.9337 30.6538C62.8374 30.601 62.4959 30.3463 62.1575 30.1381ZM63.1744 32.848C63.1872 33.3817 62.8616 33.7073 61.4628 34.6092C60.5293 35.1949 59.478 36.0971 59.1401 36.5841C58.4924 37.6293 58.7626 37.8561 56.0505 34.0587L54.9507 32.5249L56.0982 31.6755C57.3357 30.7859 59.9542 30.1053 60.9971 30.4537C61.9904 30.7524 63.2172 32.1095 63.1744 32.848Z"/>
</mask>
<path d="M62.1575 30.1381C60.751 29.2091 57.4434 29.6347 55.4026 30.9799C54.8474 31.3363 54.3542 31.5811 54.3045 31.5314C54.2548 31.4817 53.8042 30.6404 53.3441 29.6594C51.1621 25.1333 49.7985 23.4658 48.3089 23.3653C47.0986 23.2836 47.0552 23.327 46.759 25.4618C46.4999 27.46 47.4074 33.0123 48.2869 34.7166C48.8775 35.9149 48.7227 36.3678 47.9773 35.6225C47.232 34.8771 45.4694 34.8509 43.7353 35.5912L42.2494 36.2323L40.8829 34.8659C39.1437 33.1267 38.0048 33.0731 35.6073 34.6258C33.6068 35.881 33.5168 35.9213 32.1138 35.3864C30.6393 34.8236 28.9981 35.2226 27.37 36.5029C26.6443 37.0795 25.9277 37.4482 25.8284 37.3488C25.2569 36.7774 24.3576 37.5276 23.3506 39.429C22.5295 40.9955 21.8412 41.7831 20.1543 43.2217C18.0735 45.0043 18.0549 45.0726 18.0374 46.531C18.0088 49.5411 16.0516 54.5294 14.0176 56.6627C13.8254 56.9046 13.5187 57.5095 13.3236 58.0524C13.0389 58.9831 13.0823 58.9397 14.3069 57.5163C15.9996 55.4758 17.5398 52.8921 18.0256 51.164C18.2515 50.3915 18.5117 49.7835 18.6048 49.7898C18.6979 49.7961 19.2325 50.8516 19.8045 52.1181C20.961 54.8374 21.0387 54.9585 21.0907 54.0121C21.0873 53.618 20.6735 52.2926 20.1264 51.0509C18.1554 46.5622 18.3808 45.0946 21.2126 43.4552C22.3944 42.7704 22.7137 42.3517 23.6556 40.5154C24.8671 38.2107 25.5245 37.6527 26.0062 38.6119C26.143 38.9224 26.4786 39.4315 26.7085 39.7482C27.0689 40.2823 27.0906 40.2606 26.9192 39.4381C26.7076 38.7056 26.8904 38.324 27.7586 37.4558C29.8206 35.3939 32.2874 35.2128 32.8103 37.1247C33.1215 38.3042 33.0164 38.8068 31.5947 42.1167C30.492 44.6605 30.0967 47.0434 30.8781 46.262C31.0517 46.0884 31.1911 45.7502 31.1754 45.5175C31.2063 45.2879 31.7575 43.8422 32.4637 42.2912C33.3682 40.2439 33.8703 39.4436 34.3481 39.3137C35.3533 39.1035 35.6415 38.5669 34.7448 38.6686C33.9597 38.7083 33.9349 38.6834 33.8689 37.7059C33.8247 36.7066 33.8247 36.7066 35.94 35.436C37.1186 34.7046 38.3378 34.2308 38.735 34.2808C39.0889 34.3741 39.9396 34.9644 40.5856 35.6104C41.7036 36.7284 41.7596 36.8712 41.5842 38.7361C41.4151 40.694 40.3538 44.538 39.3842 46.6505C38.7987 47.9316 38.8652 49.6043 39.4538 48.3697C39.6583 47.9664 40.2498 46.4308 40.7978 44.9387C41.9342 41.8643 41.8908 41.9077 43.0075 41.288C43.6092 40.9347 43.6712 40.8231 43.2337 40.863C42.8675 40.931 42.7465 40.8533 42.9201 40.6797C43.072 40.5278 42.9881 40.3136 42.7242 40.1799C42.2678 39.9406 42.2348 37.3898 42.6906 36.934C42.8208 36.8038 43.7453 36.4259 44.7194 36.0978C46.7142 35.4446 47.5212 35.7307 48.798 37.485C49.7456 38.8233 49.7033 40.2569 48.4317 45.1061C47.383 49.1363 47.2813 50.033 47.5465 51.9044C47.6682 52.6772 47.8044 52.2925 48.1009 50.5053C48.3108 49.1525 48.8921 46.4346 49.4336 44.5018C49.9502 42.5441 50.355 40.3008 50.3016 39.5095C50.273 38.743 50.3436 37.7283 50.4736 37.2505L50.718 36.4098L50.0915 36.7382C49.7099 36.921 49.2196 36.8647 49.0177 36.6194C48.7444 36.3461 48.7629 36.2779 49.0734 36.4147C49.4086 36.5763 49.4955 36.4895 49.5106 36.0271C49.5352 35.7044 49.4169 35.3257 49.2679 35.1767C49.1188 35.0276 48.6833 33.7239 48.3067 32.262C47.5534 29.3383 47.3419 24.8292 47.9279 24.2432C48.6442 23.5269 49.9361 24.8189 51.5584 27.9171C52.9166 30.5341 54.2962 32.7819 57.285 37.2467C58.4935 39.0195 58.5244 38.7899 56.7725 44.4176C56.4692 45.4166 56.2415 47.8803 56.2369 49.8726C56.2713 54.1612 55.6567 57.7572 54.7668 58.6471C53.2474 60.1665 47.9196 60.5253 43.627 59.4016C39.2631 58.25 34.6801 54.8825 31.2724 50.3895C28.4983 46.7038 27.9109 45.5521 27.1048 42.5321C26.6596 40.7412 26.4669 40.288 26.3183 40.834C26.105 41.7927 26.5504 43.9312 27.396 45.8186C28.2136 47.6346 31.6307 52.2672 33.7426 54.379C35.5811 56.2176 39.5055 58.7529 41.9795 59.7075C45.0246 60.886 53.1366 61.2711 54.135 60.2727C54.7645 59.6432 55.0257 60.4254 54.5736 61.6229C54.2455 62.597 53.8579 63.0343 52.3755 64.0695C48.5731 66.7787 47.844 66.9612 42.6739 66.566C40.1136 66.3933 37.5565 66.2672 37.029 66.3474C34.7515 66.5877 35.9061 66.8741 40.2601 67.191L44.8685 67.5018L44.5093 68.358C43.8404 70.1201 43.428 70.5325 42.0226 70.9937C40.4125 71.5107 38.6405 71.3448 33.3207 70.1055C31.2256 69.6166 26.8343 69.3557 25.9156 69.1316C24.9751 68.9291 13.5693 58.5053 13.1815 58.5949C12.3624 58.8177 26.6483 69.4237 32.623 70.7535C39.3984 72.2763 40.3574 72.4105 41.8807 71.9804C43.767 71.4358 44.5049 70.6978 44.8759 68.9852L45.1541 67.6138L46.7491 67.5592C47.8817 67.5198 49.0575 67.0894 50.7324 66.1597C54.3243 64.1083 55.1582 63.0756 55.1128 60.6862C55.0783 60.1741 55.4065 59.2 55.8031 58.5549C56.5283 57.2831 57.0841 53.8453 57.0042 50.9438C56.9154 48.5977 57.3339 44.1543 57.6595 43.8287C58.0502 43.4381 59.3157 38.8433 59.1695 38.3932C59.017 37.85 61.2092 35.6579 62.5306 34.9824C63.8986 34.3101 64.3227 33.0413 63.6359 31.7902C63.3438 31.2376 63.0082 30.7284 62.9337 30.6538C62.8374 30.601 62.4959 30.3463 62.1575 30.1381ZM63.1744 32.848C63.1872 33.3817 62.8616 33.7073 61.4628 34.6092C60.5293 35.1949 59.478 36.0971 59.1401 36.5841C58.4924 37.6293 58.7626 37.8561 56.0505 34.0587L54.9507 32.5249L56.0982 31.6755C57.3357 30.7859 59.9542 30.1053 60.9971 30.4537C61.9904 30.7524 63.2172 32.1095 63.1744 32.848Z" fill="black"/>
<path d="M62.1575 30.1381C60.751 29.2091 57.4434 29.6347 55.4026 30.9799C54.8474 31.3363 54.3542 31.5811 54.3045 31.5314C54.2548 31.4817 53.8042 30.6404 53.3441 29.6594C51.1621 25.1333 49.7985 23.4658 48.3089 23.3653C47.0986 23.2836 47.0552 23.327 46.759 25.4618C46.4999 27.46 47.4074 33.0123 48.2869 34.7166C48.8775 35.9149 48.7227 36.3678 47.9773 35.6225C47.232 34.8771 45.4694 34.8509 43.7353 35.5912L42.2494 36.2323L40.8829 34.8659C39.1437 33.1267 38.0048 33.0731 35.6073 34.6258C33.6068 35.881 33.5168 35.9213 32.1138 35.3864C30.6393 34.8236 28.9981 35.2226 27.37 36.5029C26.6443 37.0795 25.9277 37.4482 25.8284 37.3488C25.2569 36.7774 24.3576 37.5276 23.3506 39.429C22.5295 40.9955 21.8412 41.7831 20.1543 43.2217C18.0735 45.0043 18.0549 45.0726 18.0374 46.531C18.0088 49.5411 16.0516 54.5294 14.0176 56.6627C13.8254 56.9046 13.5187 57.5095 13.3236 58.0524C13.0389 58.9831 13.0823 58.9397 14.3069 57.5163C15.9996 55.4758 17.5398 52.8921 18.0256 51.164C18.2515 50.3915 18.5117 49.7835 18.6048 49.7898C18.6979 49.7961 19.2325 50.8516 19.8045 52.1181C20.961 54.8374 21.0387 54.9585 21.0907 54.0121C21.0873 53.618 20.6735 52.2926 20.1264 51.0509C18.1554 46.5622 18.3808 45.0946 21.2126 43.4552C22.3944 42.7704 22.7137 42.3517 23.6556 40.5154C24.8671 38.2107 25.5245 37.6527 26.0062 38.6119C26.143 38.9224 26.4786 39.4315 26.7085 39.7482C27.0689 40.2823 27.0906 40.2606 26.9192 39.4381C26.7076 38.7056 26.8904 38.324 27.7586 37.4558C29.8206 35.3939 32.2874 35.2128 32.8103 37.1247C33.1215 38.3042 33.0164 38.8068 31.5947 42.1167C30.492 44.6605 30.0967 47.0434 30.8781 46.262C31.0517 46.0884 31.1911 45.7502 31.1754 45.5175C31.2063 45.2879 31.7575 43.8422 32.4637 42.2912C33.3682 40.2439 33.8703 39.4436 34.3481 39.3137C35.3533 39.1035 35.6415 38.5669 34.7448 38.6686C33.9597 38.7083 33.9349 38.6834 33.8689 37.7059C33.8247 36.7066 33.8247 36.7066 35.94 35.436C37.1186 34.7046 38.3378 34.2308 38.735 34.2808C39.0889 34.3741 39.9396 34.9644 40.5856 35.6104C41.7036 36.7284 41.7596 36.8712 41.5842 38.7361C41.4151 40.694 40.3538 44.538 39.3842 46.6505C38.7987 47.9316 38.8652 49.6043 39.4538 48.3697C39.6583 47.9664 40.2498 46.4308 40.7978 44.9387C41.9342 41.8643 41.8908 41.9077 43.0075 41.288C43.6092 40.9347 43.6712 40.8231 43.2337 40.863C42.8675 40.931 42.7465 40.8533 42.9201 40.6797C43.072 40.5278 42.9881 40.3136 42.7242 40.1799C42.2678 39.9406 42.2348 37.3898 42.6906 36.934C42.8208 36.8038 43.7453 36.4259 44.7194 36.0978C46.7142 35.4446 47.5212 35.7307 48.798 37.485C49.7456 38.8233 49.7033 40.2569 48.4317 45.1061C47.383 49.1363 47.2813 50.033 47.5465 51.9044C47.6682 52.6772 47.8044 52.2925 48.1009 50.5053C48.3108 49.1525 48.8921 46.4346 49.4336 44.5018C49.9502 42.5441 50.355 40.3008 50.3016 39.5095C50.273 38.743 50.3436 37.7283 50.4736 37.2505L50.718 36.4098L50.0915 36.7382C49.7099 36.921 49.2196 36.8647 49.0177 36.6194C48.7444 36.3461 48.7629 36.2779 49.0734 36.4147C49.4086 36.5763 49.4955 36.4895 49.5106 36.0271C49.5352 35.7044 49.4169 35.3257 49.2679 35.1767C49.1188 35.0276 48.6833 33.7239 48.3067 32.262C47.5534 29.3383 47.3419 24.8292 47.9279 24.2432C48.6442 23.5269 49.9361 24.8189 51.5584 27.9171C52.9166 30.5341 54.2962 32.7819 57.285 37.2467C58.4935 39.0195 58.5244 38.7899 56.7725 44.4176C56.4692 45.4166 56.2415 47.8803 56.2369 49.8726C56.2713 54.1612 55.6567 57.7572 54.7668 58.6471C53.2474 60.1665 47.9196 60.5253 43.627 59.4016C39.2631 58.25 34.6801 54.8825 31.2724 50.3895C28.4983 46.7038 27.9109 45.5521 27.1048 42.5321C26.6596 40.7412 26.4669 40.288 26.3183 40.834C26.105 41.7927 26.5504 43.9312 27.396 45.8186C28.2136 47.6346 31.6307 52.2672 33.7426 54.379C35.5811 56.2176 39.5055 58.7529 41.9795 59.7075C45.0246 60.886 53.1366 61.2711 54.135 60.2727C54.7645 59.6432 55.0257 60.4254 54.5736 61.6229C54.2455 62.597 53.8579 63.0343 52.3755 64.0695C48.5731 66.7787 47.844 66.9612 42.6739 66.566C40.1136 66.3933 37.5565 66.2672 37.029 66.3474C34.7515 66.5877 35.9061 66.8741 40.2601 67.191L44.8685 67.5018L44.5093 68.358C43.8404 70.1201 43.428 70.5325 42.0226 70.9937C40.4125 71.5107 38.6405 71.3448 33.3207 70.1055C31.2256 69.6166 26.8343 69.3557 25.9156 69.1316C24.9751 68.9291 13.5693 58.5053 13.1815 58.5949C12.3624 58.8177 26.6483 69.4237 32.623 70.7535C39.3984 72.2763 40.3574 72.4105 41.8807 71.9804C43.767 71.4358 44.5049 70.6978 44.8759 68.9852L45.1541 67.6138L46.7491 67.5592C47.8817 67.5198 49.0575 67.0894 50.7324 66.1597C54.3243 64.1083 55.1582 63.0756 55.1128 60.6862C55.0783 60.1741 55.4065 59.2 55.8031 58.5549C56.5283 57.2831 57.0841 53.8453 57.0042 50.9438C56.9154 48.5977 57.3339 44.1543 57.6595 43.8287C58.0502 43.4381 59.3157 38.8433 59.1695 38.3932C59.017 37.85 61.2092 35.6579 62.5306 34.9824C63.8986 34.3101 64.3227 33.0413 63.6359 31.7902C63.3438 31.2376 63.0082 30.7284 62.9337 30.6538C62.8374 30.601 62.4959 30.3463 62.1575 30.1381ZM63.1744 32.848C63.1872 33.3817 62.8616 33.7073 61.4628 34.6092C60.5293 35.1949 59.478 36.0971 59.1401 36.5841C58.4924 37.6293 58.7626 37.8561 56.0505 34.0587L54.9507 32.5249L56.0982 31.6755C57.3357 30.7859 59.9542 30.1053 60.9971 30.4537C61.9904 30.7524 63.2172 32.1095 63.1744 32.848Z" stroke="black" stroke-width="0.6" mask="url(#path-4-outside-1_1837_30698)"/>
</svg>
