<svg width="190" height="186" viewBox="0 0 190 186" fill="none" xmlns="http://www.w3.org/2000/svg">
<g clip-path="url(#clip0_1463_20633)">
<path d="M48.6842 38.5158C56.2835 32.9811 64.2404 27.9566 72.2735 23.076C76.7179 20.3745 81.1905 17.7197 85.6465 15.0394C86.1392 14.7429 86.7857 14.7621 87.1509 15.2711C89.6305 18.7289 92.6995 21.5928 96.2468 23.9325C99.7146 26.2215 103.476 28.0287 107.135 29.9829C109.081 31.0218 111.023 32.0705 112.831 33.3408C114.509 34.5197 116.08 35.8487 117.543 37.2812C120.633 40.3062 123.286 43.761 125.427 47.5173C127.792 51.6709 129.564 56.1445 130.474 60.8469C130.916 61.0889 131.201 61.6601 131.041 62.1772C141.106 62.8861 151.053 65.6488 159.969 70.3811C168.96 75.1528 176.923 81.8902 182.797 90.2337C186.156 95.0046 188.814 100.266 190.65 105.805C191.009 106.886 189.713 107.617 189.002 107.102C188.424 107.511 187.85 107.925 187.272 108.334C187.161 108.471 187.051 108.608 186.944 108.749C186.538 109.281 186.152 109.827 185.783 110.387C185.348 111.045 185.114 111.431 184.76 112.062C184.052 113.325 183.422 114.644 182.965 116.02C182.914 116.169 182.87 116.318 182.823 116.468C182.816 116.491 182.8 116.548 182.791 116.586C182.777 116.633 182.765 116.683 182.753 116.731C182.677 117.046 182.604 117.363 182.552 117.685C182.508 117.957 182.476 118.229 182.459 118.503C182.454 118.577 182.452 118.652 182.449 118.727C182.449 118.734 182.45 118.736 182.449 118.743C182.454 118.881 182.458 119.02 182.473 119.157C182.489 119.317 182.516 119.473 182.542 119.63C182.55 119.68 182.554 119.705 182.554 119.719C182.562 119.734 182.573 119.757 182.591 119.806C182.639 119.933 182.691 120.059 182.742 120.185C182.745 120.194 182.75 120.205 182.757 120.215C182.785 120.262 182.815 120.309 182.846 120.355C182.897 120.428 182.953 120.496 183.009 120.564C183.004 120.548 183.204 120.753 183.259 120.797C183.305 120.833 183.451 120.922 183.491 120.948C183.612 121.01 183.733 121.071 183.858 121.121C184.71 121.465 184.618 122.445 184.087 122.919C184.163 123.272 184.058 123.652 183.66 123.917C175.405 129.406 167.249 135.043 159.182 140.807C150.927 146.704 142.766 152.733 134.703 158.891C130.203 162.328 125.736 165.804 121.303 169.325C120.477 169.983 119.545 169.131 119.624 168.31C119.594 168.384 119.565 168.462 119.533 168.536C119.227 169.259 118.461 169.296 117.953 168.963C117.65 168.94 117.355 168.806 117.201 168.538C112.475 160.344 108.358 151.804 103.282 143.811C100.786 139.88 98.0339 136.168 94.872 132.746C91.4261 129.018 87.6153 125.604 83.4644 122.678C78.8088 119.394 73.6885 116.784 68.2272 115.131C67.6711 114.962 67.4564 114.206 67.6685 113.717C67.6769 113.697 67.6884 113.682 67.6988 113.663C67.5623 113.664 67.4224 113.636 67.2807 113.574C66.7895 113.361 66.4351 112.668 66.722 112.16C66.7626 112.088 66.8081 112.02 66.8487 111.947C64.5434 104.6 60.2335 98.0168 55.5869 91.9496C53.1918 88.8238 50.7338 85.6407 47.9449 82.8542C45.2302 80.1414 42.1539 77.8535 38.9126 75.808C35.1265 73.418 31.1916 71.2705 27.4254 68.8452C27.1984 68.6985 27.0778 68.45 27.0444 68.1864C26.8176 68.2681 26.5854 68.336 26.3495 68.3907C25.7832 68.5216 25.2156 67.9849 25.1514 67.4518C25.0762 66.8215 25.5235 66.3853 26.0906 66.2525C27.2595 65.9812 28.3523 64.9062 28.6578 63.7486C28.6985 63.5908 28.7735 63.0556 28.7731 62.8755C28.7725 62.8129 28.7563 62.5682 28.7405 62.4345C28.7295 62.3374 28.7158 62.2414 28.6973 62.1457C28.6929 62.1185 28.6643 61.9769 28.6674 61.9805C28.4848 61.2576 28.1966 60.7889 27.6835 60.2436C27.2851 59.8218 27.4876 59.0511 27.9159 58.7382C28.2267 58.5105 28.561 58.4892 28.8684 58.5993C28.8694 58.5812 28.8675 58.5643 28.8703 58.547C28.8792 58.484 28.8956 58.4195 28.9178 58.3576C28.5909 58.4629 28.2312 58.4202 27.9338 58.1806C27.5065 57.8363 27.3721 57.0927 27.7706 56.6677C34.085 49.9048 41.217 43.9531 48.6842 38.5158ZM74.4724 107.171C74.3728 107.257 74.2564 107.313 74.134 107.345C74.3783 107.409 74.6225 107.473 74.8679 107.54C74.7086 107.435 74.5944 107.288 74.5284 107.121C74.5086 107.14 74.4905 107.155 74.4724 107.171ZM182.768 120.231C182.797 120.288 182.83 120.334 182.768 120.231V120.231Z" fill="white"/>
<path d="M130.078 62.1103C140.47 62.7054 150.768 65.4999 159.968 70.3805C168.959 75.1523 176.922 81.8897 182.796 90.2331C186.155 95.0041 188.813 100.265 190.649 105.805C191.083 107.117 189.084 107.915 188.648 106.597C185.49 97.072 179.866 88.5117 172.46 81.7521C165.083 75.0193 156.17 70.12 146.633 67.2095C141.165 65.5402 135.482 64.5692 129.776 64.2435C129.196 64.2091 128.784 63.5691 128.861 63.0281C128.949 62.4107 129.497 62.0779 130.078 62.1103Z" fill="black"/>
<path d="M189.176 106.975C180.431 113.175 171.75 119.466 163.139 125.852C154.527 132.238 145.984 138.712 137.509 145.279C132.746 148.971 128.004 152.689 123.286 156.437C122.742 156.868 121.893 156.593 121.648 155.965C118.344 147.47 114.437 139.153 109.381 131.551C104.352 123.987 98.0562 116.915 90.0538 112.431C85.5056 109.884 80.5332 108.263 75.3472 107.71C73.9677 107.563 74.273 105.431 75.6486 105.577C85.1828 106.594 93.7994 111.183 100.707 117.719C107.692 124.331 113.007 132.511 117.363 141.032C119.712 145.626 121.778 150.363 123.65 155.173C123.104 155.015 122.559 154.86 122.012 154.701C130.408 148.035 138.872 141.456 147.407 134.969C155.942 128.483 164.546 122.087 173.216 115.784C178.09 112.241 182.985 108.726 187.901 105.241C189.032 104.439 190.31 106.172 189.176 106.975Z" fill="black"/>
<path d="M130.685 62.6992C123.559 68.4942 116.254 74.0619 108.941 79.6169C101.569 85.2177 94.1944 90.8197 86.9937 96.6425C82.7539 100.069 78.5759 103.572 74.479 107.169C74.0431 107.553 73.2981 107.378 72.9745 106.937C72.6068 106.434 72.7683 105.817 73.207 105.432C80.3626 99.149 87.7737 93.1705 95.2989 87.3383C102.545 81.7245 109.889 76.2361 117.15 70.6424C121.275 67.4635 125.373 64.2473 129.415 60.963C130.488 60.0892 131.76 61.8243 130.685 62.6992Z" fill="black"/>
<path d="M128.366 61.232C126.829 53.1401 122.536 45.4101 116.787 39.5508C115.344 38.0811 113.794 36.713 112.136 35.4894C110.489 34.2728 108.73 33.2756 106.93 32.3064C103.17 30.281 99.315 28.4126 95.7024 26.1277C91.6893 23.591 88.1919 20.4122 85.4189 16.5458C85.9206 16.6224 86.4224 16.699 86.9233 16.7775C78.9986 21.5412 71.0302 26.2353 63.2456 31.2237C55.3869 36.2607 47.6951 41.5938 40.5343 47.5907C36.6416 50.8497 32.919 54.3069 29.4567 58.02C29.0601 58.4458 28.4194 58.5675 27.9445 58.1841C27.5172 57.8398 27.3828 57.0962 27.7813 56.6712C34.0898 49.9058 41.2218 43.9541 48.689 38.5168C56.2883 32.9821 64.2453 27.9576 72.2784 23.077C76.7228 20.3755 81.1953 17.7207 85.6513 15.0404C86.1441 14.7439 86.7906 14.7631 87.1558 15.2721C89.6354 18.7299 92.7043 21.5938 96.2517 23.9335C99.7195 26.2225 103.481 28.0297 107.14 29.9839C109.086 31.0228 111.027 32.0715 112.836 33.3418C114.513 34.5207 116.084 35.8497 117.548 37.2822C120.637 40.3072 123.291 43.762 125.432 47.5183C127.82 51.7095 129.604 56.2251 130.505 60.9725C130.762 62.339 128.623 62.5871 128.366 61.232Z" fill="black"/>
<path d="M71.8101 105.503C68.4231 97.8211 64.2197 90.5498 59.4371 83.6576C57.0441 80.2073 54.5774 76.7781 51.7571 73.6596C48.9742 70.5827 45.8413 67.7972 42.4081 65.4655C38.5762 62.8618 34.3018 60.8487 29.7898 59.7619C29.226 59.6262 28.7865 59.1612 28.8751 58.5465C28.9513 58.0142 29.5228 57.4933 30.0904 57.6307C38.5517 59.6714 45.9998 64.5729 51.9986 70.7921C55.0366 73.9403 57.6603 77.4167 60.1865 80.98C62.6488 84.4511 64.9788 88.0149 67.1307 91.6862C69.5994 95.8985 71.8384 100.242 73.8084 104.711C74.3705 105.979 72.3683 106.769 71.8101 105.503Z" fill="black"/>
<path d="M188.982 106.481C188.899 106.551 188.817 106.624 188.735 106.695C188.701 106.726 188.667 106.757 188.632 106.788C188.454 106.951 188.764 106.656 188.651 106.771C188.464 106.96 188.278 107.149 188.1 107.347C187.694 107.794 187.31 108.265 186.943 108.745C186.537 109.278 186.151 109.823 185.782 110.383C185.347 111.042 185.113 111.427 184.759 112.058C184.05 113.321 183.421 114.641 182.964 116.016C182.915 116.166 182.869 116.314 182.822 116.465C182.808 116.514 182.748 116.733 182.802 116.532C182.786 116.597 182.767 116.662 182.75 116.727C182.674 117.042 182.601 117.359 182.549 117.68C182.505 117.952 182.473 118.224 182.456 118.498C182.45 118.586 182.447 118.672 182.445 118.761C182.445 118.724 182.442 118.541 182.448 118.74C182.453 118.878 182.457 119.016 182.472 119.154C182.488 119.313 182.514 119.47 182.541 119.627C182.589 119.904 182.49 119.538 182.591 119.805C182.639 119.932 182.691 120.058 182.742 120.185C182.767 120.249 182.865 120.395 182.727 120.171C182.765 120.234 182.802 120.296 182.843 120.355C182.912 120.457 182.989 120.55 183.069 120.642C182.873 120.41 183.188 120.742 183.259 120.796C183.331 120.853 183.661 121.044 183.404 120.907C183.552 120.988 183.703 121.058 183.858 121.12C185.144 121.64 184.286 123.615 183.002 123.096C180.22 121.972 179.977 118.887 180.644 116.331C181.44 113.279 183.05 110.425 184.898 107.889C185.723 106.756 186.628 105.646 187.708 104.745C188.773 103.856 190.043 105.592 188.982 106.481Z" fill="black"/>
<path d="M183.661 123.917C175.406 129.406 167.25 135.043 159.183 140.807C150.929 146.704 142.767 152.733 134.704 158.891C130.204 162.328 125.738 165.804 121.305 169.325C120.219 170.186 118.946 168.451 120.032 167.59C127.925 161.324 135.924 155.192 144.018 149.186C152.128 143.169 160.332 137.275 168.632 131.523C173.186 128.366 177.771 125.25 182.386 122.181C183.538 121.418 184.82 123.148 183.661 123.917Z" fill="black"/>
<path d="M123.933 156.006C122.419 160.161 121.264 164.461 119.542 168.538C119.003 169.816 117.028 168.96 117.568 167.683C119.29 163.606 120.445 159.306 121.959 155.151C122.433 153.847 124.405 154.708 123.933 156.006Z" fill="black"/>
<path d="M117.206 168.541C112.48 160.346 108.363 151.806 103.287 143.813C100.791 139.882 98.0387 136.17 94.8768 132.749C91.4309 129.02 87.6202 125.606 83.4692 122.68C78.8136 119.396 73.6933 116.786 68.232 115.133C67.6759 114.964 67.4612 114.209 67.6733 113.719C67.9267 113.134 68.5291 112.989 69.0872 113.159C79.0201 116.167 87.7441 122.323 94.9287 129.707C98.2623 133.131 101.244 136.803 103.884 140.79C106.587 144.871 109.001 149.136 111.353 153.424C113.884 158.037 116.309 162.711 118.939 167.27C119.229 167.772 119.213 168.404 118.707 168.775C118.279 169.086 117.498 169.048 117.206 168.541Z" fill="black"/>
<path d="M73.8128 106.88C73.6554 106.983 73.5062 107.098 73.3621 107.218C73.2687 107.295 73.1792 107.374 73.0888 107.455C73.0392 107.5 72.7714 107.751 72.9217 107.606C72.4291 108.078 71.9666 108.582 71.5199 109.097C70.4687 110.31 69.4802 111.628 68.7009 113.012C68.4167 113.519 67.8598 113.82 67.287 113.572C66.7958 113.359 66.4414 112.666 66.7283 112.158C67.6129 110.584 68.6632 109.112 69.8445 107.748C70.6424 106.827 71.5113 105.816 72.5419 105.146C73.0297 104.829 73.6888 104.888 74.0463 105.377C74.3732 105.826 74.3026 106.564 73.8128 106.88Z" fill="black"/>
<path d="M66.9878 112.354C64.7179 104.841 60.3272 98.1298 55.5958 91.9497C53.2006 88.8238 50.7426 85.6407 47.9538 82.8543C45.239 80.1415 42.1627 77.8536 38.9214 75.808C35.1354 73.4181 31.2004 71.2705 27.4342 68.8453C26.946 68.5299 26.9356 67.7501 27.271 67.3324C27.6668 66.8392 28.295 66.8529 28.7832 67.1682C35.4178 71.4405 42.6605 74.8732 48.446 80.3446C51.3963 83.1363 53.9536 86.3509 56.4549 89.5458C58.9379 92.719 61.2941 95.9987 63.3789 99.4471C65.6856 103.262 67.6977 107.288 68.99 111.565C69.1577 112.12 68.9554 112.736 68.3849 112.962C67.8772 113.16 67.1558 112.914 66.9878 112.354Z" fill="black"/>
<path d="M29.4284 58.9704C30.8097 60.4341 31.2368 62.6152 30.6671 64.5213C30.0706 66.5105 28.3389 67.9319 26.3576 68.3912C25.7913 68.5221 25.2237 67.9854 25.1595 67.4523C25.0843 66.8221 25.5315 66.3858 26.0986 66.253C27.2676 65.9817 28.3604 64.9067 28.6658 63.7491C28.7065 63.5913 28.7815 63.0561 28.7812 62.876C28.7806 62.8134 28.7644 62.5687 28.7486 62.435C28.7376 62.3379 28.7238 62.2419 28.7053 62.1462C28.6996 62.1115 28.6544 61.8911 28.6839 62.0147C28.5031 61.2717 28.2108 60.7967 27.6916 60.2441C27.2932 59.8223 27.4956 59.0516 27.924 58.7387C28.4379 58.3614 29.0262 58.547 29.4284 58.9704Z" fill="black"/>
<path d="M181.724 120.142C173.497 125.79 165.377 131.593 157.372 137.555C149.397 143.494 141.534 149.589 133.792 155.832C129.425 159.354 125.098 162.923 120.808 166.536C120.384 166.893 119.875 166.199 120.299 165.843C127.93 159.41 135.684 153.125 143.557 146.994C151.404 140.884 159.367 134.923 167.443 129.119C171.997 125.844 176.589 122.623 181.213 119.448C181.671 119.136 182.182 119.828 181.724 120.142Z" fill="black"/>
<path d="M180.928 117.869C172.992 123.334 165.215 129.029 157.531 134.844C149.735 140.743 142.033 146.769 134.367 152.837C130.152 156.174 125.947 159.526 121.745 162.877C121.311 163.222 120.802 162.529 121.236 162.183C128.773 156.174 136.312 150.166 143.912 144.237C151.62 138.223 159.386 132.285 167.277 126.514C171.616 123.343 175.991 120.221 180.417 117.175C180.873 116.862 181.384 117.554 180.928 117.869Z" fill="black"/>
<path d="M182.295 114.485C174.433 120.139 166.475 125.664 158.582 131.276C150.805 136.806 143.097 142.437 135.618 148.365C131.229 151.843 126.918 155.424 122.707 159.114C122.291 159.479 121.783 158.783 122.198 158.421C129.558 151.97 137.22 145.879 145.062 140.03C152.693 134.338 160.481 128.866 168.263 123.385C172.781 120.203 177.3 117.017 181.787 113.79C182.236 113.467 182.748 114.16 182.295 114.485Z" fill="black"/>
<path d="M121.117 158.34C117.024 149.594 113.027 140.734 107.551 132.743C102.086 124.766 95.0668 117.985 86.5796 113.284C81.8492 110.663 76.7554 108.71 71.4656 107.577C70.9256 107.461 71.044 106.608 71.5858 106.725C81.0855 108.758 89.9402 113.367 97.2568 119.732C104.663 126.178 110.117 134.385 114.66 143.022C117.247 147.941 119.564 152.993 121.917 158.025C122.152 158.526 121.352 158.841 121.117 158.34Z" fill="black"/>
<path d="M120.392 161.769C116.812 152.908 112.45 144.326 106.967 136.485C104.253 132.605 101.268 128.904 97.965 125.51C94.5188 121.968 90.7914 118.692 86.4259 116.33C81.3271 113.575 75.7698 111.83 70.4755 109.504C69.9677 109.282 70.3102 108.491 70.818 108.713C75.6064 110.818 80.601 112.446 85.2898 114.774C87.6085 115.927 89.8449 117.258 91.8997 118.838C93.8249 120.318 95.6274 121.98 97.3572 123.682C104.163 130.385 109.683 138.286 114.247 146.656C116.857 151.441 119.152 156.395 121.194 161.45C121.399 161.965 120.6 162.284 120.392 161.769Z" fill="black"/>
<path d="M118.798 164.619C116.495 155.421 111.207 147.151 105.823 139.47C100.122 131.34 93.4201 123.965 85.1335 118.407C80.36 115.204 75.0426 112.75 69.3144 111.937C68.7651 111.859 68.8854 111.006 69.4347 111.085C74.5411 111.811 79.3313 113.81 83.7147 116.481C88.1247 119.172 92.2123 122.484 95.8805 126.115C99.4213 129.619 102.586 133.487 105.496 137.526C108.354 141.489 111.058 145.596 113.48 149.841C116.121 154.469 118.354 159.332 119.652 164.516C119.788 165.055 118.933 165.151 118.798 164.619Z" fill="black"/>
<path d="M70.2275 107.399C69.4129 103.365 67.5781 99.5844 65.532 96.0467C63.487 92.5117 61.1878 89.1113 58.8653 85.7538C54.0493 78.7894 48.0507 72.4527 41.1052 67.5888C37.6621 65.179 33.9085 63.1077 29.8486 61.9513C29.3172 61.7996 29.6655 61.0113 30.1912 61.1605C33.8401 62.2011 37.2416 63.9884 40.3986 66.0689C43.934 68.3988 47.1937 71.1469 50.2033 74.1213C53.323 77.2033 56.1924 80.5438 58.7552 84.1023C61.1694 87.4557 63.4775 90.9315 65.5997 94.4745C67.9888 98.4608 70.1559 102.704 71.0804 107.293C71.1909 107.841 70.3366 107.94 70.2275 107.399Z" fill="black"/>
<path d="M69.0345 109.757C66.3862 102.239 63.0657 94.9251 58.7066 88.2371C54.2182 81.3523 48.6226 75.1763 41.9034 70.4128C38.0839 67.706 33.9219 65.4971 29.512 63.9191C29.6841 63.7029 29.857 63.4847 30.031 63.2693C30.2589 63.5734 30.4858 63.8748 30.7137 64.1789C31.045 64.6224 30.3536 65.1328 30.0203 64.6885C29.7924 64.3844 29.5655 64.083 29.3375 63.7789C29.0687 63.4202 29.4689 62.9912 29.8565 63.1291C37.8024 65.9711 44.9004 70.8664 50.7758 76.8913C56.4453 82.7047 60.9612 89.5368 64.5586 96.8017C66.5868 100.897 68.3214 105.133 69.8399 109.441C70.02 109.962 69.2196 110.283 69.0345 109.757Z" fill="black"/>
<path d="M67.9938 110.691C65.1402 103.508 61.7369 96.5189 57.4161 90.099C53.0014 83.5391 47.6229 77.6072 41.2234 72.936C37.5898 70.2844 33.6468 68.0757 29.4578 66.4296C28.9416 66.2267 29.286 65.4367 29.8003 65.6387C37.3359 68.6029 44.0542 73.3846 49.6909 79.1676C55.172 84.7932 59.6141 91.3326 63.2693 98.2672C65.3385 102.193 67.156 106.248 68.7954 110.374C68.9988 110.889 68.1992 111.207 67.9938 110.691Z" fill="black"/>
<path d="M169.603 107.183C166.94 104.462 164.272 101.747 161.592 99.0446C159.136 96.566 156.705 94.0433 154.132 91.6849C153.982 91.5481 153.832 91.4094 153.676 91.2796C153.623 91.236 153.428 91.1283 153.406 91.0679C153.428 91.133 153.578 91.101 153.636 91.1263C153.74 91.1689 153.697 91.065 153.62 91.1423C153.58 91.1825 153.493 91.2072 153.554 91.1735C153.482 91.2116 153.414 91.2561 153.344 91.2998C152.428 91.872 151.572 92.5536 150.718 93.2153C147.926 95.3723 145.2 97.6185 142.497 99.8834C141.27 100.912 140.047 101.945 138.839 102.993C138.155 103.587 137.347 104.257 136.793 104.838C136.762 104.871 136.73 104.913 136.695 104.941C136.617 105.005 136.679 105.006 136.655 104.98C136.642 104.962 136.764 104.595 136.64 104.569C136.657 104.572 136.681 104.633 136.695 104.644C136.905 104.823 137.081 105.088 137.269 105.292C138.075 106.162 138.904 107.013 139.733 107.861C142.196 110.382 144.696 112.872 147.238 115.314C148.363 116.395 149.495 117.469 150.662 118.507C151.068 118.868 151.478 119.228 151.902 119.568C152.061 119.697 152.22 119.824 152.388 119.942C152.448 119.985 152.508 120.027 152.571 120.068C152.696 120.152 152.564 120.058 152.658 120.122C152.678 120.135 152.765 120.157 152.774 120.174C152.748 120.122 152.671 120.192 152.56 120.183C152.636 120.189 152.536 120.207 152.568 120.182C152.614 120.144 152.672 120.116 152.722 120.085C153.092 119.844 153.453 119.585 153.814 119.328C155.18 118.351 156.524 117.34 157.861 116.323C161.227 113.764 164.583 111.16 167.746 108.354C168.33 107.836 168.906 107.31 169.456 106.759C169.844 106.371 170.52 106.906 170.127 107.299C167.222 110.208 163.904 112.738 160.662 115.254C159.052 116.507 157.429 117.742 155.788 118.953C154.91 119.602 154.037 120.304 153.097 120.866C152.494 121.225 151.957 120.709 151.485 120.338C150.477 119.542 149.534 118.658 148.594 117.782C145.907 115.278 143.296 112.686 140.71 110.075C139.639 108.993 138.57 107.904 137.519 106.803C137.009 106.271 136.361 105.729 135.961 105.103C135.597 104.533 136.405 104.013 136.77 103.677C137.73 102.796 138.722 101.95 139.713 101.105C142.533 98.6989 145.39 96.3345 148.291 94.0236C149.439 93.1086 150.592 92.1982 151.779 91.3323C152.143 91.0656 152.51 90.7978 152.896 90.5632C153.136 90.4181 153.426 90.2114 153.72 90.2834C153.982 90.3485 154.223 90.6121 154.418 90.7863C154.835 91.1587 155.238 91.5432 155.64 91.9297C156.954 93.1913 158.244 94.4789 159.533 95.7665C162.567 98.8001 165.576 101.857 168.579 104.921C169.099 105.451 169.619 105.98 170.138 106.512C170.524 106.903 169.989 107.579 169.603 107.183Z" fill="black"/>
<path d="M172.543 96.1448C170.722 93.6274 168.535 91.3785 166.321 89.206C164.109 87.0363 161.816 84.9516 159.511 82.88C159.101 82.511 159.638 81.8366 160.051 82.2092C162.399 84.3202 164.735 86.4442 166.985 88.6582C169.207 90.8435 171.407 93.1049 173.237 95.6352C173.562 96.0829 172.869 96.5953 172.543 96.1448Z" fill="black"/>
<path d="M168.894 97.0575C168.484 96.3585 167.944 95.7302 167.426 95.1131C166.619 94.1544 165.775 93.2282 164.919 92.3129C163.1 90.369 161.223 88.469 159.255 86.6727C158.545 86.0235 157.826 85.3521 157.021 84.821C156.56 84.5174 157.101 83.8474 157.56 84.1501C159.283 85.2839 160.77 86.8811 162.228 88.3225C164.146 90.2173 166.025 92.1665 167.785 94.2095C168.421 94.9491 169.089 95.7021 169.586 96.5451C169.867 97.0198 169.176 97.535 168.894 97.0575Z" fill="black"/>
<path d="M146.235 90.9099C140.827 84.8545 134.493 79.3623 127.301 75.5361C126.815 75.2775 127.154 74.485 127.643 74.7453C133.475 77.8482 138.712 82.0251 143.389 86.6682C144.607 87.8763 145.786 89.1208 146.928 90.4004C147.299 90.8123 146.602 91.3202 146.235 90.9099Z" fill="black"/>
<path d="M143.644 94.2435C139.421 89.5022 134.795 84.9967 129.637 81.2743C128.249 80.2738 126.815 79.3365 125.312 78.5168C124.828 78.2543 125.167 77.4618 125.654 77.726C131.341 80.8237 136.278 85.3187 140.782 89.923C141.996 91.1645 143.182 92.4351 144.338 93.732C144.708 94.1458 144.01 94.6537 143.644 94.2435Z" fill="black"/>
<path d="M139.273 97.676C135.488 92.8774 130.949 88.5045 125.936 85.0036C124.578 84.0555 123.171 83.1831 121.694 82.4369C121.201 82.1891 121.54 81.3966 122.036 81.6461C127.614 84.4567 132.468 88.8208 136.696 93.3616C137.835 94.5864 138.934 95.8514 139.969 97.1653C140.311 97.6016 139.616 98.1132 139.273 97.676Z" fill="black"/>
<path d="M134.453 99.6828C132.107 96.5826 129.296 93.879 126.114 91.649C125.661 91.3308 126.201 90.6599 126.653 90.9782C129.894 93.2495 132.759 96.0184 135.147 99.1732C135.483 99.6164 134.789 100.126 134.453 99.6828Z" fill="black"/>
<path d="M142.144 124.422C135.341 115.572 127.451 107.577 118.692 100.66C116.227 98.7131 113.691 96.8534 111.097 95.0812C110.64 94.7699 111.182 94.0979 111.637 94.4104C120.888 100.728 129.346 108.185 136.777 116.568C138.884 118.944 140.905 121.396 142.84 123.913C143.175 124.352 142.481 124.863 142.144 124.422Z" fill="black"/>
<path d="M138.236 126.58C134.497 122.378 130.699 118.227 126.747 114.223C122.595 110.018 118.281 105.934 113.617 102.298C111.289 100.485 108.868 98.776 106.285 97.3456C105.805 97.08 106.142 96.2867 106.628 96.5548C111.446 99.2234 115.768 102.75 119.853 106.421C124.343 110.454 128.571 114.771 132.683 119.188C134.796 121.455 136.873 123.755 138.932 126.069C139.297 126.483 138.602 126.992 138.236 126.58Z" fill="black"/>
<path d="M133.336 130.047C130.119 125.003 126.087 120.471 121.891 116.226C117.663 111.946 113.165 107.898 108.382 104.243C106.393 102.724 104.348 101.245 102.17 100.008C101.692 99.7369 102.031 98.9444 102.512 99.2175C106.894 101.706 110.866 104.971 114.659 108.266C119.437 112.417 123.977 116.878 128.1 121.685C130.236 124.174 132.263 126.77 134.03 129.538C134.326 130.003 133.636 130.516 133.336 130.047Z" fill="black"/>
<path d="M128.236 134.047C121.036 125.187 113.289 116.552 104.395 109.358C102.065 107.474 99.6407 105.699 97.0782 104.142C96.6076 103.855 97.151 103.186 97.6178 103.471C102.395 106.373 106.716 109.997 110.793 113.807C115.107 117.838 119.165 122.139 123.055 126.577C125.057 128.861 127.014 131.183 128.928 133.54C129.278 133.966 128.585 134.476 128.236 134.047Z" fill="black"/>
<path d="M123.312 61.9607C120.608 55.7909 116.766 50.16 112.155 45.262C107.469 40.2856 101.961 36.0582 95.9564 32.797C92.5662 30.9569 89.0127 29.4246 85.3422 28.2316C84.8164 28.0615 85.1609 27.2715 85.6848 27.4408C92.2887 29.5907 98.518 32.8451 104.098 36.9746C109.627 41.0653 114.536 46.0303 118.487 51.6647C120.684 54.7968 122.577 58.1391 124.114 61.6433C124.336 62.1526 123.533 62.4672 123.312 61.9607Z" fill="black"/>
<path d="M116.639 65.5651C114.218 59.3636 110.559 53.6667 106.279 48.5891C104.117 46.0231 101.792 43.56 99.1727 41.4517C96.5028 39.3006 93.5827 37.4772 90.5655 35.8565C87.3072 34.1058 83.9318 32.5883 80.5409 31.1172C80.0322 30.8968 80.3748 30.106 80.8834 30.3264C87.0953 33.0195 93.3211 35.8986 98.7388 40.0153C101.439 42.0689 103.833 44.4742 106.066 47.0221C108.314 49.5833 110.378 52.3074 112.224 55.1725C114.275 58.3544 116.062 61.7177 117.438 65.2469C117.64 65.7658 116.841 66.0821 116.639 65.5651Z" fill="black"/>
<path d="M111.774 69.5688C108.959 63.5171 104.844 58.1118 100.189 53.3631C95.3964 48.4742 89.9752 44.1898 84.1737 40.5599C81.0915 38.6317 77.887 36.8952 74.5759 35.394C74.0726 35.1668 74.4132 34.3751 74.9185 34.6032C81.0236 37.3724 86.7801 40.9251 92.0812 45.0236C97.5615 49.262 102.611 54.1425 106.781 59.687C109.025 62.6713 111 65.8622 112.577 69.2495C112.809 69.7563 112.007 70.0709 111.774 69.5688Z" fill="black"/>
<path d="M105.907 73.5225C102.687 67.7985 98.784 62.4687 94.2969 57.6729C89.7625 52.8265 84.6226 48.6063 79.1067 44.9293C75.9798 42.8434 72.7222 40.9154 69.2717 39.4115C68.7638 39.1892 69.1055 38.4003 69.6142 38.6207C72.6579 39.946 75.5465 41.608 78.337 43.4006C81.1962 45.2368 83.9726 47.2217 86.6161 49.3591C91.7713 53.5282 96.4217 58.3302 100.433 63.6123C102.703 66.6009 104.763 69.7453 106.603 73.0137C106.87 73.4893 106.177 74.0064 105.907 73.5225Z" fill="black"/>
<path d="M99.0206 77.4692C96.238 71.5171 92.6549 65.9545 88.4171 60.9343C84.1805 55.917 79.288 51.4555 73.906 47.6981C70.8505 45.5645 67.6344 43.6684 64.2926 42.02C63.7968 41.7753 64.1374 40.9836 64.6351 41.2292C70.6184 44.1787 76.2026 47.9268 81.2054 52.3414C86.2042 56.7544 90.6377 61.8177 94.3294 67.3744C96.4009 70.4916 98.2353 73.7622 99.8213 77.1538C100.056 77.6547 99.2536 77.9693 99.0206 77.4692Z" fill="black"/>
<path d="M93.0201 83.1123C90.4203 76.951 86.9277 71.1899 82.7012 66.0107C78.4959 60.857 73.5714 56.2939 68.1096 52.4973C65.019 50.3486 61.7588 48.4587 58.3627 46.8399C57.8635 46.6029 58.2041 45.8113 58.7052 46.0491C64.8045 48.9542 70.4753 52.7421 75.5104 57.2469C80.5444 61.749 84.9554 66.9549 88.5489 72.6744C90.5741 75.8984 92.34 79.2848 93.8216 82.7949C94.0373 83.3083 93.2366 83.6237 93.0201 83.1123Z" fill="black"/>
<path d="M86.9583 87.0272C84.1018 81.267 80.585 75.8438 76.5138 70.8704C72.4426 65.897 67.8173 61.3828 62.7462 57.4347C59.8698 55.1965 56.8506 53.1387 53.7091 51.2887C53.239 51.0112 53.5738 50.217 54.0516 50.4979C59.6824 53.8138 64.9286 57.757 69.6714 62.2552C74.4093 66.7489 78.6518 71.7688 82.2707 77.2062C84.3005 80.2546 86.1317 83.4316 87.759 86.7117C88.004 87.2055 87.2013 87.5201 86.9583 87.0272Z" fill="black"/>
<path d="M81.7594 92.0695C75.7887 81.5219 68.0219 72.0171 58.8661 64.0797C56.2764 61.8342 53.5781 59.7169 50.7847 57.7339C50.3331 57.4137 50.8728 56.7428 51.3243 57.0631C61.2577 64.1211 69.9672 72.8921 76.9684 82.8706C78.9367 85.6778 80.7651 88.5789 82.4548 91.5607C82.7215 92.0362 82.0322 92.5522 81.7594 92.0695Z" fill="black"/>
</g>
<defs>
<clipPath id="clip0_1463_20633">
<rect width="170" height="129" fill="white" transform="matrix(-0.91761 -0.397482 -0.397482 0.91761 208.266 67.5703)"/>
</clipPath>
</defs>
</svg>
