<svg width="221" height="248" viewBox="0 0 221 248" fill="none" xmlns="http://www.w3.org/2000/svg">
<path d="M194.826 80.1094C194.826 80.1094 220.096 83.8359 219.432 112.72C218.756 141.604 222.173 155.489 191.127 159.228C172.525 161.466 154.869 123.389 161.875 99.9105C166.564 84.1803 194.826 80.1094 194.826 80.1094Z" fill="white" stroke="black" stroke-width="1.4" stroke-miterlimit="10" stroke-linecap="round" stroke-linejoin="round"/>
<path d="M119.652 111.425C119.652 111.425 127.205 82.0865 136.785 83.2733C148.861 84.7738 151.553 96.962 146.163 105.147C140.768 113.332 132.201 128.607 126.762 132.118C121.336 135.629 92.2129 122.525 90.4922 117.827L96.6683 101.439C101.689 101.931 119.652 111.425 119.652 111.425Z" fill="white" stroke="black" stroke-width="1.4" stroke-miterlimit="10" stroke-linecap="round" stroke-linejoin="round"/>
<path d="M90.488 117.833L83.9431 114.205L90.0885 97.8047L96.6641 101.445L90.488 117.833Z" fill="white" stroke="black" stroke-width="1.4" stroke-miterlimit="10" stroke-linecap="round" stroke-linejoin="round"/>
<path d="M84.7136 112.852C84.7136 112.852 82.366 111.967 75.8089 109.827C69.2456 107.693 65.3618 103.763 66.2283 96.7529C67.0886 89.7488 70.2289 87.8301 75.8212 91.2492C77.886 92.516 80.2274 95.4985 80.2274 95.4985C80.2274 95.4985 77.0318 91.0647 79.4347 89.3367C82.7409 86.9569 86.4158 97.4294 89.2734 100.676L84.7136 112.852Z" fill="white" stroke="black" stroke-width="1.4" stroke-miterlimit="10" stroke-linecap="round" stroke-linejoin="round"/>
<path d="M78.3047 99.9028C78.3047 99.9028 71.2928 94.3684 68.9453 90.2852" stroke="black" stroke-width="1.4" stroke-miterlimit="10" stroke-linecap="round" stroke-linejoin="round"/>
<path d="M66.6951 94.1953C66.6951 94.1953 68.2929 98.6229 76.6875 102.983" stroke="black" stroke-width="1.4" stroke-miterlimit="10" stroke-linecap="round" stroke-linejoin="round"/>
<path d="M66.1261 99.2812C66.1261 99.2812 69.7458 104.238 75.9219 106.003" stroke="black" stroke-width="1.4" stroke-miterlimit="10" stroke-linecap="round" stroke-linejoin="round"/>
<path d="M127.665 145.738C124.832 123.188 120.973 83.9059 135.052 77.738C143.09 74.2144 182.961 74.3128 182.961 74.3128C182.961 74.3128 185.604 76.2867 191.516 79.6812C207.776 89.0222 201.981 144.484 199.031 154.249C196.088 164.014 168.956 185.556 168.28 188.378C167.61 191.201 176.386 219.544 176.386 219.544L166.197 225.312C166.197 225.312 145.124 193.31 145.911 182.967C146.697 172.624 155.842 162.047 155.842 162.047C155.842 162.047 131.61 178.527 131.07 181.62C130.093 187.155 139.01 211.439 139.01 211.439L122.761 215.983C122.761 215.983 111.626 188.489 109.868 176.147C108.467 166.327 128.501 152.392 127.665 145.738Z" fill="white" stroke="black" stroke-width="1.4" stroke-miterlimit="10" stroke-linecap="round" stroke-linejoin="round"/>
<path d="M120.289 213.232L117.216 204.832C121.193 204.641 125.193 203.823 128.499 202.974C131.24 202.267 134.239 201.283 136.888 199.832C137.527 202.667 138.074 204.979 138.307 205.668C141.429 214.634 141.558 213.496 144.25 223.28L106.143 233.789C99.8005 225.401 103.549 213.963 120.289 213.232Z" fill="white" stroke="black" stroke-width="1.4" stroke-miterlimit="10" stroke-linecap="round" stroke-linejoin="round"/>
<path d="M106.808 236.354C107.674 236.114 107.895 236.895 108.762 236.655C109.628 236.421 109.413 235.634 110.286 235.394C111.146 235.155 111.367 235.936 112.234 235.702C113.1 235.462 112.885 234.681 113.758 234.441C114.618 234.201 114.84 234.989 115.706 234.749C116.573 234.509 116.358 233.722 117.23 233.488C118.097 233.248 118.312 234.029 119.184 233.796C120.051 233.556 119.836 232.775 120.702 232.535C121.569 232.295 121.784 233.076 122.65 232.836C123.517 232.596 123.302 231.815 124.168 231.576C125.035 231.336 125.25 232.117 126.116 231.883C126.989 231.643 126.768 230.862 127.64 230.622C128.501 230.383 128.722 231.164 129.589 230.93C130.455 230.69 130.24 229.909 131.113 229.669C131.979 229.43 132.194 230.217 133.061 229.977C133.927 229.737 133.718 228.956 134.585 228.716C135.445 228.476 135.666 229.257 136.527 229.018C137.393 228.778 137.184 227.997 138.051 227.757C138.911 227.517 139.132 228.298 139.993 228.058C140.859 227.818 140.65 227.037 141.511 226.798C142.377 226.558 142.598 227.345 143.459 227.105C144.325 226.865 144.11 226.084 144.977 225.844L144.276 223.305L106.132 233.826L106.808 236.354Z" fill="white" stroke="black" stroke-width="1.4" stroke-miterlimit="10" stroke-linecap="round" stroke-linejoin="round"/>
<path d="M160.903 221.39L155.913 212.442C157.56 212.092 159.078 211.674 160.227 211.348C165.672 209.792 170.465 207.541 174.644 204.184C175.947 207.48 177.102 210.327 177.514 211.077C182.013 219.434 181.951 218.297 186.148 227.533L150.18 243.927C142.59 236.64 144.489 224.753 160.903 221.39Z" fill="white" stroke="black" stroke-width="1.4" stroke-miterlimit="10" stroke-linecap="round" stroke-linejoin="round"/>
<path d="M151.231 246.345C152.049 245.976 152.387 246.708 153.204 246.339C154.028 245.964 153.69 245.226 154.507 244.851C155.33 244.476 155.662 245.22 156.48 244.845C157.303 244.476 156.965 243.732 157.782 243.357C158.594 242.981 158.938 243.719 159.755 243.35C160.566 242.975 160.234 242.237 161.058 241.862C161.875 241.487 162.207 242.225 163.031 241.856C163.848 241.481 163.504 240.743 164.327 240.368C165.145 239.999 165.483 240.737 166.3 240.368C167.117 239.993 166.779 239.249 167.597 238.88C168.408 238.511 168.752 239.249 169.569 238.874C170.38 238.498 170.049 237.761 170.866 237.385C171.683 237.016 172.021 237.754 172.839 237.379C173.656 237.004 173.318 236.266 174.135 235.891C174.959 235.516 175.297 236.254 176.108 235.885C176.931 235.51 176.593 234.772 177.411 234.397C178.228 234.028 178.566 234.766 179.383 234.391C180.195 234.022 179.863 233.278 180.68 232.903C181.497 232.527 181.835 233.271 182.653 232.896C183.47 232.521 183.132 231.783 183.949 231.408C184.773 231.033 185.105 231.777 185.922 231.402C186.739 231.033 186.408 230.289 187.219 229.92L186.125 227.516L150.113 243.935L151.231 246.345Z" fill="white" stroke="black" stroke-width="1.4" stroke-miterlimit="10" stroke-linecap="round" stroke-linejoin="round"/>
<path d="M131.643 104.011C131.643 104.011 133.984 101.188 138.956 101.957C143.927 102.726 169.756 106.717 169.756 106.717C171.846 106.717 173.523 108.408 173.523 110.492V144.855C173.523 146.94 171.846 148.631 169.756 148.631L135.422 143.324C134.384 143.324 131.071 139.561 131.071 139.561L131.643 104.011Z" fill="white" stroke="black" stroke-width="1.4" stroke-miterlimit="10" stroke-linecap="round" stroke-linejoin="round"/>
<path d="M130.199 137.302C130.199 139.153 131.699 140.659 133.555 140.659L164.073 145.376C165.922 145.376 167.422 143.869 167.422 142.018V111.48C167.422 109.623 165.922 108.123 164.073 108.123L133.555 103.406C131.699 103.406 130.199 104.907 130.199 106.764V137.302Z" fill="white" stroke="black" stroke-width="1.4" stroke-miterlimit="10" stroke-linecap="round" stroke-linejoin="round"/>
<path d="M171.57 147.215L166.58 144.238" stroke="black" stroke-width="1.4" stroke-miterlimit="10" stroke-linecap="round" stroke-linejoin="round"/>
<path d="M172.492 107.891L167.023 109.895" stroke="black" stroke-width="1.4" stroke-miterlimit="10" stroke-linecap="round" stroke-linejoin="round"/>
<path d="M192.101 90.1253C203.667 86.3249 209.407 98.2794 208.024 107.983C206.641 117.687 198.843 141.319 195.53 144.308C192.23 147.296 161.903 145.298 158.922 141.276L160.231 123.806C165.185 122.859 182.177 127.403 182.779 125.171C183.098 123.99 185.692 114.213 188.064 105.284" fill="white"/>
<path d="M192.101 90.1253C203.667 86.3249 209.407 98.2794 208.024 107.983C206.641 117.687 198.843 141.319 195.53 144.308C192.23 147.296 161.903 145.298 158.922 141.276L160.231 123.806C165.185 122.859 182.177 127.403 182.779 125.171C183.098 123.99 185.692 114.213 188.064 105.284" stroke="black" stroke-width="1.4" stroke-miterlimit="10" stroke-linecap="round" stroke-linejoin="round"/>
<path d="M158.925 141.276L151.625 139.646L152.891 122.176L160.234 123.805L158.925 141.276Z" fill="white" stroke="black" stroke-width="1.4" stroke-miterlimit="10" stroke-linecap="round" stroke-linejoin="round"/>
<path d="M151.974 138.128C151.974 138.128 149.473 137.938 142.584 137.747C135.689 137.556 130.852 134.881 129.703 127.92C128.554 120.953 131.018 118.229 137.348 119.932C139.695 120.566 142.78 122.767 142.78 122.767C142.78 122.767 138.466 119.416 140.285 117.079C142.786 113.869 149.264 122.866 152.914 125.178L151.974 138.128Z" fill="white" stroke="black" stroke-width="1.4" stroke-miterlimit="10" stroke-linecap="round" stroke-linejoin="round"/>
<path d="M142.18 127.521C142.18 127.521 133.896 124.194 130.497 120.941" stroke="black" stroke-width="1.4" stroke-miterlimit="10" stroke-linecap="round" stroke-linejoin="round"/>
<path d="M129.437 125.324C129.437 125.324 132.22 129.118 141.5 130.932" stroke="black" stroke-width="1.4" stroke-miterlimit="10" stroke-linecap="round" stroke-linejoin="round"/>
<path d="M130.316 130.367C130.316 130.367 135.189 134.094 141.617 134.045" stroke="black" stroke-width="1.4" stroke-miterlimit="10" stroke-linecap="round" stroke-linejoin="round"/>
<path d="M199.883 57.3164C199.883 57.3164 198.076 70.181 193.633 75.4941C189.184 80.8133 199.944 80.1246 199.717 83.4207C199.385 88.2849 181.576 99.3046 166.772 99.8704C137.077 101.002 127.687 85.3762 127.687 85.3762C127.373 81.459 132.376 79.4113 132.376 79.4113C132.376 79.4113 130.594 74.504 132.376 71.6138L199.883 57.3164Z" fill="white" stroke="black" stroke-width="1.4" stroke-miterlimit="10" stroke-linecap="round" stroke-linejoin="round"/>
<path d="M120.935 40.5541C120.137 63.1778 137.829 82.1672 160.432 82.9605C183.041 83.7538 202.011 66.0558 202.81 43.4259C203.603 20.8083 185.923 1.81893 163.314 1.02566C140.699 0.232384 121.728 17.9304 120.935 40.5541Z" fill="white" stroke="black" stroke-width="1.4" stroke-miterlimit="10" stroke-linecap="round" stroke-linejoin="round"/>
<path d="M163.732 17.2134C185.278 33.6447 182.623 55.7641 182.623 55.7641C182.623 55.7641 157.666 87.6796 125.538 60.9481C125.538 60.9481 117.304 47.9175 121.009 32.2611C124.709 16.6046 137.264 8.17995 137.264 8.17995C137.264 8.17995 149.708 6.51345 163.732 17.2134Z" fill="#101210"/>
<path d="M131.645 69.6511C164.129 91.0142 188.336 55.9625 188.336 55.9625C188.336 55.9625 185.736 11.25 145.583 4.375" stroke="black" stroke-width="1.4" stroke-miterlimit="10" stroke-linecap="round" stroke-linejoin="round"/>
<path d="M171.406 33.3389C175.984 39.31 177.367 50.6556 174.257 52.2791C171.154 53.9025 170.392 41.0564 165.561 36.6596C160.504 32.0475 166.784 27.3125 171.406 33.3389Z" fill="white"/>
<path d="M164.625 22.4805C166.204 23.2492 166.88 25.2109 166.112 26.7913L165.965 27.0987C165.197 28.6791 163.236 29.3556 161.657 28.5869C160.077 27.8182 159.401 25.8565 160.176 24.2761L160.323 23.9687C161.085 22.3883 163.052 21.7057 164.625 22.4805Z" fill="white"/>
<path d="M131.024 56.2771C131.503 55.4101 132.591 55.078 133.402 55.7421C135.633 57.5562 144.47 61.541 142.043 65.5566C140.187 68.6252 136.831 67.0079 134.318 64.4313C131.442 62.4757 129.31 59.3887 131.024 56.2771Z" fill="white"/>
<path d="M195.19 54.8591C199.719 52.8359 204.986 46.5451 206.368 38.7783C207.364 33.1762 204.383 27.9738 200.788 29.1422C200.788 29.1422 205.17 43.5134 191.509 49.7796L195.19 54.8591Z" fill="white" stroke="black" stroke-width="1.4" stroke-miterlimit="10" stroke-linecap="round" stroke-linejoin="round"/>
<path d="M181.469 54.8231C180.836 58.6172 183.399 62.1962 187.184 62.8296C190.976 63.463 194.559 60.8987 195.185 57.1106C195.818 53.3226 193.25 49.7375 189.47 49.1041C185.685 48.4707 182.102 51.0289 181.469 54.8231Z" fill="white" stroke="black" stroke-width="1.4" stroke-miterlimit="10" stroke-linecap="round" stroke-linejoin="round"/>
<path d="M185.408 55.4803C185.138 57.0915 186.225 58.6165 187.835 58.8871C189.446 59.1577 190.97 58.0631 191.24 56.4519C191.51 54.8408 190.423 53.3096 188.813 53.0452C187.196 52.7746 185.678 53.863 185.408 55.4803Z" fill="white" stroke="black" stroke-width="1.4" stroke-miterlimit="10" stroke-linecap="round" stroke-linejoin="round"/>
<path d="M192.93 76.5547C192.93 76.5547 180.393 92.8076 159.228 92.1804" stroke="black" stroke-width="1.4" stroke-miterlimit="10" stroke-linecap="round" stroke-linejoin="round"/>
<path d="M132.361 79.4141C132.361 79.4141 139.717 87.4268 146.883 89.6897" stroke="black" stroke-width="1.4" stroke-miterlimit="10" stroke-linecap="round" stroke-linejoin="round"/>
<path d="M2 63H1V64V89.8996V91.3728L2.36916 90.8289C3.92988 90.209 5.64986 89.9324 7.47055 90.1172L7.47082 90.1172C12.8341 90.6601 17.0888 95.2255 17.2462 100.615C17.4256 106.772 12.486 111.821 6.37296 111.821C4.96234 111.821 3.61637 111.544 2.37662 111.049L1.00593 110.502V111.978V137.878V138.878H2.00593H26.4558C26.0228 140.594 25.9242 142.447 26.3009 144.382L26.3013 144.384C27.4712 150.336 32.7486 154.793 38.8324 154.844L38.8328 154.844C45.998 154.902 51.8265 149.113 51.8265 141.966C51.8265 140.895 51.6881 139.863 51.4396 138.878H75.8894H76.8894V137.878V75.4991V75.4981C76.883 68.5986 71.2924 63 64.3904 63H2Z" fill="white" stroke="black" stroke-width="2"/>
</svg>
