<svg width="188" height="300" viewBox="0 0 188 300" fill="none" xmlns="http://www.w3.org/2000/svg">
<path d="M30.7162 96.9648C30.7162 96.9648 -0.010143 101.496 0.796873 136.617C1.61883 171.738 -2.53581 188.621 35.2146 193.168C57.8335 195.889 79.3016 149.59 70.7831 121.042C65.0817 101.915 30.7162 96.9648 30.7162 96.9648Z" fill="white" stroke="black" stroke-width="1.4" stroke-miterlimit="10" stroke-linecap="round" stroke-linejoin="round"/>
<path d="M122.129 135.047C122.129 135.047 112.946 99.373 101.296 100.816C86.6129 102.641 83.34 117.461 89.8933 127.413C96.454 137.365 106.87 155.939 113.484 160.208C120.082 164.478 155.493 148.544 157.585 142.831L150.076 122.904C143.971 123.502 122.129 135.047 122.129 135.047Z" fill="white" stroke="black" stroke-width="1.4" stroke-miterlimit="10" stroke-linecap="round" stroke-linejoin="round"/>
<path d="M157.588 142.838L165.546 138.426L158.074 118.484L150.078 122.911L157.588 142.838Z" fill="white" stroke="black" stroke-width="1.4" stroke-miterlimit="10" stroke-linecap="round" stroke-linejoin="round"/>
<path d="M164.607 136.782C164.607 136.782 167.461 135.706 175.434 133.104C183.415 130.509 188.137 125.731 187.084 117.207C186.038 108.69 182.219 106.357 175.42 110.515C172.909 112.055 170.062 115.682 170.062 115.682C170.062 115.682 173.947 110.29 171.026 108.189C167.006 105.296 162.537 118.029 159.062 121.977L164.607 136.782Z" fill="white" stroke="black" stroke-width="1.4" stroke-miterlimit="10" stroke-linecap="round" stroke-linejoin="round"/>
<path d="M172.398 121.034C172.398 121.034 180.924 114.305 183.779 109.34" stroke="black" stroke-width="1.4" stroke-miterlimit="10" stroke-linecap="round" stroke-linejoin="round"/>
<path d="M186.517 114.098C186.517 114.098 184.574 119.481 174.367 124.783" stroke="black" stroke-width="1.4" stroke-miterlimit="10" stroke-linecap="round" stroke-linejoin="round"/>
<path d="M187.208 120.281C187.208 120.281 182.807 126.308 175.297 128.454" stroke="black" stroke-width="1.4" stroke-miterlimit="10" stroke-linecap="round" stroke-linejoin="round"/>
<path d="M112.383 176.771C115.828 149.352 120.521 101.587 103.401 94.0871C93.6275 89.8026 45.1467 89.9222 45.1467 89.9222C45.1467 89.9222 41.9336 92.3224 34.7452 96.4499C14.9733 107.808 22.0198 175.245 25.6065 187.119C29.1858 198.993 62.1763 225.186 62.9982 228.618C63.8127 232.05 53.1422 266.513 53.1422 266.513L65.5314 273.527C65.5314 273.527 91.1541 234.615 90.1977 222.038C89.2412 209.462 78.1223 196.601 78.1223 196.601C78.1223 196.601 107.586 216.64 108.243 220.401C109.432 227.13 98.5892 256.658 98.5892 256.658L118.346 262.184C118.346 262.184 131.886 228.753 134.023 213.746C135.727 201.805 111.367 184.861 112.383 176.771Z" fill="white" stroke="black" stroke-width="1.4" stroke-miterlimit="10" stroke-linecap="round" stroke-linejoin="round"/>
<path d="M121.354 258.836L125.09 248.622C120.255 248.39 115.391 247.396 111.37 246.364C108.038 245.504 104.391 244.308 101.171 242.543C100.394 245.99 99.7285 248.801 99.4445 249.639C95.6486 260.541 95.4916 259.157 92.2188 271.054L138.555 283.833C146.266 273.634 141.708 259.726 121.354 258.836Z" fill="white" stroke="black" stroke-width="1.4" stroke-miterlimit="10" stroke-linecap="round" stroke-linejoin="round"/>
<path d="M137.747 286.949C136.693 286.657 136.424 287.607 135.371 287.315C134.317 287.031 134.579 286.074 133.517 285.782C132.471 285.491 132.202 286.44 131.149 286.156C130.095 285.865 130.357 284.915 129.296 284.623C128.249 284.332 127.98 285.289 126.927 284.997C125.873 284.706 126.135 283.749 125.074 283.464C124.02 283.173 123.759 284.122 122.697 283.838C121.644 283.547 121.905 282.597 120.852 282.305C119.798 282.014 119.537 282.963 118.483 282.672C117.429 282.38 117.691 281.431 116.637 281.139C115.584 280.847 115.322 281.797 114.269 281.513C113.208 281.221 113.477 280.272 112.415 279.98C111.369 279.688 111.1 280.638 110.047 280.354C108.993 280.062 109.255 279.113 108.194 278.821C107.14 278.529 106.878 279.487 105.825 279.195C104.771 278.903 105.025 277.954 103.972 277.662C102.926 277.37 102.657 278.32 101.61 278.028C100.557 277.737 100.811 276.787 99.7573 276.496C98.7112 276.204 98.4422 277.154 97.396 276.862C96.3424 276.57 96.5965 275.621 95.5504 275.329C94.4968 275.038 94.2277 275.995 93.1816 275.703C92.128 275.411 92.3895 274.462 91.3359 274.17L92.1878 271.082L138.569 283.876L137.747 286.949Z" fill="white" stroke="black" stroke-width="1.4" stroke-miterlimit="10" stroke-linecap="round" stroke-linejoin="round"/>
<path d="M71.9621 268.757L78.0297 257.878C76.0271 257.452 74.1814 256.943 72.7841 256.547C66.1636 254.655 60.3351 251.919 55.2539 247.836C53.6698 251.844 52.265 255.306 51.7643 256.218C46.2945 266.38 46.3693 264.996 41.2656 276.227L85.0014 296.162C94.2298 287.301 91.9208 272.847 71.9621 268.757Z" fill="white" stroke="black" stroke-width="1.4" stroke-miterlimit="10" stroke-linecap="round" stroke-linejoin="round"/>
<path d="M83.7192 299.099C82.7253 298.65 82.3143 299.54 81.3205 299.091C80.3192 298.635 80.7302 297.738 79.7364 297.282C78.7351 296.825 78.3316 297.73 77.3377 297.274C76.3364 296.825 76.7474 295.921 75.7536 295.465C74.7672 295.008 74.3488 295.906 73.355 295.457C72.3686 295.001 72.7721 294.104 71.7708 293.648C70.777 293.192 70.3735 294.089 69.3722 293.64C68.3784 293.184 68.7968 292.287 67.7955 291.831C66.8017 291.382 66.3907 292.279 65.3969 291.831C64.4031 291.375 64.814 290.47 63.8202 290.021C62.8339 289.572 62.4154 290.47 61.4216 290.014C60.4352 289.558 60.8387 288.66 59.8449 288.204C58.8511 287.756 58.4401 288.653 57.4463 288.197C56.4525 287.741 56.8634 286.843 55.8696 286.387C54.8683 285.931 54.4573 286.828 53.471 286.38C52.4697 285.924 52.8807 285.026 51.8868 284.57C50.893 284.122 50.482 285.019 49.4882 284.563C48.5019 284.114 48.9054 283.209 47.9115 282.753C46.9177 282.297 46.5067 283.202 45.5129 282.746C44.5191 282.29 44.9301 281.392 43.9362 280.936C42.9349 280.48 42.5314 281.385 41.5376 280.929C40.5438 280.48 40.9473 279.575 39.9609 279.127L41.291 276.203L85.0791 296.167L83.7192 299.099Z" fill="white" stroke="black" stroke-width="1.4" stroke-miterlimit="10" stroke-linecap="round" stroke-linejoin="round"/>
<path d="M107.549 126.03C107.549 126.03 104.702 122.598 98.6571 123.532C92.6119 124.467 61.2056 129.32 61.2056 129.32C58.665 129.32 56.625 131.376 56.625 133.911V175.694C56.625 178.229 58.665 180.285 61.2056 180.285L102.954 173.832C104.217 173.832 108.244 169.256 108.244 169.256L107.549 126.03Z" fill="white" stroke="black" stroke-width="1.4" stroke-miterlimit="10" stroke-linecap="round" stroke-linejoin="round"/>
<path d="M109.307 166.512C109.307 168.762 107.484 170.594 105.227 170.594L68.1193 176.329C65.8701 176.329 64.0469 174.497 64.0469 172.247V135.115C64.0469 132.856 65.8701 131.032 68.1193 131.032L105.227 125.297C107.484 125.297 109.307 127.121 109.307 129.379V166.512Z" fill="white" stroke="black" stroke-width="1.4" stroke-miterlimit="10" stroke-linecap="round" stroke-linejoin="round"/>
<path d="M59 178.564L65.0676 174.945" stroke="black" stroke-width="1.4" stroke-miterlimit="10" stroke-linecap="round" stroke-linejoin="round"/>
<path d="M57.8828 130.746L64.5332 133.184" stroke="black" stroke-width="1.4" stroke-miterlimit="10" stroke-linecap="round" stroke-linejoin="round"/>
<path d="M34.029 109.149C19.966 104.528 12.9868 119.063 14.6681 130.863C16.3494 142.662 25.8319 171.397 29.8595 175.031C33.8721 178.665 70.7483 176.235 74.3724 171.345L72.7808 150.102C66.758 148.95 46.0969 154.476 45.3646 151.762C44.9761 150.326 41.8227 138.437 38.9384 127.58" fill="white"/>
<path d="M34.029 109.149C19.966 104.528 12.9868 119.063 14.6681 130.863C16.3494 142.662 25.8319 171.397 29.8595 175.031C33.8721 178.665 70.7483 176.235 74.3724 171.345L72.7808 150.102C66.758 148.95 46.0969 154.476 45.3646 151.762C44.9761 150.326 41.8227 138.437 38.9384 127.58" stroke="black" stroke-width="1.4" stroke-miterlimit="10" stroke-linecap="round" stroke-linejoin="round"/>
<path d="M74.3729 171.346L83.25 169.364L81.7107 148.121L72.7812 150.103L74.3729 171.346Z" fill="white" stroke="black" stroke-width="1.4" stroke-miterlimit="10" stroke-linecap="round" stroke-linejoin="round"/>
<path d="M82.823 167.517C82.823 167.517 85.8642 167.285 94.2407 167.053C102.625 166.821 108.506 163.569 109.903 155.104C111.3 146.633 108.304 143.32 100.607 145.391C97.7528 146.162 94.0016 148.838 94.0016 148.838C94.0016 148.838 99.2472 144.763 97.0354 141.922C93.9942 138.019 86.1183 148.958 81.6797 151.77L82.823 167.517Z" fill="white" stroke="black" stroke-width="1.4" stroke-miterlimit="10" stroke-linecap="round" stroke-linejoin="round"/>
<path d="M94.7344 154.618C94.7344 154.618 104.807 150.573 108.939 146.617" stroke="black" stroke-width="1.4" stroke-miterlimit="10" stroke-linecap="round" stroke-linejoin="round"/>
<path d="M110.231 151.949C110.231 151.949 106.846 156.563 95.5625 158.768" stroke="black" stroke-width="1.4" stroke-miterlimit="10" stroke-linecap="round" stroke-linejoin="round"/>
<path d="M109.156 158.078C109.156 158.078 103.23 162.609 95.4141 162.55" stroke="black" stroke-width="1.4" stroke-miterlimit="10" stroke-linecap="round" stroke-linejoin="round"/>
<path d="M24.5703 69.2539C24.5703 69.2539 26.7672 84.8964 32.1697 91.3568C37.5797 97.8246 24.4956 96.9872 24.7721 100.995C25.1756 106.91 46.8305 120.309 64.8315 120.997C100.938 122.373 112.356 103.373 112.356 103.373C112.737 98.6097 106.654 96.1198 106.654 96.1198C106.654 96.1198 108.821 90.1529 106.654 86.6386L24.5703 69.2539Z" fill="white" stroke="black" stroke-width="1.4" stroke-miterlimit="10" stroke-linecap="round" stroke-linejoin="round"/>
<path d="M120.562 48.8725C121.534 76.3814 100.021 99.4713 72.5372 100.436C45.0464 101.4 21.9792 79.8808 21.0078 52.3644C20.0438 24.863 41.5418 1.77311 69.0327 0.808543C96.531 -0.156026 119.598 21.3636 120.562 48.8725Z" fill="white" stroke="black" stroke-width="1.4" stroke-miterlimit="10" stroke-linecap="round" stroke-linejoin="round"/>
<path d="M68.5259 20.4891C42.3278 40.4684 45.5559 67.3641 45.5559 67.3641C45.5559 67.3641 75.9012 106.171 114.967 73.6675C114.967 73.6675 124.98 57.8231 120.474 38.786C115.976 19.7488 100.709 9.50493 100.709 9.50493C100.709 9.50493 85.5779 7.47859 68.5259 20.4891Z" fill="#101210"/>
<path d="M107.542 84.2542C68.043 110.23 38.6094 67.6097 38.6094 67.6097C38.6094 67.6097 41.7702 13.2424 90.5947 4.88281" stroke="black" stroke-width="1.4" stroke-miterlimit="10" stroke-linecap="round" stroke-linejoin="round"/>
<path d="M59.1962 40.1012C53.6293 47.3616 51.948 61.1572 55.7291 63.1312C59.5026 65.1052 60.4292 49.4852 66.3025 44.1389C72.4522 38.531 64.8155 32.7734 59.1962 40.1012Z" fill="white"/>
<path d="M67.4443 26.8973C65.5239 27.832 64.702 30.2173 65.636 32.1389L65.8154 32.5128C66.7494 34.4344 69.1331 35.257 71.0535 34.3223C72.9739 33.3876 73.7959 31.0024 72.8543 29.0807L72.675 28.7068C71.7484 26.7852 69.3573 25.9552 67.4443 26.8973Z" fill="white"/>
<path d="M108.297 67.992C107.714 66.9377 106.392 66.5339 105.405 67.3415C102.693 69.5473 91.9475 74.3925 94.8991 79.2752C97.1557 83.0064 101.236 81.0398 104.292 77.9069C107.789 75.5291 110.382 71.7755 108.297 67.992Z" fill="white"/>
<path d="M30.2736 66.2644C24.7665 63.8043 18.3627 56.1551 16.6814 46.7113C15.4708 39.8995 19.0949 33.5737 23.4663 34.9944C23.4663 34.9944 18.1385 52.4688 34.7496 60.0881L30.2736 66.2644Z" fill="white" stroke="black" stroke-width="1.4" stroke-miterlimit="10" stroke-linecap="round" stroke-linejoin="round"/>
<path d="M46.9512 66.2194C47.7208 70.8329 44.6048 75.1846 40.0019 75.9548C35.3914 76.725 31.035 73.6069 30.2728 69.0009C29.5032 64.3949 32.6266 60.0357 37.2221 59.2655C41.8251 58.4953 46.1815 61.6059 46.9512 66.2194Z" fill="white" stroke="black" stroke-width="1.4" stroke-miterlimit="10" stroke-linecap="round" stroke-linejoin="round"/>
<path d="M42.1571 67.019C42.4858 68.978 41.1632 70.8324 39.2055 71.1614C37.2477 71.4904 35.3946 70.1594 35.0658 68.2004C34.737 66.2414 36.0596 64.3795 38.0174 64.058C39.9826 63.729 41.8283 65.0525 42.1571 67.019Z" fill="white" stroke="black" stroke-width="1.4" stroke-miterlimit="10" stroke-linecap="round" stroke-linejoin="round"/>
<path d="M33.0234 92.6445C33.0234 92.6445 48.2671 112.407 74.0019 111.644" stroke="black" stroke-width="1.4" stroke-miterlimit="10" stroke-linecap="round" stroke-linejoin="round"/>
<path d="M106.665 96.1211C106.665 96.1211 97.7206 105.864 89.0078 108.616" stroke="black" stroke-width="1.4" stroke-miterlimit="10" stroke-linecap="round" stroke-linejoin="round"/>
</svg>
