<svg width="226" height="302" viewBox="0 0 226 302" fill="none" xmlns="http://www.w3.org/2000/svg">
<path d="M76.3911 94.8242C76.3911 94.8242 46.7763 99.2176 47.5541 133.207C48.3319 167.203 44.3348 183.553 80.7267 187.947C102.513 190.581 123.219 145.764 115.001 118.13C109.506 99.6157 76.3911 94.8242 76.3911 94.8242Z" fill="white" stroke="black" stroke-width="1.4" stroke-miterlimit="10" stroke-linecap="round" stroke-linejoin="round"/>
<path d="M167.691 93.0286C145.898 105.362 131.141 102.698 130.363 114.033C129.384 128.342 142.794 134.19 153.41 129.804C164.026 125.411 181.49 115.075 183.428 113.338C192.855 104.877 206.633 90.7197 206.222 84.8426L191.768 70.2148C186.64 73.1607 170.976 91.1685 167.691 93.0286Z" fill="white" stroke="black" stroke-width="1.4" stroke-miterlimit="10" stroke-linecap="round" stroke-linejoin="round"/>
<path d="M206.22 84.8437L211.485 77.8012L197.059 63.1445L191.766 70.2232L206.22 84.8437Z" fill="white" stroke="black" stroke-width="1.4" stroke-miterlimit="10" stroke-linecap="round" stroke-linejoin="round"/>
<path d="M210.021 76.7161C210.021 76.7161 212.11 74.6316 218.095 69.1815C224.087 63.7314 226.363 57.6371 222.085 50.5223C217.807 43.4147 213.529 42.8646 209.186 49.2339C207.58 51.5935 206.507 55.9217 206.507 55.9217C206.507 55.9217 207.796 49.6248 204.404 48.9227C199.722 47.9673 200.81 60.9738 199.305 65.8376L210.021 76.7161Z" fill="white" stroke="black" stroke-width="1.4" stroke-miterlimit="10" stroke-linecap="round" stroke-linejoin="round"/>
<path d="M210.664 59.7204C210.664 59.7204 215.511 50.3981 216.066 44.8828" stroke="black" stroke-width="1.4" stroke-miterlimit="10" stroke-linecap="round" stroke-linejoin="round"/>
<path d="M220.342 48.0039C220.342 48.0039 220.753 53.5264 213.875 62.2553" stroke="black" stroke-width="1.4" stroke-miterlimit="10" stroke-linecap="round" stroke-linejoin="round"/>
<path d="M223.393 53.1875C223.393 53.1875 221.888 60.2517 216.141 65.13" stroke="black" stroke-width="1.4" stroke-miterlimit="10" stroke-linecap="round" stroke-linejoin="round"/>
<path d="M155.096 175.482C155.096 147.935 162.939 99.3109 146.446 92.0513C137.019 87.904 90.299 88.0199 90.299 88.0199C90.299 88.0199 87.2093 90.3432 80.2738 94.3313C61.21 105.326 82.0599 208.849 82.1895 217.795C82.2111 219.488 76.6872 233.081 76.6872 233.081L70.5078 263.075C70.5078 263.075 78.178 261.765 92.4164 254.18C99.4744 250.423 114.584 236.939 116.853 227.841C119.489 217.23 121.592 188.062 121.592 188.062C123.018 193.809 136.003 212.128 143.191 225.025C149.125 235.694 152.359 252.689 160.937 271.543L172.669 237.59C172.669 237.59 170.897 216.029 168.29 207.792C164.797 196.87 155.096 178.45 155.096 175.482Z" fill="white" stroke="black" stroke-width="1.4" stroke-miterlimit="10" stroke-linecap="round" stroke-linejoin="round"/>
<path d="M179.993 264.617L172.661 237.598C172.661 237.598 171.473 241.021 162.074 244.452C156.32 246.544 148.016 246.616 148.016 246.616C148.016 246.616 156.881 267.012 157.645 269.647C160.727 280.381 159.841 279.375 163.903 290.608L207.44 274.728C207.821 262.329 196.493 253.905 179.993 264.617Z" fill="white" stroke="black" stroke-width="1.4" stroke-miterlimit="10" stroke-linecap="round" stroke-linejoin="round"/>
<path d="M208.545 277.617C207.558 277.979 207.882 278.876 206.889 279.238C205.895 279.6 205.571 278.702 204.577 279.064C203.583 279.426 203.907 280.324 202.92 280.685C201.926 281.047 201.61 280.15 200.616 280.512C199.629 280.874 199.946 281.771 198.959 282.133C197.973 282.495 197.641 281.597 196.655 281.959C195.668 282.321 195.985 283.219 194.991 283.581C194.004 283.943 193.68 283.045 192.686 283.4C191.7 283.762 192.031 284.659 191.037 285.021C190.043 285.383 189.719 284.485 188.732 284.847C187.738 285.209 188.07 286.107 187.076 286.469C186.082 286.83 185.758 285.933 184.771 286.295C183.777 286.657 184.101 287.554 183.115 287.916C182.128 288.278 181.804 287.381 180.81 287.742C179.816 288.104 180.14 289.002 179.146 289.364C178.167 289.726 177.836 288.828 176.849 289.19C175.862 289.552 176.179 290.449 175.192 290.811C174.199 291.173 173.874 290.276 172.881 290.638C171.894 290.999 172.225 291.897 171.231 292.259C170.237 292.621 169.913 291.723 168.927 292.078C167.933 292.44 168.257 293.337 167.27 293.699C166.276 294.061 165.959 293.164 164.966 293.525L163.914 290.609L207.508 274.707L208.545 277.617Z" fill="white" stroke="black" stroke-width="1.4" stroke-miterlimit="10" stroke-linecap="round" stroke-linejoin="round"/>
<path d="M68.811 269.054L92.4193 254.18C92.4193 254.18 88.811 254.021 82.8261 245.973C79.1675 241.051 76.69 233.082 76.69 233.082C76.69 233.082 59.83 247.514 57.547 249.005C48.2131 255.085 48.9189 253.942 39.3906 261.093L67.1185 298.382C79.0379 295.168 83.784 281.822 68.811 269.054Z" fill="white" stroke="black" stroke-width="1.4" stroke-miterlimit="10" stroke-linecap="round" stroke-linejoin="round"/>
<path d="M64.6821 300.286C64.0483 299.439 63.2849 300.011 62.6511 299.157C62.0245 298.31 62.7807 297.738 62.1542 296.884C61.5204 296.038 60.7642 296.609 60.1232 295.755C59.4894 294.908 60.2528 294.337 59.619 293.483C58.9925 292.636 58.2218 293.208 57.5953 292.361C56.9615 291.514 57.7249 290.942 57.0911 290.088C56.4645 289.241 55.6939 289.813 55.0674 288.966C54.4408 288.119 55.197 287.548 54.5632 286.694C53.9366 285.847 53.1804 286.418 52.5394 285.572C51.9129 284.725 52.6691 284.153 52.0353 283.306C51.4087 282.459 50.6453 283.024 50.0115 282.177C49.3849 281.33 50.1412 280.758 49.5074 279.912C48.8808 279.065 48.1102 279.637 47.4836 278.783C46.8498 277.936 47.6132 277.364 46.9795 276.517C46.3529 275.67 45.5895 276.242 44.9557 275.395C44.3291 274.548 45.0853 273.977 44.4515 273.123C43.825 272.276 43.0616 272.847 42.4278 272.001C41.8012 271.154 42.5574 270.582 41.9308 269.735C41.2971 268.888 40.5336 269.46 39.8999 268.613C39.2733 267.766 40.0295 267.195 39.4029 266.341C38.7691 265.494 38.0129 266.066 37.3791 265.212C36.7454 264.365 37.5016 263.793 36.875 262.946L39.3453 261.086L67.1092 298.419L64.6821 300.286Z" fill="white" stroke="black" stroke-width="1.4" stroke-miterlimit="10" stroke-linecap="round" stroke-linejoin="round"/>
<path d="M54.8701 91.0009C75.4392 105.31 90.1097 115.385 90.1097 115.385C89.7784 129.723 75.8785 134.305 65.7092 128.949C55.5399 123.593 39.0977 111.679 37.3332 109.769C28.7267 100.475 16.3104 85.0948 17.2539 79.29L32.9975 66.0664C37.8301 69.4682 51.7733 88.8512 54.8701 91.0009Z" fill="white" stroke="black" stroke-width="1.4" stroke-miterlimit="10" stroke-linecap="round" stroke-linejoin="round"/>
<path d="M17.2512 79.2816L12.6562 71.776L28.3711 58.5234L32.9948 66.0581L17.2512 79.2816Z" fill="white" stroke="black" stroke-width="1.4" stroke-miterlimit="10" stroke-linecap="round" stroke-linejoin="round"/>
<path d="M14.2158 70.836C14.2158 70.836 12.336 68.5705 6.86969 62.5848C1.41054 56.5991 -0.303545 50.3239 4.61545 43.6361C9.53444 36.9555 13.8341 36.7963 17.5719 43.5492C18.9547 46.0463 19.6245 50.4542 19.6245 50.4542C19.6245 50.4542 18.9187 44.0631 22.3685 43.6795C27.1146 43.1584 24.8388 56.0128 25.8831 60.9925L14.2158 70.836Z" fill="white" stroke="black" stroke-width="1.4" stroke-miterlimit="10" stroke-linecap="round" stroke-linejoin="round"/>
<path d="M15.1359 53.8578C15.1359 53.8578 11.1676 44.1229 11.1172 38.5859" stroke="black" stroke-width="1.4" stroke-miterlimit="10" stroke-linecap="round" stroke-linejoin="round"/>
<path d="M6.57364 41.2852C6.57364 41.2852 5.65178 46.7497 11.7087 56.0721" stroke="black" stroke-width="1.4" stroke-miterlimit="10" stroke-linecap="round" stroke-linejoin="round"/>
<path d="M3.0625 46.168C3.0625 46.168 3.91234 53.3407 9.19144 58.7257" stroke="black" stroke-width="1.4" stroke-miterlimit="10" stroke-linecap="round" stroke-linejoin="round"/>
<path d="M70.4688 68.0078C70.4688 68.0078 72.5862 83.1494 77.8076 89.4029C83.0147 95.6637 70.4111 94.8531 70.6704 98.7326C71.0593 104.458 91.9308 117.428 109.281 118.094C144.081 119.418 155.086 101.027 155.086 101.027C155.453 96.4164 149.583 94.0135 149.583 94.0135C149.583 94.0135 151.686 88.2304 149.583 84.8359L70.4688 68.0078Z" fill="white" stroke="black" stroke-width="1.4" stroke-miterlimit="10" stroke-linecap="round" stroke-linejoin="round"/>
<path d="M162.989 48.2768C163.926 74.9122 143.191 97.2555 116.688 98.1892C90.184 99.1229 67.9585 78.2923 67.0222 51.6569C66.0932 25.0288 86.8207 2.67828 113.324 1.7446C139.813 0.81815 162.053 21.6415 162.989 48.2768Z" fill="white" stroke="black" stroke-width="1.4" stroke-miterlimit="10" stroke-linecap="round" stroke-linejoin="round"/>
<path d="M112.838 20.8017C87.5806 40.1412 90.6919 66.1759 90.6919 66.1759C90.6919 66.1759 119.939 103.74 157.592 72.2774C157.592 72.2774 167.257 56.9403 162.907 38.5055C158.564 20.0779 143.85 10.1692 143.85 10.1692C143.85 10.1692 129.273 8.20778 112.838 20.8017Z" fill="#101210"/>
<path d="M150.432 82.5247C112.369 107.669 84 66.406 84 66.406C84 66.406 87.0537 13.7794 134.112 5.6875" stroke="black" stroke-width="1.4" stroke-miterlimit="10" stroke-linecap="round" stroke-linejoin="round"/>
<path d="M103.834 39.7848C98.483 46.8128 96.8554 60.1667 100.492 62.0775C104.129 63.9883 105.022 48.8684 110.676 43.7005C116.618 38.2576 109.257 32.6917 103.834 39.7848Z" fill="white"/>
<path d="M111.796 27.0033C109.938 27.908 109.153 30.2169 110.053 32.077L110.233 32.4389C111.133 34.2991 113.431 35.0952 115.282 34.1905C117.133 33.2858 117.925 30.9769 117.025 29.1168L116.852 28.7549C115.944 26.8875 113.647 26.0913 111.796 27.0033Z" fill="white"/>
<path d="M151.161 66.7856C150.6 65.7651 149.325 65.3742 148.367 66.1559C145.753 68.2911 135.403 72.9812 138.248 77.7003C140.423 81.3192 144.355 79.4084 147.301 76.3758C150.672 74.0814 153.171 70.448 151.161 66.7856Z" fill="white"/>
<path d="M75.9605 65.1122C70.6598 62.7309 64.4805 55.3266 62.86 46.1851C61.6933 39.5914 65.1935 33.4682 69.3995 34.8434C69.3995 34.8434 64.2644 51.7583 80.2745 59.1337L75.9605 65.1122Z" fill="white" stroke="black" stroke-width="1.4" stroke-miterlimit="10" stroke-linecap="round" stroke-linejoin="round"/>
<path d="M92.0319 65.0672C92.7737 69.533 89.7704 73.7454 85.334 74.4837C80.9047 75.2292 76.6987 72.211 75.9641 67.7524C75.2223 63.2867 78.2256 59.0742 82.662 58.336C87.0985 57.5905 91.2901 60.6014 92.0319 65.0672Z" fill="white" stroke="black" stroke-width="1.4" stroke-miterlimit="10" stroke-linecap="round" stroke-linejoin="round"/>
<path d="M87.4137 65.8346C87.7306 67.7382 86.4486 69.5332 84.5617 69.8444C82.6748 70.1557 80.8887 68.8746 80.5718 66.9782C80.2549 65.0819 81.5296 63.2797 83.4166 62.9685C85.3107 62.6572 87.0968 63.9383 87.4137 65.8346Z" fill="white" stroke="black" stroke-width="1.4" stroke-miterlimit="10" stroke-linecap="round" stroke-linejoin="round"/>
<path d="M78.6094 90.6484C78.6094 90.6484 93.3087 109.785 118.105 109.04" stroke="black" stroke-width="1.4" stroke-miterlimit="10" stroke-linecap="round" stroke-linejoin="round"/>
<path d="M149.574 94.0117C149.574 94.0117 140.96 103.443 132.562 106.099" stroke="black" stroke-width="1.4" stroke-miterlimit="10" stroke-linecap="round" stroke-linejoin="round"/>
<path d="M150.426 122.964C150.426 122.964 147.696 119.642 141.862 120.547C136.036 121.452 105.766 126.149 105.766 126.149C103.324 126.149 101.344 128.132 101.344 130.593V171.038C101.344 173.492 103.324 175.482 105.766 175.482L146.011 169.236C147.214 169.236 151.095 164.806 151.095 164.806L150.426 122.964Z" fill="white" stroke="black" stroke-width="1.4" stroke-miterlimit="10" stroke-linecap="round" stroke-linejoin="round"/>
<path d="M152.131 162.149C152.131 164.328 150.373 166.101 148.198 166.101L112.433 171.652C110.272 171.652 108.508 169.886 108.508 167.7V131.757C108.508 129.579 110.272 127.805 112.433 127.805L148.198 122.254C150.373 122.254 152.131 124.02 152.131 126.206V162.149Z" fill="white" stroke="black" stroke-width="1.4" stroke-miterlimit="10" stroke-linecap="round" stroke-linejoin="round"/>
<path d="M103.641 173.823L109.481 170.312" stroke="black" stroke-width="1.4" stroke-miterlimit="10" stroke-linecap="round" stroke-linejoin="round"/>
<path d="M102.57 127.531L108.973 129.884" stroke="black" stroke-width="1.4" stroke-miterlimit="10" stroke-linecap="round" stroke-linejoin="round"/>
</svg>
