<svg width="65" height="86" viewBox="0 0 65 86" fill="none" xmlns="http://www.w3.org/2000/svg">
<g clip-path="url(#clip0_1837_31261)">
<path fill-rule="evenodd" clip-rule="evenodd" d="M45.7413 8.89551C44.1728 6.48902 41.0391 4.64445 37.6687 4.05685C31.0282 2.90438 25.458 4.87714 22.056 9.38316C17.6418 15.2375 19.4056 22.7651 22.2904 26.787C20.3996 27.3399 19.1632 31.3064 20.2138 33.2601C21.1035 33.8438 22.4213 34.1461 23.564 34.5621C22.9732 45.8309 21.2189 58.857 20.5814 70.3582C20.3575 74.3308 19.8692 78.4327 20.4904 81.8039C20.6907 82.8809 21.1782 84.4054 22.3729 84.7854C26.0409 85.9631 27.7483 78.8687 28.4982 75.9822C31.8619 63.0794 35.2168 49.2206 38.9236 37.3844C42.4199 37.9039 44.2836 32.983 42.567 30.3906C44.3648 29.0209 45.9947 27.1481 46.888 25.0011C49.2591 19.2858 47.9894 12.3431 45.7413 8.89551Z" fill="#152B29"/>
<path fill-rule="evenodd" clip-rule="evenodd" d="M36.8931 5.5438C36.651 5.92718 36.169 5.95352 35.9173 6.3397C35.4543 6.11043 35.3716 5.61368 34.7759 5.46491C35.1479 4.99144 36.1523 5.46873 36.8931 5.5438Z" fill="white"/>
<path fill-rule="evenodd" clip-rule="evenodd" d="M37.5049 8.28156C37.1373 7.70142 36.6657 7.19335 36.1709 6.71291C36.7642 5.14328 39.8563 5.81228 39.702 7.06599C39.6344 7.69004 38.0778 7.85355 37.5049 8.28156Z" fill="white"/>
<path fill-rule="evenodd" clip-rule="evenodd" d="M35.2226 6.53231C34.7156 7.39947 33.7041 7.539 33.0891 8.25023C32.3855 7.76833 32.091 7.01054 31.2807 6.59112C32.1186 4.82492 34.4358 4.80367 35.2226 6.53231Z" fill="white"/>
<path fill-rule="evenodd" clip-rule="evenodd" d="M31.8766 5.23017C32.269 5.82389 30.3435 6.54326 30.3627 5.43324C30.9467 5.47083 31.4615 5.41406 31.8766 5.23017Z" fill="white"/>
<path fill-rule="evenodd" clip-rule="evenodd" d="M43.2597 9.06904C43.2408 9.57466 42.7535 9.4046 42.6294 9.76389C41.7985 9.13168 41.2823 8.29285 40.6006 7.56494C41.497 7.0319 42.2291 8.78698 43.2597 9.06904Z" fill="white"/>
<path fill-rule="evenodd" clip-rule="evenodd" d="M41.9352 9.9563C41.4713 10.6858 40.6983 10.964 40.1472 11.5732C39.1578 10.8623 38.8758 9.68407 38.0452 8.87466C38.4499 8.12078 39.4272 8.22048 39.9343 7.60332C40.8871 8.18944 41.2942 9.15395 41.9352 9.9563Z" fill="white"/>
<path fill-rule="evenodd" clip-rule="evenodd" d="M30.4955 6.43515C29.4344 7.6519 28.4218 8.50023 27.311 6.80382C28.1938 6.29559 29.6042 5.13298 30.4955 6.43515Z" fill="white"/>
<path fill-rule="evenodd" clip-rule="evenodd" d="M37.1361 8.53704C36.4494 9.21713 35.5352 9.54698 34.8457 10.2175C34.2034 9.87393 34.0154 9.23086 33.4839 8.80284C34.4243 7.17337 36.196 6.67611 37.1361 8.53704Z" fill="white"/>
<path fill-rule="evenodd" clip-rule="evenodd" d="M32.3705 8.59648C31.9682 9.28717 31.236 9.49089 30.774 10.0844C30.0817 9.64091 29.682 8.98679 29.1196 8.45319C30.0091 6.57816 31.7188 6.72414 32.3705 8.59648Z" fill="white"/>
<path fill-rule="evenodd" clip-rule="evenodd" d="M45.237 12.3986C45.1128 12.7579 44.6768 12.6562 44.4806 12.9115C43.8768 12.1295 43.5425 11.1646 42.8252 10.4575C44.1026 8.44817 44.5724 11.551 45.237 12.3986Z" fill="white"/>
<path fill-rule="evenodd" clip-rule="evenodd" d="M26.7861 7.02155C27.412 7.38031 27.704 7.9513 28.1479 8.43618C27.6276 9.15095 27.0617 9.81655 26.3348 10.2167C25.6206 10.0192 25.5726 9.35601 24.9104 9.12249C25.3369 8.12258 26.2487 7.85593 26.7861 7.02155Z" fill="white"/>
<path fill-rule="evenodd" clip-rule="evenodd" d="M37.3532 9.06718C38.1706 9.97419 38.9909 10.8908 39.3897 12.0765C38.6452 12.5235 38.0561 13.2167 37.284 13.6404C36.9448 12.5519 34.9362 11.5973 35.0531 10.7504C35.2029 9.87311 36.881 10.0179 37.3532 9.06718Z" fill="white"/>
<path fill-rule="evenodd" clip-rule="evenodd" d="M43.9775 12.9752C43.478 13.7255 42.5557 13.8494 42.0354 14.5641C41.209 13.9827 40.8599 13.0742 40.3454 12.2765C40.7908 11.4482 41.7339 11.36 42.2874 10.6876C43.1303 11.2538 43.4465 12.1927 43.9775 12.9752Z" fill="white"/>
<path fill-rule="evenodd" clip-rule="evenodd" d="M32.7781 9.00762C33.3372 9.45882 33.6664 10.0502 34.112 10.5763C33.7666 11.3545 32.8693 11.3148 32.5155 12.0642C31.81 11.7183 31.6435 11.0064 30.99 10.6245C31.4635 9.89215 32.2365 9.614 32.7781 9.00762Z" fill="white"/>
<path fill-rule="evenodd" clip-rule="evenodd" d="M28.5531 8.83746C29.151 9.35024 29.5739 9.97674 30.2074 10.4687C29.6747 11.1767 28.9506 11.5864 28.3943 12.2492C27.5641 11.9398 27.3864 11.1895 26.7149 10.7816C27.2167 9.96801 27.9251 9.46911 28.5531 8.83746Z" fill="white"/>
<path fill-rule="evenodd" clip-rule="evenodd" d="M45.1079 13.0297C45.8973 13.4136 45.6417 14.499 45.8143 15.3028C45.5106 14.6207 44.2983 13.6103 45.1079 13.0297Z" fill="white"/>
<path fill-rule="evenodd" clip-rule="evenodd" d="M34.5 11.141C35.353 12.0272 36.0761 13.0035 36.728 14.0214C36.3262 14.7849 35.6248 15.0942 35.0968 15.6758C34.2829 14.674 33.5373 13.6209 32.7398 12.6039C33.2261 11.9511 33.9483 11.6774 34.5 11.141Z" fill="white"/>
<path fill-rule="evenodd" clip-rule="evenodd" d="M24.3687 9.34256C24.951 9.76614 25.3706 10.3102 25.8941 10.7823C25.5534 11.4341 25.0032 11.7617 24.6084 12.3356C23.9791 12.0716 23.6219 11.6343 22.9926 11.3703C23.1422 10.243 24.0029 10.158 24.3687 9.34256Z" fill="white"/>
<path fill-rule="evenodd" clip-rule="evenodd" d="M39.8002 12.4968C40.3503 13.2736 41.0632 13.9299 41.2987 14.9133C40.4826 15.3291 39.7566 15.8748 39.0362 16.4397C38.4417 15.8322 38.058 15.09 37.6387 14.3687C38.1244 13.3932 39.1411 13.2001 39.8002 12.4968Z" fill="white"/>
<path fill-rule="evenodd" clip-rule="evenodd" d="M31.7983 12.4106C31.3017 13.1705 30.5207 13.4927 29.9756 14.1938C29.3741 13.7759 28.9545 13.2318 28.6417 12.6252C29.4634 11.1242 31.0698 10.5607 31.7983 12.4106Z" fill="white"/>
<path fill-rule="evenodd" clip-rule="evenodd" d="M45.4735 16.205C45.0152 16.9537 44.2574 17.2483 43.6854 17.8219C43.0932 16.9011 42.4789 15.9763 42.1234 14.903C42.8039 14.5581 43.4304 14.1353 44.0029 13.6344C44.8693 14.2458 44.9765 15.3606 45.4735 16.205Z" fill="white"/>
<path fill-rule="evenodd" clip-rule="evenodd" d="M26.1386 11.1587C27.5064 11.9881 28.1948 13.1308 26.5698 14.0228C25.8852 13.7124 25.5452 13.1555 25.0165 12.7371C25.2676 12.0281 25.843 11.7869 26.1386 11.1587Z" fill="white"/>
<path fill-rule="evenodd" clip-rule="evenodd" d="M34.5319 16.0597C34.1429 16.9027 33.2951 17.0673 32.8728 17.868C31.7054 17.0113 31.278 15.6568 30.205 14.7307C30.8121 14.0635 31.5358 13.581 32.1845 12.9849C33.1352 13.8843 33.8999 14.9317 34.5319 16.0597Z" fill="white"/>
<path fill-rule="evenodd" clip-rule="evenodd" d="M41.554 15.2867C42.4401 15.9653 42.3522 17.3037 42.9621 18.1777C42.5014 18.9896 41.5819 19.1231 41.1393 19.961C40.8955 19.626 39.1473 17.7096 39.2289 17.1336C39.3715 16.1959 40.9815 16.2147 41.554 15.2867Z" fill="white"/>
<path fill-rule="evenodd" clip-rule="evenodd" d="M22.5791 11.7826C23.2441 12.0257 23.4261 12.5768 24.0035 12.8768C23.3727 13.4989 23.0719 14.6079 22.1529 14.8141C21.7467 13.9952 22.3062 12.7376 22.5791 11.7826Z" fill="white"/>
<path fill-rule="evenodd" clip-rule="evenodd" d="M36.9466 14.5614C37.689 15.1049 37.8077 16.0808 38.5105 16.6671C38.1082 17.3578 37.412 17.6135 36.914 18.1551C36.0856 17.7097 35.9974 16.7665 35.325 16.213C35.7116 15.4331 36.5183 15.2701 36.9466 14.5614Z" fill="white"/>
<path fill-rule="evenodd" clip-rule="evenodd" d="M27.8917 13.1355C29.3855 13.8968 29.609 14.9463 28.194 15.8081C27.511 15.539 27.4026 14.883 26.7975 14.5599C26.995 13.8457 27.6486 13.8005 27.8917 13.1355Z" fill="white"/>
<path fill-rule="evenodd" clip-rule="evenodd" d="M46.153 17.8188C45.8228 18.6135 45.2014 18.9827 44.8048 19.6926C44.151 19.4879 44.1881 18.831 43.9078 18.3712C44.4536 17.5656 45.9022 16.1418 46.153 17.8188Z" fill="white"/>
<path fill-rule="evenodd" clip-rule="evenodd" d="M24.4265 13.2847C24.918 13.6827 25.3767 14.1112 25.823 14.5329C25.3933 15.4504 24.5491 15.7702 24.0985 16.6521C23.4207 16.3294 23.0479 15.8029 22.7367 15.2375C23.2238 14.4803 23.8189 13.8791 24.4265 13.2847Z" fill="white"/>
<path fill-rule="evenodd" clip-rule="evenodd" d="M29.6386 15.1056C30.754 15.9984 31.3825 17.2211 32.3064 18.2429C31.9804 18.8383 31.3273 18.9564 31.0582 19.6394C30.0355 18.6361 29.3438 17.411 28.4183 16.3481C28.7447 15.8254 29.2693 15.5887 29.6386 15.1056Z" fill="white"/>
<path fill-rule="evenodd" clip-rule="evenodd" d="M26.2379 14.9439C26.6446 15.4084 27.0813 15.8329 27.4429 16.3211C27.1714 17.0673 26.4799 17.1965 26.1572 17.8744C25.2887 17.8262 24.8949 17.4413 24.3219 17.1921C24.8228 16.2329 25.5844 15.6664 26.2379 14.9439Z" fill="white"/>
<path fill-rule="evenodd" clip-rule="evenodd" d="M36.1865 18.5042C35.8543 19.4348 35.0093 19.609 34.5274 20.3126C33.699 19.8672 33.6108 18.924 32.9384 18.3705C33.4919 17.6981 34.1535 17.1816 34.7515 16.59C35.4906 17.0511 35.762 17.8365 36.1865 18.5042Z" fill="white"/>
<path fill-rule="evenodd" clip-rule="evenodd" d="M38.6982 17.3513C39.4864 18.194 39.9503 19.246 40.6086 20.1788C39.3128 22.0893 37.9125 20.0087 37.2585 18.8768C37.5115 18.0318 38.2802 17.9528 38.6982 17.3513Z" fill="white"/>
<path fill-rule="evenodd" clip-rule="evenodd" d="M43.1892 18.7177C43.6063 19.075 43.7991 19.5917 44.0862 20.0391C43.345 20.5684 42.1961 20.4876 41.1846 20.6272C41.6471 19.6792 42.5505 19.3838 43.1892 18.7177Z" fill="white"/>
<path fill-rule="evenodd" clip-rule="evenodd" d="M27.6636 16.8608C28.7934 17.1972 28.5567 18.4542 29.3815 18.9944C28.5221 19.2978 27.7143 18.388 26.7262 18.3227C26.8172 17.4938 27.5045 17.5637 27.6636 16.8608Z" fill="white"/>
<path fill-rule="evenodd" clip-rule="evenodd" d="M37.6804 20.9209C36.7827 20.8083 35.9807 20.8449 34.9693 20.5572C35.7871 19.0782 37.4378 19.0227 37.6804 20.9209Z" fill="white"/>
<path fill-rule="evenodd" clip-rule="evenodd" d="M33.6796 20.4775C32.8779 20.3368 32.4208 19.9496 31.4988 19.8962C32.0923 18.1494 33.549 19.1404 33.6796 20.4775Z" fill="white"/>
<path fill-rule="evenodd" clip-rule="evenodd" d="M21.39 17.1111C21.9889 17.3422 22.1297 17.8949 22.6603 18.1774C22.6106 18.5774 22.321 18.6204 22.1965 18.9069C21.627 18.5629 20.7749 17.8223 21.39 17.1111Z" fill="white"/>
<path fill-rule="evenodd" clip-rule="evenodd" d="M43.8228 24.7413C43.3685 24.3636 43.1837 23.803 42.9634 23.2631C43.546 21.9779 45.5792 21.3417 45.5194 22.7761C45.4848 23.6197 44.2586 23.9158 43.8228 24.7413Z" fill="white"/>
<path fill-rule="evenodd" clip-rule="evenodd" d="M24.742 19.2361C24.5422 20.0134 24.0236 20.3422 23.6199 20.8145C23.0365 20.4225 22.7349 19.8543 22.44 19.2737C22.8472 18.0294 23.6999 19.0928 24.742 19.2361Z" fill="white"/>
<path fill-rule="evenodd" clip-rule="evenodd" d="M41.946 22.5704C41.9909 22.724 42.0358 22.8776 42.201 22.9438C41.8163 23.5877 41.2001 23.9033 40.7613 24.4693C40.4777 23.9271 40.0122 23.511 39.9298 22.8371C40.5108 22.615 41.236 22.6009 41.946 22.5704Z" fill="white"/>
<path fill-rule="evenodd" clip-rule="evenodd" d="M21.2391 18.7288C21.6442 19.1521 21.8629 19.6508 21.3132 20.0511C20.9835 19.8142 21.1243 19.2625 21.2391 18.7288Z" fill="white"/>
<path fill-rule="evenodd" clip-rule="evenodd" d="M25.3404 19.5181C26.5061 20.3337 27.0166 21.5805 27.8542 22.6275C27.5349 23.6377 26.7083 23.9107 26.2961 24.7814C25.3706 23.7185 24.7732 22.4241 23.8477 21.3612C24.2912 20.6688 24.8788 20.1844 25.3404 19.5181Z" fill="white"/>
<path fill-rule="evenodd" clip-rule="evenodd" d="M26.8293 20.3015C27.6611 19.9749 28.4673 20.8435 29.5125 20.8192C29.3539 21.5949 28.7031 21.6498 28.4183 22.2436C27.642 21.7621 27.4661 20.8758 26.8293 20.3015Z" fill="white"/>
<path fill-rule="evenodd" clip-rule="evenodd" d="M30.1187 21.1009C30.9602 21.4487 31.7728 21.8049 31.955 22.6059C31.4508 23.4827 30.6764 23.9697 30.0765 24.6973C29.4837 24.1309 29.2315 23.3399 28.6415 22.7831C29.1103 22.1772 29.6499 21.7068 30.1187 21.1009Z" fill="white"/>
<path fill-rule="evenodd" clip-rule="evenodd" d="M40.2009 24.853C39.532 25.3091 38.9842 26.6779 38.385 26.6239C37.5329 26.5605 37.5658 24.9985 36.8586 24.3614C37.5566 22.1881 39.9956 22.9751 40.2009 24.853Z" fill="white"/>
<path fill-rule="evenodd" clip-rule="evenodd" d="M42.3966 23.6376C43.13 23.8295 42.8538 24.7021 43.4476 24.9868C43.0504 25.6239 42.423 25.9012 42.0079 26.5123C41.2989 26.2612 41.4339 25.4403 40.9848 25.009C41.4308 24.5035 41.9602 24.1403 42.3966 23.6376Z" fill="white"/>
<path fill-rule="evenodd" clip-rule="evenodd" d="M45.0823 24.1649C45.1766 24.5228 44.7119 25.784 44.1171 25.7808C43.9241 25.0141 44.7632 24.7479 45.0823 24.1649Z" fill="white"/>
<path fill-rule="evenodd" clip-rule="evenodd" d="M21.8504 19.8214C22.4926 20.1649 22.6835 20.8176 23.2122 21.236C23.2549 21.7028 22.9136 21.6046 22.9023 21.9934C24.1372 21.5489 24.991 24.1123 25.8906 25.1933C25.4621 25.652 25.1694 26.2898 24.7589 26.7745C23.2216 24.9736 20.7175 22.5386 21.8504 19.8214Z" fill="white"/>
<path fill-rule="evenodd" clip-rule="evenodd" d="M37.1541 22.7934C37.1044 23.1934 36.8148 23.2365 36.6902 23.5229C36.1846 23.5041 36.3547 23.0168 35.9954 22.8926C36.2356 22.6453 36.839 22.9272 37.1541 22.7934Z" fill="white"/>
<path fill-rule="evenodd" clip-rule="evenodd" d="M35.8739 24.3468C35.488 24.595 35.2075 24.9896 34.8701 25.2967C34.2638 24.3279 33.2869 23.6238 33.1512 22.3403C34.3884 22.2598 35.839 23.1588 35.8739 24.3468Z" fill="white"/>
<path fill-rule="evenodd" clip-rule="evenodd" d="M32.1734 23.1364C33.0463 23.9126 33.721 24.8301 34.2753 25.8349C33.7332 26.7957 32.9332 27.3735 32.3342 28.2467C31.554 27.36 31.128 26.224 30.4613 25.2624C30.8911 24.3449 31.7256 24.0279 32.1734 23.1364Z" fill="white"/>
<path fill-rule="evenodd" clip-rule="evenodd" d="M43.6404 25.6808C44.5529 26.4142 43.2752 27.9235 42.3931 27.9001C42.285 27.7442 42.3848 27.4441 42.1728 27.3603C42.4309 26.4617 43.2589 26.4071 43.6404 25.6808Z" fill="white"/>
<path fill-rule="evenodd" clip-rule="evenodd" d="M28.2421 23.1923C28.8349 23.7587 29.0871 24.5497 29.6771 25.1065C29.0976 25.7969 28.4696 26.4285 27.9526 27.2257C27.3402 26.5921 26.848 25.8713 26.5802 24.9911C27.1995 24.5078 27.6425 23.7427 28.2421 23.1923Z" fill="white"/>
<path fill-rule="evenodd" clip-rule="evenodd" d="M36.2933 24.7455C37.1604 25.2525 37.3 26.264 38.0112 26.879C37.7112 27.4565 37.0881 27.5345 36.7909 28.1215C36.1592 27.4936 35.8586 26.6438 35.227 26.0158C35.5302 25.5208 35.9624 25.2173 36.2933 24.7455Z" fill="white"/>
<path fill-rule="evenodd" clip-rule="evenodd" d="M38.8927 28.2031C39.3473 27.9764 38.4666 27.4942 38.6367 27.0069C39.3532 26.714 39.8272 26.0545 40.3968 25.5441C41.0506 25.7488 40.9547 26.4541 41.2909 26.8558C40.3583 28.1913 38.8987 28.7223 37.9092 29.9702C36.7509 29.0378 37.2003 28.1875 38.2449 27.4132C38.4115 27.6979 38.8368 27.834 38.8927 28.2031Z" fill="white"/>
<path fill-rule="evenodd" clip-rule="evenodd" d="M29.8953 25.637C30.8552 26.7107 32.4625 28.5016 31.0319 29.9514C28.9795 29.9161 28.5987 28.7563 28.2083 27.5994C28.7882 26.9818 29.3958 26.3874 29.8953 25.637Z" fill="white"/>
<path fill-rule="evenodd" clip-rule="evenodd" d="M34.6324 26.5538C35.3715 27.0149 35.6401 27.7907 36.0673 28.468C35.3744 29.9105 32.6095 31.5004 32.572 28.7712C33.3499 28.1895 33.9101 27.2547 34.6324 26.5538Z" fill="white"/>
<path fill-rule="evenodd" clip-rule="evenodd" d="M26.1026 25.7234C26.6451 26.367 27.1164 27.0523 27.5001 27.7944C27.5225 28.2984 27.0111 28.0103 27.0362 28.5239C26.0485 28.2814 25.6584 27.6245 25.0085 27.1478C25.3709 26.6771 25.743 26.2036 26.1026 25.7234Z" fill="white"/>
<path fill-rule="evenodd" clip-rule="evenodd" d="M37.0147 30.2946C36.1758 30.1336 35.6364 30.4268 34.8696 30.3698C35.3297 29.485 37.0631 28.5718 37.0147 30.2946Z" fill="white"/>
<path fill-rule="evenodd" clip-rule="evenodd" d="M27.7645 28.1774C28.1479 28.4195 28.1742 28.9015 28.5604 29.1533C28.1743 29.5787 27.851 28.8294 27.3006 28.9069C27.3503 28.5069 27.6399 28.4639 27.7645 28.1774Z" fill="white"/>
<path fill-rule="evenodd" clip-rule="evenodd" d="M32.0879 29.5066C32.2869 29.6881 32.5406 29.8431 32.4344 30.2284C32.1704 30.1806 31.9036 30.1232 31.6491 30.0725C31.6216 29.6222 32.0226 29.8175 32.0879 29.5066Z" fill="white"/>
<path fill-rule="evenodd" clip-rule="evenodd" d="M41.4375 31.972C40.8701 31.742 40.7076 32.1125 40.1402 31.8825C40.3828 31.5719 41.5676 31.0275 41.4375 31.972Z" fill="white"/>
<path fill-rule="evenodd" clip-rule="evenodd" d="M24.1004 28.4558C24.0147 28.8039 23.416 28.3955 23.1236 28.4289C23.2157 27.9957 23.9422 28.2 24.1004 28.4558Z" fill="white"/>
<path fill-rule="evenodd" clip-rule="evenodd" d="M40.8193 33.4866C35.7497 34.6774 27.3311 32.753 21.6869 30.7674C21.7575 30.403 21.8252 30.0289 21.9053 29.6617C28.1984 31.7284 34.8872 33.3668 40.8193 33.4866Z" fill="white"/>
<path fill-rule="evenodd" clip-rule="evenodd" d="M40.2619 34.6907C40.3719 34.7107 40.4723 34.7334 40.5823 34.7533C37.8369 37.2649 31.3878 34.6291 27.2031 33.644C30.9053 33.9054 36.4958 35.2086 40.1107 34.6725C40.1519 34.6708 40.2083 34.6856 40.2619 34.6907Z" fill="white"/>
<path fill-rule="evenodd" clip-rule="evenodd" d="M24.9625 35.0069C28.3874 36.1724 32.9911 36.9515 36.7759 37.4596C35.146 38.228 30.4905 37.7349 27.5658 36.819C26.4648 36.4742 25.17 35.8943 24.9625 35.0069Z" fill="white"/>
<path fill-rule="evenodd" clip-rule="evenodd" d="M28.3665 69.0721C27.2056 69.4845 25.6124 69.5232 24.1416 68.9115C24.6363 59.2023 26.6862 48.4341 27.0154 38.8358C30.1858 39.9508 33.8688 40.2178 36.2254 39.4765C33.8914 48.9526 30.58 58.7561 28.3665 69.0721Z" fill="white"/>
<path fill-rule="evenodd" clip-rule="evenodd" d="M25.1417 38.32C25.7461 38.3204 25.7692 38.72 26.3736 38.7203C25.5517 48.3793 24.2897 59.063 23.242 68.413C21.639 68.2045 22.44 66.2407 22.5278 65.3295C23.2791 57.1393 24.4731 47.0069 25.0513 38.7945C25.086 38.628 25.1138 38.474 25.1417 38.32Z" fill="white"/>
<path fill-rule="evenodd" clip-rule="evenodd" d="M27.925 70.4707C28.1095 70.5314 28.0053 70.7806 27.9886 70.9731C26.7038 71.5676 25.8475 72.8078 23.8003 72.2916C24.032 71.7655 23.6823 71.6385 23.8551 71.1608C25.6322 71.5371 26.7398 70.9423 27.925 70.4707Z" fill="white"/>
<path fill-rule="evenodd" clip-rule="evenodd" d="M22.1833 70.5033C22.3399 70.718 22.7043 70.7885 23.0976 70.8506C22.8763 71.2696 23.2391 71.2989 23.1082 71.6706C22.6571 71.3754 22.1542 71.1161 22.1833 70.5033Z" fill="white"/>
<path fill-rule="evenodd" clip-rule="evenodd" d="M27.2536 73.9389C27.0697 75.7326 25.3929 83.1098 23.6468 82.4119C22.1596 81.8153 24.0414 75.816 23.5667 74.3711C25.1986 74.8212 26.3176 74.5148 27.2536 73.9389Z" fill="white"/>
<path fill-rule="evenodd" clip-rule="evenodd" d="M21.9513 73.4061C22.4162 73.4994 22.4037 73.9198 22.8098 74.0615C22.4907 76.4262 22.6585 78.4608 22.3134 80.8435C21.775 78.6463 21.9247 75.9874 21.9513 73.4061Z" fill="white"/>
<path fill-rule="evenodd" clip-rule="evenodd" d="M41.6334 27.59C42.0351 27.6809 41.7419 28.246 42.1464 28.3465C41.2677 29.0827 40.0715 29.3387 39.0638 29.8835C39.3805 29.1136 40.88 28.3626 41.6334 27.59Z" fill="white"/>
</g>
<defs>
<clipPath id="clip0_1837_31261">
<rect width="45.26" height="75.66" fill="white" transform="translate(0.289062 12.8726) rotate(-16.301)"/>
</clipPath>
</defs>
</svg>
