<svg width="110" height="108" viewBox="0 0 110 108" fill="none" xmlns="http://www.w3.org/2000/svg">
<g clip-path="url(#clip0_1463_20733)">
<path d="M14.5205 47.5931C10.9879 44.8696 7.42599 42.1831 3.90454 39.4448C6.77057 40.5958 9.62642 41.7681 12.4882 42.9298C12.5303 41.7097 12.5468 40.4902 12.5907 39.2688C16.1393 41.6646 19.6846 44.0617 23.2334 46.456C20.3641 45.367 17.5415 44.1518 14.6879 43.0197C14.6337 44.5438 14.5857 46.0701 14.5205 47.5931Z" fill="#A79CEE"/>
<path d="M18.4971 30.4909C15.6485 25.0596 12.7628 19.6469 9.91086 14.217C12.8267 17.3119 15.7267 20.4211 18.6374 23.5187C19.3838 22.0241 20.1167 20.5217 20.8571 19.0233C23.9229 24.0677 26.9884 29.1136 30.0353 34.1704C27.12 31.0867 24.2325 27.9803 21.3238 24.8942C20.3917 26.7645 19.4291 28.6205 18.4971 30.4909Z" fill="#A79CEE"/>
<path d="M30.2015 20.2321C28.5746 12.6006 26.9003 4.97868 25.293 -2.65718C27.7672 2.29448 30.2146 7.25935 32.6871 12.2124C33.8994 10.617 35.1564 9.05336 36.4 7.48034C38.528 14.9954 40.689 22.5011 42.8072 30.0184C40.1529 25.045 37.5462 20.0446 34.929 15.0527C33.3387 16.7644 31.7847 18.5117 30.2015 20.2321Z" fill="#A79CEE"/>
<path d="M50.248 27.6213C49.5916 22.0731 48.8849 16.5325 48.2235 10.9853C49.2427 11.6605 50.2641 12.3296 51.2868 13.002C52.5499 8.80967 53.796 4.61235 55.0794 0.425259C54.5009 6.777 53.8953 13.1276 53.3073 19.4783C52.4663 18.9045 51.7101 18.2211 50.9478 17.5498C50.7104 20.906 50.5315 24.2682 50.248 27.6213Z" fill="#A79CEE"/>
<path d="M59.4453 30.3633C60.8399 25.5291 62.2966 20.7124 63.7346 15.8907C64.3337 16.8121 64.9398 17.7279 65.5357 18.649C68.0858 15.6532 70.6109 12.6357 73.1786 9.65462C70.4275 14.6868 67.6429 19.7028 64.8766 24.7271C64.3834 23.9572 64.0171 23.1188 63.617 22.2993C62.2254 24.9872 60.8292 27.673 59.4453 30.3633Z" fill="#A79CEE"/>
<path fill-rule="evenodd" clip-rule="evenodd" d="M45.4035 34.6731C42.2266 35.1593 40.0313 35.8376 37.8226 37.0151C31.5876 40.3393 27.3376 46.2103 25.8332 53.5777C25.4452 55.4777 25.4399 60.9164 25.8241 62.8408C26.4699 66.0753 27.8338 69.4168 29.5545 71.9798C31.192 74.4188 34.0471 77.205 36.232 78.4959L36.9726 78.9334L36.8514 80.1109C36.7847 80.7586 36.7302 81.9596 36.7302 82.78C36.7302 84.1082 36.7769 84.373 37.1569 85.1996C37.3915 85.7101 37.9002 86.4784 38.287 86.9072L38.9904 87.6865L38.5056 88.177C36.9302 89.7706 36.9607 92.5245 38.5695 93.9672C39.1247 94.4651 39.127 94.4713 38.8707 94.8651C37.474 97.0113 38.7384 100.223 41.1308 100.606C41.731 100.702 41.7813 100.748 41.8727 101.283C42.4287 104.531 45.1195 105.111 47.9465 105.234C50.9828 105.366 54.0887 104.52 54.6447 101.271C54.7362 100.737 54.7864 100.691 55.3867 100.595C57.779 100.212 59.0434 97.0002 57.6467 94.854C57.3905 94.4602 57.3927 94.454 57.9479 93.9561C59.5568 92.5134 59.5872 89.7595 58.0119 88.1659L57.5271 87.6754L58.2305 86.8961C58.6173 86.4673 59.1259 85.699 59.3605 85.1885C59.7405 84.3619 59.7873 84.0971 59.7873 82.7689C59.7873 81.9485 59.7327 80.7475 59.666 80.0998L59.5449 78.9223L60.2855 78.4848C62.4703 77.1939 65.3255 74.4078 66.963 71.9688C68.6837 69.4057 70.0476 66.0643 70.6934 62.8297C71.0775 60.9054 71.0722 55.4667 70.6843 53.5667C69.1798 46.1993 64.9299 40.3282 58.6949 37.004C56.4861 35.8265 54.2909 35.1483 51.1139 34.6621C47.9442 34.4271 45.9863 34.5715 45.4035 34.6731ZM43.4263 101.177C43.9742 103.217 45.9184 103.64 47.9465 103.748C50.1914 103.867 52.5433 103.206 53.0911 101.165L53.2249 100.667L48.6847 100.676L43.2925 100.678L43.4263 101.177ZM40.0407 93.0239C40.5056 93.2734 42.9186 93.2878 49.1293 93.2911C55.3401 93.2878 56.0119 93.2623 56.4767 93.0128C57.9357 92.23 58.047 90.0559 56.6771 89.0966C56.3041 88.8355 55.7305 88.8098 49.3237 88.7669C42.9168 88.8098 40.2133 88.8466 39.8404 89.1077C38.4704 90.067 38.5817 92.2411 40.0407 93.0239ZM40.6082 86.7401C41.2788 87.0931 41.3747 87.0984 48.2702 87.176C55.1656 87.0984 55.2386 87.082 55.9093 86.729C56.8739 86.2215 57.7483 85.2152 58.1161 84.1896C58.445 83.2725 58.4407 83.0835 58.0031 79.2079C57.9178 78.4531 57.9416 78.3648 58.3347 77.9802C58.5677 77.7522 59.4859 77.0628 60.3753 76.4481C64.1528 73.8377 67.2258 69.5274 68.5744 64.9477C69.3317 62.3763 69.4843 61.2247 69.4787 58.1197C69.474 55.5447 69.4294 55.0152 69.0862 53.4529C67.6242 46.7993 63.5881 41.3588 57.929 38.4126C55.1178 36.9491 52.2307 36.2503 48.9823 36.247C45.7339 36.2503 41.3997 36.9601 38.5885 38.4237C32.9293 41.3698 28.8933 46.8104 27.4313 53.4639C27.088 55.0262 27.0435 55.5558 27.0388 58.1308C27.0332 61.2358 27.1858 62.3874 27.943 64.9587C29.2916 69.5384 32.3647 73.8487 36.1421 76.4592C37.0315 77.0738 37.9497 77.7633 38.1827 77.9913C38.5758 78.3759 38.5996 78.4642 38.5144 79.219C38.0767 83.0946 38.0725 83.2836 38.4013 84.2007C38.7691 85.2263 39.6435 86.2326 40.6082 86.7401ZM49.1999 99.0634L49.3215 99.0643C54.8282 99.0227 55.4272 98.9929 55.7861 98.7415C56.7182 98.0887 57.015 96.8492 56.4526 95.9569C55.7556 94.8512 55.8055 94.8584 48.9065 94.8582C42.0075 94.8584 40.7618 94.8623 40.0649 95.968C39.5024 96.8603 39.7992 98.0998 40.7314 98.7526C41.0876 99.0021 43.7746 99.0224 49.1999 99.0634Z" fill="white"/>
<path d="M48.2702 87.176C41.3747 87.0984 41.2788 87.0931 40.6082 86.7401C39.6435 86.2326 38.7691 85.2263 38.4013 84.2007C38.0725 83.2836 38.0767 83.0946 38.5144 79.219C38.5996 78.4642 38.5758 78.3759 38.1827 77.9913C37.9497 77.7633 37.0315 77.0738 36.1421 76.4592C32.3647 73.8487 29.2916 69.5384 27.943 64.9587C27.1858 62.3874 27.0332 61.2358 27.0388 58.1308C27.0435 55.5558 27.088 55.0262 27.4313 53.4639C28.8933 46.8104 32.9293 41.3698 38.5885 38.4237C41.3997 36.9601 45.7339 36.2503 48.9823 36.247C52.2307 36.2503 55.1178 36.9491 57.929 38.4126C63.5881 41.3588 67.6242 46.7993 69.0862 53.4529C69.4294 55.0152 69.474 55.5447 69.4787 58.1197C69.4843 61.2247 69.3317 62.3763 68.5744 64.9477C67.2258 69.5274 64.1528 73.8377 60.3753 76.4481C59.4859 77.0628 58.5677 77.7522 58.3347 77.9802C57.9416 78.3648 57.9178 78.4531 58.0031 79.2079C58.4407 83.0835 58.445 83.2725 58.1161 84.1896C57.7483 85.2152 56.8739 86.2215 55.9093 86.729C55.2386 87.082 55.1656 87.0984 48.2702 87.176Z" fill="white"/>
<path d="M49.1293 93.2911C42.9186 93.2878 40.5056 93.2734 40.0407 93.0239C38.5817 92.2411 38.4704 90.067 39.8404 89.1077C40.2133 88.8466 42.9168 88.8098 49.3237 88.7669C55.7305 88.8098 56.3041 88.8355 56.6771 89.0966C58.047 90.0559 57.9357 92.23 56.4767 93.0128C56.0119 93.2623 55.3401 93.2878 49.1293 93.2911Z" fill="white"/>
<path d="M40.7314 98.7526C39.7992 98.0998 39.5024 96.8603 40.0649 95.968C40.7618 94.8623 42.0075 94.8584 48.9065 94.8582C55.8055 94.8584 55.7556 94.8512 56.4526 95.9569C57.015 96.8492 56.7182 98.0887 55.7861 98.7415C55.4272 98.9929 54.8282 99.0227 49.3215 99.0643L49.1999 99.0634C43.7746 99.0224 41.0876 99.0021 40.7314 98.7526Z" fill="white"/>
<path d="M47.9465 103.748C45.9184 103.64 43.9742 103.217 43.4263 101.177L43.2925 100.678L48.6847 100.676L53.2249 100.667L53.0911 101.165C52.5433 103.206 50.1914 103.867 47.9465 103.748Z" fill="white"/>
<path fill-rule="evenodd" clip-rule="evenodd" d="M45.4035 34.6731C42.2266 35.1593 40.0313 35.8376 37.8226 37.0151C31.5876 40.3393 27.3376 46.2103 25.8332 53.5777C25.4452 55.4777 25.4399 60.9164 25.8241 62.8408C26.4699 66.0753 27.8338 69.4168 29.5545 71.9798C31.192 74.4188 34.0471 77.205 36.232 78.4959L36.9726 78.9334L36.8514 80.1109C36.7847 80.7586 36.7302 81.9596 36.7302 82.78C36.7302 84.1082 36.7769 84.373 37.1569 85.1996C37.3915 85.7101 37.9002 86.4784 38.287 86.9072L38.9904 87.6865L38.5056 88.177C36.9302 89.7706 36.9607 92.5245 38.5695 93.9672C39.1247 94.4651 39.127 94.4713 38.8707 94.8651C37.474 97.0113 38.7384 100.223 41.1308 100.606C41.731 100.702 41.7813 100.748 41.8727 101.283C42.4287 104.531 45.1195 105.111 47.9465 105.234C50.9828 105.366 54.0887 104.52 54.6447 101.271C54.7362 100.737 54.7864 100.691 55.3867 100.595C57.779 100.212 59.0434 97.0002 57.6467 94.854C57.3905 94.4602 57.3927 94.454 57.9479 93.9561C59.5568 92.5134 59.5872 89.7595 58.0119 88.1659L57.5271 87.6754L58.2305 86.8961C58.6173 86.4673 59.1259 85.699 59.3605 85.1885C59.7405 84.3619 59.7873 84.0971 59.7873 82.7689C59.7873 81.9485 59.7327 80.7475 59.666 80.0998L59.5449 78.9223L60.2855 78.4848C62.4703 77.1939 65.3255 74.4078 66.963 71.9688C68.6837 69.4057 70.0476 66.0643 70.6934 62.8297C71.0775 60.9054 71.0722 55.4667 70.6843 53.5667C69.1798 46.1993 64.9299 40.3282 58.6949 37.004C56.4861 35.8265 54.2909 35.1483 51.1139 34.6621C47.9442 34.4271 45.9863 34.5715 45.4035 34.6731ZM43.4263 101.177C43.9742 103.217 45.9184 103.64 47.9465 103.748C50.1914 103.867 52.5433 103.206 53.0911 101.165L53.2249 100.667L48.6847 100.676L43.2925 100.678L43.4263 101.177ZM40.0407 93.0239C40.5056 93.2734 42.9186 93.2878 49.1293 93.2911C55.3401 93.2878 56.0119 93.2623 56.4767 93.0128C57.9357 92.23 58.047 90.0559 56.6771 89.0966C56.3041 88.8355 55.7305 88.8098 49.3237 88.7669C42.9168 88.8098 40.2133 88.8466 39.8404 89.1077C38.4704 90.067 38.5817 92.2411 40.0407 93.0239ZM40.6082 86.7401C41.2788 87.0931 41.3747 87.0984 48.2702 87.176C55.1656 87.0984 55.2386 87.082 55.9093 86.729C56.8739 86.2215 57.7483 85.2152 58.1161 84.1896C58.445 83.2725 58.4407 83.0835 58.0031 79.2079C57.9178 78.4531 57.9416 78.3648 58.3347 77.9802C58.5677 77.7522 59.4859 77.0628 60.3753 76.4481C64.1528 73.8377 67.2258 69.5274 68.5744 64.9477C69.3317 62.3763 69.4843 61.2247 69.4787 58.1197C69.474 55.5447 69.4294 55.0152 69.0862 53.4529C67.6242 46.7993 63.5881 41.3588 57.929 38.4126C55.1178 36.9491 52.2307 36.2503 48.9823 36.247C45.7339 36.2503 41.3997 36.9601 38.5885 38.4237C32.9293 41.3698 28.8933 46.8104 27.4313 53.4639C27.088 55.0262 27.0435 55.5558 27.0388 58.1308C27.0332 61.2358 27.1858 62.3874 27.943 64.9587C29.2916 69.5384 32.3647 73.8487 36.1421 76.4592C37.0315 77.0738 37.9497 77.7633 38.1827 77.9913C38.5758 78.3759 38.5996 78.4642 38.5144 79.219C38.0767 83.0946 38.0725 83.2836 38.4013 84.2007C38.7691 85.2263 39.6435 86.2326 40.6082 86.7401ZM49.1999 99.0634L49.3215 99.0643C54.8282 99.0227 55.4272 98.9929 55.7861 98.7415C56.7182 98.0887 57.015 96.8492 56.4526 95.9569C55.7556 94.8512 55.8055 94.8584 48.9065 94.8582C42.0075 94.8584 40.7618 94.8623 40.0649 95.968C39.5024 96.8603 39.7992 98.0998 40.7314 98.7526C41.0876 99.0021 43.7746 99.0224 49.1999 99.0634Z" fill="black"/>
<path fill-rule="evenodd" clip-rule="evenodd" d="M55.9914 41.2637C55.9914 41.0784 56.0347 40.8807 56.0876 40.8244C56.309 40.5878 56.7468 40.766 57.7859 41.5157C61.6575 44.3091 64.1906 48.9434 64.6687 54.1074C64.8622 56.1974 64.7569 57.2753 64.3358 57.516C63.7658 57.8418 63.6329 57.4756 63.6329 55.579C63.6329 51.9377 62.5977 48.6687 60.5404 45.8134C59.7024 44.6502 58.2034 43.1712 56.9867 42.3072C56.261 41.7918 55.9914 41.5091 55.9914 41.2637ZM30.3774 55.4614C30.5415 52.9504 31.5427 49.8395 32.7297 48.1513C32.9565 47.8287 33.0528 47.6916 33.1666 47.675C33.251 47.6627 33.345 47.7165 33.509 47.8102C33.9045 48.0362 33.867 48.2198 33.1523 49.5593C32.3299 51.1006 31.654 53.34 31.4322 55.2592C31.2484 56.8491 31.0664 57.2022 30.5419 56.9872C30.3109 56.8925 30.2941 56.7364 30.3774 55.4614ZM30.6981 62.4295C30.315 61.5178 30.1704 59.9711 30.3969 59.2087C30.5015 58.8567 30.9339 58.7857 31.157 59.084C31.2361 59.1899 31.3311 59.7961 31.3682 60.4313C31.4126 61.1952 31.5406 61.8056 31.7465 62.2344C32.1282 63.0296 32.1316 63.1499 31.7797 63.351C31.3408 63.6018 31.1069 63.4027 30.6981 62.4295ZM63.5551 60.4507C63.5587 59.9743 63.6139 59.4979 63.6779 59.3919C63.8538 59.1006 64.3245 59.1614 64.4929 59.4973C64.8316 60.1732 64.496 62.4132 63.9723 62.9725C63.6979 63.2655 63.3607 63.2231 63.1524 62.8698C63.0403 62.6799 63.0721 62.4457 63.2749 61.9653C63.4351 61.5862 63.5513 60.9573 63.5551 60.4507ZM51.225 63.3747C51.3947 63.0194 51.7417 62.5934 51.9962 62.4277C53.9932 61.1271 55.1406 64.0717 53.77 66.9798C53.2361 68.1128 53.2405 68.1251 54.3938 68.7448C54.8458 68.9876 55.2854 69.0863 55.9076 69.0848C57.0841 69.0817 57.289 69.1573 57.289 69.5944C57.289 70.0599 57.1634 70.1365 56.2292 70.2395C55.2627 70.346 54.0959 69.9974 53.2635 69.3535L52.6447 68.8747L51.5914 69.4457C50.7016 69.928 50.3945 70.0167 49.6137 70.0167C48.697 70.0167 47.5774 69.6329 47.0576 69.1407C46.866 68.9593 46.7237 69.0404 46.0051 69.7416L45.1741 70.5525L45.4568 71.8437C45.9313 74.0106 46.0833 75.6264 46.0924 78.6011C46.1094 84.2372 45.8197 85.8859 44.9719 84.9803C44.7979 84.7944 44.7705 84.5889 44.8536 84.0949C44.913 83.7411 44.9611 81.5114 44.9603 79.1401C44.9591 75.6826 44.9092 74.554 44.7081 73.4428C44.338 71.3977 44.1781 70.8653 43.961 70.9543C43.4308 71.1715 42.3841 71.2197 41.6642 71.0602C40.5394 70.8107 39.6075 70.0923 39.0625 69.0543C38.6833 68.3321 38.618 68.0486 38.6184 67.1295C38.6188 66.2771 38.6908 65.9177 38.9621 65.4109C39.6486 64.1293 40.6621 63.7057 41.6952 64.2685C42.4595 64.685 43.1113 65.6228 44.0839 67.7052L44.8563 69.3587L45.4623 68.7831L46.0683 68.2074L45.6591 67.366C45.322 66.6726 45.2501 66.3319 45.2501 65.4299C45.2501 64.5024 45.3086 64.2407 45.6337 63.7162C46.0195 63.0935 46.7739 62.587 47.3153 62.587C47.7859 62.587 48.4732 63.3128 48.5805 63.9225C48.6926 64.5614 48.3733 65.9234 47.8167 67.18C47.4523 68.0026 47.4497 68.0303 47.716 68.2479C48.7858 69.1216 50.6046 69.094 51.54 68.1898C51.7694 67.9681 51.7606 67.9026 51.4012 67.1628C50.8631 66.0553 50.7816 64.303 51.225 63.3747ZM52.9068 66.3596C53.2432 65.6012 53.3806 64.048 53.1645 63.4466C53.0307 63.0741 52.7393 63.1542 52.3277 63.6768C51.8481 64.2853 51.8215 65.4243 52.2629 66.4366L52.5653 67.1295L52.9068 66.3596ZM46.598 66.87C46.7761 67.1645 47.3466 65.6664 47.4453 64.6449C47.5179 63.895 47.4988 63.8189 47.239 63.8189C46.3517 63.8189 45.9395 65.7814 46.598 66.87ZM43.6849 69.7449C43.8064 69.4069 42.5226 66.7359 41.8415 65.9095C41.1632 65.0865 40.6614 64.9875 40.1448 65.5748C39.0897 66.7743 39.7632 69.1819 41.3305 69.8143C41.9737 70.0739 43.5838 70.0264 43.6849 69.7449ZM51.5751 75.2135C52.0302 73.1671 52.8691 70.5895 53.1912 70.2476C53.5199 69.8989 54.0498 70.3941 53.9318 70.9396C53.8904 71.1307 53.6249 71.9607 53.3417 72.784C52.4512 75.3721 52.1859 77.0572 52.1839 80.1409C52.1829 81.623 52.2585 83.2344 52.3518 83.7218C52.5448 84.7291 52.4871 85.0137 52.0602 85.1583C51.5974 85.3152 51.4274 84.9116 51.2293 83.1844C50.9637 80.8685 51.1203 77.2586 51.5751 75.2135Z" fill="black"/>
</g>
<defs>
<clipPath id="clip0_1463_20733">
<rect width="110" height="110" fill="white" transform="translate(0 -2)"/>
</clipPath>
</defs>
</svg>
