<svg width="304" height="197" viewBox="0 0 304 197" fill="none" xmlns="http://www.w3.org/2000/svg">
<path d="M286.23 83.3424C286.23 83.3424 302.73 85.7757 302.296 104.635C301.855 123.495 304.086 132.562 283.814 135.003C271.668 136.465 260.139 111.602 264.714 96.2716C267.776 86.0005 286.23 83.3424 286.23 83.3424Z" fill="white" stroke="black" stroke-width="1.4" stroke-miterlimit="10" stroke-linecap="round" stroke-linejoin="round"/>
<path d="M237.147 103.792C237.147 103.792 242.079 84.6347 248.334 85.4096C256.219 86.3893 257.977 94.3476 254.458 99.692C250.935 105.036 245.341 115.01 241.79 117.303C238.247 119.596 219.231 111.039 218.107 107.971L222.14 97.2708C225.418 97.592 237.147 103.792 237.147 103.792Z" fill="white" stroke="black" stroke-width="1.4" stroke-miterlimit="10" stroke-linecap="round" stroke-linejoin="round"/>
<path d="M218.108 107.976L213.834 105.607L217.847 94.8979L222.141 97.275L218.108 107.976Z" fill="white" stroke="black" stroke-width="1.4" stroke-miterlimit="10" stroke-linecap="round" stroke-linejoin="round"/>
<path d="M214.335 104.723C214.335 104.723 212.802 104.145 208.521 102.748C204.235 101.354 201.699 98.7885 202.265 94.2111C202.827 89.6377 204.877 88.3849 208.529 90.6174C209.877 91.4445 211.406 93.392 211.406 93.392C211.406 93.392 209.319 90.4969 210.888 89.3686C213.047 87.8147 215.447 94.6528 217.312 96.7728L214.335 104.723Z" fill="white" stroke="black" stroke-width="1.4" stroke-miterlimit="10" stroke-linecap="round" stroke-linejoin="round"/>
<path d="M210.148 96.2672C210.148 96.2672 205.57 92.6535 204.037 89.9873" stroke="black" stroke-width="1.4" stroke-miterlimit="10" stroke-linecap="round" stroke-linejoin="round"/>
<path d="M202.569 92.5405C202.569 92.5405 203.612 95.4315 209.094 98.2784" stroke="black" stroke-width="1.4" stroke-miterlimit="10" stroke-linecap="round" stroke-linejoin="round"/>
<path d="M202.198 95.8613C202.198 95.8613 204.561 99.0976 208.594 100.25" stroke="black" stroke-width="1.4" stroke-miterlimit="10" stroke-linecap="round" stroke-linejoin="round"/>
<path d="M242.376 126.197C240.526 111.473 238.006 85.8231 247.199 81.7958C252.448 79.495 278.482 79.5593 278.482 79.5593C278.482 79.5593 280.207 80.8482 284.067 83.0646C294.685 89.1638 290.901 125.378 288.975 131.754C287.053 138.13 269.337 152.196 268.895 154.039C268.458 155.882 274.188 174.388 274.188 174.388L267.535 178.154C267.535 178.154 253.776 157.259 254.289 150.505C254.803 143.752 260.774 136.845 260.774 136.845C260.774 136.845 244.952 147.606 244.599 149.626C243.961 153.24 249.783 169.096 249.783 169.096L239.174 172.063C239.174 172.063 231.903 154.111 230.755 146.052C229.84 139.64 242.922 130.541 242.376 126.197Z" fill="white" stroke="black" stroke-width="1.4" stroke-miterlimit="10" stroke-linecap="round" stroke-linejoin="round"/>
<path d="M237.558 170.265L235.552 164.781C238.148 164.656 240.76 164.122 242.919 163.568C244.708 163.106 246.667 162.464 248.396 161.516C248.813 163.367 249.17 164.877 249.323 165.327C251.361 171.181 251.446 170.438 253.203 176.826L228.321 183.688C224.18 178.212 226.627 170.743 237.558 170.265Z" fill="white" stroke="black" stroke-width="1.4" stroke-miterlimit="10" stroke-linecap="round" stroke-linejoin="round"/>
<path d="M228.757 185.363C229.323 185.206 229.467 185.716 230.033 185.56C230.599 185.407 230.459 184.893 231.028 184.737C231.59 184.58 231.735 185.09 232.3 184.937C232.866 184.781 232.726 184.271 233.295 184.114C233.857 183.958 234.002 184.472 234.567 184.315C235.133 184.158 234.993 183.644 235.563 183.492C236.128 183.335 236.269 183.845 236.839 183.693C237.404 183.536 237.264 183.026 237.83 182.869C238.396 182.713 238.536 183.223 239.102 183.066C239.668 182.91 239.527 182.4 240.093 182.243C240.659 182.087 240.799 182.596 241.365 182.444C241.935 182.287 241.79 181.777 242.36 181.621C242.922 181.464 243.066 181.974 243.632 181.822C244.198 181.665 244.057 181.155 244.627 180.998C245.193 180.842 245.333 181.356 245.899 181.199C246.465 181.043 246.329 180.533 246.894 180.376C247.456 180.219 247.601 180.729 248.162 180.573C248.728 180.416 248.592 179.906 249.157 179.75C249.719 179.593 249.864 180.103 250.425 179.946C250.991 179.79 250.855 179.28 251.417 179.123C251.982 178.967 252.127 179.481 252.689 179.324C253.254 179.167 253.114 178.657 253.68 178.501L253.222 176.843L228.316 183.713L228.757 185.363Z" fill="white" stroke="black" stroke-width="1.4" stroke-miterlimit="10" stroke-linecap="round" stroke-linejoin="round"/>
<path d="M264.086 175.593L260.828 169.751C261.904 169.522 262.895 169.249 263.645 169.036C267.2 168.02 270.33 166.551 273.059 164.358C273.909 166.511 274.664 168.37 274.933 168.86C277.87 174.316 277.83 173.573 280.57 179.604L257.084 190.309C252.129 185.551 253.369 177.79 264.086 175.593Z" fill="white" stroke="black" stroke-width="1.4" stroke-miterlimit="10" stroke-linecap="round" stroke-linejoin="round"/>
<path d="M257.768 191.887C258.301 191.646 258.522 192.124 259.056 191.883C259.593 191.638 259.373 191.157 259.906 190.912C260.444 190.667 260.661 191.153 261.194 190.908C261.732 190.667 261.511 190.181 262.045 189.936C262.575 189.691 262.799 190.173 263.333 189.932C263.863 189.687 263.646 189.205 264.184 188.96C264.717 188.715 264.934 189.197 265.472 188.956C266.006 188.711 265.781 188.229 266.319 187.984C266.852 187.744 267.073 188.225 267.607 187.984C268.14 187.74 267.92 187.254 268.453 187.013C268.983 186.772 269.208 187.254 269.741 187.009C270.271 186.764 270.054 186.282 270.588 186.037C271.122 185.796 271.342 186.278 271.876 186.033C272.41 185.788 272.189 185.306 272.723 185.061C273.26 184.816 273.481 185.298 274.011 185.057C274.548 184.812 274.328 184.331 274.861 184.086C275.395 183.845 275.616 184.327 276.15 184.082C276.679 183.841 276.462 183.355 276.996 183.11C277.53 182.865 277.751 183.351 278.284 183.106C278.818 182.861 278.597 182.379 279.131 182.134C279.669 181.889 279.885 182.375 280.419 182.13C280.953 181.889 280.736 181.403 281.266 181.163L280.551 179.593L257.037 190.313L257.768 191.887Z" fill="white" stroke="black" stroke-width="1.4" stroke-miterlimit="10" stroke-linecap="round" stroke-linejoin="round"/>
<path d="M244.974 98.9502C244.974 98.9502 246.503 97.1072 249.749 97.6091C252.995 98.111 269.861 100.717 269.861 100.717C271.225 100.717 272.32 101.821 272.32 103.182V125.62C272.32 126.981 271.225 128.085 269.861 128.085L247.442 124.62C246.764 124.62 244.601 122.163 244.601 122.163L244.974 98.9502Z" fill="white" stroke="black" stroke-width="1.4" stroke-miterlimit="10" stroke-linecap="round" stroke-linejoin="round"/>
<path d="M244.031 120.689C244.031 121.897 245.01 122.881 246.222 122.881L266.149 125.961C267.357 125.961 268.336 124.977 268.336 123.769V103.829C268.336 102.616 267.357 101.636 266.149 101.636L246.222 98.5566C245.01 98.5566 244.031 99.5364 244.031 100.749V120.689Z" fill="white" stroke="black" stroke-width="1.4" stroke-miterlimit="10" stroke-linecap="round" stroke-linejoin="round"/>
<path d="M271.047 127.162L267.789 125.218" stroke="black" stroke-width="1.4" stroke-miterlimit="10" stroke-linecap="round" stroke-linejoin="round"/>
<path d="M271.648 101.484L268.077 102.793" stroke="black" stroke-width="1.4" stroke-miterlimit="10" stroke-linecap="round" stroke-linejoin="round"/>
<path d="M284.448 89.8827C291.999 87.4012 295.747 95.2069 294.844 101.543C293.941 107.879 288.849 123.31 286.687 125.261C284.532 127.213 264.729 125.908 262.783 123.282L263.638 111.874C266.872 111.256 277.967 114.223 278.36 112.766C278.569 111.995 280.262 105.611 281.811 99.7803" fill="white"/>
<path d="M284.448 89.8827C291.999 87.4012 295.747 95.2069 294.844 101.543C293.941 107.879 288.849 123.31 286.687 125.261C284.532 127.213 264.729 125.908 262.783 123.282L263.638 111.874C266.872 111.256 277.967 114.223 278.36 112.766C278.569 111.995 280.262 105.611 281.811 99.7803" stroke="black" stroke-width="1.4" stroke-miterlimit="10" stroke-linecap="round" stroke-linejoin="round"/>
<path d="M262.786 123.282L258.019 122.218L258.846 110.811L263.641 111.875L262.786 123.282Z" fill="white" stroke="black" stroke-width="1.4" stroke-miterlimit="10" stroke-linecap="round" stroke-linejoin="round"/>
<path d="M258.245 121.226C258.245 121.226 256.612 121.101 252.114 120.977C247.612 120.852 244.454 119.106 243.704 114.56C242.953 110.011 244.562 108.232 248.695 109.345C250.228 109.758 252.243 111.196 252.243 111.196C252.243 111.196 249.426 109.007 250.613 107.482C252.247 105.386 256.476 111.26 258.859 112.77L258.245 121.226Z" fill="white" stroke="black" stroke-width="1.4" stroke-miterlimit="10" stroke-linecap="round" stroke-linejoin="round"/>
<path d="M251.852 114.3C251.852 114.3 246.443 112.128 244.224 110.003" stroke="black" stroke-width="1.4" stroke-miterlimit="10" stroke-linecap="round" stroke-linejoin="round"/>
<path d="M243.529 112.866C243.529 112.866 245.347 115.344 251.406 116.528" stroke="black" stroke-width="1.4" stroke-miterlimit="10" stroke-linecap="round" stroke-linejoin="round"/>
<path d="M244.105 116.158C244.105 116.158 247.287 118.591 251.484 118.559" stroke="black" stroke-width="1.4" stroke-miterlimit="10" stroke-linecap="round" stroke-linejoin="round"/>
<path d="M289.531 68.4614C289.531 68.4614 288.352 76.8614 285.45 80.3306C282.545 83.8038 289.571 83.3541 289.423 85.5063C289.206 88.6824 277.578 95.8778 267.911 96.2472C248.522 96.986 242.391 86.7831 242.391 86.7831C242.186 84.2254 245.452 82.8883 245.452 82.8883C245.452 82.8883 244.289 79.6841 245.452 77.797L289.531 68.4614Z" fill="white" stroke="black" stroke-width="1.4" stroke-miterlimit="10" stroke-linecap="round" stroke-linejoin="round"/>
<path d="M237.984 57.5159C237.462 72.2881 249.015 84.6873 263.773 85.2053C278.536 85.7233 290.923 74.1673 291.444 59.3911C291.962 44.6229 280.417 32.2237 265.655 31.7057C250.888 31.1877 238.501 42.7437 237.984 57.5159Z" fill="white" stroke="black" stroke-width="1.4" stroke-miterlimit="10" stroke-linecap="round" stroke-linejoin="round"/>
<path d="M265.926 42.2743C279.994 53.0031 278.26 67.4461 278.26 67.4461C278.26 67.4461 261.965 88.2854 240.987 70.8309C240.987 70.8309 235.61 62.3226 238.03 52.0997C240.445 41.8768 248.643 36.3758 248.643 36.3758C248.643 36.3758 256.769 35.2877 265.926 42.2743Z" fill="#101210"/>
<path d="M244.976 76.5162C266.186 90.4653 281.992 67.5782 281.992 67.5782C281.992 67.5782 280.295 38.3831 254.076 33.894" stroke="black" stroke-width="1.4" stroke-miterlimit="10" stroke-linecap="round" stroke-linejoin="round"/>
<path d="M270.937 52.8062C273.926 56.705 274.829 64.1132 272.799 65.1732C270.772 66.2333 270.275 57.8453 267.121 54.9744C263.818 51.963 267.919 48.8712 270.937 52.8062Z" fill="white"/>
<path d="M266.509 45.7155C267.54 46.2174 267.982 47.4983 267.48 48.5302L267.384 48.731C266.882 49.7629 265.602 50.2046 264.571 49.7027C263.54 49.2008 263.098 47.9199 263.604 46.888L263.7 46.6872C264.198 45.6553 265.482 45.2096 266.509 45.7155Z" fill="white"/>
<path d="M244.571 67.7829C244.884 67.2168 245.595 67 246.124 67.4336C247.581 68.6181 253.351 71.22 251.766 73.842C250.554 75.8456 248.363 74.7896 246.722 73.1072C244.844 71.8303 243.452 69.8147 244.571 67.7829Z" fill="white"/>
<path d="M286.465 66.8551C289.422 65.5341 292.861 61.4265 293.764 56.3552C294.414 52.6972 292.468 49.3003 290.12 50.0632C290.12 50.0632 292.981 59.4469 284.061 63.5385L286.465 66.8551Z" fill="white" stroke="black" stroke-width="1.4" stroke-miterlimit="10" stroke-linecap="round" stroke-linejoin="round"/>
<path d="M277.505 66.8317C277.091 69.3092 278.765 71.6461 281.236 72.0596C283.712 72.4732 286.052 70.7988 286.461 68.3254C286.874 65.852 285.197 63.5111 282.729 63.0975C280.257 62.684 277.918 64.3543 277.505 66.8317Z" fill="white" stroke="black" stroke-width="1.4" stroke-miterlimit="10" stroke-linecap="round" stroke-linejoin="round"/>
<path d="M280.079 67.261C279.903 68.313 280.613 69.3088 281.664 69.4855C282.715 69.6622 283.711 68.9475 283.887 67.8954C284.064 66.8434 283.353 65.8436 282.302 65.671C281.247 65.4943 280.256 66.205 280.079 67.261Z" fill="white" stroke="black" stroke-width="1.4" stroke-miterlimit="10" stroke-linecap="round" stroke-linejoin="round"/>
<path d="M284.992 81.0215C284.992 81.0215 276.806 91.6339 262.987 91.2243" stroke="black" stroke-width="1.4" stroke-miterlimit="10" stroke-linecap="round" stroke-linejoin="round"/>
<path d="M245.44 82.8882C245.44 82.8882 250.243 88.1201 254.922 89.5977" stroke="black" stroke-width="1.4" stroke-miterlimit="10" stroke-linecap="round" stroke-linejoin="round"/>
<path d="M160.32 71.8252H159.32V72.8252V89.7364V91.2096L160.689 90.6658C161.659 90.2806 162.726 90.109 163.857 90.2238L163.858 90.2238C167.186 90.5607 169.831 93.3985 169.928 96.7431C170.04 100.568 166.972 103.703 163.176 103.703C162.3 103.703 161.465 103.531 160.695 103.224L159.324 102.677V104.153V121.064V122.064H160.324H175.855C175.646 123.107 175.622 124.221 175.847 125.377L175.847 125.379C176.642 129.424 180.227 132.454 184.367 132.489H184.368C189.239 132.529 193.202 128.593 193.202 123.733C193.202 123.159 193.143 122.601 193.036 122.064H208.567H209.567V121.064V80.3335V80.3326C209.562 75.6364 205.757 71.8252 201.058 71.8252H160.32Z" fill="white" stroke="black" stroke-width="2"/>
<path d="M19.4838 60.3575C19.4838 60.3575 0.509494 63.1559 1.00972 84.8285C1.5128 106.498 -1.05407 116.923 22.2622 119.721C36.2256 121.396 49.4859 92.8293 44.2263 75.2127C40.7019 63.4103 19.4838 60.3575 19.4838 60.3575Z" fill="white" stroke="black" stroke-width="1.4" stroke-miterlimit="10" stroke-linecap="round" stroke-linejoin="round"/>
<path d="M80.7841 83.6503C70.3937 71.4477 70.2565 61.8434 63.0675 62.7352C53.992 63.8586 51.974 73.0055 56.0215 79.1483C60.0719 85.2911 68.6758 95.0126 70.0021 96.0216C76.4479 100.918 86.9983 107.853 90.6228 106.881L98.0033 96.0073C95.5365 93.1403 82.3505 85.4883 80.7841 83.6503Z" fill="white" stroke="black" stroke-width="1.4" stroke-miterlimit="10" stroke-linecap="round" stroke-linejoin="round"/>
<path d="M90.625 106.88L95.6758 109.33L103.079 98.4708L98.0055 96.0068L90.625 106.88Z" fill="white" stroke="black" stroke-width="1.4" stroke-miterlimit="10" stroke-linecap="round" stroke-linejoin="round"/>
<path d="M96.1719 108.276C96.1719 108.276 97.7297 109.33 101.874 112.435C106.019 115.542 110.11 116.231 114.037 112.669C117.962 109.113 117.784 106.358 113.265 104.403C111.596 103.682 108.752 103.534 108.752 103.534C108.752 103.534 112.851 103.576 112.871 101.355C112.899 98.3027 104.89 100.569 101.663 100.218L96.1719 108.276Z" fill="white" stroke="black" stroke-width="1.4" stroke-miterlimit="10" stroke-linecap="round" stroke-linejoin="round"/>
<path d="M106.883 106.615C106.883 106.615 113.314 108.527 116.83 108.198" stroke="black" stroke-width="1.4" stroke-miterlimit="10" stroke-linecap="round" stroke-linejoin="round"/>
<path d="M115.405 111.271C115.405 111.271 111.998 112.203 105.695 108.939" stroke="black" stroke-width="1.4" stroke-miterlimit="10" stroke-linecap="round" stroke-linejoin="round"/>
<path d="M112.533 113.823C112.533 113.823 107.925 113.738 104.172 110.713" stroke="black" stroke-width="1.4" stroke-miterlimit="10" stroke-linecap="round" stroke-linejoin="round"/>
<path d="M68.3895 121.379C70.5162 104.46 74.9324 63.2129 64.3648 58.5879C58.325 55.941 28.3915 56.0153 28.3915 56.0153C28.3915 56.0153 26.4049 57.496 21.9686 60.0429C9.75736 67.0517 17.4065 103.302 20.2735 123.1C23.0291 145.504 19.942 172.734 19.942 172.734L30.1494 175.735C30.1494 175.735 33.1736 171.773 36.5409 162.015C40.1596 151.533 44.1586 135.008 44.6617 128.862C46.3281 135.56 49.8154 149.486 52.1708 178.593H64.6707C64.6735 178.593 66.2628 138.298 68.3895 121.379Z" fill="white" stroke="black" stroke-width="1.4" stroke-miterlimit="10" stroke-linecap="round" stroke-linejoin="round"/>
<path d="M65.1722 178.605L66.6328 160.812C66.6328 160.812 65.1722 162.601 58.7636 162.601C54.8447 162.601 49.8281 160.829 49.8281 160.829C49.8281 160.829 50.7342 174.986 50.6171 176.73C50.1426 183.839 49.8281 183.044 49.8281 190.656H79.5044C82.4285 183.322 77.4377 175.793 65.1722 178.605Z" fill="white" stroke="black" stroke-width="1.4" stroke-miterlimit="10" stroke-linecap="round" stroke-linejoin="round"/>
<path d="M79.5366 192.64C78.8591 192.64 78.8591 193.246 78.1845 193.246C77.5071 193.246 77.5071 192.64 76.8325 192.64C76.155 192.64 76.155 193.246 75.4804 193.246C74.8059 193.246 74.8059 192.64 74.1284 192.64C73.4538 192.64 73.4538 193.246 72.7792 193.246C72.1046 193.246 72.1046 192.64 71.4272 192.64C70.7526 192.64 70.7526 193.246 70.0752 193.246C69.3977 193.246 69.4006 192.64 68.7231 192.64C68.0485 192.64 68.0485 193.246 67.3739 193.246C66.6993 193.246 66.6993 192.64 66.0248 192.64C65.3502 192.64 65.3502 193.246 64.6727 193.246C63.9981 193.246 63.9981 192.64 63.3235 192.64C62.6489 192.64 62.6489 193.246 61.9715 193.246C61.2969 193.246 61.2969 192.64 60.6223 192.64C59.9477 192.64 59.9477 193.246 59.2703 193.246C58.5957 193.246 58.5957 192.64 57.9211 192.64C57.2465 192.64 57.2465 193.246 56.5691 193.246C55.8945 193.246 55.8945 192.64 55.2199 192.64C54.5453 192.64 54.5453 193.246 53.8707 193.246C53.1961 193.246 53.1961 192.64 52.5215 192.64C51.8469 192.64 51.8469 193.246 51.1695 193.246C50.4949 193.246 50.4949 192.64 49.8203 192.64V190.659H79.5337V192.64H79.5366Z" fill="white" stroke="black" stroke-width="1.4" stroke-miterlimit="10" stroke-linecap="round" stroke-linejoin="round"/>
<path d="M31.9579 179.268L36.5486 162.014C36.5486 162.014 34.7935 163.518 28.4878 162.38C24.6289 161.686 20.0068 159.05 20.0068 159.05C20.0068 159.05 18.389 173.145 17.9631 174.843C16.2366 181.755 16.0708 180.917 14.7188 188.412L43.9262 193.669C48.1081 186.966 44.5265 178.673 31.9579 179.268Z" fill="white" stroke="black" stroke-width="1.4" stroke-miterlimit="10" stroke-linecap="round" stroke-linejoin="round"/>
<path d="M43.6118 195.625C42.9458 195.505 42.84 196.105 42.174 195.985C41.508 195.862 41.6166 195.267 40.9506 195.144C40.2846 195.024 40.176 195.625 39.5128 195.505C38.8468 195.385 38.9554 194.787 38.2923 194.664C37.6291 194.544 37.5205 195.144 36.8545 195.027C36.1884 194.904 36.2971 194.304 35.6339 194.187C34.9679 194.064 34.8621 194.664 34.1961 194.547C33.5301 194.424 33.6387 193.827 32.9756 193.707C32.3096 193.587 32.2038 194.187 31.5378 194.067C30.8746 193.947 30.9804 193.347 30.3172 193.226C29.6541 193.106 29.5455 193.707 28.8794 193.587C28.2163 193.467 28.322 192.869 27.6589 192.749C26.9957 192.629 26.8871 193.229 26.2211 193.106C25.5579 192.989 25.6637 192.389 25.0006 192.269C24.3345 192.149 24.2288 192.749 23.5628 192.629C22.8996 192.509 23.0082 191.912 22.3422 191.789C21.6791 191.669 21.5704 192.269 20.9044 192.149C20.2413 192.029 20.347 191.431 19.6839 191.308C19.0207 191.188 18.9121 191.792 18.2461 191.671C17.5829 191.549 17.6887 190.951 17.0255 190.831C16.3624 190.708 16.2538 191.311 15.5877 191.191C14.9246 191.071 15.0303 190.471 14.3672 190.351L14.7188 188.404L43.9605 193.667L43.6118 195.625Z" fill="white" stroke="black" stroke-width="1.4" stroke-miterlimit="10" stroke-linecap="round" stroke-linejoin="round"/>
<path d="M20.6469 92.9977C24.1199 77.3507 26.6524 66.2542 26.6524 66.2542C20.2867 59.6941 11.7715 63.5959 9.31035 70.5276C6.84924 77.4593 4.27951 90.1879 4.27379 91.8515C4.25378 99.9466 5.07701 112.547 8.03834 114.85L21.1643 114.184C21.9675 110.488 20.1238 95.3559 20.6469 92.9977Z" fill="white" stroke="black" stroke-width="1.4" stroke-miterlimit="10" stroke-linecap="round" stroke-linejoin="round"/>
<path d="M8.04688 114.853L9.1388 120.361L22.2647 119.721L21.1728 114.187L8.04688 114.853Z" fill="white" stroke="black" stroke-width="1.4" stroke-miterlimit="10" stroke-linecap="round" stroke-linejoin="round"/>
<path d="M10.2812 120.124C10.2812 120.124 10.3784 122.005 10.4013 127.182C10.4242 132.358 12.3422 136.037 17.5474 137.026C22.7526 138.015 24.8421 136.209 23.6787 131.427C23.2471 129.66 21.6521 127.305 21.6521 127.305C21.6521 127.305 24.0903 130.603 25.874 129.28C28.3294 127.459 21.6921 122.434 20.0256 119.65L10.2812 120.124Z" fill="white" stroke="black" stroke-width="1.4" stroke-miterlimit="10" stroke-linecap="round" stroke-linejoin="round"/>
<path d="M18.0625 127.667C18.0625 127.667 20.4121 133.953 22.7903 136.56" stroke="black" stroke-width="1.4" stroke-miterlimit="10" stroke-linecap="round" stroke-linejoin="round"/>
<path d="M19.4854 137.272C19.4854 137.272 16.687 135.117 15.4922 128.119" stroke="black" stroke-width="1.4" stroke-miterlimit="10" stroke-linecap="round" stroke-linejoin="round"/>
<path d="M15.7205 136.523C15.7205 136.523 13.0135 132.796 13.1622 127.977" stroke="black" stroke-width="1.4" stroke-miterlimit="10" stroke-linecap="round" stroke-linejoin="round"/>
<path d="M15.6953 43.2583C15.6953 43.2583 17.0531 52.9112 20.3946 56.8987C23.7332 60.8891 15.6553 60.3746 15.8239 62.8471C16.0755 66.4973 29.4444 74.7668 40.5608 75.1898C62.8537 76.0359 69.9083 64.3078 69.9083 64.3078C70.1427 61.3693 66.3839 59.8372 66.3839 59.8372C66.3839 59.8372 67.7245 56.1527 66.3839 53.9889L15.6953 43.2583Z" fill="white" stroke="black" stroke-width="1.4" stroke-miterlimit="10" stroke-linecap="round" stroke-linejoin="round"/>
<path d="M74.9749 30.6838C75.5695 47.66 62.2921 61.9065 45.313 62.501C28.3368 63.0956 14.0903 49.8182 13.4958 32.8391C12.9012 15.8629 26.1786 1.6193 43.1577 1.01903C60.1339 0.427337 74.3775 13.7047 74.9749 30.6838Z" fill="white" stroke="black" stroke-width="1.4" stroke-miterlimit="10" stroke-linecap="round" stroke-linejoin="round"/>
<path d="M42.8369 13.1642C26.6611 25.4927 28.6562 42.0887 28.6562 42.0887C28.6562 42.0887 47.3961 66.0366 71.5098 45.979C71.5098 45.979 77.7012 36.2003 74.9171 24.4551C72.1358 12.704 62.7087 6.38691 62.7087 6.38691C62.7087 6.38691 53.3731 5.14063 42.8369 13.1642Z" fill="black"/>
<path d="M66.9292 52.5163C42.5411 68.5407 24.3672 42.2431 24.3672 42.2431C24.3672 42.2431 26.3195 8.69086 56.4674 3.53711" stroke="black" stroke-width="1.4" stroke-miterlimit="10" stroke-linecap="round" stroke-linejoin="round"/>
<path d="M37.077 25.2696C33.6412 29.7487 32.6007 38.2612 34.9332 39.4788C37.2657 40.6937 37.8374 31.0579 41.4561 27.7593C45.2607 24.2977 40.5472 20.7447 37.077 25.2696Z" fill="white"/>
<path d="M42.1687 17.1202C40.9824 17.6976 40.4736 19.1697 41.051 20.3531L41.1654 20.5846C41.7428 21.7709 43.2148 22.2797 44.4011 21.7023C45.5873 21.1249 46.0933 19.6499 45.5159 18.4665L45.4015 18.235C44.8299 17.0487 43.3578 16.5399 42.1687 17.1202Z" fill="white"/>
<path d="M67.3943 42.4776C67.0313 41.8259 66.2166 41.5801 65.6049 42.0775C63.927 43.4381 57.2955 46.428 59.1191 49.4408C60.5112 51.7418 63.0323 50.527 64.9217 48.5947C67.0799 47.1312 68.6806 44.813 67.3943 42.4776Z" fill="white"/>
<path d="M19.2144 41.4115C15.8158 39.8937 11.8597 35.1744 10.8249 29.3461C10.0789 25.1442 12.317 21.2396 15.0154 22.1171C15.0154 22.1171 11.7196 32.8991 21.9785 37.5984L19.2144 41.4115Z" fill="white" stroke="black" stroke-width="1.4" stroke-miterlimit="10" stroke-linecap="round" stroke-linejoin="round"/>
<path d="M29.5193 41.3859C29.9938 44.2301 28.0701 46.9199 25.2259 47.3915C22.3818 47.866 19.6948 45.9451 19.2203 43.0981C18.7458 40.2569 20.6696 37.5671 23.5137 37.0954C26.3579 36.6209 29.0448 38.5418 29.5193 41.3859Z" fill="white" stroke="black" stroke-width="1.4" stroke-miterlimit="10" stroke-linecap="round" stroke-linejoin="round"/>
<path d="M26.5613 41.8778C26.7643 43.0897 25.9439 44.2331 24.7348 44.4361C23.5257 44.639 22.3823 43.8186 22.1794 42.6095C21.9764 41.4004 22.7939 40.257 24.0059 40.0541C25.215 39.8483 26.3584 40.6687 26.5613 41.8778Z" fill="white" stroke="black" stroke-width="1.4" stroke-miterlimit="10" stroke-linecap="round" stroke-linejoin="round"/>
<path d="M20.9141 57.6934C20.9141 57.6934 30.3297 69.8903 46.2169 69.4215" stroke="black" stroke-width="1.4" stroke-miterlimit="10" stroke-linecap="round" stroke-linejoin="round"/>
<path d="M66.3843 59.8374C66.3843 59.8374 60.8618 65.8487 55.4766 67.5494" stroke="black" stroke-width="1.4" stroke-miterlimit="10" stroke-linecap="round" stroke-linejoin="round"/>
<path d="M66.9201 78.2937C66.9201 78.2937 65.1679 76.1756 61.4319 76.7502C57.6988 77.3276 38.3015 80.3232 38.3015 80.3232C36.7379 80.3232 35.4688 81.5895 35.4688 83.1559V108.939C35.4688 110.503 36.7379 111.772 38.3015 111.772L64.0845 107.79C64.8591 107.79 67.346 104.966 67.346 104.966L66.9201 78.2937Z" fill="white" stroke="black" stroke-width="1.4" stroke-miterlimit="10" stroke-linecap="round" stroke-linejoin="round"/>
<path d="M68.0044 103.277C68.0044 104.669 66.8782 105.795 65.4861 105.795L42.573 109.331C41.1809 109.331 40.0547 108.205 40.0547 106.815V83.9023C40.0547 82.5131 41.1809 81.3869 42.573 81.3869L65.4861 77.8481C66.8753 77.8481 68.0044 78.9743 68.0044 80.3664V103.277Z" fill="white" stroke="black" stroke-width="1.4" stroke-miterlimit="10" stroke-linecap="round" stroke-linejoin="round"/>
<path d="M36.9531 110.715L40.6948 108.479" stroke="black" stroke-width="1.4" stroke-miterlimit="10" stroke-linecap="round" stroke-linejoin="round"/>
<path d="M36.2578 81.2009L40.3625 82.7073" stroke="black" stroke-width="1.4" stroke-miterlimit="10" stroke-linecap="round" stroke-linejoin="round"/>
<path d="M86.1573 83.4175L86.1572 83.4178L80.9773 122.742L80.8467 123.733L81.8382 123.864L98.606 126.072L100.066 126.264L99.7062 124.836C99.4193 123.698 99.4155 122.466 99.7942 121.214C100.678 118.315 103.467 116.323 106.489 116.441L106.489 116.441C110.529 116.596 113.468 120.166 112.952 124.078L112.952 124.078C112.837 124.946 112.558 125.752 112.152 126.48L111.434 127.766L112.894 127.959L129.662 130.167L130.654 130.298L130.784 129.306L132.813 113.908C133.819 114.25 134.92 114.42 136.1 114.347L136.101 114.347C140.217 114.09 143.687 110.928 144.262 106.828C144.939 102.004 141.554 97.5608 136.734 96.9266C136.165 96.8511 135.605 96.8366 135.059 96.8729L137.088 81.4745L137.218 80.4831L136.227 80.3525L96.907 75.1726C96.9069 75.1726 96.9069 75.1726 96.9068 75.1726C91.6594 74.4805 86.8493 78.175 86.1573 83.4175Z" fill="#A79CEE" stroke="black" stroke-width="2"/>
</svg>
