<svg width="131" height="195" viewBox="0 0 131 195" fill="none" xmlns="http://www.w3.org/2000/svg">
<g clip-path="url(#clip0_2192_34979)">
<path d="M20.4661 63.2573C20.4661 63.2573 0.637736 66.1831 1.15852 88.8604C1.68895 111.538 -0.992126 122.439 23.369 125.375C37.9654 127.132 51.8192 97.2371 46.322 78.8036C42.6428 66.4534 20.4661 63.2573 20.4661 63.2573Z" fill="white" stroke="black" stroke-width="1.4" stroke-miterlimit="10" stroke-linecap="round" stroke-linejoin="round"/>
<path d="M79.4594 87.8466C79.4594 87.8466 73.533 64.812 66.0154 65.7438C56.5401 66.9219 54.428 76.4911 58.657 82.9172C62.8907 89.3433 69.6127 101.336 73.8802 104.093C78.1381 106.85 100.99 96.5613 102.34 92.8726L97.4939 80.0059C93.5543 80.3921 79.4594 87.8466 79.4594 87.8466Z" fill="white" stroke="black" stroke-width="1.4" stroke-miterlimit="10" stroke-linecap="round" stroke-linejoin="round"/>
<path d="M102.338 92.8773L107.474 90.0287L102.652 77.1523L97.4922 80.0105L102.338 92.8773Z" fill="white" stroke="black" stroke-width="1.4" stroke-miterlimit="10" stroke-linecap="round" stroke-linejoin="round"/>
<path d="M106.875 88.967C106.875 88.967 108.717 88.2718 113.862 86.5916C119.012 84.9163 122.06 81.8311 121.38 76.3272C120.705 70.828 118.24 69.3217 113.852 72.0061C112.232 73.0006 110.395 75.3422 110.395 75.3422C110.395 75.3422 112.902 71.8612 111.017 70.5045C108.423 68.6361 105.539 76.8583 103.297 79.4075L106.875 88.967Z" fill="white" stroke="black" stroke-width="1.4" stroke-miterlimit="10" stroke-linecap="round" stroke-linejoin="round"/>
<path d="M111.906 78.7991C111.906 78.7991 117.408 74.4539 119.25 71.248" stroke="black" stroke-width="1.4" stroke-miterlimit="10" stroke-linecap="round" stroke-linejoin="round"/>
<path d="M121.013 74.3184C121.013 74.3184 119.759 77.7946 113.172 81.2176" stroke="black" stroke-width="1.4" stroke-miterlimit="10" stroke-linecap="round" stroke-linejoin="round"/>
<path d="M121.46 78.3116C121.46 78.3116 118.62 82.203 113.773 83.5887" stroke="black" stroke-width="1.4" stroke-miterlimit="10" stroke-linecap="round" stroke-linejoin="round"/>
<path d="M73.1674 114.787C75.3904 97.0825 78.4186 66.2409 67.3713 61.3984C61.064 58.6319 29.7784 58.7092 29.7784 58.7092C29.7784 58.7092 27.7049 60.259 23.0661 62.9241C10.3069 70.2579 14.8541 113.802 17.1687 121.469C19.4784 129.136 40.7679 146.049 41.2983 148.265C41.8239 150.481 34.938 172.733 34.938 172.733L42.933 177.262C42.933 177.262 59.4679 152.137 58.8507 144.016C58.2334 135.895 51.0582 127.591 51.0582 127.591C51.0582 127.591 70.0716 140.53 70.496 142.959C71.2627 147.304 64.2659 166.37 64.2659 166.37L77.0154 169.938C77.0154 169.938 85.753 148.352 87.1321 138.662C88.2316 130.951 72.5116 120.011 73.1674 114.787Z" fill="white" stroke="black" stroke-width="1.4" stroke-miterlimit="10" stroke-linecap="round" stroke-linejoin="round"/>
<path d="M78.9575 167.775L81.3685 161.18C78.2487 161.03 75.1095 160.388 72.5152 159.722C70.3646 159.167 68.0114 158.394 65.9331 157.255C65.4316 159.481 65.0024 161.296 64.8192 161.837C62.3696 168.876 62.2683 167.983 60.1562 175.664L90.0579 183.915C95.0343 177.33 92.0928 168.35 78.9575 167.775Z" fill="white" stroke="black" stroke-width="1.4" stroke-miterlimit="10" stroke-linecap="round" stroke-linejoin="round"/>
<path d="M89.5358 185.929C88.8559 185.74 88.6823 186.354 88.0024 186.165C87.3225 185.982 87.4913 185.364 86.8065 185.176C86.1314 184.987 85.9579 185.6 85.2779 185.417C84.598 185.229 84.7668 184.615 84.0821 184.427C83.407 184.239 83.2334 184.857 82.5535 184.669C81.8736 184.48 82.0423 183.862 81.3576 183.679C80.6777 183.491 80.5089 184.104 79.8242 183.92C79.1443 183.732 79.313 183.119 78.6331 182.93C77.9532 182.742 77.7844 183.355 77.1045 183.167C76.4246 182.979 76.5934 182.366 75.9135 182.177C75.2336 181.989 75.0648 182.602 74.3849 182.419C73.7001 182.23 73.8737 181.617 73.189 181.429C72.5139 181.241 72.3403 181.854 71.6604 181.67C70.9805 181.482 71.1493 180.869 70.4645 180.681C69.7846 180.492 69.6159 181.11 68.9359 180.922C68.256 180.734 68.42 180.121 67.7401 179.932C67.065 179.744 66.8914 180.357 66.2163 180.169C65.5364 179.981 65.7003 179.367 65.0204 179.179C64.3453 178.991 64.1717 179.604 63.4966 179.416C62.8167 179.227 62.9807 178.614 62.3056 178.426C61.6257 178.238 61.4521 178.856 60.777 178.667C60.0971 178.479 60.2658 177.866 59.5859 177.678L60.1357 175.684L90.0663 183.944L89.5358 185.929Z" fill="white" stroke="black" stroke-width="1.4" stroke-miterlimit="10" stroke-linecap="round" stroke-linejoin="round"/>
<path d="M47.0825 174.182L50.998 167.157C49.7057 166.882 48.5147 166.553 47.6129 166.298C43.3406 165.076 39.5794 163.309 36.3004 160.673C35.2781 163.261 34.3715 165.496 34.0484 166.085C30.5187 172.646 30.5669 171.753 27.2734 179.005L55.497 191.877C61.4523 186.155 59.9623 176.823 47.0825 174.182Z" fill="white" stroke="black" stroke-width="1.4" stroke-miterlimit="10" stroke-linecap="round" stroke-linejoin="round"/>
<path d="M54.6677 193.774C54.0264 193.484 53.7612 194.059 53.1199 193.769C52.4737 193.475 52.7389 192.895 52.0976 192.601C51.4514 192.306 51.191 192.891 50.5497 192.596C49.9035 192.306 50.1688 191.722 49.5274 191.428C48.8909 191.133 48.6209 191.713 47.9795 191.423C47.343 191.128 47.6034 190.549 46.9572 190.255C46.3159 189.96 46.0555 190.539 45.4094 190.25C44.768 189.955 45.0381 189.376 44.3919 189.081C43.7506 188.792 43.4854 189.371 42.844 189.081C42.2027 188.787 42.4679 188.203 41.8266 187.913C41.1901 187.623 40.92 188.203 40.2787 187.908C39.6422 187.614 39.9026 187.034 39.2612 186.74C38.6199 186.45 38.3547 187.029 37.7133 186.735C37.072 186.44 37.3372 185.861 36.6959 185.566C36.0497 185.272 35.7845 185.851 35.148 185.562C34.5018 185.267 34.767 184.688 34.1257 184.393C33.4844 184.104 33.2192 184.683 32.5778 184.388C31.9413 184.099 32.2017 183.515 31.5604 183.22C30.919 182.926 30.6538 183.51 30.0125 183.215C29.3712 182.921 29.6364 182.341 28.995 182.047C28.3489 181.752 28.0885 182.337 27.4471 182.042C26.8058 181.752 27.0662 181.168 26.4297 180.878L27.288 178.991L55.5454 191.882L54.6677 193.774Z" fill="white" stroke="black" stroke-width="1.4" stroke-miterlimit="10" stroke-linecap="round" stroke-linejoin="round"/>
<path d="M70.0499 82.0239C70.0499 82.0239 68.2127 79.8078 64.3117 80.4113C60.4106 81.0148 40.1434 84.1482 40.1434 84.1482C38.5039 84.1482 37.1875 85.4759 37.1875 87.1126V114.092C37.1875 115.728 38.5039 117.056 40.1434 117.056L67.0844 112.89C67.8993 112.89 70.4984 109.935 70.4984 109.935L70.0499 82.0239Z" fill="white" stroke="black" stroke-width="1.4" stroke-miterlimit="10" stroke-linecap="round" stroke-linejoin="round"/>
<path d="M71.1839 108.163C71.1839 109.616 70.0073 110.799 68.551 110.799L44.6046 114.502C43.1531 114.502 41.9766 113.319 41.9766 111.866V87.89C41.9766 86.4319 43.1531 85.2539 44.6046 85.2539L68.551 81.5508C70.0073 81.5508 71.1839 82.7288 71.1839 84.1869V108.163Z" fill="white" stroke="black" stroke-width="1.4" stroke-miterlimit="10" stroke-linecap="round" stroke-linejoin="round"/>
<path d="M38.7188 115.946L42.6343 113.609" stroke="black" stroke-width="1.4" stroke-miterlimit="10" stroke-linecap="round" stroke-linejoin="round"/>
<path d="M38 85.0704L42.2916 86.6444" stroke="black" stroke-width="1.4" stroke-miterlimit="10" stroke-linecap="round" stroke-linejoin="round"/>
<path d="M22.606 71.1223C13.5309 68.1385 9.02707 77.5243 10.112 85.1429C11.197 92.7616 17.3162 111.316 19.9153 113.662C22.5048 116.009 46.3017 114.44 48.6404 111.282L47.6133 97.5655C43.7267 96.822 30.3937 100.39 29.9211 98.6373C29.6704 97.7103 27.6355 90.0337 25.7741 83.0234" fill="white"/>
<path d="M22.606 71.1223C13.5309 68.1385 9.02707 77.5243 10.112 85.1429C11.197 92.7616 17.3162 111.316 19.9153 113.662C22.5048 116.009 46.3017 114.44 48.6404 111.282L47.6133 97.5655C43.7267 96.822 30.3937 100.39 29.9211 98.6373C29.6704 97.7103 27.6354 90.0337 25.7741 83.0234" stroke="black" stroke-width="1.4" stroke-miterlimit="10" stroke-linecap="round" stroke-linejoin="round"/>
<path d="M48.6443 111.282L54.3729 110.003L53.3796 96.2861L47.6172 97.5656L48.6443 111.282Z" fill="white" stroke="black" stroke-width="1.4" stroke-miterlimit="10" stroke-linecap="round" stroke-linejoin="round"/>
<path d="M54.0972 108.81C54.0972 108.81 56.0597 108.66 61.4653 108.51C66.8756 108.361 70.6706 106.261 71.5723 100.795C72.4741 95.3251 70.5404 93.1863 65.5737 94.5236C63.7317 95.0209 61.311 96.7494 61.311 96.7494C61.311 96.7494 64.6961 94.1181 63.2687 92.2834C61.3062 89.7632 56.2237 96.8266 53.3594 98.6419L54.0972 108.81Z" fill="white" stroke="black" stroke-width="1.4" stroke-miterlimit="10" stroke-linecap="round" stroke-linejoin="round"/>
<path d="M61.7812 100.482C61.7812 100.482 68.2814 97.87 70.948 95.3159" stroke="black" stroke-width="1.4" stroke-miterlimit="10" stroke-linecap="round" stroke-linejoin="round"/>
<path d="M71.786 98.7578C71.786 98.7578 69.6016 101.737 62.3203 103.161" stroke="black" stroke-width="1.4" stroke-miterlimit="10" stroke-linecap="round" stroke-linejoin="round"/>
<path d="M71.0865 102.717C71.0865 102.717 67.2626 105.643 62.2188 105.604" stroke="black" stroke-width="1.4" stroke-miterlimit="10" stroke-linecap="round" stroke-linejoin="round"/>
<path d="M16.5 45.3643C16.5 45.3643 17.9177 55.4645 21.404 59.636C24.8952 63.8122 16.4518 63.2715 16.6302 65.8593C16.8906 69.6783 30.865 78.3302 42.4813 78.7743C65.7816 79.6627 73.1497 67.3946 73.1497 67.3946C73.3956 64.3192 69.4705 62.7114 69.4705 62.7114C69.4705 62.7114 70.8689 58.8586 69.4705 56.5895L16.5 45.3643Z" fill="white" stroke="black" stroke-width="1.4" stroke-miterlimit="10" stroke-linecap="round" stroke-linejoin="round"/>
<path d="M78.4443 32.2033C79.0712 49.9656 65.1884 64.8747 47.4528 65.4975C29.7124 66.1203 14.8267 52.2252 14.1998 34.458C13.5778 16.7004 27.4509 1.7914 45.1913 1.16858C62.9365 0.545765 77.8222 14.4409 78.4443 32.2033Z" fill="white" stroke="black" stroke-width="1.4" stroke-miterlimit="10" stroke-linecap="round" stroke-linejoin="round"/>
<path d="M44.8654 13.8757C27.9592 26.7762 30.0424 44.1427 30.0424 44.1427C30.0424 44.1427 49.6248 69.2003 74.8346 48.2128C74.8346 48.2128 81.2962 37.9821 78.3885 25.6899C75.4856 13.3977 65.6341 6.78328 65.6341 6.78328C65.6341 6.78328 55.8694 5.47488 44.8654 13.8757Z" fill="#101210"/>
<path d="M70.0461 55.0495C44.5566 71.8222 25.5625 44.3023 25.5625 44.3023C25.5625 44.3023 27.6022 9.19756 59.1097 3.7998" stroke="black" stroke-width="1.4" stroke-miterlimit="10" stroke-linecap="round" stroke-linejoin="round"/>
<path d="M38.8467 26.54C35.2543 31.2281 34.1693 40.1358 36.6093 41.4104C39.0444 42.685 39.6424 32.5992 43.4325 29.1472C47.4011 25.5262 42.4729 21.8086 38.8467 26.54Z" fill="white"/>
<path d="M44.166 18.0137C42.9268 18.6172 42.3963 20.1574 42.9991 21.3982L43.1148 21.6396C43.7176 22.8804 45.2558 23.4115 46.4951 22.808C47.7344 22.2045 48.2648 20.6643 47.6572 19.4235L47.5415 19.1821C46.9436 17.9413 45.4005 17.4054 44.166 18.0137Z" fill="white"/>
<path d="M70.5288 44.5485C70.1527 43.8678 69.2991 43.6071 68.6626 44.1285C66.9122 45.5528 59.9781 48.6814 61.8828 51.8341C63.3391 54.2433 65.9719 52.9735 67.9441 50.9505C70.2009 49.4152 71.8741 46.9915 70.5288 44.5485Z" fill="white"/>
<path d="M20.1815 43.4333C16.6276 41.8449 12.4951 36.9058 11.4101 30.808C10.629 26.4096 12.9677 22.3251 15.7886 23.2424C15.7886 23.2424 12.3505 34.5256 23.0699 39.4453L20.1815 43.4333Z" fill="white" stroke="black" stroke-width="1.4" stroke-miterlimit="10" stroke-linecap="round" stroke-linejoin="round"/>
<path d="M30.9475 43.4045C31.4441 46.3834 29.4333 49.1934 26.4629 49.6907C23.4877 50.1879 20.6765 48.1747 20.1846 45.2006C19.6879 42.2265 21.7036 39.4117 24.6691 38.9145C27.6395 38.4172 30.4508 40.4256 30.9475 43.4045Z" fill="white" stroke="black" stroke-width="1.4" stroke-miterlimit="10" stroke-linecap="round" stroke-linejoin="round"/>
<path d="M27.8507 43.9214C28.0629 45.1863 27.2094 46.3837 25.946 46.5961C24.6826 46.8085 23.4867 45.9491 23.2745 44.6842C23.0624 43.4192 23.9159 42.2171 25.1793 42.0094C26.4475 41.797 27.6385 42.6516 27.8507 43.9214Z" fill="white" stroke="black" stroke-width="1.4" stroke-miterlimit="10" stroke-linecap="round" stroke-linejoin="round"/>
<path d="M21.9531 60.4668C21.9531 60.4668 31.7902 73.2273 48.3974 72.7349" stroke="black" stroke-width="1.4" stroke-miterlimit="10" stroke-linecap="round" stroke-linejoin="round"/>
<path d="M69.4805 62.7119C69.4805 62.7119 63.7085 69.0029 58.0859 70.7796" stroke="black" stroke-width="1.4" stroke-miterlimit="10" stroke-linecap="round" stroke-linejoin="round"/>
<g clip-path="url(#clip1_2192_34979)">
<path fill-rule="evenodd" clip-rule="evenodd" d="M127.605 41.2572C126.592 39.7034 124.57 38.5123 122.395 38.1329C118.11 37.3888 114.515 38.6626 112.32 41.5721C109.472 45.3522 110.61 50.2127 112.471 52.8097C111.251 53.1667 110.453 55.7279 111.131 56.9893C111.705 57.3663 112.556 57.5614 113.293 57.83C112.912 65.1063 111.78 73.5171 111.369 80.9434C111.224 83.5085 110.909 86.1571 111.31 88.3338C111.439 89.0293 111.754 90.0136 112.525 90.259C114.892 91.0194 115.993 86.4386 116.477 84.5748C118.648 76.2435 120.813 67.295 123.205 59.6524C125.461 59.9878 126.664 56.8104 125.556 55.1365C126.716 54.2521 127.768 53.0429 128.345 51.6565C129.875 47.9662 129.055 43.4833 127.605 41.2572Z" fill="#152B29"/>
<path fill-rule="evenodd" clip-rule="evenodd" d="M121.899 39.0927C121.743 39.3403 121.432 39.3573 121.269 39.6067C120.97 39.4587 120.917 39.138 120.532 39.0419C120.773 38.7362 121.421 39.0443 121.899 39.0927Z" fill="white"/>
<path fill-rule="evenodd" clip-rule="evenodd" d="M122.292 40.861C122.055 40.4864 121.75 40.1583 121.431 39.8481C121.814 38.8346 123.809 39.2666 123.71 40.0761C123.666 40.4791 122.662 40.5846 122.292 40.861Z" fill="white"/>
<path fill-rule="evenodd" clip-rule="evenodd" d="M120.815 39.7315C120.487 40.2914 119.835 40.3815 119.438 40.8407C118.984 40.5296 118.794 40.0403 118.271 39.7694C118.812 38.629 120.307 38.6153 120.815 39.7315Z" fill="white"/>
<path fill-rule="evenodd" clip-rule="evenodd" d="M118.656 38.8905C118.909 39.2738 117.666 39.7385 117.679 39.0218C118.056 39.046 118.388 39.0093 118.656 38.8905Z" fill="white"/>
<path fill-rule="evenodd" clip-rule="evenodd" d="M126.002 41.369C125.99 41.6955 125.676 41.5857 125.595 41.8177C125.059 41.4095 124.726 40.8679 124.286 40.3979C124.864 40.0536 125.337 41.1869 126.002 41.369Z" fill="white"/>
<path fill-rule="evenodd" clip-rule="evenodd" d="M125.151 41.9424C124.852 42.4135 124.353 42.5931 123.997 42.9864C123.359 42.5274 123.177 41.7666 122.641 41.244C122.902 40.7572 123.532 40.8216 123.86 40.4231C124.475 40.8016 124.737 41.4243 125.151 41.9424Z" fill="white"/>
<path fill-rule="evenodd" clip-rule="evenodd" d="M117.765 39.6685C117.08 40.4541 116.427 41.0019 115.71 39.9065C116.28 39.5784 117.19 38.8277 117.765 39.6685Z" fill="white"/>
<path fill-rule="evenodd" clip-rule="evenodd" d="M122.049 41.0257C121.606 41.4648 121.016 41.6778 120.571 42.1107C120.157 41.8889 120.035 41.4737 119.692 41.1973C120.299 40.1452 121.442 39.8241 122.049 41.0257Z" fill="white"/>
<path fill-rule="evenodd" clip-rule="evenodd" d="M118.974 41.0643C118.715 41.5102 118.242 41.6418 117.944 42.025C117.497 41.7386 117.24 41.3163 116.877 40.9717C117.451 39.761 118.554 39.8553 118.974 41.0643Z" fill="white"/>
<path fill-rule="evenodd" clip-rule="evenodd" d="M127.276 43.5189C127.196 43.7509 126.915 43.6853 126.788 43.8502C126.398 43.3453 126.182 42.7222 125.719 42.2656C126.544 40.968 126.847 42.9716 127.276 43.5189Z" fill="white"/>
<path fill-rule="evenodd" clip-rule="evenodd" d="M115.371 40.0473C115.775 40.2789 115.963 40.6476 116.25 40.9607C115.914 41.4222 115.549 41.852 115.08 42.1104C114.619 41.9828 114.588 41.5546 114.161 41.4038C114.436 40.7582 115.024 40.586 115.371 40.0473Z" fill="white"/>
<path fill-rule="evenodd" clip-rule="evenodd" d="M122.19 41.3683C122.717 41.9539 123.247 42.5458 123.504 43.3114C123.024 43.6 122.644 44.0476 122.145 44.3212C121.926 43.6183 120.63 43.002 120.706 42.4551C120.802 41.8887 121.885 41.9822 122.19 41.3683Z" fill="white"/>
<path fill-rule="evenodd" clip-rule="evenodd" d="M126.467 43.8914C126.144 44.3759 125.549 44.4559 125.213 44.9174C124.68 44.542 124.455 43.9554 124.123 43.4404C124.41 42.9055 125.019 42.8485 125.376 42.4144C125.92 42.7799 126.124 43.3862 126.467 43.8914Z" fill="white"/>
<path fill-rule="evenodd" clip-rule="evenodd" d="M119.242 41.3298C119.603 41.6212 119.816 42.003 120.103 42.3427C119.88 42.8452 119.301 42.8195 119.073 43.3035C118.618 43.0801 118.51 42.6205 118.089 42.3738C118.394 41.901 118.893 41.7214 119.242 41.3298Z" fill="white"/>
<path fill-rule="evenodd" clip-rule="evenodd" d="M116.509 41.22C116.895 41.5511 117.168 41.9556 117.576 42.2733C117.233 42.7304 116.765 42.995 116.406 43.4229C115.871 43.2231 115.756 42.7387 115.323 42.4753C115.646 41.95 116.104 41.6278 116.509 41.22Z" fill="white"/>
<path fill-rule="evenodd" clip-rule="evenodd" d="M127.196 43.9266C127.706 44.1744 127.541 44.8753 127.652 45.3944C127.456 44.9539 126.673 44.3016 127.196 43.9266Z" fill="white"/>
<path fill-rule="evenodd" clip-rule="evenodd" d="M120.348 42.7073C120.898 43.2795 121.365 43.9099 121.785 44.5671C121.526 45.0601 121.073 45.2598 120.733 45.6353C120.207 44.9885 119.726 44.3085 119.212 43.6518C119.526 43.2303 119.992 43.0536 120.348 42.7073Z" fill="white"/>
<path fill-rule="evenodd" clip-rule="evenodd" d="M113.811 41.5461C114.187 41.8196 114.458 42.1709 114.796 42.4757C114.576 42.8966 114.221 43.1081 113.966 43.4787C113.56 43.3083 113.329 43.0259 112.923 42.8554C113.02 42.1275 113.575 42.0726 113.811 41.5461Z" fill="white"/>
<path fill-rule="evenodd" clip-rule="evenodd" d="M123.774 43.5825C124.129 44.084 124.589 44.5078 124.741 45.1428C124.215 45.4113 123.746 45.7636 123.281 46.1284C122.898 45.7361 122.65 45.2569 122.38 44.7912C122.693 44.1613 123.349 44.0366 123.774 43.5825Z" fill="white"/>
<path fill-rule="evenodd" clip-rule="evenodd" d="M118.608 43.5268C118.288 44.0175 117.784 44.2256 117.432 44.6783C117.044 44.4084 116.773 44.0571 116.571 43.6654C117.101 42.6963 118.138 42.3324 118.608 43.5268Z" fill="white"/>
<path fill-rule="evenodd" clip-rule="evenodd" d="M127.436 45.9766C127.14 46.4601 126.651 46.6504 126.282 47.0208C125.899 46.4263 125.503 45.8292 125.273 45.1361C125.713 44.9133 126.117 44.6402 126.487 44.3168C127.046 44.7115 127.115 45.4313 127.436 45.9766Z" fill="white"/>
<path fill-rule="evenodd" clip-rule="evenodd" d="M114.958 42.7185C115.841 43.254 116.285 43.9918 115.236 44.5679C114.794 44.3676 114.574 44.008 114.233 43.7378C114.395 43.28 114.767 43.1242 114.958 42.7185Z" fill="white"/>
<path fill-rule="evenodd" clip-rule="evenodd" d="M120.37 45.8832C120.119 46.4276 119.572 46.5339 119.299 47.0509C118.546 46.4977 118.27 45.6231 117.578 45.0251C117.97 44.5943 118.437 44.2827 118.855 43.8979C119.469 44.4786 119.962 45.1549 120.37 45.8832Z" fill="white"/>
<path fill-rule="evenodd" clip-rule="evenodd" d="M124.903 45.3838C125.475 45.8219 125.419 46.6861 125.812 47.2505C125.515 47.7747 124.921 47.8609 124.636 48.4019C124.479 48.1856 123.35 46.9482 123.403 46.5763C123.495 45.9708 124.534 45.983 124.903 45.3838Z" fill="white"/>
<path fill-rule="evenodd" clip-rule="evenodd" d="M112.66 43.1211C113.089 43.278 113.207 43.6339 113.579 43.8275C113.172 44.2293 112.978 44.9454 112.384 45.0787C112.122 44.5499 112.483 43.7378 112.66 43.1211Z" fill="white"/>
<path fill-rule="evenodd" clip-rule="evenodd" d="M121.931 44.9156C122.41 45.2665 122.487 45.8967 122.94 46.2752C122.68 46.7212 122.231 46.8863 121.91 47.236C121.375 46.9484 121.318 46.3394 120.884 45.982C121.134 45.4785 121.654 45.3732 121.931 44.9156Z" fill="white"/>
<path fill-rule="evenodd" clip-rule="evenodd" d="M116.086 43.9948C117.05 44.4864 117.195 45.164 116.281 45.7206C115.84 45.5469 115.77 45.1234 115.38 44.9147C115.507 44.4536 115.929 44.4243 116.086 43.9948Z" fill="white"/>
<path fill-rule="evenodd" clip-rule="evenodd" d="M127.868 47.019C127.654 47.5322 127.253 47.7707 126.997 48.2291C126.575 48.0969 126.599 47.6728 126.418 47.3759C126.77 46.8557 127.706 45.9361 127.868 47.019Z" fill="white"/>
<path fill-rule="evenodd" clip-rule="evenodd" d="M113.852 44.0911C114.169 44.3481 114.465 44.6247 114.753 44.897C114.476 45.4895 113.931 45.6959 113.64 46.2654C113.203 46.057 112.962 45.717 112.761 45.352C113.076 44.8631 113.46 44.4749 113.852 44.0911Z" fill="white"/>
<path fill-rule="evenodd" clip-rule="evenodd" d="M117.215 45.267C117.935 45.8435 118.34 46.633 118.936 47.2927C118.726 47.6772 118.305 47.7534 118.131 48.1944C117.471 47.5466 117.025 46.7556 116.427 46.0692C116.638 45.7318 116.977 45.5789 117.215 45.267Z" fill="white"/>
<path fill-rule="evenodd" clip-rule="evenodd" d="M115.022 45.1627C115.285 45.4626 115.566 45.7367 115.8 46.0519C115.624 46.5337 115.178 46.6172 114.97 47.0549C114.41 47.0237 114.155 46.7752 113.786 46.6143C114.109 45.995 114.6 45.6292 115.022 45.1627Z" fill="white"/>
<path fill-rule="evenodd" clip-rule="evenodd" d="M121.438 47.4613C121.224 48.0622 120.679 48.1747 120.368 48.629C119.833 48.3414 119.776 47.7324 119.342 47.375C119.7 46.9408 120.127 46.6074 120.512 46.2253C120.989 46.5231 121.164 47.0302 121.438 47.4613Z" fill="white"/>
<path fill-rule="evenodd" clip-rule="evenodd" d="M123.059 46.7172C123.568 47.2612 123.867 47.9406 124.292 48.5428C123.456 49.7767 122.552 48.4332 122.13 47.7023C122.293 47.1567 122.789 47.1056 123.059 46.7172Z" fill="white"/>
<path fill-rule="evenodd" clip-rule="evenodd" d="M125.961 47.5995C126.23 47.8302 126.355 48.1639 126.54 48.4527C126.062 48.7945 125.32 48.7424 124.668 48.8324C124.966 48.2204 125.549 48.0296 125.961 47.5995Z" fill="white"/>
<path fill-rule="evenodd" clip-rule="evenodd" d="M115.937 46.4001C116.666 46.6173 116.513 47.429 117.046 47.7777C116.491 47.9737 115.969 47.3863 115.331 47.3442C115.39 46.809 115.834 46.854 115.937 46.4001Z" fill="white"/>
<path fill-rule="evenodd" clip-rule="evenodd" d="M122.403 49.022C121.823 48.9493 121.306 48.973 120.653 48.7873C121.181 47.8322 122.247 47.7962 122.403 49.022Z" fill="white"/>
<path fill-rule="evenodd" clip-rule="evenodd" d="M119.825 48.7356C119.307 48.6449 119.012 48.3948 118.417 48.3605C118.8 47.2324 119.741 47.8722 119.825 48.7356Z" fill="white"/>
<path fill-rule="evenodd" clip-rule="evenodd" d="M111.893 46.5621C112.28 46.7113 112.37 47.0682 112.713 47.2505C112.681 47.5088 112.494 47.5366 112.413 47.7217C112.046 47.4996 111.496 47.0214 111.893 46.5621Z" fill="white"/>
<path fill-rule="evenodd" clip-rule="evenodd" d="M126.369 51.4887C126.076 51.2448 125.957 50.8828 125.815 50.5342C126.191 49.7042 127.504 49.2932 127.465 50.2195C127.443 50.7643 126.651 50.9556 126.369 51.4887Z" fill="white"/>
<path fill-rule="evenodd" clip-rule="evenodd" d="M114.056 47.9337C113.927 48.4357 113.592 48.648 113.331 48.953C112.954 48.7 112.76 48.3331 112.569 47.9582C112.832 47.1547 113.383 47.8413 114.056 47.9337Z" fill="white"/>
<path fill-rule="evenodd" clip-rule="evenodd" d="M125.153 50.087C125.182 50.1861 125.211 50.2853 125.318 50.3281C125.069 50.7439 124.671 50.9478 124.388 51.3132C124.205 50.9631 123.904 50.6945 123.851 50.2593C124.226 50.1159 124.694 50.1067 125.153 50.087Z" fill="white"/>
<path fill-rule="evenodd" clip-rule="evenodd" d="M111.792 47.6065C112.054 47.8798 112.195 48.2018 111.84 48.4604C111.627 48.3074 111.718 47.9511 111.792 47.6065Z" fill="white"/>
<path fill-rule="evenodd" clip-rule="evenodd" d="M114.442 48.1163C115.194 48.6429 115.524 49.448 116.064 50.124C115.858 50.7763 115.325 50.9526 115.059 51.5148C114.462 50.8285 114.076 49.9927 113.479 49.3063C113.765 48.8593 114.144 48.5465 114.442 48.1163Z" fill="white"/>
<path fill-rule="evenodd" clip-rule="evenodd" d="M115.399 48.6223C115.936 48.4113 116.457 48.9721 117.132 48.9563C117.029 49.4573 116.609 49.4927 116.425 49.8762C115.924 49.5654 115.81 48.9931 115.399 48.6223Z" fill="white"/>
<path fill-rule="evenodd" clip-rule="evenodd" d="M117.522 49.1384C118.065 49.363 118.59 49.593 118.707 50.1102C118.382 50.6763 117.882 50.9908 117.495 51.4606C117.112 51.0949 116.95 50.5841 116.569 50.2246C116.871 49.8334 117.22 49.5296 117.522 49.1384Z" fill="white"/>
<path fill-rule="evenodd" clip-rule="evenodd" d="M124.029 51.561C123.597 51.8555 123.243 52.7393 122.857 52.7044C122.307 52.6635 122.328 51.6549 121.872 51.2435C122.322 49.8402 123.896 50.3484 124.029 51.561Z" fill="white"/>
<path fill-rule="evenodd" clip-rule="evenodd" d="M125.445 50.7758C125.919 50.8996 125.741 51.4631 126.124 51.6469C125.867 52.0584 125.462 52.2375 125.194 52.6321C124.737 52.47 124.824 51.9399 124.534 51.6615C124.822 51.335 125.164 51.1004 125.445 50.7758Z" fill="white"/>
<path fill-rule="evenodd" clip-rule="evenodd" d="M127.183 51.1164C127.244 51.3476 126.944 52.162 126.56 52.16C126.435 51.6649 126.977 51.4929 127.183 51.1164Z" fill="white"/>
<path fill-rule="evenodd" clip-rule="evenodd" d="M112.188 48.3121C112.603 48.534 112.726 48.9554 113.067 49.2256C113.094 49.5269 112.874 49.4636 112.867 49.7146C113.664 49.4276 114.215 51.0828 114.795 51.7808C114.519 52.0769 114.33 52.4888 114.065 52.8017C113.073 51.6389 111.457 50.0666 112.188 48.3121Z" fill="white"/>
<path fill-rule="evenodd" clip-rule="evenodd" d="M122.06 50.2311C122.028 50.4894 121.841 50.5172 121.76 50.7022C121.434 50.6901 121.544 50.3754 121.312 50.2953C121.467 50.1355 121.856 50.3176 122.06 50.2311Z" fill="white"/>
<path fill-rule="evenodd" clip-rule="evenodd" d="M121.238 51.2339C120.989 51.3943 120.808 51.6491 120.59 51.8474C120.198 51.2219 119.568 50.7673 119.48 49.9385C120.279 49.8864 121.215 50.4668 121.238 51.2339Z" fill="white"/>
<path fill-rule="evenodd" clip-rule="evenodd" d="M118.848 50.4524C119.412 50.9536 119.847 51.546 120.205 52.1948C119.855 52.8152 119.339 53.1883 118.952 53.7521C118.449 53.1796 118.174 52.446 117.744 51.8252C118.021 51.2327 118.559 51.028 118.848 50.4524Z" fill="white"/>
<path fill-rule="evenodd" clip-rule="evenodd" d="M126.251 52.0951C126.84 52.5686 126.015 53.5433 125.446 53.5283C125.376 53.4276 125.44 53.2339 125.303 53.1797C125.47 52.5994 126.005 52.5641 126.251 52.0951Z" fill="white"/>
<path fill-rule="evenodd" clip-rule="evenodd" d="M116.309 50.4885C116.691 50.8542 116.854 51.365 117.235 51.7245C116.861 52.1703 116.455 52.5781 116.122 53.0929C115.726 52.6838 115.409 52.2183 115.236 51.65C115.636 51.338 115.922 50.8439 116.309 50.4885Z" fill="white"/>
<path fill-rule="evenodd" clip-rule="evenodd" d="M121.511 51.4914C122.071 51.8187 122.161 52.4719 122.62 52.869C122.427 53.2419 122.024 53.2924 121.832 53.6715C121.425 53.266 121.231 52.7173 120.823 52.3119C121.019 51.9922 121.298 51.7961 121.511 51.4914Z" fill="white"/>
<path fill-rule="evenodd" clip-rule="evenodd" d="M123.186 53.7238C123.479 53.5774 122.911 53.2661 123.02 52.9514C123.483 52.7623 123.789 52.3365 124.156 52.0069C124.578 52.1391 124.516 52.5945 124.733 52.8539C124.131 53.7162 123.19 54.0591 122.551 54.8648C121.804 54.2628 122.094 53.7138 122.768 53.2138C122.875 53.3976 123.15 53.4855 123.186 53.7238Z" fill="white"/>
<path fill-rule="evenodd" clip-rule="evenodd" d="M117.375 52.0671C117.995 52.7604 119.032 53.9168 118.109 54.8529C116.784 54.8301 116.539 54.0813 116.287 53.3343C116.661 52.9355 117.053 52.5516 117.375 52.0671Z" fill="white"/>
<path fill-rule="evenodd" clip-rule="evenodd" d="M120.436 52.6592C120.913 52.9569 121.087 53.4578 121.362 53.8952C120.915 54.8266 119.131 55.8532 119.107 54.091C119.609 53.7154 119.97 53.1118 120.436 52.6592Z" fill="white"/>
<path fill-rule="evenodd" clip-rule="evenodd" d="M114.93 52.1228C115.28 52.5383 115.584 52.9808 115.832 53.46C115.846 53.7855 115.516 53.5995 115.532 53.9311C114.895 53.7746 114.643 53.3505 114.223 53.0427C114.457 52.7387 114.698 52.4329 114.93 52.1228Z" fill="white"/>
<path fill-rule="evenodd" clip-rule="evenodd" d="M121.974 55.0744C121.432 54.9705 121.084 55.1599 120.589 55.1231C120.886 54.5517 122.005 53.9619 121.974 55.0744Z" fill="white"/>
<path fill-rule="evenodd" clip-rule="evenodd" d="M116.004 53.7073C116.252 53.8636 116.269 54.1749 116.518 54.3374C116.269 54.6122 116.06 54.1283 115.705 54.1784C115.737 53.9201 115.924 53.8923 116.004 53.7073Z" fill="white"/>
<path fill-rule="evenodd" clip-rule="evenodd" d="M118.797 54.5657C118.925 54.6829 119.089 54.7829 119.021 55.0317C118.85 55.0009 118.678 54.9638 118.514 54.9312C118.496 54.6403 118.755 54.7664 118.797 54.5657Z" fill="white"/>
<path fill-rule="evenodd" clip-rule="evenodd" d="M124.826 56.1575C124.459 56.0091 124.354 56.2483 123.988 56.0999C124.145 55.8993 124.91 55.5476 124.826 56.1575Z" fill="white"/>
<path fill-rule="evenodd" clip-rule="evenodd" d="M113.637 53.8872C113.581 54.112 113.195 53.8483 113.006 53.8699C113.065 53.5901 113.534 53.722 113.637 53.8872Z" fill="white"/>
<path fill-rule="evenodd" clip-rule="evenodd" d="M124.426 57.1357C121.155 57.9046 115.722 56.662 112.08 55.38C112.125 55.1446 112.169 54.9031 112.221 54.666C116.282 56.0005 120.598 57.0584 124.426 57.1357Z" fill="white"/>
<path fill-rule="evenodd" clip-rule="evenodd" d="M124.068 57.9131C124.139 57.926 124.203 57.9407 124.274 57.9535C122.503 59.5752 118.341 57.8733 115.641 57.2373C118.03 57.406 121.637 58.2475 123.97 57.9013C123.997 57.9003 124.033 57.9098 124.068 57.9131Z" fill="white"/>
<path fill-rule="evenodd" clip-rule="evenodd" d="M114.196 58.1173C116.406 58.8699 119.377 59.373 121.82 59.7011C120.768 60.1972 117.764 59.8788 115.876 59.2874C115.166 59.0648 114.33 58.6904 114.196 58.1173Z" fill="white"/>
<path fill-rule="evenodd" clip-rule="evenodd" d="M116.395 80.1132C115.646 80.3795 114.618 80.4045 113.668 80.0095C113.988 73.7403 115.311 66.7873 115.523 60.5898C117.569 61.3097 119.946 61.4821 121.466 61.0034C119.96 67.1221 117.823 73.4522 116.395 80.1132Z" fill="white"/>
<path fill-rule="evenodd" clip-rule="evenodd" d="M114.31 60.2563C114.7 60.2566 114.715 60.5146 115.105 60.5148C114.575 66.7516 113.76 73.65 113.084 79.6872C112.05 79.5526 112.567 78.2846 112.623 77.6962C113.108 72.4079 113.879 65.8654 114.252 60.5627C114.274 60.4552 114.292 60.3558 114.31 60.2563Z" fill="white"/>
<path fill-rule="evenodd" clip-rule="evenodd" d="M116.106 81.0161C116.225 81.0553 116.157 81.2163 116.147 81.3405C115.317 81.7244 114.765 82.5252 113.444 82.1919C113.593 81.8522 113.368 81.7702 113.479 81.4617C114.626 81.7047 115.341 81.3207 116.106 81.0161Z" fill="white"/>
<path fill-rule="evenodd" clip-rule="evenodd" d="M112.4 81.0373C112.501 81.1759 112.736 81.2214 112.99 81.2615C112.847 81.5321 113.081 81.551 112.997 81.791C112.706 81.6004 112.381 81.433 112.4 81.0373Z" fill="white"/>
<path fill-rule="evenodd" clip-rule="evenodd" d="M115.673 83.2555C115.554 84.4137 114.472 89.1772 113.345 88.7265C112.386 88.3413 113.6 84.4676 113.294 83.5346C114.347 83.8252 115.069 83.6274 115.673 83.2555Z" fill="white"/>
<path fill-rule="evenodd" clip-rule="evenodd" d="M112.25 82.9115C112.55 82.9717 112.542 83.2432 112.804 83.3346C112.598 84.8616 112.706 86.1755 112.483 87.7141C112.136 86.2953 112.233 84.5783 112.25 82.9115Z" fill="white"/>
<path fill-rule="evenodd" clip-rule="evenodd" d="M124.958 53.3284C125.217 53.3871 125.028 53.7519 125.289 53.8168C124.722 54.2922 123.95 54.4576 123.299 54.8093C123.504 54.3122 124.471 53.8272 124.958 53.3284Z" fill="white"/>
</g>
</g>
<defs>
<clipPath id="clip0_2192_34979">
<rect width="131" height="195" fill="white"/>
</clipPath>
<clipPath id="clip1_2192_34979">
<rect width="29.2085" height="48.8511" fill="white" transform="matrix(0.959756 -0.280833 0.280533 0.959844 98.2734 43.8252)"/>
</clipPath>
</defs>
</svg>
