<svg width="181" height="195" viewBox="0 0 181 195" fill="none" xmlns="http://www.w3.org/2000/svg">
<g clip-path="url(#clip0_2192_34879)">
<path d="M19.3643 59.7809C19.3643 59.7809 0.600884 62.5482 1.09555 83.98C1.59304 105.409 -0.9453 115.718 22.1118 118.485C35.92 120.141 49.0329 91.8918 43.8318 74.4711C40.3466 62.7998 19.3643 59.7809 19.3643 59.7809Z" fill="white" stroke="black" stroke-width="1.4" stroke-miterlimit="10" stroke-linecap="round" stroke-linejoin="round"/>
<path d="M79.9868 82.8152C69.7118 70.7482 69.5762 61.2506 62.4671 62.1325C53.4925 63.2434 51.4968 72.2887 55.4994 78.3632C59.5048 84.4377 68.013 94.0512 69.3246 95.049C75.6987 99.891 86.1319 106.749 89.7161 105.787L97.0146 95.0348C94.5752 92.1997 81.5358 84.6327 79.9868 82.8152Z" fill="white" stroke="black" stroke-width="1.4" stroke-miterlimit="10" stroke-linecap="round" stroke-linejoin="round"/>
<path d="M89.7188 105.787L94.7135 108.21L102.035 97.4712L97.0172 95.0347L89.7188 105.787Z" fill="white" stroke="black" stroke-width="1.4" stroke-miterlimit="10" stroke-linecap="round" stroke-linejoin="round"/>
<path d="M95.2031 107.167C95.2031 107.167 96.7437 108.21 100.842 111.279C104.941 114.352 108.986 115.033 112.87 111.511C116.751 107.995 116.576 105.27 112.107 103.337C110.456 102.624 107.643 102.477 107.643 102.477C107.643 102.477 111.697 102.52 111.716 100.323C111.745 97.3044 103.824 99.546 100.633 99.1983L95.2031 107.167Z" fill="white" stroke="black" stroke-width="1.4" stroke-miterlimit="10" stroke-linecap="round" stroke-linejoin="round"/>
<path d="M105.797 105.524C105.797 105.524 112.157 107.415 115.634 107.09" stroke="black" stroke-width="1.4" stroke-miterlimit="10" stroke-linecap="round" stroke-linejoin="round"/>
<path d="M114.227 110.129C114.227 110.129 110.858 111.051 104.625 107.823" stroke="black" stroke-width="1.4" stroke-miterlimit="10" stroke-linecap="round" stroke-linejoin="round"/>
<path d="M111.377 112.653C111.377 112.653 106.821 112.568 103.109 109.578" stroke="black" stroke-width="1.4" stroke-miterlimit="10" stroke-linecap="round" stroke-linejoin="round"/>
<path d="M67.7287 120.125C69.8318 103.394 74.199 62.6049 63.7488 58.0313C57.7761 55.4138 28.1753 55.4873 28.1753 55.4873C28.1753 55.4873 26.2107 56.9515 21.8238 59.4701C9.74827 66.4011 17.3124 102.249 20.1476 121.826C22.8725 143.982 19.8197 170.908 19.8197 170.908L29.9137 173.876C29.9137 173.876 32.9043 169.959 36.2341 160.308C39.8126 149.943 43.7671 133.602 44.2646 127.525C45.9126 134.148 49.3611 147.919 51.6903 176.703H64.0512C64.0541 176.703 65.6257 136.856 67.7287 120.125Z" fill="white" stroke="black" stroke-width="1.4" stroke-miterlimit="10" stroke-linecap="round" stroke-linejoin="round"/>
<path d="M64.5407 176.714L65.9851 159.118C65.9851 159.118 64.5407 160.888 58.2033 160.888C54.328 160.888 49.3672 159.135 49.3672 159.135C49.3672 159.135 50.2632 173.136 50.1473 174.86C49.6781 181.89 49.3672 181.104 49.3672 188.631H78.7136C81.6053 181.378 76.6699 173.933 64.5407 176.714Z" fill="white" stroke="black" stroke-width="1.4" stroke-miterlimit="10" stroke-linecap="round" stroke-linejoin="round"/>
<path d="M78.7453 190.593C78.0754 190.593 78.0754 191.192 77.4083 191.192C76.7384 191.192 76.7384 190.593 76.0713 190.593C75.4014 190.593 75.4014 191.192 74.7343 191.192C74.0672 191.192 74.0672 190.593 73.3973 190.593C72.7302 190.593 72.7302 191.192 72.0631 191.192C71.396 191.192 71.396 190.593 70.7261 190.593C70.059 190.593 70.059 191.192 69.3891 191.192C68.7192 191.192 68.722 190.593 68.0521 190.593C67.385 190.593 67.385 191.192 66.7179 191.192C66.0508 191.192 66.0508 190.593 65.3837 190.593C64.7166 190.593 64.7166 191.192 64.0467 191.192C63.3796 191.192 63.3796 190.593 62.7125 190.593C62.0454 190.593 62.0454 191.192 61.3755 191.192C60.7084 191.192 60.7084 190.593 60.0413 190.593C59.3742 190.593 59.3742 191.192 58.7043 191.192C58.0372 191.192 58.0372 190.593 57.3701 190.593C56.703 190.593 56.703 191.192 56.0331 191.192C55.366 191.192 55.366 190.593 54.6989 190.593C54.0318 190.593 54.0318 191.192 53.3648 191.192C52.6977 191.192 52.6977 190.593 52.0306 190.593C51.3635 190.593 51.3635 191.192 50.6936 191.192C50.0265 191.192 50.0265 190.593 49.3594 190.593V188.634H78.7425V190.593H78.7453Z" fill="white" stroke="black" stroke-width="1.4" stroke-miterlimit="10" stroke-linecap="round" stroke-linejoin="round"/>
<path d="M31.7038 177.37L36.2435 160.308C36.2435 160.308 34.5079 161.795 28.2723 160.67C24.4563 159.983 19.8856 157.377 19.8856 157.377C19.8856 157.377 18.2857 171.315 17.8645 172.994C16.1572 179.829 15.9933 179.001 14.6562 186.412L43.5391 191.611C47.6745 184.982 44.1327 176.782 31.7038 177.37Z" fill="white" stroke="black" stroke-width="1.4" stroke-miterlimit="10" stroke-linecap="round" stroke-linejoin="round"/>
<path d="M43.2243 193.544C42.5656 193.425 42.4611 194.019 41.8024 193.9C41.1438 193.779 41.2512 193.191 40.5926 193.069C39.934 192.95 39.8266 193.544 39.1708 193.425C38.5122 193.307 38.6196 192.716 37.9638 192.594C37.3081 192.476 37.2006 193.069 36.542 192.953C35.8834 192.832 35.9908 192.238 35.335 192.122C34.6764 192.001 34.5718 192.594 33.9132 192.478C33.2546 192.357 33.362 191.766 32.7062 191.647C32.0476 191.529 31.9431 192.122 31.2844 192.004C30.6287 191.885 30.7332 191.291 30.0775 191.173C29.4217 191.054 29.3143 191.647 28.6556 191.529C27.9999 191.41 28.1044 190.819 27.4487 190.7C26.7929 190.582 26.6855 191.175 26.0268 191.054C25.3711 190.938 25.4756 190.344 24.8199 190.226C24.1613 190.107 24.0567 190.7 23.3981 190.582C22.7423 190.463 22.8497 189.872 22.1911 189.751C21.5353 189.632 21.4279 190.226 20.7693 190.107C20.1135 189.988 20.2181 189.397 19.5623 189.276C18.9065 189.157 18.7991 189.754 18.1405 189.635C17.4847 189.513 17.5893 188.922 16.9335 188.804C16.2777 188.682 16.1703 189.279 15.5117 189.16C14.8559 189.041 14.9605 188.448 14.3047 188.329L14.6524 186.404L43.5691 191.608L43.2243 193.544Z" fill="white" stroke="black" stroke-width="1.4" stroke-miterlimit="10" stroke-linecap="round" stroke-linejoin="round"/>
<path d="M20.5196 92.0586C23.954 76.5854 26.4584 65.6123 26.4584 65.6123C20.1634 59.1252 11.7428 62.9836 9.30905 69.8382C6.8753 76.6929 4.33413 89.28 4.32848 90.9251C4.30869 98.9302 5.12277 111.39 8.05119 113.668L21.0312 113.01C21.8255 109.355 20.0023 94.3906 20.5196 92.0586Z" fill="white" stroke="black" stroke-width="1.4" stroke-miterlimit="10" stroke-linecap="round" stroke-linejoin="round"/>
<path d="M8.05469 113.671L9.13447 119.118L22.1145 118.485L21.0347 113.013L8.05469 113.671Z" fill="white" stroke="black" stroke-width="1.4" stroke-miterlimit="10" stroke-linecap="round" stroke-linejoin="round"/>
<path d="M10.2656 118.884C10.2656 118.884 10.3617 120.744 10.3843 125.863C10.407 130.982 12.3036 134.62 17.451 135.598C22.5983 136.576 24.6646 134.789 23.5142 130.06C23.0874 128.313 21.5101 125.984 21.5101 125.984C21.5101 125.984 23.9212 129.246 25.6851 127.938C28.1132 126.137 21.5497 121.168 19.9017 118.414L10.2656 118.884Z" fill="white" stroke="black" stroke-width="1.4" stroke-miterlimit="10" stroke-linecap="round" stroke-linejoin="round"/>
<path d="M17.9609 126.343C17.9609 126.343 20.2845 132.559 22.6362 135.137" stroke="black" stroke-width="1.4" stroke-miterlimit="10" stroke-linecap="round" stroke-linejoin="round"/>
<path d="M19.3707 135.841C19.3707 135.841 16.6034 133.71 15.4219 126.79" stroke="black" stroke-width="1.4" stroke-miterlimit="10" stroke-linecap="round" stroke-linejoin="round"/>
<path d="M15.6451 135.101C15.6451 135.101 12.9682 131.415 13.1152 126.649" stroke="black" stroke-width="1.4" stroke-miterlimit="10" stroke-linecap="round" stroke-linejoin="round"/>
<path d="M15.6172 42.8716C15.6172 42.8716 16.9599 52.4172 20.2642 56.3604C23.5658 60.3064 15.5776 59.7976 15.7444 62.2427C15.9931 65.8523 29.2134 74.0299 40.2063 74.4482C62.2514 75.2849 69.2276 63.6871 69.2276 63.6871C69.4594 60.7813 65.7424 59.2662 65.7424 59.2662C65.7424 59.2662 67.0681 55.6227 65.7424 53.4829L15.6172 42.8716Z" fill="white" stroke="black" stroke-width="1.4" stroke-miterlimit="10" stroke-linecap="round" stroke-linejoin="round"/>
<path d="M74.2367 30.4374C74.8246 47.2249 61.6948 61.313 44.9044 61.901C28.1169 62.4889 14.0288 49.3591 13.4409 32.5687C12.8529 15.7812 25.9828 1.69592 42.7731 1.10232C59.5607 0.517198 73.6459 13.647 74.2367 30.4374Z" fill="white" stroke="black" stroke-width="1.4" stroke-miterlimit="10" stroke-linecap="round" stroke-linejoin="round"/>
<path d="M42.4519 13.1126C26.4558 25.3039 28.4288 41.7155 28.4288 41.7155C28.4288 41.7155 46.9604 65.3973 70.8061 45.5626C70.8061 45.5626 76.9287 35.8926 74.1755 24.2779C71.4251 12.6575 62.1028 6.41054 62.1028 6.41054C62.1028 6.41054 52.8709 5.17812 42.4519 13.1126Z" fill="black"/>
<path d="M66.2765 52.0271C42.1594 67.8734 24.1875 41.8681 24.1875 41.8681C24.1875 41.8681 26.1181 8.68875 55.9309 3.59229" stroke="black" stroke-width="1.4" stroke-miterlimit="10" stroke-linecap="round" stroke-linejoin="round"/>
<path d="M36.758 25.0836C33.3604 29.513 32.3315 37.9307 34.638 39.1349C36.9446 40.3362 37.5099 30.8076 41.0885 27.5456C44.8508 24.1225 40.1896 20.609 36.758 25.0836Z" fill="white"/>
<path d="M41.7942 17.0248C40.6212 17.5957 40.118 19.0515 40.689 20.2217L40.8021 20.4507C41.373 21.6237 42.8288 22.1269 44.0018 21.5559C45.1749 20.9849 45.6752 19.5263 45.1042 18.3561L44.9912 18.1271C44.4258 16.9541 42.9701 16.4509 41.7942 17.0248Z" fill="white"/>
<path d="M66.7363 42.1001C66.3773 41.4557 65.5717 41.2126 64.9668 41.7044C63.3076 43.0499 56.7497 46.0066 58.5531 48.9859C59.9297 51.2613 62.4228 50.06 64.2913 48.1492C66.4254 46.7019 68.0083 44.4095 66.7363 42.1001Z" fill="white"/>
<path d="M19.0961 41.0458C15.7352 39.5449 11.8231 34.8781 10.7999 29.1145C10.0621 24.9593 12.2754 21.0981 14.9438 21.9659C14.9438 21.9659 11.6846 32.628 21.8295 37.2751L19.0961 41.0458Z" fill="white" stroke="black" stroke-width="1.4" stroke-miterlimit="10" stroke-linecap="round" stroke-linejoin="round"/>
<path d="M29.2868 41.0206C29.756 43.8331 27.8537 46.493 25.0412 46.9594C22.2286 47.4286 19.5716 45.5291 19.1024 42.7137C18.6331 39.904 20.5355 37.2441 23.348 36.7777C26.1605 36.3085 28.8176 38.208 29.2868 41.0206Z" fill="white" stroke="black" stroke-width="1.4" stroke-miterlimit="10" stroke-linecap="round" stroke-linejoin="round"/>
<path d="M26.3638 41.5066C26.5645 42.7051 25.7533 43.8357 24.5576 44.0364C23.3619 44.2371 22.2313 43.4259 22.0306 42.2302C21.8299 41.0345 22.6383 39.9038 23.8368 39.7032C25.0325 39.4996 26.1632 40.3109 26.3638 41.5066Z" fill="white" stroke="black" stroke-width="1.4" stroke-miterlimit="10" stroke-linecap="round" stroke-linejoin="round"/>
<path d="M20.7734 57.1465C20.7734 57.1465 30.0845 69.2078 45.795 68.7443" stroke="black" stroke-width="1.4" stroke-miterlimit="10" stroke-linecap="round" stroke-linejoin="round"/>
<path d="M65.7397 59.2666C65.7397 59.2666 60.2786 65.2111 54.9531 66.8929" stroke="black" stroke-width="1.4" stroke-miterlimit="10" stroke-linecap="round" stroke-linejoin="round"/>
<path d="M66.2736 77.5182C66.2736 77.5182 64.5409 75.4236 60.8464 75.9918C57.1548 76.5628 37.9731 79.5251 37.9731 79.5251C36.4269 79.5251 35.1719 80.7773 35.1719 82.3263V107.823C35.1719 109.369 36.4269 110.624 37.9731 110.624L63.4696 106.686C64.2356 106.686 66.6948 103.894 66.6948 103.894L66.2736 77.5182Z" fill="white" stroke="black" stroke-width="1.4" stroke-miterlimit="10" stroke-linecap="round" stroke-linejoin="round"/>
<path d="M67.3422 102.223C67.3422 103.6 66.2285 104.713 64.8519 104.713L42.1934 108.21C40.8168 108.21 39.7031 107.096 39.7031 105.723V83.064C39.7031 81.6903 40.8168 80.5766 42.1934 80.5766L64.8519 77.0771C66.2257 77.0771 67.3422 78.1909 67.3422 79.5674V102.223Z" fill="white" stroke="black" stroke-width="1.4" stroke-miterlimit="10" stroke-linecap="round" stroke-linejoin="round"/>
<path d="M36.6328 109.578L40.3329 107.368" stroke="black" stroke-width="1.4" stroke-miterlimit="10" stroke-linecap="round" stroke-linejoin="round"/>
<path d="M35.9453 80.3928L40.0044 81.8825" stroke="black" stroke-width="1.4" stroke-miterlimit="10" stroke-linecap="round" stroke-linejoin="round"/>
<g clip-path="url(#clip1_2192_34879)">
<path d="M88.9093 56.5082C93.8162 52.9344 98.954 49.6902 104.141 46.5388C107.011 44.7944 109.899 43.0803 112.776 41.3496C113.094 41.1581 113.511 41.1706 113.747 41.4992C115.348 43.7319 117.33 45.5811 119.62 47.0918C121.859 48.5698 124.288 49.7367 126.651 50.9985C127.907 51.6694 129.161 52.3465 130.329 53.1667C131.412 53.928 132.426 54.7861 133.371 55.711C135.366 57.6642 137.08 59.895 138.462 62.3204C139.989 65.0024 141.133 67.8909 141.721 70.9272C142.006 71.0835 142.19 71.4524 142.087 71.7862C148.585 72.244 155.008 74.0279 160.765 77.0835C166.571 80.1646 171.713 84.5149 175.505 89.9022C177.674 92.9828 179.39 96.3798 180.576 99.9568C180.808 100.655 179.971 101.127 179.512 100.794C179.138 101.058 178.768 101.325 178.395 101.59C178.324 101.678 178.252 101.766 178.183 101.857C177.921 102.201 177.672 102.553 177.433 102.915C177.152 103.34 177.001 103.589 176.773 103.997C176.315 104.812 175.909 105.664 175.614 106.552C175.581 106.648 175.553 106.745 175.522 106.842C175.518 106.856 175.507 106.894 175.501 106.918C175.493 106.948 175.485 106.981 175.477 107.012C175.428 107.215 175.381 107.42 175.347 107.627C175.319 107.803 175.298 107.978 175.287 108.155C175.284 108.203 175.282 108.252 175.281 108.3C175.28 108.305 175.281 108.306 175.281 108.311C175.284 108.4 175.287 108.489 175.296 108.578C175.306 108.681 175.324 108.782 175.341 108.883C175.346 108.916 175.348 108.931 175.349 108.941C175.354 108.95 175.361 108.965 175.372 108.997C175.403 109.079 175.437 109.16 175.47 109.242C175.472 109.247 175.475 109.254 175.48 109.261C175.498 109.291 175.517 109.322 175.537 109.351C175.57 109.399 175.606 109.443 175.642 109.486C175.639 109.476 175.768 109.608 175.804 109.637C175.834 109.66 175.928 109.717 175.953 109.734C176.031 109.774 176.109 109.814 176.191 109.846C176.741 110.068 176.681 110.701 176.339 111.007C176.387 111.235 176.32 111.48 176.062 111.652C170.732 115.195 165.466 118.836 160.257 122.557C154.927 126.365 149.657 130.258 144.451 134.234C141.546 136.453 138.662 138.698 135.799 140.971C135.266 141.396 134.664 140.846 134.715 140.315C134.696 140.364 134.677 140.414 134.656 140.461C134.459 140.928 133.964 140.953 133.636 140.738C133.44 140.723 133.25 140.636 133.15 140.463C130.099 135.172 127.441 129.658 124.163 124.497C122.551 121.958 120.774 119.561 118.733 117.352C116.508 114.945 114.047 112.741 111.367 110.851C108.361 108.731 105.055 107.045 101.528 105.978C101.169 105.869 101.031 105.381 101.167 105.065C101.173 105.053 101.18 105.042 101.187 105.03C101.099 105.031 101.009 105.013 100.917 104.973C100.6 104.836 100.371 104.388 100.556 104.06C100.582 104.013 100.612 103.969 100.638 103.923C99.1496 99.1787 96.3667 94.9277 93.3664 91.0102C91.8199 88.9918 90.2328 86.9365 88.432 85.1373C86.6791 83.3857 84.6928 81.9084 82.5999 80.5876C80.1552 79.0444 77.6145 77.6577 75.1827 76.0918C75.0361 75.997 74.9582 75.8366 74.9367 75.6663C74.7902 75.7191 74.6402 75.7629 74.488 75.7983C74.1223 75.8828 73.7558 75.5363 73.7144 75.192C73.6658 74.7851 73.9546 74.5034 74.3208 74.4176C75.0755 74.2425 75.7812 73.5483 75.9784 72.8009C76.0047 72.699 76.0531 72.3534 76.0529 72.2371C76.0525 72.1967 76.042 72.0387 76.0318 71.9524C76.0247 71.8897 76.0158 71.8277 76.0039 71.7659C76.0011 71.7483 75.9826 71.6569 75.9846 71.6592C75.8667 71.1925 75.6807 70.8899 75.3493 70.5377C75.0921 70.2654 75.2228 69.7677 75.4994 69.5657C75.7001 69.4187 75.9159 69.4049 76.1144 69.476C76.115 69.4643 76.1138 69.4534 76.1156 69.4423C76.1214 69.4015 76.132 69.3599 76.1463 69.32C75.9352 69.3879 75.703 69.3604 75.5109 69.2057C75.235 68.9833 75.1482 68.5032 75.4056 68.2288C79.4827 63.862 84.0878 60.019 88.9093 56.5082ZM105.561 100.838C105.496 100.894 105.421 100.93 105.342 100.951C105.5 100.992 105.658 101.034 105.816 101.077C105.713 101.009 105.639 100.914 105.597 100.806C105.584 100.819 105.572 100.828 105.561 100.838ZM175.487 109.272C175.505 109.308 175.527 109.338 175.487 109.272V109.272Z" fill="white"/>
<path d="M141.46 71.7431C148.17 72.1273 154.819 73.9317 160.76 77.0831C166.565 80.1642 171.707 84.5145 175.5 89.9018C177.668 92.9824 179.384 96.3794 180.57 99.9564C180.851 100.804 179.56 101.319 179.278 100.468C177.239 94.3176 173.608 88.7903 168.826 84.4257C164.063 80.0784 158.307 76.9149 152.149 75.0356C148.619 73.9577 144.949 73.3308 141.265 73.1204C140.89 73.0983 140.624 72.685 140.674 72.3357C140.731 71.937 141.084 71.7222 141.46 71.7431Z" fill="black"/>
<path d="M179.618 100.714C173.972 104.717 168.366 108.779 162.806 112.902C157.246 117.026 151.729 121.206 146.257 125.446C143.181 127.83 140.12 130.231 137.074 132.651C136.722 132.929 136.174 132.751 136.016 132.346C133.882 126.861 131.36 121.491 128.095 116.582C124.848 111.698 120.783 107.132 115.615 104.236C112.679 102.592 109.468 101.545 106.119 101.188C105.229 101.093 105.426 99.7167 106.314 99.8109C112.47 100.468 118.034 103.43 122.494 107.651C127.004 111.92 130.436 117.202 133.249 122.704C134.766 125.67 136.1 128.729 137.308 131.835C136.956 131.733 136.604 131.632 136.25 131.53C141.672 127.226 147.137 122.977 152.648 118.789C158.159 114.601 163.715 110.471 169.313 106.401C172.46 104.114 175.621 101.844 178.795 99.5941C179.525 99.0761 180.351 100.195 179.618 100.714Z" fill="black"/>
<path d="M141.856 72.1246C137.254 75.8664 132.538 79.4614 127.816 83.0482C123.056 86.6647 118.294 90.2818 113.644 94.0416C110.907 96.2544 108.209 98.5158 105.564 100.839C105.282 101.086 104.801 100.973 104.592 100.689C104.355 100.364 104.459 99.9653 104.742 99.717C109.363 95.66 114.148 91.7997 119.007 88.0339C123.686 84.4091 128.428 80.8653 133.116 77.2534C135.78 75.2008 138.426 73.1241 141.036 71.0035C141.728 70.4393 142.55 71.5596 141.856 72.1246Z" fill="black"/>
<path d="M140.357 71.1759C139.364 65.9511 136.592 60.9598 132.88 57.1765C131.948 56.2275 130.948 55.3442 129.877 54.5541C128.813 53.7685 127.678 53.1247 126.515 52.4989C124.088 51.191 121.598 49.9846 119.266 48.5093C116.674 46.8713 114.416 44.8188 112.626 42.3223C112.95 42.3717 113.274 42.4212 113.597 42.4719C108.48 45.5478 103.335 48.5788 98.3084 51.7997C93.2341 55.0521 88.2676 58.4956 83.6439 62.3678C81.1304 64.4721 78.7267 66.7044 76.4911 69.102C76.235 69.3769 75.8213 69.4555 75.5147 69.208C75.2388 68.9856 75.152 68.5055 75.4093 68.2311C79.4827 63.8627 84.0878 60.0197 88.9093 56.5088C93.8162 52.9351 98.9539 49.6909 104.141 46.5394C107.011 44.7951 109.899 43.0809 112.776 41.3503C113.094 41.1588 113.511 41.1712 113.747 41.4999C115.348 43.7326 117.33 45.5818 119.62 47.0925C121.859 48.5705 124.288 49.7374 126.651 50.9992C127.907 51.67 129.161 52.3472 130.329 53.1674C131.412 53.9286 132.426 54.7867 133.371 55.7117C135.366 57.6649 137.08 59.8957 138.462 62.3211C140.004 65.0273 141.156 67.943 141.738 71.0084C141.904 71.8907 140.522 72.0509 140.357 71.1759Z" fill="black"/>
<path d="M103.837 99.763C101.65 94.8032 98.936 90.1081 95.8479 85.6578C94.3028 83.43 92.7101 81.2158 90.889 79.2022C89.0921 77.2154 87.0692 75.4169 84.8524 73.9113C82.3782 72.2301 79.6182 70.9303 76.7048 70.2285C76.3408 70.1409 76.057 69.8406 76.1142 69.4437C76.1634 69.1 76.5324 68.7637 76.8989 68.8524C82.3624 70.17 87.1715 73.335 91.0449 77.3506C93.0065 79.3834 94.7007 81.6281 96.3318 83.9289C97.9217 86.1702 99.4262 88.4713 100.816 90.8419C102.41 93.5617 103.855 96.3663 105.127 99.2521C105.49 100.071 104.198 100.581 103.837 99.763Z" fill="black"/>
<path d="M179.499 100.394C179.445 100.439 179.392 100.486 179.34 100.532C179.317 100.552 179.295 100.572 179.273 100.592C179.158 100.697 179.358 100.507 179.285 100.581C179.164 100.703 179.044 100.826 178.929 100.953C178.667 101.242 178.419 101.546 178.182 101.856C177.92 102.2 177.671 102.552 177.432 102.914C177.151 103.339 177 103.588 176.772 103.995C176.315 104.81 175.908 105.663 175.613 106.551C175.581 106.647 175.552 106.743 175.522 106.84C175.512 106.872 175.473 107.013 175.509 106.884C175.498 106.926 175.486 106.968 175.475 107.01C175.426 107.213 175.379 107.418 175.345 107.625C175.317 107.801 175.296 107.976 175.285 108.153C175.281 108.21 175.279 108.266 175.278 108.323C175.278 108.3 175.276 108.181 175.28 108.309C175.283 108.398 175.286 108.488 175.295 108.577C175.306 108.679 175.323 108.781 175.34 108.882C175.371 109.061 175.307 108.825 175.372 108.997C175.403 109.079 175.436 109.161 175.47 109.242C175.486 109.284 175.549 109.378 175.46 109.234C175.484 109.274 175.509 109.314 175.535 109.353C175.58 109.418 175.629 109.478 175.681 109.538C175.554 109.388 175.757 109.602 175.803 109.637C175.85 109.674 176.063 109.797 175.897 109.709C175.992 109.761 176.09 109.806 176.191 109.847C177.02 110.182 176.466 111.458 175.638 111.122C173.841 110.396 173.684 108.405 174.115 106.754C174.629 104.784 175.668 102.941 176.862 101.303C177.394 100.571 177.979 99.8545 178.676 99.2729C179.364 98.6992 180.184 99.8203 179.499 100.394Z" fill="black"/>
<path d="M176.059 111.653C170.729 115.196 165.463 118.837 160.254 122.558C154.924 126.366 149.654 130.259 144.448 134.235C141.542 136.454 138.658 138.699 135.796 140.972C135.095 141.528 134.273 140.408 134.974 139.852C140.07 135.806 145.235 131.846 150.461 127.968C155.698 124.083 160.996 120.278 166.355 116.563C169.296 114.525 172.256 112.513 175.236 110.532C175.979 110.039 176.807 111.156 176.059 111.653Z" fill="black"/>
<path d="M137.49 132.371C136.513 135.054 135.767 137.83 134.655 140.463C134.307 141.288 133.032 140.736 133.38 139.911C134.492 137.278 135.238 134.502 136.215 131.819C136.522 130.977 137.795 131.533 137.49 132.371Z" fill="black"/>
<path d="M133.154 140.464C130.103 135.173 127.444 129.659 124.167 124.498C122.555 121.959 120.778 119.563 118.736 117.354C116.511 114.946 114.051 112.742 111.37 110.852C108.364 108.732 105.058 107.047 101.532 105.98C101.173 105.87 101.034 105.382 101.171 105.066C101.335 104.689 101.724 104.595 102.084 104.705C108.498 106.647 114.131 110.622 118.77 115.389C120.922 117.6 122.847 119.972 124.552 122.546C126.297 125.181 127.856 127.935 129.375 130.704C131.009 133.682 132.575 136.7 134.273 139.644C134.46 139.968 134.45 140.376 134.123 140.616C133.847 140.817 133.343 140.792 133.154 140.464Z" fill="black"/>
<path d="M105.129 100.65C105.027 100.716 104.931 100.791 104.838 100.868C104.777 100.918 104.719 100.969 104.661 101.021C104.629 101.051 104.456 101.213 104.553 101.119C104.235 101.424 103.936 101.749 103.648 102.081C102.969 102.865 102.331 103.716 101.828 104.61C101.644 104.937 101.285 105.131 100.915 104.971C100.598 104.834 100.369 104.386 100.554 104.058C101.125 103.042 101.803 102.092 102.566 101.211C103.081 100.616 103.642 99.9633 104.308 99.5304C104.623 99.3256 105.049 99.3639 105.279 99.68C105.49 99.9696 105.445 100.446 105.129 100.65Z" fill="black"/>
<path d="M100.723 104.185C99.2572 99.3338 96.4221 95.0006 93.367 91.0101C91.8205 88.9918 90.2334 86.9365 88.4326 85.1373C86.6797 83.3856 84.6934 81.9083 82.6005 80.5876C80.1558 79.0444 77.6151 77.6577 75.1832 76.0917C74.868 75.8881 74.8613 75.3846 75.0779 75.1148C75.3334 74.7964 75.739 74.8052 76.0543 75.0089C80.3382 77.7675 85.0148 79.9839 88.7504 83.5168C90.6554 85.3194 92.3067 87.395 93.9217 89.458C95.525 91.5069 97.0464 93.6246 98.3926 95.8512C99.882 98.3141 101.181 100.914 102.016 103.676C102.124 104.034 101.993 104.432 101.625 104.578C101.297 104.705 100.831 104.547 100.723 104.185Z" fill="black"/>
<path d="M76.4741 69.7154C77.3659 70.6604 77.6417 72.0688 77.2739 73.2996C76.8887 74.584 75.7706 75.5017 74.4912 75.7983C74.1256 75.8828 73.7591 75.5363 73.7176 75.1921C73.6691 74.7851 73.9578 74.5034 74.324 74.4177C75.0788 74.2425 75.7844 73.5484 75.9817 72.8009C76.0079 72.6991 76.0564 72.3535 76.0561 72.2372C76.0558 72.1968 76.0453 72.0388 76.0351 71.9524C76.028 71.8897 76.0191 71.8278 76.0072 71.766C76.0035 71.7435 75.9743 71.6012 75.9933 71.681C75.8766 71.2013 75.6878 70.8946 75.3526 70.5378C75.0954 70.2654 75.2261 69.7678 75.5027 69.5658C75.8345 69.3221 76.2144 69.4419 76.4741 69.7154Z" fill="black"/>
<path d="M174.812 109.215C169.5 112.862 164.257 116.609 159.088 120.458C153.939 124.293 148.862 128.229 143.863 132.26C141.043 134.534 138.249 136.839 135.479 139.172C135.205 139.402 134.877 138.954 135.15 138.724C140.078 134.57 145.084 130.512 150.168 126.553C155.235 122.608 160.377 118.759 165.591 115.011C168.532 112.897 171.496 110.817 174.482 108.767C174.778 108.565 175.108 109.012 174.812 109.215Z" fill="black"/>
<path d="M174.297 107.747C169.173 111.276 164.151 114.953 159.19 118.707C154.156 122.517 149.183 126.408 144.233 130.326C141.511 132.48 138.796 134.645 136.083 136.808C135.803 137.031 135.474 136.584 135.754 136.361C140.621 132.48 145.489 128.601 150.396 124.772C155.373 120.889 160.388 117.055 165.483 113.329C168.285 111.281 171.109 109.266 173.967 107.299C174.261 107.097 174.592 107.544 174.297 107.747Z" fill="black"/>
<path d="M175.18 105.561C170.103 109.211 164.965 112.779 159.868 116.403C154.847 119.973 149.87 123.609 145.041 127.437C142.207 129.683 139.423 131.995 136.704 134.378C136.435 134.613 136.107 134.164 136.376 133.93C141.128 129.765 146.075 125.832 151.139 122.055C156.066 118.38 161.095 114.847 166.119 111.308C169.037 109.253 171.954 107.196 174.852 105.112C175.142 104.904 175.472 105.351 175.18 105.561Z" fill="black"/>
<path d="M135.673 133.879C133.03 128.232 130.449 122.511 126.914 117.352C123.385 112.201 118.853 107.822 113.372 104.787C110.318 103.094 107.029 101.833 103.613 101.102C103.265 101.027 103.341 100.476 103.691 100.551C109.825 101.864 115.542 104.84 120.267 108.95C125.049 113.112 128.57 118.412 131.504 123.989C133.174 127.165 134.67 130.426 136.19 133.676C136.342 133.999 135.825 134.203 135.673 133.879Z" fill="black"/>
<path d="M135.204 136.093C132.893 130.372 130.076 124.83 126.536 119.767C124.784 117.262 122.856 114.873 120.723 112.681C118.498 110.394 116.091 108.279 113.272 106.754C109.98 104.974 106.392 103.848 102.973 102.346C102.645 102.202 102.867 101.692 103.195 101.835C106.286 103.194 109.511 104.245 112.539 105.749C114.036 106.493 115.48 107.352 116.807 108.373C118.05 109.328 119.214 110.401 120.331 111.501C124.725 115.829 128.289 120.93 131.237 126.334C132.922 129.425 134.404 132.623 135.722 135.887C135.855 136.22 135.338 136.425 135.204 136.093Z" fill="black"/>
<path d="M134.176 137.934C132.689 131.995 129.275 126.655 125.798 121.695C122.117 116.446 117.79 111.684 112.439 108.095C109.357 106.027 105.923 104.443 102.225 103.918C101.87 103.867 101.948 103.317 102.302 103.367C105.6 103.836 108.693 105.127 111.523 106.852C114.37 108.589 117.01 110.728 119.378 113.072C121.665 115.335 123.708 117.832 125.587 120.44C127.432 122.999 129.178 125.651 130.742 128.392C132.448 131.381 133.889 134.52 134.728 137.868C134.815 138.216 134.263 138.277 134.176 137.934Z" fill="black"/>
<path d="M102.818 100.987C102.292 98.3826 101.107 95.9414 99.7858 93.6571C98.4653 91.3746 96.9807 89.1789 95.4811 87.011C92.3714 82.5142 88.4982 78.4226 84.0135 75.282C81.7903 73.726 79.3666 72.3885 76.7452 71.6419C76.402 71.5439 76.6269 71.0349 76.9663 71.1313C79.3224 71.8032 81.5188 72.9572 83.5572 74.3006C85.84 75.805 87.9448 77.5795 89.8881 79.5C91.9024 81.49 93.7552 83.647 95.41 85.9447C96.9688 88.1099 98.4592 90.3543 99.8295 92.642C101.372 95.2159 102.771 97.9557 103.368 100.919C103.44 101.273 102.888 101.336 102.818 100.987Z" fill="black"/>
<path d="M102.049 102.509C100.339 97.6547 98.1946 92.9324 95.3799 88.614C92.4818 84.1685 88.8687 80.1808 84.5302 77.1049C82.0639 75.3572 79.3766 73.9309 76.5291 72.912C76.6402 72.7724 76.7519 72.6315 76.8642 72.4924C77.0114 72.6888 77.1579 72.8834 77.3051 73.0798C77.519 73.3661 77.0725 73.6957 76.8573 73.4088C76.7101 73.2124 76.5637 73.0179 76.4165 72.8215C76.2429 72.5898 76.5013 72.3129 76.7516 72.4019C81.8822 74.237 86.4653 77.3978 90.259 81.2881C93.9199 85.0418 96.8357 89.4532 99.1586 94.1442C100.468 96.7885 101.588 99.5235 102.569 102.305C102.685 102.642 102.168 102.849 102.049 102.509Z" fill="black"/>
<path d="M101.374 103.112C99.5316 98.4737 97.3341 93.9607 94.5442 89.8154C91.6936 85.5798 88.2208 81.7496 84.0886 78.7334C81.7424 77.0213 79.1965 75.5951 76.4916 74.5322C76.1583 74.4012 76.3807 73.8911 76.7128 74.0216C81.5785 75.9356 85.9165 79.023 89.556 82.7571C93.0952 86.3896 95.9634 90.612 98.3235 95.0896C99.6596 97.6247 100.833 100.243 101.892 102.907C102.023 103.239 101.507 103.445 101.374 103.112Z" fill="black"/>
<path d="M166.979 100.846C165.259 99.0899 163.537 97.3365 161.806 95.5916C160.22 93.9912 158.651 92.3623 156.99 90.8395C156.892 90.7512 156.796 90.6616 156.695 90.5778C156.661 90.5497 156.535 90.4801 156.52 90.4411C156.535 90.4832 156.632 90.4625 156.669 90.4788C156.736 90.5063 156.709 90.4393 156.659 90.4892C156.633 90.5151 156.577 90.5311 156.616 90.5093C156.57 90.5339 156.526 90.5626 156.481 90.5908C155.889 90.9603 155.337 91.4004 154.785 91.8276C152.982 93.2204 151.222 94.6708 149.477 96.1332C148.684 96.7972 147.895 97.4641 147.115 98.1409C146.673 98.5248 146.151 98.9571 145.794 99.3326C145.774 99.3539 145.753 99.3807 145.73 99.3992C145.68 99.4399 145.72 99.4408 145.705 99.4238C145.696 99.4127 145.775 99.1757 145.695 99.1587C145.706 99.1605 145.721 99.2001 145.73 99.2069C145.866 99.3225 145.98 99.4938 146.101 99.6254C146.622 100.188 147.157 100.737 147.692 101.284C149.283 102.912 150.897 104.52 152.538 106.097C153.264 106.794 153.996 107.488 154.749 108.159C155.011 108.391 155.276 108.624 155.549 108.844C155.652 108.927 155.755 109.009 155.863 109.085C155.902 109.113 155.941 109.14 155.981 109.166C156.062 109.221 155.977 109.16 156.038 109.201C156.05 109.21 156.107 109.224 156.112 109.235C156.096 109.201 156.046 109.247 155.974 109.241C156.024 109.244 155.959 109.256 155.979 109.24C156.009 109.216 156.047 109.198 156.079 109.177C156.318 109.022 156.551 108.854 156.784 108.688C157.666 108.057 158.534 107.405 159.398 106.748C161.571 105.096 163.737 103.415 165.78 101.603C166.157 101.268 166.529 100.929 166.884 100.573C167.134 100.322 167.571 100.668 167.317 100.921C165.442 102.8 163.299 104.433 161.206 106.058C160.167 106.867 159.118 107.664 158.059 108.447C157.492 108.865 156.928 109.319 156.321 109.681C155.932 109.914 155.585 109.58 155.28 109.341C154.629 108.826 154.02 108.256 153.414 107.691C151.679 106.073 149.993 104.4 148.323 102.714C147.632 102.015 146.941 101.312 146.262 100.601C145.933 100.257 145.515 99.9076 145.256 99.5037C145.021 99.1352 145.543 98.7996 145.779 98.5828C146.399 98.014 147.039 97.4673 147.679 96.922C149.5 95.3684 151.345 93.8417 153.218 92.3496C153.959 91.7588 154.704 91.1709 155.47 90.6118C155.705 90.4396 155.942 90.2667 156.191 90.1152C156.346 90.0215 156.534 89.8881 156.724 89.9345C156.893 89.9766 157.048 90.1468 157.174 90.2593C157.443 90.4997 157.704 90.748 157.963 90.9975C158.812 91.8121 159.644 92.6436 160.477 93.475C162.436 95.4338 164.379 97.4076 166.318 99.3859C166.653 99.728 166.989 100.07 167.324 100.413C167.574 100.666 167.228 101.102 166.979 100.846Z" fill="black"/>
<path d="M168.88 93.7201C167.704 92.0946 166.292 90.6425 164.863 89.2397C163.434 87.8388 161.954 86.4927 160.465 85.1551C160.201 84.9168 160.547 84.4813 160.814 84.7219C162.33 86.085 163.838 87.4564 165.291 88.886C166.726 90.2971 168.146 91.7573 169.328 93.3911C169.538 93.6801 169.091 94.0109 168.88 93.7201Z" fill="black"/>
<path d="M166.528 94.3085C166.264 93.8572 165.915 93.4515 165.58 93.0531C165.059 92.434 164.515 91.8359 163.962 91.245C162.788 89.9898 161.576 88.763 160.305 87.6031C159.846 87.184 159.382 86.7504 158.862 86.4075C158.564 86.2115 158.914 85.7788 159.21 85.9743C160.323 86.7064 161.283 87.7377 162.224 88.6684C163.463 89.8919 164.676 91.1505 165.812 92.4696C166.223 92.9471 166.654 93.4333 166.975 93.9777C167.157 94.2842 166.71 94.6168 166.528 94.3085Z" fill="black"/>
<path d="M151.895 90.339C148.404 86.429 144.313 82.8827 139.67 80.4121C139.356 80.2451 139.575 79.7334 139.891 79.9015C143.656 81.9051 147.038 84.6021 150.058 87.6001C150.844 88.3802 151.605 89.1837 152.343 90.0099C152.582 90.2759 152.132 90.6039 151.895 90.339Z" fill="black"/>
<path d="M150.22 92.4912C147.493 89.4298 144.506 86.5206 141.176 84.1171C140.279 83.4711 139.353 82.8658 138.383 82.3366C138.07 82.1671 138.289 81.6554 138.604 81.826C142.275 83.8261 145.464 86.7285 148.371 89.7015C149.156 90.5032 149.921 91.3236 150.668 92.1609C150.906 92.4282 150.456 92.7561 150.22 92.4912Z" fill="black"/>
<path d="M147.395 94.709C144.952 91.6106 142.021 88.787 138.784 86.5265C137.907 85.9143 136.999 85.351 136.044 84.8691C135.727 84.7091 135.945 84.1974 136.266 84.3585C139.867 86.1733 143.001 88.9912 145.732 91.9232C146.467 92.714 147.176 93.5308 147.845 94.3792C148.065 94.661 147.617 94.9913 147.395 94.709Z" fill="black"/>
<path d="M144.29 96.0047C142.775 94.0029 140.96 92.2572 138.906 90.8173C138.613 90.6118 138.962 90.1787 139.254 90.3842C141.346 91.8507 143.197 93.6386 144.738 95.6756C144.955 95.9618 144.507 96.2908 144.29 96.0047Z" fill="black"/>
<path d="M149.253 111.978C144.86 106.263 139.765 101.101 134.11 96.6347C132.518 95.3775 130.881 94.1766 129.206 93.0324C128.91 92.8313 129.261 92.3975 129.554 92.5992C135.528 96.6782 140.989 101.493 145.787 106.907C147.148 108.44 148.453 110.023 149.702 111.649C149.919 111.932 149.47 112.263 149.253 111.978Z" fill="black"/>
<path d="M146.733 113.371C144.318 110.658 141.866 107.978 139.314 105.393C136.633 102.677 133.848 100.04 130.836 97.6926C129.333 96.5217 127.77 95.4184 126.102 94.4947C125.792 94.3233 126.01 93.811 126.323 93.9841C129.434 95.7072 132.225 97.9844 134.862 100.355C137.762 102.959 140.492 105.746 143.147 108.598C144.511 110.062 145.852 111.547 147.182 113.041C147.418 113.309 146.969 113.637 146.733 113.371Z" fill="black"/>
<path d="M143.565 115.611C141.488 112.354 138.884 109.428 136.175 106.687C133.445 103.923 130.541 101.31 127.453 98.9497C126.168 97.9687 124.848 97.0137 123.441 96.2152C123.133 96.04 123.352 95.5283 123.662 95.7046C126.492 97.3116 129.057 99.4194 131.506 101.547C134.591 104.227 137.522 107.108 140.184 110.211C141.563 111.819 142.873 113.495 144.013 115.282C144.204 115.583 143.759 115.914 143.565 115.611Z" fill="black"/>
<path d="M140.271 118.194C135.622 112.473 130.62 106.898 124.877 102.252C123.373 101.036 121.807 99.8901 120.153 98.8843C119.849 98.699 120.2 98.2669 120.501 98.4511C123.585 100.325 126.376 102.665 129.008 105.125C131.794 107.728 134.414 110.505 136.926 113.371C138.218 114.845 139.482 116.345 140.718 117.866C140.944 118.142 140.496 118.471 140.271 118.194Z" fill="black"/>
<path d="M137.096 71.647C135.35 67.6633 132.869 64.0274 129.892 60.8648C126.866 57.6515 123.31 54.9219 119.432 52.8162C117.243 51.6281 114.949 50.6387 112.579 49.8683C112.239 49.7585 112.462 49.2484 112.8 49.3577C117.064 50.7459 121.086 52.8473 124.69 55.5137C128.259 58.155 131.429 61.3609 133.98 64.999C135.399 67.0214 136.621 69.1795 137.614 71.4421C137.757 71.7709 137.239 71.9741 137.096 71.647Z" fill="black"/>
<path d="M132.781 73.9736C131.218 69.9693 128.856 66.2908 126.092 63.0122C124.696 61.3554 123.195 59.765 121.503 58.4036C119.779 57.0147 117.894 55.8373 115.946 54.7908C113.842 53.6604 111.662 52.6806 109.473 51.7307C109.144 51.5884 109.366 51.0778 109.694 51.2201C113.705 52.959 117.725 54.818 121.223 57.4762C122.967 58.8022 124.513 60.3552 125.954 62.0004C127.406 63.6542 128.738 65.4131 129.931 67.2631C131.255 69.3176 132.409 71.4893 133.297 73.7681C133.428 74.1032 132.912 74.3074 132.781 73.9736Z" fill="black"/>
<path d="M129.645 76.5603C127.827 72.6528 125.17 69.1626 122.164 66.0964C119.07 62.9396 115.569 60.1732 111.823 57.8294C109.833 56.5844 107.764 55.4631 105.626 54.4938C105.301 54.3471 105.521 53.8359 105.847 53.9832C109.789 55.7713 113.506 58.0653 116.929 60.7116C120.468 63.4484 123.728 66.5996 126.421 70.1797C127.87 72.1067 129.145 74.167 130.163 76.3541C130.313 76.6814 129.795 76.8845 129.645 76.5603Z" fill="black"/>
<path d="M125.852 79.1128C123.773 75.4168 121.253 71.9754 118.355 68.8787C115.427 65.7495 112.109 63.0245 108.547 60.6503C106.528 59.3034 104.424 58.0585 102.197 57.0874C101.869 56.9439 102.089 56.4345 102.418 56.5768C104.383 57.4326 106.248 58.5057 108.05 59.6632C109.896 60.8488 111.689 62.1305 113.396 63.5106C116.724 66.2025 119.727 69.3032 122.317 72.7138C123.783 74.6435 125.113 76.6738 126.301 78.7843C126.473 79.0913 126.026 79.4252 125.852 79.1128Z" fill="black"/>
<path d="M121.405 81.662C119.608 77.8188 117.295 74.227 114.558 70.9855C111.823 67.7458 108.664 64.8651 105.189 62.4389C103.216 61.0613 101.139 59.837 98.9812 58.7726C98.6611 58.6146 98.881 58.1034 99.2024 58.262C103.066 60.1665 106.671 62.5866 109.902 65.4371C113.129 68.2865 115.992 71.5559 118.376 75.1438C119.713 77.1566 120.898 79.2684 121.922 81.4583C122.074 81.7818 121.555 81.9849 121.405 81.662Z" fill="black"/>
<path d="M117.536 85.3049C115.857 81.3266 113.602 77.6067 110.873 74.2625C108.158 70.9348 104.978 67.9884 101.451 65.537C99.4559 64.1496 97.3507 62.9293 95.1578 61.884C94.8355 61.731 95.0555 61.2199 95.379 61.3734C99.3173 63.2492 102.979 65.6951 106.23 68.6038C109.481 71.5107 112.329 74.8722 114.649 78.5652C115.957 80.647 117.097 82.8335 118.054 85.1C118.193 85.4315 117.676 85.6352 117.536 85.3049Z" fill="black"/>
<path d="M113.621 87.8312C111.776 84.1118 109.505 80.6101 106.877 77.3988C104.248 74.1875 101.261 71.2727 97.987 68.7235C96.1297 67.2782 94.1802 65.9495 92.1517 64.755C91.8482 64.5758 92.0644 64.063 92.3729 64.2444C96.0087 66.3855 99.3961 68.9316 102.459 71.836C105.518 74.7376 108.257 77.9789 110.594 81.4898C111.904 83.4582 113.087 85.5095 114.138 87.6275C114.296 87.9463 113.778 88.1495 113.621 87.8312Z" fill="black"/>
<path d="M110.266 91.0878C106.411 84.2773 101.396 78.1401 95.4838 73.0149C93.8116 71.565 92.0693 70.1979 90.2657 68.9174C89.9741 68.7107 90.3225 68.2775 90.6141 68.4843C97.028 73.0417 102.652 78.705 107.172 85.1481C108.443 86.9607 109.624 88.8339 110.715 90.7593C110.887 91.0663 110.442 91.3995 110.266 91.0878Z" fill="black"/>
</g>
<path d="M151.633 50.2028C156.966 48.595 158.09 47.4005 159.329 41.9702C160.937 47.3037 162.132 48.4272 167.562 49.6734C162.229 51.2747 161.105 52.4757 159.865 57.8995C158.251 52.5661 157.057 51.449 151.633 50.2028Z" fill="#A79CEE"/>
<path d="M160.133 64.3661C162.511 63.6492 163.012 63.1166 163.565 60.6953C164.282 63.0734 164.814 63.5744 167.235 64.13C164.857 64.8441 164.356 65.3796 163.804 67.798C163.084 65.4199 162.551 64.9218 160.133 64.3661Z" fill="#A79CEE"/>
<path d="M148.508 61.1162C150.454 60.5296 150.863 60.0938 151.316 58.1128C151.902 60.0585 152.338 60.4684 154.319 60.923C152.373 61.5072 151.963 61.9454 151.511 63.9241C150.922 61.9783 150.487 61.5708 148.508 61.1162Z" fill="#A79CEE"/>
</g>
<defs>
<clipPath id="clip0_2192_34879">
<rect width="180.149" height="195" fill="white"/>
</clipPath>
<clipPath id="clip1_2192_34879">
<rect width="109.768" height="83.2947" fill="white" transform="matrix(-0.91761 -0.397482 -0.397482 0.91761 191.945 75.27)"/>
</clipPath>
</defs>
</svg>
