<svg width="141" height="302" viewBox="0 0 141 302" fill="none" xmlns="http://www.w3.org/2000/svg">
<path d="M98.0647 68.446C86.7518 88.8941 73.72 94.017 78.6257 103.37C84.8253 115.17 98.3399 113.229 104.641 104.548C110.947 95.8711 118.518 75.8092 118.518 75.8092C118.518 75.8092 127.411 42.9087 125.495 37.781L108.687 28.5781C104.868 32.5615 99.7691 65.3703 98.0647 68.446Z" fill="white" stroke="#101210" stroke-width="1.4" stroke-miterlimit="10" stroke-linecap="round" stroke-linejoin="round"/>
<path d="M125.5 37.7752L128.349 30.1029L111.56 20.8711L108.688 28.5772L125.5 37.7752Z" fill="white" stroke="#101210" stroke-width="1.4" stroke-miterlimit="10" stroke-linecap="round" stroke-linejoin="round"/>
<path d="M128.537 11.3891C125.848 10.578 118.108 11.9299 118.108 11.9299C118.108 11.9299 117.601 5.97171 114.376 6.25176C109.934 6.63803 114.342 17.9412 114.284 22.673L126.746 29.5293C126.746 29.5293 128.064 27.12 131.99 20.6741C133.627 17.9895 134.645 15.3725 134.872 12.8618C132.68 12.548 130.517 11.9927 128.537 11.3891Z" fill="white" stroke="#101210" stroke-width="1.4" stroke-miterlimit="10" stroke-linecap="round" stroke-linejoin="round"/>
<path d="M33.4468 96.2422C33.4468 96.2422 5.78508 100.322 6.51416 131.919C7.24325 163.521 3.50609 178.711 37.5026 182.796C57.859 185.239 77.1967 143.584 69.5244 117.902C64.3822 100.694 33.4468 96.2422 33.4468 96.2422Z" fill="white" stroke="#101210" stroke-width="1.4" stroke-miterlimit="10" stroke-linecap="round" stroke-linejoin="round"/>
<path d="M104.759 185.212C107.859 160.544 114.295 100.402 98.8923 93.6612C90.0854 89.8033 46.4418 89.9144 46.4418 89.9144C46.4418 89.9144 43.5448 92.0727 37.0796 95.7857C19.2725 106.003 30.4261 158.854 34.6074 187.718C38.6246 220.387 38.2722 261.307 38.2722 261.307L56.76 263.61C56.76 263.61 56.1564 254.76 61.0717 240.531C66.3491 225.249 69.4296 205.081 70.1684 196.124C72.597 205.887 79.9989 242.703 79.9989 242.703L95.9422 270.766C95.9422 270.775 101.659 209.885 104.759 185.212Z" fill="white" stroke="#101210" stroke-width="1.4" stroke-miterlimit="10" stroke-linecap="round" stroke-linejoin="round"/>
<path d="M96.4703 271.252L102.177 242.707C102.177 242.707 100.048 245.314 90.7053 245.314C84.9885 245.31 77.6735 242.726 77.6735 242.726C77.6735 242.726 78.7213 248.593 76.2926 255.879C73.8639 263.165 68.0312 270.272 68.0312 270.272L101.12 298.151C111.284 292.724 112.785 279.634 96.4703 271.252Z" fill="white" stroke="#101210" stroke-width="1.4" stroke-miterlimit="10" stroke-linecap="round" stroke-linejoin="round"/>
<path d="M99.3012 300.401C98.5479 299.768 97.9734 300.449 97.2201 299.812C96.4669 299.179 97.0415 298.498 96.2834 297.861C95.5302 297.228 94.9556 297.904 94.2072 297.272C93.454 296.639 94.0286 295.954 93.2705 295.321C92.5173 294.689 91.9476 295.365 91.1943 294.732C90.4411 294.095 91.0109 293.419 90.2625 292.786C89.5092 292.154 88.9347 292.83 88.1814 292.197C87.4282 291.565 87.998 290.884 87.2447 290.251C86.4963 289.619 85.9218 290.3 85.1685 289.662C84.4153 289.03 84.9899 288.349 84.2318 287.716C83.4786 287.084 82.9089 287.755 82.1556 287.127C81.4024 286.495 81.977 285.814 81.2237 285.182C80.4705 284.549 79.8959 285.225 79.1427 284.593C78.3895 283.955 78.9592 283.279 78.2108 282.642C77.4576 282.005 76.883 282.69 76.1346 282.053C75.3814 281.42 75.9512 280.739 75.1979 280.102C74.4447 279.47 73.875 280.146 73.1217 279.518C72.3685 278.881 72.9431 278.205 72.1899 277.567C71.4366 276.935 70.8621 277.611 70.1137 276.978C69.3604 276.346 69.9302 275.665 69.177 275.028C68.4237 274.395 67.8492 275.076 67.1008 274.438C66.3475 273.806 66.9173 273.125 66.1641 272.488L68.023 270.281L101.15 298.199L99.3012 300.401Z" fill="white" stroke="#101210" stroke-width="1.4" stroke-miterlimit="10" stroke-linecap="round" stroke-linejoin="round"/>
<path d="M56.3796 271.252L62.0915 242.707C62.0915 242.707 59.9622 245.314 50.6193 245.314C44.9025 245.31 37.5876 242.726 37.5876 242.726C37.5876 242.726 38.6353 248.593 36.2067 255.879C33.778 263.165 27.9453 270.272 27.9453 270.272L61.0341 298.151C71.193 292.724 72.6946 279.634 56.3796 271.252Z" fill="white" stroke="#101210" stroke-width="1.4" stroke-miterlimit="10" stroke-linecap="round" stroke-linejoin="round"/>
<path d="M59.2164 300.401C58.4631 299.768 57.8886 300.449 57.1353 299.812C56.3821 299.179 56.9567 298.498 56.1986 297.861C55.4454 297.228 54.8708 297.904 54.1176 297.272C53.3644 296.639 53.939 295.954 53.1857 295.321C52.4325 294.689 51.8579 295.365 51.1095 294.732C50.3563 294.095 50.9261 293.419 50.1777 292.786C49.4244 292.154 48.8499 292.83 48.0966 292.197C47.3434 291.565 47.9131 290.884 47.1648 290.251C46.4115 289.619 45.837 290.3 45.0837 289.662C44.3353 289.03 44.9051 288.349 44.1519 287.716C43.3986 287.084 42.824 287.755 42.0757 287.127C41.3224 286.495 41.897 285.814 41.1438 285.182C40.3905 284.549 39.816 285.225 39.0676 284.593C38.3144 283.955 38.8841 283.279 38.1309 282.642C37.3776 282.005 36.8031 282.69 36.0547 282.053C35.3014 281.42 35.8712 280.739 35.1228 280.102C34.3696 279.47 33.795 280.146 33.0466 279.518C32.2934 278.881 32.868 278.205 32.1147 277.567C31.3615 276.935 30.7918 277.611 30.0385 276.978C29.2853 276.346 29.8599 275.665 29.1067 275.028C28.3534 274.395 27.7789 275.076 27.0305 274.438C26.2772 273.806 26.847 273.125 26.0938 272.488L27.9527 270.281L61.0849 298.199L59.2164 300.401Z" fill="white" stroke="#101210" stroke-width="1.4" stroke-miterlimit="10" stroke-linecap="round" stroke-linejoin="round"/>
<path d="M35.1484 143.836C40.2133 121.022 43.907 104.838 43.907 104.838C34.6221 95.2726 22.2084 100.965 18.6209 111.071C15.0334 121.182 11.2866 139.737 11.2818 142.161C11.2528 153.966 12.4551 172.338 16.7716 175.699L35.9113 174.728C37.0701 169.335 34.3855 147.269 35.1484 143.836Z" fill="white" stroke="#101210" stroke-width="1.4" stroke-miterlimit="10" stroke-linecap="round" stroke-linejoin="round"/>
<path d="M16.7656 175.693L18.359 183.728L37.4938 182.796L35.9053 174.723L16.7656 175.693Z" fill="white" stroke="#101210" stroke-width="1.4" stroke-miterlimit="10" stroke-linecap="round" stroke-linejoin="round"/>
<path d="M20.0234 183.382C20.0234 183.382 20.1635 186.124 20.1973 193.671C20.2311 201.223 23.0219 206.587 30.6169 208.021C38.2071 209.46 41.2538 206.833 39.5542 199.861C38.9265 197.283 36.5992 193.85 36.5992 193.85C36.5992 193.85 40.1529 198.654 42.7554 196.727C46.3332 194.072 36.6572 186.752 34.2285 182.691L20.0234 183.382Z" fill="white" stroke="#101210" stroke-width="1.4" stroke-miterlimit="10" stroke-linecap="round" stroke-linejoin="round"/>
<path d="M31.375 194.383C31.375 194.383 34.7983 203.542 38.2699 207.342" stroke="#101210" stroke-width="1.4" stroke-miterlimit="10" stroke-linecap="round" stroke-linejoin="round"/>
<path d="M33.4432 208.389C33.4432 208.389 29.3632 205.24 27.625 195.043" stroke="#101210" stroke-width="1.4" stroke-miterlimit="10" stroke-linecap="round" stroke-linejoin="round"/>
<path d="M27.9519 207.29C27.9519 207.29 24.0023 201.853 24.2196 194.828" stroke="#101210" stroke-width="1.4" stroke-miterlimit="10" stroke-linecap="round" stroke-linejoin="round"/>
<path d="M11.875 76.7484C11.875 76.7484 17.5676 89.7705 23.8204 94.0581C30.0731 98.3505 18.5285 100.794 19.7356 104.198C21.5173 109.224 43.5346 115.593 59.3089 111.831C90.9492 104.275 100.92 93.7925 100.92 93.7925C100.92 81.3064 89.5538 80.1427 89.5538 80.1427C89.5538 80.1427 89.9932 74.4453 87.2603 71.9297L11.875 76.7484Z" fill="white" stroke="#101210" stroke-width="1.4" stroke-miterlimit="10" stroke-linecap="round" stroke-linejoin="round"/>
<path d="M83.0388 21.9502C97.9439 41.732 93.9895 69.8573 74.2029 84.7624C54.421 99.6628 26.2909 95.7083 11.3906 75.9217C-3.51458 56.1399 0.439859 28.0146 20.2265 13.1094C40.0132 -1.79092 68.1336 2.16351 83.0388 21.9502Z" fill="white" stroke="#101210" stroke-width="1.4" stroke-miterlimit="10" stroke-linecap="round" stroke-linejoin="round"/>
<path d="M29.9981 27.8884C20.9788 56.1392 37.2407 74.2987 37.2407 74.2987C37.2407 74.2987 79.6483 87.2435 91.695 43.1171C91.695 43.1171 90.9129 26.2612 77.77 14.5524C64.6224 2.8388 48.0804 3.17679 48.0804 3.17679C48.0804 3.17679 35.8743 9.48747 29.9981 27.8884Z" fill="#101210"/>
<path d="M91.6784 54.7571C75.938 94.2966 32.2364 78.0636 32.2364 78.0636C32.2364 78.0636 6.52532 36.3465 38.2332 4.97656" stroke="#101210" stroke-width="1.4" stroke-miterlimit="10" stroke-linecap="round" stroke-linejoin="round"/>
<path d="M33.2343 47.1603C32.877 55.3878 38.7483 66.4206 42.5531 65.9233C46.3578 65.4308 38.9897 53.4371 40.5493 46.4746C42.2006 39.1596 33.5965 38.8603 33.2343 47.1603Z" fill="white"/>
<path d="M32.5058 33.1671C31.5691 34.8474 32.1968 37.0347 33.8771 37.9617L34.2054 38.1452C35.8857 39.077 38.0729 38.459 39.0048 36.7739C39.9415 35.0936 39.3186 32.9064 37.6335 31.9745L37.3052 31.7959C35.6249 30.8592 33.4377 31.482 32.5058 33.1671Z" fill="white"/>
<path d="M83.8445 42.3793C82.8644 41.8965 81.6862 42.2876 81.3676 43.3933C80.5033 46.4159 75.0762 55.5318 79.7742 57.6128C83.3665 59.2014 85.3606 55.6429 85.998 51.7512C87.3596 48.2024 87.3403 44.0886 83.8445 42.3793Z" fill="white"/>
<path d="M25.3912 81.3821C20.0607 82.4105 11.3889 80.0833 5.28101 73.9802C0.872713 69.5816 0.283652 63.044 4.23809 61.832C4.23809 61.832 9.31753 77.4808 25.5022 74.5113L25.3912 81.3821Z" fill="white" stroke="#101210" stroke-width="1.4" stroke-miterlimit="10" stroke-linecap="round" stroke-linejoin="round"/>
<path d="M37.6747 72.7355C40.62 75.7387 40.5669 80.5574 37.5684 83.4979C34.5652 86.4432 29.7465 86.3949 26.8012 83.3917C23.8559 80.3933 23.909 75.5697 26.9074 72.6293C29.9155 69.6888 34.7342 69.7322 37.6747 72.7355Z" fill="white" stroke="#101210" stroke-width="1.4" stroke-miterlimit="10" stroke-linecap="round" stroke-linejoin="round"/>
<path d="M34.5582 75.797C35.8136 77.0717 35.7894 79.1237 34.5147 80.3791C33.2352 81.6296 31.1832 81.6152 29.9326 80.3356C28.6821 79.0561 28.7014 77.0041 29.9809 75.7535C31.2556 74.503 33.3028 74.5223 34.5582 75.797Z" fill="white" stroke="#101210" stroke-width="1.4" stroke-miterlimit="10" stroke-linecap="round" stroke-linejoin="round"/>
<path d="M24.8594 94.9766C24.8594 94.9766 42.874 108.414 64.9976 101.519" stroke="#101210" stroke-width="1.4" stroke-miterlimit="10" stroke-linecap="round" stroke-linejoin="round"/>
<path d="M89.5586 80.1406C89.5586 80.1406 84.1605 90.7534 77.2656 95.2438" stroke="#101210" stroke-width="1.4" stroke-miterlimit="10" stroke-linecap="round" stroke-linejoin="round"/>
<path d="M102.608 122.396C102.608 122.396 100.049 119.301 94.6074 120.146C89.161 120.986 60.8861 125.356 60.8861 125.356C58.6023 125.356 56.7578 127.205 56.7578 129.484V167.078C56.7578 169.362 58.6071 171.206 60.8861 171.206L98.4798 165.398C99.6096 165.398 103.236 161.284 103.236 161.284L102.608 122.396Z" fill="white" stroke="#101210" stroke-width="1.4" stroke-miterlimit="10" stroke-linecap="round" stroke-linejoin="round"/>
<path d="M104.192 158.819C104.192 160.847 102.55 162.494 100.522 162.494L67.1149 167.65C65.087 167.65 63.4453 166.004 63.4453 163.981V130.573C63.4453 128.545 65.087 126.904 67.1149 126.904L100.522 121.742C102.55 121.742 104.192 123.389 104.192 125.417V158.819Z" fill="white" stroke="#101210" stroke-width="1.4" stroke-miterlimit="10" stroke-linecap="round" stroke-linejoin="round"/>
<path d="M58.9141 169.665L64.3653 166.406" stroke="#101210" stroke-width="1.4" stroke-miterlimit="10" stroke-linecap="round" stroke-linejoin="round"/>
<path d="M57.8984 126.637L63.8808 128.829" stroke="#101210" stroke-width="1.4" stroke-miterlimit="10" stroke-linecap="round" stroke-linejoin="round"/>
<path d="M138.524 16.3157C135.169 20.6467 130.379 21.2165 124.937 18.107C118.231 14.2829 117.125 9.52699 123.431 6.09885L118.516 7.64393C123.629 -0.554645 126.796 0.266177 135.912 6.03608C140.977 9.23729 140.601 13.6359 138.524 16.3157Z" fill="white" stroke="#2D1C07" stroke-width="1.4" stroke-miterlimit="10" stroke-linecap="round" stroke-linejoin="round"/>
<path d="M129.738 7.64453C129.738 7.64453 128.159 12.7385 119.859 12.6226" stroke="#2D1C07" stroke-width="1.4" stroke-miterlimit="10" stroke-linecap="round" stroke-linejoin="round"/>
<path d="M122.555 16.5514C122.555 16.5514 129.498 17.4012 133.365 9.94141" stroke="#2D1C07" stroke-width="1.4" stroke-miterlimit="10" stroke-linecap="round" stroke-linejoin="round"/>
<path d="M127.445 19.2783C127.445 19.2783 135.88 18.2692 137.073 11.3984" stroke="#2D1C07" stroke-width="1.4" stroke-miterlimit="10" stroke-linecap="round" stroke-linejoin="round"/>
</svg>
