<svg width="49" height="48" viewBox="0 0 49 48" fill="none" xmlns="http://www.w3.org/2000/svg">
<rect x="0.5" y="48" width="48" height="48" rx="24" transform="rotate(-90 0.5 48)" fill="white"/>
<path d="M34.5 17V23H28.5" stroke="#383737" stroke-width="2.5" stroke-linecap="square"/>
<path d="M31.9899 28C31.3399 29.8399 30.1094 31.4187 28.484 32.4985C26.8586 33.5783 24.9263 34.1006 22.9783 33.9866C21.0303 33.8726 19.172 33.1286 17.6836 31.8667C16.1952 30.6047 15.1573 28.8932 14.7262 26.9901C14.2952 25.0869 14.4944 23.0952 15.2937 21.3151C16.0931 19.535 17.4494 18.0629 19.1582 17.1207C20.867 16.1784 22.8358 15.8171 24.7678 16.0912C26.6999 16.3652 28.4905 17.2598 29.8699 18.64L34 22.5" stroke="#383737" stroke-width="2.5" stroke-linecap="square" stroke-linejoin="round"/>
</svg>
