<svg width="49" height="79" viewBox="0 0 49 79" fill="none" xmlns="http://www.w3.org/2000/svg">
<path d="M5.38577 13.9054L2.39076 15.7192L1.19275 18.1376L0.59375 23.5789L2.39076 27.8111L5.38577 30.2294L10.1778 36.6532L11.9748 38.6937L10.7768 41.7167L10.1778 45.3442L8.38078 48.9718L5.98477 53.2039H4.18776L1.79175 55.6223L3.58876 58.0406L4.78677 59.2498L5.98477 63.4819L14.3708 65.2957H18.5638L21.5588 65.9003L23.9548 67.1095L29.9449 65.2957L32.9399 64.6911L35.9349 65.2957L40.1279 64.6911L43.7219 61.6682L46.1179 56.8314V54.4131L41.9249 51.9947L38.9299 47.7626L38.3309 44.7396V41.1121L36.5339 38.0891L41.9249 32.6479L43.7219 28.4155C44.3209 25.3926 47.9149 8.46425 35.3359 3.0228C22.625 -2.47567 21.5588 1.81362 17.9648 1.81362C14.3708 1.81362 10.7768 6.65035 9.57878 6.65035C8.62038 6.65035 6.3841 11.4871 5.38577 13.9054Z" fill="white"/>
<path d="M21.0935 0.0792465C20.2145 0.158463 18.4485 0.459488 18.0483 0.602081C17.8756 0.665459 17.7108 0.689224 17.6715 0.665459C17.6323 0.641693 17.6009 0.665459 17.6009 0.705063C17.6009 0.752594 17.5381 0.792206 17.4675 0.792206C17.0672 0.800125 14.4772 1.81411 14.3987 1.99632C14.383 2.03592 14.3202 2.05968 14.2574 2.05968C13.9984 2.05968 12.3424 3.1212 12.3424 3.28756C12.3424 3.31133 12.2168 3.43808 12.0677 3.57275C11.9186 3.70741 11.8087 3.84208 11.8322 3.88169C11.8479 3.91338 11.5811 4.15895 11.2357 4.43622C10.3959 5.0858 8.08062 7.42272 8.01783 7.6683C8.00998 7.69999 7.80592 7.99309 7.55477 8.31788C7.31146 8.64267 7.07601 8.97539 7.02892 9.06253C6.95043 9.20512 6.95043 9.20512 6.89549 9.06253C6.8641 8.98331 6.8641 8.9437 6.89549 8.96747C6.92689 8.99915 7.06816 8.86448 7.22513 8.66644C7.40565 8.42879 7.46843 8.27827 7.40565 8.24659C7.28792 8.16737 7.53907 7.81881 7.68035 7.87426C7.74313 7.89803 7.76668 7.87426 7.74313 7.81089C7.71959 7.75544 7.84516 7.58908 8.02568 7.43857C8.31608 7.18507 8.45735 6.97118 8.24544 7.09793C8.16695 7.14546 8.1748 7.1217 8.24544 7.03456C8.30823 6.96326 8.40241 6.92365 8.4652 6.94742C8.52799 6.97118 8.57508 6.95534 8.57508 6.90781C8.57508 6.81275 9.61108 5.75123 11.0788 4.33323C11.6596 3.77871 12.0912 3.32717 12.0363 3.32717C11.9892 3.32717 11.9499 3.35886 11.9499 3.40639C11.9499 3.446 11.9029 3.4856 11.8479 3.4856C11.793 3.4856 11.6674 3.56482 11.5575 3.65989C11.4476 3.76287 11.1808 3.97675 10.9689 4.14311C10.0977 4.80062 8.95181 5.93343 8.12771 6.96326C8.00214 7.10585 7.77453 7.37519 7.61756 7.55739C7.45274 7.73167 7.30362 7.94556 7.27222 8.01686C7.24868 8.09607 7.19374 8.15945 7.15449 8.15945C7.11525 8.15945 7.08386 8.22282 7.08386 8.29412C7.08386 8.41294 7.09955 8.42086 7.16234 8.31788C7.20158 8.25451 7.25652 8.23074 7.28792 8.26243C7.31931 8.28619 7.1388 8.51593 6.89549 8.7615C6.62864 9.03084 6.46382 9.25265 6.48737 9.32395C6.51091 9.38732 6.49522 9.41109 6.45597 9.38732C6.40888 9.36356 6.35394 9.40316 6.32255 9.48238C6.299 9.5616 6.20482 9.72004 6.12634 9.83886C5.90658 10.1637 5.27869 11.4549 5.27869 11.5896C5.27869 11.6609 5.2473 11.7322 5.20806 11.7639C5.16881 11.7876 5.01969 12.1283 4.87842 12.5243C4.65866 13.1422 4.58802 13.2611 4.39966 13.3244C4.1485 13.4116 4.13281 13.4433 4.29763 13.6255C4.41535 13.7522 4.39966 13.776 4.13281 13.9344C3.97584 14.0295 3.82671 14.0928 3.80317 14.0691C3.78747 14.0453 3.85811 13.9819 3.97584 13.9344C4.21129 13.8235 4.22699 13.7601 4.06217 13.6255C3.97584 13.5462 3.9209 13.5542 3.81887 13.6572C3.75608 13.7285 3.62265 13.8235 3.52847 13.879C3.05756 14.1245 1.66837 15.6455 1.66837 15.899C1.66837 15.9465 1.61343 16.0337 1.53494 16.0891C1.35443 16.2397 0.781483 17.4913 0.546027 18.2597C0.357662 18.8301 0.224237 19.4955 0.0358723 20.6521C-0.026916 20.9927 -0.011219 21.0957 0.114358 21.3017C0.200691 21.4363 0.302722 21.5235 0.341965 21.4997C0.381208 21.4759 0.412602 21.5393 0.412602 21.6423C0.404753 21.8245 0.404753 21.8245 0.216389 21.6027L0.0201752 21.3809L0.0123267 21.7611C-0.011219 23.1791 0.161449 24.3436 0.569573 25.6032C0.828574 26.3874 1.42506 27.6391 1.73116 28.0272C1.84888 28.1777 1.99801 28.3837 2.06864 28.4867C2.3198 28.8669 3.0811 29.6037 3.6305 29.9998C3.86596 30.1661 4.99615 30.7127 5.22375 30.7682C5.34148 30.7919 5.43566 30.8632 5.43566 30.9187C5.43566 31.093 6.03215 32.202 6.11849 32.1862C6.16558 32.1782 6.18912 32.2337 6.16558 32.305C6.12634 32.4713 6.43243 32.8991 6.54231 32.8278C6.5894 32.8041 6.6051 32.7328 6.58155 32.6694C6.558 32.6139 6.58155 32.5426 6.62864 32.511C6.68358 32.4793 6.69143 32.4872 6.66004 32.5426C6.62864 32.5981 6.63649 32.6377 6.67573 32.6377C6.71498 32.6377 6.76992 32.709 6.79346 32.7882C6.81701 32.8912 6.79346 32.9308 6.73067 32.907C6.45597 32.7961 6.56585 33.113 7.05246 33.8339C7.34286 34.2617 7.6411 34.6815 7.70389 34.7607C7.77453 34.832 7.92365 35.0222 8.04138 35.1727C8.49659 35.7826 9.50121 36.7729 9.60324 36.7174C9.66602 36.6699 9.68172 36.6857 9.63463 36.7491C9.60324 36.8125 9.69742 36.963 9.91718 37.169C10.4823 37.6839 10.8276 37.9453 10.8825 37.8898C10.9061 37.8661 10.9296 37.8898 10.9296 37.9453C10.9296 38.0007 10.9846 38.0879 11.0474 38.1354C11.1494 38.2146 11.1415 38.2542 10.9689 38.4364C10.859 38.5632 10.7805 38.6582 10.8041 38.6582C10.8276 38.6582 10.7648 38.7454 10.6628 38.8563C10.5608 38.9672 10.4273 39.1732 10.3724 39.3158C10.3175 39.4504 10.2468 39.5851 10.2233 39.6089C10.082 39.7198 9.65033 41.1932 9.76021 41.1932C9.89363 41.1932 10.1291 40.8526 10.184 40.5753C10.239 40.2822 10.4273 39.8465 10.5058 39.8465C10.5215 39.8465 10.4901 39.9416 10.4273 40.0604C10.3724 40.1871 10.2939 40.409 10.2704 40.5595C10.239 40.71 10.184 40.9239 10.1369 41.0348C10.0977 41.1457 10.0349 41.4784 9.98781 41.7873L9.91718 42.3419L9.94857 41.8032C9.96427 41.5101 9.96427 41.2724 9.93287 41.2724C9.90933 41.2724 9.823 41.3437 9.75236 41.4388C9.55614 41.6606 9.47766 42.6033 9.49336 44.7026L9.50905 46.4295L9.2579 46.683C8.86547 47.0791 8.03353 48.1644 7.49983 48.9565C7.33501 49.1942 7.18589 49.4081 7.15449 49.4319C7.13095 49.4556 7.00537 49.6457 6.89549 49.8675C6.77776 50.0814 6.59725 50.4062 6.48737 50.5805C6.38534 50.7548 6.18127 51.135 6.04785 51.4281L5.78885 51.951L5.31794 52.046C3.6148 52.3867 2.24131 53.2818 1.63697 54.4463C1.43291 54.8503 1.40937 54.9612 1.41721 55.6663C1.42506 56.6169 1.45646 56.9496 1.53494 56.9021C1.56634 56.8862 1.58988 56.91 1.58988 56.9575C1.58988 57.0051 1.69976 57.2031 1.82534 57.3932C1.95876 57.5833 2.06079 57.7576 2.06079 57.7893C2.06079 57.9715 3.30086 58.93 3.69329 59.0568C3.9209 59.1202 4.1642 58.9538 4.00723 58.835C3.93659 58.7875 3.94444 58.7795 4.04647 58.8112C4.12496 58.835 4.22699 58.8588 4.26623 58.8588C4.39181 58.8588 4.34472 59.0013 4.1956 59.0489C4.07787 59.0885 4.06217 59.1915 4.07787 59.8648C4.10926 60.9263 4.11711 60.958 4.32902 61.2036C4.47029 61.37 4.52523 61.3937 4.58802 61.3066C4.64296 61.2115 4.65081 61.2194 4.63511 61.3145C4.62726 61.3779 4.6822 61.5522 4.76069 61.6947C4.9569 62.075 4.87057 62.0829 4.61157 61.7106C4.18775 61.0848 4.17205 61.4729 4.59587 62.2651C5.04324 63.0969 5.34933 63.4771 5.98506 63.9683C6.41673 64.301 7.64895 64.9585 7.84516 64.9585C7.9001 64.9585 7.9472 64.9902 7.9472 65.0298C7.9472 65.0694 8.06492 65.1249 8.2062 65.1566C8.33962 65.1882 8.61432 65.2675 8.81053 65.3308C10.5137 65.9012 13.9827 66.2022 16.5335 65.9883C17.5381 65.9091 17.805 65.9091 18.0169 65.9963C18.1503 66.0517 18.2837 66.1151 18.3073 66.1468C18.3308 66.1705 18.7232 66.3131 19.1863 66.4557C19.8848 66.6855 20.0418 66.7092 20.1438 66.63C20.2145 66.5746 20.2458 66.4953 20.2223 66.4557C20.1752 66.3686 20.2537 66.3765 20.4656 66.4636C20.5519 66.5033 20.5755 66.5349 20.5205 66.5349C20.3793 66.5429 20.1752 66.7568 20.2537 66.8122C20.4028 66.8993 21.5095 67.0974 21.6272 67.0499C21.69 67.0261 21.847 67.0736 21.9647 67.1528C22.1609 67.2796 22.3963 67.2954 24.0288 67.3113C25.0492 67.3192 26.1793 67.2875 26.5482 67.2479C27.7647 67.1053 29.3266 66.6696 30.8257 66.0517C31.1318 65.925 31.3201 65.9012 31.7675 65.9329C32.1442 65.9567 32.364 65.9408 32.4582 65.8695C32.6622 65.719 32.623 65.6794 32.2227 65.6477C31.8852 65.6239 31.8931 65.616 32.3404 65.6081C32.8349 65.5923 32.9291 65.6477 32.7093 65.8299C32.6465 65.8854 32.5916 65.9646 32.5916 66.0042C32.5916 66.0517 33.3921 66.0596 34.6558 66.0438C37.9678 65.9804 39.9221 65.5923 42.002 64.5941C42.5435 64.3327 42.5671 64.3089 42.4494 64.1743C42.2767 63.9841 42.2845 63.9524 42.5514 63.8178C42.677 63.7465 42.9831 63.493 43.2264 63.2395C43.6188 62.8434 43.6502 62.8276 43.4304 63.1127C43.2892 63.3029 43.0145 63.5643 42.8261 63.7069C42.6377 63.8415 42.4808 63.9762 42.4808 63.9921C42.4808 64.0158 42.5435 64.0713 42.6142 64.1267C42.7241 64.2139 42.8261 64.1426 43.3205 63.6673C44.3487 62.6691 44.8353 61.5522 44.8824 60.0945L44.9059 59.2232L45.4475 58.9697C45.8399 58.7875 46.1617 58.5498 46.5541 58.1537C47.1114 57.5833 47.2605 57.314 47.1349 57.0764C47.0721 56.9734 47.0172 57.013 46.8053 57.314C46.664 57.5121 46.5306 57.6705 46.5149 57.6705C46.4914 57.6705 46.5777 57.52 46.7111 57.3378C46.8445 57.1556 46.9544 56.9655 46.9544 56.91C46.9544 56.8625 47.0172 56.7674 47.0878 56.712C47.182 56.6327 47.2056 56.6248 47.1585 56.704C47.1035 56.7991 47.2291 57.0367 47.3468 57.0367C47.4489 57.0367 47.6058 55.9594 47.5666 55.4445C47.5195 54.6523 47.0329 53.7888 46.2873 53.1709C46.201 53.0917 46.1303 53.0838 46.0597 53.1472C46.0047 53.1947 45.9263 53.2026 45.887 53.1709C45.8556 53.1392 45.8713 53.1868 45.9341 53.266C46.0204 53.3848 45.9263 53.3531 45.5652 53.1551C45.2984 53.0046 45.0943 52.862 45.11 52.8382C45.1649 52.7431 44.6469 52.3154 44.3644 52.2282C44.2153 52.1728 43.8621 52.0936 43.5952 52.0381C43.2656 51.9747 43.0851 51.9034 43.0615 51.8163C42.9595 51.4677 42.0962 49.8121 41.9941 49.7646C41.9549 49.7487 41.9314 49.7012 41.9314 49.6616C41.9314 49.5744 41.3192 48.7189 41.2564 48.7189C41.2328 48.7189 41.2407 48.7664 41.2721 48.814C41.3035 48.8694 41.3035 48.8932 41.2642 48.8615C41.2328 48.8298 41.1543 48.8377 41.0994 48.8852C41.0366 48.9407 40.9895 48.9328 40.9424 48.8694C40.911 48.814 40.9189 48.7981 40.966 48.8219C41.0131 48.8536 41.0916 48.8219 41.1465 48.7585C41.225 48.6634 41.1779 48.5525 40.8718 48.1248C40.6756 47.8396 40.4244 47.5227 40.3146 47.4118C40.2125 47.3088 40.1262 47.1979 40.1262 47.1741C40.1262 47.1425 40.0713 47.0712 40.0085 46.9999C39.9064 46.9048 39.8672 46.8969 39.7652 46.984C39.7024 47.0395 39.671 47.1345 39.6945 47.2058C39.7495 47.3484 39.7495 47.3484 39.3021 46.8335C39.1373 46.6513 39.0588 46.5166 39.1137 46.5404C39.1765 46.5642 39.2942 46.6672 39.3727 46.7781C39.514 46.9682 39.7338 46.9682 39.7338 46.7701C39.7338 46.7147 39.671 46.6196 39.6003 46.5642C39.4748 46.4691 39.4591 46.2711 39.4591 44.4807C39.4512 42.3894 39.3649 41.4546 39.0902 40.5357C38.8861 39.8465 38.5329 38.9989 38.3681 38.8088C38.2975 38.7216 38.2582 38.6582 38.2818 38.6582C38.3053 38.6582 38.2504 38.587 38.1641 38.4998C38.0777 38.4127 38.0071 38.3097 38.0071 38.2701C38.0071 38.2305 38.1562 38.08 38.3446 37.9215C39.1294 37.264 39.1451 37.2561 39.0274 37.1135C38.9332 37.0026 38.9097 37.0026 38.7213 37.169C38.5408 37.3274 38.5486 37.3195 38.7448 37.0977L38.9725 36.8442L39.1059 37.0184L39.2393 37.1848L39.5846 36.8204C40.6442 35.7114 41.8529 34.3013 41.8529 34.1904C41.8529 34.1587 41.8843 34.0953 41.9314 34.0399C42.2296 33.6675 42.3944 33.4457 42.4808 33.2794C42.5671 33.113 42.5592 33.0734 42.4023 32.9546C42.2296 32.8199 42.2296 32.8199 42.3709 32.5902C42.6534 32.1307 42.7241 32.0753 42.8496 32.202C42.9124 32.2654 42.9988 32.3208 43.0458 32.3208C43.0929 32.3208 43.1086 32.2971 43.0851 32.2733C43.0537 32.2416 43.1086 32.1545 43.2028 32.0753L43.3676 31.9247L43.1636 31.7584L42.9517 31.6L43.1243 31.2672C43.2107 31.085 43.2813 30.9187 43.2735 30.8949C43.2656 30.8791 43.297 30.8474 43.3441 30.8315C43.3912 30.8157 43.4304 30.8474 43.4147 30.9028C43.3833 31.1484 43.4304 31.291 43.5403 31.291C43.6031 31.291 43.6502 31.2672 43.6423 31.2276C43.6031 31.0137 43.9641 30.578 44.1839 30.578C44.2624 30.578 44.4664 30.4909 44.6312 30.3879C44.9059 30.2216 44.9216 30.1978 44.7882 30.1186C44.6783 30.0552 44.5763 30.0711 44.3487 30.1899C44.1917 30.2691 44.0112 30.3404 43.9563 30.3404C43.9013 30.3404 44.0191 30.2533 44.2231 30.1503C44.4193 30.0552 44.7097 29.8809 44.8667 29.7621C45.1885 29.5165 45.2827 29.5007 45.4789 29.6829C45.6202 29.8096 45.6359 29.8017 45.7928 29.6433C46.0204 29.4135 45.887 29.2472 45.6123 29.3977L45.424 29.4928L45.5809 29.3026C45.6673 29.1997 45.8399 29.0095 45.9655 28.8828L46.1931 28.6531L46.3579 28.8432C46.4521 28.9462 46.5149 29.0175 46.507 29.0095C46.4992 28.9937 46.6719 28.756 46.8838 28.4946C47.3939 27.8609 47.6843 27.346 47.6294 27.2034C47.6058 27.14 47.6137 27.1004 47.6529 27.1242C47.8884 27.2747 48.634 25.112 48.8773 23.5752C48.9165 23.3138 48.893 23.2346 48.7203 23.0524C48.5398 22.8622 48.5241 22.8068 48.5869 22.5691L48.6654 22.2998L48.6732 22.5454C48.6811 22.68 48.7282 22.8385 48.791 22.8939C49.2226 23.2504 48.9322 19.7252 48.4064 18.1805C48.1317 17.3725 47.7393 16.5486 47.6529 16.604C47.6137 16.6278 47.598 16.5961 47.6215 16.5407C47.6843 16.3743 47.2134 15.6851 47.0721 15.7327C47.0094 15.7643 46.9544 15.8356 46.9544 15.899C46.9544 15.9624 46.9937 15.9862 47.0486 15.9545C47.1035 15.9149 47.1114 15.9307 47.0721 16.002C47.0251 16.0812 46.9858 16.0733 46.9073 15.9624C46.821 15.8515 46.8288 15.804 46.923 15.7089C46.978 15.6455 47.0329 15.5425 47.0329 15.4871C47.0329 15.3445 45.6751 13.9661 45.471 13.9027C45.3769 13.879 45.3062 13.8235 45.3062 13.7918C45.3062 13.7601 45.1336 13.6334 44.9216 13.5225C44.6548 13.372 44.5135 13.2294 44.4507 13.0551C43.9641 11.7242 43.5717 10.8528 42.9752 9.79925C42.6848 9.28434 42.4651 8.98331 42.3159 8.90409C42.0726 8.78527 41.8136 8.36541 41.8921 8.23074C41.9392 8.16737 41.6567 7.74752 40.9503 6.82067C40.8169 6.63847 39.1608 4.96698 38.8704 4.71348C38.1954 4.12727 37.6774 3.72326 37.2301 3.446C37.1594 3.39846 36.9554 3.26379 36.7749 3.13705C36.4609 2.92316 36.2019 2.89939 36.2019 3.0816C36.2019 3.12913 36.3353 3.23211 36.5002 3.31925C36.6571 3.40639 36.9004 3.57275 37.026 3.69157L37.2615 3.89754L36.9868 3.70741C36.8377 3.60443 36.5394 3.41431 36.3353 3.29549C35.9822 3.08952 35.9665 3.06575 36.0763 2.939C36.147 2.85979 36.2019 2.78057 36.2019 2.74888C36.2019 2.72511 35.9979 2.60629 35.7546 2.48746C35.5034 2.36864 35.1738 2.19436 35.0246 2.0993C34.7342 1.92502 33.557 1.41802 32.6465 1.07738C31.9088 0.800125 30.4882 0.427803 29.7269 0.316902C29.3815 0.261444 28.9734 0.198074 28.8243 0.166382C28.4554 0.0871658 27.4508 0.055481 27.2546 0.118851C27.0427 0.182228 27.0584 0.301056 27.2781 0.34066C27.3723 0.356506 27.2781 0.380272 27.0584 0.380272C26.7287 0.388191 26.6895 0.372353 26.8386 0.301056C27.1918 0.126778 27.1212 3.05176e-05 26.666 3.05176e-05C26.4305 3.05176e-05 26.2343 0.0237961 26.2343 0.0475616C26.2343 0.110931 26.4226 0.28521 26.5482 0.34066C26.611 0.364426 25.575 0.380272 24.2329 0.372353L21.7999 0.356506L24.0288 0.34066C26.2186 0.316902 26.2578 0.308975 26.1166 0.158463C25.991 0.0158691 25.8576 0.00794983 23.8876 0.0158691C22.7417 0.0158691 21.4859 0.0475616 21.0935 0.0792465ZM28.8557 1.78242C29.3266 1.85372 30.1585 2.028 30.7001 2.16267L31.689 2.41617L31.7126 6.75729L31.7283 11.0905H24.4684H17.2085L17.2242 6.7969L17.2477 2.51123L17.6794 2.36072C18.3073 2.14683 20.2694 1.75866 21.172 1.67152C22.4591 1.5527 27.8432 1.62399 28.8557 1.78242ZM33.0233 2.93108C34.9383 3.69949 36.8769 4.98282 38.5094 6.57509C39.3335 7.38311 40.393 8.63475 40.8012 9.27642C40.911 9.45862 41.0288 9.56952 41.0837 9.53783C41.1386 9.50615 41.1465 9.51407 41.1151 9.56952C41.0837 9.61705 41.2407 9.95769 41.4604 10.3221C42.5828 12.2075 43.3362 14.378 43.713 16.7942C43.917 18.125 43.9249 24.0901 43.713 25.3972C43.3912 27.4489 42.7476 29.469 41.8764 31.1563C41.4369 32.004 40.4637 33.4457 39.7102 34.3409C37.2222 37.3353 33.6825 39.4504 29.8446 40.2347C28.3926 40.5357 27.6627 40.5753 24.1152 40.5436C20.9915 40.5119 20.6226 40.4961 19.7592 40.3297C15.9841 39.6168 12.8054 37.9057 10.184 35.1568C8.81053 33.7309 7.9315 32.4555 7.04461 30.6335C6.14203 28.7957 5.58479 26.839 5.36503 24.7793C5.2316 23.5356 5.25515 18.2676 5.40427 17.0952C5.89873 13.1422 7.60186 9.6329 10.4195 6.77314C11.3299 5.84629 12.6877 4.76893 13.7237 4.15104C14.4929 3.69157 16.3608 2.77264 16.5335 2.77264C16.6512 2.77264 16.6591 3.12913 16.6434 6.90781L16.6198 11.0509L15.1678 11.0984C13.9749 11.146 13.5824 11.1856 12.9546 11.3519C9.38348 12.3025 6.73852 15.2098 6.10279 18.9093C5.93797 19.8757 5.93797 25.1279 6.10279 26.3954C6.3147 28.0272 6.71498 29.2947 7.53122 30.9028C8.16695 32.1624 9.03029 33.319 10.1212 34.3884C12.4601 36.662 15.2699 37.9294 18.527 38.1829C19.7749 38.278 29.2874 38.278 30.6373 38.1829C35.2915 37.8502 39.4591 35.1014 41.5625 30.9741C42.4258 29.2868 42.9281 27.6232 43.1086 25.8329C43.2107 24.7872 43.2107 20.2243 43.1086 19.2895C42.8732 17.1982 42.0412 15.4237 40.5736 13.8869C39.7887 13.063 39.0509 12.5243 38.0385 12.0094C36.665 11.3282 35.5426 11.0905 33.6433 11.0905H32.3561V6.89196C32.3561 4.57881 32.3718 2.69343 32.3954 2.69343C32.4111 2.69343 32.6936 2.79641 33.0233 2.93108ZM35.888 12.4689C36.9554 12.7541 37.7167 13.1026 38.6114 13.7205C39.2236 14.1483 40.1733 15.1068 40.5814 15.7089C41.0131 16.3347 41.5311 17.5071 41.743 18.3389C41.947 19.1073 41.9549 19.2262 41.9941 21.8958C42.0412 25.7537 41.8843 27.1875 41.1936 28.9937C39.616 33.113 36.1391 36.0361 31.8538 36.8521C31.0376 37.0026 30.6452 37.0184 25.4102 37.0501C18.3308 37.0977 17.4204 37.0343 15.4268 36.353C14.5478 36.052 13.2371 35.3866 13.2685 35.2598C13.2764 35.2044 13.2528 35.1885 13.2057 35.2123C13.0409 35.3153 11.4319 34.127 11.5261 33.9765C11.5497 33.9369 11.5183 33.929 11.4633 33.9448C11.3221 34.0002 10.1448 32.7803 9.57969 32.004C8.53584 30.5543 7.93935 29.2789 7.52337 27.5836C7.19374 26.2607 7.14664 25.4051 7.18589 22.1018C7.21728 19.3212 7.23298 18.9964 7.3821 18.4498C8.10417 15.7723 9.92503 13.7205 12.4052 12.7778C13.6531 12.3105 13.347 12.3263 20.0339 12.2788C23.4245 12.255 28.2592 12.2629 30.7864 12.2867C34.7735 12.3263 35.4485 12.3501 35.888 12.4689ZM4.49384 15.3841C4.4546 15.5267 4.36041 16.0733 4.28193 16.5961C4.1642 17.4041 4.14066 18.0933 4.14066 21.167C4.14066 23.1633 4.13281 24.7952 4.12496 24.7952C4.11711 24.7952 3.98369 24.6843 3.82671 24.5496L3.55202 24.304V20.961V17.626L3.18313 17.3012L2.81425 16.9764L3.04186 16.6278C3.30086 16.2397 4.36826 15.1306 4.48599 15.1306C4.53308 15.1306 4.53308 15.2336 4.49384 15.3841ZM45.1963 15.7802C45.628 16.2397 46.1696 16.9526 46.1696 17.0714C46.1696 17.0952 46.044 17.2219 45.8949 17.3566L45.6202 17.6022V20.9452V24.2961L45.3141 24.5417C45.1414 24.6843 44.9923 24.7952 44.9766 24.7952C44.9609 24.7952 44.9766 24.4624 45.008 24.0584C45.0865 23.0365 45.0708 19.1786 44.9844 17.9428C44.9373 17.3725 44.8432 16.5486 44.7725 16.0971C44.694 15.6534 44.6548 15.289 44.6783 15.289C44.7097 15.289 44.9452 15.5108 45.1963 15.7802ZM3.00262 21.27V24.613L3.49708 25.009C4.29763 25.6745 4.29763 25.6745 4.40751 26.3082C4.52523 26.9895 4.94121 28.6372 5.05109 28.8511C5.16097 29.0571 5.05109 29.0254 4.61157 28.7244C3.12819 27.7104 2.05295 25.7933 1.69191 23.496C1.4957 22.2443 1.58203 20.5095 1.88813 19.3291C2.02155 18.8301 2.21776 18.2042 2.33549 17.9508L2.53955 17.4834L2.76716 17.7052L3.00262 17.9349V21.27ZM46.6876 18.1092C47.1663 19.2024 47.4803 21.1591 47.3861 22.4582C47.2448 24.4387 46.6326 26.2132 45.6516 27.4965C45.1022 28.2174 44.1289 29.0175 44.1289 28.7402C44.1289 28.6847 44.2153 28.36 44.3252 28.0193C44.435 27.6866 44.592 27.0212 44.6862 26.5459L44.851 25.6824L45.5103 25.1437L46.1617 24.5971V21.2224C46.1696 17.8795 46.1853 17.6656 46.4286 17.6656C46.46 17.6656 46.5777 17.8636 46.6876 18.1092ZM13.5667 39.593C15.0894 40.5912 16.7533 42.3339 17.9462 44.1797C18.4328 44.9323 19.4139 46.881 19.6494 47.5465C19.7435 47.8317 19.7435 47.8396 19.3354 48.2911C18.7075 48.9803 18.5113 49.4239 18.5349 50.121L18.5427 50.6993H16.6748H14.799V48.6951C14.799 46.6513 14.7205 45.8591 14.4144 44.758C14.2731 44.2669 13.7394 42.936 13.6766 42.936C13.6531 42.936 13.6452 44.6233 13.6609 46.6751L13.6766 50.4221L13.3941 50.9687C13.0173 51.7054 12.3424 52.7431 11.7694 53.4957L11.2985 54.1136L10.7256 53.4957C10.4195 53.1472 9.97212 52.7194 9.73666 52.5372C9.33639 52.2282 8.12771 51.4598 7.9315 51.3964C7.71959 51.3252 9.55614 48.6872 10.498 47.7207C10.8198 47.3801 11.0866 47.087 11.0866 47.0632C11.0866 47.0395 11.1023 45.875 11.1102 44.4807C11.1337 42.1834 11.1572 41.8824 11.3064 41.2883C11.793 39.4108 12.4915 38.888 13.5667 39.593ZM36.7435 39.498C37.1751 39.7515 37.5126 40.5199 37.7481 41.7477C37.8501 42.2706 37.8815 42.936 37.8815 44.7659L37.8894 47.1187L38.478 47.7366C38.8076 48.0851 39.2942 48.6634 39.5689 49.0199C40.0713 49.6933 41.068 51.2301 41.068 51.341C41.068 51.3727 40.7855 51.5549 40.4323 51.745C39.6317 52.1728 38.6664 52.9491 38.1484 53.5829C37.9286 53.8443 37.7167 54.0661 37.6853 54.0661C37.5283 54.0661 36.1862 52.1094 35.5819 51.0083L35.2601 50.4062L35.2523 46.6513V42.8964L35.0246 43.3875C34.2633 45.0432 34.1535 45.6611 34.1064 48.4179L34.0671 50.6993H32.2227H30.3783L30.4332 50.1765C30.4803 49.6853 30.4725 49.622 30.2292 49.1467C30.0879 48.8615 29.7975 48.4575 29.5856 48.2357L29.201 47.8396L29.4522 47.2138C30.7864 43.8628 33.557 40.4644 35.6918 39.5455C36.1627 39.3395 36.4609 39.3316 36.7435 39.498ZM23.8876 41.724C25.8889 41.7477 27.4194 41.7319 28.008 41.6764C28.5182 41.6289 28.942 41.6051 28.9577 41.621C28.9734 41.6368 28.7929 41.9458 28.5496 42.3102C27.9767 43.1737 26.8936 45.3601 26.5011 46.4453L26.195 47.293L24.4762 47.2771L22.7574 47.2534L22.5062 46.58C21.9333 45.0273 21.2897 43.7203 20.4342 42.3498C20.1674 41.922 19.9555 41.5735 19.9555 41.5576C19.9555 41.5418 20.1203 41.5655 20.3322 41.6051C20.5362 41.6448 22.1373 41.7002 23.8876 41.724ZM25.7634 49.5507V50.6201H24.7823C23.8954 50.6201 23.8012 50.636 23.7227 50.7706C23.6757 50.8657 23.6443 51.8084 23.6443 53.266V55.6108H22.4513C21.792 55.6108 21.117 55.5712 20.9522 55.5237C20.654 55.4445 20.0967 55.0009 19.9555 54.7394C19.8848 54.6048 19.7514 52.8541 19.6729 51.0083C19.618 49.7804 19.6808 49.5665 20.2537 49.012C20.7639 48.5129 20.8973 48.4892 23.4716 48.4812H25.7634V49.5507ZM28.4005 48.7585C28.6202 48.9011 28.8949 49.1704 29.0441 49.3922L29.3031 49.7804L29.256 50.7786C29.0676 54.6602 29.0676 54.6761 28.8635 54.9454C28.7615 55.088 28.4868 55.294 28.2592 55.4049C27.8589 55.6108 27.8354 55.6108 26.0616 55.6108H24.2721V53.3927V51.1826L25.2768 51.1588L26.2735 51.135L26.2971 49.8042L26.3128 48.4654L27.1683 48.4971C27.9453 48.5208 28.0394 48.5367 28.4005 48.7585ZM14.6106 52.2599C14.5635 52.6085 14.6185 53.1709 14.7362 53.4799C14.7754 53.5908 14.7283 53.5987 14.4536 53.5749C14.0298 53.5274 13.9042 53.464 13.7394 53.1788C13.606 52.9491 13.6138 52.9412 13.9278 52.4184C14.1946 51.9747 14.281 51.8876 14.4615 51.8876C14.6655 51.8876 14.6734 51.8955 14.6106 52.2599ZM15.9919 52.5768C15.9919 52.965 16.0233 53.3531 16.0547 53.4482C16.1018 53.5829 16.0861 53.6145 15.9762 53.5908C15.8978 53.5749 15.7408 53.5591 15.6309 53.5591C15.2934 53.5432 15.0815 52.8303 15.2385 52.2203C15.3248 51.8955 15.3405 51.8876 15.6623 51.8876H15.9919V52.5768ZM17.2477 52.5372C17.2477 52.9016 17.2791 53.2818 17.3105 53.3927C17.3654 53.5829 17.3576 53.5908 17.0829 53.5908C16.8631 53.5829 16.7768 53.5432 16.6983 53.3927C16.5335 53.0759 16.4864 52.5609 16.5806 52.2124C16.6591 51.9034 16.6826 51.8876 16.9573 51.8876H17.2477V52.5372ZM18.582 52.4976C18.6055 52.8382 18.6447 53.2343 18.6683 53.369C18.7075 53.6304 18.7075 53.6304 18.3857 53.6304C18.0954 53.6304 18.0561 53.6066 17.9462 53.3531C17.8363 53.0838 17.7971 52.2441 17.8834 52.0143C17.9148 51.9272 18.0326 51.8876 18.2288 51.8876H18.527L18.582 52.4976ZM31.0768 52.1015C31.1632 52.4659 31.1318 52.9808 30.9905 53.2977C30.8728 53.5512 30.8257 53.5908 30.5902 53.5908C30.3155 53.5908 30.3155 53.5908 30.3155 53.2264C30.3155 53.0283 30.3391 52.6402 30.3626 52.3708L30.4176 51.8876H30.7158C30.9826 51.8876 31.0297 51.9193 31.0768 52.1015ZM32.3875 52.3154C32.4425 52.7273 32.364 53.2185 32.207 53.472C32.1599 53.5353 32.0108 53.5829 31.8538 53.5908C31.5948 53.5908 31.5791 53.5749 31.6341 53.3927C31.6655 53.2818 31.689 52.9016 31.689 52.5372V51.8876H32.0108H32.3404L32.3875 52.3154ZM33.7375 52.3312C33.7689 52.6402 33.7532 52.8937 33.6747 53.1472C33.5648 53.5036 33.557 53.5116 33.1959 53.5512C32.882 53.5908 32.8271 53.5829 32.8741 53.472C32.9919 53.1868 33.0547 52.6877 33.0076 52.2995L32.9605 51.8876H33.3215H33.6825L33.7375 52.3312ZM35.0482 52.4104C35.3464 52.9174 35.3464 52.9333 35.213 53.1392C35.0089 53.4561 34.8598 53.5432 34.5223 53.5512C34.2476 53.5512 34.2241 53.5353 34.2633 53.369C34.3811 52.8857 34.3968 52.6085 34.334 52.2599L34.2633 51.8876H34.5066C34.7264 51.8955 34.7813 51.951 35.0482 52.4104ZM41.6567 52.5372C41.9627 53.3373 42.0334 53.3927 42.8182 53.5195C44.7804 53.8364 45.8949 54.5731 45.9969 55.6108C46.0518 56.1654 45.8556 56.6248 45.3847 57.0684C44.9295 57.4962 44.49 57.7101 43.7679 57.8448C42.881 58.0111 41.7351 57.7259 40.6599 57.0684C40.1733 56.7753 38.0856 54.7711 38.0856 54.5968C38.0856 54.4463 39.357 53.1472 39.875 52.7748C40.4323 52.3787 41.3113 51.8797 41.382 51.9272C41.4133 51.9431 41.5311 52.2203 41.6567 52.5372ZM8.12771 52.1728C8.80269 52.5213 9.44627 52.9966 10.0349 53.5908C10.7256 54.2879 10.8904 54.5255 10.7884 54.6998C10.6392 54.9771 8.9832 56.5931 8.55153 56.8942C6.8484 58.0587 5.06678 58.2012 3.79532 57.2665C3.14389 56.7991 2.79856 55.9515 3.00262 55.3336C3.29301 54.4463 4.37611 53.8205 6.13418 53.5195C6.8484 53.4007 7.08386 53.3056 7.08386 53.1313C7.08386 52.9808 7.57831 51.9668 7.64895 51.9668C7.68819 51.9668 7.9001 52.0619 8.12771 52.1728ZM18.8096 55.0484C18.9901 55.69 20.0653 56.5218 20.9601 56.712C21.5879 56.8466 27.5528 56.8308 28.1258 56.6882C28.9106 56.506 29.5778 56.0148 30.0487 55.2781C30.1507 55.1118 30.237 54.9375 30.237 54.882C30.237 54.8028 30.653 54.779 32.1521 54.779H34.0671L34.1221 55.3732C34.2241 56.4426 34.3261 56.5218 35.1895 56.1733C35.8095 55.9198 36.5551 55.7693 37.1516 55.7693C37.5048 55.7693 37.5283 55.7851 38.2896 56.5694C39.6082 57.9319 41.2014 58.8508 42.4651 58.9855C42.7084 59.0093 42.9831 59.041 43.0694 59.0568C43.297 59.0806 43.399 59.7301 43.2813 60.459C43.1243 61.5284 42.4415 62.5186 41.5232 63.0414C40.5657 63.5801 38.9489 64.0634 37.3478 64.2852C36.5394 64.404 33.0625 64.5466 33.0625 64.4753C33.0625 64.4515 33.1331 64.2218 33.2273 63.9683C33.4392 63.3662 33.5099 62.2334 33.3843 61.5046C33.2744 60.863 32.9526 60.0549 32.5994 59.5321C32.4582 59.3261 32.364 59.1439 32.3797 59.1202C32.5053 59.0013 35.9508 58.3597 36.9083 58.2884C37.183 58.2646 37.1751 58.2646 36.7121 58.0824C35.9037 57.7655 35.4014 57.6546 34.5537 57.615C33.761 57.5833 33.6668 57.5992 32.1599 57.9794C31.2966 58.1933 30.1742 58.5023 29.6719 58.6528C28.8792 58.8904 28.5967 58.93 27.5921 58.9776C26.9563 59.0093 25.991 59.0964 25.4573 59.1835C24.4841 59.3341 24.4684 59.3341 23.5344 59.1835C23.0085 59.0964 22.0589 59.0013 21.4074 58.9776C20.3086 58.93 20.136 58.8984 18.8802 58.534C18.1424 58.3201 17.0123 58.0111 16.3687 57.8527C14.4536 57.3695 12.9938 57.4566 12.0598 58.0983L11.793 58.2805L12.3973 58.328C13.449 58.4151 16.5806 59.0251 16.5806 59.1519C16.5806 59.1756 16.5178 59.2865 16.4315 59.3974C16.1882 59.7539 15.8271 60.5382 15.678 61.0372C15.576 61.37 15.5367 61.7819 15.5289 62.3839C15.5289 63.1999 15.5603 63.3742 15.8428 64.301L15.8899 64.4832H14.8853C11.997 64.4832 9.57184 64.0554 7.89226 63.2553C6.34609 62.5186 5.63973 61.4333 5.68682 59.8648L5.71036 59.136L5.98506 59.0806C6.13418 59.0489 6.53446 58.9697 6.8641 58.9063C8.11986 58.6607 9.28145 57.9557 10.5765 56.6407C11.4162 55.7851 11.4476 55.7693 11.793 55.7693C12.4836 55.7772 13.1508 55.9198 13.7316 56.197C14.0534 56.3555 14.3673 56.4822 14.4301 56.4822C14.642 56.4822 14.7676 56.1337 14.8068 55.4524C14.8225 55.0801 14.8461 54.779 14.8461 54.779C14.8539 54.779 15.7251 54.779 16.7925 54.779H18.7311L18.8096 55.0484ZM18.8017 59.7301C19.9868 60.0708 20.2694 60.1262 20.8659 60.1262C24.5468 60.1262 26.7915 61.2511 26.7837 63.089C26.7837 63.7069 26.5953 64.1267 26.0773 64.6733C25.5907 65.1962 24.8608 65.5526 24.0367 65.6715C22.8045 65.8458 20.8266 65.4338 18.6761 64.5466L17.9148 64.2297L17.232 64.3169C16.8553 64.3644 16.5256 64.3723 16.4942 64.3406C16.4629 64.3089 16.3608 64.0317 16.2666 63.7306C16.0704 63.0811 16.039 62.0354 16.1882 61.3858C16.3844 60.554 17.0593 59.3341 17.3183 59.3341C17.3811 59.3341 18.0483 59.5083 18.8017 59.7301ZM32.105 59.8331C32.2855 60.1104 32.5367 60.6015 32.6465 60.9263C32.8271 61.4254 32.8584 61.6393 32.8584 62.3839C32.8584 63.0969 32.8192 63.3504 32.6622 63.8099L32.4739 64.3644L31.9637 64.3248C31.0376 64.2614 30.8492 64.2852 30.0644 64.6258C29.3423 64.9427 27.7961 65.4338 27.1447 65.5526L26.8308 65.6081L27.1212 65.2833C28.3063 63.9604 28.22 62.0354 26.9093 60.7124C26.4933 60.2926 26.4305 60.2055 26.5718 60.1975C28.7066 60.1183 29.099 60.0629 30.2763 59.7064C30.9277 59.5083 31.5242 59.342 31.6105 59.342C31.7204 59.3341 31.8774 59.4925 32.105 59.8331Z" fill="black"/>
<path d="M14.8944 12.9993C14.5491 13.0309 13.984 13.1339 13.6386 13.2211C12.8302 13.435 11.4175 14.14 10.7896 14.6549C10.5149 14.8767 10.2559 15.0352 10.2088 15.0035C10.1617 14.9718 10.146 14.9797 10.1696 15.0272C10.1931 15.0668 9.98908 15.3679 9.70653 15.6927C8.7961 16.7463 8.21531 17.8711 7.86212 19.2575C7.713 19.8516 7.68946 20.2001 7.65806 22.5529C7.61882 25.2146 7.67376 26.189 7.90921 27.3773C8.34873 29.5161 9.52601 31.6946 11.1271 33.3186C12.7204 34.9346 14.5962 35.9882 16.9743 36.5824L17.7984 36.7883L24.2185 36.8121C30.3325 36.8438 30.6857 36.8359 31.5568 36.6853C32.8048 36.4714 33.621 36.2021 34.8297 35.608C36.1639 34.9425 37.0979 34.2534 38.181 33.1205C38.6676 32.6135 39.0993 32.2095 39.1307 32.2254C39.1699 32.2333 39.1778 32.2095 39.1464 32.1699C39.1228 32.1224 39.2563 31.8689 39.4446 31.5916C40.2452 30.4113 40.9044 28.8428 41.2419 27.3218C41.4146 26.5296 41.4225 26.3712 41.4225 23.0124V19.5268L41.2027 18.8138C40.1824 15.5105 37.5924 13.332 34.2803 12.9993C33.3463 12.9042 15.8362 12.9042 14.8944 12.9993ZM16.4249 14.5282C14.3921 15.249 12.7989 16.9126 12.0061 19.1465C11.5823 20.3348 11.5431 20.7784 11.5823 24.3432C11.6059 27.2901 11.6294 27.6783 11.7785 28.3358C12.1239 29.8885 12.7204 31.3857 13.4738 32.5581C13.8976 33.2077 13.8113 33.1839 12.9009 32.3838C11.3547 31.0371 10.2167 29.1755 9.70653 27.1871C9.41613 26.0306 9.33765 24.977 9.37689 22.4499C9.41613 19.9466 9.47892 19.5347 9.98123 18.4177C10.8289 16.5324 12.6262 15.051 14.659 14.544C15.2947 14.3856 15.4909 14.3618 16.2679 14.3539L16.935 14.346L16.4249 14.5282ZM36.6348 15.4471C37.5296 15.8828 38.1732 16.9047 38.1889 17.8791C38.1967 19.0515 37.5453 19.7565 36.4622 19.7486C34.9317 19.7407 33.5896 17.9345 33.9977 16.4373C34.1076 16.0175 34.5079 15.5421 34.9003 15.352C35.3477 15.1461 36.109 15.1857 36.6348 15.4471ZM38.5263 20.1685C39.1385 20.4616 39.2955 21.4359 38.801 21.8796C38.3929 22.2519 37.8435 22.141 37.5845 21.6419C37.2784 21.0399 37.5217 20.2001 38.0319 20.0972C38.1261 20.0813 38.2203 20.0576 38.2281 20.0496C38.2438 20.0496 38.3851 20.0972 38.5263 20.1685Z" fill="black"/>
<ellipse opacity="0.2" cx="24.5758" cy="76.5345" rx="13.0972" ry="2.46565" fill="#383737"/>
</svg>
